<svg width="48" height="48" viewBox="0 0 48 48" fill="none" xmlns="http://www.w3.org/2000/svg">
<path d="M35.819 34.6441C36.4156 35.2678 36.4467 36.264 35.8273 36.8834C35.2195 37.4912 34.2095 37.4912 33.6018 36.8834C32.0041 35.2857 30.4339 33.6505 28.8542 32.0317C28.79 31.9657 28.7134 31.913 28.6288 31.8766C28.5442 31.8402 28.4533 31.8208 28.3612 31.8195C28.2692 31.8183 28.1778 31.8351 28.0922 31.8692C28.0067 31.9033 27.9287 31.9538 27.8627 32.018C27.7294 32.1477 27.653 32.325 27.6505 32.5109C27.6479 32.6969 27.7192 32.8762 27.8489 33.0095L32.177 37.4446C32.7932 38.0631 32.8016 39.0591 32.1823 39.6783C31.5713 40.2892 30.568 40.2893 29.9569 39.6783C28.2911 38.0124 26.6548 36.3127 25.0079 34.6251C24.9441 34.5574 24.8675 34.5031 24.7825 34.4653C24.6975 34.4276 24.6058 34.4071 24.5128 34.405C24.4198 34.403 24.3274 34.4195 24.2408 34.4536C24.1543 34.4876 24.0753 34.5386 24.0087 34.6034C23.942 34.6683 23.8889 34.7457 23.8524 34.8313C23.816 34.9169 23.7969 35.0088 23.7963 35.1019C23.7958 35.1949 23.8137 35.2871 23.8491 35.3731C23.8845 35.4591 23.9367 35.5372 24.0026 35.6028L28.3308 40.0379C28.9468 40.6563 28.9556 41.6523 28.3365 42.2716C27.7238 42.8842 26.7235 42.8841 26.1109 42.2717C24.302 40.4628 22.5254 38.6261 20.7373 36.7939C20.607 36.6633 20.4305 36.5892 20.2461 36.5878C20.0616 36.5864 19.884 36.6577 19.7517 36.7864C19.6195 36.915 19.5432 37.0906 19.5396 37.275C19.5359 37.4595 19.605 37.6379 19.732 37.7718L24.0602 42.2068C24.5164 42.6648 24.5214 43.4033 24.0577 43.8577C23.6163 44.2887 22.8881 44.3049 22.4476 43.8644C19.7415 41.1286 17.0393 38.363 14.3736 35.5878C13.3484 34.5203 11.6374 32.7391 9.35922 31.5993L13.6052 19.3383C14.3312 19.5262 15.0356 19.6548 15.7384 19.729C16.9335 19.855 18.1123 19.822 19.3743 19.6528L17.5146 21.4013C16.6913 22.1755 16.2533 23.1844 16.2533 24.315V31.8945C16.2533 32.081 16.3274 32.2598 16.4593 32.3917C16.5911 32.5235 16.77 32.5976 16.9564 32.5976C18.6439 32.5976 20.3481 32.0346 21.591 31.0285C22.7543 30.0868 23.5189 28.7648 23.5189 27.1515C23.5189 25.921 24.5315 25.0238 25.228 24.4565L33.4834 32.7069C33.8775 33.1008 34.3305 33.3992 34.8174 33.5973L35.819 34.6441ZM17.9846 12.5607C18.0771 12.7217 18.2298 12.8393 18.409 12.8877C18.5883 12.9362 18.7794 12.9114 18.9404 12.8189C19.1014 12.7264 19.219 12.5737 19.2674 12.3945C19.3158 12.2152 19.2911 12.0241 19.1986 11.8631L16.5651 7.30178C16.5193 7.22207 16.4583 7.15216 16.3854 7.09605C16.3126 7.03994 16.2295 6.99871 16.1407 6.97474C16.052 6.95076 15.9593 6.9445 15.8682 6.95632C15.777 6.96813 15.6891 6.99779 15.6093 7.04359C15.5296 7.0894 15.4597 7.15046 15.4036 7.22328C15.3475 7.2961 15.3063 7.37926 15.2823 7.46801C15.2583 7.55676 15.2521 7.64937 15.2639 7.74054C15.2757 7.83171 15.3054 7.91966 15.3512 7.99938L17.9846 12.5607ZM24.2031 11.4114C24.3896 11.4114 24.5684 11.3373 24.7003 11.2055C24.8322 11.0736 24.9062 10.8948 24.9062 10.7083V5.44141C24.9062 5.25493 24.8322 5.07608 24.7003 4.94422C24.5684 4.81236 24.3896 4.73828 24.2031 4.73828C24.0166 4.73828 23.8378 4.81236 23.7059 4.94422C23.5741 5.07608 23.5 5.25493 23.5 5.44141V10.7083C23.5 10.8948 23.5741 11.0736 23.7059 11.2055C23.8378 11.3373 24.0166 11.4114 24.2031 11.4114ZM29.4632 12.8189C29.5429 12.865 29.6309 12.8951 29.7222 12.9072C29.8135 12.9194 29.9063 12.9134 29.9953 12.8897C30.0843 12.866 30.1678 12.8249 30.2409 12.769C30.3141 12.713 30.3755 12.6431 30.4217 12.5634L33.0551 8.00209C33.1458 7.84124 33.1695 7.65109 33.1209 7.47291C33.0724 7.29473 32.9555 7.14289 32.7957 7.05033C32.6359 6.95777 32.446 6.93197 32.2673 6.97852C32.0885 7.02506 31.9354 7.14021 31.841 7.29897L29.2076 11.8603C29.1144 12.0213 29.089 12.2127 29.1369 12.3925C29.1848 12.5723 29.3022 12.7256 29.4632 12.8189ZM29.6773 17.7704C29.1612 17.6071 28.6402 17.4421 28.1211 17.2943C27.09 17.0008 26.065 16.9779 25.1071 17.2109C24.1488 17.4439 23.2493 17.9346 22.4693 18.6681L18.476 22.4228C17.9245 22.9413 17.6597 23.5581 17.6597 24.3147V31.1525C18.7953 31.028 19.8848 30.6059 20.7066 29.9406C21.5551 29.2538 22.1127 28.3012 22.1127 27.1512C22.1127 25.1678 23.601 23.9666 24.4891 23.2497C24.6062 23.1552 24.7099 23.0715 24.8062 22.9856L24.807 22.9865C24.9404 22.8678 25.114 22.8045 25.2925 22.8094C25.471 22.8143 25.6409 22.8872 25.7675 23.0131L34.4722 31.7123C34.8535 32.0934 35.3104 32.3376 35.793 32.4348C36.2752 32.532 36.7916 32.4835 37.2919 32.2793C37.9024 32.0301 38.4624 31.7594 39.0081 31.4871L34.6398 18.8733C32.8262 18.7669 31.2737 18.2757 29.6773 17.7704ZM35.7257 16.1083C35.5942 16.161 35.4881 16.2622 35.4294 16.3911C35.3707 16.5199 35.3638 16.6664 35.4102 16.8002L40.902 32.6585C40.9803 32.8846 41.1837 33.0294 41.4228 33.0294H47.4062V14.9431C43.5127 14.1562 39.6192 14.5447 35.7257 16.1083ZM12.6806 16.1083C8.78706 14.5447 4.89353 14.1562 1 14.9431V33.0294H6.98331C7.22247 33.0294 7.42591 32.8846 7.50419 32.6585L12.996 16.8002C13.0424 16.6664 13.0356 16.5199 12.9768 16.3911C12.9181 16.2622 12.812 16.161 12.6806 16.1083Z" fill="#8035E8"/>
</svg>
