<svg width="48" height="48" viewBox="0 0 48 48" fill="none" xmlns="http://www.w3.org/2000/svg">
<path d="M46.781 34.2556V31.5212L45.0837 30.7399L44.6434 29.6748L45.2898 27.9224L43.3562 25.9888L41.604 26.6352L40.5409 26.195L39.7569 24.4976H37.0224L36.2412 26.195L35.1762 26.6353L33.4237 25.9888L31.49 27.9224L32.1364 29.6748L31.6962 30.7399L29.9988 31.5212V34.2556L31.6963 35.0397L32.1364 36.1026L31.49 37.8549L33.4237 39.7884L35.1762 39.1421L36.2412 39.5823L37.0224 41.2798H39.7569L40.5409 39.5823L41.604 39.1422L43.3562 39.7885L45.2898 37.8549L44.6434 36.1026L45.0836 35.0397L46.781 34.2556ZM38.3897 36.2449C36.5429 36.2449 35.0361 34.7382 35.0361 32.8886C35.0361 31.039 36.5429 29.5322 38.3897 29.5322C40.2366 29.5322 41.7461 31.0416 41.7461 32.8886C41.7461 34.7356 40.2393 36.2449 38.3897 36.2449ZM9.00559 28.966H17.4659C17.4587 29.0187 17.4527 29.0715 17.4477 29.1244L17.4463 30.8391H9.02687V29.1763L9.02425 29.1215C9.01908 29.0696 9.01286 29.0177 9.00559 28.966ZM9.02687 32.1512C9.02687 33.0793 9.78072 33.8343 10.7072 33.8343H15.7622C16.6903 33.8343 17.4453 33.0793 17.4453 32.1512V31.9641H9.02687V32.1512ZM13.2347 11.4043C8.3754 11.4043 4.42216 15.3575 4.42216 20.2168C4.42216 23.0292 5.78209 25.6958 8.05994 27.3499C8.27125 27.5036 8.43437 27.6702 8.56281 27.841H12.6722V20.7793H12.2672C11.0937 20.7793 10.1389 19.8244 10.1389 18.6509C10.1389 18.4434 10.1671 18.2418 10.2225 18.0519C10.266 17.9108 10.3633 17.7926 10.4933 17.7226C10.6233 17.6526 10.7756 17.6366 10.9173 17.6779C11.0591 17.7192 11.1789 17.8146 11.2509 17.9435C11.3229 18.0723 11.3414 18.2243 11.3024 18.3667C11.2769 18.4544 11.2639 18.5499 11.2639 18.6509C11.2639 19.2042 11.714 19.6543 12.2672 19.6543H14.2051C14.7583 19.6543 15.2085 19.2042 15.2085 18.6509C15.2085 18.5567 15.1946 18.461 15.1671 18.3667C15.1464 18.2958 15.1399 18.2215 15.148 18.1481C15.156 18.0747 15.1784 18.0036 15.2139 17.9388C15.2494 17.874 15.2974 17.8169 15.355 17.7707C15.4126 17.7244 15.4787 17.69 15.5496 17.6693C15.8479 17.5821 16.1602 17.7537 16.247 18.0519C16.3044 18.2485 16.3335 18.4501 16.3335 18.6509C16.3335 19.8245 15.3786 20.7793 14.2051 20.7793H13.7972V27.841H17.9063C18.0346 27.6704 18.1977 27.5039 18.4091 27.3501C20.6873 25.6959 22.0472 23.0293 22.0472 20.2168C22.0472 15.3576 18.0939 11.4043 13.2347 11.4043ZM10.9307 34.9593H15.5388L15.2253 36.201C15.1677 36.4314 14.9358 36.664 14.5478 36.664H11.9215C11.5336 36.664 11.3018 36.4315 11.2439 36.1998L10.9307 34.9593ZM13.2347 10.1398C13.0855 10.1398 12.9424 10.0805 12.8369 9.97503C12.7314 9.86954 12.6722 9.72647 12.6722 9.57728V7.28125C12.6722 7.13207 12.7314 6.98899 12.8369 6.8835C12.9424 6.77801 13.0855 6.71875 13.2347 6.71875C13.3838 6.71875 13.5269 6.77801 13.6324 6.8835C13.7379 6.98899 13.7972 7.13207 13.7972 7.28125V9.57728C13.7972 9.72647 13.7379 9.86954 13.6324 9.97503C13.5269 10.0805 13.3838 10.1398 13.2347 10.1398ZM7.77147 11.6041C7.67258 11.6042 7.57542 11.5782 7.48978 11.5288C7.40413 11.4794 7.33305 11.4082 7.28369 11.3225L6.13572 9.33212C6.09766 9.26809 6.0727 9.19714 6.06228 9.12338C6.05186 9.04962 6.0562 8.97453 6.07504 8.90247C6.09388 8.8304 6.12684 8.76279 6.17202 8.70357C6.2172 8.64434 6.27369 8.59468 6.33821 8.55746C6.40274 8.52024 6.47401 8.49622 6.5479 8.48677C6.62179 8.47732 6.69682 8.48264 6.76863 8.50242C6.84044 8.5222 6.90761 8.55605 6.96624 8.602C7.02487 8.64795 7.07379 8.70509 7.11016 8.77009L8.25812 10.7605C8.30743 10.846 8.33338 10.9429 8.33338 11.0416C8.33337 11.1402 8.30742 11.2372 8.25811 11.3226C8.2088 11.4081 8.13788 11.4791 8.05246 11.5285C7.96705 11.5779 7.87014 11.604 7.77147 11.6041ZM3.77106 15.6917C3.67257 15.6916 3.57582 15.6657 3.49056 15.6164L1.50015 14.4684C1.37094 14.3939 1.27663 14.271 1.23797 14.127C1.19931 13.9829 1.21946 13.8293 1.294 13.7001C1.33088 13.6361 1.38001 13.58 1.43859 13.535C1.49717 13.49 1.56404 13.4569 1.63539 13.4378C1.70675 13.4186 1.78117 13.4137 1.85442 13.4233C1.92767 13.433 1.9983 13.4569 2.06228 13.4939L4.05269 14.6418C4.16004 14.7037 4.24395 14.7993 4.29138 14.9138C4.33882 15.0283 4.34713 15.1552 4.31503 15.2749C4.28292 15.3946 4.21219 15.5003 4.11383 15.5757C4.01547 15.651 3.89497 15.6918 3.77106 15.6917ZM18.7004 11.6041C18.6017 11.604 18.5048 11.5779 18.4194 11.5285C18.334 11.4791 18.263 11.4081 18.2137 11.3226C18.1644 11.2372 18.1385 11.1402 18.1385 11.0416C18.1385 10.9429 18.1644 10.846 18.2137 10.7605L19.3617 8.77009C19.3986 8.70611 19.4477 8.65002 19.5063 8.60503C19.5649 8.56004 19.6318 8.52703 19.7031 8.50788C19.7744 8.48874 19.8488 8.48383 19.9221 8.49344C19.9953 8.50305 20.0659 8.52699 20.1299 8.56389C20.1939 8.60079 20.25 8.64994 20.295 8.70852C20.34 8.7671 20.373 8.83396 20.3921 8.9053C20.4113 8.97664 20.4162 9.05105 20.4066 9.12428C20.397 9.19752 20.373 9.26814 20.3361 9.33212L19.1882 11.3225C19.1388 11.4082 19.0677 11.4794 18.9821 11.5288C18.8964 11.5782 18.7993 11.6042 18.7004 11.6041ZM22.701 15.6917C22.5771 15.6918 22.4566 15.6511 22.3582 15.5758C22.2598 15.5004 22.1891 15.3947 22.1569 15.275C22.1248 15.1554 22.1331 15.0285 22.1805 14.914C22.2279 14.7995 22.3117 14.7039 22.4191 14.6419L24.4067 13.494C24.5359 13.4194 24.6895 13.3991 24.8336 13.4377C24.9777 13.4763 25.1006 13.5706 25.1752 13.6997C25.2498 13.8289 25.2701 13.9825 25.2315 14.1266C25.1929 14.2707 25.0986 14.3936 24.9694 14.4682L22.9817 15.6162C22.8964 15.6656 22.7996 15.6917 22.701 15.6917ZM24.8786 21.7603V36.664H18.5703L18.5727 29.182C18.5727 28.8448 18.6907 28.6697 18.8056 28.5169C18.877 28.4218 18.9638 28.3378 19.07 28.2604C21.2171 26.7014 22.6401 24.3443 23.0496 21.7603H24.8785H24.8786ZM30.7301 36.664H26.8569V17.3623H33.1652V24.7862C33.0582 24.8084 32.96 24.8614 32.8827 24.9386L30.4397 27.3813C30.3637 27.4574 30.3111 27.5535 30.2881 27.6585C30.265 27.7635 30.2725 27.8729 30.3097 27.9738L30.9286 29.6515L30.8249 29.9025L29.2009 30.6498C29.1032 30.6948 29.0204 30.7668 28.9624 30.8574C28.9044 30.948 28.8736 31.0533 28.8736 31.1609V34.6154C28.8736 34.7228 28.9043 34.828 28.9622 34.9185C29.0201 35.009 29.1027 35.081 29.2002 35.126L30.825 35.8766L30.9285 36.1264L30.7302 36.6641L30.7301 36.664ZM35.2367 13.9981H33.1564L38.3898 6.71875L43.6232 13.9981H41.543V25.3922L41.3778 25.3238L40.6274 23.699C40.5823 23.6015 40.5103 23.5189 40.4198 23.461C40.3293 23.4032 40.2241 23.3724 40.1167 23.3724H36.6621C36.5546 23.3724 36.4493 23.4032 36.3587 23.4612C36.2682 23.5193 36.1962 23.602 36.1512 23.6997L35.4036 25.3237L35.2368 25.3927V13.9981H35.2367Z" fill="#75BB0B"/>
</svg>
