<svg width="48" height="48" viewBox="0 0 48 48" fill="none" xmlns="http://www.w3.org/2000/svg">
<g clip-path="url(#clip0_344_2448)">
<path d="M43.5508 25.25H37.5257C36.7491 25.25 36.1195 25.8796 36.1195 26.6563V42.3766H44.957V26.6563C44.957 25.8796 44.3274 25.25 43.5508 25.25ZM13.4258 39.1641C12.6492 39.1641 12.0195 39.7937 12.0195 40.5703V42.3766H20.8571V40.5703C20.8571 39.7937 20.2274 39.1641 19.4508 39.1641H13.4258ZM25.4758 32.207C24.6991 32.207 24.0695 32.8366 24.0695 33.6132V42.3766H32.907V33.6132C32.907 32.8366 32.2774 32.207 31.5008 32.207H25.4758Z" fill="#F99811"/>
<path d="M46.5649 45.1872H8.80859V23.6021C7.84967 23.4858 6.90648 23.2643 5.99609 22.9414V46.5934C5.99609 47.37 6.62572 47.9997 7.40234 47.9997H46.5648C48.4167 47.9358 48.4385 45.26 46.5649 45.1872Z" fill="#F99811"/>
<path d="M39.0757 15.8997L39.9104 16.1237L12.7241 31.8197C12.0514 32.208 11.821 33.0681 12.2094 33.7406C12.5398 34.3129 13.362 34.6989 14.1303 34.2553L41.3182 18.5585L41.0942 19.397C40.8937 20.1473 41.3395 20.9182 42.0898 21.1186C42.8768 21.3288 43.6209 20.8362 43.8113 20.123L44.9108 16.0079C45.1112 15.2581 44.6663 14.4878 43.9167 14.2867L39.8047 13.1834C37.9885 12.767 37.2931 15.3497 39.0757 15.8997ZM20.8584 10.4438C20.8584 4.68506 16.1733 0 10.4146 0C-3.42136 0.525094 -3.41761 20.3645 10.4147 20.8875C16.1733 20.8874 20.8584 16.2024 20.8584 10.4438ZM9.10843 10.5438V4.51875C9.17715 2.65584 11.8521 2.65547 11.9209 4.51875V9.13744H15.0334C16.8961 9.20606 16.897 11.881 15.0334 11.9499H10.5147C9.73805 11.95 9.10843 11.3204 9.10843 10.5438Z" fill="#F99811"/>
</g>
<defs>
<clipPath id="clip0_344_2448">
<rect width="48" height="48" fill="white"/>
</clipPath>
</defs>
</svg>
