<svg width="48" height="48" viewBox="0 0 48 48" fill="none" xmlns="http://www.w3.org/2000/svg">
<path d="M43.2008 41.7649H4.80078V6.99609H8.4579V38.0003H43.2008V41.7649Z" fill="#20D8F8"/>
<path d="M26.6105 23.8836H30.1399V37.0404H26.6105V23.8836ZM19.3836 19.1776H22.9131V37.0404H19.3836V19.1776ZM12.1562 13.2952H15.6857V37.0404H12.1562V13.2952ZM29.6326 18.3319L39.2931 20.2418L32.8083 12.8306L31.9971 14.2365L18.1438 6.23828L16.5905 8.92772L30.4443 16.926L29.6326 18.3319ZM43.063 31.422L39.7107 24.6256C39.2239 23.6378 37.8156 23.6378 37.3284 24.6256L33.9761 31.422C33.8762 31.6245 33.8296 31.8491 33.8407 32.0746C33.8518 32.3002 33.9201 32.5191 34.0394 32.7109C34.1586 32.9026 34.3248 33.0608 34.5222 33.1705C34.7196 33.2801 34.9417 33.3377 35.1675 33.3376H41.8721C42.0979 33.3376 42.3199 33.28 42.5172 33.1703C42.7145 33.0606 42.8806 32.9024 42.9998 32.7107C43.119 32.519 43.1873 32.3 43.1984 32.0745C43.2094 31.849 43.1628 31.6244 43.063 31.422ZM37.7998 26.6589C37.7998 26.468 37.8756 26.2848 38.0107 26.1498C38.1457 26.0148 38.3288 25.9389 38.5198 25.9389C38.7107 25.9389 38.8939 26.0148 39.0289 26.1498C39.1639 26.2848 39.2398 26.468 39.2398 26.6589V29.5912C39.2398 29.7822 39.1639 29.9653 39.0289 30.1004C38.8939 30.2354 38.7107 30.3112 38.5198 30.3112C38.3288 30.3112 38.1457 30.2354 38.0107 30.1004C37.8756 29.9653 37.7998 29.7822 37.7998 29.5912V26.6589ZM39.2359 31.4359C39.2336 31.4592 39.2301 31.4825 39.2254 31.5055C39.221 31.5287 39.2153 31.5516 39.2081 31.5741C39.2014 31.5962 39.1932 31.6188 39.1846 31.6404C39.1759 31.662 39.1654 31.6836 39.1543 31.7042C39.1433 31.7248 39.1313 31.745 39.1183 31.7647C39.1053 31.7843 39.0912 31.8033 39.0761 31.8213C39.061 31.8397 39.045 31.8573 39.0281 31.8741C39.0118 31.8904 38.994 31.9068 38.9758 31.9221C38.939 31.9516 38.8996 31.9778 38.8582 32.0004C38.8165 32.0221 38.773 32.0401 38.7281 32.0541C38.7055 32.0608 38.6825 32.0666 38.6599 32.0714C38.6368 32.0761 38.6134 32.0797 38.5898 32.082C38.5664 32.0843 38.5429 32.0854 38.5193 32.0853C38.4956 32.0854 38.4719 32.0843 38.4483 32.082C38.4252 32.0796 38.4003 32.0762 38.3782 32.0714C38.3561 32.0666 38.3326 32.0608 38.31 32.0541C38.2651 32.0401 38.2216 32.0221 38.1799 32.0004C38.1593 31.9893 38.1391 31.9768 38.1195 31.9639C38.0997 31.9509 38.0807 31.937 38.0623 31.9221C38.0441 31.9072 38.0268 31.8909 38.01 31.8741C37.9931 31.8573 37.9771 31.8397 37.962 31.8213C37.9471 31.8036 37.9332 31.7844 37.9198 31.7647C37.9063 31.745 37.8948 31.7248 37.8838 31.7042C37.8727 31.6835 37.8628 31.6622 37.854 31.6404C37.8449 31.6187 37.8369 31.5966 37.83 31.5741C37.8233 31.5516 37.8175 31.5261 37.8127 31.5055C37.808 31.4825 37.8045 31.4592 37.8022 31.4359C37.7999 31.4123 37.7987 31.3886 37.7988 31.3648C37.7987 31.3413 37.7999 31.3177 37.8022 31.2943C37.8045 31.2708 37.808 31.2474 37.8127 31.2242C37.8175 31.2012 37.8233 31.1762 37.83 31.156C37.8369 31.1334 37.8449 31.1111 37.854 31.0893C37.8628 31.0677 37.8727 31.0465 37.8838 31.026C37.8947 31.0052 37.9068 30.985 37.9198 30.9655C37.9332 30.9458 37.9471 30.9266 37.962 30.9084C37.9771 30.89 37.9931 30.8723 38.01 30.8556C38.0268 30.8392 38.0441 30.8234 38.0623 30.8076C38.0806 30.7917 38.0998 30.7788 38.1195 30.7658C38.1391 30.7528 38.1593 30.7408 38.1799 30.7298C38.2006 30.7188 38.2222 30.7087 38.2438 30.6996C38.2654 30.6904 38.2875 30.6828 38.31 30.676C38.3324 30.6689 38.3551 30.6632 38.3782 30.6588C38.4017 30.654 38.4262 30.6506 38.4483 30.6482C38.4953 30.6434 38.5428 30.6434 38.5898 30.6482C38.6134 30.6505 38.6368 30.654 38.6599 30.6588C38.683 30.6632 38.7057 30.6689 38.7281 30.676C38.7507 30.6828 38.7727 30.6909 38.7943 30.6996C38.8159 30.7082 38.8375 30.7188 38.8582 30.7298C38.8789 30.7408 38.8991 30.7528 38.9187 30.7658C38.9383 30.7788 38.9575 30.7932 38.9758 30.8076C38.994 30.822 39.0118 30.8388 39.0281 30.8556C39.0615 30.8892 39.0915 30.9261 39.1178 30.9655C39.1309 30.985 39.1429 31.0052 39.1539 31.026C39.1651 31.0464 39.1751 31.0676 39.1841 31.0893C39.1927 31.1114 39.2009 31.1335 39.2076 31.156C39.2148 31.1784 39.2206 31.2011 39.2249 31.2242C39.2296 31.2474 39.2331 31.2708 39.2355 31.2943C39.2379 31.3177 39.2392 31.3413 39.2393 31.3648C39.2394 31.3886 39.2382 31.4123 39.2359 31.4359Z" fill="#20D8F8"/>
</svg>
