<svg width="48" height="48" viewBox="0 0 48 48" fill="none" xmlns="http://www.w3.org/2000/svg">
<g clip-path="url(#clip0_344_2469)">
<path d="M40.2055 23.112C40.1306 22.6174 39.8799 22.1665 39.4994 21.8418C39.1189 21.5172 38.6342 21.3405 38.134 21.3443H21.3427L18.2933 17.7349C17.647 16.976 16.6984 16.4979 15.7004 16.4979H4.79051C4.01311 16.4979 3.27427 16.8619 2.77143 17.4573C2.52335 17.7577 2.34277 18.1079 2.2419 18.4842C2.14104 18.8605 2.12226 19.2541 2.18683 19.6383L2.47681 21.3443H2.28555C1.98531 21.3405 1.68784 21.4022 1.41391 21.5252C1.13998 21.6481 0.89618 21.8294 0.699526 22.0563C0.502872 22.2832 0.358099 22.5503 0.27531 22.8389C0.19252 23.1276 0.173709 23.4308 0.220187 23.7274L3.60744 45.7045C3.70685 46.344 4.03172 46.9269 4.52338 47.3479C5.01503 47.7688 5.64102 48 6.28825 47.9997H41.4518C41.7517 47.999 42.0478 47.9339 42.3203 47.8089C42.5928 47.6839 42.8353 47.5018 43.0314 47.275C43.2275 47.0482 43.3726 46.782 43.457 46.4942C43.5413 46.2065 43.5629 45.9041 43.5203 45.6073L40.2055 23.112ZM31.8454 6.71094H18.7113C17.8058 6.71094 17.0716 7.52844 17.0716 8.43541C17.0716 9.34238 17.8074 10.1599 18.7113 10.1599H31.8454C32.7539 10.1599 33.4865 9.34238 33.4865 8.43541C33.4865 7.52844 32.7508 6.71094 31.8454 6.71094ZM47.3194 18.7962C47.133 18.5756 46.9015 18.3976 46.6405 18.2741C46.3794 18.1507 46.095 18.0846 45.8062 18.0805H42.0796L42.928 25.9393L44.9532 39.6688L47.7883 20.4003C47.8281 20.115 47.8069 19.8244 47.726 19.5479C47.6452 19.2714 47.5066 19.0152 47.3194 18.7962Z" fill="#EF1C79"/>
<path d="M13.9201 3.16977H36.8473V18.7348H40.0186V2.016C40.0125 1.48107 39.7965 0.96995 39.4171 0.59283C39.0376 0.215709 38.5252 0.00279828 37.9902 0L12.6352 0C11.4228 0 10.4727 0.997975 10.4727 2.21035V14.2601H13.9201V3.16977Z" fill="#EF1C79"/>
<path d="M31.8437 13.0508H18.7096C17.9214 13.0508 17.2643 13.6739 17.1055 14.4375C18.2409 14.7214 19.2601 15.3509 20.0223 16.2391L20.2614 16.4982H31.8437C32.7522 16.4982 33.4849 15.6807 33.4849 14.7737C33.4849 13.8667 32.7492 13.0508 31.8437 13.0508Z" fill="#EF1C79"/>
</g>
<defs>
<clipPath id="clip0_344_2469">
<rect width="48" height="48" fill="white"/>
</clipPath>
</defs>
</svg>
