<svg width="24" height="24" viewBox="0 0 24 24" fill="none" xmlns="http://www.w3.org/2000/svg">
<g clip-path="url(#clip0_1434_1451)">
<path d="M17.8612 23.25H6.13875C3.16725 23.25 0.75 20.8328 0.75 17.862V6.138C0.75 3.16725 3.16725 0.75 6.13875 0.75H17.862C20.8328 0.75 23.25 3.16725 23.25 6.138V17.862C23.25 20.8328 20.8328 23.25 17.8612 23.25ZM6.13875 2.25C5.10782 2.25099 4.1194 2.66091 3.39035 3.38982C2.6613 4.11872 2.25119 5.10707 2.25 6.138V17.862C2.25119 18.8929 2.6613 19.8813 3.39035 20.6102C4.1194 21.3391 5.10782 21.749 6.13875 21.75H17.862C18.8928 21.7488 19.881 21.3388 20.6099 20.6099C21.3388 19.881 21.7488 18.8928 21.75 17.862V6.138C21.7488 5.10707 21.3387 4.11872 20.6096 3.38982C19.8806 2.66091 18.8922 2.25099 17.8612 2.25H6.13875Z" fill="#6762FE"/>
<path d="M11.625 8.25014C11.4261 8.25014 11.2353 8.32916 11.0947 8.46981C10.954 8.61047 10.875 8.80123 10.875 9.00014V12.0001C10.875 13.2406 10.0342 14.2501 9 14.2501C7.96575 14.2501 7.125 13.2406 7.125 12.0001V9.00014C7.125 8.58839 6.78675 8.25014 6.375 8.25014C5.96325 8.25014 5.625 8.58839 5.625 9.00014V12.0001C5.625 14.0679 7.13925 15.7501 9 15.7501C10.8608 15.7501 12.375 14.0679 12.375 12.0001V9.00014C12.375 8.80123 12.296 8.61047 12.1553 8.46981C12.0147 8.32916 11.8239 8.25014 11.625 8.25014ZM16.6343 12.0001L18.261 9.39764C18.3596 9.22926 18.3887 9.02906 18.3421 8.83957C18.2956 8.65007 18.1769 8.48619 18.0115 8.38272C17.846 8.27925 17.6468 8.24434 17.456 8.28541C17.2652 8.32647 17.098 8.44027 16.9897 8.60264L15.75 10.5856L14.511 8.60339C14.4603 8.51682 14.3927 8.4413 14.3123 8.38131C14.2319 8.32131 14.1403 8.27806 14.0429 8.25411C13.9454 8.23016 13.8442 8.226 13.7451 8.24187C13.6461 8.25775 13.5512 8.29333 13.4662 8.34653C13.3811 8.39972 13.3076 8.46944 13.2499 8.55156C13.1923 8.63368 13.1517 8.72653 13.1306 8.8246C13.1095 8.92268 13.1083 9.024 13.127 9.12256C13.1458 9.22112 13.1841 9.31491 13.2397 9.39839L14.8657 12.0001L13.239 14.6026C13.1343 14.7714 13.1005 14.9748 13.1451 15.1683C13.1896 15.3619 13.3088 15.5301 13.4767 15.6361C13.6457 15.7406 13.849 15.7741 14.0425 15.7294C14.2361 15.6848 14.4042 15.5655 14.5103 15.3976L15.75 13.4146L16.989 15.3969C17.2073 15.7456 17.6738 15.8536 18.0225 15.6354C18.3713 15.4171 18.4785 14.9506 18.2603 14.6019L16.6343 12.0001Z" fill="#6762FE"/>
</g>
<defs>
<clipPath id="clip0_1434_1451">
<rect width="24" height="24" fill="white"/>
</clipPath>
</defs>
</svg>
