<svg width="24" height="24" viewBox="0 0 24 24" fill="none" xmlns="http://www.w3.org/2000/svg">
<path d="M16.8279 9.18676H15.3084C14.917 9.18676 14.5801 9.32799 14.3057 9.60708L12.7794 11.1594C12.2306 11.7176 11.5568 12 10.774 12H8.30566M18.3214 2.15674H21.8906C22.664 2.15674 23.2968 2.78953 23.2968 3.56295C23.2968 4.33637 22.6641 4.96916 21.8906 4.96916H18.3214C17.548 4.96916 16.9152 4.33637 16.9152 3.56295C16.9152 2.78953 17.548 2.15674 18.3214 2.15674Z" stroke="#6762FE" stroke-width="1.40621" stroke-miterlimit="22.9256" stroke-linecap="round" stroke-linejoin="round"/>
<path d="M16.8103 3.56201H15.6037C15.0464 3.56201 14.5686 3.85291 14.3128 4.34804L11.1453 10.4779C10.6501 11.4361 9.72542 11.9991 8.64671 11.9991H8.07129M16.9273 14.8126H15.3085C14.917 14.8126 14.5802 14.6714 14.3057 14.3923L12.7795 12.84C12.2306 12.2817 11.5569 11.9993 10.774 11.9993H8.3057" stroke="#6762FE" stroke-width="1.40621" stroke-miterlimit="22.9256" stroke-linecap="round" stroke-linejoin="round"/>
<path d="M16.8073 20.4375H14.719L11.1453 13.5217C10.6501 12.5634 9.72542 12.0004 8.64677 12.0004H8.07135M18.3215 7.78174H21.8907C22.6641 7.78174 23.2969 8.41453 23.2969 9.18795C23.2969 9.96137 22.6642 10.5942 21.8907 10.5942H18.3215C17.5481 10.5942 16.9153 9.96137 16.9153 9.18795C16.9153 8.41453 17.5481 7.78174 18.3215 7.78174ZM18.3215 13.4066H21.8907C22.6641 13.4066 23.2969 14.0394 23.2969 14.8128C23.2969 15.5862 22.6642 16.219 21.8907 16.219H18.3215C17.5481 16.219 16.9153 15.5862 16.9153 14.8128C16.9153 14.0394 17.5481 13.4066 18.3215 13.4066ZM18.3215 19.0314H21.8907C22.6641 19.0314 23.2969 19.6642 23.2969 20.4376C23.2969 21.2111 22.6642 21.8439 21.8907 21.8439H18.3215C17.5481 21.8439 16.9153 21.2111 16.9153 20.4376C16.9153 19.6642 17.5481 19.0314 18.3215 19.0314ZM2.81244 9.89106H5.71927C6.87939 9.89106 7.82859 10.8402 7.82859 12.0004C7.82859 13.1605 6.87939 14.1097 5.71927 14.1097H2.81244C1.65232 14.1097 0.703125 13.1605 0.703125 12.0004C0.703125 10.8402 1.65232 9.89106 2.81244 9.89106Z" stroke="#6762FE" stroke-width="1.40621" stroke-miterlimit="22.9256" stroke-linecap="round" stroke-linejoin="round"/>
</svg>
