<svg width="24" height="24" viewBox="0 0 24 24" fill="none" xmlns="http://www.w3.org/2000/svg">
<g clip-path="url(#clip0_1434_1457)">
<path d="M9.24047 24C8.54813 24 7.89891 23.7319 7.41187 23.2448L0.755156 16.5881C0.268125 16.1011 0 15.4519 0 14.7595C0 14.0672 0.268125 13.418 0.755156 12.9309L12.1491 1.5375C13.0111 0.675469 14.6414 0 15.8602 0H21.4139C22.8398 0 24 1.16016 24 2.58562V8.13937C24 9.35859 23.3245 10.9889 22.463 11.8509L11.0691 23.2448C10.582 23.7319 9.93281 24 9.24047 24ZM15.8602 1.40625C15.0122 1.40625 13.7428 1.93219 13.1433 2.53172L1.74937 13.9256C1.52813 14.1469 1.40625 14.4431 1.40625 14.7595C1.40625 15.0759 1.52813 15.3722 1.74937 15.5934L8.40609 22.2506C8.62734 22.4719 8.92359 22.5938 9.24 22.5938C9.55641 22.5938 9.85266 22.4719 10.0744 22.2506L21.4683 10.8567C22.0678 10.2572 22.5938 8.98734 22.5938 8.13984V2.58609C22.5938 1.93547 22.0645 1.40625 21.4139 1.40625H15.8602Z" fill="#6762FE"/>
<path d="M6.5302 15.5386C6.27473 15.2832 6.33848 14.91 6.72191 14.5266C7.16957 14.0794 7.49395 14.1591 7.65942 13.9941C7.85113 13.8024 7.69129 13.4719 7.56895 13.3496C7.21738 12.998 6.44535 13.621 6.13082 13.935C5.51817 14.5477 5.10848 15.5007 5.9016 16.2942C7.16395 17.5566 8.62832 15.6019 9.42707 16.4011C9.74676 16.7208 9.61363 17.1413 9.29395 17.461C8.75067 18.0038 8.1966 17.738 7.97863 17.956C7.81363 18.121 7.89895 18.4833 8.04801 18.6324C8.35692 18.9413 9.24098 18.7603 9.93848 18.0624C10.6735 17.3274 10.8118 16.4007 10.0505 15.6394C8.67145 14.2599 7.19067 16.1986 6.5302 15.5382" fill="#6762FE"/>
<path d="M10.9874 14.1384L9.81554 12.0398L11.9137 13.2117L10.987 14.1384H10.9874ZM13.9752 13.2488L9.59758 10.9266C9.38992 10.815 9.11851 10.9373 8.91601 11.1398C8.71914 11.3367 8.59633 11.6086 8.70836 11.8163L11.0301 16.1939C11.046 16.2206 11.062 16.2469 11.0727 16.2581C11.2434 16.4283 11.6109 16.2952 11.797 16.1091C11.9141 15.9919 11.9676 15.8639 11.893 15.7359L11.3873 14.8252L12.607 13.6055L13.5177 14.1117C13.6457 14.1862 13.7732 14.1333 13.8904 14.0156C14.077 13.8291 14.2045 13.4564 14.0395 13.2914C14.0235 13.2755 14.0024 13.2647 13.9757 13.2488" fill="#6762FE"/>
<path d="M16.0785 10.6129L14.7792 11.9122L11.7065 8.8391C11.5574 8.69004 11.3179 8.80207 11.1473 8.97223C10.9715 9.14801 10.8651 9.38238 11.0142 9.53145L14.4759 12.9932C14.6198 13.1371 14.8434 13.0625 14.9981 12.9079L16.6865 11.2194C16.8248 11.0811 16.7399 10.8575 16.5904 10.7085C16.4362 10.5543 16.2178 10.4741 16.079 10.6124" fill="#6762FE"/>
<path d="M19.3907 7.91875C19.2257 7.75375 19.0021 7.68953 18.8633 7.82828L17.3563 9.33531L16.2861 8.26516L17.0957 7.45563C17.2447 7.30656 17.1702 7.09328 17.0478 6.97094C16.9039 6.82703 16.6911 6.77406 16.5524 6.91234L15.7428 7.72187L14.6778 6.65687L16.1849 5.14984C16.3232 5.01109 16.2594 4.7875 16.0944 4.6225C15.9505 4.47859 15.7269 4.39328 15.5778 4.54281L13.6818 6.43891C13.5275 6.59312 13.4525 6.81672 13.5964 6.96063L17.053 10.4172C17.1969 10.5611 17.4205 10.4866 17.5747 10.3319L19.4708 8.43578C19.6199 8.28672 19.5346 8.06313 19.3911 7.91922" fill="#6762FE"/>
<path d="M19.5688 5.17504C19.5459 5.17504 19.5224 5.17363 19.4995 5.17129C19.477 5.16895 19.454 5.16566 19.4315 5.16098C19.409 5.15676 19.3865 5.15113 19.3645 5.1441C19.3429 5.13754 19.3209 5.12957 19.2998 5.12113C19.2787 5.11223 19.2576 5.10238 19.2374 5.0916C19.2173 5.08082 19.1976 5.0691 19.1784 5.05645C19.1592 5.04379 19.1404 5.02973 19.1231 5.0152C19.1053 5.00066 19.0879 4.9852 19.0715 4.96879C19.0551 4.95285 19.0396 4.93551 19.0251 4.9177C19.0106 4.89988 18.997 4.88113 18.9843 4.86191C18.9717 4.84316 18.9595 4.82301 18.9487 4.80285C18.9379 4.7827 18.9281 4.7616 18.9196 4.74051C18.9107 4.71941 18.9028 4.69785 18.8962 4.67582C18.8896 4.65426 18.884 4.63176 18.8793 4.60926C18.8746 4.58676 18.8713 4.56379 18.869 4.54082C18.8667 4.51785 18.8657 4.49488 18.8657 4.47191C18.8657 4.44895 18.8667 4.42551 18.869 4.40254C18.8713 4.38004 18.8746 4.35707 18.8793 4.33457C18.884 4.31207 18.8896 4.28957 18.8962 4.26754C18.9028 4.24598 18.9107 4.22395 18.9196 4.20285C18.9281 4.18176 18.9379 4.16066 18.9487 4.14051C18.9595 4.12035 18.9717 4.10066 18.9843 4.08145C18.997 4.06223 19.0106 4.04348 19.0251 4.02613C19.0396 4.00785 19.0551 3.99098 19.0715 3.97457C19.0879 3.95816 19.1053 3.9427 19.1231 3.92816C19.1404 3.91363 19.1592 3.90004 19.1784 3.88738C19.1976 3.87473 19.2173 3.86254 19.2374 3.85176C19.2576 3.84098 19.2787 3.83113 19.2998 3.8227C19.3209 3.81379 19.3429 3.80582 19.3645 3.79926C19.3865 3.7927 19.409 3.78707 19.4315 3.78238C19.454 3.7777 19.477 3.77441 19.4995 3.77207C19.5454 3.76738 19.5918 3.76738 19.6378 3.77207C19.6607 3.77441 19.6837 3.7777 19.7062 3.78238C19.7287 3.78707 19.7507 3.7927 19.7728 3.79926C19.7948 3.80582 19.8163 3.81379 19.8374 3.8227C19.8585 3.83113 19.8796 3.84098 19.8998 3.85176C19.9199 3.86254 19.9401 3.87473 19.9588 3.88738C19.9781 3.90004 19.9968 3.91363 20.0146 3.92816C20.0324 3.9427 20.0498 3.95816 20.0657 3.97457C20.0821 3.99098 20.0976 4.00785 20.1121 4.02613C20.1267 4.04348 20.1407 4.06223 20.1534 4.08145C20.166 4.10066 20.1778 4.12035 20.1885 4.14051C20.1993 4.16066 20.2092 4.18176 20.2181 4.20285C20.2265 4.22395 20.2345 4.24598 20.241 4.26754C20.2481 4.28957 20.2537 4.31207 20.2579 4.33457C20.2626 4.35707 20.2659 4.38004 20.2682 4.40254C20.2706 4.42551 20.272 4.44895 20.272 4.47191C20.272 4.49488 20.2706 4.51785 20.2682 4.54082C20.2659 4.56379 20.2626 4.58676 20.2579 4.60926C20.2537 4.63176 20.2481 4.65426 20.241 4.67582C20.2345 4.69785 20.2265 4.71941 20.2181 4.74051C20.2092 4.7616 20.1993 4.7827 20.1885 4.80285C20.1778 4.82301 20.166 4.84316 20.1534 4.86191C20.1407 4.88113 20.1267 4.89988 20.1121 4.9177C20.0976 4.93551 20.0821 4.95285 20.0657 4.96879C20.0498 4.9852 20.0324 5.00066 20.0146 5.0152C19.9968 5.02973 19.9781 5.04379 19.9588 5.05645C19.9401 5.0691 19.9199 5.08082 19.8998 5.0916C19.8796 5.10238 19.8585 5.11223 19.8374 5.12113C19.8163 5.12957 19.7948 5.13754 19.7728 5.1441C19.7507 5.15113 19.7287 5.15676 19.7062 5.16098C19.6837 5.16566 19.6607 5.16895 19.6378 5.17129C19.6148 5.17363 19.5918 5.17504 19.5688 5.17504Z" fill="#6762FE"/>
</g>
<defs>
<clipPath id="clip0_1434_1457">
<rect width="24" height="24" fill="white"/>
</clipPath>
</defs>
</svg>
