<svg width="24" height="24" viewBox="0 0 24 24" fill="none" xmlns="http://www.w3.org/2000/svg">
<g clip-path="url(#clip0_1434_1301)">
<path d="M12.0275 5.27656L13.9746 3.32941C14.4138 2.8902 15.1254 2.8902 15.5646 3.32941C16.0038 3.76862 16.0038 4.48017 15.5646 4.91938L14.5582 5.92623" stroke="#6762FE" stroke-width="0.937482" stroke-linecap="round" stroke-linejoin="round"/>
<path d="M14.5347 5.94954L15.565 4.91925C16.0042 4.48004 16.7157 4.48004 17.1549 4.91925C17.5941 5.35846 17.5941 6.07001 17.1549 6.50922L15.5818 8.08231" stroke="#6762FE" stroke-width="0.937482" stroke-linecap="round" stroke-linejoin="round"/>
<path d="M15.782 7.88206L17.1545 6.50958C17.5937 6.07037 18.3052 6.07037 18.7444 6.50958C19.1836 6.94879 19.1836 7.66034 18.7444 8.09955L17.1713 9.67265" stroke="#6762FE" stroke-width="0.937482" stroke-linecap="round" stroke-linejoin="round"/>
<path d="M17.372 9.4719L18.7445 8.09943C19.1837 7.66022 19.8952 7.66022 20.3344 8.09943C20.7736 8.53864 20.7736 9.25019 20.3344 9.6894L16.4598 13.564C15.1403 14.8835 13.3502 15.6251 11.4841 15.6251C10.908 15.6251 10.3559 15.8538 9.94853 16.2611L2.70227 23.5074" stroke="#6762FE" stroke-width="0.937482" stroke-linecap="round" stroke-linejoin="round"/>
<path d="M7.67274 10.5165L5.9848 8.82856C5.54559 8.38935 5.54559 7.6778 5.9848 7.23859C6.42401 6.79938 7.13556 6.79938 7.57477 7.23859L9.26271 8.92652C9.70192 9.36573 9.70192 10.0773 9.26271 10.5165C8.8235 10.9557 8.11195 10.9557 7.67274 10.5165Z" stroke="#6762FE" stroke-width="0.937482" stroke-linecap="round" stroke-linejoin="round"/>
<path d="M9.26283 8.92616L7.57489 7.23822C7.13568 6.79901 7.13568 6.08747 7.57489 5.64826C8.0141 5.20905 8.72565 5.20905 9.16486 5.64826L10.8528 7.33619C11.292 7.7754 11.292 8.48695 10.8528 8.92616C10.4136 9.36537 9.70204 9.36537 9.26283 8.92616Z" stroke="#6762FE" stroke-width="0.937482" stroke-linecap="round" stroke-linejoin="round"/>
<path d="M10.8528 7.33632L9.16486 5.64838C8.72565 5.20917 8.72565 4.49762 9.16486 4.05841C9.60407 3.6192 10.3156 3.6192 10.7548 4.05841L12.4428 5.74635C12.882 6.18556 12.882 6.89711 12.4428 7.33632C12.0036 7.77553 11.292 7.77553 10.8528 7.33632Z" stroke="#6762FE" stroke-width="0.937482" stroke-linecap="round" stroke-linejoin="round"/>
<path d="M6.08284 12.1059L5.0877 11.1108C4.64849 10.6716 4.64849 9.96002 5.0877 9.52081C5.52691 9.0816 6.23846 9.0816 6.67767 9.52081L7.67281 10.516C8.11202 10.9552 8.11202 11.6667 7.67281 12.1059C7.2336 12.5451 6.52205 12.5451 6.08284 12.1059ZM6.08284 12.1059L0.47998 17.7088" stroke="#6762FE" stroke-width="0.937482" stroke-linecap="round" stroke-linejoin="round"/>
<path d="M23.5308 16.9609L19.9172 13.3474C19.9505 12.4666 19.7354 11.5943 19.2962 10.8303L19.2587 10.7646" stroke="#6762FE" stroke-width="0.937482" stroke-linecap="round" stroke-linejoin="round"/>
<path d="M21.0451 23.5316L14.5652 17.0517C13.7271 17.2538 12.8426 17.0991 12.1226 16.6247L10.8846 15.8096" stroke="#6762FE" stroke-width="0.937482" stroke-linecap="round" stroke-linejoin="round"/>
<path d="M6.08289 12.106L10.0934 16.1165" stroke="#6762FE" stroke-width="0.937482" stroke-linecap="round" stroke-linejoin="round"/>
<path d="M4.38452 13.8042L8.39507 17.8147" stroke="#6762FE" stroke-width="0.937482" stroke-linecap="round" stroke-linejoin="round"/>
<path d="M19.7832 13.4204L15.5027 17.701" stroke="#6762FE" stroke-width="0.937482" stroke-linecap="round" stroke-linejoin="round"/>
<path d="M17.8304 18.7695L17.2009 19.399" stroke="#6762FE" stroke-width="0.937482" stroke-linecap="round" stroke-linejoin="round"/>
<path d="M21.4579 15.1416L20.812 15.7875" stroke="#6762FE" stroke-width="0.937482" stroke-linecap="round" stroke-linejoin="round"/>
<path d="M1.29187 1.29199L3.49823 3.49836" stroke="#6762FE" stroke-width="0.937482" stroke-linecap="round" stroke-linejoin="round"/>
<path d="M5.71863 2.08684V0.46875" stroke="#6762FE" stroke-width="0.937482" stroke-linecap="round" stroke-linejoin="round"/>
<path d="M2.08684 5.71875H0.46875" stroke="#6762FE" stroke-width="0.937482" stroke-linecap="round" stroke-linejoin="round"/>
<path d="M22.7077 1.29199L20.5013 3.49836" stroke="#6762FE" stroke-width="0.937482" stroke-linecap="round" stroke-linejoin="round"/>
<path d="M18.2809 2.08684V0.46875" stroke="#6762FE" stroke-width="0.937482" stroke-linecap="round" stroke-linejoin="round"/>
<path d="M21.9127 5.71875H23.5308" stroke="#6762FE" stroke-width="0.937482" stroke-linecap="round" stroke-linejoin="round"/>
</g>
<defs>
<clipPath id="clip0_1434_1301">
<rect width="23.9995" height="24" fill="white"/>
</clipPath>
</defs>
</svg>
