<svg width="24" height="24" viewBox="0 0 24 24" fill="none" xmlns="http://www.w3.org/2000/svg">
<path d="M17.25 1.5H6.75C6.15326 1.5 5.58097 1.73705 5.15901 2.15901C4.73705 2.58097 4.5 3.15326 4.5 3.75V20.25C4.5 20.8467 4.73705 21.419 5.15901 21.841C5.58097 22.2629 6.15326 22.5 6.75 22.5H8.1675C15.2325 22.5 19.5 17.8125 19.5 15.75V3.75C19.5 3.15326 19.2629 2.58097 18.841 2.15901C18.419 1.73705 17.8467 1.5 17.25 1.5ZM6 20.25V3.75C6 3.55109 6.07902 3.36032 6.21967 3.21967C6.36032 3.07902 6.55109 3 6.75 3H17.25C17.4489 3 17.6397 3.07902 17.7803 3.21967C17.921 3.36032 18 3.55109 18 3.75V15H13.5C13.3011 15 13.1103 15.079 12.9697 15.2197C12.829 15.3603 12.75 15.5511 12.75 15.75C12.75 17.1424 12.1969 18.4777 11.2123 19.4623C10.2277 20.4469 8.89239 21 7.5 21H6.75C6.55109 21 6.36032 20.921 6.21967 20.7803C6.07902 20.6397 6 20.4489 6 20.25ZM12.45 20.3175C13.4262 19.2641 14.041 17.9268 14.205 16.5H17.715C16.4472 18.3393 14.5899 19.6912 12.45 20.3325V20.3175Z" fill="#6762FE"/>
<path d="M8.25 6H11.25C11.4489 6 11.6397 5.92098 11.7803 5.78033C11.921 5.63968 12 5.44891 12 5.25C12 5.05109 11.921 4.86032 11.7803 4.71967C11.6397 4.57902 11.4489 4.5 11.25 4.5H8.25C8.05109 4.5 7.86032 4.57902 7.71967 4.71967C7.57902 4.86032 7.5 5.05109 7.5 5.25C7.5 5.44891 7.57902 5.63968 7.71967 5.78033C7.86032 5.92098 8.05109 6 8.25 6ZM8.25 9H15.75C15.9489 9 16.1397 8.92098 16.2803 8.78033C16.421 8.63968 16.5 8.44891 16.5 8.25C16.5 8.05109 16.421 7.86032 16.2803 7.71967C16.1397 7.57902 15.9489 7.5 15.75 7.5H8.25C8.05109 7.5 7.86032 7.57902 7.71967 7.71967C7.57902 7.86032 7.5 8.05109 7.5 8.25C7.5 8.44891 7.57902 8.63968 7.71967 8.78033C7.86032 8.92098 8.05109 9 8.25 9Z" fill="#6762FE"/>
</svg>
