<svg width="24" height="24" viewBox="0 0 24 24" fill="none" xmlns="http://www.w3.org/2000/svg">
<g clip-path="url(#clip0_1434_1354)">
<mask id="mask0_1434_1354" style="mask-type:luminance" maskUnits="userSpaceOnUse" x="0" y="0" width="24" height="24">
<path d="M24 0H0V24H24V0Z" fill="white"/>
</mask>
<g mask="url(#mask0_1434_1354)">
<path d="M9.1875 6.32812H0.703125V0.703125H9.1875V6.32812Z" stroke="#6762FE" stroke-width="1.4" stroke-miterlimit="10"/>
</g>
<path d="M2.85938 3.51562H7.07812" stroke="#6762FE" stroke-width="1.4" stroke-miterlimit="10"/>
<mask id="mask1_1434_1354" style="mask-type:luminance" maskUnits="userSpaceOnUse" x="0" y="0" width="24" height="24">
<path d="M24 0H0V24H24V0Z" fill="white"/>
</mask>
<g mask="url(#mask1_1434_1354)">
<path d="M23.2969 23.2969H20.4844V20.4844H23.2969V23.2969Z" stroke="#6762FE" stroke-width="1.4" stroke-miterlimit="10"/>
</g>
<path d="M19.0312 12H13.4062V9.1875H19.0312V12Z" stroke="#6762FE" stroke-width="1.4" stroke-miterlimit="10"/>
<path d="M13.4062 10.5938H4.96875" stroke="#6762FE" stroke-width="1.4" stroke-miterlimit="10"/>
<mask id="mask2_1434_1354" style="mask-type:luminance" maskUnits="userSpaceOnUse" x="0" y="0" width="24" height="24">
<path d="M24 0H0V24H24V0Z" fill="white"/>
</mask>
<g mask="url(#mask2_1434_1354)">
<path d="M16.2188 12V21.8906H20.4844" stroke="#6762FE" stroke-width="1.4" stroke-miterlimit="10"/>
<path d="M23.2969 17.625H20.4844V14.8125H23.2969V17.625Z" stroke="#6762FE" stroke-width="1.4" stroke-miterlimit="10"/>
</g>
<path d="M16.2188 16.2188H20.4844" stroke="#6762FE" stroke-width="1.4" stroke-miterlimit="10"/>
<path d="M13.4062 19.0312H7.78125V16.2188H13.4062V19.0312Z" stroke="#6762FE" stroke-width="1.4" stroke-miterlimit="10"/>
<path d="M4.96875 6.32812V17.625H7.78125" stroke="#6762FE" stroke-width="1.4" stroke-miterlimit="10"/>
<mask id="mask3_1434_1354" style="mask-type:luminance" maskUnits="userSpaceOnUse" x="0" y="0" width="24" height="24">
<path d="M24 0H0V24H24V0Z" fill="white"/>
</mask>
<g mask="url(#mask3_1434_1354)">
<path d="M10.5938 19.0312V21.8906H16.2188" stroke="#6762FE" stroke-width="1.4" stroke-miterlimit="10"/>
</g>
</g>
<defs>
<clipPath id="clip0_1434_1354">
<rect width="24" height="24" fill="white"/>
</clipPath>
</defs>
</svg>
