<svg width="24" height="24" viewBox="0 0 24 24" fill="none" xmlns="http://www.w3.org/2000/svg">
<g clip-path="url(#clip0_1434_1430)">
<path d="M12 10.7813C12.649 10.7813 13.2834 10.5888 13.823 10.2283C14.3626 9.86771 14.7831 9.35525 15.0315 8.75568C15.2798 8.15611 15.3448 7.49636 15.2182 6.85986C15.0916 6.22336 14.7791 5.6387 14.3202 5.17981C13.8613 4.72092 13.2766 4.40841 12.6401 4.2818C12.0036 4.15519 11.3439 4.22017 10.7443 4.46852C10.1447 4.71687 9.63229 5.13744 9.27174 5.67704C8.91119 6.21664 8.71875 6.85103 8.71875 7.5C8.71974 8.36994 9.06576 9.20396 9.6809 9.8191C10.296 10.4342 11.1301 10.7803 12 10.7813ZM12 5.53125C12.3894 5.53125 12.77 5.64672 13.0938 5.86305C13.4175 6.07937 13.6699 6.38685 13.8189 6.74659C13.9679 7.10634 14.0069 7.50219 13.9309 7.88409C13.855 8.26599 13.6675 8.61678 13.3921 8.89212C13.1168 9.16745 12.766 9.35496 12.3841 9.43092C12.0022 9.50689 11.6063 9.4679 11.2466 9.31889C10.8868 9.16988 10.5794 8.91754 10.363 8.59378C10.1467 8.27002 10.0312 7.88938 10.0312 7.5C10.0318 6.97804 10.2395 6.47763 10.6085 6.10854C10.9776 5.73946 11.478 5.53185 12 5.53125Z" fill="#6762FE"/>
<path d="M23.775 14.6044L21.525 11.6044C21.464 11.5228 21.3847 11.4566 21.2936 11.4111C21.2024 11.3655 21.1019 11.3418 21 11.3419H18.3574C18.3575 11.2558 18.3406 11.1706 18.3076 11.0912C18.2747 11.0117 18.2263 10.9395 18.1654 10.8787L17.6059 10.3196C17.745 10.0446 17.8634 9.75956 17.9599 9.46688H18.75C18.9241 9.46678 19.0909 9.3976 19.214 9.27455C19.337 9.1515 19.4062 8.98464 19.4063 8.81063V6.18563C19.4057 6.01193 19.3363 5.84555 19.2133 5.72291C19.0903 5.60026 18.9237 5.53135 18.75 5.53125H17.9599C17.8634 5.23856 17.745 4.95351 17.6059 4.6785L18.1654 4.119C18.2264 4.05806 18.2747 3.98571 18.3077 3.90609C18.3407 3.82646 18.3576 3.74112 18.3576 3.65494C18.3576 3.56875 18.3407 3.48341 18.3077 3.40379C18.2747 3.32416 18.2264 3.25181 18.1654 3.19088L16.3092 1.33463C16.2482 1.27368 16.1759 1.22533 16.0963 1.19235C16.0166 1.15937 15.9313 1.14239 15.8451 1.14239C15.7589 1.14239 15.6736 1.15937 15.5939 1.19235C15.5143 1.22533 15.442 1.27368 15.381 1.33463L14.8215 1.89412C14.5465 1.755 14.2615 1.63667 13.9688 1.54012V0.75C13.9687 0.575982 13.8995 0.40912 13.7765 0.286071C13.6534 0.163022 13.4866 0.0938494 13.3125 0.09375H10.6875C10.5135 0.0938494 10.3467 0.163022 10.2236 0.286071C10.1006 0.40912 10.0314 0.575982 10.0313 0.75V1.54012C9.7386 1.63667 9.45355 1.755 9.17854 1.89412L8.61904 1.33463C8.5581 1.27368 8.48575 1.22533 8.40613 1.19235C8.3265 1.15937 8.24116 1.14239 8.15497 1.14239C8.06879 1.14239 7.98345 1.15937 7.90382 1.19235C7.8242 1.22533 7.75185 1.27368 7.69091 1.33463L5.83466 3.19088C5.77372 3.25181 5.72537 3.32416 5.69239 3.40379C5.6594 3.48341 5.64243 3.56875 5.64243 3.65494C5.64243 3.74112 5.6594 3.82646 5.69239 3.90609C5.72537 3.98571 5.77372 4.05806 5.83466 4.119L6.39416 4.6785C6.25504 4.95351 6.13671 5.23856 6.04016 5.53125H5.25004C5.07602 5.53135 4.90916 5.60052 4.78611 5.72357C4.66306 5.84662 4.59389 6.01348 4.59379 6.1875V8.8125C4.59389 8.98652 4.66306 9.15338 4.78611 9.27643C4.90916 9.39948 5.07602 9.46865 5.25004 9.46875H6.04016C6.13671 9.76144 6.25504 10.0465 6.39416 10.3215L5.83466 10.8806C5.77374 10.9414 5.72541 11.0136 5.69247 11.093C5.65952 11.1725 5.64259 11.2577 5.64266 11.3438H3.00004C2.89815 11.3437 2.79765 11.3674 2.70651 11.413C2.61538 11.4585 2.53613 11.5247 2.47504 11.6063L0.225038 14.6063C0.151813 14.7039 0.107198 14.8199 0.0961878 14.9414C0.0851777 15.063 0.108207 15.1851 0.162698 15.2943C0.217188 15.4035 0.300989 15.4953 0.404721 15.5596C0.508452 15.6239 0.628019 15.658 0.750038 15.6581H2.34379V23.25C2.34374 23.3362 2.36068 23.4216 2.39364 23.5012C2.4266 23.5808 2.47494 23.6532 2.53589 23.7141C2.59684 23.7751 2.6692 23.8234 2.74884 23.8564C2.82849 23.8894 2.91384 23.9063 3.00004 23.9062H21C21.0862 23.9063 21.1716 23.8894 21.2512 23.8564C21.3309 23.8234 21.4032 23.7751 21.4642 23.7141C21.5251 23.6532 21.5735 23.5808 21.6064 23.5012C21.6394 23.4216 21.6563 23.3362 21.6563 23.25V15.6562H23.2478C23.37 15.6565 23.4899 15.6227 23.5939 15.5586C23.698 15.4945 23.7821 15.4027 23.8369 15.2934C23.8916 15.1842 23.9149 15.0618 23.9039 14.9401C23.893 14.8184 23.8484 14.7021 23.775 14.6044ZM5.90629 8.15625V6.84375H6.53554C6.68288 6.84345 6.82585 6.79363 6.94146 6.70229C7.05708 6.61095 7.13864 6.4834 7.17304 6.34013C7.29386 5.83428 7.49436 5.35086 7.76704 4.908C7.84427 4.78232 7.87687 4.63427 7.85959 4.48777C7.84231 4.34128 7.77614 4.20488 7.67179 4.10063L7.22704 3.65512L8.15516 2.727L8.60066 3.1725C8.70489 3.27692 8.84129 3.34312 8.9878 3.36041C9.13432 3.37769 9.28238 3.34505 9.40804 3.26775C9.8509 2.99507 10.3343 2.79457 10.8402 2.67375C10.9834 2.63935 11.111 2.55779 11.2023 2.44218C11.2937 2.32656 11.3435 2.18359 11.3438 2.03625V1.40625H12.6563V2.0355C12.6566 2.18284 12.7064 2.32581 12.7978 2.44143C12.8891 2.55704 13.0166 2.6386 13.1599 2.673C13.6658 2.79382 14.1492 2.99432 14.592 3.267C14.7177 3.34423 14.8658 3.37684 15.0123 3.35955C15.1588 3.34227 15.2952 3.27611 15.3994 3.17175L15.8449 2.72625L16.773 3.65438L16.3275 4.10063C16.2232 4.20488 16.157 4.34128 16.1397 4.48777C16.1224 4.63427 16.1551 4.78232 16.2323 4.908C16.505 5.35086 16.7055 5.83428 16.8263 6.34013C16.8607 6.4834 16.9422 6.61095 17.0579 6.70229C17.1735 6.79363 17.3164 6.84345 17.4638 6.84375H18.0938V8.15625H17.4645C17.3172 8.15655 17.1742 8.20637 17.0586 8.29771C16.943 8.38905 16.8614 8.5166 16.827 8.65987C16.7062 9.16572 16.5057 9.64914 16.233 10.092C16.1558 10.2177 16.1232 10.3657 16.1405 10.5122C16.1578 10.6587 16.2239 10.7951 16.3283 10.8994L16.7727 11.3438H7.22816L7.67254 10.8994C7.77689 10.7951 7.84306 10.6587 7.86034 10.5122C7.87762 10.3657 7.84502 10.2177 7.76779 10.092C7.49511 9.64914 7.29461 9.16572 7.17379 8.65987C7.13939 8.5166 7.05783 8.38905 6.94221 8.29771C6.8266 8.20637 6.68363 8.15655 6.53629 8.15625H5.90629ZM2.06254 14.3438L3.32816 12.6562H14.4375L13.1719 14.3438H2.06254ZM15.0938 22.5938H3.65629V15.6562H13.5C13.6019 15.6563 13.7024 15.6326 13.7936 15.587C13.8847 15.5415 13.964 15.4753 14.025 15.3937L15.0938 13.9688V22.5938ZM20.3438 22.5938H16.4063V13.9688L17.475 15.3937C17.5361 15.4753 17.6154 15.5415 17.7065 15.587C17.7976 15.6326 17.8981 15.6563 18 15.6562H20.3438V22.5938ZM18.3282 14.3438L17.0625 12.6562H20.6719L21.9375 14.3438H18.3282Z" fill="#6762FE"/>
</g>
<defs>
<clipPath id="clip0_1434_1430">
<rect width="24" height="24" fill="white"/>
</clipPath>
</defs>
</svg>
