<svg width="24" height="24" viewBox="0 0 24 24" fill="none" xmlns="http://www.w3.org/2000/svg">
<g clip-path="url(#clip0_1434_1325)">
<mask id="mask0_1434_1325" style="mask-type:luminance" maskUnits="userSpaceOnUse" x="0" y="0" width="24" height="24">
<path d="M24 0H0V24H24V0Z" fill="white"/>
</mask>
<g mask="url(#mask0_1434_1325)">
<path d="M2.34937 22.2745C1.31062 22.2745 0.46875 21.4326 0.46875 20.3938C0.46875 19.3551 1.31062 18.5137 2.34937 18.5137C3.38812 18.5137 4.22953 19.3555 4.22953 20.3938" stroke="#6762FE" stroke-width="0.9375" stroke-linecap="round" stroke-linejoin="round"/>
<path d="M15.7988 15.1012V22.2744H2.34891C1.31063 22.2744 0.46875 21.4326 0.46875 20.3943C0.46875 19.356 1.31063 18.5137 2.34891 18.5137C3.38719 18.5137 4.22953 19.3555 4.22953 20.3943V8.30615H10.0631C10.0622 8.35068 10.0617 8.39521 10.0617 8.44021C10.0617 9.61631 10.3636 10.7221 10.8937 11.6844L10.5066 13.0799L10.0144 14.8527L11.9344 14.3526L13.0772 14.0549C13.8802 14.5879 14.8036 14.9535 15.7988 15.1012Z" stroke="#6762FE" stroke-width="0.9375" stroke-linecap="round" stroke-linejoin="round"/>
<path d="M4.22953 8.30592V20.394C4.22953 19.3553 3.38766 18.5134 2.34891 18.5134C1.31016 18.5134 0.46875 19.3553 0.46875 20.394V8.30592C0.46875 7.26717 1.31063 6.42529 2.34891 6.42529C3.38719 6.42529 4.22953 7.26717 4.22953 8.30592Z" stroke="#6762FE" stroke-width="0.9375" stroke-linecap="round" stroke-linejoin="round"/>
<path d="M8.02502 8.32715V22.2954" stroke="#6762FE" stroke-width="0.9375" stroke-linecap="round" stroke-linejoin="round"/>
<path d="M11.9343 22.2744V14.3525" stroke="#6762FE" stroke-width="0.9375" stroke-linecap="round" stroke-linejoin="round"/>
<path d="M10.5065 13.0796H4.22949" stroke="#6762FE" stroke-width="0.9375" stroke-linecap="round" stroke-linejoin="round"/>
<path d="M4.22949 17.7139H15.7987" stroke="#6762FE" stroke-width="0.9375" stroke-linecap="round" stroke-linejoin="round"/>
<path d="M4.22949 22.1448V20.394" stroke="#6762FE" stroke-width="0.9375" stroke-linecap="round" stroke-linejoin="round"/>
<path d="M14.7305 2.02848C12.0221 2.90082 10.0622 5.44098 10.0622 8.43957C10.0622 9.61566 10.3641 10.7214 10.8943 11.6838L10.0149 14.8521L13.0777 14.0543C14.1436 14.7616 15.4219 15.1741 16.7972 15.1741C20.5168 15.1741 23.5318 12.1591 23.5318 8.43957C23.5318 5.41848 21.5429 2.86238 18.8025 2.00879" stroke="#6762FE" stroke-width="0.9375" stroke-linecap="round" stroke-linejoin="round"/>
<path d="M19.7119 11.6368H13.9402V6.83025L16.8258 4.63135L19.7114 6.85885V11.6363L19.7119 11.6368Z" stroke="#6762FE" stroke-width="0.9375" stroke-linecap="round" stroke-linejoin="round"/>
<path d="M20.6704 7.599L16.8258 4.63135L12.9309 7.599" stroke="#6762FE" stroke-width="0.9375" stroke-linecap="round" stroke-linejoin="round"/>
<path d="M17.7033 9.25943H15.9492V7.50537H17.7033V9.25943Z" stroke="#6762FE" stroke-width="0.9375" stroke-linecap="round" stroke-linejoin="round"/>
<path d="M14.9634 6.05102V4.99023" stroke="#6762FE" stroke-width="0.9375" stroke-linecap="round" stroke-linejoin="round"/>
</g>
</g>
<defs>
<clipPath id="clip0_1434_1325">
<rect width="24" height="24" fill="white"/>
</clipPath>
</defs>
</svg>
