<svg width="24" height="24" viewBox="0 0 24 24" fill="none" xmlns="http://www.w3.org/2000/svg">
<path d="M19.9998 3.19995H3.99998C3.12014 3.19995 2.3999 3.91995 2.3999 4.80003V19.2C2.3999 20.0799 3.12014 20.7999 3.99998 20.7999H19.9998C20.8797 20.7999 21.5999 20.0799 21.5999 19.2V4.80003C21.5999 3.91995 20.8797 3.19995 19.9998 3.19995ZM19.9998 19.2H3.99998V4.80003H19.9998V19.2Z" fill="#007AFF"/>
<path d="M5.59985 6.40015H8.80001V8.00023H5.59985V6.40015ZM10.3999 6.40015H13.6V8.00023H10.3999V6.40015ZM15.1999 6.40015H18.4V8.00023H15.1999V6.40015ZM5.59985 9.60007H8.80001V11.2001H5.59985V9.60007ZM10.3999 9.60007H13.6V11.2001H10.3999V9.60007ZM15.1999 9.60007H18.4V11.2001H15.1999V9.60007ZM5.59985 12.8002H8.80001V14.4001H5.59985V12.8002ZM15.1999 12.8002H18.4V14.4001H15.1999V12.8002ZM5.59985 15.9999H8.80001V17.6002H5.59985V15.9999Z" fill="#007AFF"/>
</svg>
