<svg width="24" height="24" viewBox="0 0 24 24" fill="none" xmlns="http://www.w3.org/2000/svg">
<g clip-path="url(#clip0_1434_1400)">
<path d="M23.7352 3.7826C23.3803 3.42686 22.8054 3.42592 22.4494 3.78016L15.5467 10.655L13.5518 8.66013C13.1966 8.30528 12.6215 8.30496 12.2663 8.66013L4.17544 16.7511C3.82026 17.1059 3.82026 17.6817 4.17544 18.0365C4.25972 18.1211 4.3599 18.1882 4.47021 18.2339C4.58052 18.2796 4.69878 18.3031 4.81819 18.3029C5.05059 18.3029 5.28366 18.2141 5.46089 18.0365L12.9091 10.5887L14.9027 12.582C15.2576 12.9368 15.8312 12.9371 16.187 12.5835L23.7324 5.06833C24.0882 4.7141 24.0894 4.13833 23.7352 3.7826Z" fill="#6762FE"/>
<path d="M23.0606 21.0908H1.81818V1.99991C1.81818 1.49779 1.41122 1.09082 0.909092 1.09082C0.406968 1.09082 0 1.49779 0 1.99991V21.9999C0 22.502 0.406968 22.909 0.909092 22.909H23.0606C23.5627 22.909 23.9697 22.502 23.9697 21.9999C23.9697 21.4978 23.5627 21.0908 23.0606 21.0908ZM23.0909 3.48477H16.2727C15.7706 3.48477 15.3636 3.89174 15.3636 4.39386C15.3636 4.89598 15.7706 5.30295 16.2727 5.30295H22.1818V11.2123C22.1818 11.7141 22.5888 12.1214 23.0909 12.1214C23.593 12.1214 24 11.7141 24 11.212V4.39386C24 3.89174 23.593 3.48477 23.0909 3.48477Z" fill="#6762FE"/>
</g>
<defs>
<clipPath id="clip0_1434_1400">
<rect width="24" height="24" fill="white"/>
</clipPath>
</defs>
</svg>
