<svg width="24" height="24" viewBox="0 0 24 24" fill="none" xmlns="http://www.w3.org/2000/svg">
<path d="M12.5 22.5H11.5C11.1023 22.4996 10.721 22.3414 10.4398 22.0602C10.1586 21.779 10.0004 21.3977 10 21V18.5C10.0004 18.1023 10.1586 17.721 10.4398 17.4398C10.721 17.1586 11.1023 17.0004 11.5 17H12.5C12.8977 17.0004 13.279 17.1586 13.5602 17.4398C13.8414 17.721 13.9996 18.1023 14 18.5V21C13.9996 21.3977 13.8414 21.779 13.5602 22.0602C13.279 22.3414 12.8977 22.4996 12.5 22.5ZM11.5 18C11.3674 18.0001 11.2403 18.0529 11.1466 18.1466C11.0529 18.2403 11.0001 18.3674 11 18.5V21C11.0001 21.1326 11.0529 21.2597 11.1466 21.3534C11.2403 21.4471 11.3674 21.4999 11.5 21.5H12.5C12.6326 21.4999 12.7597 21.4471 12.8534 21.3534C12.9471 21.2597 12.9999 21.1326 13 21V18.5C12.9999 18.3674 12.9471 18.2403 12.8534 18.1466C12.7597 18.0529 12.6326 18.0001 12.5 18H11.5Z" fill="#6762FE"/>
<path d="M12 18C11.8674 18 11.7402 17.9473 11.6464 17.8536C11.5527 17.7598 11.5 17.6326 11.5 17.5V16C11.5 15.8674 11.5527 15.7402 11.6464 15.6464C11.7402 15.5527 11.8674 15.5 12 15.5C12.1326 15.5 12.2598 15.5527 12.3536 15.6464C12.4473 15.7402 12.5 15.8674 12.5 16V17.5C12.5 17.6326 12.4473 17.7598 12.3536 17.8536C12.2598 17.9473 12.1326 18 12 18Z" fill="#6762FE"/>
<path d="M12 16.5C10.5166 16.5 9.0666 16.0601 7.83323 15.236C6.59986 14.4119 5.63856 13.2406 5.07091 11.8701C4.50325 10.4997 4.35472 8.99168 4.64411 7.53683C4.9335 6.08197 5.64781 4.7456 6.6967 3.6967C7.7456 2.64781 9.08197 1.9335 10.5368 1.64411C11.9917 1.35472 13.4997 1.50325 14.8701 2.07091C16.2406 2.63856 17.4119 3.59986 18.236 4.83323C19.0601 6.0666 19.5 7.51664 19.5 9C19.4978 10.9884 18.7069 12.8948 17.3008 14.3008C15.8948 15.7069 13.9884 16.4978 12 16.5ZM12 2.5C10.7144 2.5 9.45772 2.88122 8.3888 3.59545C7.31988 4.30968 6.48676 5.32484 5.99479 6.51256C5.50282 7.70028 5.3741 9.00721 5.6249 10.2681C5.8757 11.529 6.49477 12.6872 7.40381 13.5962C8.31285 14.5052 9.47104 15.1243 10.7319 15.3751C11.9928 15.6259 13.2997 15.4972 14.4874 15.0052C15.6752 14.5132 16.6903 13.6801 17.4046 12.6112C18.1188 11.5423 18.5 10.2856 18.5 9C18.498 7.27671 17.8126 5.62456 16.594 4.406C15.3754 3.18745 13.7233 2.50199 12 2.5Z" fill="#6762FE"/>
<path d="M12 15C10.8133 15 9.65328 14.6481 8.66658 13.9888C7.67989 13.3295 6.91085 12.3925 6.45673 11.2961C6.0026 10.1997 5.88378 8.99335 6.11529 7.82946C6.3468 6.66558 6.91825 5.59648 7.75736 4.75736C8.59648 3.91825 9.66558 3.3468 10.8295 3.11529C11.9933 2.88378 13.1997 3.0026 14.2961 3.45673C15.3925 3.91085 16.3295 4.67989 16.9888 5.66658C17.6481 6.65328 18 7.81331 18 9C17.9983 10.5908 17.3656 12.1159 16.2407 13.2407C15.1159 14.3656 13.5908 14.9983 12 15ZM12 4C11.0111 4 10.0444 4.29325 9.22215 4.84265C8.39991 5.39206 7.75904 6.17296 7.38061 7.08659C7.00217 8.00022 6.90315 9.00555 7.09608 9.97545C7.289 10.9454 7.76521 11.8363 8.46447 12.5355C9.16373 13.2348 10.0546 13.711 11.0246 13.9039C11.9945 14.0969 12.9998 13.9978 13.9134 13.6194C14.8271 13.241 15.6079 12.6001 16.1574 11.7779C16.7068 10.9556 17 9.98891 17 9C16.9985 7.67437 16.4713 6.40344 15.5339 5.46608C14.5966 4.52871 13.3256 4.00146 12 4ZM10.5 19H13.5V20H10.5V19Z" fill="#6762FE"/>
<path d="M8.25049 10.625C8.14555 10.625 8.04327 10.5919 7.95813 10.5306C7.873 10.4692 7.80933 10.3826 7.77615 10.2831C7.74296 10.1835 7.74194 10.076 7.77323 9.97587C7.80452 9.87571 7.86654 9.78792 7.95049 9.72496L9.66699 8.43746C9.83262 8.31347 10.0326 8.24383 10.2394 8.2381C10.4462 8.23237 10.6497 8.29083 10.822 8.40546L11.712 8.99896L14.925 6.24546C15.0263 6.16508 15.1549 6.12711 15.2836 6.13951C15.4124 6.15192 15.5313 6.21373 15.6155 6.31198C15.6996 6.41022 15.7424 6.53725 15.7348 6.66637C15.7273 6.7955 15.67 6.91668 15.575 7.00446L12.363 9.75796C12.1971 9.89938 11.9897 9.98296 11.7721 9.99604C11.5545 10.0091 11.3386 9.95099 11.157 9.83046L10.267 9.23746L8.54999 10.525C8.46375 10.5901 8.35856 10.6252 8.25049 10.625Z" fill="#6762FE"/>
<path d="M15.25 8.525C15.1174 8.525 14.9902 8.47232 14.8964 8.37855C14.8027 8.28479 14.75 8.15761 14.75 8.025V7.125H13.5C13.3674 7.125 13.2402 7.07232 13.1464 6.97855C13.0527 6.88479 13 6.75761 13 6.625C13 6.49239 13.0527 6.36521 13.1464 6.27145C13.2402 6.17768 13.3674 6.125 13.5 6.125H15.25C15.3826 6.125 15.5098 6.17768 15.6036 6.27145C15.6973 6.36521 15.75 6.49239 15.75 6.625V8.025C15.75 8.15761 15.6973 8.28479 15.6036 8.37855C15.5098 8.47232 15.3826 8.525 15.25 8.525ZM8.25 13.375C8.11739 13.375 7.99021 13.3223 7.89645 13.2286C7.80268 13.1348 7.75 13.0076 7.75 12.875V12.375C7.75 12.2424 7.80268 12.1152 7.89645 12.0214C7.99021 11.9277 8.11739 11.875 8.25 11.875C8.38261 11.875 8.50979 11.9277 8.60355 12.0214C8.69732 12.1152 8.75 12.2424 8.75 12.375V12.875C8.75 13.0076 8.69732 13.1348 8.60355 13.2286C8.50979 13.3223 8.38261 13.375 8.25 13.375ZM10.5835 14.375C10.4509 14.375 10.3237 14.3223 10.2299 14.2286C10.1362 14.1348 10.0835 14.0076 10.0835 13.875V11.625C10.0835 11.4924 10.1362 11.3652 10.2299 11.2714C10.3237 11.1777 10.4509 11.125 10.5835 11.125C10.7161 11.125 10.8433 11.1777 10.9371 11.2714C11.0308 11.3652 11.0835 11.4924 11.0835 11.625V13.875C11.0835 14.0076 11.0308 14.1348 10.9371 14.2286C10.8433 14.3223 10.7161 14.375 10.5835 14.375ZM12.9165 14.375C12.7839 14.375 12.6567 14.3223 12.5629 14.2286C12.4692 14.1348 12.4165 14.0076 12.4165 13.875V10.625C12.4165 10.4924 12.4692 10.3652 12.5629 10.2714C12.6567 10.1777 12.7839 10.125 12.9165 10.125C13.0491 10.125 13.1763 10.1777 13.2701 10.2714C13.3638 10.3652 13.4165 10.4924 13.4165 10.625V13.875C13.4165 14.0076 13.3638 14.1348 13.2701 14.2286C13.1763 14.3223 13.0491 14.375 12.9165 14.375ZM15.25 13.875C15.1174 13.875 14.9902 13.8223 14.8964 13.7286C14.8027 13.6348 14.75 13.5076 14.75 13.375V9.625C14.75 9.49239 14.8027 9.36521 14.8964 9.27145C14.9902 9.17768 15.1174 9.125 15.25 9.125C15.3826 9.125 15.5098 9.17768 15.6036 9.27145C15.6973 9.36521 15.75 9.49239 15.75 9.625V13.375C15.75 13.5076 15.6973 13.6348 15.6036 13.7286C15.5098 13.8223 15.3826 13.875 15.25 13.875Z" fill="#6762FE"/>
</svg>
