<svg width="24" height="24" viewBox="0 0 24 24" fill="none" xmlns="http://www.w3.org/2000/svg">
<g clip-path="url(#clip0_1434_1347)">
<path d="M12 0C11.6242 0.000421832 11.2638 0.149915 10.998 0.415683C10.7323 0.681451 10.5828 1.04179 10.5824 1.41764V2.11673H4.66003C4.27479 2.11721 3.90545 2.27045 3.63304 2.54287C3.36063 2.81528 3.20738 3.18461 3.20691 3.56986V15.0683C3.20738 15.4535 3.36063 15.8229 3.63304 16.0953C3.90545 16.3677 4.27479 16.521 4.66003 16.5214H8.48747L7.20469 19.0268H5.71116C5.56197 19.0268 5.4189 19.0861 5.31341 19.1916C5.20792 19.2971 5.14866 19.4402 5.14866 19.5893C5.14866 19.7385 5.20792 19.8816 5.31341 19.9871C5.4189 20.0926 5.56197 20.1518 5.71116 20.1518H6.62893L5.07797 23.1811C5.04431 23.2469 5.02392 23.3186 5.01798 23.3923C5.01204 23.4659 5.02066 23.54 5.04335 23.6103C5.06604 23.6806 5.10235 23.7457 5.15021 23.802C5.19808 23.8582 5.25656 23.9045 5.32231 23.9382C5.38806 23.9719 5.4598 23.9922 5.53343 23.9982C5.60706 24.0041 5.68114 23.9955 5.75144 23.9728C5.82174 23.9501 5.88688 23.9138 5.94314 23.866C5.99941 23.8181 6.0457 23.7596 6.07936 23.6939L7.89282 20.1518H16.1072L17.9206 23.6939C17.9543 23.7596 18.0006 23.8181 18.0569 23.866C18.1131 23.9138 18.1783 23.9501 18.2486 23.9728C18.3189 23.9955 18.3929 24.0041 18.4666 23.9982C18.5402 23.9922 18.6119 23.9719 18.6777 23.9382C18.7435 23.9045 18.8019 23.8582 18.8498 23.802C18.8977 23.7457 18.934 23.6806 18.9567 23.6103C18.9793 23.54 18.988 23.4659 18.982 23.3923C18.9761 23.3186 18.9557 23.2469 18.922 23.1811L17.3711 20.1518H18.2888C18.438 20.1518 18.5811 20.0926 18.6866 19.9871C18.7921 19.8816 18.8513 19.7385 18.8513 19.5893C18.8513 19.4402 18.7921 19.2971 18.6866 19.1916C18.5811 19.0861 18.438 19.0268 18.2888 19.0268H16.7953L15.5127 16.5217H19.3402C19.7254 16.5213 20.0947 16.368 20.3672 16.0956C20.6396 15.8232 20.7928 15.4539 20.7933 15.0686V3.57C20.7928 3.18475 20.6396 2.81542 20.3672 2.54301C20.0947 2.27059 19.7254 2.11735 19.3402 2.11687H13.4176V1.41764C13.4172 1.04179 13.2677 0.681451 13.002 0.415683C12.7362 0.149915 12.3759 0.000421832 12 0ZM11.7074 1.41764C11.7074 1.34003 11.7382 1.26559 11.7931 1.21071C11.848 1.15583 11.9224 1.125 12 1.125C12.0776 1.125 12.1521 1.15583 12.2069 1.21071C12.2618 1.26559 12.2926 1.34003 12.2926 1.41764V2.11673H11.7074V1.41764ZM15.5312 19.0268H8.46877L9.75136 16.5217H14.2486L15.5312 19.0268ZM19.6682 3.57V15.0684C19.6681 15.1554 19.6335 15.2388 19.572 15.3003C19.5105 15.3618 19.4271 15.3964 19.3401 15.3966H4.66003C4.57306 15.3964 4.48968 15.3618 4.42818 15.3003C4.36668 15.2388 4.33206 15.1554 4.33191 15.0684V3.57C4.33206 3.48302 4.36668 3.39965 4.42818 3.33815C4.48968 3.27664 4.57306 3.24202 4.66003 3.24188H19.34C19.427 3.24199 19.5104 3.27659 19.5719 3.3381C19.6335 3.3996 19.6681 3.483 19.6682 3.57ZM12 12.7768C14.3495 12.7768 16.6026 11.6446 18.1815 9.67059C18.2612 9.57086 18.3047 9.44695 18.3047 9.31924C18.3047 9.19153 18.2612 9.06762 18.1815 8.96789C16.6026 6.99375 14.3495 5.86172 12 5.86172C9.65049 5.86172 7.39744 6.99375 5.81855 8.96789C5.73878 9.06762 5.69532 9.19153 5.69532 9.31924C5.69532 9.44695 5.73878 9.57086 5.81855 9.67059C7.39744 11.6446 9.65049 12.7768 12 12.7768ZM12 7.72205C12.3159 7.72205 12.6247 7.81572 12.8873 7.99122C13.15 8.16671 13.3547 8.41615 13.4756 8.708C13.5965 8.99984 13.6281 9.32097 13.5665 9.63079C13.5049 9.94061 13.3528 10.2252 13.1294 10.4486C12.906 10.6719 12.6214 10.8241 12.3116 10.8857C12.0018 10.9473 11.6807 10.9157 11.3888 10.7948C11.097 10.6739 10.8475 10.4692 10.672 10.2066C10.4965 9.94395 10.4028 9.63515 10.4028 9.31927C10.4033 8.89581 10.5717 8.48983 10.8712 8.1904C11.1706 7.89097 11.5765 7.72253 12 7.72205ZM17.0047 9.31927C16.0924 10.3322 14.9666 11.0466 13.7528 11.3997C14.0564 11.1446 14.3005 10.8262 14.4679 10.4668C14.6354 10.1074 14.7221 9.71573 14.7221 9.31924C14.7221 8.92275 14.6354 8.53106 14.4679 8.17167C14.3005 7.81227 14.0564 7.49387 13.7528 7.23881C14.9666 7.59197 16.0924 8.30625 17.0047 9.31927ZM10.2471 7.23881C9.94355 7.49387 9.69948 7.81227 9.53203 8.17167C9.36459 8.53106 9.27782 8.92275 9.27782 9.31924C9.27782 9.71573 9.36459 10.1074 9.53203 10.4668C9.69948 10.8262 9.94355 11.1446 10.2471 11.3997C9.03333 11.0466 7.90753 10.3322 6.99525 9.31927C7.90781 8.30625 9.03338 7.59197 10.2471 7.23881ZM11.4344 9.31927C11.4344 9.17008 11.4937 9.02701 11.5992 8.92152C11.7047 8.81603 11.8477 8.75677 11.9969 8.75677H12.0031C12.1523 8.75677 12.2954 8.81603 12.4008 8.92152C12.5063 9.02701 12.5656 9.17008 12.5656 9.31927C12.5656 9.46845 12.5063 9.61152 12.4008 9.71701C12.2954 9.8225 12.1523 9.88177 12.0031 9.88177H11.9969C11.8477 9.88177 11.7047 9.8225 11.5992 9.71701C11.4937 9.61152 11.4344 9.46845 11.4344 9.31927Z" fill="#6762FE"/>
</g>
<defs>
<clipPath id="clip0_1434_1347">
<rect width="24" height="24" fill="white"/>
</clipPath>
</defs>
</svg>
