<svg width="24" height="24" viewBox="0 0 24 24" fill="none" xmlns="http://www.w3.org/2000/svg">
<g clip-path="url(#clip0_1434_1289)">
<path d="M16.1321 6.06022L12 0L7.86803 6.06022L0.694214 11.0911V24H23.3059V11.0911L16.1321 6.06022ZM15.928 7.63927L21.3382 11.4334L15.2566 15.357V13.67C15.764 13.2267 16.0855 12.5756 16.0855 11.8505C16.0855 11.0052 15.6489 10.2604 14.9898 9.82834L15.928 7.63927ZM11.295 3.53702V7.02294H12.705V3.53702L14.8216 6.64129L13.6248 9.43391H10.3753L9.17842 6.64129L11.295 3.53702ZM10.1535 14.2672H13.8466V16.2667L12 17.4581L10.1535 16.2667V14.2672ZM13.6688 12.8571H10.3313C9.77618 12.8571 9.32464 12.4056 9.32464 11.8505C9.32464 11.2955 9.77618 10.8439 10.3313 10.8439H13.6688C14.2239 10.8439 14.6754 11.2955 14.6754 11.8506C14.6754 12.4056 14.2239 12.8571 13.6688 12.8571ZM8.07216 7.63927L9.01034 9.82839C8.3512 10.2604 7.91466 11.0052 7.91466 11.8505V11.8506C7.91466 12.5756 8.23614 13.2267 8.74352 13.67V15.357L2.66187 11.4334L8.07216 7.63927ZM21.8959 22.59H2.10425V12.7517L12.0001 19.1361L21.8959 12.7517V22.59H21.8959Z" fill="#6762FE"/>
<path d="M4.31897 19.3809H7.73862V20.7909H4.31897V19.3809Z" fill="#6762FE"/>
</g>
<defs>
<clipPath id="clip0_1434_1289">
<rect width="24" height="24" fill="white"/>
</clipPath>
</defs>
</svg>
