<svg width="25" height="24" viewBox="0 0 25 24" fill="none" xmlns="http://www.w3.org/2000/svg">
<g clip-path="url(#clip0_1434_1436)">
<path d="M13.8824 24H10.1176C9.728 24 9.41177 23.6838 9.41177 23.2941V22.2649C8.40565 22.0136 7.45365 21.6202 6.56941 21.0913L5.84424 21.8165C5.56847 22.0922 5.12188 22.0922 4.84612 21.8165L2.184 19.1544C2.05176 19.0221 1.97741 18.8424 1.97741 18.6551C1.97741 18.4678 2.05176 18.2885 2.184 18.1558L2.90918 17.4306C2.37976 16.5464 1.98682 15.5944 1.73553 14.5882H0.705882C0.316235 14.5882 0 14.272 0 13.8824V10.1176C0 9.728 0.316235 9.41177 0.705882 9.41177H1.73506C1.98635 8.40565 2.37976 7.45365 2.90871 6.56941L2.18353 5.84424C1.90776 5.56847 1.90776 5.12141 2.18353 4.84612L4.84565 2.184C4.97788 2.05176 5.15765 1.97741 5.34494 1.97741C5.53224 1.97741 5.71153 2.05176 5.84424 2.184L6.56941 2.90918C7.45365 2.37976 8.40565 1.98682 9.41177 1.73553V0.705882C9.41177 0.316235 9.728 0 10.1176 0H13.8824C14.272 0 14.5882 0.316235 14.5882 0.705882V23.2941C14.5882 23.6838 14.272 24 13.8824 24ZM10.8235 22.5882H13.1765V1.41176H10.8235V2.30165C10.8235 2.64 10.5835 2.93082 10.2513 2.99482C9.02776 3.23106 7.88847 3.70165 6.86588 4.39341C6.58588 4.58306 6.21035 4.54682 5.97129 4.30777L5.34494 3.68141L3.68094 5.34494L4.30729 5.97129C4.54635 6.21035 4.58259 6.58588 4.39294 6.86588C3.70118 7.88847 3.23106 9.02729 2.99482 10.2513C2.93082 10.5835 2.64 10.8235 2.30165 10.8235H1.41176V13.1765H2.30165C2.64 13.1765 2.93082 13.4165 2.99482 13.7487C3.23106 14.9727 3.70165 16.1115 4.39341 17.1341C4.58306 17.4141 4.54682 17.7896 4.30777 18.0287L3.68141 18.6551L5.34541 20.3186L5.97177 19.6922C6.21082 19.4532 6.58635 19.4174 6.86635 19.6066C7.88894 20.2984 9.02777 20.7689 10.2518 21.0052C10.584 21.0692 10.824 21.36 10.824 21.6984V22.5882H10.8235Z" fill="#6762FE"/>
<path d="M11.9999 18.3529C8.49686 18.3529 5.64697 15.503 5.64697 11.9999C5.64697 8.49686 8.49686 5.64697 11.9999 5.64697C12.7143 5.64697 13.4267 5.77121 14.118 6.01591C14.4856 6.14627 14.678 6.54956 14.5477 6.91709C14.4173 7.28462 14.014 7.47709 13.6465 7.34674C13.1072 7.15568 12.5533 7.05921 11.9999 7.05921C9.27521 7.05921 7.05874 9.27568 7.05874 12.0004C7.05874 14.7251 9.27521 16.9416 11.9999 16.9416C12.5533 16.9416 13.1072 16.8446 13.6465 16.654C14.014 16.5241 14.4173 16.7166 14.5477 17.0837C14.6776 17.4512 14.4856 17.8545 14.118 17.9849C13.4272 18.2296 12.7143 18.3533 11.9999 18.3533V18.3529Z" fill="#6762FE"/>
<path d="M21.9765 14.1176C20.809 14.1176 19.8589 13.1675 19.8589 12C19.8589 10.8324 20.809 9.88232 21.9765 9.88232C23.1441 9.88232 24.0942 10.8324 24.0942 12C24.0942 13.1675 23.1441 14.1176 21.9765 14.1176ZM21.9765 11.2941C21.5874 11.2941 21.2707 11.6108 21.2707 12C21.2707 12.3891 21.5874 12.7059 21.9765 12.7059C22.3657 12.7059 22.6824 12.3891 22.6824 12C22.6824 11.6108 22.3657 11.2941 21.9765 11.2941Z" fill="#6762FE"/>
<path d="M21.9765 19.7646C20.809 19.7646 19.8589 18.8145 19.8589 17.6469C19.8589 16.4794 20.809 15.5293 21.9765 15.5293C23.1441 15.5293 24.0942 16.4794 24.0942 17.6469C24.0942 18.8145 23.1441 19.7646 21.9765 19.7646ZM21.9765 16.9411C21.5874 16.9411 21.2707 17.2578 21.2707 17.6469C21.2707 18.0361 21.5874 18.3528 21.9765 18.3528C22.3657 18.3528 22.6824 18.0361 22.6824 17.6469C22.6824 17.2578 22.3657 16.9411 21.9765 16.9411Z" fill="#6762FE"/>
<path d="M18.6823 23.9999C17.5148 23.9999 16.5647 23.0498 16.5647 21.8823C16.5647 20.7148 17.5148 19.7646 18.6823 19.7646C19.8499 19.7646 20.8 20.7148 20.8 21.8823C20.8 23.0498 19.8499 23.9999 18.6823 23.9999ZM18.6823 21.1764C18.2932 21.1764 17.9765 21.4931 17.9765 21.8823C17.9765 22.2715 18.2932 22.5882 18.6823 22.5882C19.0715 22.5882 19.3882 22.2715 19.3882 21.8823C19.3882 21.4931 19.0715 21.1764 18.6823 21.1764Z" fill="#6762FE"/>
<path d="M20.5647 12.7057H13.8824C13.4927 12.7057 13.1765 12.3895 13.1765 11.9998C13.1765 11.6102 13.4927 11.2939 13.8824 11.2939H20.5647C20.9544 11.2939 21.2706 11.6102 21.2706 11.9998C21.2706 12.3895 20.9544 12.7057 20.5647 12.7057Z" fill="#6762FE"/>
<path d="M21.9765 8.47065C20.809 8.47065 19.8589 7.52053 19.8589 6.353C19.8589 5.18547 20.809 4.23535 21.9765 4.23535C23.1441 4.23535 24.0942 5.18547 24.0942 6.353C24.0942 7.52053 23.1441 8.47065 21.9765 8.47065ZM21.9765 5.64712C21.5874 5.64712 21.2707 5.96382 21.2707 6.353C21.2707 6.74218 21.5874 7.05888 21.9765 7.05888C22.3657 7.05888 22.6824 6.74218 22.6824 6.353C22.6824 5.96382 22.3657 5.64712 21.9765 5.64712Z" fill="#6762FE"/>
<path d="M17.2706 22.588H13.8824C13.4927 22.588 13.1765 22.2718 13.1765 21.8822C13.1765 21.4925 13.4927 21.1763 13.8824 21.1763H17.2706C17.6603 21.1763 17.9765 21.4925 17.9765 21.8822C17.9765 22.2718 17.6603 22.588 17.2706 22.588Z" fill="#6762FE"/>
<path d="M18.6823 4.23529C17.5148 4.23529 16.5647 3.28518 16.5647 2.11765C16.5647 0.950118 17.5148 0 18.6823 0C19.8499 0 20.8 0.950118 20.8 2.11765C20.8 3.28518 19.8499 4.23529 18.6823 4.23529ZM18.6823 1.41176C18.2932 1.41176 17.9765 1.72847 17.9765 2.11765C17.9765 2.50682 18.2932 2.82353 18.6823 2.82353C19.0715 2.82353 19.3882 2.50682 19.3882 2.11765C19.3882 1.72847 19.0715 1.41176 18.6823 1.41176Z" fill="#6762FE"/>
<path d="M17.2706 2.82339H13.8824C13.4927 2.82339 13.1765 2.50715 13.1765 2.1175C13.1765 1.72786 13.4927 1.41162 13.8824 1.41162H17.2706C17.6603 1.41162 17.9765 1.72786 17.9765 2.1175C17.9765 2.50715 17.6603 2.82339 17.2706 2.82339Z" fill="#6762FE"/>
<path d="M19.153 9.41154H13.8824C13.4927 9.41154 13.1765 9.0953 13.1765 8.70566C13.1765 8.31601 13.4927 7.99978 13.8824 7.99978H18.8975L20.4452 6.70989C20.7445 6.46048 21.1897 6.50095 21.4396 6.80025C21.689 7.09954 21.6485 7.54472 21.3492 7.7946L19.6052 9.24778C19.4782 9.35366 19.3186 9.41154 19.1535 9.41154H19.153Z" fill="#6762FE"/>
<path d="M20.8965 17.4533C20.737 17.4533 20.577 17.3997 20.4447 17.2895L18.897 15.9997H13.8819C13.4923 15.9997 13.176 15.6834 13.176 15.2938C13.176 14.9041 13.4923 14.5879 13.8819 14.5879H19.1525C19.3177 14.5879 19.4777 14.6458 19.6043 14.7517L21.3483 16.2048C21.6476 16.4542 21.688 16.8994 21.4386 17.1992C21.2988 17.3667 21.0984 17.4533 20.896 17.4533H20.8965Z" fill="#6762FE"/>
</g>
<defs>
<clipPath id="clip0_1434_1436">
<rect width="24.0941" height="24" fill="white"/>
</clipPath>
</defs>
</svg>
