<svg width="24" height="24" viewBox="0 0 24 24" fill="none" xmlns="http://www.w3.org/2000/svg">
<path fill-rule="evenodd" clip-rule="evenodd" d="M17.6251 0.75C17.7951 0.750027 17.96 0.807822 18.0929 0.913909C18.2258 1.02 18.3186 1.16808 18.3563 1.33387L18.7714 3.15863C18.8655 3.57219 19.0745 3.95074 19.3744 4.25064C19.6743 4.55054 20.0529 4.75957 20.4664 4.85362L22.2916 5.26875C22.4573 5.30651 22.6052 5.39943 22.7112 5.53229C22.8172 5.66514 22.8749 5.83005 22.8749 6C22.8749 6.16995 22.8172 6.33486 22.7112 6.46771C22.6052 6.60057 22.4573 6.69349 22.2916 6.73125L20.4664 7.14637C20.0529 7.24043 19.6743 7.44946 19.3744 7.74936C19.0745 8.04926 18.8655 8.42781 18.7714 8.84138L18.3563 10.6661C18.3185 10.8318 18.2256 10.9798 18.0928 11.0858C17.9599 11.1918 17.795 11.2495 17.6251 11.2495C17.4551 11.2495 17.2902 11.1918 17.1573 11.0858C17.0245 10.9798 16.9316 10.8318 16.8938 10.6661L16.4787 8.84138C16.3846 8.42781 16.1756 8.04926 15.8757 7.74936C15.5758 7.44946 15.1972 7.24043 14.7837 7.14637L12.9586 6.73125C12.7929 6.69349 12.6449 6.60057 12.5389 6.46771C12.4329 6.33486 12.3752 6.16995 12.3752 6C12.3752 5.83005 12.4329 5.66514 12.5389 5.53229C12.6449 5.39943 12.7929 5.30651 12.9586 5.26875L14.7837 4.85362C15.1972 4.75957 15.5758 4.55054 15.8757 4.25064C16.1756 3.95074 16.3846 3.57219 16.4787 3.15863L16.8938 1.33387C16.9315 1.16808 17.0243 1.02 17.1572 0.913909C17.2901 0.807822 17.455 0.750027 17.6251 0.75ZM17.6251 4.36425C17.2657 5.06815 16.6932 5.64061 15.9893 6C16.6932 6.35939 17.2657 6.93185 17.6251 7.63575C17.9844 6.93185 18.5569 6.35939 19.2608 6C18.5569 5.64061 17.9844 5.06815 17.6251 4.36425ZM13.1956 8.625C12.6485 8.625 12.1239 8.8423 11.7371 9.22909C11.3504 9.61589 11.1331 10.1405 11.1331 10.6875C11.1331 11.2345 11.3504 11.7591 11.7371 12.1459C12.1239 12.5327 12.6485 12.75 13.1956 12.75C13.7426 12.75 14.2672 12.5327 14.654 12.1459C15.0408 11.7591 15.2581 11.2345 15.2581 10.6875C15.2581 10.1405 15.0408 9.61589 14.654 9.22909C14.2672 8.8423 13.7426 8.625 13.1956 8.625ZM12.5881 10.6875C12.5881 10.3695 12.8502 10.0939 13.1956 10.0939C13.5409 10.0939 13.8031 10.3695 13.8031 10.6875C13.8031 11.0055 13.5409 11.2811 13.1956 11.2811C12.8502 11.2811 12.5881 11.0055 12.5881 10.6875Z" fill="#6762FE"/>
<path fill-rule="evenodd" clip-rule="evenodd" d="M4.125 5.25H11.4064C11.3051 5.481 11.25 5.73525 11.25 6C11.25 6.26475 11.3055 6.519 11.4064 6.75H4.125C3.72718 6.75 3.34564 6.90804 3.06434 7.18934C2.78304 7.47064 2.625 7.85218 2.625 8.25V14.6332C5.92613 13.7981 9.25575 14.6873 11.6685 16.7475C13.2622 15.7275 15.1418 15.474 16.875 15.9019V12.2186C17.106 12.3199 17.3603 12.375 17.625 12.375C17.8897 12.375 18.144 12.3195 18.375 12.2186V20.25C18.375 21.0456 18.0589 21.8087 17.4963 22.3713C16.9337 22.9339 16.1706 23.25 15.375 23.25H4.125C3.32935 23.25 2.56629 22.9339 2.00368 22.3713C1.44107 21.8087 1.125 21.0456 1.125 20.25V8.25C1.125 7.45435 1.44107 6.69129 2.00368 6.12868C2.56629 5.56607 3.32935 5.25 4.125 5.25ZM2.625 16.1588V20.25C2.625 20.6478 2.78304 21.0294 3.06434 21.3107C3.34564 21.592 3.72718 21.75 4.125 21.75H13.2911C11.8414 17.4026 7.27763 14.9111 2.82375 16.1321C2.75899 16.1498 2.69214 16.1588 2.625 16.1588ZM14.8601 21.75H15.375C15.7728 21.75 16.1544 21.592 16.4357 21.3107C16.717 21.0294 16.875 20.6478 16.875 20.25V17.4604C15.5269 17.0258 14.0441 17.1341 12.7657 17.8391C13.7422 18.9734 14.4572 20.3086 14.8601 21.75Z" fill="#6762FE"/>
</svg>
