<svg width="24" height="24" viewBox="0 0 24 24" fill="none" xmlns="http://www.w3.org/2000/svg">
<g clip-path="url(#clip0_1434_1395)">
<path d="M22.4729 11.7326C19.5728 5.93236 19.6618 6.10903 19.6433 6.07627C19.5153 5.84977 19.2767 5.71884 19.0314 5.71884C18.9296 5.71884 4.96023 5.71706 4.90534 5.72203C4.66801 5.74294 4.45661 5.88441 4.34551 6.09698C4.34368 6.10055 4.34157 6.10392 4.33979 6.10748L1.52725 11.7326C1.525 11.737 1.52312 11.7416 1.52101 11.7461C1.51932 11.7496 1.51745 11.753 1.51586 11.7565C1.51468 11.759 1.51384 11.7616 1.51271 11.7642C1.45953 11.8849 1.44143 12.0181 1.46049 12.1486C1.47955 12.2791 1.535 12.4016 1.62048 12.502C1.62268 12.5047 1.6247 12.5075 1.627 12.51L11.4709 23.7602C11.4721 23.7615 11.4734 23.7627 11.4745 23.764C11.7508 24.0749 12.2425 24.0825 12.5255 23.764C12.5267 23.7627 12.528 23.7615 12.5292 23.7602L22.3731 12.51C22.3736 12.5095 22.3741 12.5089 22.3745 12.5083C22.5542 12.3017 22.604 11.995 22.4729 11.7326ZM17.8937 7.12509L16.0988 10.715L13.4063 7.12509H17.8937ZM14.8126 11.3439H9.18751L12.0001 7.59389L14.8126 11.3439ZM10.5938 7.12509L7.90135 10.715L6.10642 7.12509H10.5938ZM4.96871 7.99425L6.64361 11.3439H3.29387L4.96871 7.99425ZM3.70571 12.7502H7.29395L9.98514 19.9267L3.70571 12.7502ZM12.0001 21.2947L8.79587 12.7502H15.2042L12.0001 21.2947ZM14.015 19.9268L16.7062 12.7502H20.2944L14.015 19.9268ZM17.3566 11.3439L19.0314 7.99425L20.7063 11.3439H17.3566ZM12.0001 0C11.6117 0 11.2969 0.314812 11.2969 0.703125V2.81255C11.2969 3.20086 11.6117 3.51567 12.0001 3.51567C12.3884 3.51567 12.7032 3.20086 12.7032 2.81255V0.703125C12.7032 0.314812 12.3884 0 12.0001 0ZM9.68471 3.01852L8.27846 1.61227C8.00392 1.33772 7.5587 1.33772 7.28411 1.61227C7.00951 1.88686 7.00951 2.33203 7.28411 2.60663L8.69036 4.01288C8.96495 4.28747 9.41012 4.28747 9.68471 4.01288C9.95931 3.73828 9.95931 3.29311 9.68471 3.01852ZM16.7161 1.61227C16.4415 1.33772 15.9963 1.33772 15.7217 1.61227L14.3154 3.01852C14.0409 3.29311 14.0409 3.73828 14.3154 4.01288C14.59 4.28747 15.0353 4.28742 15.3098 4.01288L16.7161 2.60663C16.9907 2.33203 16.9907 1.88686 16.7161 1.61227Z" fill="#6762FE"/>
</g>
<defs>
<clipPath id="clip0_1434_1395">
<rect width="24" height="24" fill="white"/>
</clipPath>
</defs>
</svg>
