<svg width="24" height="24" viewBox="0 0 24 24" fill="none" xmlns="http://www.w3.org/2000/svg">
<path d="M20.75 5V13.75H19.25V5C19.25 4.311 18.689 3.75 18 3.75H6C5.311 3.75 4.75 4.311 4.75 5V13.75H3.25V5C3.25053 4.27082 3.54043 3.57165 4.05604 3.05604C4.57165 2.54043 5.27082 2.25053 6 2.25H18C18.7292 2.25053 19.4283 2.54043 19.944 3.05604C20.4596 3.57165 20.7495 4.27082 20.75 5ZM15 5.25H9C8.80109 5.25 8.61032 5.32902 8.46967 5.46967C8.32902 5.61032 8.25 5.80109 8.25 6C8.25 6.19891 8.32902 6.38968 8.46967 6.53033C8.61032 6.67098 8.80109 6.75 9 6.75H15C15.1989 6.75 15.3897 6.67098 15.5303 6.53033C15.671 6.38968 15.75 6.19891 15.75 6C15.75 5.80109 15.671 5.61032 15.5303 5.46967C15.3897 5.32902 15.1989 5.25 15 5.25Z" fill="#6762FE"/>
<path d="M21.5299 18.488C21.2163 17.4445 20.5841 16.5252 19.7219 15.859C20.0456 15.5571 20.3039 15.1919 20.4807 14.7861C20.6575 14.3804 20.7492 13.9426 20.7499 13.5C20.7489 12.6384 20.4061 11.8123 19.7969 11.2031C19.1876 10.5938 18.3616 10.2511 17.4999 10.25C16.7729 10.25 16.1089 10.498 15.5669 10.903C15.0939 9.373 13.6829 8.25 11.9999 8.25C10.3169 8.25 8.90595 9.372 8.43295 10.903C7.87636 10.4817 7.198 10.2525 6.49995 10.25C5.63832 10.2511 4.81228 10.5938 4.20302 11.2031C3.59375 11.8123 3.251 12.6384 3.24995 13.5C3.24995 14.431 3.64895 15.266 4.27795 15.859C3.41576 16.5252 2.78357 17.4445 2.46995 18.488C2.30995 19.026 2.40995 19.592 2.74595 20.043C3.07995 20.492 3.59295 20.75 4.15095 20.75H5.51295C5.57295 20.874 5.64395 20.994 5.73395 21.104C6.07195 21.515 6.57095 21.75 7.10095 21.75H16.8979C17.4279 21.75 17.9269 21.515 18.2649 21.104C18.3549 20.995 18.4269 20.875 18.4859 20.75H19.8479C20.4069 20.75 20.9189 20.492 21.2529 20.043C21.5889 19.593 21.6899 19.026 21.5289 18.488H21.5299ZM17.4999 11.75C18.4649 11.75 19.2499 12.535 19.2499 13.5C19.2499 14.465 18.4649 15.25 17.4999 15.25C16.5349 15.25 15.7499 14.465 15.7499 13.5C15.7499 12.535 16.5349 11.75 17.4999 11.75ZM11.9999 9.75C13.2399 9.75 14.2499 10.76 14.2499 12C14.2499 13.24 13.2399 14.25 11.9999 14.25C10.7599 14.25 9.74995 13.24 9.74995 12C9.74995 10.76 10.7599 9.75 11.9999 9.75ZM6.49995 11.75C7.46495 11.75 8.24995 12.535 8.24995 13.5C8.24995 14.465 7.46495 15.25 6.49995 15.25C5.53495 15.25 4.74995 14.465 4.74995 13.5C4.74995 12.535 5.53495 11.75 6.49995 11.75ZM3.94795 19.146C3.92351 19.1138 3.90706 19.0762 3.89993 19.0364C3.8928 18.9966 3.89521 18.9557 3.90695 18.917C4.0541 18.433 4.29851 17.9842 4.62522 17.598C4.95193 17.2118 5.35405 16.8963 5.80695 16.671C6.03095 16.72 6.26095 16.749 6.49995 16.749C6.60095 16.749 6.69695 16.728 6.79595 16.719C6.18975 17.4604 5.74952 18.3231 5.50495 19.249H4.15095C4.11126 19.2492 4.0721 19.2398 4.03678 19.2217C4.00146 19.2036 3.97099 19.1783 3.94795 19.146ZM17.1069 20.15C17.0815 20.1809 17.0496 20.2059 17.0135 20.2232C16.9774 20.2405 16.938 20.2496 16.8979 20.25H7.10195C7.06188 20.2498 7.02236 20.2408 6.98622 20.2235C6.95008 20.2062 6.91823 20.1811 6.89295 20.15C6.87367 20.129 6.8595 20.1038 6.85152 20.0764C6.84355 20.049 6.84198 20.0201 6.84695 19.992C7.32495 17.534 9.49295 15.75 11.9999 15.75C14.5069 15.75 16.6759 17.534 17.1529 19.992C17.158 20.0201 17.1565 20.049 17.1485 20.0764C17.1405 20.1038 17.1263 20.129 17.1069 20.15ZM20.0509 19.146C20.0278 19.1782 19.9973 19.2044 19.962 19.2225C19.9267 19.2406 19.8876 19.25 19.8479 19.25H18.4939C18.2498 18.3239 17.8095 17.4611 17.2029 16.72C17.3019 16.729 17.3969 16.75 17.4989 16.75C17.7369 16.75 17.9679 16.721 18.1919 16.672C18.6448 16.8973 19.047 17.2128 19.3737 17.599C19.7004 17.9852 19.9448 18.434 20.0919 18.918C20.1036 18.9567 20.106 18.9976 20.0988 19.0374C20.0917 19.0772 20.0753 19.1137 20.0509 19.146Z" fill="#6762FE"/>
</svg>
