<svg width="24" height="24" viewBox="0 0 24 24" fill="none" xmlns="http://www.w3.org/2000/svg">
<path d="M12.333 11.4061L12.3344 11.4054C12.3381 11.4036 12.3445 11.4005 12.3531 11.3957C12.3704 11.3862 12.3972 11.3702 12.4317 11.3454C12.5006 11.2959 12.6008 11.2113 12.7175 11.0739C12.9507 10.7992 13.2515 10.3116 13.4989 9.46835C13.6671 8.89512 13.9684 8.44965 14.3821 8.15497C14.7835 7.86906 15.2834 7.73024 15.8542 7.74726C15.8561 7.7453 15.8582 7.74335 15.8603 7.74141L12.333 11.4061ZM12.333 11.4061C12.296 11.4184 12.2608 11.4355 12.2281 11.4567H10.7619C10.6399 11.4567 10.5229 11.5051 10.4366 11.5914C10.3504 11.6777 10.3019 11.7947 10.3019 11.9167C10.3019 12.0387 10.3504 12.1557 10.4366 12.2419C10.5229 12.3282 10.6399 12.3767 10.7619 12.3767H12.9069C13.1179 12.4013 13.322 12.4143 13.5176 12.4143C16.199 12.4143 17.3226 10.2321 17.6049 9.56191L12.333 11.4061ZM21.4785 3.95842L21.4786 3.95849C21.6054 3.8312 21.6697 3.75139 21.7017 3.70395C21.7065 3.69678 21.7105 3.69054 21.7137 3.68519C21.712 3.6834 21.7101 3.68152 21.7081 3.67954C21.7061 3.67749 21.7041 3.67557 21.7023 3.67381C21.6972 3.67687 21.6912 3.6806 21.6844 3.68513C21.6386 3.71565 21.5619 3.77701 21.4411 3.89773L21.4378 3.90096L21.4378 3.90088L16.627 8.28753L21.4785 3.95842ZM21.4785 3.95842L21.4755 3.9617L17.112 8.74782C16.9864 8.72967 16.8303 8.68502 16.736 8.5829L21.4785 3.95842ZM22.3591 3.02863L22.3591 3.0286C22.1726 2.84208 21.9559 2.74131 21.7174 2.74131C21.3226 2.74131 21.0208 3.01743 20.8045 3.23386L19.2547 4.647C18.8958 4.1651 18.3237 3.85947 17.6989 3.85947H3.29502C2.22458 3.85947 1.35374 4.73033 1.35374 5.80099V12.7435C1.35374 13.8139 2.22434 14.6847 3.29502 14.6847H4.5767L3.13589 19.7857L3.13557 19.7869C3.0545 20.0884 3.09604 20.4037 3.25208 20.6741C3.4081 20.9444 3.66051 21.1381 3.96182 21.2187C4.06308 21.246 4.16474 21.2586 4.26462 21.2586C4.77975 21.2586 5.25325 20.9153 5.39278 20.3972C5.39284 20.397 5.39289 20.3968 5.39295 20.3966L7.00265 14.6845H8.83046V18.1015V18.1016C8.8308 18.433 8.96259 18.7508 9.19692 18.9851C9.43125 19.2195 9.74898 19.3514 10.0804 19.3518H10.0806C10.4121 19.3514 10.7299 19.2196 10.9643 18.9852C11.1987 18.7508 11.3305 18.433 11.3309 18.1016V18.1015V14.6845H14.1782L15.7867 20.3927C15.7868 20.3929 15.7868 20.393 15.7869 20.3932C15.854 20.6413 16.0009 20.8604 16.2049 21.0168C16.409 21.1732 16.6589 21.2582 16.9161 21.2586H16.9162C17.016 21.2586 17.1176 21.2457 17.2184 21.2187C17.5197 21.1379 17.7722 20.9443 17.9283 20.6739C18.0844 20.4033 18.1258 20.0879 18.0436 19.7824L18.0433 19.7812L16.6037 14.6845H17.6989C18.7693 14.6845 19.6401 13.8137 19.6401 12.7432V7.34021L22.1426 4.59518L22.1438 4.59392C22.2455 4.49212 22.4624 4.27505 22.5745 4.00087C22.6319 3.86063 22.6637 3.70133 22.6363 3.53255C22.6088 3.36285 22.5227 3.19239 22.3591 3.02863ZM4.5058 20.1525L4.50553 20.1535C4.48825 20.2174 4.44638 20.2718 4.38909 20.3048C4.33183 20.3379 4.26381 20.3469 4.1999 20.33C4.13562 20.3128 4.08212 20.2718 4.04882 20.2141L3.96222 20.2641L4.04882 20.2141C4.0152 20.1559 4.00692 20.0896 4.02263 20.0307C4.02267 20.0306 4.02272 20.0304 4.02277 20.0302L5.5326 14.6847H6.04678L4.5058 20.1525ZM16.6741 20.1506L16.6741 20.1506L16.6736 20.1487L15.134 14.685H15.6477L17.1564 20.0257C17.1564 20.0259 17.1565 20.026 17.1565 20.0262C17.1736 20.09 17.1648 20.1565 17.1315 20.2141C17.0982 20.2718 17.045 20.3128 16.9805 20.3302C16.9486 20.3385 16.9155 20.3405 16.8829 20.3361C16.8502 20.3316 16.8187 20.3207 16.7902 20.304C16.7617 20.2873 16.7368 20.2652 16.7169 20.2389C16.697 20.2126 16.6824 20.1826 16.6741 20.1506ZM12.4311 11.4659C12.4105 11.4786 12.3946 11.4871 12.3841 11.4924L12.3697 11.3993C12.3983 11.4109 12.4188 11.4369 12.4311 11.4659ZM18.5696 5.27125L15.8604 7.74131L17.5423 9.48337C17.5531 9.47643 17.5638 9.46949 17.5724 9.46003L17.6463 9.5274L17.6464 9.52729C17.6464 9.52722 17.6465 9.52714 17.6466 9.52706L18.7201 8.34944V12.7431C18.7198 13.0139 18.6121 13.2735 18.4207 13.465C18.2292 13.6565 17.9695 13.7642 17.6987 13.7645H3.29512C3.02432 13.7642 2.7647 13.6565 2.57321 13.465C2.38173 13.2735 2.27402 13.0139 2.27374 12.7431V5.80086C2.27374 5.80084 2.27374 5.80082 2.27374 5.8008C2.27404 5.53 2.38174 5.27036 2.57321 5.07885C2.76467 4.88735 3.02426 4.7796 3.29505 4.77923C3.29508 4.77923 3.29511 4.77923 3.29514 4.77923L17.6984 4.77923C17.8863 4.78013 18.0704 4.83264 18.2305 4.93102C18.3692 5.0162 18.4853 5.13292 18.5696 5.27125ZM12.3058 11.5267C12.2897 11.5355 12.2743 11.5455 12.2597 11.5567H10.7619C10.6664 11.5567 10.5749 11.5946 10.5073 11.6621C10.4398 11.7296 10.4019 11.8212 10.4019 11.9167C10.4019 12.0121 10.4398 12.1037 10.5073 12.1712C10.5749 12.2387 10.6664 12.2767 10.7619 12.2767L12.3058 11.5267ZM13.56 11.4928C13.8434 11.1096 14.1406 10.5479 14.3815 9.72748L14.3815 9.72745C14.4919 9.35114 14.6705 9.0824 14.9094 8.91047C15.1327 8.74977 15.4177 8.66707 15.7695 8.66948C15.8253 8.87136 15.9187 9.05343 16.0598 9.20664L16.0598 9.2067C16.2208 9.38128 16.4117 9.49095 16.5951 9.56037C16.2249 10.2656 15.3351 11.4703 13.56 11.4928ZM10.4109 18.1015C10.4109 18.2836 10.2627 18.4318 10.0805 18.4318C9.99302 18.4316 9.90915 18.3967 9.84728 18.3348C9.78537 18.2729 9.75055 18.1889 9.75046 18.1014V14.6845H10.4109V18.1015Z" fill="#6762FE" stroke="#6762FE" stroke-width="0.2"/>
</svg>
