<svg width="24" height="24" viewBox="0 0 24 24" fill="none" xmlns="http://www.w3.org/2000/svg">
<path d="M19.9999 3.19971H4.0001C3.12026 3.19971 2.40002 3.91971 2.40002 4.79979V19.1998C2.40002 20.0796 3.12026 20.7996 4.0001 20.7996H19.9999C20.8798 20.7996 21.6 20.0796 21.6 19.1998V4.79979C21.6 3.91971 20.8798 3.19971 19.9999 3.19971ZM19.9999 19.1998H4.0001V4.79979H19.9999V19.1998Z" fill="#6762FE"/>
<path d="M5.59998 6.3999H8.80014V7.99998H5.59998V6.3999ZM10.4 6.3999H13.6001V7.99998H10.4V6.3999ZM15.2 6.3999H18.4001V7.99998H15.2V6.3999ZM5.59998 9.59982H8.80014V11.1999H5.59998V9.59982ZM10.4 9.59982H13.6001V11.1999H10.4V9.59982ZM15.2 9.59982H18.4001V11.1999H15.2V9.59982ZM5.59998 12.8H8.80014V14.3998H5.59998V12.8ZM15.2 12.8H18.4001V14.3998H15.2V12.8ZM5.59998 15.9997H8.80014V17.6H5.59998V15.9997Z" fill="#6762FE"/>
</svg>
