<svg width="24" height="24" viewBox="0 0 24 24" fill="none" xmlns="http://www.w3.org/2000/svg">
<path d="M5 16.25C3.483 16.25 2.25 17.483 2.25 19C2.25 20.517 3.483 21.75 5 21.75C6.517 21.75 7.75 20.517 7.75 19C7.75 17.483 6.517 16.25 5 16.25ZM5 20.25C4.311 20.25 3.75 19.689 3.75 19C3.75 18.311 4.311 17.75 5 17.75C5.689 17.75 6.25 18.311 6.25 19C6.25 19.689 5.689 20.25 5 20.25ZM19 2.25C18.2708 2.25053 17.5717 2.54043 17.056 3.05604C16.5404 3.57165 16.2505 4.27082 16.25 5C16.25 6.322 17.294 8.75 19 8.75C20.706 8.75 21.75 6.322 21.75 5C21.7495 4.27082 21.4596 3.57165 20.944 3.05604C20.4283 2.54043 19.7292 2.25053 19 2.25ZM19 7.25C18.509 7.25 17.75 5.883 17.75 5C17.75 4.311 18.311 3.75 19 3.75C19.689 3.75 20.25 4.311 20.25 5C20.25 5.883 19.491 7.25 19 7.25Z" fill="#6762FE"/>
<path d="M14 19.75H10C9.80109 19.75 9.61032 19.671 9.46967 19.5303C9.32902 19.3897 9.25 19.1989 9.25 19C9.25 18.8011 9.32902 18.6103 9.46967 18.4697C9.61032 18.329 9.80109 18.25 10 18.25H14C15.241 18.25 16.25 17.24 16.25 16C16.25 14.76 15.241 13.75 14 13.75H8.5C6.708 13.75 5.25 12.292 5.25 10.5C5.25 8.708 6.708 7.25 8.5 7.25H15C15.1989 7.25 15.3897 7.32902 15.5303 7.46967C15.671 7.61032 15.75 7.80109 15.75 8C15.75 8.19891 15.671 8.38968 15.5303 8.53033C15.3897 8.67098 15.1989 8.75 15 8.75H8.5C7.535 8.75 6.75 9.535 6.75 10.5C6.75 11.465 7.535 12.25 8.5 12.25H14C16.068 12.25 17.75 13.933 17.75 16C17.75 18.067 16.068 19.75 14 19.75Z" fill="#6762FE"/>
</svg>
