<svg width="24" height="24" viewBox="0 0 24 24" fill="none" xmlns="http://www.w3.org/2000/svg">
<path d="M21.3047 16.7752V13.5817C21.3047 13.3206 21.201 13.0702 21.0164 12.8856C20.8318 12.701 20.5814 12.5973 20.3203 12.5973H12.9844V10.4069C14.268 10.1619 15.4141 9.44692 16.1986 8.40183C16.9832 7.35673 17.3497 6.05661 17.2267 4.75562C17.1036 3.45462 16.4998 2.24629 15.5332 1.36683C14.5666 0.487367 13.3068 0 12 0C10.6932 0 9.43339 0.487367 8.46681 1.36683C7.50024 2.24629 6.8964 3.45462 6.77334 4.75562C6.65028 6.05661 7.01685 7.35673 7.80138 8.40183C8.58591 9.44692 9.73201 10.1619 11.0156 10.4069V12.5973H3.6797C3.41862 12.5973 3.16824 12.701 2.98364 12.8856C2.79903 13.0702 2.69532 13.3206 2.69532 13.5817V16.7752C1.83789 17.0133 1.09577 17.554 0.606396 18.2972C0.117026 19.0404 -0.0864353 19.9358 0.033691 20.8175C0.153817 21.6993 0.589393 22.5076 1.25975 23.0928C1.93011 23.678 2.78983 24.0005 3.6797 24.0005C4.56956 24.0005 5.42928 23.678 6.09964 23.0928C6.77 22.5076 7.20557 21.6993 7.3257 20.8175C7.44583 19.9358 7.24237 19.0404 6.753 18.2972C6.26363 17.554 5.52151 17.0133 4.66407 16.7752V14.566H11.0156V16.7752C10.1582 17.0133 9.41608 17.554 8.92671 18.2972C8.43734 19.0404 8.23388 19.9358 8.354 20.8175C8.47413 21.6993 8.90971 22.5076 9.58006 23.0928C10.2504 23.678 11.1101 24.0005 12 24.0005C12.8899 24.0005 13.7496 23.678 14.42 23.0928C15.0903 22.5076 15.5259 21.6993 15.646 20.8175C15.7661 19.9358 15.5627 19.0404 15.0733 18.2972C14.5839 17.554 13.8418 17.0133 12.9844 16.7752V14.5661H19.3359V16.7753C18.4785 17.0133 17.7364 17.554 17.247 18.2973C16.7577 19.0405 16.5542 19.9359 16.6743 20.8176C16.7944 21.6993 17.23 22.5076 17.9004 23.0929C18.5707 23.6781 19.4305 24.0005 20.3203 24.0005C21.2102 24.0005 22.0699 23.6781 22.7403 23.0929C23.4106 22.5076 23.8462 21.6993 23.9663 20.8176C24.0865 19.9359 23.883 19.0405 23.3936 18.2973C22.9043 17.554 22.1621 17.0133 21.3047 16.7753V16.7752ZM8.71876 5.24984C8.71876 4.60087 8.9112 3.96648 9.27175 3.42688C9.6323 2.88728 10.1448 2.46671 10.7443 2.21836C11.3439 1.97001 12.0036 1.90503 12.6401 2.03164C13.2766 2.15825 13.8613 2.47076 14.3202 2.92965C14.7791 3.38854 15.0916 3.9732 15.2182 4.6097C15.3448 5.2462 15.2798 5.90595 15.0315 6.50552C14.7831 7.10509 14.3626 7.61755 13.823 7.9781C13.2834 8.33865 12.649 8.53109 12 8.53109C11.1301 8.53011 10.296 8.1841 9.6809 7.56895C9.06576 6.95381 8.71974 6.11978 8.71876 5.24984ZM5.39063 20.3202C5.39063 20.6585 5.29029 20.9893 5.10229 21.2707C4.91429 21.5521 4.64708 21.7714 4.33444 21.9009C4.02181 22.0304 3.6778 22.0642 3.34591 21.9982C3.01402 21.9322 2.70916 21.7692 2.46988 21.53C2.2306 21.2907 2.06765 20.9858 2.00163 20.6539C1.93562 20.3221 1.9695 19.978 2.099 19.6654C2.22849 19.3528 2.44779 19.0856 2.72915 18.8976C3.01051 18.7096 3.34131 18.6092 3.6797 18.6092C4.13331 18.6097 4.56819 18.7902 4.88894 19.1109C5.20969 19.4317 5.39011 19.8665 5.39063 20.3202ZM13.7109 20.3202C13.7109 20.6585 13.6106 20.9893 13.4226 21.2707C13.2346 21.5521 12.9674 21.7714 12.6548 21.9009C12.3421 22.0304 11.9981 22.0642 11.6662 21.9982C11.3343 21.9322 11.0295 21.7692 10.7902 21.53C10.5509 21.2907 10.388 20.9858 10.3219 20.6539C10.2559 20.3221 10.2898 19.978 10.4193 19.6654C10.5488 19.3528 10.7681 19.0856 11.0495 18.8976C11.3308 18.7096 11.6616 18.6092 12 18.6092C12.4536 18.6097 12.8885 18.7902 13.2092 19.1109C13.53 19.4317 13.7104 19.8665 13.7109 20.3202ZM20.3203 22.0311C19.9819 22.0311 19.6511 21.9307 19.3698 21.7427C19.0884 21.5547 18.8691 21.2875 18.7396 20.9749C18.6101 20.6623 18.5762 20.3183 18.6423 19.9864C18.7083 19.6545 18.8712 19.3496 19.1105 19.1103C19.3498 18.8711 19.6546 18.7081 19.9865 18.6421C20.3184 18.5761 20.6624 18.61 20.9751 18.7395C21.2877 18.869 21.5549 19.0882 21.7429 19.3696C21.9309 19.651 22.0313 19.9818 22.0313 20.3202C22.0307 20.7738 21.8503 21.2086 21.5296 21.5294C21.2088 21.8501 20.7739 22.0306 20.3203 22.0311Z" fill="#6762FE"/>
</svg>
