<svg width="24" height="24" viewBox="0 0 24 24" fill="none" xmlns="http://www.w3.org/2000/svg">
<g clip-path="url(#clip0_1434_1474)">
<path d="M21.8906 0.046875H2.10938C0.946266 0.046875 0 0.993141 0 2.15625V21.8438C0 23.0069 0.946266 23.9531 2.10938 23.9531H21.8906C23.0537 23.9531 24 23.0069 24 21.8438V2.15625C24 0.993141 23.0537 0.046875 21.8906 0.046875ZM2.10938 1.45312H21.8906C22.2783 1.45312 22.5938 1.76855 22.5938 2.15625V5.67188H1.40625V2.15625C1.40625 1.76855 1.72167 1.45312 2.10938 1.45312ZM21.8906 22.5469H2.10938C1.72167 22.5469 1.40625 22.2315 1.40625 21.8438V7.07812H22.5938V21.8438C22.5938 22.2315 22.2783 22.5469 21.8906 22.5469Z" fill="#6762FE"/>
<path d="M14.3864 9.24452C14.0295 9.09157 13.6161 9.2569 13.4632 9.61381L9.24442 19.4576C9.09142 19.8145 9.2568 20.2279 9.6137 20.3808C9.97075 20.5338 10.384 20.3683 10.537 20.0115L14.7557 10.1678C14.9087 9.81082 14.7433 9.39748 14.3864 9.24452ZM8.33036 11.5609C8.08773 11.2577 7.64519 11.2085 7.34209 11.4511L3.82647 14.2636C3.47495 14.5447 3.47472 15.0804 3.82647 15.3617L7.34209 18.1742C7.64533 18.4168 8.08788 18.3676 8.33036 18.0644C8.57294 17.7612 8.52381 17.3187 8.22053 17.0762L5.39125 14.8127L8.22053 12.5492C8.52381 12.3066 8.57294 11.8642 8.33036 11.5609ZM20.1737 14.2636L16.658 11.4511C16.3548 11.2085 15.9123 11.2577 15.6698 11.5609C15.4272 11.8641 15.4763 12.3066 15.7796 12.5492L18.6089 14.8127L15.7796 17.0761C15.4763 17.3187 15.4272 17.7611 15.6698 18.0644C15.9127 18.3679 16.3552 18.4165 16.658 18.1742L20.1737 15.3617C20.5252 15.0806 20.5254 14.545 20.1737 14.2636Z" fill="#6762FE"/>
<path d="M3.5625 4.26562C3.95083 4.26562 4.26562 3.95083 4.26562 3.5625C4.26562 3.17417 3.95083 2.85938 3.5625 2.85938C3.17417 2.85938 2.85938 3.17417 2.85938 3.5625C2.85938 3.95083 3.17417 4.26562 3.5625 4.26562Z" fill="#6762FE"/>
<path d="M6.375 4.26562C6.76333 4.26562 7.07812 3.95083 7.07812 3.5625C7.07812 3.17417 6.76333 2.85938 6.375 2.85938C5.98667 2.85938 5.67188 3.17417 5.67188 3.5625C5.67188 3.95083 5.98667 4.26562 6.375 4.26562Z" fill="#6762FE"/>
<path d="M9.1875 4.26562C9.57583 4.26562 9.89062 3.95083 9.89062 3.5625C9.89062 3.17417 9.57583 2.85938 9.1875 2.85938C8.79917 2.85938 8.48438 3.17417 8.48438 3.5625C8.48438 3.95083 8.79917 4.26562 9.1875 4.26562Z" fill="#6762FE"/>
<path d="M16.2188 4.26562H20.4375C20.8258 4.26562 21.1406 3.95081 21.1406 3.5625C21.1406 3.17419 20.8258 2.85938 20.4375 2.85938H16.2188C15.8304 2.85938 15.5156 3.17419 15.5156 3.5625C15.5156 3.95081 15.8304 4.26562 16.2188 4.26562Z" fill="#6762FE"/>
</g>
<defs>
<clipPath id="clip0_1434_1474">
<rect width="24" height="24" fill="white"/>
</clipPath>
</defs>
</svg>
