<svg width="24" height="24" viewBox="0 0 24 24" fill="none" xmlns="http://www.w3.org/2000/svg">
<g clip-path="url(#clip0_1434_1295)">
<path d="M24 0.75H0V19.0312H7.76719L4.99219 21.3768V23.25H6.39844V22.0295L9.94561 19.0312H11.2969V23.25H12.7031V19.0312H14.0544L17.6016 22.0295V23.25H19.0078V21.3768L16.2328 19.0312H24V0.75ZM22.5938 17.625H1.40625V2.15625H22.5938V17.625Z" fill="#6762FE"/>
<path d="M18.5909 7.38787L19.4062 6.57257L20.2216 7.38787L21.2159 6.39355L20.4006 5.57821L21.2159 4.76287L20.2216 3.76855L19.4062 4.58385L18.5909 3.76855L17.5966 4.76287L18.4119 5.57821L17.5966 6.39355L18.5909 7.38787ZM6.93746 10.5938H17.0625C17.8637 10.5938 18.5156 11.2457 18.5156 12.047C18.5156 12.8482 17.8637 13.5001 17.0625 13.5001H7.92184V14.9063H17.0625C18.6392 14.9063 19.9218 13.6236 19.9218 12.047C19.9218 10.4703 18.6392 9.18759 17.0625 9.18759H6.93746C6.13623 9.18759 5.48434 8.5357 5.48434 7.73446C5.48434 6.93323 6.13623 6.28134 6.93746 6.28134H16.0781V4.87509H6.93746C5.36078 4.87509 4.07809 6.15777 4.07809 7.73446C4.07809 9.31115 5.36078 10.5938 6.93746 10.5938ZM3.77837 16.0129L4.59371 15.1976L5.40906 16.0129L6.40337 15.0186L5.58807 14.2032L6.40337 13.3879L5.40906 12.3936L4.59371 13.2089L3.77837 12.3936L2.78406 13.3879L3.59935 14.2032L2.78406 15.0186L3.77837 16.0129Z" fill="#6762FE"/>
</g>
<defs>
<clipPath id="clip0_1434_1295">
<rect width="24" height="24" fill="white"/>
</clipPath>
</defs>
</svg>
