<svg width="24" height="24" viewBox="0 0 24 24" fill="none" xmlns="http://www.w3.org/2000/svg">
<g clip-path="url(#clip0_1434_1406)">
<path fill-rule="evenodd" clip-rule="evenodd" d="M16.4516 0.753928C16.2665 0.772894 16.0949 0.859947 15.9703 0.99821C15.8456 1.13647 15.7768 1.31609 15.777 1.50224V4.50685C15.777 4.92069 16.1115 5.25517 16.5225 5.25517H18.7816V6.75747H3.00461C2.40637 6.76045 1.83348 6.99942 1.41046 7.42245C0.987434 7.84547 0.748463 8.41836 0.745483 9.01659V21.0322C0.745483 22.268 1.76592 23.2885 3.00461 23.2885H13.5151C13.6144 23.2892 13.7129 23.2703 13.8049 23.2327C13.8969 23.1951 13.9805 23.1396 14.0509 23.0695C14.1213 22.9994 14.177 22.916 14.215 22.8241C14.2529 22.7323 14.2723 22.6338 14.2719 22.5345V20.2839H22.5345C22.9484 20.281 23.2857 19.9437 23.2829 19.527V7.51429C23.2836 7.41541 23.2648 7.31736 23.2276 7.22575C23.1904 7.13415 23.1354 7.0508 23.0659 6.98048C22.9963 6.91017 22.9136 6.85427 22.8224 6.816C22.7313 6.77773 22.6334 6.75784 22.5345 6.75747H20.2839V1.50224C20.2836 1.40336 20.2637 1.30553 20.2254 1.21435C20.1871 1.12317 20.1312 1.04045 20.0609 0.970921C19.9906 0.901396 19.9073 0.846439 19.8156 0.809202C19.724 0.771965 19.626 0.753181 19.5271 0.753928H16.4516ZM17.2793 2.25056H18.7816V3.75286H17.2793V2.25056ZM3.00461 8.25977H18.7788V9.76491H6.00921C4.77336 9.76491 3.75009 10.7853 3.75009 12.0212C3.75009 13.2571 4.77052 14.2718 6.00921 14.2718H12.0128C12.4408 14.2718 12.7667 14.5921 12.7667 15.0201C12.7695 15.12 12.7518 15.2194 12.7149 15.3123C12.6781 15.4051 12.6227 15.4895 12.5521 15.5603C12.4816 15.6311 12.3974 15.6868 12.3047 15.7241C12.212 15.7613 12.1127 15.7793 12.0128 15.777H4.50974C3.48364 15.7514 3.48364 17.3019 4.50974 17.2793H12.0156C13.2514 17.2793 14.2747 16.256 14.2747 15.0201C14.2747 13.7843 13.2514 12.7695 12.0156 12.7695H6.01205C5.91254 12.7726 5.81345 12.7554 5.72079 12.719C5.62813 12.6826 5.54384 12.6278 5.47305 12.5578C5.40226 12.4878 5.34644 12.4041 5.309 12.3119C5.27155 12.2196 5.25326 12.1207 5.25523 12.0212C5.25288 11.9213 5.27088 11.822 5.30812 11.7293C5.34536 11.6365 5.40107 11.5523 5.47186 11.4818C5.54265 11.4113 5.62704 11.3559 5.7199 11.319C5.81277 11.2821 5.91216 11.2645 6.01205 11.2672H19.5271C19.626 11.268 19.724 11.2492 19.8156 11.2119C19.9073 11.1747 19.9906 11.1197 20.0609 11.0502C20.1312 10.9807 20.1871 10.898 20.2254 10.8068C20.2637 10.7156 20.2836 10.6178 20.2839 10.5189V8.25977H21.7862V18.7816H3.00744C2.74883 18.7843 2.49269 18.8323 2.25062 18.9233V9.01376C2.24789 8.91363 2.26559 8.81399 2.30266 8.72093C2.33973 8.62788 2.39537 8.54335 2.4662 8.47252C2.53703 8.40169 2.62156 8.34604 2.71462 8.30898C2.80767 8.27191 2.90731 8.25421 3.00744 8.25694L3.00461 8.25977ZM16.514 12.761C16.4885 12.7597 16.463 12.7597 16.4375 12.761C16.2944 12.7748 16.1583 12.8294 16.0453 12.9182C15.9323 13.0071 15.8472 13.1265 15.8 13.2623C15.7529 13.3981 15.7457 13.5445 15.7793 13.6843C15.8129 13.824 15.8859 13.9512 15.9896 14.0507L16.9619 15.023L15.9896 15.9981C15.9127 16.0661 15.8505 16.1492 15.807 16.2421C15.7634 16.3351 15.7394 16.4361 15.7364 16.5387C15.7334 16.6414 15.7515 16.7435 15.7895 16.8389C15.8275 16.9343 15.8847 17.0209 15.9575 17.0933C16.0303 17.1657 16.1172 17.2224 16.2128 17.2599C16.3084 17.2974 16.4106 17.315 16.5133 17.3114C16.6159 17.3079 16.7167 17.2833 16.8094 17.2393C16.9022 17.1952 16.9849 17.1326 17.0526 17.0553L18.022 16.0859L18.9942 17.0553C19.0618 17.1326 19.1446 17.1952 19.2373 17.2393C19.3301 17.2833 19.4309 17.3079 19.5335 17.3114C19.6361 17.315 19.7384 17.2974 19.834 17.2599C19.9296 17.2224 20.0164 17.1657 20.0892 17.0933C20.1621 17.0209 20.2192 16.9343 20.2573 16.8389C20.2953 16.7435 20.3134 16.6414 20.3104 16.5387C20.3073 16.4361 20.2833 16.3351 20.2398 16.2421C20.1962 16.1492 20.1341 16.0661 20.0572 15.9981L19.0878 15.023L20.06 14.0507C20.1677 13.945 20.2411 13.8093 20.2705 13.6612C20.2999 13.5132 20.2841 13.3597 20.2251 13.2208C20.166 13.0819 20.0665 12.9641 19.9395 12.8825C19.8124 12.801 19.6638 12.7597 19.5129 12.7638C19.3181 12.7696 19.1331 12.8509 18.997 12.9906L18.0248 13.9629L17.0554 12.9906C16.9856 12.9182 16.9019 12.8606 16.8094 12.8212C16.7169 12.7817 16.6146 12.7613 16.514 12.761ZM3.00744 20.2839H12.7696V21.7862H3.00744C2.90766 21.7885 2.80845 21.7706 2.71577 21.7335C2.62308 21.6965 2.53886 21.6411 2.46815 21.5707C2.39744 21.5002 2.34172 21.4162 2.30434 21.3237C2.26695 21.2311 2.24868 21.132 2.25062 21.0322C2.24905 20.9328 2.26762 20.834 2.30521 20.742C2.3428 20.6499 2.39863 20.5664 2.46934 20.4965C2.54005 20.4266 2.62417 20.3717 2.71665 20.3352C2.80913 20.2986 2.90804 20.2812 3.00744 20.2839Z" fill="#6762FE"/>
</g>
<defs>
<clipPath id="clip0_1434_1406">
<rect width="24" height="24" fill="white"/>
</clipPath>
</defs>
</svg>
