<svg width="24" height="24" viewBox="0 0 24 24" fill="none" xmlns="http://www.w3.org/2000/svg">
<path fill-rule="evenodd" clip-rule="evenodd" d="M12 21.25C12.1989 21.25 12.3897 21.329 12.5303 21.4697C12.671 21.6103 12.75 21.8011 12.75 22C12.75 22.1989 12.671 22.3897 12.5303 22.5303C12.3897 22.671 12.1989 22.75 12 22.75H4C3.271 22.75 2.571 22.46 2.055 21.945C1.5398 21.4288 1.25031 20.7293 1.25 20V4C1.25 3.271 1.54 2.571 2.055 2.055C2.57122 1.5398 3.27067 1.25031 4 1.25H12.586C13.05 1.25 13.495 1.434 13.823 1.763L18.237 6.177C18.566 6.505 18.75 6.95 18.75 7.414V11C18.75 11.1989 18.671 11.3897 18.5303 11.5303C18.3897 11.671 18.1989 11.75 18 11.75C17.8011 11.75 17.6103 11.671 17.4697 11.5303C17.329 11.3897 17.25 11.1989 17.25 11V7.414C17.2501 7.38115 17.2436 7.34861 17.2311 7.31823C17.2186 7.28786 17.2002 7.26026 17.177 7.237L12.763 2.823C12.7397 2.7998 12.7121 2.78141 12.6818 2.76888C12.6514 2.75636 12.6189 2.74994 12.586 2.75H4C3.66864 2.75053 3.35101 2.88239 3.1167 3.1167C2.88239 3.35101 2.75053 3.66864 2.75 4V20C2.75053 20.3314 2.88239 20.649 3.1167 20.8833C3.35101 21.1176 3.66864 21.2495 4 21.25H12Z" fill="#6762FE"/>
<path fill-rule="evenodd" clip-rule="evenodd" d="M12.25 2.5C12.25 2.30109 12.329 2.11032 12.4697 1.96967C12.6103 1.82902 12.8011 1.75 13 1.75C13.1989 1.75 13.3897 1.82902 13.5303 1.96967C13.671 2.11032 13.75 2.30109 13.75 2.5V6C13.75 6.138 13.862 6.25 14 6.25H17.5C17.6989 6.25 17.8897 6.32902 18.0303 6.46967C18.171 6.61032 18.25 6.80109 18.25 7C18.25 7.19891 18.171 7.38968 18.0303 7.53033C17.8897 7.67098 17.6989 7.75 17.5 7.75H14C13.5359 7.75 13.0908 7.56563 12.7626 7.23744C12.4344 6.90925 12.25 6.46413 12.25 6V2.5ZM6 11.25C5.80109 11.25 5.61032 11.171 5.46967 11.0303C5.32902 10.8897 5.25 10.6989 5.25 10.5C5.25 10.3011 5.32902 10.1103 5.46967 9.96967C5.61032 9.82902 5.80109 9.75 6 9.75H14C14.1989 9.75 14.3897 9.82902 14.5303 9.96967C14.671 10.1103 14.75 10.3011 14.75 10.5C14.75 10.6989 14.671 10.8897 14.5303 11.0303C14.3897 11.171 14.1989 11.25 14 11.25H6ZM6 14.75C5.80109 14.75 5.61032 14.671 5.46967 14.5303C5.32902 14.3897 5.25 14.1989 5.25 14C5.25 13.8011 5.32902 13.6103 5.46967 13.4697C5.61032 13.329 5.80109 13.25 6 13.25H10.5C10.6989 13.25 10.8897 13.329 11.0303 13.4697C11.171 13.6103 11.25 13.8011 11.25 14C11.25 14.1989 11.171 14.3897 11.0303 14.5303C10.8897 14.671 10.6989 14.75 10.5 14.75H6ZM6 18.25C5.80109 18.25 5.61032 18.171 5.46967 18.0303C5.32902 17.8897 5.25 17.6989 5.25 17.5C5.25 17.3011 5.32902 17.1103 5.46967 16.9697C5.61032 16.829 5.80109 16.75 6 16.75H10.5C10.6989 16.75 10.8897 16.829 11.0303 16.9697C11.171 17.1103 11.25 17.3011 11.25 17.5C11.25 17.6989 11.171 17.8897 11.0303 18.0303C10.8897 18.171 10.6989 18.25 10.5 18.25H6Z" fill="#6762FE"/>
<path d="M17.8611 19.125C18.6895 19.125 19.3611 18.4534 19.3611 17.625C19.3611 16.7966 18.6895 16.125 17.8611 16.125C17.0327 16.125 16.3611 16.7966 16.3611 17.625C16.3611 18.4534 17.0327 19.125 17.8611 19.125Z" fill="#6762FE"/>
<path fill-rule="evenodd" clip-rule="evenodd" d="M19.3959 13.044L19.7499 13.899C19.8849 13.967 20.0159 14.043 20.1429 14.125L21.0609 14.005C21.1834 13.9893 21.3079 14.0039 21.4233 14.0477C21.5388 14.0915 21.6417 14.163 21.7229 14.256C22.1589 14.756 22.4939 15.337 22.7099 15.965C22.7498 16.082 22.7602 16.207 22.7402 16.3289C22.7201 16.4509 22.6702 16.566 22.5949 16.664L22.0329 17.398C22.0409 17.549 22.0409 17.701 22.0329 17.851L22.5949 18.586C22.6702 18.684 22.7201 18.7991 22.7402 18.9211C22.7602 19.043 22.7498 19.168 22.7099 19.285C22.4942 19.913 22.159 20.4933 21.7229 20.994C21.6417 21.087 21.5388 21.1585 21.4233 21.2023C21.3079 21.2461 21.1834 21.2607 21.0609 21.245C21.0609 21.245 20.1429 21.125 20.1439 21.124C20.0171 21.2067 19.886 21.2825 19.7509 21.351L19.3959 22.206C19.3487 22.3201 19.2739 22.4207 19.1783 22.4989C19.0826 22.5771 18.9692 22.6304 18.8479 22.654C18.1962 22.782 17.5257 22.782 16.8739 22.654C16.7527 22.6304 16.6392 22.5771 16.5436 22.4989C16.448 22.4207 16.3732 22.3201 16.3259 22.206L15.9719 21.351C15.8369 21.2829 15.7057 21.2075 15.5789 21.125L14.6609 21.245C14.5385 21.2608 14.414 21.2462 14.2985 21.2024C14.183 21.1586 14.0801 21.087 13.9989 20.994C13.5621 20.4938 13.2268 19.9133 13.0119 19.285C12.9721 19.1681 12.9616 19.0431 12.9815 18.9212C13.0014 18.7993 13.051 18.6842 13.1259 18.586L13.6889 17.852C13.6809 17.7011 13.6809 17.5499 13.6889 17.399L13.1259 16.664C13.051 16.5658 13.0014 16.4507 12.9815 16.3288C12.9616 16.2068 12.9721 16.0819 13.0119 15.965C13.2269 15.337 13.5619 14.756 13.9989 14.256C14.0801 14.163 14.183 14.0914 14.2985 14.0476C14.414 14.0038 14.5385 13.9892 14.6609 14.005C14.6609 14.005 15.5789 14.125 15.5779 14.126C15.7049 14.043 15.8359 13.967 15.9709 13.899L16.3259 13.044C16.3732 12.9299 16.448 12.8292 16.5436 12.7511C16.6392 12.6729 16.7527 12.6196 16.8739 12.596C17.5257 12.468 18.1962 12.468 18.8479 12.596C18.9692 12.6196 19.0826 12.6729 19.1783 12.7511C19.2739 12.8292 19.3487 12.9299 19.3959 13.044ZM18.1739 14.014C17.9657 13.9955 17.7562 13.9955 17.5479 14.014L17.2439 14.745C17.1676 14.9284 17.0216 15.0741 16.8379 15.15C16.6202 15.2399 16.4154 15.3582 16.2289 15.502C16.0712 15.6228 15.872 15.6764 15.6749 15.651L14.8899 15.548C14.7699 15.72 14.6649 15.901 14.5769 16.091L15.0579 16.719C15.1788 16.8771 15.232 17.0767 15.2059 17.274C15.1749 17.507 15.1749 17.743 15.2059 17.976C15.232 18.1733 15.1788 18.3729 15.0579 18.531L14.5769 19.16C14.6649 19.349 14.7699 19.531 14.8899 19.702L15.6749 19.599C15.872 19.5736 16.0712 19.6272 16.2289 19.748C16.4159 19.892 16.6199 20.01 16.8379 20.1C17.0216 20.1759 17.1676 20.3215 17.2439 20.505L17.5479 21.236C17.7559 21.255 17.9659 21.255 18.1739 21.236L18.4779 20.505C18.5543 20.3215 18.7003 20.1759 18.8839 20.1C19.1009 20.01 19.3059 19.892 19.4929 19.748C19.6507 19.6272 19.8498 19.5736 20.0469 19.599L20.8319 19.702C20.9519 19.53 21.0569 19.349 21.1449 19.159L20.6639 18.531C20.5431 18.3729 20.4899 18.1733 20.5159 17.976C20.5459 17.743 20.5459 17.507 20.5159 17.274C20.4899 17.0767 20.5431 16.8771 20.6639 16.719L21.1449 16.09C21.0563 15.9007 20.9516 15.7194 20.8319 15.548L20.0469 15.651C19.8498 15.6764 19.6507 15.6228 19.4929 15.502C19.3063 15.3584 19.1015 15.2401 18.8839 15.15C18.7003 15.0741 18.5543 14.9284 18.4779 14.745L18.1739 14.014Z" fill="#6762FE"/>
</svg>
