<svg width="22" height="22" viewBox="0 0 22 22" fill="none" xmlns="http://www.w3.org/2000/svg">
<path d="M14.75 8.345L12.0575 11L14.75 13.655C14.8249 13.7252 14.8846 13.8099 14.9255 13.9041C14.9663 13.9983 14.9874 14.0999 14.9874 14.2025C14.9874 14.3052 14.9663 14.4067 14.9255 14.5009C14.8846 14.5951 14.8249 14.6798 14.75 14.75C14.6799 14.8195 14.5968 14.8745 14.5054 14.9118C14.414 14.9492 14.3162 14.9681 14.2175 14.9675C14.0207 14.9667 13.8322 14.8886 13.6925 14.75L11 12.0575L8.34497 14.75C8.20528 14.8886 8.01673 14.9667 7.81997 14.9675C7.72127 14.9681 7.62342 14.9492 7.53205 14.9118C7.44067 14.8745 7.35756 14.8195 7.28748 14.75C7.14779 14.6095 7.06938 14.4194 7.06938 14.2213C7.06938 14.0231 7.14779 13.833 7.28748 13.6925L9.94248 11L7.28748 8.345C7.16461 8.20153 7.1004 8.01697 7.10769 7.82821C7.11498 7.63946 7.19323 7.4604 7.3268 7.32683C7.46037 7.19326 7.63943 7.11501 7.82819 7.10772C8.01694 7.10043 8.2015 7.16463 8.34497 7.2875L11 9.9425L13.655 7.2875C13.7244 7.21561 13.8073 7.15809 13.899 7.11823C13.9907 7.07838 14.0893 7.05697 14.1892 7.05523C14.2892 7.05349 14.3885 7.07145 14.4815 7.10809C14.5745 7.14472 14.6593 7.19932 14.7312 7.26875C14.8031 7.33819 14.8606 7.42111 14.9005 7.51277C14.9403 7.60444 14.9618 7.70306 14.9635 7.803C14.9652 7.90294 14.9473 8.00224 14.9106 8.09524C14.874 8.18823 14.8194 8.27311 14.75 8.345ZM18.425 18.425C16.9565 19.8933 15.0856 20.8933 13.0488 21.2983C11.012 21.7034 8.90087 21.4954 6.98231 20.7006C5.06375 19.9059 3.42393 18.5601 2.27023 16.8334C1.11652 15.1067 0.500732 13.0767 0.500732 11C0.500732 8.92335 1.11652 6.89332 2.27023 5.16663C3.42393 3.43994 5.06375 2.09412 6.98231 1.29937C8.90087 0.504621 11.012 0.296623 13.0488 0.701681C15.0856 1.10674 16.9565 2.10666 18.425 3.575C19.4001 4.55003 20.1736 5.70759 20.7014 6.98158C21.2291 8.25557 21.5007 9.62103 21.5007 11C21.5007 12.379 21.2291 13.7444 20.7014 15.0184C20.1736 16.2924 19.4001 17.45 18.425 18.425ZM17.3675 4.6325C16.1076 3.37696 14.5039 2.52289 12.7589 2.17816C11.0139 1.83342 9.20592 2.01348 7.5632 2.69558C5.92049 3.37769 4.51673 4.53126 3.52918 6.01062C2.54162 7.48998 2.01457 9.2288 2.01457 11.0075C2.01457 12.7862 2.54162 14.525 3.52918 16.0044C4.51673 17.4838 5.92049 18.6373 7.5632 19.3194C9.20592 20.0015 11.0139 20.1816 12.7589 19.8368C14.5039 19.4921 16.1076 18.6381 17.3675 17.3825C18.2065 16.5464 18.8722 15.5528 19.3265 14.4589C19.7807 13.3649 20.0146 12.192 20.0146 11.0075C20.0146 9.82298 19.7807 8.6501 19.3265 7.55614C18.8722 6.46217 18.2065 5.46864 17.3675 4.6325Z" fill="#FF342D"/>
</svg>
