<svg width="54" height="54" viewBox="0 0 54 54" fill="none" xmlns="http://www.w3.org/2000/svg">
<path d="M44.9736 11.631C41.0783 7.60163 36.0369 5.03948 30.5656 4.26007L32.125 2.70061C32.7429 2.08277 32.7429 1.08113 32.125 0.463298C31.5073 -0.154433 30.5056 -0.154433 29.8877 0.463298L25.8813 4.46963C25.2635 5.08736 25.2635 6.08911 25.8813 6.70694L29.8876 10.7133C30.1966 11.0222 30.6014 11.1767 31.0062 11.1767C31.411 11.1767 31.816 11.0222 32.1248 10.7133C32.7427 10.0955 32.7427 9.09381 32.1248 8.47597L31.2289 7.58001C35.5756 8.43062 39.5622 10.5858 42.6985 13.83C46.6541 17.9218 48.8326 23.3104 48.8326 29.003C48.8328 41.0417 39.0385 50.8358 27 50.8358C14.9615 50.8358 5.16724 41.0417 5.16724 29.0031C5.16724 24.4094 6.57704 20.0152 9.24434 16.2955C11.8563 12.653 15.457 9.93492 19.6575 8.43536C20.4804 8.14153 20.9092 7.2364 20.6155 6.41342C20.3217 5.59056 19.4164 5.16172 18.5935 5.45545C13.7838 7.17259 9.66179 10.2835 6.67291 14.4517C3.6179 18.7122 2.00317 23.744 2.00317 29.0032C2.00317 35.6802 4.60329 41.9573 9.3246 46.6786C14.0459 51.3996 20.3231 53.9999 27 53.9999C33.6769 53.9999 39.9541 51.3997 44.6754 46.6785C49.3967 41.9572 51.9968 35.68 51.9968 29.0031C51.9968 22.4854 49.5025 16.3158 44.9736 11.631Z" fill="#8035E8"/>
<path d="M10.7454 29.0026C10.7454 37.9652 18.037 45.2569 26.9998 45.2569C35.9624 45.2569 43.2541 37.9652 43.2541 29.0026C43.2541 20.0399 35.9624 12.748 26.9998 12.748C18.0369 12.748 10.7454 20.0398 10.7454 29.0026ZM27.9709 30.4107C25.6937 29.6056 24.3742 28.9711 23.417 28.2203C22.2389 27.2963 21.6997 25.7005 22.0095 24.0557C22.3458 22.2713 23.5901 20.8509 25.257 20.3488C25.2801 20.3418 25.3028 20.3362 25.3258 20.3295V19.6924C25.3258 18.8187 26.0341 18.1104 26.9078 18.1104C27.7815 18.1104 28.4898 18.8187 28.4898 19.6924V20.2287C29.5944 20.4874 30.3654 20.9923 30.6771 21.2253C31.3768 21.7485 31.5201 22.7398 30.9969 23.4397C30.4737 24.1396 29.4826 24.2826 28.7825 23.7596C28.4476 23.5092 27.523 22.9705 26.1696 23.3782C25.3701 23.6191 25.1633 24.406 25.1189 24.6415C25.0312 25.1067 25.1319 25.5445 25.3696 25.7307C26.1972 26.3797 27.682 26.9527 29.0253 27.4275C31.4827 28.2961 32.8492 30.5727 32.4256 33.0922C32.2176 34.3293 31.5954 35.4771 30.6732 36.3244C30.039 36.907 29.2999 37.3213 28.4898 37.555V38.3125C28.4898 39.1862 27.7815 39.8945 26.9078 39.8945C26.0341 39.8945 25.3258 39.1862 25.3258 38.3125V37.7106C24.2733 37.5869 23.3951 37.2628 22.2139 36.4901C21.4827 36.0118 21.2778 35.0313 21.7561 34.3001C22.2344 33.5687 23.215 33.3639 23.9461 33.8422C25.0412 34.5587 25.4553 34.6245 26.8973 34.6145C28.317 34.605 29.1407 33.5468 29.3053 32.5676C29.3859 32.0894 29.4168 30.9218 27.9709 30.4107Z" fill="#8035E8"/>
</svg>
