<svg width="54" height="54" viewBox="0 0 54 54" fill="none" xmlns="http://www.w3.org/2000/svg">
<path d="M50.4518 7.55753C50.4044 7.21682 50.2584 6.89739 50.0319 6.63851C49.8054 6.37963 49.5081 6.19258 49.1767 6.10035L27.4732 0.0645906C27.1638 -0.0215302 26.8367 -0.0215302 26.5273 0.0645906L4.8238 6.10035C4.49237 6.19253 4.19511 6.37956 3.96858 6.63845C3.74204 6.89734 3.59612 7.2168 3.54874 7.55753C3.42286 8.46271 0.551098 29.85 7.91698 40.4895C15.2742 51.1163 26.1276 53.8396 26.5859 53.9505C26.8582 54.0164 27.1423 54.0164 27.4146 53.9505C27.8732 53.8396 38.7266 51.1163 46.0836 40.4895C53.4495 29.8502 50.5777 8.46294 50.4518 7.55753ZM40.9963 20.0436L26.1923 34.8476C25.8478 35.1921 25.396 35.3646 24.9445 35.3646C24.493 35.3646 24.0412 35.1923 23.6967 34.8476L14.5436 25.6945C14.3796 25.5307 14.2496 25.3361 14.1609 25.122C14.0721 24.9079 14.0265 24.6785 14.0265 24.4467C14.0265 24.215 14.0721 23.9855 14.1609 23.7714C14.2496 23.5573 14.3796 23.3628 14.5436 23.1989L16.361 21.3815C16.6919 21.0506 17.1408 20.8647 17.6087 20.8647C18.0767 20.8647 18.5256 21.0506 18.8565 21.3815L24.9445 27.4695L36.6833 15.7305C36.8471 15.5665 37.0417 15.4365 37.2558 15.3478C37.4699 15.259 37.6993 15.2134 37.9311 15.2134C38.1628 15.2134 38.3923 15.259 38.6064 15.3478C38.8205 15.4365 39.015 15.5665 39.1789 15.7305L40.9963 17.5479C41.1602 17.7118 41.2902 17.9063 41.3788 18.1204C41.4675 18.3345 41.5132 18.564 41.5132 18.7958C41.5132 19.0275 41.4675 19.257 41.3788 19.4711C41.2902 19.6852 41.1602 19.8798 40.9963 20.0436Z" fill="#75BB0B"/>
</svg>
