<svg width="54" height="54" viewBox="0 0 54 54" fill="none" xmlns="http://www.w3.org/2000/svg">
<path fill-rule="evenodd" clip-rule="evenodd" d="M32.4485 49.0664C32.4485 47.2 30.9355 45.687 29.0691 45.687H24.9309C24.0346 45.687 23.1751 46.043 22.5413 46.6768C21.9075 47.3106 21.5515 48.1701 21.5515 49.0664C21.5515 50.9328 23.0645 52.4458 24.9309 52.4458H29.0691C30.9355 52.4458 32.4485 50.9328 32.4485 49.0664ZM7.10448 40.3523C7.66895 40.3954 8.35186 40.4202 9.03783 40.38C9.46779 42.5601 10.6412 44.5234 12.3578 45.9345C14.0743 47.3456 16.2275 48.1171 18.4496 48.1172H19.7391C19.6246 48.7448 19.6243 49.3879 19.7383 50.0156H18.4496C15.7188 50.0156 13.0772 49.0431 10.9983 47.2723C8.91932 45.5016 7.53893 43.0483 7.10448 40.3523ZM6.13881 38.3322C4.4225 38.0428 2.86419 37.1548 1.7404 35.8257C0.616613 34.4965 8.5644e-06 32.8123 0 31.0718L0 26.5848C-2.00338e-10 24.632 0.775726 22.7592 2.15653 21.3784C3.53734 19.9976 5.41011 19.2218 7.36288 19.2218H7.85299C8.63641 9.33348 16.9096 1.55273 27 1.55273C37.0904 1.55273 45.3636 9.33348 46.147 19.2218H46.6371C48.5899 19.2218 50.4627 19.9976 51.8435 21.3784C53.2243 22.7592 54 24.632 54 26.5848V31.0718C54 33.0245 53.2243 34.8973 51.8435 36.2781C50.4627 37.659 48.5899 38.4347 46.6371 38.4347H44.4644C43.5632 38.4347 42.8328 37.7042 42.8328 36.8031V20.7605C42.8328 12.0163 35.7442 4.92773 27 4.92773C18.2558 4.92773 11.1672 12.0163 11.1672 20.7605V36.8031C11.1672 37.4393 10.8031 37.9906 10.2717 38.2597C8.80907 38.7672 6.54075 38.4 6.13881 38.3322Z" fill="#F99811"/>
</svg>
