<svg xmlns="http://www.w3.org/2000/svg" width="816" height="603" fill="none"><rect width="808" height="594.9" x="4" y="4" fill="#F5F5F5" rx="24"/><rect width="808" height="594.9" x="4" y="4" stroke="#E9ECF2" stroke-width="8" rx="24"/><rect width="33.36" height="467.893" x="30.662" y="82.32" fill="#fff" stroke="#EEE" stroke-width=".64" rx="6.081"/><rect width="25.603" height="25.603" x="34.545" y="89.172" fill="url(#a)" fill-opacity=".16" rx="5.121"/><path fill="url(#b)" d="M48.634 98.394c-1.904-.39-3.392-1.846-3.792-3.708a.5.5 0 0 0-.176-.282.51.51 0 0 0-.636 0 .5.5 0 0 0-.176.282c-.4 1.862-1.888 3.317-3.792 3.708a.5.5 0 0 0-.288.172.486.486 0 0 0 0 .622.5.5 0 0 0 .288.172c1.904.39 3.393 1.846 3.792 3.708a.509.509 0 0 0 .988 0c.4-1.862 1.888-3.317 3.792-3.708a.5.5 0 0 0 .289-.172.49.49 0 0 0 0-.622.5.5 0 0 0-.289-.172m-.834 8.155a2.28 2.28 0 0 1-1.787-1.747.5.5 0 0 0-.176-.282.514.514 0 0 0-.636 0 .5.5 0 0 0-.176.282 2.28 2.28 0 0 1-1.787 1.747.5.5 0 0 0-.288.172.49.49 0 0 0 0 .623.5.5 0 0 0 .288.172 2.28 2.28 0 0 1 1.787 1.747c.023.111.086.21.176.282a.514.514 0 0 0 .636 0 .5.5 0 0 0 .176-.282 2.28 2.28 0 0 1 1.787-1.747.5.5 0 0 0 .288-.172.49.49 0 0 0 0-.623.5.5 0 0 0-.288-.172m6.821-4.571a3.09 3.09 0 0 1-2.415-2.361.5.5 0 0 0-.176-.282.51.51 0 0 0-.636 0 .5.5 0 0 0-.176.282 3.09 3.09 0 0 1-2.415 2.361.5.5 0 0 0-.288.172.49.49 0 0 0 0 .623.5.5 0 0 0 .288.172 3.09 3.09 0 0 1 2.415 2.361.5.5 0 0 0 .176.282.514.514 0 0 0 .636 0 .5.5 0 0 0 .176-.282 3.09 3.09 0 0 1 2.415-2.361.5.5 0 0 0 .288-.172.49.49 0 0 0 0-.623.5.5 0 0 0-.288-.172"/><rect width="25.603" height="25.603" x="34.545" y="122.456" fill="#fff" rx="5.121"/><g stroke="#18181B" stroke-linecap="round" stroke-width=".96" clip-path="url(#c)"><path d="M44.147 128.889v12.802M50.542 128.889v12.802M53.74 132.094H40.938M53.74 138.495H40.938"/></g><path stroke="#000" stroke-width=".96" d="M48.638 169.869h5.256v5.256h-5.256zM54.238 165.359a2.883 2.883 0 0 1-2.88 2.879 2.883 2.883 0 0 1-2.878-2.879 2.883 2.883 0 0 1 2.879-2.879 2.883 2.883 0 0 1 2.879 2.879ZM41.12 167.406l2.788-4.908 2.787 4.908zM42.323 175.127l-1.473-2.551 1.473-2.552h2.946l1.473 2.552-1.473 2.551z"/><rect width="25.603" height="25.603" x="34.545" y="189.021" fill="#fff" rx="5.121"/><g stroke="#18181B" stroke-width=".96" clip-path="url(#d)"><path stroke-linejoin="round" d="m50.283 207.425-1.565.414c-1.449.384-2.173.575-2.74.261s-.757-1.011-1.135-2.405l-.936-3.451c-.378-1.394-.567-2.091-.234-2.644s1.056-.744 2.505-1.127l2.56-.678c1.449-.383 2.173-.575 2.74-.261s.757 1.011 1.135 2.405l.94 3.465c.16.593.24.889.152 1.168m-3.422 2.853c.481-.128.485-.13.86-.451l1.755-1.507c.48-.411.72-.616.807-.895m-3.422 2.853s.376-2.94 1.219-3.328c.955-.44 2.203.475 2.203.475"/><path d="M50.54 197.378c-.042-.687-.156-1.12-.481-1.43-.5-.475-1.3-.477-2.902-.482l-2.83-.008c-1.602-.005-2.403-.007-2.899.465s-.493 1.234-.489 2.758l.012 3.772c.005 1.525.007 2.287.506 2.762s1.3.477 2.9.482l.437.001"/></g><path stroke="#18181B" stroke-linecap="round" stroke-linejoin="round" stroke-width=".96" d="M52.46 238.943v-7.68m-8.96 8.96h7.68m0-10.24H43.5m-1.28 1.28v7.68"/><path fill="#18181B" d="m49.199 232.755.108-.468zm-3.718 0 .108.467zm-.52.198.327.352zm-.661.728a.48.48 0 0 0 .96 0zm.555-.594-.417-.238zm4.863-.134.326-.352zm-.299.728a.48.48 0 0 0 .96 0zm.405-.594-.416.239zm-2.964 4.576a.48.48 0 1 0 .96 0zm1.333.48a.48.48 0 0 0 0-.96zm-1.707-.96a.48.48 0 0 0 0 .96zm.854-4.16c.605 0 1.192.069 1.75.199l.217-.935a8.7 8.7 0 0 0-1.967-.224zm-1.75.199a7.7 7.7 0 0 1 1.75-.199v-.96c-.68 0-1.339.078-1.968.224zm-.218-.935c-.229.054-.513.106-.737.314l.653.704q-.002.001 0 0 0-.002.031-.013c.052-.018.125-.036.27-.07zm-.112 1.394c0-.164 0-.251.007-.315.005-.053.011-.052.005-.04l-.834-.477a1 1 0 0 0-.126.421c-.013.123-.012.266-.012.411zm-.625-1.08c-.075.07-.146.159-.197.248l.834.477.001-.003.006-.008.007-.008.002-.002zm4.455.621c.145.034.218.052.27.07q.03.011.032.013 0 .001 0 0l.652-.704c-.224-.208-.508-.26-.736-.314zm1.29.459c0-.145 0-.288-.012-.411a1 1 0 0 0-.127-.421l-.833.477c-.007-.012 0-.013.005.04.006.064.007.151.007.315zm-.989-.376.002.002.007.008.006.008.002.003.833-.477a1.1 1.1 0 0 0-.197-.248zm-2.531-.762v5.12h.96v-5.12zm1.333 4.64h-1.707v.96h1.707z"/><rect width="2.56" height="2.56" x="51.179" y="228.703" stroke="#18181B" stroke-width=".96" rx=".64"/><rect width="2.56" height="2.56" x="40.94" y="228.703" stroke="#18181B" stroke-width=".96" rx=".64"/><rect width="2.56" height="2.56" x="51.179" y="238.942" stroke="#18181B" stroke-width=".96" rx=".64"/><rect width="2.56" height="2.56" x="40.94" y="238.942" stroke="#18181B" stroke-width=".96" rx=".64"/><path stroke="#18181B" stroke-width=".96" d="M45.42 268.389c0-.905 0-1.358-.328-1.639s-.856-.281-1.912-.281-1.584 0-1.912.281-.328.734-.328 1.639 0 1.357.328 1.638c.328.282.856.282 1.912.282s1.584 0 1.912-.282.328-.733.328-1.638ZM53.74 263.909c0-.905 0-1.358-.263-1.639s-.685-.281-1.53-.281h-.896c-.844 0-1.267 0-1.529.281s-.262.734-.262 1.639 0 1.357.262 1.638c.262.282.685.282 1.53.282h.895c.845 0 1.267 0 1.53-.282.262-.281.262-.733.262-1.638ZM53.74 272.868c0-.905 0-1.357-.263-1.639-.263-.281-.685-.281-1.53-.281h-.896c-.844 0-1.267 0-1.529.281s-.262.734-.262 1.639 0 1.358.262 1.639.685.281 1.53.281h.895c.845 0 1.267 0 1.53-.281.262-.281.262-.734.262-1.639Z"/><path stroke="#18181B" stroke-linecap="round" stroke-linejoin="round" stroke-width=".96" d="M47.34 268.388v2.59c0 1.199.586 1.738 1.92 1.89m-1.92-4.48v-2.59c0-1.131.498-1.724 1.92-1.889m-1.92 4.479h-1.92"/><path stroke="#18181B" stroke-width=".96" d="M41.262 301.708c0-2.867 0-4.3.89-5.191.891-.89 2.324-.89 5.19-.89s4.3 0 5.19.89c.891.891.891 2.324.891 5.191s0 4.299-.89 5.19c-.89.89-2.324.89-5.19.89s-4.3 0-5.19-.89c-.891-.891-.891-2.324-.891-5.19Z"/><path stroke="#18181B" stroke-width=".96" d="M50.22 299.791a.96.96 0 1 0 0-1.92.96.96 0 0 0 0 1.92Z"/><path stroke="#18181B" stroke-linejoin="round" stroke-width=".96" d="M49.904 308.106c-.396-1.423-1.321-2.699-2.638-3.625-1.42-1-3.203-1.528-5.031-1.492a9 9 0 0 0-.65.02"/><path stroke="#18181B" stroke-linejoin="round" stroke-width=".96" d="M47.975 305.547c1.09-.849 2.262-1.285 3.447-1.28a5 5 0 0 1 1.993.424M50.502 329.345c.376-.375.564-.563.772-.653.3-.13.64-.13.94 0 .208.09.396.278.772.653.376.376.564.564.653.772.13.3.13.64 0 .94-.09.208-.277.396-.653.772l-3.214 3.214c-.792.792-1.187 1.187-1.683 1.422s-1.053.289-2.168.399l-.504.05.05-.504c.11-1.115.165-1.672.4-2.167.234-.496.63-.892 1.421-1.684z"/><path stroke="#18181B" stroke-linecap="round" stroke-linejoin="round" stroke-width=".96" d="M43.498 336.917h-1.44a1.12 1.12 0 0 0 0 2.24h6.08a1.12 1.12 0 0 1 0 2.24h-1.44M42.153 373.469c-.891-.89-.891-2.324-.891-5.19s0-4.3.89-5.19c.891-.891 2.324-.891 5.19-.891s4.3 0 5.19.891c.891.89.891 2.323.891 5.19 0 2.866 0 4.3-.89 5.19s-2.324.891-5.19.891-4.3 0-5.19-.891"/><path stroke="#18181B" stroke-width=".96" d="M41.262 366.358h12.161M41.262 370.197h12.161M49.903 374.36v-12.162M44.78 374.36v-12.162"/><path stroke="#18181B" stroke-linecap="round" stroke-width=".96" d="M46.057 402.345q.136.223.322.418a2.28 2.28 0 0 0 3.317 0l2.073-2.157a2.513 2.513 0 0 0 0-3.453 2.28 2.28 0 0 0-3.317 0l-.456.476"/><path stroke="#18181B" stroke-linecap="round" stroke-width=".96" d="m46.678 405.487-.457.475a2.28 2.28 0 0 1-3.317 0 2.51 2.51 0 0 1 0-3.452l2.073-2.157a2.28 2.28 0 0 1 3.317 0q.186.195.322.418"/><path stroke="#18181B" stroke-linecap="round" stroke-linejoin="round" stroke-width=".96" d="M53.102 404.117h-1.33m-1.87 3.2v-1.33M41.585 398.994h1.33m1.87-3.2v1.331"/><g stroke="#18181B" stroke-linecap="round" stroke-linejoin="round" stroke-width=".96" clip-path="url(#e)"><path d="M47.978 428.765v.32c0 1.811 0 2.716.562 3.278.562.563 1.468.563 3.278.563h.32m.32 1.06v2.14c0 2.414 0 3.621-.75 4.371s-1.957.75-4.37.75c-2.415 0-3.621 0-4.371-.75s-.75-1.957-.75-4.371v-2.908c0-2.077 0-3.116.567-3.819q.172-.214.386-.387c.703-.567 1.742-.567 3.82-.567.45 0 .676 0 .883.073q.064.023.127.053c.197.094.357.254.676.573l3.032 3.032c.37.37.555.555.653.79s.097.497.097 1.02"/><path d="M46.7 438.686c-.389-.377-1.92-1.382-1.92-1.92s1.531-1.542 1.92-1.92m-1.28 1.92h4.48"/></g><path stroke="#18181B" stroke-linecap="round" stroke-linejoin="round" stroke-width=".96" d="M53.742 470.119v-5.689c0-.671 0-1.006-.208-1.214-.209-.209-1.255-.209-1.926-.209-.67 0-1.717 0-1.925.209-.208.208-.208.543-.208 1.214v5.689c0 .671 0 1.006.208 1.214.208.209 1.255.209 1.925.209s1.717 0 1.926-.209c.208-.208.208-.543.208-1.214M49.474 472.962v-8.535c0-.67 0-1.006-.208-1.214-.209-.208-1.255-.208-1.925-.208s-1.717 0-1.926.208-.208.544-.208 1.214v8.535c0 .67 0 1.005.208 1.214.209.208 1.255.208 1.925.208s1.717 0 1.926-.208c.208-.209.208-.544.208-1.214M45.205 470.83v-6.4c0-.671 0-1.006-.209-1.214-.208-.209-1.254-.209-1.925-.209-.67 0-1.717 0-1.925.209-.208.208-.208.543-.208 1.214v6.4c0 .671 0 1.006.208 1.215.208.208 1.255.208 1.925.208s1.717 0 1.925-.208c.209-.209.209-.544.209-1.215M43.501 464.927h-1.28M47.985 464.927h-1.28M52.46 464.927h-1.282"/><path stroke="#282828" stroke-width=".96" d="M53.746 501.411a6.401 6.401 0 1 1-12.802 0 6.401 6.401 0 0 1 12.801 0Z"/><path stroke="#282828" stroke-linecap="round" stroke-linejoin="round" stroke-width=".96" d="M48.617 499.491h-1.978a.32.32 0 0 0-.314.257l-.268 1.343c.444-.106.867-.229 1.325-.229a1.234 1.234 0 0 1 0 2.468c-.53 0-1.157.012-1.305-.639"/><rect width="21.762" height="21.762" x="36.46" y="521.854" fill="#6762FE" rx="5.121"/><path fill="#fff" stroke="#fff" stroke-width=".96" d="M42.174 532.765c0-2.437 0-3.655.757-4.412s1.975-.757 4.412-.757 3.654 0 4.411.757.757 1.975.757 4.412 0 3.655-.757 4.411c-.757.757-1.975.757-4.411.757-2.437 0-3.655 0-4.412-.757-.757-.756-.757-1.975-.757-4.411Z"/><path stroke="#6762FE" stroke-linecap="round" stroke-linejoin="round" stroke-width=".96" d="M47.346 530.59v4.352m2.176-2.176H45.17"/><g filter="url(#f)"><rect width="253.623" height="34" x="30" y="30" fill="#fff" rx="7.083"/><rect width="252.915" height="33.292" x="30.354" y="30.354" stroke="#EEE" stroke-width=".708" rx="6.729"/><path fill="#6762FE" fill-rule="evenodd" d="M45.414 56.904c5.526-.33 9.5-4.918 9.347-10.222a9.907 9.907 0 0 0-10.34-9.583c-5.578.253-9.78 4.97-9.45 10.553.306 5.379 5.043 9.583 10.443 9.252m3.744-8.589c-.509 2.498-1.962 4.257-4.33 5.352.06 0 .092.008.12.016q.027.01.058.01c3.897 0 7.004-3.568 6.495-7.494-.408-3.187-3.03-5.685-6.137-5.863-3.592-.203-6.622 2.242-7.132 5.863-.178 1.275.025 2.472.917 3.44 1.12 1.223 2.52 1.656 4.125 1.147 1.63-.509 2.546-1.708 2.751-3.39.026-.356.153-.383.434-.383h1.629q1.323 0 1.07 1.3z" clip-rule="evenodd"/><path stroke="#282828" stroke-linecap="round" stroke-linejoin="round" stroke-width="1.063" d="m62.587 44.882 3.748 3.748c.236.236.354.354.5.354.148 0 .266-.118.502-.354l3.748-3.748"/><path stroke="#EEE" stroke-width=".708" d="M81.353 34.25v25.5"/><rect width="126.083" height="31.333" x="86.665" y="31.334" fill="#fff" rx="5.667"/><path fill="#18181B" d="m92.7 51 3.07-8.33h1.06L99.888 51h-1.07l-2.523-7.08L93.748 51zm1.405-2.142.285-.81h3.773l.285.81zm9.437 4.903q-.845 0-1.487-.214-.631-.202-.988-.631-.345-.429-.345-1.06 0-.297.107-.618.118-.32.393-.619.285-.298.797-.535l.761.404q-.678.262-.88.607t-.202.667q0 .392.226.654.237.262.654.393.417.13.964.13.535 0 .916-.142.393-.13.595-.393a.88.88 0 0 0 .215-.595q0-.5-.322-.785-.32-.274-1.249-.322a12 12 0 0 1-1.214-.13 5.6 5.6 0 0 1-.809-.19 2.7 2.7 0 0 1-.524-.263 4 4 0 0 1-.369-.297v-.274l1.178-1.13.94.31-1.285 1.058.155-.452q.131.095.25.178.118.084.321.155.214.06.583.12.38.059 1 .106.856.06 1.368.286.511.225.738.63.226.393.226.965 0 .5-.285.951-.274.453-.881.738-.595.298-1.547.298m-.012-4.713q-.762 0-1.297-.285a2.02 2.02 0 0 1-.797-.797 2.4 2.4 0 0 1-.274-1.143q0-.63.274-1.13.285-.501.809-.798.535-.297 1.285-.297.774 0 1.297.297.523.298.798.798.273.5.273 1.13t-.273 1.142a2.03 2.03 0 0 1-.798.798q-.523.285-1.297.285m0-.82q.667 0 1.035-.346.369-.356.369-1.059 0-.702-.369-1.047-.368-.345-1.035-.345-.63 0-1.035.345-.393.345-.393 1.047t.381 1.06q.393.344 1.047.344m1.047-2.642-.297-.845h2.451v.75zM108.031 51v-6.26h.999V51zm.499-7.45a.7.7 0 0 1-.499-.19.7.7 0 0 1-.191-.5q0-.297.191-.476a.7.7 0 0 1 .499-.19q.287 0 .488.19a.6.6 0 0 1 .203.476.68.68 0 0 1-.203.5.68.68 0 0 1-.488.19m2.276 7.45v-8.568h.999V51zm5.279.143q-.834 0-1.476-.405a2.8 2.8 0 0 1-1.012-1.142q-.357-.738-.357-1.726 0-.987.357-1.725a2.8 2.8 0 0 1 1.012-1.143q.654-.404 1.499-.404.904 0 1.512.404.606.405.916 1.083.309.679.309 1.488v.238q0 .12-.012.285h-4.843v-.773h3.88q-.024-.917-.536-1.392-.5-.489-1.249-.488-.5 0-.929.25a1.8 1.8 0 0 0-.678.714q-.262.476-.262 1.19v.333q0 .785.262 1.32.262.525.678.786.429.262.929.262.666 0 1.047-.25.38-.262.559-.738h.988q-.143.525-.5.94-.345.417-.881.655-.523.238-1.213.238m9.293 0q-.714 0-1.19-.262a1.8 1.8 0 0 1-.714-.714 2.04 2.04 0 0 1-.238-.964q0-.619.309-1.047.322-.441.893-.666.571-.227 1.333-.227h1.559q0-.606-.143-1.011a1.14 1.14 0 0 0-.464-.607q-.321-.202-.857-.202t-.916.273q-.381.262-.476.786h-1.024q.072-.62.417-1.035.345-.429.868-.643.535-.226 1.131-.226.845 0 1.392.31.548.297.809.844.262.535.262 1.273V51h-.892l-.06-1.071a2.2 2.2 0 0 1-.309.476q-.178.215-.429.38a2.1 2.1 0 0 1-.571.263 2.3 2.3 0 0 1-.69.095m.143-.845q.393 0 .726-.179.333-.178.571-.476.25-.309.381-.69.13-.381.131-.797v-.12h-1.476q-.56 0-.916.144-.345.143-.5.404a1.06 1.06 0 0 0-.155.572q0 .345.143.606a1 1 0 0 0 .417.393q.285.143.678.143m4.46.702v-6.26h.904l.048.988q.273-.535.785-.833.524-.297 1.202-.297.69 0 1.202.262.512.261.797.797t.286 1.357V51h-1v-3.88q0-.832-.416-1.249-.405-.416-1.095-.416a1.7 1.7 0 0 0-.857.226 1.6 1.6 0 0 0-.631.642q-.226.429-.226 1.047V51zm9.462.143a2.6 2.6 0 0 1-1.476-.429 2.9 2.9 0 0 1-.999-1.166q-.357-.75-.357-1.69 0-.952.357-1.677a2.8 2.8 0 0 1 .999-1.155q.643-.428 1.488-.428.737 0 1.261.297.536.298.845.833v-3.296h1V51h-.905l-.083-1a2.4 2.4 0 0 1-.476.56 2.3 2.3 0 0 1-.702.428q-.405.155-.952.155m.131-.869q.594 0 1.035-.285.44-.298.678-.833.238-.548.238-1.286t-.238-1.273a1.83 1.83 0 0 0-.678-.833 1.8 1.8 0 0 0-1.035-.297q-.56 0-1 .297-.441.285-.69.833-.25.535-.25 1.273t.25 1.286q.249.535.69.833.44.285 1 .285m10.61.869q-.916 0-1.594-.333a2.5 2.5 0 0 1-1.048-.929q-.368-.594-.368-1.38h1.047q0 .488.226.904.226.405.654.655.441.238 1.083.238.56 0 .952-.179.405-.19.607-.511.214-.321.214-.726 0-.453-.202-.75a1.4 1.4 0 0 0-.535-.5 4.4 4.4 0 0 0-.798-.357q-.451-.155-.976-.321-1.047-.333-1.523-.833-.464-.512-.464-1.309 0-.678.31-1.19.32-.512.904-.797.596-.298 1.404-.298.798 0 1.381.298.594.298.928.82.333.513.333 1.19h-1.047a1.42 1.42 0 0 0-.726-1.225q-.357-.225-.905-.226a1.8 1.8 0 0 0-.809.155q-.345.155-.547.452-.19.297-.191.726 0 .405.167.654.179.25.5.429.333.166.773.31.44.141.976.32a4.8 4.8 0 0 1 1.071.5q.476.286.738.738.274.452.274 1.154 0 .596-.322 1.13-.309.525-.928.858-.618.333-1.559.333m6.937 0a2.9 2.9 0 0 1-1.523-.405 2.9 2.9 0 0 1-1.047-1.154q-.381-.738-.381-1.714 0-.988.381-1.713a2.813 2.813 0 0 1 2.57-1.559q1.071 0 1.785.571.727.571.928 1.535h-1.023a1.43 1.43 0 0 0-.607-.916 1.83 1.83 0 0 0-1.095-.333q-.548 0-.987.273-.429.275-.679.81t-.25 1.332q0 .595.143 1.06.142.451.393.761.262.298.607.452.357.155.773.155.429 0 .774-.143a1.6 1.6 0 0 0 .595-.44q.249-.285.333-.679h1.023a2.52 2.52 0 0 1-.928 1.524q-.726.583-1.785.583m4.167-.143v-6.26h.904l.072 1.143q.214-.429.559-.714t.833-.428a4 4 0 0 1 1.119-.143v1.047h-.619q-.357 0-.69.095a1.8 1.8 0 0 0-.607.31 1.47 1.47 0 0 0-.417.583q-.154.369-.154.928V51zm6.886.143q-.69 0-1.202-.262a1.84 1.84 0 0 1-.797-.797q-.286-.547-.286-1.357v-3.986h1v3.879q0 .833.404 1.25.417.416 1.107.416.476 0 .857-.214.38-.226.607-.655.238-.427.238-1.047v-3.63h.999V51h-.904l-.06-1a1.8 1.8 0 0 1-.773.845q-.512.298-1.19.298m4.619-.143v-6.26h.904l.048.857a2 2 0 0 1 .773-.726 2.07 2.07 0 0 1 1.024-.273q.452 0 .809.13.369.12.643.381.273.25.44.631.31-.559.833-.845.536-.297 1.118-.297.69 0 1.179.273.5.263.761.81.274.535.274 1.344V51h-.988v-3.867q0-.846-.369-1.262t-.999-.416a1.44 1.44 0 0 0-.786.226q-.345.226-.559.666-.202.44-.202 1.071V51h-1v-3.867q0-.846-.369-1.262t-.988-.416q-.416 0-.773.226a1.6 1.6 0 0 0-.559.666q-.215.44-.215 1.071V51z"/><rect width="25.5" height="25.5" x="190.665" y="34.25" fill="#fff" rx="5.667"/><path stroke="#18181B" stroke-linecap="round" stroke-linejoin="round" stroke-width="1.063" d="M198.219 42.454h10.389M198.219 47.001h10.389M198.219 51.543h10.389"/><rect width="24.88" height="24.88" x="216.475" y="34.56" fill="#fff" stroke="#fff" stroke-width=".62" rx="5.357"/><path fill="#282828" fill-rule="evenodd" d="M229.47 41.361a1.4 1.4 0 0 0-.213-.328c-.055.06-.133.162-.217.331l-.001.001-1.181 2.383a2.4 2.4 0 0 1-.719.84 2.4 2.4 0 0 1-1.004.45l-.004.002-2.146.359a1.2 1.2 0 0 0-.367.113c.031.067.1.176.239.316l1.669 1.682c.299.303.483.686.581 1.032s.142.765.051 1.175l-.001.007-.478 2.083c-.048.209-.062.365-.061.473a2 2 0 0 0 .418-.198h.001l2.018-1.205a2.4 2.4 0 0 1 1.207-.31c.38 0 .822.083 1.208.314l2.011 1.2c.178.106.318.166.419.199a2 2 0 0 0-.061-.474l-.479-2.089c-.091-.41-.047-.829.051-1.175s.282-.73.582-1.032l1.671-1.684c.138-.14.207-.247.239-.313a1.2 1.2 0 0 0-.369-.114l-2.147-.36a2.4 2.4 0 0 1-1.012-.45 2.4 2.4 0 0 1-.721-.84zm2.137 1.918c.162.333.593.651.956.712l2.146.36c1.373.23 1.696 1.235.707 2.225l-1.669 1.683c-.283.285-.437.834-.35 1.228l.478 2.082c.377 1.649-.491 2.286-1.938 1.425l-2.012-1.2c-.363-.218-.962-.218-1.332 0l-2.012 1.2c-1.44.861-2.314.217-1.937-1.425l.477-2.082c.088-.394-.067-.943-.35-1.228l-1.668-1.683c-.983-.99-.666-1.994.706-2.225l2.147-.36c.356-.06.787-.38.948-.712l1.184-2.388c.646-1.295 1.696-1.295 2.335 0z" clip-rule="evenodd"/><path stroke="#EEE" stroke-width=".708" d="M246.269 34.25v25.5"/><rect width="24.88" height="24.88" x="250.475" y="34.56" fill="#fff" stroke="#fff" stroke-width=".62" rx="5.357"/><path fill="#282828" d="M265.137 46.904a.6.6 0 0 1 0 .848l-2.398 2.397a.6.6 0 0 1-.847 0l-1.199-1.198a.6.6 0 0 1 .847-.848l.775.775 1.974-1.974a.6.6 0 0 1 .848 0"/><path fill="#282828" fill-rule="evenodd" d="M259.954 43.742a4.794 4.794 0 0 1 8.932 2.855 3.596 3.596 0 0 1-1.776 6.724h-8.391a3.596 3.596 0 0 1-1.77-6.727 3.3 3.3 0 0 1 3.005-2.852m4.159-1.209c-1.434 0-2.673.84-3.251 2.057a.6.6 0 0 1-.564.342l-.08-.001a2.1 2.1 0 0 0-2.098 2.058.6.6 0 0 1-.359.538 2.398 2.398 0 0 0 .958 4.596h8.391a2.398 2.398 0 0 0 .896-4.622.6.6 0 0 1-.364-.672q.067-.34.068-.7a3.596 3.596 0 0 0-3.597-3.596" clip-rule="evenodd"/></g><g filter="url(#g)"><rect width="138.837" height="34" x="500.08" y="30" fill="#fff" rx="7.083"/><rect width="138.129" height="33.292" x="500.434" y="30.354" stroke="#EEE" stroke-width=".708" rx="6.729"/><path stroke="#282828" stroke-width="1.133" d="M525.019 47.004c0-3.983-3.241-7.225-7.225-7.225s-7.225 3.242-7.225 7.225v7.225h7.225c3.984 0 7.225-3.241 7.225-7.225Z"/><path fill="#282828" d="M516.822 47.004A.974.974 0 1 0 518.77 47a.974.974 0 0 0-1.948.004m-3.246 0a1 1 0 0 0 .286.688.97.97 0 0 0 1.062.211.98.98 0 0 0 .527-.527.973.973 0 1 0-1.875-.372m6.492 0a.974.974 0 1 0 1.948-.004.974.974 0 0 0-1.948.004"/><path stroke="#282828" stroke-linecap="round" stroke-linejoin="round" stroke-miterlimit="16" stroke-width="1.063" d="m544.357 42.754-4.604 11.333 11.334-4.25m-6.73-7.083s2.391.266 4.605 2.48c2.213 2.212 2.125 4.603 2.125 4.603m-6.73-7.083s-.276 2.202 2.125 4.604c2.402 2.402 4.605 2.48 4.605 2.48m-.709-6.376.709-1.416 2.125.708.708-2.125m-1.417 5.312h1.417"/><path fill="#282828" d="M548.427 41.69a.886.886 0 1 0-.001-1.77.886.886 0 0 0 .001 1.77"/><circle cx="577.288" cy="46.998" r="10.094" fill="#FF5E3C" stroke="#fff" stroke-width="1.063"/><path fill="#fff" d="M572.548 48.663v-4.9h1.21v4.9zm-1.795-1.894v-1.111h4.8v1.11zm5.987 2.855v-1.388q0-.456.139-.793a1.56 1.56 0 0 1 .476-.595 4 4 0 0 1 .883-.506l1.229-.545q.457-.21.695-.506.248-.308.248-.783 0-.526-.318-.834-.308-.317-.882-.317-.576 0-.893.318-.307.316-.307.882h-1.359q0-.675.288-1.21.287-.545.853-.853.564-.317 1.418-.317.852 0 1.418.307.565.309.853.824.287.506.287 1.13v.129q0 .813-.456 1.359-.456.535-1.339.932l-1.229.545q-.348.15-.486.318-.14.157-.139.436v.635l-.337-.367h4.016v1.2z"/><circle cx="592.162" cy="47.001" r="10.094" fill="#F9BD64" stroke="#fff" stroke-width="1.063"/><path fill="#fff" d="m588.8 49.627 2.469-7.24h2.301l2.539 7.24h-1.448l-2.152-6.277.506.218h-1.24l.516-.218-2.083 6.277zm1.726-1.924.446-1.19h2.935l.437 1.19z"/><circle cx="606.333" cy="46.999" r="10.094" fill="#B793FF" stroke="#fff" stroke-width="1.063"/><path fill="#fff" d="M606.238 49.813q-.981 0-1.685-.347a3.35 3.35 0 0 1-1.151-.902 3.8 3.8 0 0 1-.644-1.21 4.2 4.2 0 0 1-.209-1.26v-.218q0-.675.209-1.328.218-.655.664-1.19a3.2 3.2 0 0 1 1.131-.853q.694-.327 1.636-.327.981 0 1.705.357.735.347 1.171.991.436.635.525 1.488h-1.418a1.7 1.7 0 0 0-.357-.833 1.6 1.6 0 0 0-.684-.516 2.4 2.4 0 0 0-.942-.178q-.536 0-.952.188-.417.178-.694.516-.279.337-.427.793a3.5 3.5 0 0 0-.139 1.011q0 .536.139.992.149.456.437.803.287.337.704.526.426.188.981.188.813 0 1.369-.396.565-.407.684-1.13h1.418a3.3 3.3 0 0 1-.525 1.417q-.427.645-1.171 1.032-.743.386-1.775.386"/><path stroke="#18181B" stroke-linecap="round" stroke-linejoin="round" stroke-width="1.063" d="m624.552 45.402 2.686 2.687c.236.236.354.354.501.354s.265-.118.501-.354l2.686-2.687"/></g><g filter="url(#h)"><rect width="134.583" height="34" x="647.417" y="30" fill="#fff" rx="7.083"/><rect width="133.875" height="33.292" x="647.771" y="30.354" stroke="#EEE" stroke-width=".708" rx="6.729"/><rect width="63.792" height="21.958" x="652.729" y="36.021" fill="#fff" rx="5.313"/><rect width="63.792" height="21.958" x="652.729" y="36.021" stroke="#6762FE" stroke-width=".708" rx="5.313"/><g stroke="#6762FE" stroke-width="1.063" clip-path="url(#i)"><path d="M664.424 52.309a5.313 5.313 0 1 0 0-10.626 5.313 5.313 0 0 0 0 10.626Z"/><path stroke-linejoin="round" d="M662.825 48.276v-2.559c0-.452.57-.73 1.013-.492l2.389 1.279c.422.226.422.76 0 .986l-2.389 1.279c-.443.237-1.013-.04-1.013-.493Z"/></g><path fill="#6762FE" d="M674.334 47.981v-.853h1.616q.516 0 .853-.198.338-.209.506-.555.178-.348.178-.774 0-.436-.178-.783a1.26 1.26 0 0 0-.506-.546q-.337-.198-.853-.198h-1.616v-.853h1.438q.893 0 1.487.288.606.278.913.793.307.516.307 1.22v.159q0 .693-.307 1.22a2.05 2.05 0 0 1-.913.802q-.594.279-1.487.278zm-.774 2.519v-7.279h.972V50.5zm6.224 0v-5.295h.754v2.181h-.04q0-1.16.506-1.696.516-.545 1.537-.545h.178v.853h-.337q-.793 0-1.219.426-.427.417-.427 1.21V50.5zm6.26.178q-.693 0-1.199-.237a2.3 2.3 0 0 1-.824-.625 2.8 2.8 0 0 1-.476-.883 3.4 3.4 0 0 1-.148-.992v-.178q0-.516.148-1.002.16-.485.476-.872.318-.397.804-.625.495-.238 1.16-.238.863 0 1.418.377.566.367.833.952.278.584.278 1.25v.426h-4.701v-.714h4.007l-.219.386q0-.564-.178-.971a1.4 1.4 0 0 0-.536-.645q-.357-.228-.902-.228-.566 0-.942.258a1.6 1.6 0 0 0-.555.704 2.8 2.8 0 0 0-.179 1.031q0 .566.179 1.022.188.445.575.714.387.258.981.258.625 0 1.012-.278.396-.278.476-.645h.892a2.1 2.1 0 0 1-.436.942 2.1 2.1 0 0 1-.823.605q-.495.21-1.121.209m5.557-.02q-1.041 0-1.617-.446-.564-.446-.585-1.22h.893q.02.308.307.586.298.267 1.002.267.635 0 .972-.247.337-.258.337-.625a.59.59 0 0 0-.248-.506q-.248-.188-.803-.248l-.576-.06q-.753-.078-1.229-.446-.476-.376-.476-1.05 0-.506.258-.863.258-.367.714-.556a2.6 2.6 0 0 1 1.051-.198q.892 0 1.448.397.555.396.575 1.18h-.893q-.009-.318-.297-.536-.278-.228-.833-.228t-.843.228a.7.7 0 0 0-.288.575q0 .298.199.476.207.18.674.228l.575.06q.853.09 1.369.476.515.377.515 1.07 0 .497-.287.883-.277.378-.774.595-.495.21-1.14.209m5.832.02q-.695 0-1.2-.237a2.3 2.3 0 0 1-.823-.625 2.8 2.8 0 0 1-.476-.883 3.4 3.4 0 0 1-.149-.992v-.178q0-.516.149-1.002.16-.485.476-.872.317-.397.803-.625.496-.238 1.161-.238.863 0 1.418.377.565.367.833.952.277.584.277 1.25v.426h-4.7v-.714h4.006l-.218.386q0-.564-.178-.971a1.4 1.4 0 0 0-.536-.645q-.357-.228-.902-.228-.566 0-.942.258-.367.258-.556.704a2.8 2.8 0 0 0-.178 1.031q0 .566.178 1.022.19.445.575.714.387.258.982.258.625 0 1.012-.278.396-.278.476-.645h.892a2.1 2.1 0 0 1-.436.942 2.1 2.1 0 0 1-.823.605 2.9 2.9 0 0 1-1.121.209m3.821-.178v-5.295h.754v2.27h-.119q0-.783.208-1.319.218-.544.655-.823.435-.287 1.1-.287h.04q1.002 0 1.478.625.485.624.485 1.804V50.5h-.952v-3.223q0-.615-.347-.982-.346-.376-.952-.377-.624 0-1.011.387t-.387 1.032V50.5zm8.406.06q-.595 0-1.031-.17a1.3 1.3 0 0 1-.665-.574q-.228-.417-.228-1.12v-5.098h.912v5.216q0 .426.229.665.237.228.664.228h.932v.852zm-2.836-4.642v-.713h3.649v.714z"/><rect width="53.792" height="21.958" x="722.896" y="36.021" fill="#6762FE" rx="5.313"/><rect width="53.792" height="21.958" x="722.896" y="36.021" stroke="#6762FE" stroke-width=".708" rx="5.313"/><path fill="#fff" d="M734.052 51.249v.53zm5.313-1.329a.531.531 0 0 0 0-1.062zm-2.869-1.062a.531.531 0 0 0 0 1.062zm.903 1.966a.531.531 0 0 0 1.063 0zm1.063-2.87a.531.531 0 0 0-1.063 0zm-2.871 3.722a.531.531 0 0 0-.151-1.052zm-.532-3.295a.531.531 0 1 0 .111-1.057zm-1.007 2.336c-1.247 0-2.228-.201-2.876-.496-.678-.31-.843-.638-.843-.832h-1.062c0 .833.664 1.434 1.464 1.798.829.378 1.973.593 3.317.593zm-3.719-1.328c0 .05-.025-.012.172-.167.179-.14.462-.292.837-.43.744-.277 1.744-.465 2.71-.465v-1.063c-1.087 0-2.213.21-3.08.531-.431.16-.825.358-1.122.591-.279.218-.579.555-.579 1.003zm4.782-5.018c0 .532-.475 1.034-1.063 1.034v1.062c1.173 0 2.125-.975 2.125-2.096zm-1.063 1.034c-.587 0-1.062-.502-1.062-1.034h-1.063c0 1.12.953 2.096 2.125 2.096zm-1.062-1.034c0-.556.499-1.091 1.062-1.091v-1.063c-1.197 0-2.125 1.06-2.125 2.154zm1.062-1.091c.563 0 1.063.535 1.063 1.091h1.062c0-1.095-.928-2.154-2.125-2.154zm5.313 5.578h-1.435v1.062h1.435zm-1.435 0h-1.434v1.062h1.434zm.532 1.966v-1.435h-1.063v1.435zm0-1.435v-1.434h-1.063v1.434zm-3.022 1.235q-.628.092-1.388.093v1.063q.83-.001 1.539-.104zm-1.388-2.297c.323 0 .665.018 1.007.054l.111-1.057a11 11 0 0 0-1.118-.06zM745.793 50.679q-.902 0-1.537-.298a2.26 2.26 0 0 1-.972-.823 2.16 2.16 0 0 1-.337-1.19h.972q0 .327.169.654.178.328.585.546.416.218 1.12.218.655 0 1.071-.188.417-.199.615-.506a1.27 1.27 0 0 0 .199-.684q0-.447-.387-.734-.387-.297-1.131-.367l-.803-.07q-.962-.079-1.537-.595-.575-.515-.575-1.358 0-.665.317-1.16.327-.497.903-.774.575-.288 1.338-.288.755 0 1.329.278.575.277.893.784.327.495.327 1.19h-.972q0-.348-.169-.655a1.24 1.24 0 0 0-.505-.506q-.347-.198-.903-.198-.535 0-.892.188-.348.189-.526.496a1.3 1.3 0 0 0-.168.645q0 .396.307.704.308.307.912.357l.804.07q.743.059 1.279.317.545.248.833.674.297.416.297 1.002 0 .663-.357 1.18a2.34 2.34 0 0 1-1.001.803q-.645.288-1.498.288m4.348-.179v-7.24h.952v4.325h-.238q0-.784.199-1.35.208-.575.634-.882t1.091-.307h.04q.952 0 1.438.635.486.624.486 1.794V50.5h-.952v-3.223q0-.645-.367-1.001-.357-.358-.932-.358-.635 0-1.022.427-.377.417-.377 1.1V50.5zm9.547 0v-1.587h-.159V47.08q0-.546-.288-.823-.277-.278-.823-.278-.307 0-.634.01l-.625.02q-.297.009-.516.03v-.833q.219-.021.456-.03a6 6 0 0 1 .506-.02q.258-.01.496-.01.813 0 1.329.198.516.189.763.625.249.436.248 1.18V50.5zm-1.736.139q-.594 0-1.031-.199a1.58 1.58 0 0 1-.665-.594q-.228-.388-.228-.933 0-.565.248-.942.258-.377.744-.565.486-.198 1.17-.198h1.438v.714h-1.477q-.576 0-.883.277a.92.92 0 0 0-.307.714q0 .437.307.704.307.268.883.268.336 0 .644-.119.308-.13.506-.416.209-.298.228-.814l.258.377q-.05.566-.278.952a1.43 1.43 0 0 1-.615.575q-.387.2-.942.199m4.237-.139v-5.295h.753v2.181h-.039q0-1.16.505-1.696.516-.545 1.537-.545h.179v.853h-.337q-.794 0-1.22.426-.426.417-.426 1.21V50.5zm6.26.178q-.694 0-1.2-.237a2.3 2.3 0 0 1-.823-.625 2.8 2.8 0 0 1-.476-.883 3.4 3.4 0 0 1-.149-.992v-.178q0-.516.149-1.002.159-.485.476-.872.317-.397.803-.625.496-.238 1.16-.238.863 0 1.419.377.564.367.833.952.277.584.277 1.25v.426h-4.7v-.714h4.006l-.218.386q0-.564-.179-.971a1.4 1.4 0 0 0-.535-.645q-.357-.228-.903-.228-.564 0-.942.258a1.6 1.6 0 0 0-.555.704 2.8 2.8 0 0 0-.178 1.031q0 .566.178 1.022.188.445.575.714.387.258.982.258.625 0 1.011-.278.398-.278.476-.645h.893a2.1 2.1 0 0 1-.436.942 2.1 2.1 0 0 1-.823.605 2.9 2.9 0 0 1-1.121.209"/></g><g filter="url(#j)"><rect width="73.853" height="35.478" x="440" y="537.261" fill="#fff" rx="8.689"/><rect width="73.129" height="34.754" x="440.362" y="537.623" stroke="#EEE" stroke-width=".724" rx="8.327"/><rect width="26.066" height="26.066" x="445.069" y="541.967" fill="#fff" rx="3.62"/><path fill="#fff" d="M449.415 546.313h17.377v17.377h-17.377z"/><path fill="#282828" fill-rule="evenodd" d="M457.85 558.622c0 .32.259.58.579.58h2.896a3.476 3.476 0 0 0 3.476-3.476v-.111a3.476 3.476 0 0 0-3.476-3.476h-7.303l1.775-1.798a.58.58 0 0 0-.825-.814l-2.748 2.785a.58.58 0 0 0 0 .814l2.748 2.784a.579.579 0 1 0 .825-.813l-1.775-1.799h7.303a2.317 2.317 0 0 1 2.317 2.317v.111a2.317 2.317 0 0 1-2.317 2.317h-2.896a.58.58 0 0 0-.579.579" clip-rule="evenodd"/><path stroke="#EEE" stroke-width=".724" d="M477.289 540.519v28.962"/><path fill="#848382" fill-opacity=".5" fill-rule="evenodd" d="M496.654 558.622a.58.58 0 0 1-.579.58h-2.897a3.475 3.475 0 0 1-3.475-3.476v-.111a3.475 3.475 0 0 1 3.475-3.476h7.304l-1.775-1.798a.579.579 0 1 1 .825-.814l2.747 2.785a.58.58 0 0 1 0 .814l-2.747 2.784a.579.579 0 1 1-.825-.813l1.775-1.799h-7.304a2.316 2.316 0 0 0-2.316 2.317v.111a2.316 2.316 0 0 0 2.316 2.317h2.897c.32 0 .579.26.579.579" clip-rule="evenodd"/></g><g filter="url(#k)"><rect width="262.829" height="35.478" x="522.541" y="537.261" fill="#fff" rx="8.689"/><rect width="262.105" height="34.754" x="522.903" y="537.623" stroke="#EEE" stroke-width=".724" rx="8.327"/><path stroke="#282828" stroke-linecap="round" stroke-linejoin="round" stroke-width="1.041" d="M547.872 555.067v-2.066c0-1.407 0-2.111-.424-2.548-.424-.438-1.107-.438-2.472-.438h-1.505c-.665 0-.67-.001-1.267-.3l-2.413-1.21c-1.007-.505-1.51-.758-2.047-.74-.536.017-1.023.302-1.997.872l-.89.52c-.715.419-1.073.628-1.269.976-.197.349-.197.773-.197 1.621v5.963c0 1.114 0 1.672.248 1.982.165.206.396.345.651.391.384.069.854-.206 1.794-.756.639-.374 1.253-.762 2.017-.656.64.088 1.234.492 1.806.779"/><path stroke="#282828" stroke-linejoin="round" stroke-width="1.041" d="M537.739 547.764v10.885"/><path stroke="#282828" stroke-linecap="round" stroke-linejoin="round" stroke-width="1.041" d="M542.803 549.94v4.353"/><path stroke="#282828" stroke-linejoin="round" stroke-width="1.041" d="M544.617 556.097c1.401 0 2.537 1.111 2.537 2.483 0 1.551-1.534 2.314-2.265 3.476-.156.248-.377.248-.544 0-.754-1.118-2.264-1.957-2.264-3.476 0-1.372 1.135-2.483 2.536-2.483Z"/><path stroke="#282828" stroke-linecap="round" stroke-linejoin="round" stroke-width="1.388" d="M544.617 558.625h.007"/><path stroke="#EEE" stroke-width=".724" d="M559.83 541.243v27.514"/><path stroke="#282828" stroke-linecap="round" stroke-linejoin="round" stroke-width="1.086" d="m583.656 553.124.001 3.193c.001 1.487.001 2.23-.23 2.826a3.53 3.53 0 0 1-1.999 2.002c-.602.237-1.357.249-2.869.275-.792.013-1.188.019-1.557-.054a3.4 3.4 0 0 1-1.523-.724c-.286-.237-.524-.545-1-1.161l-2.096-2.715c-.323-.417-.314-1 .022-1.418a1.19 1.19 0 0 1 1.75-.125l1.132 1.094-.002-5.449c0-.567.468-1.034 1.046-1.044a1.016 1.016 0 0 1 1.046 1.009m0 0v-1.368c0-.567.468-1.034 1.046-1.044a1.017 1.017 0 0 1 1.047 1.009v1.368m-2.093.035.002 3.079m2.091-3.114c0-.566.468-1.034 1.046-1.043a1.016 1.016 0 0 1 1.047 1.009v1.368m-2.093-1.334.001 3.08m2.092-1.746c0-.567.468-1.034 1.046-1.044a1.017 1.017 0 0 1 1.047 1.009l.001 1.711m-2.094-1.676.001 1.711"/><path stroke="#282828" stroke-linecap="round" stroke-width="1.086" d="M607.84 548.051h-3.089c-.853 0-1.544.692-1.544 1.545v3.088m4.633 9.267h-3.089a1.545 1.545 0 0 1-1.544-1.545v-3.089m9.266-9.266h3.089c.853 0 1.544.692 1.544 1.545v3.088m0 4.633v3.089c0 .853-.691 1.545-1.544 1.545h-3.089m.29-6.95a2.607 2.607 0 1 1-5.213-.001 2.607 2.607 0 0 1 5.213.001Z"/><path stroke="#EEE" stroke-width=".724" d="M629.338 541.243v27.514"/><path stroke="#282828" stroke-linecap="round" stroke-linejoin="round" stroke-width="1.086" d="m651.781 558.983 3.258 3.258"/><path stroke="#282828" stroke-linejoin="round" stroke-width="1.086" d="M653.588 554.28a6.516 6.516 0 1 0-13.032 0 6.516 6.516 0 1 0 13.032 0Z"/><path stroke="#282828" stroke-linecap="round" stroke-linejoin="round" stroke-width="1.086" d="M644.542 554.275h5.067"/><rect width="43.443" height="25.342" x="-.362" y=".362" fill="#F7F7F7" stroke="#EEE" stroke-width=".724" rx="5.43" transform="matrix(-1 0 0 1 710.069 541.967)"/><path fill="#282828" d="M678.105 559.571v-6.913l.446.345h-2.088v-.831h2.615v7.399zm5.959.183q-.831 0-1.419-.284a2.64 2.64 0 0 1-.943-.791 3.4 3.4 0 0 1-.517-1.145 5.8 5.8 0 0 1-.162-1.389v-.547q0-1.024.315-1.845a2.8 2.8 0 0 1 .993-1.298q.679-.486 1.733-.486t1.724.486q.668.476.983 1.298.324.82.324 1.845v.547q0 .73-.162 1.389a3.2 3.2 0 0 1-.527 1.145 2.55 2.55 0 0 1-.933.791q-.578.284-1.409.284m0-.892q1.055 0 1.541-.71.497-.72.497-2.27 0-1.622-.507-2.322-.496-.699-1.531-.699-1.044 0-1.551.699-.496.7-.496 2.301 0 1.561.496 2.281.497.72 1.551.72m7.533.892q-.831 0-1.419-.284a2.6 2.6 0 0 1-.942-.791 3.3 3.3 0 0 1-.517-1.145 5.8 5.8 0 0 1-.162-1.389v-.547q0-1.024.314-1.845a2.8 2.8 0 0 1 .993-1.298q.68-.486 1.733-.486 1.055 0 1.724.486.669.476.983 1.298.324.82.324 1.845v.547q0 .73-.162 1.389a3.2 3.2 0 0 1-.527 1.145 2.5 2.5 0 0 1-.933.791q-.577.284-1.409.284m0-.892q1.055 0 1.541-.71.497-.72.497-2.27 0-1.622-.507-2.322-.496-.699-1.531-.699-1.044 0-1.55.699-.498.7-.497 2.301 0 1.561.497 2.281t1.55.72m6.307.709 2.798-7.399h.77l-2.797 7.399zm-.547-3.426q-.578 0-.943-.263a1.57 1.57 0 0 1-.527-.7 2.7 2.7 0 0 1-.162-.943v-.263q0-.547.172-.973.173-.436.537-.679.366-.254.923-.254.567 0 .922.254.365.243.537.679.173.426.173.973v.263q0 .507-.173.943-.162.436-.517.7-.354.263-.942.263m0-.669q.466 0 .689-.334.233-.345.233-1.024 0-.72-.233-1.044-.233-.335-.689-.335t-.69.335q-.233.324-.233 1.034 0 .679.223 1.023.234.345.7.345m4.622 4.197q-.577 0-.943-.264a1.6 1.6 0 0 1-.527-.699 2.7 2.7 0 0 1-.162-.943v-.264q0-.547.172-.973.172-.436.538-.679.364-.253.922-.253.568 0 .923.253.365.244.537.679.172.426.172.973v.264q0 .507-.172.943-.162.435-.517.699t-.943.264m0-.669q.467 0 .689-.335.234-.345.234-1.024 0-.72-.234-1.044-.233-.334-.689-.334t-.689.334q-.233.324-.233 1.034 0 .68.223 1.024.233.345.699.345"/><path stroke="#282828" stroke-linecap="round" stroke-linejoin="round" stroke-width="1.086" d="m733.604 558.982 3.258 3.258"/><path stroke="#282828" stroke-linejoin="round" stroke-width="1.086" d="M735.412 554.28a6.516 6.516 0 1 0-13.033 0 6.516 6.516 0 0 0 13.033 0Z"/><path stroke="#282828" stroke-linecap="round" stroke-linejoin="round" stroke-width="1.086" d="M726.367 554.281h5.068m-2.534-2.534v5.067"/><path stroke="#EEE" stroke-width=".724" d="M748.806 541.243v27.514"/><rect width="25.342" height="25.342" x="754.598" y="542.329" fill="url(#l)" stroke="#fff" stroke-width=".724" rx="5.43"/><g stroke="#282828" clip-path="url(#m)"><circle cx="767.43" cy="554.645" r="7.24" stroke-width="1.086"/><path stroke-linecap="round" stroke-width="1.086" d="M765.988 552.473a1.448 1.448 0 1 1 2.666.783c-.433.672-1.218 1.313-1.218 2.113v.362"/><path stroke-linecap="round" stroke-linejoin="round" stroke-width="1.448" d="M767.431 558.269h.006"/></g></g><path fill="#F5A3CC" d="m117 412 79.696-30.094 30.094 79.696-79.696 30.094z"/><rect width="61.415" height="2.972" x="125.008" y="416.385" fill="#EC4899" fill-opacity=".6" rx="1.486" transform="rotate(-20.687 125.008 416.385)"/><rect width="38.632" height="2.972" x="127.106" y="421.946" fill="#EC4899" fill-opacity=".6" rx="1.486" transform="rotate(-20.687 127.106 421.946)"/><rect width="57.453" height="2.972" x="131.307" y="433.066" fill="#EC4899" fill-opacity=".6" rx="1.486" transform="rotate(-20.687 131.307 433.066)"/><rect width="52.5" height="2.972" x="129.21" y="427.506" fill="#EC4899" fill-opacity=".6" rx="1.486" transform="rotate(-20.687 129.21 427.506)"/><path fill="#FFE09D" d="m656.927 186 90.992 17.927-17.927 90.992L639 276.992z"/><rect width="66.86" height="3.235" x="661.815" y="194.654" fill="#A46F49" fill-opacity=".5" rx="1.618" transform="rotate(11.145 661.815 194.654)"/><rect width="42.057" height="3.235" x="660.562" y="201.002" fill="#A46F49" fill-opacity=".5" rx="1.618" transform="rotate(11.145 660.562 201.002)"/><rect width="62.547" height="3.235" x="658.064" y="213.7" fill="#A46F49" fill-opacity=".5" rx="1.618" transform="rotate(11.145 658.064 213.7)"/><rect width="57.154" height="3.235" x="659.316" y="207.354" fill="#A46F49" fill-opacity=".5" rx="1.618" transform="rotate(11.145 659.316 207.354)"/><path fill="#DCDCDC" d="M208.43 184.203h441.157v314.806H208.43z"/><path fill="#fff" d="M192 166h473.28v351.212H192z"/><path fill="#82CAB4" d="M283.091 231.205c0-.908.735-1.643 1.643-1.643h25.761c.908 0 1.644.735 1.644 1.643v230.059h-29.048z"/><path fill="#C5ADFA" d="M321.575 253.985c0-.908.736-1.644 1.644-1.644h25.761c.908 0 1.643.736 1.643 1.644v207.28h-29.048z"/><path fill="#F5A3CC" d="M359.624 273.287c0-.908.736-1.644 1.644-1.644h25.761c.907 0 1.643.736 1.643 1.644v187.914h-29.048z"/><path fill="#C5ADFA" d="M398.355 289.919c0-.907.736-1.643 1.644-1.643h25.761c.907 0 1.643.736 1.643 1.643V461.2h-29.048z"/><path fill="#82CAB4" d="M436.4 306.866c0-.908.735-1.644 1.643-1.644h25.761c.908 0 1.644.736 1.644 1.644v154.273H436.4z"/><path fill="#F5A3CC" d="M475.005 324.929c0-.908.736-1.644 1.644-1.644h25.761c.908 0 1.644.736 1.644 1.644V461.14h-29.049z"/><path fill="#82CAB4" d="M513.179 343.365c0-.907.736-1.643 1.644-1.643h25.761c.908 0 1.643.736 1.643 1.643V461.08h-29.048z"/><path fill="#C5ADFA" d="M551.664 360.312c0-.908.736-1.644 1.644-1.644h25.761c.907 0 1.643.736 1.643 1.644v100.77h-29.048z"/><path fill="#000" d="m618.587 461.677-4.995-2.884v5.767zm-369.494.499h364.999v-.999H249.093z"/><path fill="#000" d="m249.891 199.963-2.901 4.984 5.767.021zm-.438 262.364.921-257.867-.998-.004-.922 257.868zM229.801 432.735q-.07 0-.07-.14 0-.15.07-.15h.159q.49 0 .79-.15a.49.49 0 0 0 .299-.469v-4.785q0-.3-.06-.399-.05-.11-.259-.14-.2-.04-.76-.04h-.169q-.07 0-.07-.15 0-.14.07-.14.629 0 1.118-.18.49-.19.929-.599v6.433q0 .62 1.089.619h.15q.04 0 .05.04.02.03.02.11 0 .14-.07.14zm6.555.14q-.559 0-1.049-.42-.479-.42-.779-1.258-.29-.84-.289-2.048 0-1.209.299-2.058.3-.85.779-1.268.49-.43 1.059-.43.56 0 1.039.43.49.419.779 1.268.3.849.3 2.058t-.3 2.048-.789 1.258q-.48.42-1.049.42m.02-.34q.579 0 .909-.839.34-.849.34-2.547t-.34-2.547q-.33-.86-.909-.859-.589 0-.929.859-.339.849-.339 2.547t.339 2.547q.34.839.929.839M299.815 480.842q-.07 0-.07-.14 0-.15.07-.15h.16q.489 0 .789-.15t.3-.469v-4.785q0-.3-.06-.399-.05-.11-.26-.14-.2-.04-.759-.04h-.17q-.07 0-.07-.15 0-.14.07-.14.63 0 1.119-.18.49-.19.929-.599v6.433q0 .62 1.088.619h.15q.04 0 .05.04.02.03.02.11 0 .14-.07.14zM341.559 480.9h-3.636l-.1-.219q.28-.77.71-1.399t1.148-1.498q.729-.849 1.059-1.399.33-.559.33-1.138 0-.54-.3-.949-.3-.41-.939-.41-.47 0-.799.24-.33.23-.33.569a.7.7 0 0 0 .03.22q.04.09.12.2.07.11.1.2.04.08.04.199 0 .24-.15.39a.5.5 0 0 1-.739-.05q-.16-.2-.16-.539 0-.37.22-.779a1.93 1.93 0 0 1 .679-.69q.46-.29 1.119-.289.719 0 1.159.289.44.28.619.71.19.418.19.879 0 .419-.14.739-.14.309-.38.579-.239.26-.719.699-.11.11-.279.26-.171.15-.39.37-.999 1.008-1.498 2.087h1.188q.729 0 1.089-.08.36-.09.539-.309.19-.22.37-.71.02-.06.07-.059.01 0 .09.019a.4.4 0 0 1 .09.04q.03.021.03.06l-.01.05zM377.507 477.006q.83.15 1.348.639.52.49.52 1.219 0 .45-.21.939-.2.48-.719.829-.519.35-1.389.35-.678 0-1.118-.25-.43-.25-.62-.599a1.55 1.55 0 0 1-.179-.69q0-.32.149-.469a.5.5 0 0 1 .36-.16.6.6 0 0 1 .38.13.4.4 0 0 1 .169.35q0 .11-.109.289a1 1 0 0 0-.09.14q-.03.07-.03.16 0 .29.219.529.22.24.78.24.44 0 .789-.24t.549-.659q.2-.42.2-.959 0-.729-.4-1.179-.4-.449-1.109-.449-.07 0-.209.02-.14.02-.24.02a.35.35 0 0 1-.19-.05.2.2 0 0 1-.07-.16q0-.09.07-.15a.3.3 0 0 1 .19-.06q.14 0 .26.03.159.02.249.02.42 0 .81-.279.389-.28.389-1.199 0-.829-.36-1.169a1.12 1.12 0 0 0-.819-.349q-.29 0-.569.14-.27.13-.27.499 0 .16.08.34.07.119.07.259 0 .19-.12.31a.36.36 0 0 1-.279.12q-.31 0-.45-.19a.8.8 0 0 1-.13-.439q0-.27.22-.59.23-.33.639-.559t.939-.23q.58 0 1.009.25.44.24.669.649.23.4.23.869 0 .65-.409 1.129-.4.47-1.199.609M418.106 479.204h-1.129v.989q0 .22.19.289.19.07.5.07h.13q.09 0 .089.14 0 .15-.089.15h-2.398q-.08 0-.08-.15 0-.14.08-.14h.13q.31 0 .5-.07.189-.07.189-.289v-.989h-2.687v-.42l3.047-5.284.399.09v5.194h1.129zm-1.888-4.256-2.207 3.836h2.207zM453.344 476.113q.39 0 .849.199.47.19.829.72.36.519.36 1.438 0 .73-.33 1.288-.33.56-.839.86a2 2 0 0 1-1.029.299 2.5 2.5 0 0 1-.909-.17 1.8 1.8 0 0 1-.729-.509 1.23 1.23 0 0 1-.28-.809q0-.33.14-.47.15-.149.33-.149.21 0 .379.119.17.11.17.35 0 .13-.06.31l-.03.12a.6.6 0 0 0-.02.149q0 .36.28.55.29.18.639.18.38 0 .699-.25.32-.26.51-.719.2-.47.2-1.079 0-.909-.37-1.458-.37-.55-.989-.55-.749 0-1.418.959l-.29-.19.14-3.775h3.506l-.14.749h-3.046l-.11 2.617q.409-.43.779-.6.37-.179.779-.179M491.849 476.317q.58 0 .999.3.42.29.64.769.219.479.219 1.029 0 .689-.269 1.278a2.24 2.24 0 0 1-.75.939 1.83 1.83 0 0 1-1.108.35q-.65 0-1.169-.38-.52-.38-.809-1.059-.29-.689-.29-1.578 0-1.428.4-2.437.399-1.019.999-1.519.609-.509 1.188-.509.46 0 .789.14.34.13.51.35a.74.74 0 0 1 .17.459q0 .21-.15.36a.479.479 0 0 1-.709-.04.82.82 0 0 1-.18-.49q-.02-.23-.12-.339t-.33-.11q-.519 0-.879.549-.36.54-.549 1.339a10 10 0 0 0-.25 1.588q.3-.49.739-.739.44-.25.909-.25m-.269 4.285q.37 0 .649-.27.29-.269.449-.739.16-.469.16-1.049 0-1.058-.409-1.408-.4-.35-.869-.35-.41 0-.809.3-.39.29-.57.909.01 1.108.29 1.858.29.749 1.109.749M528.399 480.907q-.26 0-.39-.25a1.4 1.4 0 0 1-.119-.599q0-1.048.799-2.617a37 37 0 0 1 1.848-3.206h-1.768q-.61 0-.929.14a1 1 0 0 0-.47.379q-.15.25-.349.809-.02.04-.04.05-.01.01-.04.01l-.08-.02a.4.4 0 0 1-.09-.04q-.03-.02-.03-.05l.02-.11.409-1.897h3.896l.1.219q-.98 1.668-1.459 2.687-.469 1.019-.639 1.838a9.4 9.4 0 0 0-.17 1.898q0 .759-.499.759M568.529 476.976q.48.27.789.5.32.23.539.589.22.36.22.849 0 .61-.32 1.079a2.1 2.1 0 0 1-.809.729q-.5.26-1.038.26-.57 0-1.089-.24a2.1 2.1 0 0 1-.819-.669 1.63 1.63 0 0 1-.31-.979q0-.47.2-.799.21-.33.529-.56.33-.24.879-.539-.659-.34-1.029-.749-.359-.41-.359-1.149 0-.44.21-.849a1.64 1.64 0 0 1 .639-.679q.429-.27 1.039-.27.489 0 .919.2.43.19.689.569.27.38.27.889 0 .59-.37.999-.36.4-.969.709zm-1.988-1.958q0 .38.19.67.2.279.499.489.3.21.879.559.819-.609.819-1.558 0-.3-.119-.609-.12-.31-.39-.52-.27-.219-.699-.219-.39 0-.659.199a1.2 1.2 0 0 0-.39.47 1.2 1.2 0 0 0-.13.519m1.269 5.624q.719 0 1.108-.439.4-.45.4-1.139 0-.38-.26-.689a2.4 2.4 0 0 0-.619-.54 11 11 0 0 0-.919-.529q-.47.33-.759.799a1.84 1.84 0 0 0-.13 1.738q.16.35.459.579.3.22.72.22M232.881 397.111h-3.636l-.1-.219a6.3 6.3 0 0 1 .709-1.399q.43-.629 1.149-1.498.729-.849 1.059-1.399.329-.56.329-1.138 0-.54-.299-.949-.3-.41-.939-.41-.47 0-.799.24-.33.23-.33.569a.7.7 0 0 0 .03.22q.04.09.12.2.07.11.1.2.04.08.04.199 0 .24-.15.39a.5.5 0 0 1-.37.14q-.2 0-.369-.19-.16-.2-.16-.539 0-.37.22-.78.23-.409.679-.689.459-.29 1.119-.289.719 0 1.158.289.44.28.62.709.189.42.189.879 0 .42-.139.74-.14.309-.38.579-.24.26-.719.699-.11.11-.28.26t-.39.37q-.998 1.008-1.498 2.087h1.189q.729 0 1.089-.08.359-.09.539-.309.19-.22.37-.71.02-.06.07-.06a.44.44 0 0 1 .179.06q.03.021.03.06l-.01.05zm3.463.14q-.559 0-1.049-.419-.479-.42-.779-1.259-.29-.839-.289-2.048 0-1.208.299-2.057.3-.849.779-1.269.49-.429 1.059-.429.56 0 1.039.429.49.42.779 1.269.3.85.3 2.057 0 1.21-.3 2.048t-.789 1.259q-.48.419-1.049.419m.02-.339q.579 0 .909-.84.34-.849.34-2.547t-.34-2.547q-.33-.858-.909-.859-.589 0-.929.859-.339.849-.339 2.547t.339 2.547q.34.84.929.84M231.522 357.708q.829.15 1.349.64.519.489.519 1.218 0 .45-.21.939-.199.48-.719.829-.52.35-1.388.35-.68 0-1.119-.25-.43-.25-.619-.599-.18-.36-.18-.689 0-.32.15-.47a.5.5 0 0 1 .359-.16q.21 0 .38.13.17.12.17.35 0 .11-.11.289a2 2 0 0 0-.09.14q-.03.07-.03.16 0 .29.22.529t.779.24q.44 0 .789-.24.35-.239.549-.659t.2-.959q0-.73-.399-1.178-.4-.45-1.109-.45-.07 0-.21.02a2 2 0 0 1-.24.02.35.35 0 0 1-.189-.05.2.2 0 0 1-.07-.16q0-.09.07-.15a.3.3 0 0 1 .189-.059q.14 0 .26.029.16.02.25.02.419 0 .809-.279.39-.28.389-1.199 0-.829-.359-1.169a1.12 1.12 0 0 0-.819-.349q-.29 0-.57.14-.269.13-.269.499 0 .16.08.34a.5.5 0 0 1 .07.259q0 .19-.12.31a.37.37 0 0 1-.28.12q-.31 0-.449-.19a.8.8 0 0 1-.13-.439q0-.27.219-.59.23-.329.64-.559t.939-.23q.579 0 1.008.25.44.24.67.649.23.4.229.869 0 .65-.409 1.129-.4.47-1.199.609m4.949 3.976q-.559 0-1.049-.42-.479-.419-.779-1.258-.29-.84-.29-2.048t.3-2.058.779-1.268q.49-.43 1.059-.43.56 0 1.039.43.49.419.779 1.268.3.849.3 2.058t-.3 2.048-.789 1.258q-.48.42-1.049.42m.02-.34q.579 0 .909-.839.34-.849.34-2.547t-.34-2.547q-.33-.86-.909-.859-.589 0-.929.859-.34.849-.34 2.547t.34 2.547q.34.839.929.839M233.33 323.905h-1.128v.989q0 .22.189.289.19.07.5.07h.13q.09 0 .09.14 0 .15-.09.15h-2.398q-.08 0-.08-.15 0-.14.08-.14h.13q.31 0 .5-.07.189-.07.189-.289v-.989h-2.687v-.42l3.047-5.284.4.09v5.194h1.128zm-1.888-4.255-2.207 3.835h2.207zm4.635 6.033q-.56 0-1.049-.42-.48-.419-.779-1.258-.29-.84-.29-2.048t.3-2.058.779-1.268q.489-.43 1.059-.43.559 0 1.038.43.49.419.779 1.268.3.849.3 2.058t-.3 2.048q-.298.839-.789 1.258-.479.42-1.048.42m.02-.34q.58 0 .908-.839.34-.849.34-2.547t-.34-2.547q-.329-.86-.908-.859-.59 0-.929.859-.34.849-.34 2.547t.34 2.547q.34.84.929.839M231.201 285.81q.39 0 .849.2.47.19.829.719.36.52.36 1.439 0 .729-.33 1.288-.33.56-.839.859-.51.3-1.029.3-.459 0-.909-.17a1.8 1.8 0 0 1-.729-.509 1.24 1.24 0 0 1-.28-.809q0-.33.14-.47.15-.15.33-.15.21 0 .379.12.17.11.17.35 0 .13-.06.309l-.03.12a.7.7 0 0 0-.02.15q0 .36.28.55.29.179.639.179.38 0 .7-.249.319-.26.509-.72.2-.47.2-1.078 0-.909-.37-1.459-.37-.549-.989-.549-.749 0-1.418.959l-.29-.19.14-3.776h3.506l-.14.749h-3.046l-.11 2.617q.41-.43.779-.599.37-.18.779-.18m5.114 4.805q-.56 0-1.049-.42-.48-.419-.779-1.258-.29-.84-.29-2.048t.3-2.058.779-1.268q.489-.43 1.059-.43.56 0 1.039.43.49.42.779 1.268.3.849.299 2.058 0 1.209-.299 2.048-.3.839-.789 1.258-.48.42-1.049.42m.02-.34q.579 0 .909-.839.339-.849.339-2.547t-.339-2.547q-.33-.86-.909-.859-.59 0-.929.859-.34.849-.34 2.547t.34 2.547q.34.84.929.839M231.349 250.629q.58 0 .999.3.42.29.64.769.219.478.219 1.029 0 .689-.269 1.278a2.24 2.24 0 0 1-.75.939 1.83 1.83 0 0 1-1.108.35q-.65 0-1.169-.38-.52-.38-.809-1.059-.29-.689-.29-1.578 0-1.428.4-2.437.399-1.02.999-1.518.609-.51 1.188-.51.46 0 .789.14.34.13.51.35a.74.74 0 0 1 .17.459q0 .21-.15.36a.479.479 0 0 1-.709-.04.82.82 0 0 1-.18-.49q-.02-.23-.12-.339t-.33-.11q-.519 0-.879.549-.36.54-.549 1.339a10 10 0 0 0-.25 1.588q.3-.49.739-.739.44-.25.909-.25m-.269 4.285q.37 0 .649-.27.29-.269.449-.739.16-.469.16-1.049 0-1.058-.409-1.408-.4-.35-.869-.35-.41 0-.809.3-.39.29-.57.909.01 1.108.29 1.858.29.749 1.109.749m5.166.38q-.559 0-1.049-.42-.479-.42-.779-1.258-.29-.84-.289-2.048 0-1.209.299-2.058.3-.85.779-1.268.49-.43 1.059-.43.56 0 1.039.43.49.419.779 1.268.3.849.3 2.058t-.3 2.048-.789 1.258q-.48.42-1.049.42m.02-.34q.579 0 .909-.839.34-.849.34-2.547t-.34-2.547q-.33-.86-.909-.859-.589 0-.929.859-.339.849-.339 2.547t.339 2.547q.34.839.929.839M230.593 216.245q-.26 0-.39-.25a1.4 1.4 0 0 1-.12-.599q0-1.049.799-2.617a38 38 0 0 1 1.848-3.206h-1.768q-.609 0-.929.139a1 1 0 0 0-.469.38q-.15.25-.35.809-.02.04-.04.05-.01.01-.04.01l-.079-.02a.4.4 0 0 1-.09-.04q-.03-.02-.03-.05l.02-.11.409-1.898h3.896l.1.22q-.98 1.668-1.459 2.687-.47 1.019-.639 1.838a9.4 9.4 0 0 0-.17 1.898q0 .759-.499.759m5.842.01q-.559 0-1.048-.419-.48-.42-.779-1.259-.29-.839-.29-2.048 0-1.208.299-2.057.3-.849.78-1.269.49-.429 1.058-.429.56 0 1.039.429.49.42.779 1.269.3.85.3 2.057 0 1.21-.3 2.048-.299.839-.789 1.259-.479.419-1.049.419m.02-.34q.58 0 .909-.839.34-.849.34-2.547t-.34-2.547q-.328-.86-.909-.859-.588 0-.929.859-.339.849-.339 2.547t.339 2.547q.34.84.929.839M288.559 213.873q.389 0 .849.2.47.19.829.719.36.52.359 1.439 0 .729-.329 1.288-.33.56-.839.859-.51.3-1.029.3-.459 0-.909-.17a1.8 1.8 0 0 1-.729-.509 1.23 1.23 0 0 1-.28-.809q0-.33.14-.47.15-.15.33-.15.209 0 .379.12.17.11.17.35 0 .13-.06.309l-.03.12a.7.7 0 0 0-.02.15q0 .36.28.55.29.179.639.179.38 0 .699-.249.32-.26.51-.72.2-.47.199-1.078 0-.909-.369-1.459-.37-.549-.989-.549-.749 0-1.418.959l-.29-.19.14-3.776h3.506l-.14.749h-3.047l-.11 2.617q.41-.43.78-.599.37-.18.779-.18m8.568-.219q.61 0 1.079.339.479.33.739.909.26.58.259 1.279 0 .65-.279 1.218-.27.57-.739.919-.47.34-1.009.34-.889 0-1.559-.629v2.097q0 .26.17.34.18.08.47.08h.12q.08 0 .079.13 0 .14-.079.14h-2.228q-.08 0-.08-.14 0-.13.08-.13h.12q.3 0 .469-.08.18-.08.18-.34l-.03-5.324q0-.21-.1-.309a.4.4 0 0 0-.219-.13 5 5 0 0 0-.43-.07q-.06-.01-.08-.05a.5.5 0 0 1-.01-.11q0-.07.06-.09.15-.05 1.518-.389v.599q.71-.6 1.499-.599m-.25 4.564q.26 0 .589-.139.33-.14.61-.61.29-.47.289-1.378 0-.7-.229-1.139-.23-.45-.58-.649a1.4 1.4 0 0 0-.709-.2q-.28 0-.619.14a2.1 2.1 0 0 0-.6.37l-.01 3.036q.25.25.59.41t.669.159m4.899.46q-.549 0-.849-.28-.29-.29-.29-.879v-3.406h-.809v-.37q.38-.119.609-.319.24-.2.41-.589.17-.39.29-1.079h.219v1.987h1.309v.37h-1.319v2.447l.01.899q.01.34.19.55.18.2.46.199a.84.84 0 0 0 .369-.069.9.9 0 0 0 .29-.23q.05-.06.1-.06t.09.05q.05.05.05.1 0 .04-.02.07-.4.609-1.109.609m1.759-1.458-.01-.05q0-.06.08-.1a.1.1 0 0 1 .05-.01q.07 0 .12.08.24.31.47.559.23.24.649.46.43.209.979.209.45 0 .729-.249a.84.84 0 0 0 .29-.65.73.73 0 0 0-.13-.419.9.9 0 0 0-.37-.3q-.25-.12-1.009-.34a4 4 0 0 1-.629-.189q-.989-.41-.989-1.239 0-.22.11-.519a1.3 1.3 0 0 1 .44-.56q.329-.249.919-.249.32 0 .549.079.24.07.28.08.189.07.249.07.15 0 .31-.08a.6.6 0 0 0 .24-.229l.409 1.308.02.07q0 .05-.08.1a.13.13 0 0 1-.06.01.15.15 0 0 1-.109-.05 4.7 4.7 0 0 0-.79-.719q-.43-.32-1.058-.32-.33 0-.55.13a.86.86 0 0 0-.309.31.76.76 0 0 0-.09.339q0 .22.14.38.149.15.479.31.21.11.809.279.65.2.949.33.879.399.879 1.209 0 .629-.469 1.028-.47.39-1.279.39-.43 0-1.079-.21a2 2 0 0 0-.289-.07.43.43 0 0 0-.23.07q-.1.07-.25.24zM327.098 235.472q.39 0 .849.2.47.19.829.719.36.52.36 1.439 0 .729-.33 1.288-.33.56-.839.859-.51.3-1.029.3-.459 0-.909-.17a1.8 1.8 0 0 1-.729-.509 1.24 1.24 0 0 1-.28-.809q0-.33.14-.47.15-.15.33-.15.21 0 .379.12.17.11.17.35 0 .13-.06.31l-.03.119a.7.7 0 0 0-.02.15q0 .36.28.55.29.179.639.179.38 0 .7-.249.319-.26.509-.719.2-.47.2-1.079 0-.909-.37-1.459-.37-.549-.989-.549-.749 0-1.418.959l-.29-.19.14-3.776h3.506l-.14.75h-3.046l-.11 2.617q.41-.43.779-.6.37-.18.779-.18m8.568-.219q.61 0 1.079.339.479.33.739.909.26.58.26 1.279 0 .65-.28 1.218-.27.57-.739.919-.47.34-1.009.34-.89 0-1.558-.629v2.097q0 .26.17.34.179.08.469.08h.12q.08 0 .08.13 0 .14-.08.14h-2.228q-.08 0-.08-.14 0-.13.08-.13h.12q.3 0 .47-.08.18-.08.18-.34l-.03-5.324q0-.21-.1-.309a.4.4 0 0 0-.22-.13 5 5 0 0 0-.43-.07q-.06-.01-.08-.05a.5.5 0 0 1-.009-.11q0-.069.059-.09.15-.05 1.519-.389v.599q.71-.6 1.498-.599m-.25 4.565q.26 0 .59-.14t.609-.61q.29-.47.29-1.378 0-.7-.23-1.139-.23-.449-.579-.649a1.4 1.4 0 0 0-.71-.2q-.28 0-.619.14a2.1 2.1 0 0 0-.599.37l-.01 3.036q.25.25.589.41.34.16.669.16m4.899.459q-.549 0-.849-.28-.29-.29-.289-.879v-3.406h-.81v-.369q.38-.12.61-.32.24-.2.409-.589.17-.39.29-1.079h.22v1.988h1.308v.369h-1.318v2.447l.01.899q.01.34.19.55a.59.59 0 0 0 .459.2.84.84 0 0 0 .37-.07.9.9 0 0 0 .289-.23q.05-.06.1-.06t.09.05q.05.05.05.1 0 .04-.02.07-.4.609-1.109.609m1.76-1.458-.01-.05q0-.06.08-.1a.1.1 0 0 1 .05-.01q.07 0 .119.08.24.31.47.559.23.24.649.46.43.209.979.209.45 0 .729-.249a.84.84 0 0 0 .29-.65.72.72 0 0 0-.13-.419.87.87 0 0 0-.369-.3q-.25-.12-1.009-.339-.39-.09-.63-.19-.988-.41-.988-1.239 0-.219.109-.519.12-.31.44-.56.33-.249.919-.249.32 0 .549.08l.28.08a1 1 0 0 0 .25.069q.15 0 .309-.079a.6.6 0 0 0 .24-.23l.41 1.308.02.07q0 .05-.08.1a.14.14 0 0 1-.06.01.15.15 0 0 1-.11-.05 4.7 4.7 0 0 0-.789-.719q-.43-.32-1.059-.32-.33 0-.549.13a.86.86 0 0 0-.31.31.76.76 0 0 0-.09.339.56.56 0 0 0 .14.38q.15.15.479.31.21.11.809.279.65.2.949.33.879.399.879 1.209 0 .629-.469 1.028-.47.39-1.279.39-.43 0-1.079-.21a2 2 0 0 0-.289-.07.43.43 0 0 0-.23.07q-.1.07-.25.24zM364.899 253.226q.389 0 .849.2.47.19.829.719.359.52.359 1.438a2.5 2.5 0 0 1-.329 1.289q-.33.56-.839.859-.51.3-1.029.299-.46 0-.909-.169a1.8 1.8 0 0 1-.729-.51 1.23 1.23 0 0 1-.28-.809q0-.33.14-.469.15-.15.329-.15.21 0 .38.12.17.11.17.349 0 .13-.06.31l-.03.12a.6.6 0 0 0-.02.15q0 .36.28.549.29.18.639.18.38 0 .699-.25.32-.26.509-.719.2-.47.2-1.079 0-.909-.369-1.458-.37-.55-.989-.55-.75 0-1.419.959l-.289-.189.14-3.776h3.506l-.14.749h-3.047l-.11 2.617q.41-.43.779-.599.37-.18.78-.18m8.568-.22q.609 0 1.078.34.48.328.74.909.26.579.259 1.278 0 .65-.279 1.219-.27.569-.74.919a1.7 1.7 0 0 1-1.008.339 2.2 2.2 0 0 1-1.559-.629v2.098q0 .26.17.339.18.08.47.08h.119q.08 0 .08.13 0 .14-.08.14h-2.227q-.08 0-.08-.14 0-.13.08-.13h.12q.3 0 .469-.08.18-.08.18-.339l-.03-5.324q0-.21-.1-.31a.4.4 0 0 0-.22-.13 5 5 0 0 0-.429-.07q-.06-.01-.08-.05a.5.5 0 0 1-.01-.109q0-.07.06-.09.15-.05 1.518-.39v.599q.71-.599 1.499-.599m-.25 4.565q.26 0 .589-.14.33-.14.61-.609.29-.47.289-1.379 0-.699-.23-1.138-.23-.45-.579-.65a1.4 1.4 0 0 0-.709-.199 1.6 1.6 0 0 0-.619.139 2.1 2.1 0 0 0-.6.37l-.01 3.037q.25.25.59.409.339.16.669.16m4.899.459q-.549 0-.849-.279-.29-.29-.29-.879v-3.406h-.809v-.37q.38-.12.609-.32.24-.2.41-.589.17-.39.29-1.079h.219v1.988h1.309v.37h-1.319v2.447l.01.899q.01.339.19.549.18.2.46.2a.8.8 0 0 0 .369-.07.9.9 0 0 0 .29-.23q.05-.06.1-.06t.09.05q.05.05.05.1 0 .04-.02.07-.4.609-1.109.609m1.759-1.458-.01-.05q0-.06.08-.1a.1.1 0 0 1 .05-.01q.07 0 .12.08.24.31.47.56.23.24.649.459.429.21.979.21.448 0 .729-.25a.84.84 0 0 0 .29-.649.73.73 0 0 0-.13-.42.9.9 0 0 0-.37-.299q-.25-.12-1.009-.34a4 4 0 0 1-.629-.19q-.989-.41-.989-1.238 0-.22.11-.52.12-.31.439-.559.33-.25.919-.25.32 0 .55.08.24.07.279.08.19.07.25.07.15 0 .31-.08a.63.63 0 0 0 .24-.23l.409 1.309.02.07q0 .05-.08.1a.155.155 0 0 1-.17-.04 4.7 4.7 0 0 0-.789-.72q-.429-.32-1.059-.319-.329 0-.549.13a.86.86 0 0 0-.31.309.76.76 0 0 0-.089.34q0 .22.139.379.15.15.48.31.21.11.809.28.65.2.949.329.879.4.879 1.209 0 .63-.47 1.029-.47.39-1.278.389-.43 0-1.079-.209a1.6 1.6 0 0 0-.29-.07.4.4 0 0 0-.229.07q-.1.07-.25.239zM293.457 483.549l2.082-3.607h-4.165zm-.361-10.862v7.615h.721v-7.615zM331.376 483.549l2.083-3.607h-4.166zm-.361-10.862v7.615h.722v-7.615zM369.49 483.549l2.082-3.607h-4.165zm-.361-10.862v7.615h.721v-7.615zM407.348 483.549l2.083-3.607h-4.165zm-.36-10.862v7.615h.721v-7.615zM444.961 483.549l2.083-3.607h-4.165zm-.361-10.862v7.615h.722v-7.615zM483.323 483.549l2.082-3.607h-4.165zm-.361-10.862v7.615h.721v-7.615zM520.998 483.549l2.083-3.607h-4.165zm-.361-10.862v7.615h.722v-7.615z"/><path fill="#1F1B1B" d="m559.416 483.549 2.083-3.607h-4.165zm-.36-10.862v7.615h.721v-7.615z"/><path fill="#000" d="M631.352 458.135v.657h-1.687v5.531h-.808v-5.531h-1.696v-.657zm1.412.532a.53.53 0 0 1-.391-.159.54.54 0 0 1-.16-.391q0-.23.16-.391a.54.54 0 0 1 .391-.16q.222 0 .373.16.16.16.16.391a.54.54 0 0 1-.16.391.5.5 0 0 1-.373.159m.391.791v4.865h-.808v-4.865zm7.228-.089q.568 0 1.012.24.444.23.702.701.257.47.257 1.145v2.868h-.799v-2.752q0-.729-.364-1.11-.355-.391-.968-.391-.63 0-1.003.409-.373.4-.373 1.163v2.681h-.799v-2.752q0-.729-.364-1.11-.356-.391-.968-.391-.63 0-1.003.409-.373.4-.373 1.163v2.681h-.808v-4.865h.808v.701q.24-.382.639-.586.408-.204.897-.204.612 0 1.083.275.47.276.701.808.205-.515.675-.799a2 2 0 0 1 1.048-.284m7.736 2.335q0 .231-.027.488h-3.889q.045.72.489 1.128.452.399 1.092.399.524 0 .87-.239a1.3 1.3 0 0 0 .497-.657h.87q-.196.7-.781 1.145-.586.435-1.456.435-.693 0-1.243-.311a2.2 2.2 0 0 1-.853-.879q-.31-.576-.31-1.331 0-.756.301-1.323a2.1 2.1 0 0 1 .844-.871q.55-.31 1.261-.31.692 0 1.225.302.532.301.817.834.293.524.293 1.19m-.835-.169q0-.462-.204-.79a1.3 1.3 0 0 0-.559-.506 1.7 1.7 0 0 0-.773-.178 1.52 1.52 0 0 0-1.048.391q-.426.39-.488 1.083z"/><rect width="56" height="14" x="404" y="491" fill="#D9D9D9" rx="2"/><path fill="#000" d="M414.492 494.811V501h-.808v-6.189zm2.362 1.989v2.868q0 .356.151.506.151.142.524.142h.595V501h-.728q-.675 0-1.012-.311-.338-.31-.338-1.021V496.8h-.63v-.666h.63v-1.225h.808v1.225h1.27v.666zm6.688 1.581q0 .23-.026.488h-3.889q.044.72.488 1.128.453.399 1.092.399.524 0 .87-.239a1.3 1.3 0 0 0 .498-.658h.87q-.196.702-.782 1.146-.586.435-1.456.435-.692 0-1.243-.311a2.2 2.2 0 0 1-.852-.879q-.31-.577-.311-1.332 0-.755.302-1.323a2.1 2.1 0 0 1 .843-.87 2.5 2.5 0 0 1 1.261-.311q.692 0 1.226.302.533.303.816.835.293.524.293 1.19m-.834-.169q0-.462-.204-.79a1.3 1.3 0 0 0-.56-.506 1.66 1.66 0 0 0-.772-.178q-.613 0-1.048.391-.426.39-.488 1.083zm2.709-1.287q.213-.418.604-.649.4-.23.967-.23v.834h-.213q-1.358 0-1.358 1.474V501h-.808v-4.866h.808zm2.202 1.624q0-.745.302-1.305.302-.569.826-.879a2.3 2.3 0 0 1 1.181-.311q.639 0 1.11.276.47.275.701.692v-.888h.817V501h-.817v-.906q-.24.426-.719.711a2.15 2.15 0 0 1-1.101.275q-.648 0-1.172-.32a2.24 2.24 0 0 1-.826-.896 2.8 2.8 0 0 1-.302-1.315m4.12.009a2 2 0 0 0-.222-.959 1.53 1.53 0 0 0-.604-.621 1.6 1.6 0 0 0-.825-.222q-.453 0-.826.213a1.54 1.54 0 0 0-.595.622 2 2 0 0 0-.222.958q0 .56.222.977.222.409.595.631.373.213.826.213t.825-.213a1.6 1.6 0 0 0 .604-.631 2 2 0 0 0 .222-.968m3.168-1.758v2.868q0 .356.151.506.15.142.524.142h.595V501h-.729q-.674 0-1.012-.311-.337-.31-.337-1.021V496.8h-.631v-.666h.631v-1.225h.808v1.225h1.27v.666zm2.666-1.456a.53.53 0 0 1-.391-.16.53.53 0 0 1-.16-.39q0-.23.16-.391a.53.53 0 0 1 .391-.16q.222 0 .373.16.16.16.16.391a.53.53 0 0 1-.16.39.5.5 0 0 1-.373.16m.39.79V501h-.807v-4.866zm3.5 4.946q-.685 0-1.243-.311a2.27 2.27 0 0 1-.871-.879q-.31-.577-.31-1.332 0-.745.319-1.314a2.2 2.2 0 0 1 .888-.879q.56-.31 1.252-.311.693 0 1.252.311.56.302.879.87.329.568.329 1.323t-.338 1.332a2.3 2.3 0 0 1-.897.879 2.6 2.6 0 0 1-1.26.311m0-.71q.435 0 .816-.205.382-.204.613-.612.24-.409.24-.995t-.231-.994a1.5 1.5 0 0 0-.604-.604 1.66 1.66 0 0 0-.808-.204q-.444 0-.817.204-.363.195-.586.604-.222.408-.222.994 0 .595.213 1.004.223.408.586.612.365.196.8.196m5.928-4.324q.887 0 1.438.541.55.533.55 1.545V501h-.799v-2.752q0-.729-.364-1.11-.364-.391-.994-.391-.64 0-1.021.4-.373.4-.373 1.163V501h-.808v-4.866h.808v.693a1.6 1.6 0 0 1 .648-.577q.417-.204.915-.204"/><rect width="16" height="62" x="203" y="310" fill="#D9D9D9" rx="2"/><path fill="#000" d="m208.471 361.509 2.069.004.003-2.256.666.001-.003 2.256 2.131.003.004-2.521.666.001-.006 3.329-6.197-.01.005-3.33.666.002zm1.341-5.722-.001 1.021 4.199.007-.001.808-4.2-.007-.001.631-.666-.001.001-.631h-.346q-.817-.001-1.189-.42-.381-.426-.38-1.359l.675.001q0 .533.212.755.204.214.683.215h.347l.001-1.021zm.005-2.922-.002 1.021 4.2.007-.001.808-4.2-.007-.001.631-.666-.002.001-.63-.346-.001q-.817 0-1.189-.419-.381-.426-.38-1.359l.675.001q0 .533.212.755.204.214.683.215h.347l.001-1.021zm4.285-3.057q-.001.684-.313 1.243a2.26 2.26 0 0 1-.88.868q-.579.31-1.333.309-.746-.001-1.313-.322a2.23 2.23 0 0 1-.878-.889 2.55 2.55 0 0 1-.309-1.253q.002-.692.313-1.251.303-.559.872-.878.569-.327 1.323-.326.755.001 1.332.34.567.329.877.898.31.568.309 1.261m-.71-.001q0-.435-.203-.817a1.53 1.53 0 0 0-.612-.614q-.408-.24-.994-.241t-.995.229a1.5 1.5 0 0 0-.605.603 1.65 1.65 0 0 0-.205.807q-.001.445.203.817.194.365.603.588.408.222.994.223.595.001 1.003-.211a1.5 1.5 0 0 0 .614-.585q.196-.364.197-.799m-3.438-4.371a1.56 1.56 0 0 1-.647-.605q-.23-.4-.23-.968l.835.001v.213q-.003 1.36 1.471 1.361l2.646.005-.001.808-4.866-.008.002-.808zm-.119-3.49 2.868.005q.355 0 .507-.15.142-.151.142-.524l.001-.595.684.001-.001.728q-.001.675-.313 1.012-.311.337-1.021.336l-2.868-.005-.001.63-.666-.001.001-.63-1.225-.002.001-.808 1.225.002.003-1.27.665.001zm5.859-4.317q-.837.851-2.125 1.329a8 8 0 0 1-2.779.466 8 8 0 0 1-2.85-.502q-1.33-.509-2.19-1.442l.001-.844h.08a6 6 0 0 0 2.244 1.505q1.304.499 2.716.501a7.4 7.4 0 0 0 2.629-.466 6.4 6.4 0 0 0 2.195-1.39h.08zm-5.616-2.771a1.9 1.9 0 0 1-.691-.712 2.14 2.14 0 0 1-.283-1.11q.001-.648.313-1.172.312-.531.88-.833.56-.3 1.306-.299.736 0 1.314.304.576.302.895.836.319.524.318 1.172a2.2 2.2 0 0 1-.277 1.101q-.285.47-.703.718l3.205.005-.001.808-7.174-.012.001-.808zm1.524-3.301q-.55 0-.96.221-.409.22-.622.602a1.64 1.64 0 0 0-.215.826 1.62 1.62 0 0 0 .85 1.431q.408.223.95.223.55.001.968-.22.409-.23.632-.603.214-.381.214-.825a1.6 1.6 0 0 0-.212-.826 1.6 1.6 0 0 0-.629-.605 2.05 2.05 0 0 0-.976-.224m-1.745-2.877 2.868.004q.356.002.507-.15.141-.15.143-.523l.001-.595.683.001-.001.728q-.001.675-.312 1.012-.312.336-1.022.335l-2.868-.004-.001.63-.666-.001.001-.631-1.225-.002.001-.808 1.225.003.003-1.27.665.001zm4.287-3.964a2.6 2.6 0 0 1-.189 1.003q-.195.443-.533.7a1.44 1.44 0 0 1-.791.283l.001-.835a.82.82 0 0 0 .596-.336q.23-.31.232-.808 0-.46-.203-.728a.62.62 0 0 0-.515-.267.5.5 0 0 0-.471.283q-.16.284-.312.879a7 7 0 0 1-.286.887q-.151.338-.436.585-.293.24-.764.239a1.16 1.16 0 0 1-.683-.223 1.5 1.5 0 0 1-.487-.632 2.2 2.2 0 0 1-.185-.932q.002-.809.411-1.305t1.119-.531l-.001.808a.83.83 0 0 0-.613.31q-.232.275-.232.746-.001.435.185.692a.58.58 0 0 0 .488.259.56.56 0 0 0 .4-.151q.15-.159.249-.39.089-.24.205-.657.143-.524.286-.851.133-.329.409-.559.276-.24.72-.248.4.001.719.224.319.222.505.631.176.399.176.924m1.576-2.657h-.08a6.3 6.3 0 0 0-2.191-1.389 7.3 7.3 0 0 0-2.627-.483 7.4 7.4 0 0 0-2.718.501 5.9 5.9 0 0 0-2.249 1.488h-.08l.001-.844q.863-.93 2.196-1.425a7.9 7.9 0 0 1 2.851-.502 7.9 7.9 0 0 1 2.778.484q1.287.473 2.12 1.327z"/><path fill="#000" fill-opacity=".18" d="m655.72 394.493-2.883-4.994-2.884 4.994zM284.815 180.928l366.763 211.75.499-.865-366.763-211.75z"/><path fill="#FFD084" fill-rule="evenodd" d="M420.232 225.868a4.91 4.91 0 0 0-4.912 4.912v17.184l-21.379 7.595 21.379 8.876v13.91a4.91 4.91 0 0 0 4.912 4.911h101.577a4.91 4.91 0 0 0 4.912-4.911V230.78a4.91 4.91 0 0 0-4.912-4.912z" clip-rule="evenodd"/><path fill="#000" d="m415.32 247.964.168.471.332-.118v-.353zm-21.379 7.595-.167-.471-1.224.435 1.199.498zm21.379 8.876h.5v-.334l-.308-.128zm.5-33.655a4.41 4.41 0 0 1 4.412-4.412v-1a5.41 5.41 0 0 0-5.412 5.412zm0 17.184V230.78h-1v17.184zm-.667-.471-21.379 7.595.335.943 21.379-7.596zm-21.404 8.528 21.38 8.875.383-.923-21.379-8.875zm22.071 22.324v-13.91h-1v13.91zm4.412 4.411a4.41 4.41 0 0 1-4.412-4.411h-1a5.41 5.41 0 0 0 5.412 5.411zm101.577 0H420.232v1h101.577zm4.412-4.411a4.41 4.41 0 0 1-4.412 4.411v1a5.41 5.41 0 0 0 5.412-5.411zm0-47.565v47.565h1V230.78zm-4.412-4.412a4.41 4.41 0 0 1 4.412 4.412h1a5.41 5.41 0 0 0-5.412-5.412zm-101.577 0h101.577v-1H420.232zM453.463 242.065l-2.005 7.175h-1.696l-1.346-5.109-1.409 5.109-1.685.011-1.933-7.186h1.542l1.264 5.572 1.46-5.572h1.603l1.378 5.541 1.274-5.541zm3.468 7.268a3.03 3.03 0 0 1-1.48-.36 2.7 2.7 0 0 1-1.038-1.038q-.37-.669-.371-1.542 0-.875.381-1.542.39-.668 1.059-1.028.668-.37 1.49-.37t1.491.37q.667.36 1.048 1.028.39.667.391 1.542 0 .873-.401 1.542a2.74 2.74 0 0 1-1.069 1.038q-.669.36-1.501.36m0-1.254q.39 0 .73-.185.35-.196.555-.576t.205-.925q0-.812-.431-1.244a1.38 1.38 0 0 0-1.038-.442q-.618 0-1.039.442-.411.432-.411 1.244 0 .811.401 1.254a1.36 1.36 0 0 0 1.028.432m5.465-3.649q.278-.453.72-.71a2.05 2.05 0 0 1 1.028-.257v1.511h-.381q-.678 0-1.027.319-.34.319-.34 1.11v2.837h-1.439v-5.694h1.439zm6.089 4.81-1.933-2.426v2.426h-1.439v-7.606h1.439v4.327l1.912-2.415h1.871l-2.508 2.857 2.528 2.837zm7.588-7.175q1.13 0 1.984.442a3.1 3.1 0 0 1 1.326 1.265q.473.812.473 1.891 0 1.08-.473 1.891-.462.803-1.326 1.244-.853.442-1.984.442h-2.508v-7.175zm-.051 5.952q1.13 0 1.747-.617t.617-1.737-.617-1.747q-.616-.638-1.747-.638h-1.018v4.739zm7.44 1.316a3.03 3.03 0 0 1-1.48-.36 2.7 2.7 0 0 1-1.038-1.038q-.37-.669-.37-1.542 0-.875.38-1.542.39-.668 1.059-1.028.668-.37 1.49-.37t1.491.37q.668.36 1.048 1.028.391.667.391 1.542 0 .873-.401 1.542a2.74 2.74 0 0 1-1.069 1.038q-.669.36-1.501.36m0-1.254q.39 0 .73-.185.35-.196.555-.576t.206-.925q0-.812-.432-1.244a1.38 1.38 0 0 0-1.038-.442q-.618 0-1.039.442-.411.432-.411 1.244 0 .811.401 1.254a1.36 1.36 0 0 0 1.028.432m7.182-4.616q1.017 0 1.645.648.627.637.627 1.789v3.34h-1.439v-3.145q0-.679-.34-1.038-.339-.37-.925-.37-.596 0-.945.37-.34.36-.34 1.038v3.145h-1.439v-5.694h1.439v.709q.288-.37.73-.576.453-.216.987-.216m8.934 2.807q0 .308-.041.555h-4.163q.051.617.432.966.38.35.935.349.801 0 1.141-.688h1.552q-.246.822-.946 1.357-.699.524-1.716.524a3.03 3.03 0 0 1-1.48-.36 2.65 2.65 0 0 1-1.018-1.038q-.36-.669-.36-1.542 0-.884.36-1.552t1.007-1.028q.648-.36 1.491-.36.811 0 1.449.35.648.35.997.997.36.637.36 1.47m-1.49-.412q-.01-.555-.401-.884a1.4 1.4 0 0 0-.956-.339q-.535 0-.905.329-.36.32-.442.894zm-56.275 12.207v1.162h-1.912v6.013h-1.439v-6.013h-1.912v-1.162zm4.257 1.398q.648 0 1.152.288.503.278.781.833.288.545.288 1.316v3.34h-1.439v-3.145q0-.679-.34-1.038-.339-.37-.925-.37-.596 0-.945.37-.34.36-.34 1.038v3.145h-1.439v-7.606h1.439v2.621q.278-.37.74-.576a2.4 2.4 0 0 1 1.028-.216m3.219 2.909q0-.863.339-1.531.35-.668.936-1.028.595-.36 1.326-.36.638 0 1.11.257.483.257.771.648v-.812h1.449v5.694h-1.449v-.832q-.277.4-.771.668a2.36 2.36 0 0 1-1.121.257 2.45 2.45 0 0 1-1.315-.37 2.65 2.65 0 0 1-.936-1.038q-.339-.679-.339-1.553m4.482.021q0-.525-.206-.894a1.4 1.4 0 0 0-.555-.576 1.46 1.46 0 0 0-.75-.206 1.46 1.46 0 0 0-.74.196 1.5 1.5 0 0 0-.555.575 1.8 1.8 0 0 0-.206.884q0 .515.206.905.216.38.555.586.349.205.74.205.4 0 .75-.195.35-.205.555-.576.206-.38.206-.904m4.53-1.665v2.754q0 .288.134.422.143.123.473.123h.668v1.213h-.905q-1.82 0-1.819-1.768v-2.744h-.679v-1.182h.679v-1.409h1.449v1.409h1.275v1.182zm6.198-2.663v7.175h-1.439v-7.175zm3.098 2.663v2.754q0 .288.133.422.144.123.473.123h.668v1.213h-.904q-1.82 0-1.82-1.768v-2.744h-.678v-1.182h.678v-1.409h1.45v1.409h1.274v1.182zm7.603 1.542q0 .308-.041.555h-4.163q.051.617.432.966.38.35.935.349.802 0 1.141-.688h1.552a2.62 2.62 0 0 1-.945 1.357q-.7.524-1.717.524a3.03 3.03 0 0 1-1.48-.36 2.65 2.65 0 0 1-1.018-1.038q-.36-.669-.36-1.542 0-.884.36-1.552t1.007-1.028q.648-.36 1.491-.36.811 0 1.449.35.648.35.997.997.36.637.36 1.47m-1.49-.412q-.01-.554-.401-.884a1.4 1.4 0 0 0-.956-.339q-.535 0-.905.329-.36.32-.442.894zm3.98-1.428q.277-.453.719-.71a2.05 2.05 0 0 1 1.028-.257v1.511h-.38q-.679 0-1.028.319-.339.319-.339 1.11v2.837h-1.439v-5.694h1.439zm2.346 1.942q0-.863.34-1.531.349-.668.935-1.028.595-.36 1.326-.36.638 0 1.11.257.483.257.771.648v-.812h1.449v5.694h-1.449v-.832q-.278.4-.771.668a2.35 2.35 0 0 1-1.12.257q-.72 0-1.316-.37a2.65 2.65 0 0 1-.935-1.038q-.34-.679-.34-1.553m4.482.021q0-.525-.206-.894a1.4 1.4 0 0 0-.555-.576 1.46 1.46 0 0 0-.75-.206 1.46 1.46 0 0 0-.74.196 1.5 1.5 0 0 0-.555.575 1.8 1.8 0 0 0-.206.884q0 .515.206.905.216.38.555.586.35.205.74.205.4 0 .75-.195.35-.205.555-.576.206-.38.206-.904m4.53-1.665v2.754q0 .288.134.422.144.123.473.123h.668v1.213h-.905q-1.818 0-1.819-1.768v-2.744h-.678v-1.182h.678v-1.409h1.449v1.409h1.275v1.182zm3.04-1.861a.9.9 0 0 1-.637-.236.82.82 0 0 1-.247-.607.8.8 0 0 1 .247-.596.89.89 0 0 1 .637-.247q.38 0 .627.247a.78.78 0 0 1 .257.596.8.8 0 0 1-.257.607.87.87 0 0 1-.627.236m.709.679v5.694h-1.439v-5.694zm3.951 5.787q-.823 0-1.481-.36a2.7 2.7 0 0 1-1.038-1.038q-.37-.669-.37-1.542 0-.875.381-1.542a2.7 2.7 0 0 1 1.058-1.028q.669-.37 1.491-.37t1.49.37q.669.36 1.049 1.028.39.668.39 1.542 0 .873-.401 1.542-.39.667-1.069 1.038-.667.36-1.5.36m0-1.254q.39 0 .729-.185.35-.196.556-.576.205-.38.205-.925 0-.812-.432-1.244a1.38 1.38 0 0 0-1.038-.442q-.617 0-1.038.442-.411.432-.411 1.244 0 .811.401 1.254a1.36 1.36 0 0 0 1.028.432m7.182-4.616q1.017 0 1.644.648.627.637.627 1.789v3.34h-1.439v-3.145q0-.679-.339-1.038-.339-.37-.925-.37-.597 0-.946.37-.339.36-.339 1.038v3.145h-1.439v-5.694h1.439v.709q.288-.37.73-.576.452-.216.987-.216"/><path fill="#FFD084" d="M297 103.554a2.553 2.553 0 0 1 2.554-2.554h264.892a2.553 2.553 0 0 1 2.554 2.554v24.892a2.553 2.553 0 0 1-2.554 2.554H299.554a2.553 2.553 0 0 1-2.554-2.554z"/><path fill="#000" d="m372.134 121.07.011-1.596h2.562q.7 0 1.067-.378.366-.393.372-1.064.005-.672-.357-1.036-.362-.378-1.061-.378h-2.562l.009-1.218h2.422q1.021 0 1.818.252.81.238 1.254.812.457.574.451 1.54l-.002.196q-.006.909-.417 1.554-.396.63-1.197.98-.786.336-1.948.336zm-1.666 0 .074-10.36h1.946l-.074 10.36zm1.7-4.774.009-1.218h2.184q.714 0 1.053-.378t.343-1.008-.329-1.008-1.047-.378h-2.184l.011-1.596h2.002q1.737 0 2.627.728.905.728.895 2.086l-.001.196q-.008.952-.473 1.526-.453.56-1.252.812-.8.238-1.836.238zm10.373 4.942q-1.315 0-2.038-.868-.707-.869-.695-2.576l.032-4.41h1.946l-.033 4.578q-.006.7.384 1.12.389.406 1.061.406t1.095-.434q.437-.435.442-1.176l.033-4.494h1.946l-.055 7.616h-1.54l.023-3.234h.154q-.008 1.147-.308 1.918-.299.77-.89 1.162t-1.473.392zm6.353-.238.055-7.602h1.54l-.023 3.22h-.042q.012-1.638.718-2.478.705-.84 2.064-.84h.28l-.012 1.694h-.532q-.981 0-1.53.532-.536.517-.543 1.512L390.84 121zm5.838 0 .055-7.602h1.54l-.024 3.262h-.14q.009-1.162.322-1.932.314-.784.919-1.176.618-.392 1.529-.392h.084q1.358 0 2.051.882.694.868.682 2.604l-.032 4.354h-1.946l.033-4.522q.005-.7-.398-1.134-.388-.434-1.089-.434-.714 0-1.165.448-.437.434-.443 1.176l-.032 4.466zm12.226.252a3.6 3.6 0 0 1-1.467-.294 3.4 3.4 0 0 1-1.156-.826 3.7 3.7 0 0 1-.748-1.232 4.4 4.4 0 0 1-.254-1.54l.002-.294q.006-.812.263-1.526.27-.714.737-1.246.48-.532 1.14-.826a3.5 3.5 0 0 1 1.486-.308q.896 0 1.565.392.683.378 1.084 1.148.4.77.434 1.932l-.569-.672.037-5.18h1.946l-.074 10.22h-1.54l.024-3.234h.336q-.05 1.161-.49 1.946-.44.77-1.157 1.162-.702.378-1.599.378m.446-1.638q.575 0 1.052-.252a2 2 0 0 0 .762-.756q.297-.504.302-1.176l.004-.56q.005-.672-.286-1.12a1.9 1.9 0 0 0-.765-.7 2.2 2.2 0 0 0-1.034-.252q-.63 0-1.122.308a2.1 2.1 0 0 0-.762.84q-.27.546-.275 1.274t.27 1.274q.276.531.75.826a2.1 2.1 0 0 0 1.104.294m9.847 1.652q-1.008 0-1.775-.322a3.85 3.85 0 0 1-1.296-.868 3.9 3.9 0 0 1-.803-1.26 4 4 0 0 1-.255-1.456l.002-.294a4 4 0 0 1 .29-1.484q.3-.714.835-1.26a3.8 3.8 0 0 1 1.323-.868q.772-.322 1.738-.322t1.734.322q.768.308 1.295.868a3.6 3.6 0 0 1 .817 1.26q.275.7.27 1.484l-.002.294a3.9 3.9 0 0 1-.291 1.456 3.8 3.8 0 0 1-.807 1.26 3.9 3.9 0 0 1-1.308.868q-.772.321-1.767.322m.012-1.666q.714 0 1.207-.308.492-.323.748-.854a2.9 2.9 0 0 0 .261-1.232q.004-.7-.257-1.232a1.9 1.9 0 0 0-.75-.854q-.488-.322-1.174-.322t-1.192.322a2.06 2.06 0 0 0-.762.854q-.27.532-.275 1.232-.006.686.243 1.232.262.531.75.854.487.308 1.201.308m8.278 1.4 1.495-7.35h2.24l1.613 7.35h-1.54l-1.641-7.308h.812L426.969 121zm-.574 0-.002-1.596h1.554l-.012 1.596zm-.784 0-2.017-7.602h1.89l1.919 7.602zm5.656 0 .012-1.596h1.554l-.026 1.596zm.616 0 1.805-7.602h1.764L432.135 121zm5.047 0 .054-7.602h1.54l-.023 3.262h-.14q.009-1.162.322-1.932.313-.784.918-1.176.62-.392 1.529-.392h.084q1.358 0 2.052.882.693.868.681 2.604l-.031 4.354h-1.946l.032-4.522q.006-.7-.398-1.134-.389-.434-1.088-.434-.714 0-1.166.448-.437.434-.442 1.176l-.032 4.466zm16.857.266q-1.386 0-2.376-.49a4.7 4.7 0 0 1-1.615-1.274 5.4 5.4 0 0 1-.898-1.708 5.9 5.9 0 0 1-.281-1.778l.002-.308q.008-.952.308-1.876.314-.924.95-1.68a4.6 4.6 0 0 1 1.605-1.204q.982-.462 2.313-.462 1.387 0 2.404.504a4 4 0 0 1 1.642 1.4q.61.895.727 2.1h-2.002q-.107-.7-.495-1.176a2.25 2.25 0 0 0-.961-.728 3.3 3.3 0 0 0-1.328-.252q-.756 0-1.346.266a2.6 2.6 0 0 0-.985.728 3.4 3.4 0 0 0-.61 1.12 4.9 4.9 0 0 0-.207 1.428q-.005.756.186 1.4.206.644.608 1.134.402.475.989.742.6.266 1.384.266 1.147 0 1.936-.56.802-.575.977-1.596h2.002a4.7 4.7 0 0 1-.756 2.002q-.609.91-1.663 1.456-1.053.546-2.51.546m6.426-.266.074-10.22h1.946l-.043 5.964h-.336q.008-1.148.308-1.946t.876-1.218q.591-.42 1.487-.42h.084q1.302 0 1.968.896.666.895.653 2.604l-.031 4.34h-1.946l.032-4.522q.006-.728-.411-1.148-.403-.42-1.075-.42-.714 0-1.166.476-.437.462-.442 1.218l-.032 4.396zm13.684 0 .016-2.254h-.322l.018-2.506q.005-.658-.315-.98t-.991-.322q-.351 0-.84.014-.49.013-.995.042-.49.013-.882.042l.012-1.652q.323-.028.728-.056.407-.028.827-.028.434-.014.812-.014 1.176 0 1.943.308.783.308 1.169.966.402.659.394 1.722l-.034 4.718zm-2.451.196q-.827 0-1.454-.294a2.27 2.27 0 0 1-.96-.84q-.332-.546-.327-1.316.006-.84.416-1.372.424-.532 1.168-.798.758-.266 1.766-.266h1.764l-.009 1.162h-1.792q-.672 0-1.038.336-.353.321-.356.84-.004.517.344.84.362.322 1.034.322.405 0 .743-.14a1.3 1.3 0 0 0 .577-.504q.241-.365.273-.98l.472.546q-.075.798-.401 1.344-.313.546-.874.84-.549.28-1.346.28m6.075-.196.055-7.602h1.54l-.023 3.22h-.042q.012-1.638.718-2.478.707-.84 2.064-.84h.28l-.012 1.694h-.532q-.98 0-1.53.532-.535.517-.543 1.512l-.029 3.962zm9.306.098q-1.05 0-1.734-.266a1.93 1.93 0 0 1-1.002-.924q-.331-.658-.323-1.764l.064-6.888h1.82l-.065 7.014q-.004.56.288.868.305.294.866.294h1.19l-.012 1.666zm-4.239-6.272.01-1.428h5.376l-.01 1.428zm9.666 6.412q-1.568 0-2.459-.658-.877-.672-.911-1.848h1.75q.04.391.429.714.39.322 1.23.322.7 0 1.108-.252.422-.252.425-.686a.69.69 0 0 0-.318-.602q-.306-.225-1.062-.294l-.671-.07q-1.274-.14-1.955-.728-.682-.588-.675-1.568.006-.784.402-1.316a2.4 2.4 0 0 1 1.083-.798q.702-.28 1.598-.28 1.4 0 2.264.616.864.617.897 1.806h-1.75q-.026-.392-.387-.672-.362-.28-1.048-.28-.617 0-.954.238t-.34.616q-.003.364.262.56.277.196.894.266l.671.07q1.344.14 2.095.742.765.601.758 1.624a2.15 2.15 0 0 1-.429 1.316q-.41.546-1.154.854-.745.308-1.753.308"/><path fill="#C5ADFA" d="M691 405h92v90h-92z"/><path fill="#000" d="M722.143 447v-7.3h1.42v7.3zm-4.79 0v-7.3h1.42v7.3zm1.16-3.03v-1.25h3.89v1.25zm9.348 3.22q-.72 0-1.27-.23a2.8 2.8 0 0 1-.93-.62 2.8 2.8 0 0 1-.58-.9 2.9 2.9 0 0 1-.19-1.04v-.21q0-.56.2-1.06.21-.51.59-.9.39-.4.94-.62.55-.23 1.24-.23t1.24.23q.55.22.93.62.39.39.59.9.2.5.2 1.06v.21q0 .54-.2 1.04a2.7 2.7 0 0 1-.57.9q-.38.39-.93.62a3.3 3.3 0 0 1-1.26.23m0-1.19q.51 0 .86-.22a1.47 1.47 0 0 0 .53-.61q.18-.39.18-.88 0-.5-.19-.88-.18-.39-.54-.61a1.5 1.5 0 0 0-.84-.23q-.49 0-.85.23-.35.22-.54.61-.19.38-.19.88 0 .49.18.88.19.38.54.61.35.22.86.22m5.92 1 1.03-5.25h1.6l1.19 5.25h-1.1l-1.21-5.22h.58l-1.07 5.22zm-.41 0-.01-1.14h1.11V447zm-.56 0-1.48-5.43h1.35l1.41 5.43zm4.04 0v-1.14h1.11l-.01 1.14zm.44 0 1.25-5.43h1.26l-1.31 5.43zm6.023 0v-5.43h1.39V447zm-.76-4.39v-1.04h2.15v1.04zm1.27-1.69q-.41 0-.61-.21a.8.8 0 0 1-.19-.54q0-.34.19-.55.2-.21.61-.21t.6.21a.8.8 0 0 1 .19.55.8.8 0 0 1-.19.54q-.19.21-.6.21m4.842 6.15q-.75 0-1.24-.19a1.4 1.4 0 0 1-.72-.66q-.24-.47-.24-1.26l.01-4.92h1.3l-.01 5.01q0 .4.21.62.22.21.62.21h.85v1.19zm-3.06-4.48v-1.02h3.84v1.02zm4.636.4v-.78h.24q.29 0 .46-.09a.54.54 0 0 0 .25-.3q.08-.22.08-.58v-.74l.29.56a.7.7 0 0 1-.2.09q-.129.03-.27.03a.8.8 0 0 1-.55-.2q-.22-.21-.22-.57 0-.34.21-.57.21-.24.6-.24.25 0 .46.12.22.11.35.4.13.28.13.78v.17q0 .71-.2 1.13-.19.42-.56.61-.369.18-.9.18zm4.577 4.18q-1.12 0-1.76-.47-.63-.48-.66-1.32h1.25q.03.28.31.51t.88.23q.5 0 .79-.18.3-.18.3-.49a.5.5 0 0 0-.23-.43q-.22-.16-.76-.21l-.48-.05q-.91-.1-1.4-.52t-.49-1.12q0-.56.28-.94t.77-.57q.5-.2 1.14-.2.999 0 1.62.44.62.44.65 1.29h-1.25q-.02-.28-.28-.48-.261-.2-.75-.2-.44 0-.68.17a.52.52 0 0 0-.24.44q0 .26.19.4.2.14.64.19l.48.05q.96.1 1.5.53.55.43.55 1.16 0 .54-.3.94-.29.39-.82.61t-1.25.22M723.976 461l1.03-5.25h1.6l1.19 5.25h-1.1l-1.21-5.22h.58l-1.07 5.22zm-.41 0-.01-1.14h1.11V461zm-.56 0-1.48-5.43h1.35l1.41 5.43zm4.04 0v-1.14h1.11l-.01 1.14zm.44 0 1.25-5.43h1.26l-1.31 5.43zm6.098.19q-.72 0-1.27-.23a2.8 2.8 0 0 1-.93-.62 2.8 2.8 0 0 1-.58-.9 2.9 2.9 0 0 1-.19-1.04v-.21q0-.56.2-1.06a2.8 2.8 0 0 1 .59-.9q.39-.4.94-.62a3.2 3.2 0 0 1 1.24-.23q.69 0 1.24.23a2.6 2.6 0 0 1 .93.62q.39.39.59.9.2.5.2 1.06v.21q0 .54-.2 1.04a2.7 2.7 0 0 1-.57.9q-.381.39-.93.62a3.3 3.3 0 0 1-1.26.23m0-1.19q.51 0 .86-.22a1.47 1.47 0 0 0 .53-.61q.18-.39.18-.88 0-.5-.19-.88-.18-.39-.54-.61a1.5 1.5 0 0 0-.84-.23q-.49 0-.85.23a1.45 1.45 0 0 0-.54.61q-.19.38-.19.88 0 .49.18.88.189.38.54.61.35.22.86.22m4.177 1v-5.43h1.1v2.3h-.03q0-1.17.5-1.77t1.47-.6h.2v1.21h-.38q-.7 0-1.09.38-.38.37-.38 1.08V461zm7.97 0-1.82-2.54h-.81l2.31-2.89h1.45l-2.13 2.67.03-.7 2.54 3.46zm-3.8 0v-7.3h1.39v7.3zm7.017-2.36v-1.78h.85q.6 0 .88-.31a1.12 1.12 0 0 0 .29-.78q0-.33-.13-.57a.87.87 0 0 0-.38-.38 1.24 1.24 0 0 0-.58-.13q-.36 0-.62.15-.25.15-.39.4t-.14.58h-1.33q0-.64.29-1.17a2.1 2.1 0 0 1 .85-.84q.56-.32 1.37-.32.74 0 1.27.29.54.28.83.77t.29 1.11v.12q0 .61-.29 1.09t-.86.76q-.56.27-1.37.29l.57-.52-.02 1.24zm-.11 2.36v-1.48h1.6V461z"/><path fill="#FF36A2" d="M374.542 523.007c1.162-.387 2.267.718 1.88 1.879l-5.862 17.586c-.436 1.307-2.262 1.369-2.784.094l-2.042-4.981a7.88 7.88 0 0 0-3.928-3.927l-4.927-2.008c-1.278-.52-1.218-2.349.091-2.785z"/><path fill="#fff" d="M355.629 552.629c0-7.409-6.006-13.415-13.415-13.415H289.5c-7.408 0-13.414 6.006-13.414 13.415s6.006 13.414 13.414 13.414h52.714c7.409 0 13.415-6.006 13.415-13.414"/><path fill="#FF36A2" fill-opacity=".2" d="M355.629 552.629c0-7.409-6.006-13.415-13.415-13.415H289.5c-7.408 0-13.414 6.006-13.414 13.415s6.006 13.414 13.414 13.414h52.714c7.409 0 13.415-6.006 13.415-13.414"/><path stroke="#FF36A2" stroke-width="1.486" d="M355.629 552.629c0-7.409-6.006-13.415-13.415-13.415H289.5c-7.408 0-13.414 6.006-13.414 13.415s6.006 13.414 13.414 13.414h52.714c7.409 0 13.415-6.006 13.415-13.414Z"/><path fill="#000" d="M302.341 557.188v-1.355h2.175q.595 0 .904-.321.309-.333.309-.903t-.309-.88q-.309-.321-.904-.321h-2.175v-1.034h2.057a5.1 5.1 0 0 1 1.545.214q.689.203 1.069.689.393.487.393 1.308v.166q0 .773-.345 1.32-.333.534-1.01.832-.666.285-1.652.285zm-1.414 0v-8.796h1.652v8.796zm1.414-4.053v-1.034h1.854q.607 0 .892-.321.285-.32.285-.856 0-.535-.285-.856t-.892-.321h-1.854v-1.355h1.7q1.474 0 2.234.618.774.62.773 1.771v.167q0 .809-.392 1.295-.38.476-1.058.69a5.5 5.5 0 0 1-1.557.202zm6.638 3.993v-6.454h1.308v2.734h-.036q0-1.39.594-2.104.594-.713 1.747-.713h.238v1.438h-.451q-.833 0-1.296.452-.452.44-.452 1.284v3.363zm5.265 0v-6.454h1.653v6.454zm-.903-5.217v-1.237h2.556v1.237zm1.51-2.009q-.488 0-.725-.25a.95.95 0 0 1-.226-.642q0-.404.226-.653.237-.25.725-.25.487 0 .713.25t.226.653a.95.95 0 0 1-.226.642q-.226.25-.713.25m6.86 7.226v-1.913h-.273v-2.128q0-.558-.274-.832-.273-.273-.844-.273a35.922 35.922 0 0 0-1.557.047q-.416.012-.748.036v-1.402q.273-.024.618-.048.344-.024.701-.024.368-.012.689-.012 1 0 1.652.262.666.261.999.82.344.558.344 1.462v4.005zm-2.08.167q-.701 0-1.236-.25a1.94 1.94 0 0 1-.82-.713q-.285-.463-.285-1.117 0-.714.344-1.165.357-.452.987-.677.642-.226 1.497-.226h1.498v.986h-1.521q-.571 0-.88.285a.93.93 0 0 0-.297.714q0 .44.297.713.309.273.88.273.343 0 .63-.119a1.1 1.1 0 0 0 .487-.428q.202-.309.226-.832l.404.464q-.06.678-.333 1.141-.261.464-.737.713-.463.238-1.141.238m5.157-.167v-6.454h1.308v2.77h-.119q0-.987.261-1.64.262-.666.773-.999.522-.333 1.295-.333h.072q1.152 0 1.747.749.594.736.594 2.211v3.696h-1.652v-3.839q0-.594-.345-.962-.333-.369-.927-.369-.606 0-.986.38-.369.369-.369.999v3.791z"/><path fill="#059669" d="M532.886 313.993c-1.161.388-2.266-.717-1.879-1.879l5.862-17.586c.436-1.307 2.261-1.368 2.784-.093l2.042 4.98a7.87 7.87 0 0 0 3.928 3.928l4.927 2.007c1.277.521 1.218 2.35-.091 2.786z"/><path fill="#fff" d="M551.8 284.371c0 7.409 6.006 13.415 13.414 13.415h67.715c7.408 0 13.414-6.006 13.414-13.415s-6.006-13.414-13.414-13.414h-67.715c-7.408 0-13.414 6.006-13.414 13.414"/><path fill="#059669" fill-opacity=".2" d="M551.8 284.371c0 7.409 6.006 13.415 13.414 13.415h67.715c7.408 0 13.414-6.006 13.414-13.415s-6.006-13.414-13.414-13.414h-67.715c-7.408 0-13.414 6.006-13.414 13.414"/><path stroke="#059669" stroke-width="1.486" d="M551.8 284.371c0 7.409 6.006 13.415 13.414 13.415h67.715c7.408 0 13.414-6.006 13.414-13.415s-6.006-13.414-13.414-13.414h-67.715c-7.408 0-13.414 6.006-13.414 13.414Z"/><path fill="#000" d="M576.641 288.872v-8.677h1.652v8.677zm1.415 0v-1.427h3.934v1.427zm0-3.697v-1.426h3.625v1.426zm0-3.554v-1.426h3.839v1.426zm8.058 7.465q-.677 0-1.248-.25-.57-.25-.986-.701a3.2 3.2 0 0 1-.642-1.046 3.7 3.7 0 0 1-.226-1.308v-.249q0-.69.214-1.296.226-.606.618-1.058.404-.452.963-.701.57-.261 1.26-.261.76 0 1.331.332.582.321.927.975t.38 1.64l-.487-.57v-4.398h1.652v8.677h-1.307v-2.746h.285q-.036.986-.404 1.652a2.5 2.5 0 0 1-.975.987 2.8 2.8 0 0 1-1.355.321m.369-1.391q.487 0 .891-.214.405-.226.642-.642.25-.428.25-.998v-.476q0-.57-.25-.951a1.6 1.6 0 0 0-.654-.594 1.86 1.86 0 0 0-.879-.214q-.535 0-.951.262-.404.25-.642.713a2.4 2.4 0 0 0-.226 1.081q0 .618.238 1.082.237.452.642.701.416.25.939.25m7.478 1.177 1.225-6.24h1.901l1.415 6.24h-1.308l-1.438-6.205h.69l-1.272 6.205zm-.487 0-.012-1.355h1.32v1.355zm-.665 0-1.76-6.454h1.605l1.676 6.454zm4.801 0v-1.355h1.32l-.012 1.355zm.523 0 1.486-6.454h1.498l-1.557 6.454zm8.114 0v-1.914h-.274v-2.128q0-.558-.273-.832t-.844-.273q-.297 0-.713.012t-.844.036q-.416.011-.749.035v-1.402q.274-.024.618-.048.345-.024.702-.024.368-.01.689-.011.999 0 1.652.261.666.261.999.82.344.56.344 1.462v4.006zm-2.08.166q-.702 0-1.236-.25a1.94 1.94 0 0 1-.82-.713q-.286-.463-.286-1.117 0-.713.345-1.165.357-.452.987-.677.641-.226 1.497-.226h1.498v.986h-1.522q-.57 0-.879.286a.92.92 0 0 0-.297.713q0 .44.297.713.309.273.879.273.345 0 .63-.119a1.1 1.1 0 0 0 .488-.427q.202-.31.225-.832l.405.463q-.06.678-.333 1.141-.262.464-.737.713-.464.238-1.141.238m5.157-.166v-6.454h1.307v2.733h-.035q0-1.39.594-2.103t1.747-.714h.238v1.439h-.452q-.831 0-1.295.451-.452.44-.452 1.284v3.364zm7.584.214q-.678 0-1.248-.25t-.986-.701a3.2 3.2 0 0 1-.642-1.046 3.7 3.7 0 0 1-.226-1.308v-.249q0-.69.214-1.296.225-.606.618-1.058.404-.452.963-.701.57-.261 1.26-.261.76 0 1.331.332.582.321.927.975t.38 1.64l-.487-.57v-4.398h1.652v8.677h-1.307v-2.746h.285q-.036.986-.404 1.652a2.5 2.5 0 0 1-.975.987 2.8 2.8 0 0 1-1.355.321m.369-1.391q.487 0 .891-.214.404-.226.642-.642.249-.428.249-.998v-.476q0-.57-.249-.951a1.64 1.64 0 0 0-.654-.594 1.86 1.86 0 0 0-.879-.214q-.535 0-.951.262-.405.25-.642.713a2.4 2.4 0 0 0-.226 1.081q0 .618.238 1.082.237.452.642.701.416.25.939.25"/><defs><clipPath id="c"><path fill="#fff" d="M39.664 127.577h15.362v15.362H39.664z"/></clipPath><clipPath id="d"><path fill="#fff" d="M39.664 194.142h15.362v15.362H39.664z"/></clipPath><clipPath id="e"><path fill="#fff" d="M39.664 427.127h15.362v15.362H39.664z"/></clipPath><clipPath id="i"><path fill="#fff" d="M658.042 40.625h12.75v12.75h-12.75z"/></clipPath><clipPath id="m"><path fill="#fff" d="M758.583 545.951h17.377v17.377h-17.377z"/></clipPath><filter id="f" width="264.957" height="45.333" x="24.333" y="25.75" color-interpolation-filters="sRGB" filterUnits="userSpaceOnUse"><feFlood flood-opacity="0" result="BackgroundImageFix"/><feColorMatrix in="SourceAlpha" result="hardAlpha" values="0 0 0 0 0 0 0 0 0 0 0 0 0 0 0 0 0 0 127 0"/><feOffset dy="1.417"/><feGaussianBlur stdDeviation="2.833"/><feComposite in2="hardAlpha" operator="out"/><feColorMatrix values="0 0 0 0 0.0117647 0 0 0 0 0.0431373 0 0 0 0 0.0862745 0 0 0 0.05 0"/><feBlend in2="BackgroundImageFix" result="effect1_dropShadow_190_10280"/><feBlend in="SourceGraphic" in2="effect1_dropShadow_190_10280" result="shape"/></filter><filter id="g" width="150.17" height="45.333" x="494.413" y="25.75" color-interpolation-filters="sRGB" filterUnits="userSpaceOnUse"><feFlood flood-opacity="0" result="BackgroundImageFix"/><feColorMatrix in="SourceAlpha" result="hardAlpha" values="0 0 0 0 0 0 0 0 0 0 0 0 0 0 0 0 0 0 127 0"/><feOffset dy="1.417"/><feGaussianBlur stdDeviation="2.833"/><feComposite in2="hardAlpha" operator="out"/><feColorMatrix values="0 0 0 0 0.0117647 0 0 0 0 0.0431373 0 0 0 0 0.0862745 0 0 0 0.05 0"/><feBlend in2="BackgroundImageFix" result="effect1_dropShadow_190_10280"/><feBlend in="SourceGraphic" in2="effect1_dropShadow_190_10280" result="shape"/></filter><filter id="h" width="145.917" height="45.333" x="641.75" y="25.75" color-interpolation-filters="sRGB" filterUnits="userSpaceOnUse"><feFlood flood-opacity="0" result="BackgroundImageFix"/><feColorMatrix in="SourceAlpha" result="hardAlpha" values="0 0 0 0 0 0 0 0 0 0 0 0 0 0 0 0 0 0 127 0"/><feOffset dy="1.417"/><feGaussianBlur stdDeviation="2.833"/><feComposite in2="hardAlpha" operator="out"/><feColorMatrix values="0 0 0 0 0.0117647 0 0 0 0 0.0431373 0 0 0 0 0.0862745 0 0 0 0.05 0"/><feBlend in2="BackgroundImageFix" result="effect1_dropShadow_190_10280"/><feBlend in="SourceGraphic" in2="effect1_dropShadow_190_10280" result="shape"/></filter><filter id="j" width="85.438" height="47.063" x="434.208" y="532.916" color-interpolation-filters="sRGB" filterUnits="userSpaceOnUse"><feFlood flood-opacity="0" result="BackgroundImageFix"/><feColorMatrix in="SourceAlpha" result="hardAlpha" values="0 0 0 0 0 0 0 0 0 0 0 0 0 0 0 0 0 0 127 0"/><feOffset dy="1.448"/><feGaussianBlur stdDeviation="2.896"/><feComposite in2="hardAlpha" operator="out"/><feColorMatrix values="0 0 0 0 0.0117647 0 0 0 0 0.0431373 0 0 0 0 0.0862745 0 0 0 0.05 0"/><feBlend in2="BackgroundImageFix" result="effect1_dropShadow_190_10280"/><feBlend in="SourceGraphic" in2="effect1_dropShadow_190_10280" result="shape"/></filter><filter id="k" width="274.414" height="47.063" x="516.749" y="532.916" color-interpolation-filters="sRGB" filterUnits="userSpaceOnUse"><feFlood flood-opacity="0" result="BackgroundImageFix"/><feColorMatrix in="SourceAlpha" result="hardAlpha" values="0 0 0 0 0 0 0 0 0 0 0 0 0 0 0 0 0 0 127 0"/><feOffset dy="1.448"/><feGaussianBlur stdDeviation="2.896"/><feComposite in2="hardAlpha" operator="out"/><feColorMatrix values="0 0 0 0 0.0117647 0 0 0 0 0.0431373 0 0 0 0 0.0862745 0 0 0 0.05 0"/><feBlend in2="BackgroundImageFix" result="effect1_dropShadow_190_10280"/><feBlend in="SourceGraphic" in2="effect1_dropShadow_190_10280" result="shape"/></filter><linearGradient id="a" x1="34.858" x2="36.686" y1="88.936" y2="112.401" gradientUnits="userSpaceOnUse"><stop stop-color="#D461F0"/><stop offset=".525" stop-color="#A587FF"/><stop offset="1" stop-color="#618CFF"/></linearGradient><linearGradient id="b" x1="39.848" x2="40.945" y1="94.152" y2="108.231" gradientUnits="userSpaceOnUse"><stop stop-color="#D461F0"/><stop offset=".525" stop-color="#A587FF"/><stop offset="1" stop-color="#618CFF"/></linearGradient><linearGradient id="l" x1="754.236" x2="774.596" y1="558.632" y2="569.736" gradientUnits="userSpaceOnUse"><stop stop-color="#FFFCFC" stop-opacity=".7"/><stop offset="1" stop-color="#FFFEFE" stop-opacity=".5"/></linearGradient></defs></svg>