<svg width="46" height="46" viewBox="0 0 46 46" fill="none" xmlns="http://www.w3.org/2000/svg">
<path d="M12.6836 13.3422L9.0449 13.6234C8.0324 13.7016 7.13063 14.2323 6.57069 15.0792L2.37424 21.4261C1.94957 22.0684 1.88206 22.8722 2.19353 23.5764C2.50508 24.2805 3.14533 24.7713 3.90617 24.8891L7.23785 25.4051C8.01722 21.2691 9.88293 17.1433 12.6836 13.3422ZM20.5949 38.7622L21.111 42.0938C21.2289 42.8547 21.7196 43.4949 22.4236 43.8064C22.7106 43.9338 23.0211 43.9998 23.3352 44C23.7759 43.9997 24.2068 43.8695 24.574 43.6257L30.921 39.4293C31.768 38.8693 32.2987 37.9675 32.3767 36.9551L32.6579 33.3164C28.8567 36.1172 24.731 37.9829 20.5949 38.7622ZM19.3419 36.4529C19.4576 36.4529 19.5739 36.4434 19.69 36.424C21.4228 36.1343 23.0929 35.6462 24.6861 35.0074L10.9927 21.314C10.3539 22.9071 9.86579 24.5772 9.57605 26.3101C9.46187 26.9932 9.69098 27.6891 10.1806 28.1788L17.8213 35.8195C18.2278 36.2259 18.7765 36.4529 19.3419 36.4529ZM40.6511 20.6212C44.002 14.1429 44.1261 7.29698 43.951 4.08629C43.891 2.98618 43.0139 2.10911 41.9137 2.04914C41.3007 2.01608 40.6869 1.99969 40.073 2C36.4829 2 30.8022 2.54379 25.3788 5.34899C21.0687 7.57834 15.4171 12.4871 12.0827 18.9382C12.122 18.969 12.1605 19.0016 12.1968 19.0379L26.9623 33.8034C26.9986 33.8397 27.0311 33.8781 27.0619 33.9174C33.513 30.583 38.4218 24.9313 40.6511 20.6212ZM26.4204 10.879C28.8191 8.48035 32.7222 8.48011 35.121 10.879C36.2831 12.041 36.923 13.586 36.923 15.2294C36.923 16.8727 36.2831 18.4177 35.121 19.5797C33.9218 20.7789 32.346 21.3786 30.7707 21.3788C29.195 21.3789 27.6199 20.7792 26.4204 19.5797C25.2584 18.4177 24.6184 16.8727 24.6184 15.2294C24.6184 13.586 25.2584 12.041 26.4204 10.879Z" fill="#20D8F8"/>
<path d="M28.1602 17.8398C29.5995 19.2791 31.9414 19.2791 33.3807 17.8398C34.0778 17.1426 34.4618 16.2156 34.4618 15.2296C34.4618 14.2436 34.0778 13.3167 33.3807 12.6195C32.6611 11.8998 31.7158 11.54 30.7704 11.54C29.8252 11.54 28.8799 11.8998 28.1603 12.6195C27.4631 13.3167 27.0791 14.2436 27.0791 15.2296C27.0791 16.2156 27.463 17.1427 28.1602 17.8398ZM3.25519 36.6122C3.57011 36.6122 3.88503 36.4922 4.12521 36.2518L8.1425 32.2345C8.62304 31.754 8.62304 30.9749 8.1425 30.4944C7.66205 30.0139 6.88292 30.0139 6.40239 30.4944L2.38509 34.5117C1.90456 34.9922 1.90456 35.7713 2.38509 36.2518C2.49923 36.3662 2.63485 36.457 2.78417 36.5189C2.93349 36.5807 3.09357 36.6124 3.25519 36.6122ZM11.8241 34.176C11.3437 33.6955 10.5645 33.6955 10.084 34.176L2.3604 41.8996C1.87987 42.3802 1.87987 43.1592 2.3604 43.6397C2.60067 43.88 2.91559 44.0001 3.2305 44.0001C3.54542 44.0001 3.86033 43.88 4.10052 43.6397L11.824 35.9161C12.3047 35.4356 12.3047 34.6566 11.8241 34.176ZM13.7655 37.8576L9.74834 41.8749C9.2678 42.3555 9.2678 43.1345 9.74834 43.6151C9.98861 43.8553 10.3035 43.9755 10.6184 43.9755C10.9332 43.9755 11.2482 43.8554 11.4884 43.6151L15.5057 39.5978C15.9862 39.1172 15.9862 38.3382 15.5057 37.8576C15.0252 37.3771 14.2461 37.3771 13.7655 37.8576Z" fill="#20D8F8"/>
</svg>
