<svg width="46" height="46" viewBox="0 0 46 46" fill="none" xmlns="http://www.w3.org/2000/svg">
<g clip-path="url(#clip0_202_4329)">
<path d="M8.08594 25.7852C5.85655 25.7852 4.04297 27.5987 4.04297 29.8281C4.04297 32.0575 5.85655 33.8711 8.08594 33.8711C10.3153 33.8711 12.1289 32.0575 12.1289 29.8281C12.1289 27.5987 10.3153 25.7852 8.08594 25.7852ZM10.7812 33.8711H5.39062C2.41761 33.8711 0 36.2887 0 39.2617V44.6523C0 45.3972 0.602762 46 1.34766 46H14.8242C15.5691 46 16.1719 45.3972 16.1719 44.6523V39.2617C16.1719 36.2887 13.7543 33.8711 10.7812 33.8711ZM37.9141 25.7852C35.6847 25.7852 33.8711 27.5987 33.8711 29.8281C33.8711 32.0575 35.6847 33.8711 37.9141 33.8711C40.1434 33.8711 41.957 32.0575 41.957 29.8281C41.957 27.5987 40.1434 25.7852 37.9141 25.7852ZM40.6094 33.8711H35.2188C32.2457 33.8711 29.8281 36.2887 29.8281 39.2617V44.6523C29.8281 45.3972 30.4309 46 31.1758 46H44.6523C45.3972 46 46 45.3972 46 44.6523V39.2617C46 36.2887 43.5824 33.8711 40.6094 33.8711ZM23 0H12.2188C8.49733 0 5.48047 3.01686 5.48047 6.73828V14.8242C5.48047 18.0789 7.79943 20.8005 10.8711 21.4269V25.6053C10.8711 26.8059 12.3227 27.4072 13.1717 26.5582L18.1674 21.5625H23C26.7214 21.5625 29.7383 18.5456 29.7383 14.8242V6.73828C29.7383 3.01686 26.7214 0 23 0ZM22.6051 7.69107L17.2145 13.0817C16.6883 13.6079 15.8351 13.6079 15.3088 13.0817L12.6135 10.3864C12.0871 9.85999 12.0871 9.0071 12.6135 8.48071C13.1399 7.95432 13.9928 7.95432 14.5192 8.48071L16.2617 10.2232L20.6996 5.7854C21.2259 5.259 22.0788 5.259 22.6052 5.7854C23.1316 6.31179 23.1316 7.16468 22.6051 7.69107Z" fill="#F99811"/>
<path d="M33.783 2.69531H31.4891C32.0781 3.92554 32.4354 5.28596 32.4354 6.73828V14.8242C32.4354 17.9107 30.9238 20.6309 28.625 22.3531L32.83 26.5582C33.6791 27.4072 35.1307 26.8059 35.1307 25.6053V21.4269C38.2023 20.8004 40.5213 18.0788 40.5213 14.8242V9.43359C40.5213 5.71218 37.5044 2.69531 33.783 2.69531Z" fill="#F99811"/>
</g>
<defs>
<clipPath id="clip0_202_4329">
<rect width="46" height="46" fill="white"/>
</clipPath>
</defs>
</svg>
