<svg width="46" height="46" viewBox="0 0 46 46" fill="none" xmlns="http://www.w3.org/2000/svg">
<path d="M23.0039 19.1816C25.733 19.1816 27.9453 16.9693 27.9453 14.2402C27.9453 11.5112 25.733 9.29883 23.0039 9.29883C20.2748 9.29883 18.0625 11.5112 18.0625 14.2402C18.0625 16.9693 20.2748 19.1816 23.0039 19.1816Z" fill="#8035E8"/>
<path d="M38.2734 16.0371C38.2734 13.5601 36.2582 11.5449 33.7812 11.5449C31.3752 11.5449 29.405 13.446 29.2945 15.8251C30.8894 16.9746 32.1821 18.5691 32.9628 20.4547C33.2287 20.5032 33.5018 20.5293 33.7812 20.5293C36.2545 20.5293 38.2734 18.5173 38.2734 16.0371ZM16.7055 15.8251C16.595 13.446 14.6248 11.5449 12.2188 11.5449C9.74176 11.5449 7.72656 13.5601 7.72656 16.0371C7.72656 18.8203 10.2515 20.963 13.0372 20.4547C13.8037 18.6033 15.0759 16.9997 16.7055 15.8251ZM6.42562 20.2885C6.42562 20.2876 6.42473 20.2876 6.42383 20.2867C5.00699 21.7431 4.13281 23.7313 4.13281 25.9199V32.6582C4.13281 33.4021 4.73656 34.0059 5.48047 34.0059H12.2188V24.5723C12.2188 24.1159 12.2475 23.6657 12.3032 23.2237C12.2754 23.2246 12.2466 23.2246 12.2188 23.2246C9.94301 23.2246 7.77777 22.1267 6.42562 20.2885ZM40.5195 34.0059C41.2634 34.0059 41.8672 33.4021 41.8672 32.6582V25.9199C41.8672 23.7313 40.993 21.7431 39.5762 20.2867C39.5753 20.2867 39.5753 20.2876 39.5753 20.2876C38.2222 22.1267 36.057 23.2246 33.7812 23.2246C33.7534 23.2246 33.7246 23.2246 33.6968 23.2237C33.7525 23.6657 33.7812 24.1159 33.7812 24.5723V34.0059H40.5195ZM23 21.877C20.6173 21.877 18.4862 20.7809 17.0847 19.0657C15.7379 20.5095 14.9141 22.4466 14.9141 24.5723V35.3535C14.9141 36.0974 15.5178 36.7012 16.2617 36.7012H29.7383C30.4822 36.7012 31.0859 36.0974 31.0859 35.3535V24.5723C31.0859 22.4466 30.2621 20.5095 28.9153 19.0657C27.5138 20.7809 25.3827 21.877 23 21.877ZM44.6523 33.332C43.9081 33.332 43.3047 33.9354 43.3047 34.6797V41.5078H36.4766C35.7323 41.5078 35.1289 42.1112 35.1289 42.8555C35.1289 43.5997 35.7323 44.2031 36.4766 44.2031H44.6523C45.3966 44.2031 46 43.5997 46 42.8555V34.6797C46 33.9354 45.3966 33.332 44.6523 33.332ZM9.52344 41.5078H2.69531V34.6797C2.69531 33.9354 2.09192 33.332 1.34766 33.332C0.603391 33.332 0 33.9354 0 34.6797V42.8555C0 43.5997 0.603391 44.2031 1.34766 44.2031H9.52344C10.2677 44.2031 10.8711 43.5997 10.8711 42.8555C10.8711 42.1112 10.2677 41.5078 9.52344 41.5078ZM1.34766 12.668C2.09192 12.668 2.69531 12.0646 2.69531 11.3203V4.49219H9.52344C10.2677 4.49219 10.8711 3.8888 10.8711 3.14453C10.8711 2.40027 10.2677 1.79688 9.52344 1.79688H1.34766C0.603391 1.79688 0 2.40027 0 3.14453V11.3203C0 12.0646 0.603391 12.668 1.34766 12.668ZM44.6523 1.79688H36.3867C35.6425 1.79688 35.0391 2.40027 35.0391 3.14453C35.0391 3.8888 35.6425 4.49219 36.3867 4.49219H43.3047V11.3203C43.3047 12.0646 43.9081 12.668 44.6523 12.668C45.3966 12.668 46 12.0646 46 11.3203V3.14453C46 2.40027 45.3966 1.79688 44.6523 1.79688Z" fill="#8035E8"/>
</svg>
