<svg width="46" height="46" viewBox="0 0 46 46" fill="none" xmlns="http://www.w3.org/2000/svg">
<g clip-path="url(#clip0_202_4319)">
<path d="M13.5687 29.5436C13.5687 26.7842 11.3238 24.5393 8.56442 24.5393C1.9255 24.8142 1.92739 34.2741 8.56442 34.5479C11.3239 34.5479 13.5687 32.303 13.5687 29.5436ZM42.4386 29.5436C42.4386 26.7842 40.1936 24.5393 37.4343 24.5393C30.7954 24.8142 30.7972 34.2741 37.4343 34.5479C40.1936 34.5479 42.4386 32.303 42.4386 29.5436ZM28.0036 29.5436C28.0036 26.7842 25.7587 24.5393 22.9993 24.5393C16.3604 24.8142 16.3623 34.2741 22.9993 34.5479C25.7587 34.5479 28.0036 32.303 28.0036 29.5436Z" fill="#75BB0B"/>
<path d="M13.933 36.4439C8.4445 31.9476 -0.0334126 35.9567 9.90459e-05 43.113V44.6522C9.90459e-05 45.3965 0.603488 45.9998 1.34775 45.9998H11.9715C11.8179 45.5671 11.7395 45.1113 11.7397 44.6522V43.1129C11.7397 40.6188 12.5553 38.312 13.933 36.4439ZM37.4349 34.5478C35.4043 34.5478 33.5368 35.2587 32.0672 36.4439C33.4449 38.312 34.2604 40.6188 34.2604 43.1129V44.6522C34.2606 45.1113 34.1822 45.5671 34.0286 45.9998H44.6524C45.3966 45.9998 46 45.3965 46 44.6522V43.1129C46 38.3901 42.1578 34.5478 37.4349 34.5478ZM23.0001 34.5478C18.2772 34.5478 14.435 38.3902 14.435 43.1129V44.6522C14.435 45.3965 15.0384 45.9998 15.7826 45.9998H30.2175C30.9618 45.9998 31.5652 45.3965 31.5652 44.6522V43.1129C31.5651 38.3901 27.7229 34.5478 23.0001 34.5478ZM12.4052 0.39471C11.8789 -0.131504 11.0256 -0.131594 10.4993 0.39471C9.973 0.921014 9.973 1.77426 10.4993 2.30056L11.9427 3.74408C12.4691 4.27047 13.3224 4.2702 13.8486 3.74408C14.3749 3.21777 14.3749 2.36453 13.8486 1.83823L12.4052 0.39471ZM11.9426 11.9426L10.4992 13.3861C9.973 13.9124 9.973 14.7656 10.4992 15.2919C11.0257 15.8183 11.8789 15.8181 12.4051 15.2919L13.8485 13.8484C14.3747 13.3221 14.3747 12.4689 13.8485 11.9426C13.3222 11.4163 12.469 11.4163 11.9426 11.9426ZM8.76155 9.19094H10.803C12.591 9.11969 12.5897 6.56615 10.803 6.49563H8.76155C6.97349 6.56687 6.97483 9.12041 8.76155 9.19094ZM34.0574 3.74408L35.5008 2.30056C36.027 1.77426 36.027 0.921014 35.5008 0.39471C34.9745 -0.131504 34.1212 -0.131504 33.5949 0.39471L32.1514 1.83823C31.6252 2.36453 31.6252 3.21777 32.1514 3.74408C32.6777 4.2702 33.531 4.27047 34.0574 3.74408ZM33.5949 15.2919C34.1211 15.8181 34.9743 15.8184 35.5008 15.2919C36.0271 14.7656 36.0271 13.9124 35.5008 13.3861L34.0574 11.9426C33.5311 11.4163 32.6778 11.4163 32.1515 11.9426C31.6252 12.4689 31.6252 13.3221 32.1515 13.8484L33.5949 15.2919ZM33.8495 7.84328C33.8495 8.58755 34.4529 9.19094 35.1971 9.19094H37.2385C39.0266 9.11969 39.0253 6.56615 37.2385 6.49563H35.1971C34.4529 6.49563 33.8495 7.09902 33.8495 7.84328ZM18.7655 17.226C18.9988 22.8452 27.0036 22.8409 27.2347 17.226V17.0344H18.7655V17.226ZM18.7655 14.3391H27.2347C27.2347 13.4786 27.5708 12.6588 28.1585 12.0298C32.4586 7.5494 29.213 -0.0165042 23 2.70448e-05C16.7872 -0.0165042 13.5412 7.55039 17.8416 12.0298C18.4294 12.6588 18.7655 13.4786 18.7655 14.3391Z" fill="#75BB0B"/>
</g>
<defs>
<clipPath id="clip0_202_4319">
<rect width="46" height="46" fill="white"/>
</clipPath>
</defs>
</svg>
