<svg width="46" height="46" viewBox="0 0 46 46" fill="none" xmlns="http://www.w3.org/2000/svg">
<g clip-path="url(#clip0_202_4359)">
<path d="M20.7539 46H25.2461C26.7347 46 27.9414 44.7933 27.9414 43.3047H18.0586C18.0586 44.7933 19.2653 46 20.7539 46ZM44.6523 15.2734H41.957C41.2128 15.2734 40.6094 15.8768 40.6094 16.6211C40.6094 17.3654 41.2128 17.9688 41.957 17.9688H44.6523C45.3966 17.9688 46 17.3654 46 16.6211C46 15.8768 45.3966 15.2734 44.6523 15.2734ZM41.7324 10.1514L44.0666 8.80379C44.7111 8.43166 44.9319 7.60743 44.5598 6.96289C44.1877 6.31835 43.3634 6.09752 42.7189 6.46965L40.3848 7.81731C39.7402 8.18944 39.5194 9.01366 39.8915 9.6582C40.2637 10.3027 41.0879 10.5236 41.7324 10.1514ZM44.0666 24.4384L41.7324 23.0907C41.0879 22.7186 40.2637 22.9394 39.8915 23.584C39.5194 24.2285 39.7402 25.0527 40.3848 25.4249L42.7189 26.7725C43.3634 27.1447 44.1877 26.9238 44.5598 26.2793C44.9319 25.6348 44.7112 24.8105 44.0666 24.4384ZM4.04297 17.9688C4.78723 17.9688 5.39062 17.3654 5.39062 16.6211C5.39062 15.8768 4.78723 15.2734 4.04297 15.2734H1.34766C0.603391 15.2734 0 15.8768 0 16.6211C0 17.3654 0.603391 17.9688 1.34766 17.9688H4.04297ZM5.61523 7.81731L3.281 6.46965C2.63647 6.09752 1.81224 6.31835 1.44011 6.96289C1.06797 7.60743 1.28881 8.43166 1.93335 8.80379L4.26758 10.1514C4.91212 10.5236 5.73634 10.3027 6.10848 9.6582C6.48061 9.01366 6.25977 8.18944 5.61523 7.81731ZM6.10848 23.584C5.73634 22.9394 4.91212 22.7186 4.26758 23.0907L1.93335 24.4384C1.28881 24.8105 1.06797 25.6348 1.44011 26.2793C1.81224 26.9238 2.63647 27.1447 3.281 26.7725L5.61523 25.4249C6.25977 25.0527 6.48061 24.2285 6.10848 23.584ZM37.2727 12.7858C37.6363 12.019 37.8247 11.1808 37.8242 10.332C37.8242 7.52998 35.8407 5.18255 33.2039 4.6203C32.6417 1.98348 30.2942 0 27.4922 0L27.4575 8.98438e-05C25.7316 0.0102422 24.3477 1.43561 24.3477 3.1616V16.6248C25.4747 15.7768 26.8749 15.2734 28.3906 15.2734C29.1349 15.2734 29.7383 15.8768 29.7383 16.6211C29.7383 17.3654 29.1349 17.9688 28.3906 17.9688C26.1613 17.9688 24.3477 19.7824 24.3477 22.0117V30.0806C24.3477 31.8065 25.7316 33.2319 27.4575 33.242C27.469 33.2422 27.4806 33.2422 27.4922 33.2422C30.2942 33.2422 32.6417 31.2587 33.2039 28.6219C35.8407 28.0596 37.8242 25.7122 37.8242 22.9102C37.8247 22.0614 37.6363 21.2232 37.2727 20.4563C38.205 19.4023 38.7227 18.0559 38.7227 16.6211C38.7227 15.1863 38.205 13.8399 37.2727 12.7858ZM18.5425 33.2421C20.2684 33.2319 21.6523 31.8066 21.6523 30.0806V22.0117C21.6523 19.7824 19.8387 17.9688 17.6094 17.9688C16.8651 17.9688 16.2617 17.3654 16.2617 16.6211C16.2617 15.8768 16.8651 15.2734 17.6094 15.2734C19.1251 15.2734 20.5253 15.7768 21.6523 16.6248V3.1616C21.6523 1.4357 20.2684 0.0102422 18.5425 0.000179688C18.531 0 18.5194 0 18.5078 0C15.7058 0 13.3583 1.98348 12.7961 4.6203C10.1593 5.18255 8.17578 7.52998 8.17578 10.332C8.17521 11.1808 8.36361 12.019 8.72733 12.7858C7.79502 13.8399 7.27734 15.1863 7.27734 16.6211C7.27734 18.0559 7.79502 19.4023 8.72733 20.4563C8.36361 21.2232 8.17521 22.0614 8.17578 22.9102C8.17578 25.7122 10.1593 28.0596 12.7961 28.6219C13.3583 31.2587 15.7058 33.2422 18.5078 33.2422L18.5425 33.2421ZM27.4462 35.9374C25.6611 35.9269 24.0635 35.1025 23.0002 33.8178C21.9373 35.1025 20.341 35.9269 18.5584 35.9374L18.5078 35.9375C17.4261 35.9375 16.3585 35.7283 15.3633 35.3335V37.4648C15.3633 39.1987 16.7739 40.6094 18.5078 40.6094H27.4922C29.2261 40.6094 30.6367 39.1987 30.6367 37.4648V35.3335C29.6415 35.7284 28.5739 35.9375 27.4922 35.9375L27.4462 35.9374Z" fill="#EF1C79"/>
</g>
<defs>
<clipPath id="clip0_202_4359">
<rect width="46" height="46" fill="white"/>
</clipPath>
</defs>
</svg>
