<svg xmlns="http://www.w3.org/2000/svg" width="558" height="407" fill="none"><rect width="554" height="403" x="2" y="2" fill="#F5F5F5" rx="22"/><rect width="554" height="403" x="2" y="2" stroke="#E9ECF2" stroke-width="4" rx="22"/><rect width="411.747" height="82.419" x="77.625" y="161.55" fill="#E6E6E6" rx="11.737"/><rect width="70.164" height="57.198" x="149.261" y="170.894" fill="#E2F1FF" stroke="#000" stroke-dasharray="1.84 1.84" stroke-width=".919" rx="8.077"/><rect width="70.164" height="57.198" x="80.017" y="317.447" fill="#E2F1FF" stroke="#000" stroke-dasharray="1.84 1.84" stroke-width=".919" rx="8.077"/><rect width="70.164" height="57.198" x="416.158" y="317.447" fill="#E2F1FF" stroke="#000" stroke-dasharray="1.84 1.84" stroke-width=".919" rx="8.077"/><rect width="70.164" height="57.198" x="346.912" y="170.894" fill="#E2F1FF" stroke="#000" stroke-dasharray="1.84 1.84" stroke-width=".919" rx="8.077"/><rect width="44.425" height="32.293" x="260.957" y="183.347" fill="#1E1E1E" rx="2.003"/><rect width="44.425" height="32.293" x="260.957" y="263.741" fill="#E6E6E6" rx="5.417"/><path stroke="#000" stroke-width=".952" d="M218.965 199h41.992M305.381 199h41.991"/><path fill="#036897" d="M197.475 190.674c0 2.85-5.852 5.169-13.126 5.169-7.267 0-13.119-2.319-13.119-5.169v7.49c0 2.85 5.852 5.168 13.119 5.168 7.274 0 13.126-2.318 13.126-5.168zm-13.126 5.169c7.274 0 13.126-2.319 13.126-5.169 0-2.856-5.852-5.174-13.126-5.174-7.267 0-13.119 2.318-13.119 5.174 0 2.85 5.852 5.169 13.119 5.169"/><path stroke="#fff" stroke-linejoin="round" stroke-miterlimit="10" stroke-width=".516" d="M197.475 190.674c0 2.85-5.852 5.169-13.126 5.169-7.267 0-13.119-2.319-13.119-5.169m26.245 0v7.49c0 2.85-5.852 5.168-13.126 5.168-7.267 0-13.119-2.318-13.119-5.168v-7.49m26.245 0c0-2.856-5.852-5.174-13.126-5.174-7.267 0-13.119 2.318-13.119 5.174"/><path fill="#fff" d="m181.337 188.71 1.063 1.604-4.078.895.888-.716-6.207-1.07 1.595-1.248 6.026 1.07zm5.854 3.923-.888-1.605 3.721-.889-.531.71 6.029 1.07-1.416 1.07-6.208-1.07zm-2.129-4.815 4.074-1.07.182 1.605-1.063-.178-1.952 1.783-1.955-.353 1.955-1.605zm-1.777 6.42-3.9.716-.175-1.965 1.239.36 2.129-1.965 1.952.36-2.308 2.14z"/><path fill="#036897" d="M128.235 337.23c0 2.85-5.851 5.168-13.125 5.168-7.268 0-13.119-2.318-13.119-5.168v7.49c0 2.849 5.851 5.168 13.119 5.168 7.274 0 13.125-2.319 13.125-5.168zm-13.125 5.168c7.274 0 13.125-2.318 13.125-5.168 0-2.857-5.851-5.175-13.125-5.175-7.268 0-13.119 2.318-13.119 5.175 0 2.85 5.851 5.168 13.119 5.168"/><path stroke="#fff" stroke-linejoin="round" stroke-miterlimit="10" stroke-width=".516" d="M128.235 337.23c0 2.85-5.851 5.168-13.125 5.168-7.268 0-13.119-2.318-13.119-5.168m26.244 0v7.49c0 2.849-5.851 5.168-13.125 5.168-7.268 0-13.119-2.319-13.119-5.168v-7.49m26.244 0c0-2.857-5.851-5.175-13.125-5.175-7.268 0-13.119 2.318-13.119 5.175"/><path fill="#fff" d="m112.097 335.265 1.064 1.605-4.078.895.888-.717-6.208-1.07 1.595-1.248 6.026 1.07zm5.855 3.923-.888-1.605 3.721-.888-.532.71 6.03 1.07-1.417 1.07-6.208-1.07zm-2.13-4.815 4.075-1.07.181 1.605-1.063-.178-1.951 1.783-1.955-.353 1.955-1.605zm-1.777 6.42-3.899.717-.175-1.965 1.238.36 2.13-1.965 1.951.36-2.308 2.14z"/><path fill="#036897" d="M464.378 337.23c0 2.85-5.851 5.168-13.125 5.168-7.268 0-13.119-2.318-13.119-5.168v7.49c0 2.849 5.851 5.168 13.119 5.168 7.274 0 13.125-2.319 13.125-5.168zm-13.125 5.168c7.274 0 13.125-2.318 13.125-5.168 0-2.857-5.851-5.175-13.125-5.175-7.268 0-13.119 2.318-13.119 5.175 0 2.85 5.851 5.168 13.119 5.168"/><path stroke="#fff" stroke-linejoin="round" stroke-miterlimit="10" stroke-width=".516" d="M464.378 337.23c0 2.85-5.851 5.168-13.125 5.168-7.268 0-13.119-2.318-13.119-5.168m26.244 0v7.49c0 2.849-5.851 5.168-13.125 5.168-7.268 0-13.119-2.319-13.119-5.168v-7.49m26.244 0c0-2.857-5.851-5.175-13.125-5.175-7.268 0-13.119 2.318-13.119 5.175"/><path fill="#fff" d="m448.241 335.265 1.063 1.605-4.078.895.888-.717-6.207-1.07 1.595-1.248 6.026 1.07zm5.854 3.923-.888-1.605 3.721-.888-.531.71 6.029 1.07-1.416 1.07-6.208-1.07zm-2.129-4.815 4.074-1.07.182 1.605-1.063-.178-1.952 1.783-1.955-.353 1.955-1.605zm-1.777 6.42-3.9.717-.175-1.965 1.239.36 2.129-1.965 1.952.36-2.308 2.14z"/><path fill="#036897" d="M395.13 190.674c0 2.85-5.851 5.169-13.126 5.169-7.267 0-13.118-2.319-13.118-5.169v7.49c0 2.85 5.851 5.168 13.118 5.168 7.275 0 13.126-2.318 13.126-5.168zm-13.126 5.169c7.275 0 13.126-2.319 13.126-5.169 0-2.856-5.851-5.174-13.126-5.174-7.267 0-13.118 2.318-13.118 5.174 0 2.85 5.851 5.169 13.118 5.169"/><path stroke="#fff" stroke-linejoin="round" stroke-miterlimit="10" stroke-width=".516" d="M395.13 190.674c0 2.85-5.851 5.169-13.126 5.169-7.267 0-13.118-2.319-13.118-5.169m26.244 0v7.49c0 2.85-5.851 5.168-13.126 5.168-7.267 0-13.118-2.318-13.118-5.168v-7.49m26.244 0c0-2.856-5.851-5.174-13.126-5.174-7.267 0-13.118 2.318-13.118 5.174"/><path fill="#fff" d="m378.992 188.71 1.063 1.604-4.078.895.888-.716-6.207-1.07 1.595-1.248 6.026 1.07zm5.854 3.923-.888-1.605 3.721-.889-.531.71 6.029 1.07-1.416 1.07-6.208-1.07zm-2.129-4.815 4.074-1.07.182 1.605-1.063-.178-1.952 1.783-1.955-.353 1.955-1.605zm-1.777 6.42-3.9.716-.175-1.965 1.239.36 2.129-1.965 1.952.36-2.308 2.14z"/><path fill="#000" d="M160.672 214.147q-.586 0-.994-.216a1.47 1.47 0 0 1-.61-.626 2 2 0 0 1-.204-.956l.018-2.465h.933l-.018 2.499q-.001.273.099.478a.75.75 0 0 0 .3.307 1 1 0 0 0 .483.108 1 1 0 0 0 .484-.108.73.73 0 0 0 .304-.307 1.05 1.05 0 0 0 .106-.478l.018-2.499h.933l-.018 2.465a2.05 2.05 0 0 1-.217.956 1.5 1.5 0 0 1-.619.626q-.406.216-.998.216m5.409-.108-1.42-1.941h-.574l1.757-2.214h1.07l-1.579 1.986-.009-.404 1.882 2.573zm-2.731 0 .03-4.155h.933l-.03 4.155zm6.293.022.007-.87h.774q.29 0 .524-.086.234-.09.4-.25.166-.165.253-.393.087-.233.089-.512a1.5 1.5 0 0 0-.081-.518 1.04 1.04 0 0 0-.248-.387 1.05 1.05 0 0 0-.397-.239 1.5 1.5 0 0 0-.523-.085h-.774l.007-.871h.722q.564 0 .984.165t.702.45q.283.285.417.654.14.364.136.769l-.001.125a2.06 2.06 0 0 1-.573 1.405 2.15 2.15 0 0 1-.709.467q-.422.177-.986.176zm-.819 0 .03-4.211h.933l-.03 4.211zm3.876-.022 1.401-4.155h1.508l1.393 4.155h-.968l-1.124-3.512.295.12h-.734l.308-.12-1.146 3.512zm1.048-1.03.29-.774h1.628l.285.774zm4.254 1.03.025-3.455h.933l-.025 3.455zm-1.142-3.341.005-.814h3.273l-.006.814zm3.075 3.341 1.402-4.155h1.508l1.393 4.155h-.968l-1.124-3.512.295.12h-.734l.308-.12-1.146 3.512zm1.049-1.03.29-.774h1.628l.285.774zm6.896 1.138q-.562 0-.966-.194a1.9 1.9 0 0 1-.656-.518 2.3 2.3 0 0 1-.377-.694 2.4 2.4 0 0 1-.114-.728l.001-.125a2.4 2.4 0 0 1 .131-.763 2.1 2.1 0 0 1 .386-.689q.264-.307.658-.489.4-.188.94-.188.563 0 .995.211.43.21.684.586.26.37.301.871h-.939a.9.9 0 0 0-.179-.427.9.9 0 0 0-.368-.273 1.2 1.2 0 0 0-.5-.097 1.2 1.2 0 0 0-.496.097 1 1 0 0 0-.366.273 1.3 1.3 0 0 0-.225.421q-.075.239-.078.535-.002.29.07.535.078.238.225.421.153.176.374.273.221.091.505.091.433 0 .73-.21a.87.87 0 0 0 .369-.581h.933a1.84 1.84 0 0 1-1.006 1.44q-.434.222-1.032.222m2.646-.108.03-4.155h.911l-.03 4.155zm.797 0 .005-.774h1.816l-.006.774zm.012-1.725.006-.774h1.684l-.005.774zm.012-1.656.006-.774h1.775l-.005.774zm2.558 3.381.03-4.155h1.531l1.54 3.398h.194l-.115.102.025-3.5h.877l-.03 4.155h-1.542l-1.541-3.398h-.193l.114-.102-.025 3.5zm5.81 0 .025-3.455h.934l-.025 3.455zm-1.142-3.341.006-.814h3.272l-.006.814zm3.835 3.341.03-4.155h.911l-.03 4.155zm.797 0 .005-.774h1.816l-.006.774zm.012-1.725.006-.774h1.684l-.005.774zm.012-1.656.006-.774h1.775l-.005.774zm2.558 3.381.03-4.189h.933l-.03 4.189zm2.521 0-1.205-1.787h1.024l1.262 1.787zm-1.829-1.332.006-.734h1.024a.74.74 0 0 0 .354-.08.6.6 0 0 0 .235-.233.7.7 0 0 0 .087-.353.7.7 0 0 0-.082-.347.53.53 0 0 0-.232-.233.7.7 0 0 0-.352-.086h-1.025l.006-.791h.95q.519 0 .898.16.38.153.583.461.203.306.2.773l-.001.092q-.003.46-.216.768a1.26 1.26 0 0 1-.59.455 2.4 2.4 0 0 1-.894.148zM91.672 360.7q-.585 0-.994-.217a1.46 1.46 0 0 1-.61-.626 2.03 2.03 0 0 1-.204-.956l.018-2.464h.933l-.018 2.498q-.002.274.1.478a.75.75 0 0 0 .299.308 1 1 0 0 0 .483.108 1 1 0 0 0 .484-.108.72.72 0 0 0 .304-.308q.104-.198.106-.478l.018-2.498h.933l-.018 2.464a2.05 2.05 0 0 1-.217.956q-.213.405-.62.626-.405.217-.997.217m5.41-.109-1.42-1.94h-.575l1.757-2.214h1.07l-1.58 1.986-.008-.404 1.882 2.572zm-2.732 0 .03-4.154h.933l-.03 4.154zm6.293.023.007-.87h.774q.29 0 .524-.086.234-.091.4-.25.166-.165.253-.393.087-.233.089-.512a1.5 1.5 0 0 0-.081-.518 1 1 0 0 0-.248-.387 1.05 1.05 0 0 0-.397-.239 1.5 1.5 0 0 0-.523-.085h-.774l.007-.871h.722q.564 0 .984.165t.702.45q.283.284.417.654.14.365.136.768l-.001.126a2.07 2.07 0 0 1-.573 1.405 2.15 2.15 0 0 1-.709.467q-.422.176-.986.176zm-.82 0 .031-4.211h.933l-.03 4.211zm3.877-.023 1.401-4.154h1.508l1.393 4.154h-.968l-1.124-3.511.295.12h-.734l.308-.12-1.146 3.511zm1.048-1.03.29-.773h1.628l.285.773zm4.254 1.03.025-3.454h.933l-.025 3.454zm-1.142-3.34.005-.814h3.273l-.006.814zm3.075 3.34 1.402-4.154h1.508l1.393 4.154h-.968l-1.124-3.511.295.12h-.734l.308-.12-1.146 3.511zm1.049-1.03.29-.773h1.628l.285.773zm6.896 1.139q-.562 0-.966-.194a1.9 1.9 0 0 1-.656-.518 2.3 2.3 0 0 1-.377-.694 2.4 2.4 0 0 1-.114-.728l.001-.126q.002-.387.131-.762a2.1 2.1 0 0 1 .386-.689 1.9 1.9 0 0 1 .658-.489q.4-.188.94-.188.564 0 .995.211.43.21.684.586.26.37.301.87h-.939a.9.9 0 0 0-.179-.426.9.9 0 0 0-.368-.274 1.2 1.2 0 0 0-.5-.096q-.279 0-.496.096a1 1 0 0 0-.366.274 1.3 1.3 0 0 0-.225.421 1.8 1.8 0 0 0-.078.535q-.002.29.07.535.078.238.225.421.153.176.374.273.221.091.505.091.433 0 .73-.211a.86.86 0 0 0 .369-.58h.933a1.87 1.87 0 0 1-.313.836q-.254.376-.693.604-.434.222-1.032.222m2.646-.109.03-4.154h.911l-.03 4.154zm.797 0 .005-.773h1.816l-.006.773zm.012-1.724.006-.774h1.684l-.005.774zm.012-1.656.006-.774h1.775l-.005.774zm2.558 3.38.03-4.154h1.531l1.54 3.398h.194l-.115.102.025-3.5h.877l-.03 4.154h-1.542l-1.541-3.397h-.193l.114-.102-.025 3.499zm5.81 0 .025-3.454h.934l-.025 3.454zm-1.142-3.34.006-.814h3.272l-.006.814zm3.835 3.34.03-4.154h.911l-.03 4.154zm.797 0 .005-.773h1.816l-.006.773zm.012-1.724.006-.774h1.684l-.005.774zm.012-1.656.006-.774h1.775l-.005.774zm2.558 3.38.03-4.188h.933l-.03 4.188zm2.521 0-1.205-1.786h1.024l1.262 1.786zm-1.829-1.331.006-.734h1.024a.74.74 0 0 0 .354-.08.6.6 0 0 0 .235-.233.7.7 0 0 0 .087-.353.7.7 0 0 0-.082-.347.54.54 0 0 0-.232-.234.7.7 0 0 0-.352-.085h-1.025l.006-.791h.95q.519 0 .898.159.38.155.583.461.203.308.2.774l-.001.091q-.003.462-.216.769a1.27 1.27 0 0 1-.59.455 2.4 2.4 0 0 1-.894.148zM422.1 360.591l1.401-4.154h1.508l1.393 4.154h-.967l-1.125-3.511.295.12h-.734l.308-.12-1.146 3.511zm1.049-1.03.29-.774h1.627l.285.774zm5.217 1.138q-.563 0-.949-.176a1.36 1.36 0 0 1-.582-.489 1.3 1.3 0 0 1-.194-.717h.905a.54.54 0 0 0 .083.295.64.64 0 0 0 .271.222q.182.08.472.08.262 0 .439-.068a.6.6 0 0 0 .269-.188.48.48 0 0 0 .093-.285.35.35 0 0 0-.169-.313q-.17-.118-.551-.153l-.312-.029q-.62-.051-.988-.387-.367-.335-.363-.887.003-.399.192-.689.196-.29.539-.444.342-.159.809-.159.489 0 .835.171a1.2 1.2 0 0 1 .537.472q.186.302.183.711h-.911a.53.53 0 0 0-.292-.489.7.7 0 0 0-.358-.08.8.8 0 0 0-.348.068.48.48 0 0 0-.276.439q-.002.176.123.307.124.13.409.154l.318.028q.456.04.801.199.346.154.538.427.197.267.194.654a1.2 1.2 0 0 1-.215.7 1.35 1.35 0 0 1-.59.461q-.383.165-.912.165m2.363-.108.03-4.154h.933l-.03 4.154zm1.485 0 1.402-4.154h1.508l1.393 4.154h-.968l-1.124-3.511.295.12h-.734l.308-.12-1.146 3.511zm1.049-1.03.29-.774h1.628l.285.774zm5.81 1.053.006-.871h.774q.29 0 .524-.085.235-.091.4-.25.167-.165.254-.393.087-.233.089-.512a1.5 1.5 0 0 0-.082-.518 1.01 1.01 0 0 0-.644-.626 1.5 1.5 0 0 0-.523-.085h-.774l.006-.871h.723q.563 0 .983.165t.703.449.416.655q.14.365.137.768l-.001.125a2.07 2.07 0 0 1-.574 1.406 2.2 2.2 0 0 1-.709.467q-.422.176-.985.176zm-.82 0 .031-4.211h.933l-.03 4.211zm3.876-.023 1.401-4.154h1.509l1.392 4.154h-.967l-1.124-3.511.295.12h-.734l.308-.12-1.147 3.511zm1.049-1.03.29-.774h1.628l.284.774zm4.254 1.03.024-3.454h.934l-.025 3.454zm-1.143-3.34.006-.814h3.272l-.006.814zm3.076 3.34 1.401-4.154h1.508l1.393 4.154h-.967l-1.125-3.511.296.12h-.735l.309-.12-1.147 3.511zm1.049-1.03.29-.774h1.627l.285.774zm6.896 1.138q-.564 0-.966-.193a1.9 1.9 0 0 1-.657-.518 2.3 2.3 0 0 1-.376-.694 2.4 2.4 0 0 1-.114-.729l.001-.125q.002-.387.13-.762.129-.382.386-.689.264-.308.658-.489.4-.188.941-.188.563 0 .994.21.432.211.685.587.259.369.301.87h-.939a.9.9 0 0 0-.179-.427.94.94 0 0 0-.368-.273 1.25 1.25 0 0 0-.5-.097q-.28 0-.496.097a1 1 0 0 0-.366.273 1.3 1.3 0 0 0-.225.421q-.077.24-.078.535-.002.29.07.535.078.24.224.421.153.177.374.274.221.09.506.091.432 0 .73-.211a.86.86 0 0 0 .368-.58h.934a1.9 1.9 0 0 1-.314.836 1.8 1.8 0 0 1-.693.603q-.434.222-1.031.222m2.646-.108.029-4.154h.911l-.03 4.154zm.796 0 .006-.774h1.815l-.005.774zm.013-1.724.005-.774h1.685l-.006.774zm.012-1.656.005-.774h1.776l-.006.774zm2.558 3.38.029-4.154h1.531l1.541 3.397h.193l-.114.103.025-3.5h.876l-.03 4.154h-1.542l-1.54-3.397h-.194l.115-.103-.025 3.5zm5.81 0 .025-3.454h.933l-.025 3.454zm-1.143-3.34.006-.814h3.272l-.006.814zm3.836 3.34.029-4.154h.911l-.03 4.154zm.796 0 .006-.774h1.815l-.005.774zm.013-1.724.005-.774h1.685l-.006.774zm.012-1.656.005-.774h1.776l-.006.774zm2.557 3.38.031-4.188h.933l-.03 4.188zm2.522 0-1.205-1.787h1.024l1.262 1.787zm-1.829-1.331.005-.735h1.025a.74.74 0 0 0 .353-.079.6.6 0 0 0 .235-.233.7.7 0 0 0 .088-.353.7.7 0 0 0-.083-.347.52.52 0 0 0-.232-.234.7.7 0 0 0-.352-.085h-1.024l.006-.791h.95q.518 0 .898.159.38.154.583.461t.199.774l-.001.091q-.003.461-.216.768a1.27 1.27 0 0 1-.589.456 2.5 2.5 0 0 1-.895.148zM359.414 213.479q-.586 0-.994-.216a1.46 1.46 0 0 1-.61-.626 2 2 0 0 1-.204-.956l.018-2.464h.933l-.018 2.498q-.001.274.099.478a.75.75 0 0 0 .299.307q.2.108.483.109a1 1 0 0 0 .485-.109.73.73 0 0 0 .304-.307 1.05 1.05 0 0 0 .106-.478l.018-2.498h.933l-.018 2.464a2.06 2.06 0 0 1-.217.956 1.5 1.5 0 0 1-.62.626q-.405.216-.997.216m4.122 0q-.563 0-.949-.176a1.36 1.36 0 0 1-.582-.49 1.3 1.3 0 0 1-.194-.717h.904q0 .16.084.296a.64.64 0 0 0 .271.222q.181.08.472.08.262 0 .439-.068a.6.6 0 0 0 .268-.188.48.48 0 0 0 .094-.285.36.36 0 0 0-.169-.313q-.17-.12-.551-.153l-.313-.029q-.62-.051-.987-.387t-.364-.888a1.25 1.25 0 0 1 .193-.688q.196-.291.538-.444.344-.159.81-.159.489 0 .835.17.351.165.537.473.186.301.183.711h-.911a.53.53 0 0 0-.292-.489.7.7 0 0 0-.358-.08.8.8 0 0 0-.348.068.483.483 0 0 0-.276.438q-.001.176.123.308.124.13.409.153l.318.029q.454.04.801.199.346.154.538.427.197.267.194.654a1.2 1.2 0 0 1-.215.7 1.35 1.35 0 0 1-.59.461q-.383.165-.912.165m4.366-.085.006-.871h.774q.29 0 .524-.085.234-.091.4-.251a1.1 1.1 0 0 0 .253-.392q.087-.234.089-.512a1.4 1.4 0 0 0-.081-.518 1.03 1.03 0 0 0-.644-.626 1.5 1.5 0 0 0-.523-.086h-.774l.006-.87h.723q.563 0 .983.165t.702.449q.284.285.417.655.14.364.137.768l-.001.125a2.07 2.07 0 0 1-.574 1.406 2.1 2.1 0 0 1-.709.466q-.422.177-.986.177zm-.82 0 .03-4.211h.934l-.031 4.211zm3.876-.023 1.401-4.154h1.508l1.393 4.154h-.967l-1.125-3.511.295.119h-.734l.308-.119-1.146 3.511zm1.049-1.03.29-.774h1.627l.285.774zm4.253 1.03.025-3.454h.934l-.025 3.454zm-1.142-3.34.006-.814h3.272l-.006.814zm3.076 3.34 1.401-4.154h1.508l1.393 4.154h-.968l-1.124-3.511.295.119h-.734l.308-.119-1.146 3.511zm1.048-1.03.291-.774h1.627l.285.774zm6.896 1.138q-.562 0-.966-.193a1.9 1.9 0 0 1-.656-.518 2.3 2.3 0 0 1-.376-.694 2.4 2.4 0 0 1-.115-.729l.001-.125q.003-.387.131-.763.128-.38.386-.688.264-.307.658-.49.4-.187.941-.187.563 0 .994.21.43.211.684.586.26.37.301.871h-.939a.9.9 0 0 0-.179-.427.9.9 0 0 0-.368-.273 1.2 1.2 0 0 0-.5-.097q-.279 0-.496.097a1 1 0 0 0-.366.273q-.143.177-.225.421a1.9 1.9 0 0 0-.078.535q-.002.29.071.535.078.24.224.421.152.177.374.273.22.092.506.092.432 0 .73-.211a.86.86 0 0 0 .368-.58h.933a1.85 1.85 0 0 1-1.006 1.439q-.434.222-1.032.222m2.646-.108.03-4.154h.911l-.03 4.154zm.797 0 .006-.774h1.815l-.006.774zm.012-1.724.006-.774h1.685l-.006.774zm.012-1.656.006-.774h1.776l-.006.774zm2.558 3.38.03-4.154h1.531l1.541 3.397h.193l-.114.103.025-3.5h.876l-.03 4.154h-1.542l-1.541-3.397h-.193l.115-.103-.026 3.5zm5.811 0 .024-3.454h.934l-.025 3.454zm-1.143-3.34.006-.814h3.272l-.006.814zm3.835 3.34.03-4.154h.911l-.03 4.154zm.797 0 .006-.774h1.815l-.006.774zm.012-1.724.006-.774h1.685l-.006.774zm.012-1.656.006-.774h1.775l-.005.774zm2.558 3.38.03-4.188h.934l-.03 4.188zm2.521 0-1.205-1.787h1.025l1.262 1.787zm-1.828-1.332.005-.734h1.024a.74.74 0 0 0 .354-.079.6.6 0 0 0 .235-.234.7.7 0 0 0 .088-.352.7.7 0 0 0-.083-.348.53.53 0 0 0-.232-.233.7.7 0 0 0-.352-.085h-1.024l.005-.791h.951q.517 0 .898.159.38.153.583.461t.199.774l-.001.091q-.003.46-.216.768a1.26 1.26 0 0 1-.589.455q-.377.148-.895.148z"/><path fill="#5E6C87" d="M161.571 219.406a1.4 1.4 0 0 1-.58-.108.82.82 0 0 1-.356-.3.8.8 0 0 1-.119-.438h.553q0 .097.051.181a.4.4 0 0 0 .166.136.7.7 0 0 0 .289.048.8.8 0 0 0 .268-.041.4.4 0 0 0 .165-.115.3.3 0 0 0 .057-.174.22.22 0 0 0-.104-.192q-.103-.073-.336-.094l-.192-.017q-.379-.031-.604-.237a.7.7 0 0 1-.222-.543.77.77 0 0 1 .118-.421.76.76 0 0 1 .329-.271q.21-.098.495-.098.3 0 .511.105a.73.73 0 0 1 .328.289.8.8 0 0 1 .112.435h-.557a.33.33 0 0 0-.179-.3.44.44 0 0 0-.218-.048.5.5 0 0 0-.213.041.3.3 0 0 0-.126.115.3.3 0 0 0-.043.153.26.26 0 0 0 .075.188q.076.08.25.094l.195.018q.278.024.49.121.211.095.328.261.122.165.119.401a.74.74 0 0 1-.131.428.84.84 0 0 1-.361.282 1.4 1.4 0 0 1-.558.101m1.939-.053.004-.532h.474a.9.9 0 0 0 .32-.052.7.7 0 0 0 .245-.153.7.7 0 0 0 .155-.241.9.9 0 0 0 .054-.313.9.9 0 0 0-.05-.316.62.62 0 0 0-.394-.383.9.9 0 0 0-.32-.053h-.473l.004-.532h.442q.345 0 .601.101.258.1.43.275.173.174.255.4.085.223.083.47v.077a1.3 1.3 0 0 1-.091.455 1.2 1.2 0 0 1-.26.404 1.3 1.3 0 0 1-.434.286 1.6 1.6 0 0 1-.603.107zm-.501 0 .019-2.575h.571l-.019 2.575zm2.579-.751.003-.495h1.466l-.004.495zm2.237.738-.608-2.541h.588l.475 2.158-.121-.08h.317l-.137.08.395-2.064h.473l-.515 2.447zm1.514 0-.518-2.447h.497l.424 2.064-.132-.08h.303l-.115.08.443-2.158h.557l-.575 2.541zm1.434 0 .858-2.541h.922l.852 2.541h-.592l-.688-2.148.181.073h-.449l.188-.073-.701 2.148zm.642-.63.177-.474h.996l.174.474zm2.321.63.018-2.541h.937l.942 2.078h.118l-.07.062.016-2.14h.536l-.019 2.541h-.943l-.942-2.078h-.118l.07-.063-.016 2.141zm4.34 0-.754-2.541h.588l.597 2.144-.132-.066h.355l-.139.066.582-2.144h.571l-.739 2.541zm2.023 0 .018-2.541h.571l-.018 2.541zm1.149 0 .018-2.562h.571l-.019 2.562zm1.541 0-.736-1.093h.626l.772 1.093zm-1.118-.815.003-.449h.627a.45.45 0 0 0 .216-.049.35.35 0 0 0 .144-.142.45.45 0 0 0 .054-.216.4.4 0 0 0-.051-.212.3.3 0 0 0-.142-.143.4.4 0 0 0-.215-.052h-.627l.004-.484h.581q.317 0 .549.097a.76.76 0 0 1 .357.282.84.84 0 0 1 .122.474l-.001.055a.8.8 0 0 1-.132.47.78.78 0 0 1-.361.279q-.23.09-.547.09zm2.552.815.016-2.113h.57l-.015 2.113zm-.698-2.043.003-.498h2.001l-.003.498zm3.403 2.109q-.359 0-.608-.133a.9.9 0 0 1-.373-.382 1.24 1.24 0 0 1-.125-.585l.011-1.507h.571l-.011 1.528a.64.64 0 0 0 .06.292.47.47 0 0 0 .183.188q.122.066.296.066a.6.6 0 0 0 .296-.066.44.44 0 0 0 .186-.188.64.64 0 0 0 .065-.292l.011-1.528h.57l-.01 1.507q-.003.338-.133.585a.92.92 0 0 1-.379.382 1.3 1.3 0 0 1-.61.133m1.302-.066.857-2.541h.923l.851 2.541h-.591l-.688-2.148.181.073h-.449l.188-.073-.701 2.148zm.642-.63.177-.474h.995l.174.474zm2.321.63.018-2.541h.571l-.018 2.541zm.501 0 .004-.502h1.065l-.004.502zm2.17 0 .019-2.562h.571l-.019 2.562zm1.542 0-.737-1.093h.627l.771 1.093zm-1.118-.815.003-.449h.626a.45.45 0 0 0 .217-.049.35.35 0 0 0 .143-.142.43.43 0 0 0 .054-.216.4.4 0 0 0-.051-.212.32.32 0 0 0-.141-.143.4.4 0 0 0-.216-.052h-.626l.003-.484h.582q.316 0 .549.097a.75.75 0 0 1 .356.282.83.83 0 0 1 .122.474v.055a.83.83 0 0 1-.132.47.8.8 0 0 1-.361.279 1.5 1.5 0 0 1-.547.09zm3.306.881q-.344 0-.602-.119a1.25 1.25 0 0 1-.418-.316 1.35 1.35 0 0 1-.325-.87l.001-.077q.002-.237.087-.466a1.248 1.248 0 0 1 .687-.721 1.4 1.4 0 0 1 .589-.115q.335 0 .587.115a1.22 1.22 0 0 1 .677.721 1.3 1.3 0 0 1 .084.466l-.001.077a1.3 1.3 0 0 1-.086.442 1.5 1.5 0 0 1-.254.428q-.168.195-.427.316a1.4 1.4 0 0 1-.599.119m.004-.533q.18 0 .324-.062.146-.063.248-.175a.8.8 0 0 0 .159-.257 1 1 0 0 0 .054-.313.9.9 0 0 0-.053-.324.7.7 0 0 0-.155-.258.7.7 0 0 0-.243-.17.8.8 0 0 0-.323-.059q-.18 0-.324.059a.7.7 0 0 0-.403.428 1 1 0 0 0-.055.324.9.9 0 0 0 .05.313.8.8 0 0 0 .151.257.74.74 0 0 0 .57.237m2.851.533a1.3 1.3 0 0 1-.609-.133.9.9 0 0 1-.373-.382 1.25 1.25 0 0 1-.124-.585l.011-1.507h.57l-.011 1.528q0 .167.061.292a.45.45 0 0 0 .183.188.6.6 0 0 0 .295.066.6.6 0 0 0 .297-.066.45.45 0 0 0 .186-.188.64.64 0 0 0 .064-.292l.011-1.528h.571l-.011 1.507a1.25 1.25 0 0 1-.133.585.9.9 0 0 1-.378.382 1.3 1.3 0 0 1-.61.133m2.135-.066.015-2.113h.571l-.015 2.113zm-.699-2.043.004-.498h2.001l-.004.498zm2.346 2.043.018-2.541h.557l-.018 2.541zm.487 0 .003-.474h1.111l-.004.474zm.008-1.055.003-.473h1.03l-.003.473zm.007-1.013.003-.473h1.086l-.003.473zm1.564 2.068.019-2.562h.571l-.019 2.562zm1.542 0-.737-1.093h.627l.771 1.093zm-1.118-.815.003-.449h.627a.45.45 0 0 0 .216-.049.34.34 0 0 0 .143-.142.43.43 0 0 0 .054-.216.4.4 0 0 0-.05-.212.33.33 0 0 0-.142-.143.4.4 0 0 0-.216-.052h-.626l.003-.484h.582q.316 0 .549.097a.75.75 0 0 1 .356.282.83.83 0 0 1 .122.474v.055a.83.83 0 0 1-.132.47.8.8 0 0 1-.361.279 1.5 1.5 0 0 1-.547.09zM91.571 365.959a1.4 1.4 0 0 1-.58-.108.83.83 0 0 1-.356-.299.8.8 0 0 1-.119-.439h.553q0 .097.051.181a.4.4 0 0 0 .166.136q.11.048.289.049a.8.8 0 0 0 .268-.042.37.37 0 0 0 .165-.115.3.3 0 0 0 .056-.174.22.22 0 0 0-.102-.192q-.105-.072-.337-.094l-.192-.017q-.38-.031-.604-.237a.69.69 0 0 1-.222-.543.76.76 0 0 1 .118-.421.77.77 0 0 1 .33-.271q.209-.098.494-.098.3 0 .51.105a.73.73 0 0 1 .33.289.8.8 0 0 1 .111.435h-.557a.33.33 0 0 0-.179-.3.45.45 0 0 0-.218-.048.5.5 0 0 0-.213.042.296.296 0 0 0-.169.267q0 .108.075.188t.25.094l.195.018q.278.024.49.122.21.093.328.261.12.163.12.4a.73.73 0 0 1-.132.428.8.8 0 0 1-.361.282 1.4 1.4 0 0 1-.558.101m1.94-.052.003-.533h.474a.9.9 0 0 0 .32-.052.7.7 0 0 0 .245-.153.7.7 0 0 0 .155-.24.9.9 0 0 0 .054-.314.9.9 0 0 0-.05-.316.63.63 0 0 0-.394-.383.9.9 0 0 0-.32-.052h-.473l.004-.533h.442q.345 0 .601.101.258.1.43.275.172.174.255.4.084.223.083.47v.077a1.27 1.27 0 0 1-.351.859 1.3 1.3 0 0 1-.434.286 1.6 1.6 0 0 1-.603.108zm-.502 0 .019-2.576h.57l-.018 2.576zm2.579-.752.003-.494h1.466l-.004.494zm2.237.738-.608-2.541h.588l.475 2.158-.121-.08h.317l-.137.08.395-2.064h.473l-.515 2.447zm1.514 0-.518-2.447h.497l.424 2.064-.132-.08h.303l-.115.08.443-2.158h.557l-.575 2.541zm1.434 0 .858-2.541h.922l.852 2.541h-.592l-.688-2.148.181.073h-.449l.188-.073-.701 2.148zm.642-.63.177-.474h.996l.174.474zm2.321.63.018-2.541h.937l.942 2.078h.118l-.07.062.016-2.14h.536l-.019 2.541h-.943l-.942-2.078h-.118l.07-.063-.016 2.141zm4.34 0-.754-2.541h.588l.597 2.144-.132-.066h.355l-.139.066.582-2.144h.571l-.739 2.541zm2.023 0 .018-2.541h.571l-.018 2.541zm1.149 0 .018-2.562h.571l-.019 2.562zm1.541 0-.736-1.093h.626l.772 1.093zm-1.118-.815.003-.449h.627a.46.46 0 0 0 .216-.048.36.36 0 0 0 .144-.143.45.45 0 0 0 .054-.216.4.4 0 0 0-.051-.212.32.32 0 0 0-.142-.143.4.4 0 0 0-.215-.052h-.627l.004-.484h.581q.317 0 .549.098a.75.75 0 0 1 .357.282.84.84 0 0 1 .122.473l-.001.056a.8.8 0 0 1-.132.469.78.78 0 0 1-.361.279q-.23.09-.547.09zm2.552.815.016-2.113h.57l-.015 2.113zm-.698-2.043.003-.498h2.001l-.003.498zm3.403 2.109q-.359 0-.608-.132a.9.9 0 0 1-.373-.383 1.24 1.24 0 0 1-.125-.585l.011-1.507h.571l-.011 1.528a.64.64 0 0 0 .06.292.47.47 0 0 0 .183.188q.122.066.296.066a.6.6 0 0 0 .296-.066.44.44 0 0 0 .186-.188.64.64 0 0 0 .065-.292l.011-1.528h.57l-.01 1.507q-.003.338-.133.585a.93.93 0 0 1-.379.383 1.3 1.3 0 0 1-.61.132m1.302-.066.857-2.541h.923l.851 2.541h-.591l-.688-2.148.181.073h-.449l.188-.073-.701 2.148zm.642-.63.177-.474h.995l.174.474zm2.321.63.018-2.541h.571l-.018 2.541zm.501 0 .004-.501h1.065l-.004.501zm2.17 0 .019-2.562h.571l-.019 2.562zm1.542 0-.737-1.093h.627l.771 1.093zm-1.118-.815.003-.449h.626a.46.46 0 0 0 .217-.048.36.36 0 0 0 .143-.143.43.43 0 0 0 .054-.216.4.4 0 0 0-.051-.212.33.33 0 0 0-.141-.143.4.4 0 0 0-.216-.052h-.626l.003-.484h.582q.316 0 .549.098a.74.74 0 0 1 .356.282.82.82 0 0 1 .122.473v.056a.83.83 0 0 1-.132.469.8.8 0 0 1-.361.279 1.5 1.5 0 0 1-.547.09zm3.306.881q-.345 0-.602-.119a1.25 1.25 0 0 1-.418-.316 1.346 1.346 0 0 1-.325-.87l.001-.077q.002-.237.087-.466.089-.234.26-.421a1.25 1.25 0 0 1 .427-.3 1.4 1.4 0 0 1 .589-.115q.335 0 .587.115a1.23 1.23 0 0 1 .677.721 1.3 1.3 0 0 1 .084.466l-.001.077a1.3 1.3 0 0 1-.086.442 1.4 1.4 0 0 1-.254.428q-.168.195-.427.316a1.4 1.4 0 0 1-.599.119m.004-.533q.18 0 .324-.062.146-.063.248-.174a.8.8 0 0 0 .159-.258 1 1 0 0 0 .054-.313.9.9 0 0 0-.053-.324.7.7 0 0 0-.155-.257.7.7 0 0 0-.243-.171.8.8 0 0 0-.323-.059q-.18 0-.324.059a.71.71 0 0 0-.403.428 1 1 0 0 0-.055.324.9.9 0 0 0 .05.313.8.8 0 0 0 .151.258q.104.111.246.174a.8.8 0 0 0 .324.062m2.851.533q-.358 0-.609-.132a.9.9 0 0 1-.373-.383 1.25 1.25 0 0 1-.124-.585l.011-1.507h.57l-.011 1.528q0 .167.061.292a.45.45 0 0 0 .183.188.6.6 0 0 0 .295.066.6.6 0 0 0 .297-.066.45.45 0 0 0 .186-.188.64.64 0 0 0 .064-.292l.011-1.528h.571l-.011 1.507a1.25 1.25 0 0 1-.133.585.92.92 0 0 1-.378.383 1.3 1.3 0 0 1-.61.132m2.135-.066.015-2.113h.571l-.015 2.113zm-.699-2.043.004-.498h2.001l-.004.498zm2.346 2.043.018-2.541h.557l-.018 2.541zm.487 0 .003-.474h1.111l-.004.474zm.008-1.055.003-.473h1.03l-.003.473zm.007-1.013.003-.473h1.086l-.003.473zm1.564 2.068.019-2.562h.571l-.019 2.562zm1.542 0-.737-1.093h.627l.771 1.093zm-1.118-.815.003-.449h.627a.46.46 0 0 0 .216-.048.35.35 0 0 0 .143-.143.43.43 0 0 0 .054-.216.4.4 0 0 0-.05-.212.33.33 0 0 0-.142-.143.4.4 0 0 0-.216-.052h-.626l.003-.484h.582q.317 0 .549.098a.74.74 0 0 1 .356.282.82.82 0 0 1 .122.473v.056a.83.83 0 0 1-.132.469.8.8 0 0 1-.361.279 1.5 1.5 0 0 1-.547.09zM427.62 365.959a1.4 1.4 0 0 1-.58-.108.84.84 0 0 1-.357-.299.8.8 0 0 1-.118-.439h.553q0 .097.051.181a.4.4 0 0 0 .166.136q.11.048.289.049a.8.8 0 0 0 .268-.042.36.36 0 0 0 .164-.115.3.3 0 0 0 .057-.174.22.22 0 0 0-.103-.192q-.103-.072-.337-.094l-.191-.017q-.38-.031-.604-.237a.69.69 0 0 1-.222-.543.76.76 0 0 1 .118-.421.77.77 0 0 1 .329-.271q.21-.098.495-.098.299 0 .511.105a.73.73 0 0 1 .328.289.8.8 0 0 1 .112.435h-.557a.337.337 0 0 0-.179-.3.44.44 0 0 0-.219-.048.5.5 0 0 0-.212.042.3.3 0 0 0-.126.114.3.3 0 0 0-.043.153.26.26 0 0 0 .075.188q.076.08.25.094l.195.018q.277.024.49.122.211.093.328.261.121.163.119.4a.73.73 0 0 1-.132.428.8.8 0 0 1-.36.282 1.4 1.4 0 0 1-.558.101m1.939-.052.004-.533h.473a.9.9 0 0 0 .321-.052.7.7 0 0 0 .245-.153.7.7 0 0 0 .155-.24 1 1 0 0 0 .054-.314.9.9 0 0 0-.05-.316.6.6 0 0 0-.151-.237.6.6 0 0 0-.243-.146.9.9 0 0 0-.32-.052h-.473l.004-.533h.442q.344 0 .601.101.257.1.43.275.173.174.254.4.085.223.084.47v.077a1.3 1.3 0 0 1-.091.456 1.2 1.2 0 0 1-.26.403 1.3 1.3 0 0 1-.434.286 1.6 1.6 0 0 1-.603.108zm-.501 0 .019-2.576h.57l-.018 2.576zm2.579-.752.003-.494h1.466l-.004.494zm2.237.738-.608-2.541h.588l.475 2.158-.121-.08h.317l-.137.08.394-2.064h.474l-.516 2.447zm1.514 0-.519-2.447h.498l.424 2.064-.132-.08h.303l-.115.08.443-2.158h.557l-.575 2.541zm1.434 0 .857-2.541h.923l.852 2.541h-.592l-.688-2.148.181.073h-.449l.188-.073-.701 2.148zm.642-.63.177-.474h.996l.174.474zm2.321.63.018-2.541h.937l.942 2.078h.118l-.07.062.015-2.14h.536l-.018 2.541h-.943l-.942-2.078h-.119l.07-.063-.015 2.141zm4.34 0-.754-2.541h.588l.597 2.144-.132-.066h.355l-.14.066.583-2.144h.571l-.739 2.541zm2.023 0 .018-2.541h.571l-.018 2.541zm1.148 0 .019-2.562h.571l-.019 2.562zm1.542 0-.737-1.093h.627l.772 1.093zm-1.118-.815.003-.449h.627a.46.46 0 0 0 .216-.048.36.36 0 0 0 .144-.143.44.44 0 0 0 .053-.216.4.4 0 0 0-.05-.212.33.33 0 0 0-.142-.143.4.4 0 0 0-.215-.052h-.627l.004-.484h.581q.316 0 .549.098a.74.74 0 0 1 .356.282.82.82 0 0 1 .122.473v.056a.8.8 0 0 1-.132.469.8.8 0 0 1-.361.279 1.5 1.5 0 0 1-.547.09zm2.552.815.015-2.113h.571l-.015 2.113zm-.699-2.043.004-.498h2.001l-.003.498zm3.404 2.109q-.359 0-.608-.132a.9.9 0 0 1-.374-.383 1.25 1.25 0 0 1-.124-.585l.011-1.507h.571l-.011 1.528a.64.64 0 0 0 .06.292.47.47 0 0 0 .183.188q.122.066.296.066a.6.6 0 0 0 .296-.066.45.45 0 0 0 .186-.188.6.6 0 0 0 .064-.292l.011-1.528h.571l-.011 1.507a1.25 1.25 0 0 1-.133.585.92.92 0 0 1-.378.383 1.3 1.3 0 0 1-.61.132m1.302-.066.857-2.541h.922l.852 2.541h-.592l-.687-2.148.18.073h-.449l.189-.073-.701 2.148zm.641-.63.178-.474h.995l.174.474zm2.322.63.018-2.541h.571l-.019 2.541zm.501 0 .003-.501h1.065l-.003.501zm2.17 0 .019-2.562h.57l-.018 2.562zm1.542 0-.737-1.093h.626l.772 1.093zm-1.118-.815.003-.449h.626a.45.45 0 0 0 .216-.048.36.36 0 0 0 .144-.143.45.45 0 0 0 .054-.216.4.4 0 0 0-.051-.212.33.33 0 0 0-.141-.143.4.4 0 0 0-.216-.052h-.626l.003-.484h.581q.318 0 .55.098a.74.74 0 0 1 .356.282.83.83 0 0 1 .122.473v.056a.8.8 0 0 1-.133.469.77.77 0 0 1-.36.279q-.23.09-.547.09zm3.306.881q-.345 0-.602-.119a1.25 1.25 0 0 1-.419-.316 1.346 1.346 0 0 1-.324-.87l.001-.077q.002-.237.086-.466.09-.234.261-.421a1.25 1.25 0 0 1 .427-.3 1.4 1.4 0 0 1 .589-.115q.334 0 .587.115a1.23 1.23 0 0 1 .677.721 1.3 1.3 0 0 1 .084.466l-.001.077q-.002.212-.086.442a1.4 1.4 0 0 1-.254.428q-.168.195-.427.316a1.4 1.4 0 0 1-.599.119m.003-.533a.8.8 0 0 0 .325-.062q.146-.063.248-.174a.7.7 0 0 0 .158-.258.9.9 0 0 0 .055-.313.9.9 0 0 0-.054-.324.7.7 0 0 0-.154-.257.7.7 0 0 0-.243-.171.8.8 0 0 0-.323-.059.9.9 0 0 0-.324.059.71.71 0 0 0-.403.428 1 1 0 0 0-.055.324.9.9 0 0 0 .05.313.8.8 0 0 0 .151.258.74.74 0 0 0 .569.236m2.851.533q-.358 0-.608-.132a.9.9 0 0 1-.373-.383 1.24 1.24 0 0 1-.124-.585l.01-1.507h.571l-.011 1.528a.64.64 0 0 0 .061.292.45.45 0 0 0 .183.188.6.6 0 0 0 .295.066.6.6 0 0 0 .297-.066.44.44 0 0 0 .185-.188.6.6 0 0 0 .065-.292l.011-1.528h.571l-.011 1.507q-.003.338-.133.585a.9.9 0 0 1-.379.383 1.3 1.3 0 0 1-.61.132m2.136-.066.015-2.113h.571l-.015 2.113zm-.699-2.043.004-.498h2.001l-.004.498zm2.346 2.043.018-2.541h.557l-.018 2.541zm.487 0 .003-.474h1.111l-.004.474zm.008-1.055.003-.473h1.03l-.003.473zm.007-1.013.003-.473h1.086l-.003.473zm1.564 2.068.019-2.562h.57l-.018 2.562zm1.542 0-.737-1.093h.627l.771 1.093zm-1.118-.815.003-.449h.626a.46.46 0 0 0 .217-.048.36.36 0 0 0 .143-.143.44.44 0 0 0 .054-.216.4.4 0 0 0-.051-.212.33.33 0 0 0-.141-.143.4.4 0 0 0-.216-.052h-.626l.003-.484h.582q.316 0 .549.098a.74.74 0 0 1 .356.282.83.83 0 0 1 .122.473v.056a.8.8 0 0 1-.133.469.77.77 0 0 1-.36.279q-.23.09-.547.09zM359.571 218.737a1.4 1.4 0 0 1-.58-.108.83.83 0 0 1-.356-.299.8.8 0 0 1-.119-.439h.553q0 .097.051.181a.4.4 0 0 0 .166.136.7.7 0 0 0 .289.049.7.7 0 0 0 .268-.042.4.4 0 0 0 .165-.115.3.3 0 0 0 .057-.174.22.22 0 0 0-.104-.191q-.103-.074-.336-.094l-.192-.018q-.379-.032-.604-.236a.7.7 0 0 1-.222-.543.77.77 0 0 1 .118-.422.77.77 0 0 1 .329-.271q.21-.097.495-.097.3 0 .511.104a.74.74 0 0 1 .328.289.8.8 0 0 1 .112.435h-.557a.3.3 0 0 0-.044-.171.32.32 0 0 0-.135-.128.43.43 0 0 0-.218-.049.5.5 0 0 0-.213.042.295.295 0 0 0-.169.268.26.26 0 0 0 .075.188q.076.08.25.093l.195.018q.278.024.49.122.211.093.328.261a.64.64 0 0 1 .119.4.74.74 0 0 1-.131.428.83.83 0 0 1-.361.282 1.4 1.4 0 0 1-.558.101m1.939-.052.004-.533h.474a.9.9 0 0 0 .32-.052.7.7 0 0 0 .245-.153.7.7 0 0 0 .155-.24.9.9 0 0 0 .054-.314.9.9 0 0 0-.05-.316.62.62 0 0 0-.394-.383.9.9 0 0 0-.32-.052h-.473l.004-.533h.442q.345 0 .601.101.258.1.43.275.173.175.255.4.085.223.083.47v.077a1.27 1.27 0 0 1-.351.859 1.3 1.3 0 0 1-.434.286 1.6 1.6 0 0 1-.603.108zm-.501 0 .019-2.576h.571l-.019 2.576zm2.579-.752.003-.494h1.466l-.004.494zm2.237.738-.608-2.541h.588l.475 2.158-.121-.08h.317l-.137.08.395-2.064h.473l-.515 2.447zm1.514 0-.518-2.447h.497l.424 2.064-.132-.08h.303l-.115.08.443-2.158h.557l-.575 2.541zm1.434 0 .858-2.541h.922l.852 2.541h-.592l-.688-2.148.181.073h-.449l.188-.073-.701 2.148zm.642-.63.177-.474h.996l.174.474zm2.321.63.018-2.541h.937l.942 2.078h.118l-.07.063.016-2.141h.536l-.019 2.541h-.943l-.942-2.078h-.118l.07-.063-.016 2.141zm4.34 0-.754-2.541h.588l.597 2.144-.132-.066h.355l-.139.066.582-2.144h.571l-.739 2.541zm2.023 0 .018-2.541h.571l-.018 2.541zm1.149 0 .018-2.562h.571l-.019 2.562zm1.541 0-.736-1.093h.626l.772 1.093zm-1.118-.815.003-.449h.627a.46.46 0 0 0 .216-.048.36.36 0 0 0 .144-.143.45.45 0 0 0 .054-.216.4.4 0 0 0-.051-.212.32.32 0 0 0-.142-.143.4.4 0 0 0-.215-.052h-.627l.004-.484h.581q.316 0 .549.098a.75.75 0 0 1 .357.282.84.84 0 0 1 .122.473l-.001.056a.8.8 0 0 1-.132.469.78.78 0 0 1-.361.279q-.23.09-.547.09zm2.552.815.016-2.113h.57l-.015 2.113zm-.698-2.043.003-.498h2.001l-.003.498zm3.403 2.109q-.359 0-.608-.132a.9.9 0 0 1-.373-.383 1.24 1.24 0 0 1-.125-.585l.011-1.507h.571l-.011 1.528a.64.64 0 0 0 .06.292.46.46 0 0 0 .183.188q.122.066.296.066a.6.6 0 0 0 .296-.066.44.44 0 0 0 .186-.188.64.64 0 0 0 .065-.292l.011-1.528h.57l-.01 1.507q-.003.337-.133.585a.93.93 0 0 1-.379.383 1.3 1.3 0 0 1-.61.132m1.302-.066.857-2.541h.923l.851 2.541h-.591l-.688-2.148.181.073h-.449l.188-.073-.701 2.148zm.642-.63.177-.474h.995l.174.474zm2.321.63.018-2.541h.571l-.018 2.541zm.501 0 .004-.501h1.065l-.004.501zm2.17 0 .019-2.562h.571l-.019 2.562zm1.542 0-.737-1.093h.627l.771 1.093zm-1.118-.815.003-.449h.626a.46.46 0 0 0 .217-.048.36.36 0 0 0 .143-.143.43.43 0 0 0 .054-.216.4.4 0 0 0-.051-.212.33.33 0 0 0-.141-.143.4.4 0 0 0-.216-.052h-.626l.003-.484h.582q.316 0 .549.098a.74.74 0 0 1 .356.282.82.82 0 0 1 .122.473v.056a.82.82 0 0 1-.132.469.8.8 0 0 1-.361.279 1.5 1.5 0 0 1-.547.09zm3.306.881q-.345 0-.602-.118a1.3 1.3 0 0 1-.418-.317 1.346 1.346 0 0 1-.325-.87l.001-.077q.001-.237.087-.466.089-.234.26-.421a1.25 1.25 0 0 1 .427-.3 1.4 1.4 0 0 1 .589-.114q.335 0 .587.114a1.23 1.23 0 0 1 .677.721 1.3 1.3 0 0 1 .084.466l-.001.077a1.3 1.3 0 0 1-.086.442 1.4 1.4 0 0 1-.254.428q-.168.194-.427.317-.255.118-.599.118m.004-.533a.8.8 0 0 0 .324-.062q.146-.063.248-.174a.8.8 0 0 0 .159-.258 1 1 0 0 0 .054-.313.9.9 0 0 0-.053-.324.7.7 0 0 0-.155-.257.7.7 0 0 0-.243-.171.8.8 0 0 0-.323-.059q-.18 0-.324.059a.71.71 0 0 0-.403.428 1 1 0 0 0-.055.324.9.9 0 0 0 .05.313.8.8 0 0 0 .151.258q.104.111.246.174a.8.8 0 0 0 .324.062m2.851.533q-.358 0-.609-.132a.9.9 0 0 1-.373-.383 1.25 1.25 0 0 1-.124-.585l.011-1.507h.57l-.011 1.528q0 .167.061.292a.45.45 0 0 0 .183.188.6.6 0 0 0 .295.066.6.6 0 0 0 .297-.066.44.44 0 0 0 .186-.188.64.64 0 0 0 .064-.292l.011-1.528h.571l-.011 1.507a1.25 1.25 0 0 1-.133.585.9.9 0 0 1-.378.383 1.3 1.3 0 0 1-.61.132m2.135-.066.015-2.113h.571l-.015 2.113zm-.699-2.043.004-.498h2.001l-.004.498zm2.346 2.043.018-2.541h.557l-.018 2.541zm.487 0 .003-.474h1.111l-.004.474zm.008-1.055.003-.473h1.03l-.003.473zm.007-1.013.003-.473h1.086l-.003.473zm1.564 2.068.019-2.562h.571l-.019 2.562zm1.542 0-.737-1.093h.627l.771 1.093zm-1.118-.815.003-.449h.627a.46.46 0 0 0 .216-.048.35.35 0 0 0 .143-.143.43.43 0 0 0 .054-.216.4.4 0 0 0-.05-.212.33.33 0 0 0-.142-.143.4.4 0 0 0-.216-.052h-.626l.003-.484h.582q.316 0 .549.098a.74.74 0 0 1 .356.282.82.82 0 0 1 .122.473v.056a.82.82 0 0 1-.132.469.8.8 0 0 1-.361.279 1.5 1.5 0 0 1-.547.09z"/><path stroke="#000" stroke-width=".952" d="M183.768 227.598v37.161c0 8.36 6.777 15.137 15.137 15.137h61.964M382.588 227.598v37.161c0 8.36-6.777 15.137-15.137 15.137h-61.964M114.526 317.907V205.732a8.603 8.603 0 0 1 8.602-8.603h25.829M451.812 317.923V205.748a8.603 8.603 0 0 0-8.603-8.602h-25.828"/><path fill="#036897" stroke="#fff" stroke-miterlimit="10" stroke-width="1.259" d="M103.427 255.464c-11.753-2.259-18.14 3.69-17.115 9.021v.205c-9.276 1.641-6.8 12.508-2.263 12.508h.41c-1.238 5.129 9.691 10.251 15.672 7.59l.406-.414c2.066 4.719 9.896 5.335 17.32 5.54 6.6.201 10.31-.205 13.199-3.08h.407c10.515.82 15.257-6.352 12.99-11.482l.616-.205c3.508-.816 3.922-9.025-2.264-10.255l.205-.407c2.677-5.331-3.71-10.251-12.371-9.435l-.615-.201c-6.186-5.741-24.125-4.72-26.183.816z"/><path fill="#fff" d="M102.169 269.085q-.564.006-.951-.166a1.36 1.36 0 0 1-.588-.483 1.3 1.3 0 0 1-.202-.715l.905-.01q0 .16.086.295a.64.64 0 0 0 .274.219q.183.078.473.075.261-.003.438-.073a.6.6 0 0 0 .267-.191.48.48 0 0 0 .09-.285.36.36 0 0 0-.172-.312q-.17-.117-.553-.147l-.313-.025q-.62-.045-.991-.377-.372-.332-.373-.884a1.25 1.25 0 0 1 .185-.69 1.25 1.25 0 0 1 .534-.45 1.9 1.9 0 0 1 .807-.168q.489-.005.837.162.354.161.542.467.19.299.191.709l-.911.01a.53.53 0 0 0-.075-.278.54.54 0 0 0-.222-.209.7.7 0 0 0-.359-.075.8.8 0 0 0-.347.072.485.485 0 0 0-.272.441.43.43 0 0 0 .127.306q.125.13.41.149l.319.025q.455.035.803.191.347.15.542.421.2.265.201.652.002.399-.208.702a1.35 1.35 0 0 1-.584.467 2.3 2.3 0 0 1-.91.175m3.169-.119-.003-.871.774-.008q.29-.003.523-.091.233-.093.398-.255.163-.167.249-.395.084-.234.083-.513a1.5 1.5 0 0 0-.087-.517 1.01 1.01 0 0 0-.651-.619 1.5 1.5 0 0 0-.524-.08l-.774.008-.003-.87.723-.008q.564-.006.985.155.422.16.707.442.286.28.424.65.143.362.145.766v.125a2.07 2.07 0 0 1-.558 1.412q-.284.294-.705.474-.42.181-.983.187zm-.82.009-.014-4.212.933-.01.015 4.212zm4.204-1.274-.003-.809 2.395-.025.003.808zm3.67 1.167-1.039-4.143.962-.011.815 3.52-.2-.129.518-.005-.222.133.609-3.381.774-.009-.8 4.01zm2.476-.026-.891-3.992.814-.008.729 3.367-.217-.129.495-.005-.187.133.688-3.536.91-.01-.896 4.164zm2.345-.026 1.357-4.168 1.508-.017 1.437 4.14-.967.01-1.162-3.499.296.116-.734.008.307-.123-1.109 3.524zm1.038-1.041.282-.777 1.627-.017.293.771zm3.806.99-.014-4.155 1.53-.016 1.577 3.381.193-.002-.113.103-.012-3.499.876-.01.015 4.155-1.543.016-1.576-3.381-.194.002.114-.103.012 3.5zm-18.042 7.193-.015-4.189.933-.01.015 4.189zm2.521-.027-1.224-1.774 1.024-.011 1.281 1.773zm-1.843-1.312-.003-.735 1.025-.01a.74.74 0 0 0 .352-.084.6.6 0 0 0 .233-.236.7.7 0 0 0 .084-.353.7.7 0 0 0-.087-.347.52.52 0 0 0-.234-.231.7.7 0 0 0-.353-.081l-1.024.011-.003-.791.95-.01q.519-.006.9.149.382.15.588.455t.207.772l.001.091q.001.46-.208.77a1.26 1.26 0 0 1-.585.462q-.375.152-.893.157zm5.421 1.382a2.3 2.3 0 0 1-.986-.183q-.415-.195-.69-.511a2.3 2.3 0 0 1-.412-.696 2.2 2.2 0 0 1-.133-.721l-.001-.125a2.148 2.148 0 0 1 .553-1.457 2 2 0 0 1 .692-.497 2.3 2.3 0 0 1 .961-.198 2.3 2.3 0 0 1 .963.177 2.02 2.02 0 0 1 1.119 1.167q.144.374.145.761v.125q.002.347-.134.724a2.3 2.3 0 0 1-.407.704q-.272.322-.692.526a2.3 2.3 0 0 1-.978.204m-.003-.871q.296-.003.528-.108.239-.105.403-.289a1.2 1.2 0 0 0 .255-.424q.084-.24.084-.513a1.5 1.5 0 0 0-.093-.528 1.1 1.1 0 0 0-.258-.419 1.1 1.1 0 0 0-.399-.274 1.4 1.4 0 0 0-.53-.091 1.4 1.4 0 0 0-.529.102 1.2 1.2 0 0 0-.403.283q-.163.178-.249.424-.084.24-.083.53.002.274.087.511.086.239.252.419.171.18.405.28.233.1.53.097m4.67.821q-.586.006-.996-.206a1.46 1.46 0 0 1-.617-.619 2.04 2.04 0 0 1-.214-.954l-.008-2.464.933-.01.008 2.498q.001.273.105.477a.75.75 0 0 0 .302.304 1 1 0 0 0 .484.103 1 1 0 0 0 .484-.113.73.73 0 0 0 .3-.311 1 1 0 0 0 .101-.479l-.009-2.498.933-.01.009 2.464a2.06 2.06 0 0 1-.207.958q-.21.407-.613.633-.402.22-.995.227m2.677-.137-.015-4.154.911-.01.014 4.154zm.796-.008-.002-.774 1.815-.02.003.774zm-.006-1.725-.002-.774 1.684-.018.003.774zm-.005-1.656-.003-.774 1.775-.019.003.774zm2.593 3.353-.014-4.188.933-.01.015 4.188zm2.521-.027-1.224-1.774 1.025-.011 1.28 1.774zm-1.842-1.312-.003-.734 1.024-.011a.74.74 0 0 0 .353-.083.6.6 0 0 0 .232-.236.7.7 0 0 0 .085-.354.7.7 0 0 0-.087-.346.53.53 0 0 0-.234-.231.7.7 0 0 0-.353-.082l-1.025.011-.002-.791.95-.01q.517-.006.9.15.381.15.587.455.207.304.208.771v.091q.002.462-.208.771-.203.303-.584.461-.375.152-.893.158z"/><path fill="#036897" stroke="#fff" stroke-miterlimit="10" stroke-width="1.259" d="M439.427 257.464c-11.753-2.26-18.14 3.69-17.115 9.021v.205c-9.276 1.641-6.801 12.507-2.263 12.507h.41c-1.238 5.13 9.691 10.252 15.672 7.591l.406-.414c2.066 4.719 9.896 5.334 17.32 5.54 6.6.201 10.31-.206 13.199-3.08h.407c10.515.82 15.257-6.352 12.99-11.482l.616-.205c3.508-.816 3.922-9.025-2.264-10.256l.205-.406c2.677-5.331-3.71-10.251-12.371-9.435l-.615-.201c-6.186-5.741-24.125-4.72-26.183.816z"/><path fill="#fff" d="M438.125 271.108q-.564 0-.949-.176a1.36 1.36 0 0 1-.583-.49 1.3 1.3 0 0 1-.194-.717h.905a.55.55 0 0 0 .083.296q.09.137.272.222.181.08.472.08.261 0 .438-.069a.6.6 0 0 0 .269-.187.5.5 0 0 0 .093-.285.35.35 0 0 0-.168-.313q-.17-.12-.551-.154l-.313-.028q-.62-.051-.987-.387-.368-.336-.364-.888.003-.398.193-.688.195-.291.538-.444a1.9 1.9 0 0 1 .809-.16q.49 0 .836.171.351.166.537.472.186.302.182.712h-.91a.54.54 0 0 0-.292-.49.7.7 0 0 0-.358-.079.8.8 0 0 0-.348.068.5.5 0 0 0-.206.188.5.5 0 0 0-.07.25q-.002.177.123.307.124.132.408.154l.319.029q.454.04.801.199.346.153.537.427.198.267.195.654a1.2 1.2 0 0 1-.216.7 1.35 1.35 0 0 1-.589.461q-.383.165-.912.165m3.17-.085.007-.871h.774q.29 0 .524-.085a1.2 1.2 0 0 0 .4-.251q.166-.165.253-.393.087-.233.089-.512a1.5 1.5 0 0 0-.081-.518 1.04 1.04 0 0 0-.248-.387 1.1 1.1 0 0 0-.397-.239 1.5 1.5 0 0 0-.523-.085h-.774l.007-.871h.722q.564 0 .984.165t.702.45.417.654q.14.364.136.769l-.001.125a2.06 2.06 0 0 1-.573 1.406 2.1 2.1 0 0 1-.709.466q-.423.177-.986.177zm-.819 0 .03-4.212h.933l-.03 4.212zm4.216-1.23.006-.808h2.396l-.006.808zM448.35 271l-.994-4.154h.962l.777 3.528-.199-.131h.518l-.223.131.645-3.375h.774l-.843 4.001zm2.476 0-.848-4.001h.814l.693 3.375-.216-.131h.495l-.188.131.725-3.528h.911l-.941 4.154zm2.345 0 1.402-4.154h1.508l1.393 4.154h-.968l-1.124-3.511.295.119h-.734l.308-.119-1.146 3.511zm1.049-1.03.29-.774h1.628l.284.774zm3.795 1.03.03-4.154h1.531l1.541 3.397h.193l-.114.102.025-3.499h.876l-.03 4.154h-1.542l-1.54-3.398h-.194l.115-.102-.025 3.5zm-19.444 7.108q-.564 0-.983-.194a2 2 0 0 1-.685-.518 2.211 2.211 0 0 1-.531-1.422l.001-.125q.003-.387.142-.763.145-.381.426-.689t.698-.489q.417-.188.963-.188.547 0 .961.188a2 2 0 0 1 1.107 1.178q.139.375.137.763l-.001.125a2.1 2.1 0 0 1-.142.722 2.3 2.3 0 0 1-.415.7 2.1 2.1 0 0 1-.698.518 2.3 2.3 0 0 1-.98.194m.006-.871q.296 0 .53-.102.24-.103.406-.285.172-.182.259-.421t.089-.512a1.4 1.4 0 0 0-.087-.529 1.1 1.1 0 0 0-.253-.422 1.1 1.1 0 0 0-.396-.278 1.4 1.4 0 0 0-.529-.097q-.296 0-.53.097a1.16 1.16 0 0 0-.659.7 1.6 1.6 0 0 0-.089.529q-.003.273.081.512.083.239.248.421.168.182.402.285.232.102.528.102m3.765.763-1.233-4.155h.961l.977 3.506-.216-.108h.581l-.229.108.953-3.506h.934L443.862 278zm3.296 0 .03-4.155h.911l-.03 4.155zm.797 0 .006-.774h1.815l-.005.774zm.013-1.725.005-.774h1.685l-.006.774zm.012-1.656.005-.774h1.776l-.006.774zm2.557 3.381.031-4.189h.933l-.03 4.189zm2.522 0-1.205-1.787h1.024L452.62 278zm-1.829-1.332.005-.734h1.025a.74.74 0 0 0 .353-.08.6.6 0 0 0 .235-.233.7.7 0 0 0 .088-.353.7.7 0 0 0-.083-.347.52.52 0 0 0-.232-.233.7.7 0 0 0-.352-.086h-1.024l.006-.791h.95q.518 0 .898.16.38.153.583.461.202.306.199.773l-.001.092q-.003.46-.216.768a1.26 1.26 0 0 1-.589.455 2.4 2.4 0 0 1-.895.148zm3.464 1.332.03-4.155h.934l-.03 4.155zm.82 0 .006-.82h1.741l-.006.82zm1.994 0 1.402-4.155h1.508l1.393 4.155h-.968l-1.124-3.512.295.12h-.734l.308-.12-1.146 3.512zm1.049-1.03.29-.774h1.628l.285.774zm4.215-.547-1.194-2.578h.956l.857 1.93-.165-.052h.478l-.177.052.8-1.93h.904l-1.134 2.578zm.193 1.577.012-1.708h.917l-.013 1.708z"/><path stroke="#000" stroke-width=".952" d="M150.345 346.527h266.271"/><path fill="#036897" stroke="#fff" stroke-miterlimit="10" stroke-width="1.259" d="M270.401 330.531c-11.753-2.259-18.14 3.69-17.115 9.021v.205c-9.277 1.641-6.801 12.508-2.263 12.508h.41c-1.238 5.129 9.691 10.251 15.672 7.59l.406-.414c2.066 4.719 9.896 5.335 17.32 5.54 6.6.201 10.31-.205 13.199-3.08h.407c10.514.82 15.257-6.352 12.99-11.482l.615-.205c3.509-.816 3.923-9.025-2.263-10.255l.205-.407c2.677-5.331-3.71-10.251-12.371-9.435l-.616-.201c-6.185-5.741-24.124-4.72-26.182.816z"/><path fill="#fff" d="m266.002 347.812.03-4.155h.933l-.03 4.155zm1.878 0 .03-4.155h1.531l1.54 3.398h.194l-.115.102.025-3.5h.877l-.03 4.155h-1.542l-1.541-3.398h-.193l.114-.102-.025 3.5zm5.81 0 .025-3.455h.933l-.025 3.455zm-1.142-3.341.005-.814h3.273l-.006.814zm3.835 3.341.03-4.155h.91l-.03 4.155zm.797 0 .005-.774h1.816l-.006.774zm.012-1.725.006-.774h1.684l-.005.774zm.012-1.656.006-.774h1.775l-.005.774zm2.558 3.381.03-4.189h.933l-.03 4.189zm2.521 0-1.205-1.787h1.024l1.262 1.787zm-1.829-1.332.006-.734h1.024a.74.74 0 0 0 .353-.08.6.6 0 0 0 .235-.233.7.7 0 0 0 .088-.353.67.67 0 0 0-.083-.347.52.52 0 0 0-.231-.233.7.7 0 0 0-.352-.086h-1.025l.006-.791h.95q.519 0 .898.16.38.154.583.46.203.308.199.774v.091q-.003.462-.216.769a1.26 1.26 0 0 1-.59.455 2.4 2.4 0 0 1-.894.148zm3.465 1.332.03-4.155h1.531l1.54 3.398h.194l-.115.102.025-3.5h.877l-.03 4.155h-1.542l-1.541-3.398h-.193l.114-.102-.025 3.5zm4.985 0 .03-4.155h.91l-.029 4.155zm.797 0 .005-.774h1.816l-.006.774zm.012-1.725.006-.774h1.684l-.005.774zm.012-1.656.006-.774h1.775l-.005.774zm3.383 3.381.025-3.455h.933l-.025 3.455zm-1.142-3.341.005-.814h3.273l-.006.814z"/><path fill="#FFD084" d="M209 125.651a1.65 1.65 0 0 1 1.651-1.651h145.698a1.65 1.65 0 0 1 1.651 1.651v19.698a1.65 1.65 0 0 1-1.651 1.651H210.651a1.65 1.65 0 0 1-1.651-1.651z"/><path fill="#000" d="m233.073 139 .047-6.57h2.097l2.724 5.508h.297l-.181.162.04-5.67h1.206l-.047 6.57h-2.106l-2.723-5.508h-.306l.181-.162-.041 5.67zm9.891.171q-.63 0-1.105-.216a2.3 2.3 0 0 1-.779-.576 2.7 2.7 0 0 1-.462-.819 2.8 2.8 0 0 1-.146-.918l.001-.171q.004-.486.16-.936.165-.459.474-.81.317-.36.778-.567a2.5 2.5 0 0 1 1.063-.216q.792 0 1.321.351.537.342.803.909.266.558.261 1.206l-.003.45h-4.329l.006-.765h3.546l-.39.378a2.1 2.1 0 0 0-.129-.801 1.06 1.06 0 0 0-.411-.513q-.268-.18-.682-.18a1.26 1.26 0 0 0-.704.189 1.2 1.2 0 0 0-.445.549 2.3 2.3 0 0 0-.15.846q-.003.459.138.819.142.351.437.558.296.198.755.198t.748-.18a.85.85 0 0 0 .373-.459h1.152a2.1 2.1 0 0 1-.421.882 2.05 2.05 0 0 1-.787.585 2.6 2.6 0 0 1-1.073.207m5.519-.108q-.675 0-1.114-.171a1.24 1.24 0 0 1-.644-.594q-.213-.423-.208-1.134l.041-4.428h1.17l-.042 4.509q-.002.36.185.558.197.189.557.189h.765l-.008 1.071zm-2.725-4.032.007-.918h3.456l-.007.918zM251.91 139l.961-4.725h1.44l1.037 4.725h-.99l-1.055-4.698h.522l-.997 4.698zm-.369 0-.002-1.026h.999l-.007 1.026zm-.504 0-1.297-4.887h1.215l1.234 4.887zm3.636 0 .007-1.026h.999l-.016 1.026zm.396 0 1.16-4.887h1.134L256.149 139zm5.486.171a2.9 2.9 0 0 1-1.141-.207 2.5 2.5 0 0 1-.833-.558 2.5 2.5 0 0 1-.516-.81 2.6 2.6 0 0 1-.165-.936l.002-.189a2.5 2.5 0 0 1 .187-.954 2.6 2.6 0 0 1 .536-.81q.354-.36.85-.558a2.9 2.9 0 0 1 1.118-.207q.62 0 1.114.207.494.198.833.558.35.351.526.81.176.45.173.954l-.002.189a2.5 2.5 0 0 1-.186.936q-.175.45-.519.81-.345.351-.841.558-.497.207-1.136.207m.008-1.071q.459 0 .775-.198.317-.207.481-.549a1.9 1.9 0 0 0 .168-.792q.003-.45-.165-.792a1.23 1.23 0 0 0-.482-.549 1.34 1.34 0 0 0-.755-.207q-.44 0-.766.207a1.3 1.3 0 0 0-.49.549 1.75 1.75 0 0 0-.177.792q-.003.441.156.792.169.342.482.549.314.198.773.198m3.753.9.035-4.887h.99l-.015 2.07h-.027q.007-1.053.462-1.593.454-.54 1.327-.54h.18l-.008 1.089h-.342q-.63 0-.984.342-.344.333-.349.972l-.018 2.547zm7.173 0-1.622-2.286h-.729l2.098-2.601h1.305l-1.934 2.403.031-.63 2.264 3.114zm-3.42 0 .047-6.57h1.251l-.047 6.57zm6.948 0 2.288-6.57h2.088l2.257 6.57h-1.314l-1.912-5.697.457.198h-1.125l.47-.198-1.931 5.697zm1.578-1.746.413-1.08h2.664l.388 1.08zm5.932 1.746.035-4.887h.99l-.015 2.07h-.027q.007-1.053.462-1.593.453-.54 1.326-.54h.18l-.007 1.089h-.342q-.63 0-.984.342-.344.333-.349.972l-.018 2.547zm5.885.171q-.639 0-1.105-.216a2.3 2.3 0 0 1-.77-.576 2.5 2.5 0 0 1-.453-.81q-.15-.45-.147-.918l.002-.171q.003-.495.16-.945.165-.459.482-.81.318-.36.778-.567a2.6 2.6 0 0 1 1.082-.216q.639 0 1.141.252.502.243.796.684.303.441.335 1.026h-1.215a.97.97 0 0 0-.32-.63q-.268-.252-.745-.252-.414 0-.694.198a1.2 1.2 0 0 0-.409.549 2.1 2.1 0 0 0-.141.792q-.003.432.12.783.133.351.402.549.277.198.709.198.324 0 .559-.117a.94.94 0 0 0 .371-.324q.145-.207.184-.468h1.215a2 2 0 0 1-.359 1.044 2.1 2.1 0 0 1-.824.693 2.55 2.55 0 0 1-1.154.252m3.326-.171.047-6.57h1.251l-.028 3.834h-.216q.006-.738.198-1.251.193-.513.564-.783.38-.27.956-.27h.054q.837 0 1.265.576t.42 1.674l-.02 2.79h-1.251l.021-2.907q.003-.468-.265-.738-.26-.27-.691-.27a.99.99 0 0 0-.749.306q-.282.297-.285.783l-.02 2.826zm6.07 0 .035-4.887h1.251l-.035 4.887zm-.656-3.951.007-.936h1.935l-.007.936zm1.154-1.521q-.368 0-.548-.189a.72.72 0 0 1-.167-.486.7.7 0 0 1 .175-.495q.18-.189.55-.189.368 0 .539.189a.7.7 0 0 1 .167.495.72.72 0 0 1-.175.486q-.171.189-.541.189m4.318 5.535q-.675 0-1.115-.171a1.24 1.24 0 0 1-.644-.594q-.213-.423-.207-1.134l.041-4.428h1.17l-.042 4.509q-.003.36.185.558.197.189.557.189h.765l-.008 1.071zm-2.725-4.032.007-.918h3.456l-.007.918zm6.637 4.14q-.63 0-1.106-.216a2.3 2.3 0 0 1-.779-.576 2.7 2.7 0 0 1-.462-.819 2.9 2.9 0 0 1-.146-.918l.001-.171a2.9 2.9 0 0 1 .16-.936q.165-.459.474-.81.318-.36.778-.567a2.5 2.5 0 0 1 1.063-.216q.793 0 1.321.351.537.342.803.909.267.558.262 1.206l-.004.45h-4.329l.006-.765h3.546l-.39.378a2.1 2.1 0 0 0-.129-.801 1.06 1.06 0 0 0-.41-.513q-.269-.18-.683-.18t-.703.189a1.2 1.2 0 0 0-.445.549 2.2 2.2 0 0 0-.15.846q-.004.459.138.819.141.351.437.558.295.198.754.198.46 0 .749-.18.289-.189.372-.459h1.152a2.1 2.1 0 0 1-.421.882 2.04 2.04 0 0 1-.787.585q-.47.207-1.072.207m5.563 0q-.64 0-1.106-.216a2.3 2.3 0 0 1-.769-.576 2.4 2.4 0 0 1-.454-.81 2.9 2.9 0 0 1-.146-.918l.001-.171q.004-.495.16-.945.165-.459.483-.81.318-.36.778-.567a2.6 2.6 0 0 1 1.082-.216q.639 0 1.141.252.502.243.796.684.303.441.334 1.026h-1.215a.97.97 0 0 0-.319-.63q-.268-.252-.745-.252-.414 0-.695.198a1.2 1.2 0 0 0-.409.549 2.2 2.2 0 0 0-.14.792q-.003.432.12.783.132.351.401.549.278.198.71.198.324 0 .558-.117a.93.93 0 0 0 .372-.324q.145-.207.183-.468h1.215a2 2 0 0 1-.358 1.044 2.1 2.1 0 0 1-.824.693 2.56 2.56 0 0 1-1.154.252m5.449-.108q-.675 0-1.115-.171a1.24 1.24 0 0 1-.644-.594q-.213-.423-.208-1.134l.041-4.428h1.17l-.041 4.509q-.003.36.185.558.196.189.556.189h.765l-.007 1.071zm-2.725-4.032.006-.918h3.456l-.006.918zm6.141 4.122q-.846 0-1.31-.558-.454-.558-.447-1.656l.02-2.835h1.251l-.021 2.943q-.003.45.247.72.25.261.682.261a.94.94 0 0 0 .704-.279q.281-.279.285-.756l.02-2.889h1.251l-.035 4.896h-.99l.015-2.079h.099q-.005.738-.198 1.233-.192.495-.572.747t-.947.252zm4.084-.153.035-4.887h.99l-.014 2.07h-.027q.007-1.053.461-1.593t1.327-.54h.18l-.008 1.089h-.342q-.63 0-.983.342-.345.333-.349.972l-.019 2.547zm5.904.171q-.63 0-1.106-.216a2.3 2.3 0 0 1-.779-.576 2.7 2.7 0 0 1-.462-.819 2.9 2.9 0 0 1-.146-.918l.001-.171a2.9 2.9 0 0 1 .16-.936q.165-.459.474-.81.318-.36.778-.567a2.5 2.5 0 0 1 1.063-.216q.793 0 1.321.351.537.342.803.909.267.558.262 1.206l-.004.45h-4.329l.006-.765h3.546l-.39.378a2.1 2.1 0 0 0-.129-.801 1.06 1.06 0 0 0-.41-.513q-.269-.18-.683-.18t-.703.189a1.2 1.2 0 0 0-.445.549 2.2 2.2 0 0 0-.15.846q-.005.459.138.819.141.351.437.558.295.198.754.198.46 0 .749-.18.289-.189.372-.459h1.152a2.1 2.1 0 0 1-.421.882 2.04 2.04 0 0 1-.787.585q-.47.207-1.072.207"/><rect width="517.227" height="47.679" x="20.387" y="20.387" fill="#fff" stroke="#EEE" stroke-width=".774" rx="7.349"/><rect width="101.038" height="22.498" x="27.043" y="38.696" stroke="#6762FE" stroke-width=".678" rx="4.957"/><path fill="#000" d="M34.894 53v-6.154h1.348l3.128 5.412h.27l-.17.152v-5.563h.793V53h-1.365l-3.128-5.412h-.27l.169-.151V53zm8.949.152q-.591 0-1.02-.203a2 2 0 0 1-.7-.53 2.4 2.4 0 0 1-.405-.75 2.9 2.9 0 0 1-.126-.844v-.152q0-.438.126-.85.135-.414.405-.743.27-.336.683-.53.421-.204.986-.203.733 0 1.205.32.48.312.709.81.235.497.235 1.062v.362h-3.995v-.607h3.406l-.186.329q0-.48-.152-.826a1.2 1.2 0 0 0-.455-.548q-.303-.195-.767-.194-.48 0-.8.22a1.36 1.36 0 0 0-.473.598 2.4 2.4 0 0 0-.152.876q0 .48.152.869.16.379.489.606.329.22.835.22.53 0 .86-.236.336-.236.404-.548h.759q-.093.464-.371.8a1.8 1.8 0 0 1-.7.515 2.4 2.4 0 0 1-.952.177m5-.101a2.4 2.4 0 0 1-.876-.144 1.1 1.1 0 0 1-.565-.489q-.194-.354-.194-.952v-4.333h.776v4.434q0 .363.194.565.202.194.565.194h.792v.725zm-2.41-3.945v-.607h3.102v.607zM51.995 53l.91-4.35h1.096L55.063 53h-.691l-1.062-4.333h.27L52.66 53zm-.413 0v-.64h.935V53zm-.186 0-1.273-4.501h.776L52.138 53zm3.144 0v-.64h.936V53zm.38 0 1.079-4.501h.733L55.628 53zm4.896.152a2.5 2.5 0 0 1-1.037-.203 2.4 2.4 0 0 1-.758-.53 2.4 2.4 0 0 1-.464-.75 2.4 2.4 0 0 1-.152-.844v-.152q0-.429.16-.843a2.2 2.2 0 0 1 .473-.75q.311-.336.758-.53a2.45 2.45 0 0 1 1.02-.203q.573 0 1.02.202.447.194.759.531.312.33.472.75.16.414.16.843v.152q0 .43-.16.843a2.2 2.2 0 0 1-.464.75q-.303.33-.75.531a2.5 2.5 0 0 1-1.037.203m0-.725q.506 0 .86-.22.363-.227.548-.606.195-.38.194-.852 0-.48-.194-.86a1.47 1.47 0 0 0-.556-.598 1.6 1.6 0 0 0-.852-.22q-.49 0-.851.22a1.47 1.47 0 0 0-.556.599q-.194.378-.194.86 0 .471.185.85.194.38.548.608.363.219.868.219M63.44 53v-4.501h.64v1.854h-.033q0-.986.43-1.441.439-.464 1.306-.464h.152v.725h-.286q-.674 0-1.037.362-.363.355-.363 1.029V53zM70 53l-1.695-2.099h-.742l2.066-2.402h.851l-1.871 2.166.059-.43L70.934 53zm-3.102 0v-6.154h.809V53zm7.525.034v-.759h1.534q.556 0 .987-.177a2.17 2.17 0 0 0 1.213-1.256q.16-.43.16-.927a2.6 2.6 0 0 0-.16-.944 2.04 2.04 0 0 0-.472-.742 2 2 0 0 0-.741-.489 2.7 2.7 0 0 0-.987-.169h-1.534v-.758h1.45q.835 0 1.45.261.615.254 1.02.691.413.43.615.97.203.53.203 1.087v.185q0 .54-.203 1.08-.202.54-.615.977a3 3 0 0 1-1.02.708q-.615.262-1.45.262zm-.657 0v-6.221h.826v6.22zM80.534 53v-4.501h.809V53zm-.691-3.86v-.641h1.5v.64zm.918-1.366q-.27 0-.404-.144a.53.53 0 0 1-.127-.362q0-.22.127-.362.135-.144.404-.144.27 0 .397.144.135.143.134.362a.5.5 0 0 1-.134.362q-.127.144-.397.144M85.631 53v-1.349h-.135v-1.56q0-.462-.245-.699-.235-.236-.7-.236-.261 0-.54.009l-.53.016a8 8 0 0 0-.438.026v-.708a8 8 0 0 1 .387-.026q.21-.016.43-.017.22-.008.422-.008.69 0 1.13.169.437.16.648.53.21.371.211 1.004V53zm-1.476.118q-.506 0-.876-.169a1.33 1.33 0 0 1-.565-.505 1.53 1.53 0 0 1-.194-.793q0-.48.21-.8.22-.32.633-.481.413-.168.995-.169h1.222v.607h-1.256q-.489 0-.75.236a.78.78 0 0 0-.262.607q0 .37.262.599.261.227.75.227.286 0 .548-.1a.97.97 0 0 0 .43-.355q.176-.252.194-.691l.219.32q-.042.48-.236.81a1.2 1.2 0 0 1-.523.488q-.33.17-.8.169m5.304 1.635q-.312 0-.632-.025a9 9 0 0 1-.599-.067v-.683q.304.042.633.067a6 6 0 0 0 .632.034q.615 0 .978-.169a1 1 0 0 0 .53-.514q.17-.345.17-.893v-.86l.269-.64q-.025.682-.287 1.137a1.75 1.75 0 0 1-.682.675 1.9 1.9 0 0 1-.92.219q-.47 0-.868-.177a2.1 2.1 0 0 1-.674-.506 2.5 2.5 0 0 1-.438-.733 2.6 2.6 0 0 1-.152-.886v-.151q0-.472.16-.877.16-.413.447-.716a2 2 0 0 1 .683-.472q.405-.17.885-.17.564 0 .995.245.43.236.674.7.252.455.278 1.121l-.236.009v-1.922h.64v3.97q0 .81-.252 1.306a1.5 1.5 0 0 1-.793.742q-.54.236-1.441.236m.245-2.461q.405 0 .733-.177.338-.177.53-.506.203-.338.203-.8v-.388q0-.456-.21-.767a1.3 1.3 0 0 0-.532-.473 1.6 1.6 0 0 0-.716-.16q-.437 0-.776.203a1.36 1.36 0 0 0-.522.573 1.9 1.9 0 0 0-.186.86q0 .496.186.868.194.37.522.573.337.195.767.194m3.74.708v-4.501h.641v1.854h-.033q0-.986.43-1.441.438-.464 1.306-.464h.152v.725h-.287q-.674 0-1.037.362-.362.355-.362 1.029V53zm6.164 0v-1.349h-.135v-1.56q0-.462-.244-.699-.235-.236-.7-.236-.261 0-.54.009l-.53.016a8 8 0 0 0-.439.026v-.708q.186-.018.388-.026.21-.016.43-.017.22-.008.422-.008.69 0 1.13.169.437.16.648.53.211.371.211 1.004V53zm-1.475.118q-.506 0-.877-.169a1.34 1.34 0 0 1-.564-.505 1.53 1.53 0 0 1-.194-.793q0-.48.21-.8.22-.32.633-.481.413-.168.994-.169h1.223v.607h-1.256q-.489 0-.75.236a.78.78 0 0 0-.262.607q0 .37.261.599.262.227.75.227.287 0 .549-.1a.97.97 0 0 0 .43-.355q.176-.252.193-.691l.22.32q-.043.48-.236.81a1.2 1.2 0 0 1-.523.488q-.33.17-.8.169m3.601-.118v-4.501h.641v1.93h-.101q0-.658.168-1.113.177-.463.523-.708.345-.244.876-.244h.034q.53 0 .877.244.354.245.523.708.168.456.168 1.113h-.236q0-.658.177-1.113.177-.463.523-.708.354-.244.885-.244h.034q.531 0 .885.244.354.245.522.708.177.456.177 1.113V53h-.809v-2.748q0-.548-.27-.843-.27-.303-.75-.303-.497 0-.801.32-.303.312-.303.877V53h-.809v-2.748q0-.548-.27-.843-.27-.303-.75-.303-.498 0-.801.32-.304.312-.304.877V53z"/><g clip-path="url(#a)"><rect width="80.844" height="23.176" x="133.161" y="38.357" fill="#fff" fill-opacity=".38" rx="5.296"/><path fill="#000" d="M141.517 52.655V46.5h.641v6.154zm2.433 0v-4.468h.506v1.88h-.101q0-.615.168-1.062.177-.447.523-.691.346-.253.877-.253h.025q.53 0 .877.244.345.245.514.691.168.447.169 1.07h-.203q0-.614.169-1.061.177-.447.522-.691.354-.253.886-.253h.025q.531 0 .876.244.355.245.523.691.177.447.177 1.07v2.589h-.632v-2.731q0-.591-.287-.936-.286-.345-.826-.346-.556 0-.885.363-.32.354-.32.96v2.69h-.632v-2.731q0-.591-.287-.936-.286-.345-.826-.346-.557 0-.885.363-.321.354-.321.96v2.69zm10.823 0v-1.34h-.101V49.73q0-.498-.261-.759-.262-.27-.81-.27a16 16 0 0 0-1.003.034 7 7 0 0 0-.404.025v-.556l.379-.034q.194-.017.396-.017.21-.008.405-.008.682 0 1.096.169.421.168.615.53.194.355.194.945v2.866zm-1.509.118q-.472 0-.834-.169a1.3 1.3 0 0 1-.565-.489 1.47 1.47 0 0 1-.194-.775q0-.447.202-.759.211-.312.599-.472.396-.168.952-.169h1.307v.481h-1.349q-.53 0-.817.261a.86.86 0 0 0-.279.666q0 .422.295.675.296.244.801.244.312 0 .599-.11a1.1 1.1 0 0 0 .48-.387q.194-.279.211-.759l.185.261q-.033.498-.236.835-.202.329-.548.497-.345.17-.809.169m5.297 1.627q-.312 0-.632-.034a9 9 0 0 1-.599-.068v-.539q.303.041.632.068.338.033.632.033.642 0 1.02-.168.38-.17.54-.54.168-.363.168-.96v-.894l.237-.624q-.018.64-.27 1.104a1.8 1.8 0 0 1-.683.7 1.95 1.95 0 0 1-.978.244q-.48 0-.877-.185a2 2 0 0 1-.665-.506 2.479 2.479 0 0 1-.582-1.61v-.118q0-.447.152-.851.151-.413.43-.725.278-.321.674-.498.405-.185.893-.185.591 0 1.029.261t.683.725q.252.465.269 1.087l-.202-.11v-1.811h.497v3.97q0 .801-.236 1.29-.236.488-.758.716-.514.228-1.374.228m.177-2.26q.455 0 .809-.193.363-.202.573-.565.211-.363.211-.843v-.413q0-.464-.219-.81a1.5 1.5 0 0 0-.565-.539 1.66 1.66 0 0 0-.809-.194q-.489 0-.852.236-.362.236-.556.641a2 2 0 0 0-.194.902q0 .514.194.919.202.404.565.632t.843.228m5.638.658a2.4 2.4 0 0 1-.994-.194 2 2 0 0 1-.692-.53 2.4 2.4 0 0 1-.404-.751 2.9 2.9 0 0 1-.127-.852v-.117q0-.43.127-.843.135-.414.404-.742.27-.33.675-.523.412-.202.961-.202.7 0 1.163.312.472.312.708.8.236.48.236 1.037v.33h-3.987v-.49h3.549l-.16.245q0-.498-.177-.869a1.3 1.3 0 0 0-.506-.59q-.329-.219-.826-.219-.523 0-.869.245-.345.244-.522.649-.17.405-.169.919 0 .506.169.927.177.412.531.657.362.245.91.245.582 0 .944-.262.363-.27.447-.632h.59a1.7 1.7 0 0 1-.354.776q-.27.32-.683.497t-.944.177"/><path stroke="#6762FE" stroke-linecap="round" stroke-linejoin="round" stroke-width="1.22" d="m197.672 48.858 2.591 2.606c.176.177.264.266.374.266s.197-.089.373-.266l2.591-2.606"/></g><rect width="80.167" height="22.498" x="133.5" y="38.696" stroke="#6762FE" stroke-width=".678" rx="4.957"/><g clip-path="url(#b)"><rect width="80.844" height="23.176" x="218.751" y="38.357" fill="#fff" fill-opacity=".38" rx="5.296"/><path fill="#000" d="M228.604 52.807q-.599 0-1.088-.253a1.9 1.9 0 0 1-.775-.75q-.278-.498-.278-1.24v-.21h.826v.362q0 .632.371.986.37.345.944.346.573 0 .944-.346.37-.354.371-.986v-3.642h.826v3.49q0 .742-.287 1.24a1.82 1.82 0 0 1-.767.75q-.48.252-1.087.252m-1.332-5.564v-.742h3.473v.742zm5.813 3.27v-.724h1.374q.439 0 .725-.169a1.1 1.1 0 0 0 .43-.472q.152-.296.152-.657 0-.372-.152-.666a1.07 1.07 0 0 0-.43-.464q-.286-.169-.725-.169h-1.374v-.724h1.223q.758 0 1.264.244a1.7 1.7 0 0 1 .776.674q.261.439.261 1.037v.135q0 .59-.261 1.037a1.75 1.75 0 0 1-.776.683q-.506.236-1.264.236zm-.657 2.142v-6.187h.826v6.187zm8.14.151a3.4 3.4 0 0 1-1.298-.235 2.9 2.9 0 0 1-1.004-.666 3.1 3.1 0 0 1-.64-1.012 3.5 3.5 0 0 1-.228-1.281v-.186q0-.59.203-1.138.21-.555.598-.994.396-.447.961-.7a3 3 0 0 1 1.273-.261q.767 0 1.365.295.599.285.961.809.363.514.422 1.197h-.843a1.6 1.6 0 0 0-.337-.852 1.7 1.7 0 0 0-.691-.514 2.2 2.2 0 0 0-.877-.177q-.48 0-.885.177-.405.17-.7.49-.287.32-.447.766-.16.448-.16 1.003 0 .633.169 1.113.177.473.489.792.312.312.733.472.43.16.936.16.716 0 1.256-.286.547-.296.826-.759l-.304 1.004v-1.83h.776v1.467q-.414.54-1.062.843-.65.303-1.492.303m-.219-2.444v-.691h3.295v.69z"/><path stroke="#6762FE" stroke-linecap="round" stroke-linejoin="round" stroke-width="1.22" d="m283.265 48.858 2.591 2.606c.176.177.264.266.373.266.11 0 .198-.089.374-.266l2.591-2.606"/></g><rect width="80.167" height="22.498" x="219.09" y="38.696" stroke="#6762FE" stroke-width=".678" rx="4.957"/><rect width="87.832" height="22.503" x="304.679" y="38.704" fill="#fff" stroke="#6762FE" stroke-width=".678" rx="4.957"/><path fill="#6762FE" d="M335.334 52.865q-.834 0-1.433-.287a2.85 2.85 0 0 1-.978-.767 3.4 3.4 0 0 1-.565-1.028 3.6 3.6 0 0 1-.177-1.08v-.185q0-.572.186-1.13.185-.564.565-1.02.387-.454.969-.724.59-.279 1.391-.279.834 0 1.475.312.64.312 1.02.869a2.6 2.6 0 0 1 .455 1.29h-1.391a1.3 1.3 0 0 0-.269-.633 1.4 1.4 0 0 0-.548-.405 1.8 1.8 0 0 0-.742-.143q-.413 0-.734.143-.32.143-.539.405-.211.261-.329.624-.11.354-.109.792 0 .43.109.793.118.354.337.624.228.261.557.404.329.135.75.135.64 0 1.079-.312a1.26 1.26 0 0 0 .539-.86h1.383q-.076.675-.455 1.24-.372.555-1.02.893-.64.33-1.526.329m3.842-.16v-4.62h1.071v1.981h-.026q0-.978.413-1.509.422-.53 1.214-.53h.177v1.162h-.337q-.556 0-.86.304-.303.295-.303.86v2.352zm5.774.16q-.607 0-1.079-.186a2.4 2.4 0 0 1-.801-.522 2.3 2.3 0 0 1-.489-.75 2.5 2.5 0 0 1-.168-.903v-.194q0-.48.168-.91.177-.438.506-.767.338-.329.809-.514a2.8 2.8 0 0 1 1.054-.194q.599 0 1.062.194.473.185.801.514.329.33.506.767.177.43.177.91v.194q0 .473-.169.902a2.328 2.328 0 0 1-1.289 1.273 3 3 0 0 1-1.088.186m0-1.138q.396 0 .658-.169.261-.169.396-.472.143-.303.143-.674 0-.396-.143-.691a1.116 1.116 0 0 0-1.054-.657q-.37-.001-.641.176a1.16 1.16 0 0 0-.413.48 1.7 1.7 0 0 0-.134.692q0 .37.134.674.135.303.405.472a1.2 1.2 0 0 0 .649.169m3.487 2.663v-6.305h1.071v1.998l-.144-.008q.034-.692.287-1.164.253-.48.683-.716.429-.245.969-.245.48 0 .868.177.396.177.675.498.286.312.43.741.151.421.151.928v.194q0 .497-.143.935a2.2 2.2 0 0 1-.421.75q-.27.321-.666.506a2.1 2.1 0 0 1-.894.177q-.522 0-.944-.21a1.67 1.67 0 0 1-.666-.658q-.253-.447-.278-1.13l.371.506v3.026zm2.487-2.663q.346 0 .598-.169a1.1 1.1 0 0 0 .405-.472q.143-.303.143-.7t-.143-.69a1.07 1.07 0 0 0-1.003-.624 1.2 1.2 0 0 0-.573.143q-.27.143-.439.413-.16.262-.16.64v.312q0 .363.169.624.177.253.446.388.27.135.557.135m5.303.978V46.55h1.382v6.154zm2.706 0v-4.62h1.07v1.99h-.076q0-.71.178-1.18.177-.472.531-.709.354-.244.868-.244h.059q.522 0 .868.244.354.237.531.708.186.473.186 1.18h-.329q0-.707.177-1.18.185-.471.539-.708.354-.244.869-.244h.059q.522 0 .876.244.363.237.548.708.186.473.186 1.18v2.63h-1.349V50q0-.38-.202-.616-.194-.236-.557-.236a.72.72 0 0 0-.573.245q-.21.236-.211.632v2.68h-1.357V50q0-.38-.202-.616-.194-.236-.548-.236-.37 0-.582.245-.21.236-.21.632v2.68zm11.08 0v-1.366h-.228v-1.484q0-.354-.169-.53-.168-.178-.539-.178-.186 0-.489.009t-.624.025q-.32.017-.581.034v-1.138a21 21 0 0 1 .994-.06q.279-.008.523-.008.708 0 1.188.203.49.202.742.615.253.405.253 1.045v2.833zm-1.476.117q-.497 0-.876-.177a1.4 1.4 0 0 1-.582-.505 1.5 1.5 0 0 1-.211-.801q0-.506.262-.826.26-.33.733-.48a3.4 3.4 0 0 1 1.087-.16h.987v.75h-.995q-.354 0-.548.176-.186.169-.185.464a.6.6 0 0 0 .185.455q.194.17.548.169.228 0 .405-.076a.7.7 0 0 0 .303-.278q.119-.195.135-.54l.32.337q-.042.48-.236.81-.185.329-.522.505-.33.177-.81.177m5.511 1.72a10 10 0 0 1-1.34-.093v-1.138q.295.043.649.068.363.033.657.034.549 0 .886-.127a.95.95 0 0 0 .505-.388q.16-.252.16-.657v-.919l.245-.54q-.017.615-.245 1.054a1.6 1.6 0 0 1-.615.675q-.396.227-.944.227-.472 0-.86-.168a1.9 1.9 0 0 1-.649-.49 2.2 2.2 0 0 1-.413-.724 2.8 2.8 0 0 1-.143-.91v-.194q0-.49.152-.91.151-.422.438-.734t.683-.48q.396-.178.876-.178.557 0 .961.245.414.244.649.716.237.472.253 1.138l-.185.05v-2.014h1.07v4.072q0 .85-.303 1.374-.304.522-.927.767-.616.244-1.56.244m.38-2.942q.311 0 .564-.135a1 1 0 0 0 .396-.404q.152-.262.152-.633v-.244q0-.363-.16-.607a.97.97 0 0 0-.405-.38 1.1 1.1 0 0 0-.539-.134q-.337 0-.599.16a1.07 1.07 0 0 0-.404.447 1.5 1.5 0 0 0-.143.674q0 .396.143.683.152.278.404.43.262.144.591.143m5.694 1.265a2.55 2.55 0 0 1-1.045-.203 2.2 2.2 0 0 1-.75-.54 2.6 2.6 0 0 1-.456-.766 2.6 2.6 0 0 1-.151-.877v-.169q0-.463.151-.885.16-.43.456-.767.294-.336.733-.53a2.4 2.4 0 0 1 1.011-.203q.743 0 1.248.337.514.33.784.868.27.531.27 1.164v.455h-4.089v-.767h3.271l-.438.354q0-.414-.118-.708a.92.92 0 0 0-.354-.447.97.97 0 0 0-.574-.16q-.354 0-.598.16a1 1 0 0 0-.371.472 2 2 0 0 0-.126.75q0 .414.118.725.117.304.371.472.252.17.657.169.371 0 .607-.143a.74.74 0 0 0 .32-.354h1.239q-.1.463-.396.826-.295.362-.742.564-.446.203-1.028.203M317.183 43.68a.7.7 0 0 0-.178.128c-.151.16-.156.188-.156 1.035v.766h-.77c-.862 0-.887.005-1.05.175a.56.56 0 0 0-.155.417c0 .178.046.302.155.418.163.17.188.175 1.05.175h.77v6.384l.069.2c.149.42.452.719.877.862l.188.062h6.3740000000000006v.77c0 .862.005.887.175 1.05.116.108.24.155.417.155a.56.56 0 0 0 .418-.155c.17-.163.175-.188.175-1.05v-.77h.773c.86 0 .884-.005 1.047-.176a.56.56 0 0 0 .156-.422.56.56 0 0 0-.176-.432c-.16-.15-.187-.156-1.034-.156h-.766v-6.383l-.069-.2a1.35 1.35 0 0 0-.854-.855l-.201-.07h-6.383v-.772c0-.7-.005-.78-.047-.87a.64.64 0 0 0-.304-.293.77.77 0 0 0-.501.007m7.026 3.141c.155.057.148-.113.148 3.245v3.05h-3.05c-3.359 0-3.188.008-3.245-.148-.02-.06-.027-.919-.027-3.126v-3.048h3.047c2.208 0 3.067.008 3.127.027"/><rect width="57.933" height="22.503" x="397.92" y="38.704" fill="#fff" rx="4.957"/><rect width="57.933" height="22.503" x="397.92" y="38.704" stroke="#6762FE" stroke-width=".678" rx="4.957"/><path fill="#6762FE" d="M416.698 53.096q-.73 0-1.254-.25a2.5 2.5 0 0 1-.856-.672 3 3 0 0 1-.494-.9 3.1 3.1 0 0 1-.155-.944v-.162q0-.502.162-.988.163-.494.495-.893a2.45 2.45 0 0 1 .848-.634q.516-.243 1.217-.243.73 0 1.291.272.56.273.892.76.34.48.398 1.129h-1.217a1.15 1.15 0 0 0-.236-.554 1.2 1.2 0 0 0-.479-.354 1.6 1.6 0 0 0-.649-.125q-.362 0-.642.125a1.3 1.3 0 0 0-.472.354 1.7 1.7 0 0 0-.288.546 2.4 2.4 0 0 0-.095.694q0 .375.095.693.104.309.295.546.2.228.487.354.288.117.657.118.56 0 .944-.273.39-.273.472-.752h1.21a2.4 2.4 0 0 1-.399 1.084 2.35 2.35 0 0 1-.892.782q-.561.287-1.335.287m5.803-.14v-1.195h-.199v-1.298q0-.309-.148-.465-.147-.154-.472-.154-.162 0-.427.007t-.546.022-.509.03v-.996a18 18 0 0 1 .87-.052q.243-.007.457-.007.62 0 1.04.177.428.177.65.538.22.354.221.915v2.478zm-1.291.103q-.435 0-.767-.154a1.2 1.2 0 0 1-.509-.443 1.3 1.3 0 0 1-.184-.7q0-.444.229-.724a1.3 1.3 0 0 1 .641-.42q.414-.14.952-.14h.863v.656h-.871q-.31 0-.479.155a.52.52 0 0 0-.162.406q0 .243.162.398.17.148.479.148a.9.9 0 0 0 .354-.067.6.6 0 0 0 .266-.243q.103-.17.118-.472l.28.295a1.7 1.7 0 0 1-.206.708q-.163.289-.458.442a1.5 1.5 0 0 1-.708.155m3.229-.103v-4.042h.937v1.733h-.067q0-.62.155-1.032.162-.413.487-.62a1.44 1.44 0 0 1 .789-.206h.052q.708 0 1.077.464.376.457.376 1.395v2.308h-1.18v-2.375a.75.75 0 0 0-.192-.531.67.67 0 0 0-.516-.206.72.72 0 0 0-.539.213.76.76 0 0 0-.199.546v2.353zm6.626.14q-.523 0-.915-.17a1.9 1.9 0 0 1-.641-.471 2 2 0 0 1-.384-.664 2.5 2.5 0 0 1-.125-.775v-.14q0-.412.133-.79.132-.383.391-.678.258-.294.641-.464.391-.17.893-.17a2.1 2.1 0 0 1 .966.214q.42.207.671.583.251.375.28.863h-1.158a.72.72 0 0 0-.221-.458q-.184-.192-.538-.191a.8.8 0 0 0-.494.147.9.9 0 0 0-.288.406 1.8 1.8 0 0 0-.096.612q0 .324.088.59a.84.84 0 0 0 .281.406q.2.14.516.14.236 0 .398-.081a.7.7 0 0 0 .266-.236.8.8 0 0 0 .125-.355h1.151q-.022.502-.28.886-.258.375-.686.59-.429.206-.974.206m4.546 0q-.516 0-.915-.177a2 2 0 0 1-.656-.472 2.3 2.3 0 0 1-.398-.671 2.3 2.3 0 0 1-.133-.767v-.148q0-.405.133-.774.14-.376.398-.671t.642-.465q.39-.177.885-.177.648 0 1.091.295.45.288.686.76.237.465.236 1.018v.398h-3.577v-.671h2.862l-.384.31q0-.362-.103-.62a.8.8 0 0 0-.31-.391.85.85 0 0 0-.501-.14.94.94 0 0 0-.524.14.86.86 0 0 0-.324.413 1.7 1.7 0 0 0-.111.657q0 .36.103.634a.85.85 0 0 0 .325.413q.22.147.575.147.324 0 .531-.125a.65.65 0 0 0 .28-.31h1.085q-.089.406-.347.723a1.76 1.76 0 0 1-.649.494 2.2 2.2 0 0 1-.9.177m2.803-.14v-5.384h1.187v5.384zm-.479-4.514v-.87h1.666v.87z"/><g filter="url(#c)"><rect width="71.611" height="23.181" x="460.47" y="38.365" fill="#6762FE" rx="5.296" shape-rendering="crispEdges"/><path fill="#fff" d="M478.335 52.986v-1.129h1.004q.375 0 .678-.11.303-.119.516-.325.214-.214.325-.509.111-.303.111-.664 0-.375-.111-.671a1.34 1.34 0 0 0-.325-.502 1.4 1.4 0 0 0-.516-.31 2 2 0 0 0-.678-.11h-1.004v-1.128h.937q.73 0 1.276.213.546.214.915.583.369.37.546.848.184.472.184.996v.162q0 .487-.184.967-.177.472-.546.855a2.75 2.75 0 0 1-.915.605q-.546.228-1.276.229zm-1.062 0v-5.458h1.21v5.458zm7.666.11q-.531 0-.944-.162a2.1 2.1 0 0 1-.701-.457 2 2 0 0 1-.428-.657 2.2 2.2 0 0 1-.148-.789v-.17q0-.42.148-.796.155-.384.443-.671.294-.288.708-.45.412-.17.922-.17.524 0 .929.17.413.162.701.45.287.287.442.67.155.378.155.797v.17q0 .412-.147.79a2.025 2.025 0 0 1-1.129 1.114 2.6 2.6 0 0 1-.951.161m0-.995q.346 0 .575-.148a.93.93 0 0 0 .347-.413q.125-.266.125-.59 0-.347-.125-.605a.975.975 0 0 0-.922-.575 1 1 0 0 0-.561.155 1 1 0 0 0-.361.42 1.4 1.4 0 0 0-.118.605q0 .324.118.59a.9.9 0 0 0 .354.413q.235.147.568.147m4.44.855.737-3.91h1.291l.856 3.91h-.915l-.878-3.88h.524l-.789 3.88zm-.281 0-.007-.98h.811l.008.98zm-.531 0-1.084-4.042h1.158l1.011 4.042zm3.083 0 .008-.98h.811v.98zm.332 0 .9-4.042h1.084l-.973 4.042zm2.714 0v-4.042h.936v1.733h-.066q0-.62.155-1.032.162-.413.487-.62.324-.206.789-.206h.052q.708 0 1.076.464.377.457.377 1.395v2.308h-1.181v-2.375a.75.75 0 0 0-.191-.531.67.67 0 0 0-.517-.206q-.331 0-.538.213-.2.207-.199.546v2.353zm4.863 0v-5.384h1.187v5.384zm-.48-4.514v-.87h1.667v.87zm4.724 4.654q-.531 0-.944-.162a2.1 2.1 0 0 1-.701-.457 2 2 0 0 1-.427-.657 2.1 2.1 0 0 1-.148-.789v-.17q0-.42.148-.796.154-.384.442-.671.296-.288.708-.45a2.4 2.4 0 0 1 .922-.17q.524 0 .929.17.414.162.701.45.288.287.443.67.155.378.155.797v.17q0 .412-.148.79a2.034 2.034 0 0 1-1.128 1.114 2.6 2.6 0 0 1-.952.161m0-.995q.347 0 .575-.148a.93.93 0 0 0 .347-.413q.126-.266.126-.59 0-.347-.126-.605a1 1 0 0 0-.361-.42 1 1 0 0 0-.561-.155 1 1 0 0 0-.56.155 1 1 0 0 0-.362.42 1.4 1.4 0 0 0-.118.605q0 .324.118.59a.9.9 0 0 0 .354.413q.237.147.568.147m5.493.855v-1.195h-.2v-1.298q0-.309-.147-.465-.148-.154-.472-.154-.162 0-.428.007-.265.007-.546.022-.28.015-.509.03v-.996a17 17 0 0 1 .871-.052q.243-.007.457-.007.62 0 1.04.177.428.177.649.538.222.354.221.915v2.478zm-1.291.103q-.435 0-.767-.154a1.2 1.2 0 0 1-.509-.443 1.3 1.3 0 0 1-.185-.7q0-.444.229-.724.229-.287.642-.42.412-.14.951-.14h.863v.656h-.87q-.31 0-.48.155a.52.52 0 0 0-.162.406q0 .243.162.398.17.148.48.148a.9.9 0 0 0 .354-.067.6.6 0 0 0 .265-.243q.104-.17.118-.472l.281.295q-.037.42-.207.708-.162.289-.457.442a1.5 1.5 0 0 1-.708.155m4.896.03q-.429 0-.782-.155a1.9 1.9 0 0 1-.605-.428 2 2 0 0 1-.398-.656 2.4 2.4 0 0 1-.133-.812v-.17q0-.435.125-.81.133-.376.376-.657a1.803 1.803 0 0 1 1.372-.605q.487 0 .841.214.355.207.553.62.2.405.222 1.003l-.31-.288v-2.773h1.187v5.384h-.936v-1.674h.162q-.022.575-.244.98-.213.407-.582.62a1.7 1.7 0 0 1-.848.207m.295-.989q.273 0 .494-.117a.9.9 0 0 0 .361-.362q.14-.236.14-.568v-.273a1 1 0 0 0-.14-.546.94.94 0 0 0-.369-.339 1.06 1.06 0 0 0-.494-.118.95.95 0 0 0-.531.155 1 1 0 0 0-.361.413 1.3 1.3 0 0 0-.133.605q0 .354.133.612a.96.96 0 0 0 .369.398q.236.14.531.14"/></g><path fill="#000" d="M27.398 33.606V28.22h1.048v5.385zm.9-2.243v-.885l2.154-.007v.885zm0-2.256v-.886h2.257v.886zm3.288 4.499V29.6h1.025v4.005zm-.56-3.238V29.6h1.585v.767zm.936-1.247q-.302 0-.45-.155a.6.6 0 0 1-.14-.398q0-.25.14-.406.147-.154.45-.154t.443.154.14.406q0 .236-.14.398-.14.155-.443.155m1.882 4.485V28.22h1.026v5.385zm-.501-4.618v-.767h1.527v.767zm4.49 4.758a2.2 2.2 0 0 1-.908-.177 1.9 1.9 0 0 1-.642-.472 2.2 2.2 0 0 1-.383-.671 2.3 2.3 0 0 1-.125-.753v-.14q0-.398.125-.767.132-.375.383-.664a1.8 1.8 0 0 1 .635-.464q.375-.177.87-.177.65 0 1.084.287.443.28.664.745.221.458.221.989v.368H36.21v-.627h2.906l-.317.31q0-.383-.111-.656a.88.88 0 0 0-.34-.42 1 1 0 0 0-.56-.148q-.34 0-.575.155a.98.98 0 0 0-.362.45 1.8 1.8 0 0 0-.118.693q0 .375.118.671.12.288.362.457.243.163.62.163.375 0 .612-.148a.7.7 0 0 0 .302-.376h.944a1.7 1.7 0 0 1-.34.723 1.66 1.66 0 0 1-.64.48 2.15 2.15 0 0 1-.879.169m4.454-.14V28.22h1.718l2.265 4.514h.243l-.147.133v-4.647h.988v5.385h-1.726l-2.264-4.514h-.251l.148-.133v4.647zm8.742 0v-1.188h-.17v-1.32q0-.346-.17-.516t-.523-.17q-.184 0-.443.007-.258.008-.523.023-.26.007-.465.022v-.87q.169-.015.383-.03t.435-.015q.23-.007.428-.007.62 0 1.026.162.412.162.62.509.213.346.213.907v2.486zm-1.291.103q-.435 0-.767-.155a1.2 1.2 0 0 1-.51-.442 1.3 1.3 0 0 1-.176-.694q0-.443.214-.723.22-.28.612-.42a2.8 2.8 0 0 1 .93-.14h.929v.612h-.944q-.355 0-.546.177a.57.57 0 0 0-.185.443q0 .274.185.442.192.17.546.17.213 0 .39-.074a.7.7 0 0 0 .303-.266q.126-.191.14-.516l.25.288q-.036.42-.206.708-.162.288-.457.443a1.54 1.54 0 0 1-.708.147m3.2-.103V29.6h.811v1.718h-.073q0-.605.155-1.01.154-.414.457-.62.31-.213.767-.214h.044q.465 0 .767.214a1.2 1.2 0 0 1 .458.62q.155.405.155 1.01h-.259q0-.605.155-1.01.162-.414.465-.62.31-.213.767-.214h.044q.465 0 .775.214.309.207.465.62.162.405.162 1.01v2.287h-1.025v-2.383q0-.376-.192-.597-.192-.229-.546-.229a.73.73 0 0 0-.568.236q-.214.23-.214.62v2.353h-1.025v-2.383q0-.376-.192-.597-.192-.229-.546-.229a.73.73 0 0 0-.568.236q-.214.23-.214.62v2.353zm9.003.14a2.2 2.2 0 0 1-.908-.177 1.9 1.9 0 0 1-.641-.472 2.2 2.2 0 0 1-.384-.671 2.3 2.3 0 0 1-.125-.753v-.14q0-.398.125-.767.133-.375.384-.664a1.8 1.8 0 0 1 .634-.464q.376-.177.87-.177.649 0 1.085.287.442.28.663.745.222.458.222.989v.368h-3.548v-.627h2.906l-.317.31q0-.383-.11-.656a.88.88 0 0 0-.34-.42 1 1 0 0 0-.56-.148q-.34 0-.576.155a.98.98 0 0 0-.361.45 1.8 1.8 0 0 0-.118.693q0 .375.118.671.117.288.361.457.243.163.62.163.375 0 .612-.148a.7.7 0 0 0 .302-.376h.944a1.7 1.7 0 0 1-.339.723 1.66 1.66 0 0 1-.642.48 2.15 2.15 0 0 1-.877.169"/><path fill="#FF5030" d="m69.22 30.899-1.121-.812v-.796l1.121-.811.406.715-.922.384v.22l.922.384zm-1.084-3.061-.14 1.38-.694.398-1.26-.569.412-.708.797.605.192-.11-.133-.989zM66.04 30.33l1.261-.568.694.398.14 1.38-.819-.015.126-.981-.192-.11-.797.597z"/><path fill="#000" d="M133.834 33.606V28.22h1.048v5.385zm.9-2.243v-.885l2.154-.007v.885zm0-2.256v-.886h2.257v.886zm3.288 4.499V29.6h1.025v4.005zm-.561-3.238V29.6h1.586v.767zm.937-1.247q-.302 0-.45-.155a.6.6 0 0 1-.14-.398q0-.25.14-.406.148-.154.45-.154t.443.154q.14.156.14.406a.6.6 0 0 1-.14.398q-.14.155-.443.155m1.882 4.485V28.22h1.026v5.385zm-.501-4.618v-.767h1.527v.767zm4.489 4.758q-.516 0-.907-.177a1.9 1.9 0 0 1-.641-.472 2.2 2.2 0 0 1-.384-.671 2.3 2.3 0 0 1-.125-.753v-.14q0-.398.125-.767.132-.375.384-.664.258-.294.634-.464.376-.177.87-.177.65 0 1.084.287.443.28.664.745.222.458.222.989v.368h-3.548v-.627h2.906l-.317.31q0-.383-.111-.656a.9.9 0 0 0-.339-.42 1 1 0 0 0-.561-.148q-.34 0-.575.155a1 1 0 0 0-.362.45 1.8 1.8 0 0 0-.118.693q0 .375.118.671.119.288.362.457.243.163.619.163t.613-.148a.7.7 0 0 0 .302-.376h.944a1.7 1.7 0 0 1-.339.723 1.66 1.66 0 0 1-.642.48 2.15 2.15 0 0 1-.878.169m5.517-.14v-4.61h1.047v4.61zm-1.556-4.463v-.922h4.16v.922zm4.48 6.041v-.877h.752q.214 0 .354-.06a.5.5 0 0 0 .244-.176.84.84 0 0 0 .147-.332l1.077-4.138h.981l-1.188 4.359q-.117.45-.332.715a1.18 1.18 0 0 1-.553.391 2.5 2.5 0 0 1-.826.118zm1.246-1.667v-.811h.856v.811zm-.346 0-1.299-3.916h1.033l1.232 3.916zm3.359 1.564V29.6h.812v1.726l-.126-.008q.03-.612.251-1.025.229-.413.605-.612a1.7 1.7 0 0 1 .841-.207q.428 0 .767.155.347.155.59.435.25.28.384.657.132.369.132.796v.155q0 .434-.132.812a1.9 1.9 0 0 1-.377.656 1.76 1.76 0 0 1-.59.443 1.9 1.9 0 0 1-.774.154q-.45.001-.826-.184a1.5 1.5 0 0 1-.598-.583q-.228-.398-.258-1.025l.325.494v2.64zm2.125-2.205q.332 0 .575-.163.25-.162.391-.45.14-.295.14-.663 0-.384-.14-.664a1.06 1.06 0 0 0-.391-.435 1 1 0 0 0-.575-.163q-.303 0-.561.133a1.1 1.1 0 0 0-.413.391 1.2 1.2 0 0 0-.155.62v.295q0 .345.162.59.163.243.421.376t.546.133m4.825.87q-.517 0-.907-.177a1.9 1.9 0 0 1-.642-.472 2.2 2.2 0 0 1-.383-.671 2.3 2.3 0 0 1-.126-.753v-.14q0-.398.126-.767.132-.375.383-.664.258-.294.634-.464.376-.177.871-.177.65 0 1.084.287.442.28.664.745.22.458.221.989v.368h-3.548v-.627h2.906l-.317.31q0-.383-.11-.656a.88.88 0 0 0-.34-.42 1 1 0 0 0-.56-.148q-.34 0-.575.155a.98.98 0 0 0-.362.45 1.8 1.8 0 0 0-.118.693q0 .375.118.671.118.288.362.457.243.163.619.163.377 0 .612-.148a.7.7 0 0 0 .303-.376h.944a1.7 1.7 0 0 1-.34.723 1.66 1.66 0 0 1-.641.48 2.15 2.15 0 0 1-.878.169M219.43 33.606V28.22h1.047v5.385zm.9-2.243v-.885l2.154-.007v.885zm0-2.256v-.886h2.257v.886zm3.287 4.499V29.6h1.026v4.005zm-.56-3.238V29.6h1.586v.767zm.937-1.247q-.303 0-.45-.155a.59.59 0 0 1-.14-.398q0-.25.14-.406.147-.154.45-.154.302 0 .442.154.14.156.14.406 0 .236-.14.398-.14.155-.442.155m1.882 4.485V28.22h1.025v5.385zm-.502-4.618v-.767h1.527v.767zm4.49 4.758q-.516 0-.907-.177a1.9 1.9 0 0 1-.642-.472 2.2 2.2 0 0 1-.384-.671 2.3 2.3 0 0 1-.125-.753v-.14q0-.398.125-.767.133-.375.384-.664.259-.294.634-.464.376-.177.871-.177.649 0 1.084.287.442.28.664.745.22.458.221.989v.368h-3.548v-.627h2.906l-.317.31q0-.383-.111-.656a.87.87 0 0 0-.339-.42 1 1 0 0 0-.56-.148q-.34 0-.576.155a1 1 0 0 0-.361.45 1.8 1.8 0 0 0-.118.693q0 .375.118.671.118.288.361.457.244.163.62.163.377 0 .612-.148a.7.7 0 0 0 .302-.376h.945a1.7 1.7 0 0 1-.34.723 1.66 1.66 0 0 1-.641.48q-.384.169-.878.169m4.454-.14V28.22h1.048v5.385zm.9-2.243v-.885l2.154-.007v.885zm0-2.256v-.886h2.257v.886zm4.978 4.639q-.53 0-.937-.17a2.1 2.1 0 0 1-.686-.457 2.1 2.1 0 0 1-.427-.664 2.1 2.1 0 0 1-.141-.767v-.155q0-.413.148-.782.155-.376.435-.664.288-.294.693-.457.406-.17.915-.17.508 0 .915.17.405.162.686.457.286.289.435.664.147.37.147.782v.155q0 .398-.147.767a2 2 0 0 1-.421.664 2 2 0 0 1-.686.457q-.405.17-.929.17m0-.878q.376 0 .634-.162a1.1 1.1 0 0 0 .391-.45q.133-.288.133-.65 0-.367-.14-.648a1 1 0 0 0-.398-.45 1.1 1.1 0 0 0-.62-.17q-.361 0-.627.17a1.07 1.07 0 0 0-.398.45q-.14.28-.14.649 0 .36.132.649.141.28.399.45.258.162.634.162m3.081.738V29.6h.811v1.696h-.022q0-.862.369-1.305t1.084-.443h.148v.893h-.281q-.516 0-.803.28-.28.273-.281.796v2.088zm3.076 0V29.6h.811v1.718h-.074q0-.605.155-1.01.155-.414.457-.62.31-.213.768-.214h.044q.464 0 .767.214a1.2 1.2 0 0 1 .457.62q.155.405.155 1.01h-.258q0-.605.155-1.01.162-.414.464-.62.31-.213.768-.214h.044q.465 0 .774.214.31.207.465.62.162.405.162 1.01v2.287h-1.025v-2.383q0-.376-.192-.597-.192-.229-.546-.229a.73.73 0 0 0-.568.236q-.213.23-.213.62v2.353h-1.026v-2.383q0-.376-.191-.597-.192-.229-.546-.229a.73.73 0 0 0-.568.236q-.214.23-.214.62v2.353zm9.636 0v-1.188h-.169v-1.32q0-.346-.17-.516-.169-.17-.524-.17-.184 0-.442.007a20 20 0 0 0-.524.023 11 11 0 0 0-.464.022v-.87q.17-.015.383-.03.215-.015.435-.015.229-.007.428-.007.62 0 1.025.162.413.162.62.509.214.346.214.907v2.486zm-1.29.103q-.435 0-.767-.155a1.2 1.2 0 0 1-.509-.442 1.3 1.3 0 0 1-.177-.694q0-.443.214-.723.22-.28.612-.42.398-.14.929-.14h.929v.612h-.944q-.354 0-.545.177a.57.57 0 0 0-.185.443q0 .274.185.442.19.17.545.17.214 0 .391-.074a.7.7 0 0 0 .303-.266q.125-.191.14-.516l.251.288q-.038.42-.207.708-.163.288-.457.443a1.54 1.54 0 0 1-.708.147m4.941-.052q-.553 0-.915-.14a1.03 1.03 0 0 1-.531-.486q-.177-.347-.177-.93l.007-3.629h.959l-.007 3.695q0 .296.155.458.162.155.457.155h.627v.877zm-2.257-3.304v-.752h2.832v.752z"/><g filter="url(#d)"><path fill="#000" d="M518.857 65.577 502.041 54.85l1.283 19.905 5.479-5.05 3.812 6.45 2.985-1.766-3.81-6.449z"/><path fill="#fff" fill-rule="evenodd" d="m521.876 65.89-8.088 2.705 3.641 6.162-5.375 3.18-3.642-6.165-6.271 5.78-1.631-25.29zm-13.074 3.816 3.812 6.45 2.986-1.767-3.811-6.448 7.067-2.363L502.04 54.85l1.284 19.904z" clip-rule="evenodd"/></g><path fill="#fff" stroke="#EEE" stroke-width=".774" d="M133.322 76.25a3.823 3.823 0 0 1 3.823-3.823h71.506a3.823 3.823 0 0 1 3.823 3.823v86.997a3.83 3.83 0 0 1-3.828 3.828H137.15a3.83 3.83 0 0 1-3.828-3.828z"/><path fill="#797979" d="m146.563 112.002-1.823-5.261h.728l1.636 4.799-.346-.172h.865l-.368.172 1.506-4.799h.706l-1.693 5.261zm3.873 0v-3.849h.691v3.849zm-.591-3.301v-.548h1.282v.548zm.785-1.167q-.23 0-.346-.123a.45.45 0 0 1-.108-.31q0-.187.108-.31.115-.122.346-.122t.339.122a.43.43 0 0 1 .115.31.43.43 0 0 1-.115.31q-.108.123-.339.123m3.442 4.597q-.41 0-.757-.151a1.9 1.9 0 0 1-.605-.425 2.1 2.1 0 0 1-.396-.634 2.2 2.2 0 0 1-.137-.779v-.129q0-.411.137-.771.136-.361.382-.635.252-.273.591-.425.345-.159.764-.158.439 0 .8.187.36.18.59.569.231.39.26 1.009l-.288-.461v-2.587h.691v5.261h-.547v-1.708h.202q-.03.655-.274 1.066-.245.403-.62.591-.367.18-.793.18m.094-.605q.353 0 .641-.158.288-.16.462-.454.172-.303.172-.707v-.331q0-.397-.18-.67a1.1 1.1 0 0 0-.468-.426 1.34 1.34 0 0 0-.634-.151q-.382 0-.678.18-.288.18-.454.505-.158.323-.158.764 0 .44.165.771.166.324.462.504.295.173.67.173m4.904.605q-.505 0-.872-.173a1.7 1.7 0 0 1-.598-.454 2 2 0 0 1-.346-.641 2.5 2.5 0 0 1-.108-.721v-.129q0-.375.108-.728.115-.354.346-.634.23-.29.583-.454.362-.174.843-.173.627 0 1.031.273.411.267.605.692.202.425.202.908v.31h-3.416v-.519h2.912l-.159.281q0-.41-.13-.706a1 1 0 0 0-.389-.468q-.259-.166-.656-.166-.41 0-.684.187a1.17 1.17 0 0 0-.404.512 2 2 0 0 0-.129.75q0 .41.129.742.138.324.418.519.281.187.714.187.453 0 .735-.202.288-.201.346-.468h.648a1.5 1.5 0 0 1-.317.684 1.5 1.5 0 0 1-.598.44q-.36.151-.814.151m4.549 0a2.1 2.1 0 0 1-.886-.173 2 2 0 0 1-.649-.454 2.1 2.1 0 0 1-.396-.641 2.1 2.1 0 0 1-.13-.721v-.129q0-.368.137-.721.137-.36.404-.641a1.9 1.9 0 0 1 .648-.454q.383-.174.872-.173.49 0 .872.173.382.165.649.454.267.28.404.641.136.353.136.721v.129q0 .368-.136.721a1.952 1.952 0 0 1-1.038 1.095 2.1 2.1 0 0 1-.887.173m0-.619q.433 0 .735-.188.31-.194.469-.519.166-.324.166-.727 0-.41-.166-.736a1.25 1.25 0 0 0-.476-.511 1.36 1.36 0 0 0-.728-.188q-.417 0-.728.188a1.25 1.25 0 0 0-.475.511 1.6 1.6 0 0 0-.166.736q0 .403.159.727.165.326.468.519.31.188.742.188M145.907 132.622v-.649h1.312q.476 0 .843-.151a1.87 1.87 0 0 0 1.038-1.074q.137-.367.137-.793a2.3 2.3 0 0 0-.137-.807 1.74 1.74 0 0 0-.404-.634 1.7 1.7 0 0 0-.634-.418 2.3 2.3 0 0 0-.843-.144h-1.312v-.649h1.24q.714 0 1.239.224.527.216.872.591.353.367.527.829.173.453.173.929v.159q0 .461-.173.922a2.567 2.567 0 0 1-1.399 1.442q-.525.223-1.239.223zm-.562 0v-5.319h.706v5.319zm7.373.101q-.505 0-.887-.173a2.1 2.1 0 0 1-.648-.454 2.1 2.1 0 0 1-.397-.642 2.1 2.1 0 0 1-.129-.72v-.13q0-.367.137-.721.136-.36.403-.641.267-.288.649-.454.381-.173.872-.173.49 0 .872.173.382.166.648.454.267.28.404.641.137.354.137.721v.13q0 .367-.137.72-.13.354-.396.642a2 2 0 0 1-.642.454q-.381.173-.886.173m0-.62q.432 0 .735-.187.31-.195.468-.519a1.6 1.6 0 0 0 .166-.728q0-.411-.166-.735a1.25 1.25 0 0 0-.475-.512 1.36 1.36 0 0 0-.728-.187 1.4 1.4 0 0 0-.728.187 1.26 1.26 0 0 0-.476.512q-.165.324-.165.735 0 .404.158.728.166.324.469.519.31.187.742.187m4.747.62q-.496 0-.864-.173a1.7 1.7 0 0 1-.599-.461 2.2 2.2 0 0 1-.36-.649 2.3 2.3 0 0 1-.115-.706v-.13q0-.367.115-.721.123-.352.36-.634a1.8 1.8 0 0 1 .606-.461q.36-.173.843-.173t.865.18q.389.18.62.512.237.324.266.771h-.663a.93.93 0 0 0-.331-.598q-.282-.245-.757-.245-.41 0-.685.187a1.15 1.15 0 0 0-.41.512 1.9 1.9 0 0 0-.137.735q0 .396.137.728.137.324.41.519.282.187.699.187.325 0 .563-.115t.382-.31a.9.9 0 0 0 .172-.44h.663a1.4 1.4 0 0 1-.266.786q-.238.332-.634.519-.39.18-.88.18m4.054-.015q-.685 0-1.052-.446-.368-.447-.368-1.29v-2.234h.692v2.371q0 .453.245.713.245.252.663.252.433 0 .706-.274.274-.281.274-.763v-2.299h.692v3.855h-.548v-1.65h.087q0 .569-.152.966a1.26 1.26 0 0 1-.454.598q-.296.201-.756.201zm3.192-.115v-3.848h.548v1.65h-.087q0-.562.144-.951.151-.396.447-.606.295-.209.75-.209h.028q.454 0 .75.209.303.21.447.606.144.388.144.951h-.202q0-.562.151-.951.151-.396.447-.606.303-.209.757-.209h.029q.454 0 .756.209.303.21.447.606.152.388.152.951v2.198h-.692v-2.349q0-.47-.231-.721-.23-.26-.641-.259-.426 0-.685.274-.26.266-.259.749v2.306h-.692v-2.349q0-.47-.231-.721-.23-.26-.641-.259-.426 0-.685.274-.26.266-.259.749v2.306zm8.61.13q-.504 0-.872-.173a1.7 1.7 0 0 1-.598-.454 2 2 0 0 1-.346-.642 2.4 2.4 0 0 1-.108-.72v-.13q0-.375.108-.728.115-.353.346-.634.23-.288.584-.454.36-.173.843-.173.627 0 1.031.274.41.266.605.692.201.425.202.908v.31H171.7v-.519h2.911l-.158.281q0-.41-.13-.706a1 1 0 0 0-.389-.469q-.26-.166-.656-.166-.41 0-.685.188a1.16 1.16 0 0 0-.403.511q-.13.325-.13.75 0 .41.13.742.136.324.418.519.28.188.713.188.454 0 .735-.202.29-.202.346-.469h.649a1.5 1.5 0 0 1-.317.685 1.54 1.54 0 0 1-.598.44q-.361.15-.815.151m2.777-.13v-3.848h.548v1.65h-.087q0-.569.152-.958.158-.397.475-.599.317-.209.8-.209h.029q.728 0 1.074.454.353.454.353 1.312v2.198h-.692v-2.342q0-.447-.252-.713-.252-.274-.692-.274-.455 0-.735.281-.28.28-.281.749v2.299zm6.109.043q-.432 0-.75-.122a.96.96 0 0 1-.483-.418q-.165-.303-.165-.814v-3.705h.663v3.791q0 .31.165.483.174.166.483.166h.678v.619zm-2.061-3.372v-.519h2.652v.519zM147.695 154.804q-.613 0-1.11-.202a2.5 2.5 0 0 1-.858-.569 2.6 2.6 0 0 1-.548-.865 3 3 0 0 1-.194-1.095v-.159q0-.504.173-.973.18-.475.512-.85a2.4 2.4 0 0 1 .821-.598 2.6 2.6 0 0 1 1.088-.224q.656 0 1.168.253a2.05 2.05 0 0 1 1.182 1.715h-.721a1.37 1.37 0 0 0-.288-.728 1.46 1.46 0 0 0-.591-.44 1.85 1.85 0 0 0-.75-.151q-.411 0-.756.151-.346.145-.599.418-.244.274-.382.656a2.5 2.5 0 0 0-.136.858q0 .54.144.951.151.404.418.677.266.267.627.404.367.137.8.137.612 0 1.073-.245.469-.252.707-.649l-.26.858v-1.564h.663v1.254a2.4 2.4 0 0 1-.908.721q-.555.26-1.275.259m-.188-2.09v-.591h2.818v.591zm3.842 1.96v-5.261h.706v5.261zm2.252 0v-5.261h.706v5.261zm.562-2.342v-.634l2.255-.007v.634zm0-2.284v-.635h2.378v.635z"/><path fill="#6762FE" fill-opacity=".2" d="M138.35 80.651a3.456 3.456 0 0 1 3.456-3.455h61.737a3.455 3.455 0 0 1 3.456 3.455v13.34a3.456 3.456 0 0 1-3.456 3.456h-61.737a3.456 3.456 0 0 1-3.456-3.456z"/><path fill="#6762FE" d="M145.976 89.336v-5.26h1.023v5.26zm2.257 0v-3.913h.792v1.68h-.072q0-.592.152-.988.151-.404.447-.606.302-.209.749-.209h.043q.454 0 .75.21.302.201.447.605.15.396.151.987h-.252q0-.591.151-.987.159-.404.454-.606.303-.209.75-.209h.043q.454 0 .756.21.303.201.455.605.158.396.158.987v2.234h-1.002v-2.328q0-.368-.187-.583-.188-.225-.533-.224a.71.71 0 0 0-.555.23q-.21.225-.209.606v2.3h-1.002v-2.329q0-.368-.187-.583-.188-.225-.534-.224a.72.72 0 0 0-.555.23q-.209.225-.209.606v2.3zm9.416 0v-1.16h-.166v-1.29q0-.339-.166-.505-.165-.165-.512-.165-.18 0-.432.007t-.512.022q-.252.006-.454.021v-.85q.166-.015.375-.03.209-.013.425-.013.223-.008.418-.008.606 0 1.002.159.404.158.605.497.21.339.209.886v2.43zm-1.262.101q-.425 0-.749-.151a1.18 1.18 0 0 1-.497-.433 1.26 1.26 0 0 1-.173-.677q0-.433.209-.706.216-.275.598-.411.389-.137.908-.137h.908v.598h-.923q-.345 0-.533.173a.56.56 0 0 0-.18.432q0 .267.18.433.188.166.533.166a1 1 0 0 0 .382-.073.66.66 0 0 0 .296-.259q.123-.188.137-.504l.245.28a1.6 1.6 0 0 1-.202.692 1.1 1.1 0 0 1-.447.433 1.5 1.5 0 0 1-.692.144m4.655 1.441a8 8 0 0 1-1.117-.079v-.836q.26.03.555.05.296.03.555.03.483 0 .778-.116a.8.8 0 0 0 .44-.367q.144-.246.144-.627v-.772l.216-.49q-.022.54-.223.923-.202.375-.548.576-.346.195-.8.195a1.75 1.75 0 0 1-.735-.151q-.325-.151-.562-.418a2 2 0 0 1-.36-.627 2.3 2.3 0 0 1-.13-.771v-.152q0-.41.13-.764.136-.36.382-.627.244-.266.583-.41a1.9 1.9 0 0 1 .75-.145q.482 0 .836.21.36.208.562.605.202.396.223.973l-.173.029v-1.694h.793v3.452q0 .714-.245 1.153a1.43 1.43 0 0 1-.757.641q-.504.21-1.297.21m.288-2.37q.29 0 .526-.13a1 1 0 0 0 .382-.375q.145-.245.145-.591v-.252q0-.332-.152-.562a.9.9 0 0 0-.382-.346 1.1 1.1 0 0 0-.519-.123q-.316 0-.562.151a1 1 0 0 0-.374.411q-.138.267-.137.635 0 .36.137.627.137.266.374.41.246.144.562.144m4.855.965q-.505 0-.886-.173a1.85 1.85 0 0 1-.627-.461 2.2 2.2 0 0 1-.375-.656 2.3 2.3 0 0 1-.123-.735v-.137q0-.39.123-.75a2 2 0 0 1 .375-.648q.252-.288.619-.454.368-.173.851-.173.635 0 1.059.281.432.274.649.728.216.447.216.966v.36h-3.467v-.613h2.84l-.31.303q0-.375-.108-.641a.86.86 0 0 0-.332-.411.97.97 0 0 0-.547-.144 1 1 0 0 0-.562.151.96.96 0 0 0-.354.44 1.8 1.8 0 0 0-.115.677q0 .368.115.656a1 1 0 0 0 .354.447q.237.158.605.158.367 0 .598-.144a.68.68 0 0 0 .296-.367h.922q-.087.403-.331.706a1.6 1.6 0 0 1-.627.468q-.375.165-.858.166"/><rect width="79.153" height="73.17" x="220.387" y="72.387" fill="#fff" stroke="#EEE" stroke-width=".774" rx="3.823"/><path fill="#797979" d="M233.186 110.132v-.619h1.175q.374 0 .619-.145a.96.96 0 0 0 .368-.403q.13-.253.13-.562 0-.318-.13-.57a.9.9 0 0 0-.368-.396 1.2 1.2 0 0 0-.619-.144h-1.175v-.62h1.045q.648 0 1.081.209.44.202.663.577t.223.886v.115q0 .505-.223.887-.224.375-.663.583-.433.202-1.081.202zm-.562 1.831v-5.29h.706v5.29zm4.61 0v-5.261h1.153l2.673 4.627h.231l-.144.129v-4.756h.677v5.261h-1.167l-2.674-4.627h-.231l.145-.13v4.757zm8.465.13q-.613 0-1.11-.202a2.5 2.5 0 0 1-.858-.57 2.6 2.6 0 0 1-.547-.864 3 3 0 0 1-.195-1.096v-.158q0-.505.173-.973.18-.476.512-.851.339-.382.821-.598a2.6 2.6 0 0 1 1.088-.223q.657 0 1.168.252.512.245.822.692.309.44.36 1.023h-.721a1.36 1.36 0 0 0-.288-.728 1.45 1.45 0 0 0-.591-.439 1.85 1.85 0 0 0-.75-.152q-.41 0-.756.152-.346.144-.598.418a1.95 1.95 0 0 0-.382.655 2.5 2.5 0 0 0-.137.858q0 .54.144.951.151.403.418.678.267.267.627.403.368.138.8.137.612 0 1.074-.245.468-.252.706-.648l-.26.857v-1.564h.663v1.254a2.4 2.4 0 0 1-.908.721q-.555.26-1.275.26m-.188-2.09v-.591h2.818v.591zM233.186 130.722v-.619h1.175q.374 0 .62-.145a.96.96 0 0 0 .367-.403q.13-.252.13-.562 0-.317-.13-.57a.9.9 0 0 0-.367-.396 1.2 1.2 0 0 0-.62-.144h-1.175v-.62h1.045q.65 0 1.081.209.44.202.663.577t.224.886v.115q0 .505-.224.887-.224.375-.663.584-.432.201-1.081.201zm-.562 1.831v-5.29h.706v5.29zm5.172.029v-.649h1.312q.476 0 .843-.151.375-.159.634-.433.267-.273.403-.641.137-.367.137-.793a2.2 2.2 0 0 0-.137-.807 1.7 1.7 0 0 0-.403-.634 1.7 1.7 0 0 0-.634-.418 2.3 2.3 0 0 0-.843-.144h-1.312v-.649h1.239q.714 0 1.24.224.526.216.872.591.353.368.526.828.173.454.173.93v.159q0 .46-.173.922a2.56 2.56 0 0 1-1.398 1.441q-.526.224-1.24.224zm-.562 0v-5.319h.706v5.319zm5.7-.029v-5.261h.707v5.261zm.563-2.342v-.634l2.255-.008v.635zm0-2.285v-.634h2.378v.634z"/><path fill="#6762FE" fill-opacity=".2" d="M225.319 81.205a3.455 3.455 0 0 1 3.455-3.456h61.737a3.455 3.455 0 0 1 3.456 3.456v13.34A3.455 3.455 0 0 1 290.511 98h-61.737a3.455 3.455 0 0 1-3.455-3.455z"/><path fill="#6762FE" d="M235.216 90.62a2.15 2.15 0 0 1-1.001-.223 1.58 1.58 0 0 1-.671-.656q-.237-.432-.237-1.06v-.23h1.016v.317q0 .419.245.663.245.238.641.238.404 0 .642-.238.245-.244.245-.663V85.98h1.023v2.703q0 .626-.238 1.06a1.6 1.6 0 0 1-.663.655 2.1 2.1 0 0 1-1.002.223m-1.268-4.497v-.9h3.171v.9zm5.258 2.746v-.886h1.023q.31 0 .519-.123a.8.8 0 0 0 .325-.339q.115-.216.115-.497 0-.28-.115-.497a.75.75 0 0 0-.325-.332 1 1 0 0 0-.519-.122h-1.023v-.887h.937q.663 0 1.124.217.469.215.714.62.245.395.245.944v.115a1.8 1.8 0 0 1-.245.951q-.245.395-.714.62-.46.216-1.124.216zm-.879 1.614v-5.297h1.023v5.297zm7.194.137q-.678 0-1.197-.223a2.6 2.6 0 0 1-.864-.613 2.8 2.8 0 0 1-.527-.872 3 3 0 0 1-.173-1.016v-.158q0-.498.173-.973.174-.475.505-.858.339-.381.829-.605.497-.23 1.138-.23.693 0 1.225.259.534.252.858.713.325.454.382 1.06h-1.031a1.1 1.1 0 0 0-.252-.577 1.3 1.3 0 0 0-.511-.375 1.7 1.7 0 0 0-.671-.13q-.367 0-.67.13a1.4 1.4 0 0 0-.504.368q-.21.237-.325.569a2.4 2.4 0 0 0-.108.735q0 .44.123.786.122.345.346.59.224.24.54.368.317.123.714.123.525 0 .922-.217a1.4 1.4 0 0 0 .577-.576l-.181.829v-1.355h.945v1.167a2.3 2.3 0 0 1-.923.8q-.584.282-1.34.281m-.166-2.046v-.764h2.868v.764z"/><path fill="#FBBB54" d="M120.673 148.938a1 1 0 0 0 1.265-1.265l-3.946-11.837c-.293-.879-1.522-.921-1.874-.063l-1.374 3.353a5.3 5.3 0 0 1-2.644 2.643l-3.316 1.351c-.86.351-.82 1.582.061 1.875z"/><path fill="#fff" d="M107.643 128.5a9 9 0 0 1-9 9h-38a9 9 0 0 1-9-9 9 9 0 0 1 9-9h38a9 9 0 0 1 9 9"/><path fill="#FBBB54" fill-opacity=".2" d="M107.643 128.5a9 9 0 0 1-9 9h-38a9 9 0 0 1-9-9 9 9 0 0 1 9-9h38a9 9 0 0 1 9 9"/><path stroke="#FBBB54" d="M107.643 128.5a9 9 0 0 1-9 9h-38a9 9 0 0 1-9-9 9 9 0 0 1 9-9h38a9 9 0 0 1 9 9Z"/><path fill="#000" d="m72.147 131.5-2.136-2.728h-.824l2.536-3.112h1.304l-2.288 2.8-.032-.56 2.824 3.6zm-3.784 0v-5.84h1.136v5.84zm7.551.152q-.56 0-.984-.192a2.1 2.1 0 0 1-.696-.512 2.4 2.4 0 0 1-.416-.728 2.5 2.5 0 0 1-.136-.816v-.152q0-.432.136-.832.144-.408.416-.72.28-.32.688-.504.408-.192.944-.192.705 0 1.176.312.48.304.72.808.24.496.24 1.072v.4h-3.848v-.68h3.152l-.344.336q0-.416-.12-.712a.95.95 0 0 0-.368-.456q-.24-.16-.608-.16t-.624.168q-.255.168-.392.488a2 2 0 0 0-.128.752q0 .408.128.728a1.1 1.1 0 0 0 .392.496q.264.176.672.176t.664-.16a.75.75 0 0 0 .328-.408h1.024q-.096.448-.368.784a1.8 1.8 0 0 1-.696.52 2.3 2.3 0 0 1-.952.184m3.85-.152-1.36-4.344h1.144l1.304 4.344zm.328 0v-.912h1.176v.912zm.44 0 1.12-4.344h1.072l-1.176 4.344zm3.24 0v-4.344h1.112v4.344zm-.608-3.512v-.832h1.72v.832zm1.016-1.352q-.328 0-.488-.168a.64.64 0 0 1-.152-.432q0-.272.152-.44.16-.168.488-.168.329 0 .48.168a.63.63 0 0 1 .152.44q0 .257-.152.432-.151.168-.48.168m1.985 4.864v-4.344h.88v1.864h-.08q.001-.665.176-1.104.177-.448.52-.672.353-.224.873-.224h.047q.777 0 1.176.504.4.496.4 1.488v2.488h-1.111v-2.584q0-.4-.233-.648-.224-.248-.624-.248a.9.9 0 0 0-.663.256q-.249.248-.248.672v2.552z"/><path fill="#FF7E36" d="M314.327 330.938a1 1 0 0 1-1.265-1.265l3.946-11.837c.293-.879 1.522-.921 1.874-.063l1.374 3.353a5.3 5.3 0 0 0 2.644 2.643l3.316 1.351c.86.351.82 1.582-.061 1.875z"/><path fill="#fff" d="M327.058 310.5a9 9 0 0 0 9 9h39a9 9 0 0 0 0-18h-39a9 9 0 0 0-9 9"/><path fill="#FF7E36" fill-opacity=".2" d="M327.058 310.5a9 9 0 0 0 9 9h39a9 9 0 0 0 0-18h-39a9 9 0 0 0-9 9"/><path stroke="#FF7E36" d="M327.058 310.5a9 9 0 0 0 9 9h39a9 9 0 0 0 0-18h-39a9 9 0 0 0-9 9Z"/><path fill="#000" d="M345.458 313.652q-.633 0-1.112-.248a1.75 1.75 0 0 1-.744-.728q-.264-.48-.264-1.176v-.256h1.128v.352q0 .464.272.736.271.264.712.264.447 0 .712-.264.272-.272.272-.736V308.5h1.136v3q0 .696-.264 1.176-.265.48-.736.728-.473.248-1.112.248m-1.408-4.992v-1h3.52v1zm7.404 4.84v-1.288h-.184v-1.432q0-.376-.184-.56-.183-.184-.568-.184a19 19 0 0 0-1.048.032q-.279.007-.504.024v-.944q.185-.016.416-.032.232-.016.472-.016.248-.008.464-.008.672 0 1.112.176.448.175.672.552.232.377.232.984v2.696zm-1.4.112a1.95 1.95 0 0 1-.832-.168 1.3 1.3 0 0 1-.552-.48 1.4 1.4 0 0 1-.192-.752q0-.48.232-.784.24-.304.664-.456a3 3 0 0 1 1.008-.152h1.008v.664h-1.024q-.384 0-.592.192a.62.62 0 0 0-.2.48q0 .296.2.48.208.184.592.184.232 0 .424-.08a.74.74 0 0 0 .328-.288q.137-.208.152-.56l.272.312q-.04.456-.224.768a1.2 1.2 0 0 1-.496.48q-.312.16-.768.16m5.048.024q-.897 0-1.408-.376-.504-.384-.528-1.056h1q.024.224.248.408t.704.184q.4 0 .632-.144.24-.144.24-.392a.4.4 0 0 0-.184-.344q-.176-.127-.608-.168l-.384-.04q-.729-.08-1.12-.416t-.392-.896q0-.448.224-.752a1.34 1.34 0 0 1 .616-.456q.399-.16.912-.16.8 0 1.296.352.495.352.52 1.032h-1a.53.53 0 0 0-.224-.384q-.209-.16-.6-.16-.352 0-.544.136a.42.42 0 0 0-.192.352q0 .208.152.32.16.112.512.152l.384.04q.768.08 1.2.424.44.344.44.928 0 .432-.24.752a1.5 1.5 0 0 1-.656.488 2.6 2.6 0 0 1-1 .176m4.902.016q-.576 0-1.016-.184a2.2 2.2 0 0 1-.744-.496 2.3 2.3 0 0 1-.464-.72 2.3 2.3 0 0 1-.152-.832v-.168q0-.448.16-.848a2.3 2.3 0 0 1 .472-.72q.312-.32.752-.496.44-.184.992-.184t.992.184q.441.176.744.496.313.312.472.72.16.4.16.848v.168q0 .432-.16.832a2.1 2.1 0 0 1-.456.72 2.2 2.2 0 0 1-.744.496 2.6 2.6 0 0 1-1.008.184m0-.952q.409 0 .688-.176.28-.184.424-.488.144-.312.144-.704 0-.4-.152-.704a1.1 1.1 0 0 0-.432-.488 1.2 1.2 0 0 0-.672-.184q-.392 0-.68.184-.279.176-.432.488a1.56 1.56 0 0 0-.152.704q0 .392.144.704.153.304.432.488.28.176.688.176m3.342.8v-4.344h.88v1.864h-.08q0-.664.176-1.104.176-.448.52-.672.352-.224.872-.224h.048q.776 0 1.176.504.4.496.4 1.488v2.488h-1.112v-2.584q0-.4-.232-.648-.224-.248-.624-.248a.9.9 0 0 0-.664.256q-.248.248-.248.672v2.552z"/><defs><clipPath id="a"><rect width="80.844" height="23.176" x="133.161" y="38.357" fill="#fff" rx="5.296"/></clipPath><clipPath id="b"><rect width="80.844" height="23.176" x="218.751" y="38.357" fill="#fff" rx="5.296"/></clipPath><filter id="c" width="96.899" height="48.47" x="447.825" y="27.829" color-interpolation-filters="sRGB" filterUnits="userSpaceOnUse"><feFlood flood-opacity="0" result="BackgroundImageFix"/><feColorMatrix in="SourceAlpha" result="hardAlpha" values="0 0 0 0 0 0 0 0 0 0 0 0 0 0 0 0 0 0 127 0"/><feOffset dy="2.107"/><feGaussianBlur stdDeviation="6.322"/><feComposite in2="hardAlpha" operator="out"/><feColorMatrix values="0 0 0 0 0.0980392 0 0 0 0 0.439216 0 0 0 0 0.94902 0 0 0 0.1 0"/><feBlend in2="BackgroundImageFix" result="effect1_dropShadow_14_12821"/><feBlend in="SourceGraphic" in2="effect1_dropShadow_14_12821" result="shape"/></filter><filter id="d" width="33.36" height="37.67" x="494.513" y="49.206" color-interpolation-filters="sRGB" filterUnits="userSpaceOnUse"><feFlood flood-opacity="0" result="BackgroundImageFix"/><feColorMatrix in="SourceAlpha" result="hardAlpha" values="0 0 0 0 0 0 0 0 0 0 0 0 0 0 0 0 0 0 127 0"/><feOffset dy="2.942"/><feGaussianBlur stdDeviation="2.998"/><feComposite in2="hardAlpha" operator="out"/><feColorMatrix values="0 0 0 0 0 0 0 0 0 0 0 0 0 0 0 0 0 0 0.25 0"/><feBlend in2="BackgroundImageFix" result="effect1_dropShadow_14_12821"/><feBlend in="SourceGraphic" in2="effect1_dropShadow_14_12821" result="shape"/></filter></defs></svg>