<svg width="48" height="48" viewBox="0 0 48 48" fill="none" xmlns="http://www.w3.org/2000/svg">
<path d="M13.441 21.5332L9.9562 20.314C9.5818 20.1796 9.169 20.3812 9.0346 20.7556L4.7722 32.9188C4.6378 33.2932 4.8394 33.706 5.2138 33.8404L8.6986 35.0596C9.073 35.194 9.4858 34.9924 9.6202 34.618L13.8826 22.4548C14.017 22.0804 13.8154 21.6676 13.441 21.5332ZM14.593 23.338L10.7338 34.3588L12.5866 35.7028C16.5418 39.5908 17.1658 40.4164 21.0154 44.266C22.6378 45.8884 24.6826 44.0644 24.049 43.1812L20.9482 40.2244C20.7562 40.042 20.7562 39.7444 20.9386 39.5524C21.121 39.3604 21.4282 39.3604 21.6202 39.5428L25.1338 42.9124L25.5178 43.2676L25.8826 43.594C26.9578 44.5636 29.2042 42.6244 28.2058 41.6452L24.6922 38.2756C24.5002 38.0932 24.5002 37.786 24.6826 37.594C24.865 37.402 25.1722 37.402 25.3642 37.5844L28.8778 40.954C29.6362 41.674 30.7402 40.8772 31.1242 40.1284C31.3738 39.658 31.3642 39.1972 30.9898 38.8132L27.4762 35.4436C27.2842 35.2612 27.2842 34.954 27.4666 34.762C27.649 34.57 27.9562 34.57 28.1482 34.7524L31.6618 38.122L31.6906 38.1508C32.737 39.1972 34.6858 37.0564 33.9082 36.2788L29.0218 31.4308C27.5146 29.9332 26.1898 29.4724 24.577 30.5668C22.2826 32.122 20.161 31.9684 18.7786 31.2196C17.9722 30.778 17.2714 30.0484 17.1082 29.194C16.9738 28.4836 17.2138 27.8116 17.9338 27.3796L21.9562 24.9892L14.593 23.338ZM37.1626 34.042L33.409 23.338C31.1626 23.7412 24.001 24.6916 23.3866 25.21C23.3386 25.258 23.2906 25.2964 23.233 25.3252L18.4042 28.1956C17.7802 28.5604 18.001 29.2324 18.3946 29.7028C18.6058 29.9524 18.8842 30.1828 19.2202 30.3652C20.3434 30.97 22.081 31.0756 24.0202 29.7604C26.0458 28.3876 27.841 28.9156 29.6746 30.7396L34.4266 35.4628L37.1626 34.042ZM38.0458 20.314L34.561 21.5332C34.1866 21.6676 33.985 22.0804 34.1194 22.4548L38.1898 34.09C38.3434 34.4836 38.3722 34.8484 38.7466 35.0308C38.9194 35.1172 39.1114 35.1268 39.3034 35.0596L42.7882 33.8404C43.1626 33.706 43.3642 33.2932 43.2298 32.9188L38.9674 20.7556C38.8426 20.3812 38.4202 20.1796 38.0458 20.314ZM26.1898 6.45163L24.001 3.08203L21.8314 6.44203C21.7642 6.54763 21.6682 6.63403 21.5434 6.66283L17.665 7.69963L20.1898 10.81C20.2666 10.8964 20.3146 11.0212 20.305 11.146L20.0842 15.1588L23.8378 13.7092C23.9434 13.6708 24.0682 13.6612 24.1834 13.7092L27.9274 15.1588L27.7162 11.146C27.7066 11.0308 27.745 10.9156 27.8218 10.8196L30.3562 7.69963L26.4778 6.66283C26.353 6.62443 26.257 6.55723 26.1898 6.45163ZM39.4282 10.6564L38.449 9.14923L37.4794 10.6372C37.4218 10.7428 37.3162 10.8292 37.1914 10.858L35.4538 11.3188L36.577 12.7012C36.6538 12.7876 36.7018 12.9124 36.6922 13.0372L36.5962 14.8324L38.2762 14.1892C38.3818 14.1508 38.5066 14.1412 38.6218 14.1892L40.3018 14.8324L40.2058 13.0372C40.1962 12.922 40.2346 12.8068 40.3114 12.7108L41.4442 11.3188L39.7066 10.858C39.601 10.8292 39.4954 10.762 39.4282 10.6564ZM10.5322 10.6564L9.553 9.14923L8.5834 10.6372C8.5258 10.7428 8.4202 10.8292 8.2954 10.858L6.5578 11.3188L7.681 12.7108C7.7578 12.7972 7.8058 12.922 7.7962 13.0468L7.7002 14.842L9.3802 14.1988C9.4858 14.1604 9.6106 14.1508 9.7258 14.1988L11.4058 14.842L11.3098 13.0468C11.3002 12.9316 11.3386 12.8164 11.4154 12.7204L12.5482 11.3284L10.8106 10.8676C10.6954 10.8292 10.5994 10.762 10.5322 10.6564Z" fill="#8035E8"/>
</svg>
