<svg width="48" height="48" viewBox="0 0 48 48" fill="none" xmlns="http://www.w3.org/2000/svg">
<path d="M34.2456 25.725H40.3881V31.875H34.2456V25.725ZM40.3506 9.33004H46.4856V15.4725H40.3506V9.33004ZM33.5031 14.115C33.4431 14.265 33.4881 14.4375 33.6081 14.535C36.6681 17.19 38.4981 20.97 38.6706 24.9675H35.7306C35.6058 22.6698 34.8074 20.4595 33.4351 18.6124C32.0627 16.7652 30.1771 15.3628 28.0131 14.58C28.0281 14.55 28.0431 14.5125 28.0581 14.4825C28.0881 14.4225 28.1181 14.355 28.1481 14.2875C28.2081 14.16 28.2606 14.025 28.3056 13.8975C28.3281 13.8225 28.3581 13.7475 28.3731 13.6725C28.4181 13.5375 28.4481 13.395 28.4781 13.245C28.4856 13.1775 28.5006 13.1175 28.5156 13.05C28.5456 12.8325 28.5606 12.6225 28.5606 12.3975C28.5606 12.1725 28.5381 11.955 28.5081 11.7375C28.5006 11.6775 28.4856 11.6175 28.4781 11.5575C28.4406 11.3775 28.3956 11.1975 28.3431 11.0175C28.3431 10.9875 28.3281 10.9575 28.3206 10.935H39.5931V13.8675H33.8556C33.6981 13.8675 33.5556 13.965 33.5031 14.115ZM27.8031 12.3975C27.8031 13.406 27.4025 14.3732 26.6894 15.0863C25.9763 15.7994 25.0091 16.2 24.0006 16.2C22.7556 16.2 21.5931 15.5925 20.8806 14.565C20.4381 13.9425 20.1981 13.1925 20.1981 12.3975C20.1981 11.82 20.3331 11.25 20.5881 10.7175C21.2406 9.41254 22.5456 8.60254 24.0006 8.60254C25.4556 8.60254 26.7681 9.41254 27.4131 10.7175C27.6681 11.25 27.8031 11.8125 27.8031 12.3975ZM7.61312 25.725H13.7556V31.875H7.61312V25.725ZM19.9881 14.58C17.8242 15.3628 15.9385 16.7652 14.5662 18.6124C13.1938 20.4595 12.3955 22.6698 12.2706 24.9675H9.33063C9.50313 20.97 11.3331 17.19 14.3931 14.535C14.5131 14.4375 14.5581 14.265 14.4981 14.115C14.4723 14.0423 14.4245 13.9794 14.3613 13.9351C14.2982 13.8907 14.2228 13.8671 14.1456 13.8675H8.40813V10.935H19.6806L19.6581 11.01C19.6056 11.19 19.5606 11.3775 19.5231 11.5575C19.5156 11.6175 19.5006 11.6775 19.4931 11.7375C19.4631 11.955 19.4406 12.18 19.4406 12.3975C19.4406 12.615 19.4556 12.8325 19.4856 13.05C19.5006 13.1175 19.5156 13.185 19.5231 13.2525C19.5531 13.395 19.5831 13.5375 19.6206 13.6725C19.6431 13.7475 19.6731 13.8225 19.6956 13.8975C19.7406 14.025 19.7931 14.1525 19.8456 14.28C19.8831 14.3475 19.9131 14.415 19.9431 14.4825C19.9656 14.52 19.9731 14.55 19.9881 14.58ZM1.51562 9.33004H7.65063V15.4725H1.51562V9.33004ZM19.7481 36.465H28.2531V39.3975H19.7481V36.465ZM24.0006 21.1875C23.3106 22.68 21.6081 25.965 18.8931 28.875C19.3131 29.79 20.7606 33.075 20.8956 35.7H27.1056C27.2406 33.075 28.6881 29.79 29.1081 28.875C26.3931 25.965 24.6906 22.68 24.0006 21.1875ZM24.0006 32.04C22.8456 32.04 21.9006 31.1025 21.9006 29.9475C21.9006 28.7925 22.8456 27.8475 24.0006 27.8475C25.1556 27.8475 26.1006 28.785 26.1006 29.9475C26.1006 31.11 25.1556 32.04 24.0006 32.04Z" fill="#75BB0B"/>
<path d="M25.336 29.9475C25.336 30.6825 24.736 31.275 24.001 31.275C23.266 31.275 22.666 30.6825 22.666 29.9475C22.666 29.2125 23.266 28.6125 24.001 28.6125C24.736 28.6125 25.336 29.2125 25.336 29.9475Z" fill="#75BB0B"/>
</svg>
