<svg width="48" height="48" viewBox="0 0 48 48" fill="none" xmlns="http://www.w3.org/2000/svg">
<path fill-rule="evenodd" clip-rule="evenodd" d="M35.0138 4.03508C31.6426 2.1699 27.852 1.19396 23.9992 1.19924C11.416 1.19924 1.19922 11.416 1.19922 23.9992C1.19922 36.5824 11.416 46.7992 23.9992 46.7992C36.5824 46.7992 46.7992 36.5824 46.7992 23.9992C46.7992 20.0056 45.7701 16.2506 43.9634 12.9847L43.6735 13.2736C43.3712 13.5763 43.0122 13.8164 42.617 13.9801C42.2218 14.1439 41.7982 14.2281 41.3704 14.2279H39.6573C41.4908 17.1569 42.4609 20.5437 42.4562 23.9992C42.4562 34.1863 34.1863 42.4562 23.9992 42.4562C13.8122 42.4562 5.54226 34.1863 5.54226 23.9992C5.54226 13.8122 13.8122 5.54228 23.9992 5.54228C27.4547 5.53742 30.8415 6.50736 33.7706 8.34068V6.62804C33.7706 5.76356 34.1138 4.93508 34.7248 4.325L35.0138 4.03508Z" fill="#F99811"/>
<path fill-rule="evenodd" clip-rule="evenodd" d="M33.7702 10.974C30.9545 8.85302 27.524 7.70809 23.9988 7.71291C15.0103 7.71291 7.71289 15.0103 7.71289 23.9988C7.71289 32.9873 15.0103 40.2852 23.9988 40.2852C32.9873 40.2852 40.2847 32.9878 40.2847 23.9993C40.2897 20.4742 39.1449 17.0437 37.0241 14.2279C36.5394 14.2287 36.0607 14.1204 35.6234 13.9111L33.1754 16.3582C34.9659 18.5015 35.945 21.2065 35.9412 23.9993C35.9412 30.5907 30.5897 35.9422 23.9983 35.9422C17.407 35.9422 12.0559 30.5907 12.0559 23.9993C12.0559 17.4079 17.4074 12.0564 23.9988 12.0564C26.7918 12.0527 29.497 13.032 31.6404 14.8227L34.0874 12.3747C33.8783 11.9374 33.7695 11.4587 33.7702 10.974Z" fill="#F99811"/>
<path fill-rule="evenodd" clip-rule="evenodd" d="M30.0973 16.3664C28.3677 14.98 26.2166 14.2257 23.9999 14.2285C18.6071 14.2285 14.2285 18.6071 14.2285 23.9999C14.2285 29.3927 18.6071 33.7712 23.9999 33.7712C29.3927 33.7712 33.7712 29.3927 33.7712 23.9999C33.7712 21.6949 32.9711 19.5743 31.6333 17.9024L28.5282 21.0066C29.1169 21.8938 29.4302 22.9352 29.4287 23.9999C29.4287 26.9965 26.9965 29.4287 23.9999 29.4287C21.0032 29.4287 18.5711 26.9965 18.5711 23.9999C18.5711 21.0032 21.0032 18.5711 23.9999 18.5711C25.1063 18.5711 26.1344 18.9023 26.9932 19.4716L30.0973 16.3664Z" fill="#F99811"/>
<path fill-rule="evenodd" clip-rule="evenodd" d="M25.403 21.0606C24.9065 20.8238 24.3581 20.7166 23.809 20.7489C23.2598 20.7812 22.7278 20.9521 22.2625 21.2455C21.7972 21.5389 21.4138 21.9453 21.1479 22.4269C20.8821 22.9085 20.7425 23.4496 20.7422 23.9996C20.7422 25.7977 22.2014 27.2569 23.999 27.2569C24.549 27.2565 25.09 27.1168 25.5715 26.8509C26.053 26.5851 26.4594 26.2016 26.7528 25.7364C27.0462 25.2711 27.217 24.7392 27.2494 24.1901C27.2818 23.641 27.1747 23.0926 26.938 22.5961L24.7665 24.7672C24.5628 24.9705 24.2868 25.0847 23.999 25.0847C23.7112 25.0847 23.4351 24.9705 23.2315 24.7672C23.0282 24.5634 22.9141 24.2874 22.9141 23.9996C22.9141 23.7119 23.0282 23.4358 23.2315 23.2321L25.403 21.0606ZM35.9419 10.971V6.62844C35.9419 6.34044 36.0556 6.06348 36.2601 5.86044L40.6027 1.51788C40.7335 1.38681 40.8956 1.29139 41.0737 1.24069C41.2518 1.18999 41.4399 1.1857 41.6201 1.22823C41.8003 1.27076 41.9667 1.35869 42.1033 1.48366C42.24 1.60863 42.3423 1.76648 42.4007 1.9422L43.1423 4.1694C43.1958 4.32934 43.2858 4.47466 43.4051 4.59387C43.5244 4.71307 43.6697 4.80291 43.8297 4.85628L46.0564 5.59788C46.2321 5.65628 46.39 5.75867 46.515 5.89531C46.6399 6.03194 46.7279 6.19828 46.7704 6.3785C46.8129 6.55872 46.8086 6.74682 46.7579 6.92491C46.7072 7.103 46.6118 7.26516 46.4807 7.39596L42.1382 11.7385C41.9351 11.943 41.6582 12.0568 41.3702 12.0568H37.0276C36.7397 12.0566 36.4636 11.9422 36.26 11.7386C36.0564 11.535 35.942 11.2589 35.9419 10.971Z" fill="#F99811"/>
</svg>
