<svg width="48" height="48" viewBox="0 0 48 48" fill="none" xmlns="http://www.w3.org/2000/svg">
<g clip-path="url(#clip0_81_6216)">
<path d="M28.3125 11.25H34.7616L25.912 20.0995L27.9005 22.088L36.75 13.2385V19.6875H39.5625V8.4375H28.3125V11.25ZM42.375 0V2.8125H45.1875V5.625H48V0H42.375ZM45.1875 36.5625H42.375V39.375H48V33.75H45.1875V36.5625ZM45.1875 8.4375H48V14.0625H45.1875V8.4375ZM45.1875 16.875H48V22.5H45.1875V16.875ZM45.1875 25.3125H48V30.9375H45.1875V25.3125ZM11.4375 2.8125H14.25V0H8.625V5.625H11.4375V2.8125ZM8.625 8.4375H11.4375V14.0625H8.625V8.4375ZM8.625 16.875H11.4375V22.5H8.625V16.875ZM17.0625 0H22.6875V2.8125H17.0625V0ZM25.5 0H31.125V2.8125H25.5V0ZM33.9375 0H39.5625V2.8125H33.9375V0ZM25.5 36.5625H31.125V39.375H25.5V36.5625ZM33.9375 36.5625H39.5625V39.375H33.9375V36.5625ZM0 25.5H22.5V48H0V25.5Z" fill="#20D8F8"/>
</g>
<defs>
<clipPath id="clip0_81_6216">
<rect width="48" height="48" fill="white"/>
</clipPath>
</defs>
</svg>
