<svg xmlns="http://www.w3.org/2000/svg" width="706" height="515" fill="none"><rect width="698" height="507" x="4" y="4" fill="#F5F5F5" rx="24"/><rect width="698" height="507" x="4" y="4" stroke="#E9ECF2" stroke-width="8" rx="24"/><rect width="27.522" height="386.015" x="24.264" y="86.145" fill="#fff" stroke="#EEE" stroke-width=".528" rx="5.017"/><rect width="21.123" height="21.123" x="27.467" y="91.799" fill="url(#a)" fill-opacity=".16" rx="4.225"/><path fill="url(#b)" d="M39.228 99.223c-1.578-.321-2.811-1.52-3.142-3.053a.4.4 0 0 0-.146-.232.426.426 0 0 0-.527 0 .4.4 0 0 0-.146.232c-.33 1.534-1.564 2.732-3.142 3.053a.42.42 0 0 0-.24.142.4.4 0 0 0 0 .512c.061.073.146.123.24.142 1.578.321 2.811 1.52 3.142 3.053.02.091.071.173.145.232a.425.425 0 0 0 .528 0 .4.4 0 0 0 .146-.232c.33-1.533 1.564-2.732 3.142-3.053a.42.42 0 0 0 .239-.142.4.4 0 0 0 0-.512.42.42 0 0 0-.239-.142m-.692 6.715a1.89 1.89 0 0 1-1.48-1.438.4.4 0 0 0-.146-.232.425.425 0 0 0-.673.232 1.89 1.89 0 0 1-1.48 1.438.42.42 0 0 0-.24.142.4.4 0 0 0 0 .512c.061.073.145.123.24.142a1.89 1.89 0 0 1 1.48 1.438.4.4 0 0 0 .146.232.425.425 0 0 0 .527 0 .4.4 0 0 0 .146-.232 1.89 1.89 0 0 1 1.48-1.438.42.42 0 0 0 .24-.142.4.4 0 0 0 0-.512.42.42 0 0 0-.24-.142m5.653-3.763c-1.005-.205-1.79-.968-2.001-1.945a.4.4 0 0 0-.146-.232.426.426 0 0 0-.528 0 .4.4 0 0 0-.145.232c-.211.977-.996 1.74-2.001 1.945a.42.42 0 0 0-.24.141.4.4 0 0 0 0 .513.42.42 0 0 0 .24.141c1.005.205 1.79.968 2 1.945.02.091.072.173.146.232a.43.43 0 0 0 .528 0 .4.4 0 0 0 .145-.232c.211-.977.997-1.74 2.002-1.945a.42.42 0 0 0 .239-.141.4.4 0 0 0-.24-.654"/><rect width="21.123" height="21.123" x="27.467" y="119.257" fill="#fff" rx="4.225"/><path stroke="#18181B" stroke-linecap="round" stroke-width=".792" d="M35.39 124.565v10.561M40.665 124.565v10.561M43.303 127.209H32.742M43.303 132.49H32.742"/><path stroke="#18181B" stroke-width=".792" d="M39.095 158.374h4.337v4.337h-4.338zM43.434 154.262a2.38 2.38 0 0 1-2.375 2.376 2.38 2.38 0 0 1-2.376-2.376 2.38 2.38 0 0 1 2.376-2.376 2.38 2.38 0 0 1 2.375 2.376ZM32.893 156.343l2.3-4.051 2.3 4.051zM33.885 162.713l-1.215-2.105 1.215-2.106h2.431l1.216 2.106-1.216 2.105z"/><rect width="21.123" height="21.123" x="27.467" y="174.174" fill="#fff" rx="4.225"/><path stroke="#18181B" stroke-linejoin="round" stroke-width=".792" d="m40.452 189.358-1.291.341c-1.195.317-1.793.475-2.261.216s-.624-.834-.936-1.985l-.772-2.847c-.312-1.15-.468-1.725-.194-2.181.275-.455.872-.614 2.067-.93l2.112-.559c1.195-.316 1.793-.475 2.261-.216s.624.835.936 1.985l.775 2.858c.133.489.2.734.126.964m-2.823 2.354c.397-.106.4-.107.709-.372l1.449-1.243c.395-.34.593-.509.665-.739m-2.823 2.354s.31-2.426 1.005-2.746c.789-.363 1.818.392 1.818.392"/><path stroke="#18181B" stroke-width=".792" d="M40.663 181.069c-.034-.567-.128-.923-.397-1.179-.412-.392-1.072-.394-2.393-.398l-2.336-.007c-1.321-.004-1.982-.006-2.39.384-.41.389-.408 1.018-.404 2.275l.01 3.113c.003 1.257.005 1.886.417 2.278.411.392 1.072.393 2.393.397l.36.001"/><path stroke="#18181B" stroke-linecap="round" stroke-linejoin="round" stroke-width=".792" d="M42.4 214.947v-6.324m-7.426 7.378h6.365m0-8.432h-6.365m-1.06 1.054v6.324"/><path fill="#18181B" d="m39.697 209.851.09-.386zm-3.082 0 .09.386zm-.43.163.269.291zm-.546.6a.396.396 0 0 0 .792 0zm.458-.489-.343-.198zm4.03-.111.269-.291zm-.245.6a.396.396 0 0 0 .792 0zm.333-.489-.343.198zm-2.455 3.768a.396.396 0 1 0 .792 0zm1.103.396a.396.396 0 1 0 0-.792zm-1.414-.792a.396.396 0 1 0 0 .792zm.707-3.424c.502 0 .989.057 1.452.164l.178-.772a7.3 7.3 0 0 0-1.63-.184zm-1.451.164a6.4 6.4 0 0 1 1.451-.164v-.792c-.562 0-1.109.064-1.63.184zm-.179-.772c-.19.044-.424.087-.61.258l.538.582v.001q-.002 0 0 0l.026-.011c.044-.015.104-.03.225-.058zm-.095 1.149c0-.135 0-.207.006-.259.004-.043.009-.043.003-.032l-.686-.396a.85.85 0 0 0-.106.348c-.01.101-.01.22-.01.339zm-.514-.891a1 1 0 0 0-.163.204l.686.396.001-.002.006-.007.005-.007.002-.002zm3.69.514a3 3 0 0 1 .252.069v-.001l.537-.582c-.186-.171-.42-.214-.61-.258zm1.067.377c0-.119 0-.238-.01-.339a.85.85 0 0 0-.105-.348l-.687.396c-.006-.011 0-.011.004.032.005.052.006.124.006.259zm-.816-.309.002.002.006.007.005.007.001.002.687-.396a1 1 0 0 0-.163-.204zm-2.098-.628v4.216h.792v-4.216zm1.103 3.82H37.45v.792h1.414z"/><rect width="2.121" height="2.108" x="41.338" y="206.515" stroke="#18181B" stroke-width=".792" rx=".528"/><rect width="2.121" height="2.108" x="32.852" y="206.515" stroke="#18181B" stroke-width=".792" rx=".528"/><rect width="2.121" height="2.108" x="41.338" y="214.947" stroke="#18181B" stroke-width=".792" rx=".528"/><rect width="2.121" height="2.108" x="32.852" y="214.947" stroke="#18181B" stroke-width=".792" rx=".528"/><g stroke="#18181B" stroke-width=".792" clip-path="url(#c)"><path d="M36.441 239.654c0-.747 0-1.12-.27-1.352-.271-.232-.707-.232-1.578-.232s-1.307 0-1.578.232c-.27.232-.27.605-.27 1.352s0 1.12.27 1.352c.271.232.707.232 1.578.232s1.307 0 1.577-.232c.271-.232.271-.605.271-1.352ZM43.306 235.957c0-.746 0-1.12-.217-1.352-.216-.232-.565-.232-1.262-.232h-.739c-.697 0-1.046 0-1.262.232-.217.232-.217.606-.217 1.352s0 1.121.217 1.353c.216.232.565.232 1.262.232h.74c.696 0 1.045 0 1.261-.232.217-.232.217-.606.217-1.353ZM43.306 243.35c0-.747 0-1.12-.217-1.352-.216-.232-.565-.232-1.262-.232h-.739c-.697 0-1.046 0-1.262.232-.217.232-.217.605-.217 1.352s0 1.12.217 1.352c.216.232.565.232 1.262.232h.74c.696 0 1.045 0 1.261-.232.217-.232.217-.605.217-1.352Z"/><path stroke-linecap="round" stroke-linejoin="round" d="M38.025 239.653v2.137c0 .99.485 1.434 1.584 1.56m-1.584-3.697v-2.137c0-.933.412-1.422 1.584-1.559m-1.584 3.696h-1.584"/></g><path stroke="#18181B" stroke-width=".792" d="M33.01 267.141c0-2.365 0-3.547.734-4.282.735-.734 1.917-.734 4.282-.734s3.547 0 4.282.734c.734.735.734 1.917.734 4.282s0 3.548-.734 4.282c-.735.735-1.917.735-4.282.735s-3.547 0-4.282-.735c-.735-.734-.735-1.917-.735-4.282Z"/><path stroke="#18181B" stroke-width=".792" d="M40.4 265.56a.792.792 0 1 0 0-1.583.792.792 0 0 0 0 1.583Z"/><path stroke="#18181B" stroke-linejoin="round" stroke-width=".792" d="M40.14 272.421c-.327-1.175-1.09-2.227-2.177-2.992-1.172-.824-2.643-1.261-4.151-1.231a7 7 0 0 0-.537.017"/><path stroke="#18181B" stroke-linejoin="round" stroke-width=".792" d="M38.548 270.309c.899-.701 1.866-1.06 2.844-1.056a4.1 4.1 0 0 1 1.645.349"/><g stroke="#18181B" stroke-linejoin="round" stroke-width=".792" clip-path="url(#d)"><path d="M40.633 289.942c.31-.31.465-.465.637-.539a.98.98 0 0 1 .775 0c.172.074.327.229.637.539s.466.465.54.637a.98.98 0 0 1 0 .776c-.074.172-.23.327-.54.637l-2.651 2.651c-.654.654-.98.98-1.39 1.174s-.868.239-1.788.33l-.416.041.041-.417c.09-.919.136-1.379.33-1.788.193-.409.52-.736 1.173-1.389z"/><path stroke-linecap="round" d="M34.854 296.19h-1.188a.924.924 0 1 0 0 1.848h5.017a.924.924 0 0 1 0 1.848h-1.188"/></g><path stroke="#18181B" stroke-linecap="round" stroke-linejoin="round" stroke-width=".792" d="M33.744 326.345c-.735-.735-.735-1.917-.735-4.282s0-3.547.735-4.282 1.917-.735 4.282-.735 3.547 0 4.282.735.734 1.917.734 4.282 0 3.547-.734 4.282c-.735.735-1.917.735-4.282.735s-3.547 0-4.282-.735"/><path stroke="#18181B" stroke-width=".792" d="M33.01 320.479h10.032M33.01 323.645h10.032M40.138 327.08v-10.034M35.912 327.08v-10.034"/><path stroke="#18181B" stroke-linecap="round" stroke-width=".792" d="M36.968 350.168a2 2 0 0 0 .266.346 1.88 1.88 0 0 0 2.737 0l1.71-1.781a2.07 2.07 0 0 0 0-2.848 1.88 1.88 0 0 0-2.737 0l-.376.392"/><path stroke="#18181B" stroke-linecap="round" stroke-width=".792" d="m37.48 352.761-.378.392a1.883 1.883 0 0 1-2.737 0 2.073 2.073 0 0 1 0-2.849l1.71-1.78a1.88 1.88 0 0 1 2.738 0q.153.161.266.345"/><path stroke="#18181B" stroke-linecap="round" stroke-linejoin="round" stroke-width=".792" d="M42.779 351.63H41.68m-1.543 2.64v-1.098M33.275 347.404h1.098m1.543-2.641v1.098M39.55 371.964v.264c0 1.494 0 2.241.465 2.705.464.464 1.21.464 2.704.464h.264m.264.875v1.765c0 1.992 0 2.987-.618 3.606-.619.619-1.615.619-3.606.619-1.992 0-2.987 0-3.606-.619s-.619-1.614-.619-3.606v-2.4c0-1.713 0-2.57.468-3.15q.143-.176.319-.319c.58-.468 1.437-.468 3.15-.468.373 0 .56 0 .73.061a1 1 0 0 1 .104.043c.163.078.295.209.558.473l2.502 2.501c.305.305.458.458.538.652s.08.41.08.842"/><path stroke="#18181B" stroke-linecap="round" stroke-linejoin="round" stroke-width=".792" d="M38.497 380.15c-.32-.312-1.585-1.141-1.585-1.584s1.264-1.273 1.584-1.585m-1.056 1.585h3.697M44.306 406.082v-4.694c0-.553 0-.829-.172-1.001s-1.035-.172-1.589-.172c-.553 0-1.416 0-1.588.172s-.172.448-.172 1.001v4.694c0 .554 0 .83.172 1.002s1.035.172 1.588.172 1.417 0 1.589-.172.172-.448.172-1.002M40.784 408.427v-7.041c0-.553 0-.829-.172-1.001s-1.035-.172-1.588-.172-1.416 0-1.588.172-.172.448-.172 1.001v7.041c0 .553 0 .83.172 1.002s1.035.172 1.588.172 1.416 0 1.588-.172.172-.449.172-1.002M37.262 406.669v-5.281c0-.553 0-.829-.172-1.001s-1.035-.172-1.588-.172-1.417 0-1.589.172-.171.448-.171 1.001v5.281c0 .553 0 .83.171 1.002s1.036.172 1.589.172 1.416 0 1.588-.172.172-.449.172-1.002M35.856 401.798H34.8M39.556 401.798H38.5M43.247 401.798h-1.056"/><path stroke="#282828" stroke-width=".792" d="M43.309 431.898a5.28 5.28 0 1 1-10.561 0 5.28 5.28 0 0 1 10.56 0Z"/><path stroke="#282828" stroke-linecap="round" stroke-linejoin="round" stroke-width=".792" d="M39.08 430.313h-1.632a.264.264 0 0 0-.259.212l-.221 1.108c.366-.087.715-.188 1.093-.188a1.018 1.018 0 1 1 0 2.037c-.437 0-.955.009-1.077-.529"/><rect width="17.954" height="17.954" x="29.047" y="448.764" fill="#6762FE" rx="4.225"/><path fill="#fff" stroke="#fff" stroke-width=".792" d="M33.763 457.765c0-2.011 0-3.016.624-3.64.625-.625 1.63-.625 3.64-.625s3.015 0 3.64.625c.624.624.624 1.629.624 3.64 0 2.01 0 3.015-.624 3.639-.625.625-1.63.625-3.64.625s-3.015 0-3.64-.625c-.624-.624-.624-1.629-.624-3.639Z"/><path stroke="#6762FE" stroke-linecap="round" stroke-linejoin="round" stroke-width=".792" d="M38.029 455.971v3.591m1.795-1.796h-3.59"/><g filter="url(#e)"><rect width="238.965" height="28.05" x="27" y="24" fill="#fff" rx="5.844"/><rect width="238.381" height="27.466" x="27.292" y="24.292" stroke="#EEE" stroke-width=".584" rx="5.552"/><path fill="#6762FE" fill-rule="evenodd" d="M39.716 46.196c4.56-.273 7.838-4.058 7.712-8.434a8.173 8.173 0 0 0-8.53-7.906c-4.603.209-8.07 4.1-7.797 8.706.252 4.438 4.16 7.907 8.615 7.634m3.09-7.086c-.42 2.06-1.62 3.512-3.573 4.415a.3.3 0 0 1 .099.013q.023.008.047.008c3.215 0 5.78-2.944 5.36-6.183-.337-2.629-2.5-4.69-5.064-4.837-2.963-.167-5.463 1.85-5.884 4.837-.147 1.052.02 2.04.757 2.839.924 1.008 2.08 1.366 3.403.946 1.344-.42 2.1-1.41 2.27-2.797.02-.293.126-.316.357-.316h1.344q1.093 0 .883 1.073z" clip-rule="evenodd"/><path stroke="#282828" stroke-linecap="round" stroke-linejoin="round" stroke-width=".877" d="m53.885 36.277 3.093 3.093c.195.195.292.293.413.293s.218-.098.413-.292l3.093-3.094"/><path stroke="#EEE" stroke-width=".584" d="M69.366 27.506v21.038"/><rect width="118" height="26.35" x="73.749" y="24.85" fill="#fff" rx="4.675"/><path fill="#000" d="M79.18 40.525v-6.872h.825l3.662 5.517v-5.517h.825v6.872h-.825l-3.662-5.517v5.517zm8.908.118q-.687 0-1.217-.334a2.3 2.3 0 0 1-.835-.942q-.294-.608-.294-1.424 0-.815.294-1.423.304-.609.835-.943.54-.334 1.237-.334.745 0 1.246.334t.756.893.256 1.228v.196q0 .098-.01.236H86.36v-.639h3.2q-.02-.756-.441-1.148-.413-.403-1.031-.403-.412 0-.766.207-.344.196-.56.589t-.216.981v.275q0 .648.216 1.09.216.432.56.648.354.216.766.216.549 0 .864-.206.315-.216.461-.609h.815a2 2 0 0 1-.412.776q-.285.344-.727.54-.431.196-1.001.196m5.26-.118q-.442 0-.766-.137a1 1 0 0 1-.5-.462q-.167-.333-.167-.893v-2.975h-.903v-.697h.903l.108-1.286h.717v1.286h1.462v.697H92.74v2.975q0 .461.186.628.186.157.658.157h.599v.707zm3.056 0-1.522-5.164h.825l1.129 4.114 1.198-4.114h.932l1.208 4.104 1.119-4.104h.835l-1.522 5.164h-.844l-1.257-4.3-1.257 4.3zm8.703.118q-.715 0-1.266-.334a2.26 2.26 0 0 1-.854-.942q-.304-.608-.304-1.424 0-.825.304-1.423.314-.609.864-.943a2.44 2.44 0 0 1 1.276-.334q.726 0 1.267.334.55.334.854.943.304.598.304 1.423 0 .815-.314 1.424-.305.608-.854.942-.55.334-1.277.334m0-.707q.453 0 .815-.216.364-.225.57-.667.216-.452.216-1.11 0-.667-.206-1.11a1.46 1.46 0 0 0-.57-.657 1.46 1.46 0 0 0-.805-.226q-.441 0-.805.226a1.5 1.5 0 0 0-.579.658q-.216.441-.216 1.11 0 .657.206 1.108.216.442.569.668.364.216.805.216m3.64.59V35.36h.746l.059.943q.176-.353.461-.59.285-.235.687-.353.413-.117.923-.118v.864h-.51a2 2 0 0 0-.57.079q-.275.078-.5.255a1.2 1.2 0 0 0-.344.481q-.128.304-.128.766v2.837zm6.859 0-2.347-2.79 2.209-2.375h1.011l-2.523 2.67.01-.589 2.69 3.083zm-3.034 0v-7.07h.825v7.07zm9.724.117q-.687 0-1.218-.354a2.37 2.37 0 0 1-.824-.962 3.2 3.2 0 0 1-.295-1.394q0-.785.295-1.384.294-.609.824-.952a2.16 2.16 0 0 1 1.228-.354q.608 0 1.04.246.442.245.697.687v-2.72h.825v7.07h-.746l-.069-.826a2 2 0 0 1-.393.462 1.9 1.9 0 0 1-.579.353 2.2 2.2 0 0 1-.785.128m.108-.717q.49 0 .854-.235.364-.246.559-.688a2.6 2.6 0 0 0 .197-1.06q0-.609-.197-1.05a1.5 1.5 0 0 0-.559-.688 1.5 1.5 0 0 0-.854-.245q-.462 0-.825.245a1.57 1.57 0 0 0-.569.688q-.207.441-.207 1.05 0 .61.207 1.06.206.442.569.688.363.235.825.235m3.938.6V35.36h.824v5.164zm.412-6.147a.58.58 0 0 1-.412-.157.58.58 0 0 1-.158-.412q0-.246.158-.393a.58.58 0 0 1 .412-.157q.235 0 .402.157.167.148.167.393a.56.56 0 0 1-.167.412.56.56 0 0 1-.402.157m3.487 6.264q-.59 0-.982-.216a1.5 1.5 0 0 1-.589-.59 1.7 1.7 0 0 1-.196-.794q0-.51.255-.864.265-.364.737-.55.47-.186 1.099-.187h1.286q0-.5-.118-.834a.94.94 0 0 0-.382-.5q-.266-.168-.707-.168a1.26 1.26 0 0 0-.756.226q-.315.216-.393.648h-.844q.059-.51.343-.854.285-.353.717-.53.442-.187.933-.187.696 0 1.148.255.452.246.668.698.216.441.216 1.05v3.28h-.736l-.049-.885a1.8 1.8 0 0 1-.256.393 1.6 1.6 0 0 1-.353.314 1.8 1.8 0 0 1-.471.216 2 2 0 0 1-.57.079m.118-.697q.324 0 .599-.147.275-.148.471-.393.207-.255.314-.57a2 2 0 0 0 .108-.657v-.099h-1.217q-.462 0-.756.118a.82.82 0 0 0-.412.334.9.9 0 0 0-.128.471q0 .285.118.501a.8.8 0 0 0 .343.324q.236.118.56.118m5.702 2.857q-.698 0-1.227-.177-.52-.167-.815-.52-.285-.354-.285-.874 0-.246.088-.51.099-.265.324-.511.237-.246.658-.442l.629.334q-.56.215-.727.5a1.1 1.1 0 0 0-.167.55q0 .324.187.54.197.216.54.324t.795.108q.441 0 .756-.117.323-.108.491-.324a.73.73 0 0 0 .176-.491q0-.412-.265-.648-.264-.226-1.031-.265a10 10 0 0 1-1.001-.108 5 5 0 0 1-.668-.157 2.2 2.2 0 0 1-.431-.216 3 3 0 0 1-.305-.246v-.226l.972-.932.776.255-1.061.874.128-.373.206.147q.099.069.265.127.177.05.481.099.315.048.825.088.707.049 1.129.236.422.186.609.52.186.324.186.795 0 .413-.235.786-.226.372-.727.608-.491.246-1.276.246m-.01-3.888q-.629 0-1.07-.236a1.7 1.7 0 0 1-.658-.657 2 2 0 0 1-.226-.943q0-.52.226-.932.236-.413.668-.658.441-.246 1.06-.246.638 0 1.07.246.432.245.658.658.226.411.226.932 0 .52-.226.943-.226.413-.658.657-.432.236-1.07.236m0-.677q.55 0 .854-.285.305-.295.305-.874t-.305-.864q-.304-.285-.854-.285-.52 0-.854.285-.324.285-.324.864 0 .58.314.874.324.285.864.285m.864-2.18-.245-.697h2.022v.619zm2.77 4.467v-5.164h.747l.058.943q.177-.353.462-.59.285-.235.687-.353.413-.117.923-.118v.864h-.511q-.294 0-.569.079-.274.078-.501.255a1.2 1.2 0 0 0-.343.481q-.128.304-.128.766v2.837zm5.436.118q-.59 0-.982-.216a1.5 1.5 0 0 1-.589-.59 1.7 1.7 0 0 1-.196-.794q0-.51.255-.864.265-.364.736-.55a3 3 0 0 1 1.1-.187h1.286q0-.5-.118-.834a.93.93 0 0 0-.383-.5q-.264-.168-.707-.168-.441 0-.755.226-.315.216-.393.648h-.845q.06-.51.344-.854.285-.353.717-.53.441-.187.932-.187.698 0 1.149.255.452.246.668.698.216.441.216 1.05v3.28h-.737l-.049-.885q-.097.207-.255.393a1.64 1.64 0 0 1-.825.53q-.255.08-.569.079m.118-.697q.323 0 .599-.147.275-.148.471-.393.206-.255.314-.57a2 2 0 0 0 .108-.657v-.099h-1.217q-.462 0-.756.118a.82.82 0 0 0-.54.805q0 .285.118.501a.8.8 0 0 0 .343.324q.236.118.56.118m3.679.58V35.36h.746l.04.707q.235-.383.638-.599.403-.225.844-.226.373 0 .668.108.304.099.53.314.225.207.363.52.255-.461.687-.696.442-.246.923-.246.57 0 .972.226.412.216.628.668.226.441.226 1.109v3.28h-.815v-3.192q0-.696-.304-1.04-.305-.345-.825-.344a1.2 1.2 0 0 0-.648.187 1.34 1.34 0 0 0-.461.55q-.167.363-.167.883v2.955h-.825v-3.19q0-.698-.304-1.041-.305-.345-.815-.344a1.17 1.17 0 0 0-.638.187q-.285.186-.461.55-.177.363-.177.883v2.955zm11.324 0v-6.873h.963l2.336 4.84 2.317-4.84h.972v6.872h-.825v-5.39l-2.16 4.487h-.618l-2.16-4.447v5.35zm9.653.117q-.59 0-.982-.216a1.5 1.5 0 0 1-.589-.59 1.7 1.7 0 0 1-.196-.794q0-.51.255-.864.265-.364.736-.55a3 3 0 0 1 1.1-.187h1.286q0-.5-.118-.834a.93.93 0 0 0-.383-.5q-.264-.168-.706-.168a1.26 1.26 0 0 0-.756.226q-.315.216-.393.648h-.844q.058-.51.343-.854.285-.353.717-.53a2.4 2.4 0 0 1 .933-.187q.696 0 1.148.255.452.246.668.698.216.441.216 1.05v3.28h-.737l-.049-.885q-.097.207-.255.393a1.64 1.64 0 0 1-.825.53q-.255.08-.569.079m.118-.697q.323 0 .599-.147.275-.148.471-.393.206-.255.314-.57a2 2 0 0 0 .108-.657v-.099h-1.217q-.462 0-.756.118a.82.82 0 0 0-.54.805q0 .285.118.501a.8.8 0 0 0 .343.324q.236.118.56.118m6.713.58-2.347-2.79 2.209-2.375h1.012l-2.523 2.67.009-.589 2.69 3.083zm-3.034 0v-7.07h.825v7.07zm6.742.117q-.686 0-1.217-.334a2.3 2.3 0 0 1-.834-.942q-.295-.608-.295-1.424 0-.815.295-1.423.304-.609.834-.943.54-.334 1.237-.334.747 0 1.247.334t.756.893q.255.56.255 1.228v.196q0 .098-.01.236h-3.995v-.639h3.2q-.02-.756-.442-1.148-.412-.403-1.031-.403-.412 0-.765.207-.344.196-.56.589t-.216.981v.275q0 .648.216 1.09.216.432.56.648.353.216.765.216.55 0 .864-.206.315-.216.462-.609h.815a2 2 0 0 1-.413.776q-.284.344-.726.54a2.4 2.4 0 0 1-1.002.196m3.421-.118v-5.164h.746l.059.943q.177-.353.461-.59.285-.235.688-.353.412-.117.923-.118v.864h-.511q-.294 0-.569.079a1.4 1.4 0 0 0-.501.255 1.2 1.2 0 0 0-.344.481q-.127.304-.127.766v2.837z"/><rect width="21.038" height="21.038" x="191.749" y="27.506" fill="#fff" rx="4.675"/><path stroke="#18181B" stroke-linecap="round" stroke-linejoin="round" stroke-width=".877" d="M197.982 34.275h8.571M197.982 38.026h8.571M197.982 41.773h8.571"/><rect width="20.526" height="20.526" x="213.043" y="27.762" fill="#fff" stroke="#fff" stroke-width=".511" rx="4.419"/><g clip-path="url(#f)"><path fill="#282828" fill-rule="evenodd" d="M223.409 32.87a1.3 1.3 0 0 0-.204-.314 1.4 1.4 0 0 0-.209.318l-1.131 2.282a2.3 2.3 0 0 1-.688.804c-.255.19-.59.368-.962.431l-.003.001-2.055.344c-.18.03-.291.075-.352.108.031.064.096.169.229.303l1.598 1.61c.287.29.463.657.557.988.094.332.136.733.049 1.126l-.002.006-.457 1.994c-.046.2-.059.35-.058.453.096-.03.229-.087.399-.19l1.934-1.153a2.3 2.3 0 0 1 1.155-.296c.364 0 .787.079 1.157.3l1.925 1.149c.171.102.304.159.402.19 0-.104-.013-.254-.059-.453l-.459-2a2.34 2.34 0 0 1 .049-1.126c.094-.33.27-.698.557-.987l1.6-1.613c.132-.133.198-.236.229-.3a1.2 1.2 0 0 0-.354-.109l-2.055-.344a2.3 2.3 0 0 1-.969-.43 2.3 2.3 0 0 1-.69-.806zm2.046 1.837c.154.318.567.623.914.682l2.055.344c1.315.22 1.624 1.182.677 2.13l-1.598 1.611c-.27.273-.419.8-.335 1.176l.458 1.994c.36 1.578-.471 2.189-1.856 1.364l-1.926-1.15c-.348-.208-.921-.208-1.275 0l-1.926 1.15c-1.379.825-2.216.208-1.856-1.364l.458-1.994c.084-.377-.065-.903-.335-1.176l-1.598-1.61c-.94-.949-.637-1.91.677-2.13l2.055-.345c.341-.059.753-.364.908-.682l1.134-2.286c.618-1.241 1.623-1.241 2.235 0z" clip-rule="evenodd"/></g><path stroke="#EEE" stroke-width=".584" d="M237.623 27.506v21.038"/><rect width="20.526" height="20.526" x="241.093" y="27.762" fill="#fff" stroke="#fff" stroke-width=".511" rx="4.419"/><g fill="#282828" clip-path="url(#g)"><path d="M253.188 37.946a.493.493 0 0 1 0 .7l-1.977 1.978a.495.495 0 0 1-.7 0l-.989-.99a.495.495 0 1 1 .7-.699l.639.64 1.628-1.629a.494.494 0 0 1 .699 0"/><path fill-rule="evenodd" d="M248.913 35.338a3.956 3.956 0 0 1 7.369 2.356 2.966 2.966 0 0 1-1.465 5.547h-6.923a2.967 2.967 0 0 1-1.46-5.55 2.72 2.72 0 0 1 2.479-2.353m3.431-.998a2.97 2.97 0 0 0-2.682 1.697.5.5 0 0 1-.465.282h-.067a1.73 1.73 0 0 0-1.73 1.697.49.49 0 0 1-.297.444 1.98 1.98 0 0 0 .791 3.792h6.923a1.978 1.978 0 0 0 .739-3.814.494.494 0 0 1-.301-.554 2.967 2.967 0 0 0-2.911-3.544" clip-rule="evenodd"/></g></g><g filter="url(#h)"><rect width="114.54" height="28.05" x="447.516" y="24" fill="#fff" rx="5.844"/><rect width="113.956" height="27.466" x="447.808" y="24.292" stroke="#EEE" stroke-width=".584" rx="5.552"/><g clip-path="url(#i)"><path stroke="#282828" stroke-width=".935" d="M468.093 38.028a5.97 5.97 0 0 0-5.961-5.96 5.967 5.967 0 0 0-5.96 5.96v5.961h5.96a5.97 5.97 0 0 0 5.961-5.96Z"/><path fill="#282828" d="M461.328 38.028q0 .16.062.308a.8.8 0 0 0 .435.435.8.8 0 0 0 .876-.175.807.807 0 0 0-.001-1.137.803.803 0 0 0-1.372.57m-2.678 0a.8.8 0 0 0 .235.569.82.82 0 0 0 .569.235.8.8 0 0 0 .568-.236.8.8 0 0 0 .235-.568.802.802 0 0 0-1.372-.568.8.8 0 0 0-.235.568m5.357 0a.8.8 0 0 0 .235.569.82.82 0 0 0 .569.235.8.8 0 0 0 .803-.804.806.806 0 0 0-.804-.804.804.804 0 0 0-.803.804"/></g><g clip-path="url(#j)"><path stroke="#282828" stroke-linecap="round" stroke-linejoin="round" stroke-miterlimit="16" stroke-width=".877" d="m484.046 34.522-3.799 9.35 9.35-3.507m-5.551-5.843s1.972.219 3.798 2.045 1.753 3.798 1.753 3.798m-5.551-5.843s-.228 1.817 1.753 3.798 3.798 2.045 3.798 2.045m-.584-5.259.584-1.169 1.754.585.584-1.753m-1.169 4.382h1.169"/><path fill="#282828" d="M487.403 33.645a.73.73 0 1 0 0-1.461.73.73 0 0 0 0 1.46"/></g><circle cx="511.213" cy="38.024" r="8.327" fill="#FF5E3C" stroke="#fff" stroke-width=".877"/><path fill="#fff" d="M507.302 39.972V35.93h.998v4.042zm-1.481-1.563v-.916h3.96v.916zm4.939 2.357V39.62q0-.376.115-.654.123-.28.393-.491.278-.222.728-.418l1.014-.45q.377-.171.573-.417.204-.253.204-.646 0-.434-.261-.687-.254-.262-.729-.262-.474 0-.736.262-.254.261-.254.728h-1.12q0-.557.237-.998.237-.45.704-.704.465-.261 1.169-.262.704 0 1.17.254.467.254.704.68.237.416.237.932v.106q0 .671-.376 1.12-.376.443-1.105.77l-1.014.45q-.287.123-.401.262a.53.53 0 0 0-.115.36v.523l-.278-.302h3.314v.99z"/><circle cx="523.487" cy="38.026" r="8.327" fill="#F9BD64" stroke="#fff" stroke-width=".877"/><path fill="#fff" d="m520.71 40.768 2.037-5.973h1.898l2.095 5.973h-1.195l-1.775-5.18.417.18h-1.023l.426-.18-1.718 5.18zm1.424-1.587.368-.982h2.421l.36.982z"/><circle cx="535.175" cy="38.024" r="8.327" fill="#B793FF" stroke="#fff" stroke-width=".877"/><path fill="#fff" d="M535.097 40.921q-.81 0-1.391-.286a2.8 2.8 0 0 1-.949-.745 3.1 3.1 0 0 1-.531-.998 3.4 3.4 0 0 1-.172-1.039v-.18q0-.555.172-1.096.18-.54.548-.982t.932-.704q.573-.27 1.35-.27.81 0 1.407.295.606.286.966.818.36.524.433 1.227h-1.169a1.4 1.4 0 0 0-.295-.687 1.3 1.3 0 0 0-.565-.425 2 2 0 0 0-.777-.148q-.441 0-.785.156-.343.147-.573.425-.23.279-.352.655-.114.376-.114.834 0 .443.114.818.123.377.36.663.238.278.581.434.353.155.81.155.671 0 1.129-.327.466-.336.565-.933h1.17a2.7 2.7 0 0 1-.434 1.17 2.53 2.53 0 0 1-.965.851q-.614.32-1.465.319"/><path stroke="#18181B" stroke-linecap="round" stroke-linejoin="round" stroke-width=".877" d="m550.205 36.707 2.217 2.216c.194.195.292.293.413.293s.218-.098.413-.293l2.216-2.216"/></g><g filter="url(#k)"><rect width="110.932" height="28.05" x="569.068" y="24" fill="#fff" rx="5.844"/><rect width="110.347" height="27.466" x="569.361" y="24.292" stroke="#EEE" stroke-width=".584" rx="5.552"/><rect width="52.453" height="18.116" x="573.451" y="28.967" fill="#fff" rx="4.383"/><rect width="52.453" height="18.116" x="573.451" y="28.967" stroke="#6762FE" stroke-width=".584" rx="4.383"/><path stroke="#6762FE" stroke-width=".877" d="M583.098 42.405a4.383 4.383 0 1 0 0-8.765 4.383 4.383 0 0 0 0 8.765Z"/><path stroke="#6762FE" stroke-linejoin="round" stroke-width=".877" d="M581.781 39.078v-2.11c0-.375.471-.603.836-.408l1.971 1.056c.348.187.348.627 0 .813l-1.971 1.056c-.365.196-.836-.033-.836-.407Z"/><path fill="#6762FE" d="M591.188 38.447v-.703h1.333q.426 0 .704-.164.278-.171.417-.458.147-.287.147-.638 0-.36-.147-.647a1.04 1.04 0 0 0-.417-.45q-.279-.163-.704-.163h-1.333v-.704h1.186q.736 0 1.227.237.5.23.753.655.254.426.254 1.006v.131q0 .573-.254 1.007-.254.425-.753.662-.49.23-1.227.23zm-.638 2.078V34.52h.801v6.005zm5.134 0v-4.369h.622v1.8h-.033q0-.957.418-1.399.425-.45 1.268-.45h.147v.704h-.278q-.655 0-1.007.352-.351.344-.351.998v2.364zm5.165.148q-.573 0-.99-.197a1.9 1.9 0 0 1-.679-.515 2.3 2.3 0 0 1-.393-.728 2.8 2.8 0 0 1-.122-.819v-.147q0-.425.122-.826.132-.4.393-.72.262-.327.663-.515.409-.197.957-.197.712 0 1.17.311.466.303.687.785.23.483.229 1.031v.352h-3.878V37.9h3.306l-.18.32q0-.468-.148-.803a1.15 1.15 0 0 0-.442-.531q-.294-.189-.744-.189-.467 0-.777.213a1.3 1.3 0 0 0-.458.581q-.148.369-.148.85 0 .468.148.843.154.369.474.59.32.212.81.212.516 0 .835-.229.327-.23.392-.532h.737q-.09.45-.36.778-.27.327-.679.499a2.4 2.4 0 0 1-.925.172m4.584-.017q-.86 0-1.333-.368-.467-.367-.483-1.006h.736q.017.254.254.482.245.221.826.221.523 0 .802-.204.278-.213.278-.516a.48.48 0 0 0-.204-.417q-.205-.155-.663-.204l-.475-.05q-.621-.065-1.014-.368-.393-.31-.393-.867 0-.417.213-.712.213-.302.589-.458.376-.163.867-.163.736 0 1.195.327.457.327.474.973h-.736a.56.56 0 0 0-.246-.441q-.228-.189-.687-.189-.458 0-.695.189a.58.58 0 0 0-.238.474q0 .246.164.393.172.146.556.188l.475.05q.703.073 1.129.392.426.311.425.883 0 .41-.237.728-.229.312-.638.491a2.4 2.4 0 0 1-.941.172m4.812.017q-.573 0-.99-.197a1.9 1.9 0 0 1-.679-.515 2.3 2.3 0 0 1-.393-.728 2.8 2.8 0 0 1-.123-.819v-.147q0-.425.123-.826.13-.4.393-.72a1.8 1.8 0 0 1 .663-.515q.408-.197.957-.197.711 0 1.17.311.466.303.687.785.23.483.229 1.031v.352h-3.878V37.9h3.305l-.18.32q0-.468-.147-.803a1.15 1.15 0 0 0-.442-.531q-.294-.189-.744-.189-.466 0-.778.213a1.33 1.33 0 0 0-.458.581q-.147.369-.147.85 0 .468.147.843.156.369.475.59.32.212.81.212.515 0 .834-.229.327-.23.393-.532h.736q-.09.45-.36.778-.27.327-.679.499a2.4 2.4 0 0 1-.924.172m3.152-.148v-4.369h.622v1.874h-.098q0-.646.172-1.088.18-.45.539-.68.36-.236.909-.236h.032q.827 0 1.219.515.402.516.401 1.489v2.495h-.785v-2.659q0-.507-.287-.81-.285-.31-.785-.31-.516 0-.834.319-.32.319-.319.85v2.61zm6.935.05a2.4 2.4 0 0 1-.851-.14 1.1 1.1 0 0 1-.548-.474q-.188-.345-.188-.925v-4.205h.752v4.303q0 .352.189.549.196.188.548.188h.769v.703zm-2.34-3.83v-.589h3.011v.59z"/><rect width="44.453" height="18.116" x="631.164" y="28.967" fill="#6762FE" rx="4.383"/><rect width="44.453" height="18.116" x="631.164" y="28.967" stroke="#6762FE" stroke-width=".584" rx="4.383"/><path fill="#fff" d="M640.368 41.53v.438zm4.383-1.096a.438.438 0 0 0 0-.876zm-2.367-.876a.438.438 0 0 0 0 .876zm.746 1.621a.438.438 0 1 0 .876 0zm.876-2.366a.438.438 0 1 0-.876 0zm-2.368 3.07a.438.438 0 1 0-.125-.868zm-.439-2.719a.438.438 0 1 0 .092-.872zm-.831 1.928c-1.029 0-1.838-.166-2.373-.41-.559-.255-.695-.526-.695-.686h-.876c0 .687.548 1.183 1.208 1.484.683.311 1.627.488 2.736.488zm-3.068-1.096c0 .041-.021-.01.142-.138.148-.116.381-.24.69-.355a6.8 6.8 0 0 1 2.236-.383v-.877c-.897 0-1.825.173-2.541.438-.356.132-.681.295-.926.488-.23.18-.477.457-.477.827zm3.945-4.14c0 .44-.392.853-.877.853v.877c.968 0 1.753-.805 1.753-1.73zm-.877.853c-.485 0-.876-.414-.876-.853h-.877c0 .925.786 1.73 1.753 1.73zm-.876-.853c0-.459.412-.9.876-.9v-.877c-.987 0-1.753.874-1.753 1.777zm.876-.9c.465 0 .877.441.877.9h.876c0-.903-.765-1.777-1.753-1.777zm4.383 4.602h-1.183v.876h1.183zm-1.183 0h-1.184v.876h1.184zm.438 1.621v-1.183h-.876v1.183zm0-1.183v-1.183h-.876v1.183zm-2.493 1.019q-.517.076-1.145.077v.876q.684-.001 1.27-.085zm-1.145-1.895c.267 0 .549.015.831.044l.092-.872a9 9 0 0 0-.923-.049zM650.092 40.672q-.744 0-1.268-.245a1.87 1.87 0 0 1-.802-.68 1.8 1.8 0 0 1-.278-.98h.802q0 .27.139.54.147.27.482.45.345.179.925.179.54 0 .884-.155.344-.165.507-.418.163-.261.163-.564a.72.72 0 0 0-.319-.606q-.318-.245-.932-.302l-.663-.058q-.794-.065-1.268-.49-.475-.426-.475-1.121 0-.549.262-.958.27-.408.745-.638a2.44 2.44 0 0 1 1.104-.237q.622 0 1.096.23.475.228.737.645.27.41.27.982h-.802q0-.285-.139-.54a1 1 0 0 0-.417-.417q-.286-.164-.745-.164-.441 0-.736.156-.287.156-.434.409-.14.245-.139.532a.8.8 0 0 0 .254.58q.254.255.752.295l.663.057q.614.05 1.055.262.45.205.688.556.245.345.245.827 0 .548-.294.973a1.94 1.94 0 0 1-.827.663q-.531.237-1.235.237m3.587-.147v-5.972h.785v3.567h-.196q0-.647.164-1.113.172-.474.523-.728.353-.255.9-.254h.033q.786 0 1.186.524.401.516.401 1.48v2.496h-.785v-2.659q0-.532-.303-.826-.294-.295-.769-.295-.524 0-.843.352-.31.344-.311.908v2.52zm7.876 0v-1.309h-.131v-1.514q0-.45-.237-.678-.23-.23-.679-.23-.255 0-.524.009l-.515.016a8 8 0 0 0-.426.024v-.687q.18-.016.376-.024.205-.017.418-.017.213-.008.409-.008.67 0 1.096.164.426.155.63.515t.205.974v2.765zm-1.432.115q-.49 0-.851-.164a1.3 1.3 0 0 1-.548-.49 1.5 1.5 0 0 1-.188-.77q0-.466.204-.777.213-.31.614-.467.4-.163.965-.163h1.187v.589h-1.219q-.475 0-.728.229a.76.76 0 0 0-.254.59q0 .36.254.58.253.22.728.22.277 0 .531-.097a.94.94 0 0 0 .418-.344q.171-.246.188-.67l.213.31q-.042.467-.229.785-.18.312-.508.475-.319.165-.777.164m3.495-.115v-4.369h.622v1.8h-.033q0-.957.417-1.399.426-.45 1.268-.45h.148v.704h-.278q-.655 0-1.007.352-.351.343-.352.998v2.364zm5.165.147q-.573 0-.99-.196a1.9 1.9 0 0 1-.679-.515 2.3 2.3 0 0 1-.393-.728 2.8 2.8 0 0 1-.123-.819v-.147q0-.426.123-.826.13-.402.393-.72a1.8 1.8 0 0 1 .663-.516q.408-.196.957-.196.711 0 1.17.31.466.304.687.786.23.483.229 1.031v.352h-3.878v-.59h3.305l-.18.32q0-.466-.147-.802a1.15 1.15 0 0 0-.442-.532q-.294-.188-.744-.188-.467 0-.777.213a1.3 1.3 0 0 0-.459.58q-.147.369-.147.852 0 .465.147.842.156.369.475.59.32.212.81.212.516 0 .834-.229.328-.23.393-.532h.736q-.09.45-.36.778-.27.327-.679.499-.408.171-.924.171"/></g><g filter="url(#l)"><rect width="58.39" height="28.05" x="408.737" y="464.534" fill="#fff" rx="6.869"/><rect width="57.818" height="27.478" x="409.024" y="464.82" stroke="#EEE" stroke-width=".572" rx="6.583"/><rect width="20.608" height="20.608" x="412.745" y="468.255" fill="#fff" rx="2.862"/><path fill="#fff" d="M416.181 471.692h13.739v13.739h-13.739z"/><path fill="#282828" fill-rule="evenodd" d="M422.849 481.423c0 .253.205.458.458.458h2.289a2.75 2.75 0 0 0 2.748-2.748v-.088a2.747 2.747 0 0 0-2.748-2.747h-5.774l1.403-1.423a.457.457 0 1 0-.652-.643l-2.172 2.202a.46.46 0 0 0 0 .643l2.172 2.202a.458.458 0 0 0 .652-.643l-1.403-1.422h5.774c1.012 0 1.832.82 1.832 1.831v.088c0 1.012-.82 1.832-1.832 1.832h-2.289a.46.46 0 0 0-.458.458" clip-rule="evenodd"/><path stroke="#EEE" stroke-width=".572" d="M438.219 467.11v22.898"/><path fill="#848382" fill-opacity=".5" fill-rule="evenodd" d="M453.529 481.423a.46.46 0 0 1-.458.458h-2.29a2.747 2.747 0 0 1-2.748-2.747v-.088a2.75 2.75 0 0 1 2.748-2.748h5.774l-1.403-1.422a.458.458 0 1 1 .652-.644l2.172 2.202a.46.46 0 0 1 0 .643l-2.172 2.202a.458.458 0 1 1-.652-.643l1.403-1.422h-5.774c-1.012 0-1.832.82-1.832 1.832v.088c0 1.011.82 1.831 1.832 1.831h2.29c.252 0 .458.205.458.458" clip-rule="evenodd"/></g><g filter="url(#m)"><rect width="207.801" height="28.05" x="473.997" y="464.534" fill="#fff" rx="6.869"/><rect width="207.228" height="27.478" x="474.283" y="464.82" stroke="#EEE" stroke-width=".572" rx="6.583"/><path stroke="#282828" stroke-linecap="round" stroke-linejoin="round" stroke-width=".823" d="M494.024 478.612v-1.633c0-1.113 0-1.669-.336-2.015-.335-.346-.875-.346-1.954-.346h-1.19c-.525 0-.53-.001-1.002-.237l-1.907-.957c-.796-.399-1.195-.599-1.619-.585s-.809.239-1.579.69l-.703.411c-.566.331-.849.496-1.004.772-.156.275-.156.61-.156 1.281v4.714c0 .882 0 1.322.196 1.567a.86.86 0 0 0 .515.31c.304.054.676-.163 1.419-.598.505-.296.99-.602 1.594-.519.506.07.976.39 1.429.616"/><path stroke="#282828" stroke-linejoin="round" stroke-width=".823" d="M486.012 472.838v8.606"/><path stroke="#282828" stroke-linecap="round" stroke-linejoin="round" stroke-width=".823" d="M490.017 474.558v3.443"/><path stroke="#282828" stroke-linejoin="round" stroke-width=".823" d="M491.451 479.426c1.108 0 2.006.88 2.006 1.964 0 1.227-1.212 1.83-1.791 2.749-.123.196-.297.196-.43 0-.596-.884-1.79-1.548-1.79-2.749 0-1.084.898-1.964 2.005-1.964Z"/><path stroke="#282828" stroke-linecap="round" stroke-linejoin="round" stroke-width="1.097" d="M491.45 481.425h.005"/><path stroke="#EEE" stroke-width=".572" d="M503.478 467.683v21.753"/><path stroke="#282828" stroke-linecap="round" stroke-linejoin="round" stroke-width=".859" d="m522.316 477.076.001 2.524c.001 1.176.001 1.764-.181 2.235a2.8 2.8 0 0 1-1.581 1.582c-.476.188-1.073.198-2.268.218-.627.01-.94.015-1.231-.043a2.7 2.7 0 0 1-1.204-.572c-.227-.188-.415-.431-.791-.918l-1.657-2.146a.905.905 0 0 1 .017-1.122.94.94 0 0 1 1.384-.098l.895.865-.002-4.309c0-.448.37-.817.827-.825a.805.805 0 0 1 .828.798m0 0-.001-1.082c0-.448.37-.818.827-.825a.803.803 0 0 1 .828.797v1.082m-1.654.028.001 2.434m1.653-2.462c0-.448.37-.817.827-.825a.804.804 0 0 1 .828.798v1.082m-1.655-1.055.001 2.435m1.654-1.38c0-.448.37-.818.827-.826a.805.805 0 0 1 .828.798v1.353m-1.655-1.325.001 1.352"/><path stroke="#282828" stroke-linecap="round" stroke-width=".859" d="M541.438 473.066h-2.443a1.22 1.22 0 0 0-1.221 1.221v2.442m3.664 7.328h-2.443a1.22 1.22 0 0 1-1.221-1.221v-2.443m7.327-7.327h2.443a1.22 1.22 0 0 1 1.221 1.221v2.442m0 3.664v2.443c0 .674-.547 1.221-1.221 1.221h-2.443m.229-5.496a2.06 2.06 0 1 1-4.12.002 2.06 2.06 0 0 1 4.12-.002Z"/><path stroke="#EEE" stroke-width=".572" d="M558.434 467.683v21.753"/><g stroke="#282828" stroke-linejoin="round" stroke-width=".859" clip-path="url(#n)"><path stroke-linecap="round" d="m576.176 481.708 2.576 2.576"/><path d="M577.606 477.99a5.152 5.152 0 1 0-10.305.001 5.152 5.152 0 0 0 10.305-.001Z"/><path stroke-linecap="round" d="M570.454 477.987h4.007"/></g><rect width="34.347" height="20.036" x="-.286" y=".286" fill="#F7F7F7" stroke="#EEE" stroke-width=".572" rx="4.293" transform="matrix(-1 0 0 1 622.263 468.255)"/><path fill="#282828" d="M596.99 482.267v-5.466l.353.273h-1.651v-.658h2.068v5.851zm4.712.144q-.657 0-1.122-.224a2.1 2.1 0 0 1-.745-.625 2.7 2.7 0 0 1-.409-.906 4.6 4.6 0 0 1-.128-1.098v-.433q0-.808.248-1.458a2.23 2.23 0 0 1 .786-1.026q.537-.385 1.37-.385t1.363.385q.528.377.777 1.026.256.65.256 1.458v.433q0 .577-.128 1.098a2.6 2.6 0 0 1-.416.906q-.28.393-.738.625-.457.224-1.114.224m0-.705q.834 0 1.218-.561.393-.569.393-1.795 0-1.282-.401-1.836-.392-.553-1.21-.553-.825 0-1.226.553-.393.554-.393 1.82 0 1.234.393 1.803t1.226.569m5.956.705q-.657 0-1.122-.224a2.1 2.1 0 0 1-.745-.625 2.7 2.7 0 0 1-.409-.906 4.6 4.6 0 0 1-.128-1.098v-.433q0-.808.248-1.458a2.23 2.23 0 0 1 .786-1.026q.537-.385 1.37-.385t1.363.385q.528.377.777 1.026.256.65.256 1.458v.433q0 .577-.128 1.098a2.5 2.5 0 0 1-.417.906 2 2 0 0 1-.737.625q-.457.224-1.114.224m0-.705q.834 0 1.218-.561.393-.569.393-1.795 0-1.282-.401-1.836-.392-.553-1.21-.553-.825 0-1.226.553-.393.554-.393 1.82 0 1.234.393 1.803t1.226.569m4.986.561 2.212-5.851h.609l-2.211 5.851zm-.432-2.709q-.457 0-.746-.208a1.24 1.24 0 0 1-.416-.553 2.1 2.1 0 0 1-.129-.746v-.208q0-.433.137-.769.135-.345.424-.537.29-.201.73-.201.448 0 .729.201.288.192.425.537.136.336.136.769v.208q0 .401-.136.746a1.2 1.2 0 0 1-.409.553q-.28.208-.745.208m0-.529q.368 0 .545-.264.184-.273.184-.81 0-.569-.184-.825-.185-.265-.545-.265t-.545.265q-.185.256-.185.817 0 .537.177.81.184.272.553.272m3.654 3.318q-.457 0-.745-.208a1.25 1.25 0 0 1-.417-.553 2.1 2.1 0 0 1-.128-.746v-.208q0-.433.136-.769.137-.345.425-.537.288-.201.729-.201.448 0 .729.201.289.192.425.537.136.336.136.769v.208q0 .401-.136.746a1.2 1.2 0 0 1-.408.553q-.28.208-.746.208m0-.529q.37 0 .545-.264.184-.273.184-.81 0-.569-.184-.825-.184-.265-.545-.265-.36 0-.545.265-.184.256-.184.817 0 .537.176.81.184.272.553.272"/><path stroke="#282828" stroke-linecap="round" stroke-linejoin="round" stroke-width=".859" d="m640.87 481.708 2.576 2.576"/><path stroke="#282828" stroke-linejoin="round" stroke-width=".859" d="M642.298 477.99a5.152 5.152 0 1 0-10.304 0 5.152 5.152 0 0 0 10.304 0Z"/><path stroke="#282828" stroke-linecap="round" stroke-linejoin="round" stroke-width=".859" d="M635.148 477.991h4.007m-2.004-2.003v4.007"/><path stroke="#EEE" stroke-width=".572" d="M652.889 467.683v21.753"/><rect width="20.036" height="20.036" x="657.468" y="468.541" fill="url(#o)" stroke="#fff" stroke-width=".572" rx="4.293"/><circle cx="667.613" cy="478.279" r="5.725" stroke="#282828" stroke-width=".859"/><path stroke="#282828" stroke-linecap="round" stroke-width=".859" d="M666.472 476.562a1.145 1.145 0 1 1 2.109.618c-.342.532-.964 1.039-.964 1.671v.287"/><path stroke="#282828" stroke-linecap="round" stroke-linejoin="round" stroke-width="1.145" d="M667.614 481.143h.005"/></g><rect width="96.259" height="80.548" x="145.275" y="359.469" fill="#E2F1FF" stroke="#036897" stroke-dasharray="2 2" rx="11.595"/><path fill="#036897" stroke="#fff" stroke-linejoin="round" stroke-miterlimit="10" stroke-width="1.162" d="M174.566 410.886v-7.571h40.41v7.571z"/><path fill="#036897" stroke="#fff" stroke-linejoin="round" stroke-miterlimit="10" stroke-width="1.162" d="M222.283 396.68v7.589l-7.307 6.614v-7.571h-40.41z"/><path fill="#036897" d="M214.976 403.312v-29.837h-40.41v29.837zm0 0 7.307-6.631v-29.837h-40.906l-6.811 6.631h40.41zm0-29.837 7.307-6.631z"/><path stroke="#fff" stroke-linejoin="round" stroke-miterlimit="10" stroke-width="1.162" d="M214.976 403.312v-29.837m0 29.837h-40.41v-29.837m40.41 29.837 7.307-6.631v-29.837m-7.307 6.631h-40.41m40.41 0 7.307-6.631m-47.717 6.631 6.811-6.631h40.906"/><path fill="#036897" d="M213.039 416.101v-4.26h-46.753l5.361-5.217H218.4v4.26zm0-4.26v4.26h-46.753v-4.26zm0 0 5.361-5.217z"/><path stroke="#fff" stroke-linejoin="round" stroke-miterlimit="10" stroke-width="1.162" d="M213.039 416.101v-4.26m0 4.26 5.361-5.217v-4.26m-5.361 9.477h-46.753v-4.26m46.753 0h-46.753m46.753 0 5.361-5.217m-52.114 5.217 5.361-5.217H218.4"/><path stroke="#fff" stroke-miterlimit="10" stroke-width="1.162" d="M211.572 400.002v-23.215h-33.598v23.215z"/><rect width="40.502" height="11.528" x="170" y="423" fill="#DBDADA" rx="1.935"/><path fill="#000" d="m182.131 430.032.008-1.177h1.086q.315 0 .54-.124a.9.9 0 0 0 .359-.348 1.1 1.1 0 0 0 .128-.531 1.1 1.1 0 0 0-.121-.539.8.8 0 0 0-.353-.348 1.1 1.1 0 0 0-.538-.124h-1.086l.008-1.177h1.02q.77 0 1.316.257.554.256.84.729.295.473.29 1.136l-.001.132a2.1 2.1 0 0 1-.306 1.128 1.9 1.9 0 0 1-.851.729q-.549.257-1.32.257zm-1.206 1.732.044-6.1h1.359l-.044 6.1zm8.304.158q-.82 0-1.407-.282a2.8 2.8 0 0 1-.956-.754 3.3 3.3 0 0 1-.548-1.012 3.5 3.5 0 0 1-.167-1.06l.002-.183a3.5 3.5 0 0 1 .19-1.11q.187-.556.562-1.003.385-.448.959-.713.582-.274 1.369-.274.82 0 1.449.307.627.307.996.854.378.539.439 1.268h-1.368a1.3 1.3 0 0 0-.261-.622 1.35 1.35 0 0 0-.535-.398 1.8 1.8 0 0 0-.729-.14q-.406 0-.722.14a1.5 1.5 0 0 0-.533.398q-.21.258-.328.614a2.7 2.7 0 0 0-.113.779q-.003.422.102.779.114.348.327.613.222.257.544.398.323.133.737.133.63 0 1.063-.307a1.26 1.26 0 0 0 .537-.846h1.359a2.7 2.7 0 0 1-.456 1.219 2.67 2.67 0 0 1-1.01.878q-.632.324-1.502.324m3.6-1.915.008-1.177h3.49l-.009 1.177zm5.298 1.757.037-5.155.363.282h-1.55l.009-1.177h2.536l-.044 6.05z"/><path fill="#036897" d="M231.663 292.783v-63.385h-35.469v63.385zm-35.469-63.385 6.647-5.676h34.358l-5.536 5.676zm35.469 63.385 5.536-6.787v-62.274l-5.536 5.676z"/><path stroke="#fff" stroke-linejoin="round" stroke-miterlimit="10" stroke-width="1.279" d="M231.663 292.783v-63.385m0 63.385h-35.469v-63.385m35.469 63.385 5.536-6.787v-62.274m-5.536 5.676h-35.469m35.469 0 5.536-5.676m-41.005 5.676 6.647-5.676h34.358M196.194 254.294h35.469M196.194 288.824h35.469"/><path fill="#fff" d="M211.161 274.666v5.093h-2.234l4.446 5.093 3.874-5.093h-1.662v-5.093zm0-4.522v-5.093h-2.234l4.446-5.093 3.874 5.093h-1.662v5.093zm-10.543.562h4.985v-2.256l5.558 4.522-5.558 3.971v-2.277h-4.985zm24.937 0h-4.985v-2.256l-4.985 4.522 4.985 3.971v-2.277h4.985z"/><path stroke="#fff" stroke-width="1.279" d="M215.585 233.908h-16.629v6.788h16.629z"/><path stroke="#fff" stroke-miterlimit="10" stroke-width="1.279" d="M200.618 237.308h13.305"/><path fill="#036897" d="M382.339 142.391c0 6.823-14.008 12.373-31.422 12.373-17.399 0-31.407-5.55-31.407-12.373v17.931c0 6.822 14.008 12.372 31.407 12.372 17.414 0 31.422-5.55 31.422-12.372zm-31.422 12.373c17.414 0 31.422-5.55 31.422-12.373 0-6.838-14.008-12.388-31.422-12.388-17.399 0-31.407 5.55-31.407 12.388 0 6.823 14.008 12.373 31.407 12.373"/><path stroke="#fff" stroke-linejoin="round" stroke-miterlimit="10" stroke-width="1.309" d="M382.339 142.391c0 6.823-14.008 12.373-31.422 12.373-17.399 0-31.407-5.55-31.407-12.373m62.829 0v17.931c0 6.822-14.008 12.372-31.422 12.372-17.399 0-31.407-5.55-31.407-12.372v-17.931m62.829 0c0-6.838-14.008-12.388-31.422-12.388-17.399 0-31.407 5.55-31.407 12.388"/><path fill="#fff" d="m343.707 137.685 2.545 3.842-9.763 2.143 2.127-1.716-14.861-2.561 3.818-2.989 14.426 2.562zm14.015 9.392-2.126-3.842 8.908-2.127-1.272 1.7 14.434 2.561-3.391 2.562-14.861-2.562zm-5.099-11.527 9.755-2.561.435 3.842-2.546-.427-4.671 4.269-4.68-.845 4.68-3.843zm-4.253 15.369-9.335 1.716-.419-4.704 2.964.862 5.099-4.704 4.672.861-5.526 5.123z"/><rect width="78.181" height="69.499" x="456.712" y="223.956" fill="#E2F1FF" stroke="#036897" stroke-dasharray="2 2" rx="10.729"/><path fill="#036897" d="M474.483 279.612v-38.01h38.064v38.01zm43.032-4.66v-38.373l-4.968 5.023v38.01zm-36.275-38.373-6.757 5.023h38.064l4.968-5.023z"/><path stroke="#fff" stroke-linejoin="round" stroke-miterlimit="10" stroke-width=".797" d="M474.483 241.602v38.01h38.064m-38.064-38.01h38.064m-38.064 0 6.757-5.023h36.275m-4.968 5.023v38.01m0-38.01 4.968-5.023m-4.968 43.033 4.968-4.66v-38.373"/><path fill="#fff" d="M494.406 254.869v-8.244h1.418l-2.138-2.871-1.782 2.871h1.07v8.244zm-4.27 1.439-5.695-6.099 1.062-.719-3.55-.713.713 3.584.706-1.076 6.051 5.735zm-2.131 3.94h-8.19v-1.432l-2.844 1.795 2.844 2.152v-1.439h8.19zm1.418 3.947-6.051 6.098-.706-1.075-.713 3.583 3.55-.719-1.062-1.076 5.695-5.735zm3.551 2.151v8.251h-1.07l1.782 3.227 2.138-3.227h-1.418v-8.251zm4.269-1.075 6.052 5.735-1.069 1.076 3.55.719-.699-3.583-1.07 1.075-5.695-6.098zm2.132-3.947h8.183v1.439l3.2-2.152-3.2-1.795v1.432h-8.183zm-1.063-4.304 5.695-5.735 1.07 1.076.699-3.584-3.55.713 1.069.719-6.052 6.099z"/><path fill="#fff" stroke="#036C9B" stroke-miterlimit="10" stroke-width=".422" d="M498.675 267.778c3.9-2.864 4.969-8.243 2.132-12.19-2.495-3.947-7.833-4.66-11.74-2.152-3.913 2.872-4.982 8.251-2.131 12.191 2.837 3.947 8.169 5.023 11.739 2.151Z"/><path fill="#000" d="M351.425 175.694a.5.5 0 0 0-1 0zm-.5 22.306h-.5l.5.5zm144.878 0h.5l-.5-.5zm-2.22 18.456c-.276 0-.472.339-.333.578l2.22 3.845c.138.239.528.239.666 0l2.22-3.845c.138-.239-.057-.578-.333-.578zm-143.158-40.762V198h1v-22.306zm.5 22.806h144.878v-1H350.925zm144.378-.5v18.956h1V198z"/><path fill="#000" d="M351.424 175.694a.5.5 0 1 0-1 0zm-.5 22.306v.5l.5-.5zm-134.228 0v-.5l-.5.5zm-2.22 17.722c-.276 0-.471.338-.333.577l2.22 3.846c.138.239.528.239.666 0l2.22-3.846c.139-.239-.057-.577-.333-.577zm135.948-40.028V198h1v-22.306zm.5 21.806H216.696v1h134.228zm-134.728.5v18.222h1V198z"/><rect width="80.537" height="71.59" x="267.5" y="222.5" fill="#E2F1FF" stroke="#036897" stroke-dasharray="2 2" rx="11.041"/><path fill="#036897" d="M287.084 279.8v-39.092h39.397V279.8zm44.54-4.793v-39.465l-5.143 5.166V279.8zm-37.545-39.465-6.995 5.166h39.397l5.143-5.166z"/><path stroke="#fff" stroke-linejoin="round" stroke-miterlimit="10" stroke-width=".821" d="M287.084 240.708V279.8h39.397m-39.397-39.092h39.397m-39.397 0 6.995-5.166h37.545m-5.143 5.166V279.8m0-39.092 5.143-5.166m-5.143 44.258 5.143-4.793v-39.465"/><path fill="#fff" d="M307.703 254.352v-8.478h1.469l-2.214-2.953-1.844 2.953h1.107v8.478zm-4.419 1.48-5.895-6.272 1.1-.74-3.675-.733.738 3.686.731-1.106 6.263 5.898zm-2.206 4.053h-8.477v-1.473l-2.944 1.846 2.944 2.213v-1.48h8.477zm1.468 4.059-6.263 6.272-.731-1.107-.738 3.686 3.675-.74-1.1-1.106 5.895-5.899zm3.675 2.213v8.485h-1.107l1.844 3.319 2.214-3.319h-1.469v-8.485zm4.419-1.107 6.263 5.899-1.106 1.106 3.674.74-.723-3.686-1.107 1.107-5.894-6.272zm2.206-4.059h8.47v1.48l3.312-2.213-3.312-1.846v1.473h-8.47zm-1.099-4.426 5.894-5.898 1.107 1.106.723-3.686-3.674.733 1.106.74-6.263 6.272z"/><path fill="#fff" stroke="#036C9B" stroke-miterlimit="10" stroke-width=".435" d="M312.125 267.63c4.037-2.946 5.143-8.478 2.206-12.538-2.582-4.059-8.107-4.792-12.151-2.212-4.05 2.952-5.157 8.485-2.206 12.537 2.937 4.059 8.456 5.166 12.151 2.213Z"/><rect width="46.522" height="13.78" x="397" y="148" fill="#DBDADA" rx="2.223"/><path fill="#000" d="m404.245 158.39.051-7.009h1.561l-.05 7.009zm4.219 0-2.017-2.99h1.714l2.112 2.99zm-3.06-2.228.009-1.229h1.714q.342 0 .591-.133a.97.97 0 0 0 .393-.39q.145-.258.148-.591a1.14 1.14 0 0 0-.139-.581.9.9 0 0 0-.388-.39 1.16 1.16 0 0 0-.589-.143h-1.714l.009-1.324h1.591q.866 0 1.502.267.636.258.976.771.339.515.333 1.295l-.001.153q-.006.772-.362 1.285-.346.505-.986.762-.63.248-1.497.248zm8.16 2.409q-.686 0-1.218-.21a2.7 2.7 0 0 1-.9-.59 2.5 2.5 0 0 1-.546-.848 2.7 2.7 0 0 1-.183-1.018l.001-.219a2.8 2.8 0 0 1 .198-1.029q.204-.495.578-.866a2.7 2.7 0 0 1 .918-.581 3.1 3.1 0 0 1 1.192-.219q.676 0 1.198.219.532.209.901.581.368.37.565.866.196.486.192 1.029l-.001.219a2.8 2.8 0 0 1-.198 1.018 2.638 2.638 0 0 1-1.468 1.438q-.534.21-1.229.21m.009-1.286q.447 0 .744-.19t.451-.533q.165-.344.168-.762a1.75 1.75 0 0 0-.157-.781 1.3 1.3 0 0 0-.462-.543 1.26 1.26 0 0 0-.722-.2 1.3 1.3 0 0 0-.726.2 1.3 1.3 0 0 0-.47.543 1.9 1.9 0 0 0-.158.781 1.85 1.85 0 0 0 .147.762q.15.342.453.533.303.19.732.19m5.692 1.267q-.906 0-1.387-.581-.481-.59-.472-1.771l.021-3.028h1.524l-.022 3.104q-.004.418.233.667.236.247.636.247a.91.91 0 0 0 .669-.257q.259-.257.262-.695l.022-3.066h1.523l-.037 5.218h-1.21l.016-2.2h.105q-.006.79-.219 1.324-.204.523-.606.781-.4.257-.992.257zm6.747-.095q-.79 0-1.274-.191a1.33 1.33 0 0 1-.71-.657q-.216-.466-.21-1.257l.033-4.59h1.419l-.033 4.647q-.003.371.186.572.198.19.56.19h.772l-.01 1.286zm-2.969-4.171.008-1.114h3.733l-.008 1.114zm7.098 4.285q-.667 0-1.179-.229a2.5 2.5 0 0 1-.843-.609 2.9 2.9 0 0 1-.508-.867 3 3 0 0 1-.165-.99l.002-.19q.004-.525.178-1 .185-.486.521-.867t.832-.6q.507-.228 1.145-.228.838 0 1.406.381.579.37.879.98.3.6.295 1.315l-.003.514h-4.619l.006-.867h3.695l-.498.4a2.1 2.1 0 0 0-.128-.8 1.02 1.02 0 0 0-.396-.504q-.255-.181-.646-.181-.4 0-.677.181-.278.18-.423.533-.146.343-.149.847-.004.467.127.819.131.344.415.533.285.19.742.191.419 0 .686-.162a.84.84 0 0 0 .365-.4h1.4q-.118.523-.454.933a2.3 2.3 0 0 1-.843.638 2.8 2.8 0 0 1-1.163.229m3.553-.181.038-5.218h1.209l-.016 2.237h-.029q.008-1.104.479-1.704.481-.6 1.376-.6h.2l-.01 1.314h-.38q-.629 0-.974.343-.345.333-.35.971l-.019 2.657z"/><rect width="49.597" height="15.09" x="400.634" y="256.187" fill="#DBDADA" rx="2.223"/><path fill="#000" d="M411.378 267.412q-.942 0-1.588-.295-.645-.304-.975-.819a2.17 2.17 0 0 1-.324-1.2h1.514a.9.9 0 0 0 .139.495q.15.23.454.372.304.133.79.133.438 0 .734-.114t.45-.314a.8.8 0 0 0 .155-.476.59.59 0 0 0-.281-.524q-.285-.2-.922-.257l-.524-.048q-1.037-.086-1.652-.647-.615-.562-.608-1.486.004-.666.322-1.152.328-.486.901-.743.573-.266 1.354-.266.819 0 1.398.285.588.276.899.791.31.504.305 1.19h-1.523a.9.9 0 0 0-.121-.467.9.9 0 0 0-.369-.352 1.2 1.2 0 0 0-.599-.133 1.34 1.34 0 0 0-.581.114.8.8 0 0 0-.345.314.8.8 0 0 0-.118.419.72.72 0 0 0 .206.514q.209.22.684.257l.533.048q.76.067 1.34.333.579.258.9.714.33.448.325 1.096a2 2 0 0 1-.361 1.171q-.346.495-.986.771t-1.526.276m5.763-.181.988-5.047h1.667l1.068 5.047h-1.181l-1.097-5.008h.676l-1.055 5.008zm-.362 0-.001-1.266h1.048v1.266zm-.686 0-1.362-5.218h1.495l1.267 5.218zm3.981 0 .018-1.266h1.048l-.009 1.266zm.428 0 1.199-5.218h1.4l-1.294 5.218zm3.751 0 .037-5.218h1.524l-.038 5.218zm-.666-4.094.008-1.124h2.219l-.008 1.124zm1.298-1.638q-.429 0-.637-.219a.84.84 0 0 1-.196-.571.82.82 0 0 1 .204-.572q.211-.228.64-.228t.627.228a.8.8 0 0 1 .205.572.82.82 0 0 1-.213.571q-.203.219-.63.219m4.671 5.799q-.79 0-1.274-.19a1.33 1.33 0 0 1-.71-.658q-.216-.467-.21-1.256l.033-4.59h1.419l-.033 4.647q-.003.371.186.571.198.19.56.19h.772l-.01 1.286zm-2.969-4.171.008-1.114h3.733l-.008 1.114zm7.05 4.285q-.677 0-1.179-.219a2.4 2.4 0 0 1-.824-.609 2.5 2.5 0 0 1-.489-.857 3.1 3.1 0 0 1-.155-1l.001-.181a3.1 3.1 0 0 1 .179-1.019q.175-.495.511-.876t.833-.6a2.9 2.9 0 0 1 1.154-.219q.705 0 1.245.276a2.14 2.14 0 0 1 1.215 1.867h-1.495a.92.92 0 0 0-.281-.591q-.237-.247-.694-.247-.38 0-.639.19a1.16 1.16 0 0 0-.375.524 2.3 2.3 0 0 0-.13.79q-.002.42.109.762.112.333.358.524.256.18.666.181.304 0 .515-.105a.9.9 0 0 0 .345-.305q.133-.2.165-.457h1.485a2.2 2.2 0 0 1-.37 1.143 2.3 2.3 0 0 1-.891.762 2.9 2.9 0 0 1-1.259.266m3.48-.181.05-6.951h1.524l-.029 4.009h-.228q.005-.79.209-1.333t.596-.819q.393-.286.983-.286h.067q.866 0 1.319.619.453.61.444 1.79l-.021 2.971h-1.524l.022-3.066q.003-.429-.252-.685-.246-.267-.655-.267a.93.93 0 0 0-.697.276q-.26.276-.262.733l-.022 3.009z"/><rect width="67.192" height="29.724" x="122" y="242" fill="#DBDADA" rx="2.223"/><path fill="#000" d="M132.074 255.028q-.867 0-1.461-.271-.594-.28-.897-.753a2 2 0 0 1-.298-1.104h1.392a.85.85 0 0 0 .128.455 1 1 0 0 0 .418.342q.28.123.727.123.402 0 .675-.105a.94.94 0 0 0 .414-.29.73.73 0 0 0 .143-.437.55.55 0 0 0-.259-.482q-.262-.184-.848-.237l-.482-.043q-.954-.08-1.52-.596-.565-.517-.559-1.366.005-.614.297-1.06.3-.447.828-.683.527-.246 1.245-.246.754 0 1.286.263.542.254.827.727.285.464.281 1.095h-1.401a.8.8 0 0 0-.111-.429.8.8 0 0 0-.339-.324 1.1 1.1 0 0 0-.551-.123 1.2 1.2 0 0 0-.535.105.74.74 0 0 0-.318.289.74.74 0 0 0-.108.386.66.66 0 0 0 .19.472q.19.202.629.237l.49.044a3.7 3.7 0 0 1 1.233.306q.532.237.827.657.303.412.299 1.008a1.84 1.84 0 0 1-.332 1.077q-.318.456-.907.709-.588.254-1.403.254m5.737 0q-.613 0-1.085-.21a2.3 2.3 0 0 1-.775-.56 2.7 2.7 0 0 1-.467-.797 2.7 2.7 0 0 1-.152-.911l.002-.176q.003-.481.164-.919.17-.447.479-.797t.766-.552q.465-.21 1.052-.21.772 0 1.294.35.532.341.808.902.277.552.272 1.209l-.003.473h-4.249l.006-.797h3.399l-.459.368a2 2 0 0 0-.117-.736.95.95 0 0 0-.364-.464 1 1 0 0 0-.595-.167q-.368 0-.623.167-.255.166-.389.49-.134.315-.137.78a2.1 2.1 0 0 0 .117.753q.121.315.382.491.262.175.682.175.386 0 .632-.149a.77.77 0 0 0 .335-.368h1.288a2.04 2.04 0 0 1-.418.858 2.1 2.1 0 0 1-.775.587q-.465.21-1.07.21m3.269-.166.034-4.8h1.113l-.015 2.058h-.027q.007-1.016.441-1.567.442-.552 1.265-.552h.184l-.009 1.208h-.35q-.578 0-.896.316-.317.306-.321.893l-.018 2.444zm4.752 0-1.402-4.8h1.445l1.314 4.8zm.438 0 .008-1.165h1.41l-.008 1.165zm.516 0 1.2-4.8h1.349l-1.279 4.8zm5.43.166q-.614 0-1.085-.21a2.3 2.3 0 0 1-.776-.56 2.7 2.7 0 0 1-.467-.797 2.7 2.7 0 0 1-.151-.911l.001-.176a2.565 2.565 0 0 1 .643-1.716q.31-.351.766-.552.467-.21 1.053-.21.77 0 1.294.35.532.341.808.902.276.552.272 1.209l-.004.473h-4.248l.006-.797h3.398l-.458.368a2 2 0 0 0-.117-.736.94.94 0 0 0-.365-.464 1 1 0 0 0-.594-.167q-.368 0-.623.167-.255.166-.389.49-.134.315-.137.78a2.1 2.1 0 0 0 .117.753q.12.315.382.491.261.175.682.175.385 0 .632-.149a.77.77 0 0 0 .335-.368h1.288a2.05 2.05 0 0 1-.418.858 2.1 2.1 0 0 1-.775.587 2.6 2.6 0 0 1-1.07.21m3.268-.166.035-4.8h1.112l-.015 2.058h-.026q.007-1.016.441-1.567.441-.552 1.265-.552h.184l-.009 1.208h-.35q-.578 0-.896.316-.318.306-.322.893l-.017 2.444zm6.647 0-1.53-6.394h1.48l1.196 5.43-.305-.201h.797l-.343.201.992-5.194h1.191l-1.297 6.158zm3.81 0-1.304-6.158h1.252l1.067 5.194-.332-.201h.762l-.29.201 1.116-5.43h1.402l-1.448 6.394zm4.578 0 .034-4.8h1.402l-.035 4.8zm-.613-3.766.008-1.034h2.041l-.008 1.034zm1.194-1.507q-.394 0-.586-.201a.77.77 0 0 1-.18-.526.75.75 0 0 1 .188-.525q.193-.211.588-.211t.577.211q.19.201.189.525a.76.76 0 0 1-.197.526q-.185.201-.579.201m4.297 5.334q-.728 0-1.173-.175a1.22 1.22 0 0 1-.652-.604q-.199-.43-.193-1.156l.03-4.222h1.305l-.031 4.274q-.002.342.172.526.183.175.515.175h.71l-.009 1.182zm-2.732-3.836.008-1.025h3.433l-.007 1.025zm4.349 3.775.046-6.394h1.402l-.027 3.687h-.21q.005-.726.193-1.226t.548-.753q.361-.263.904-.263h.062q.796 0 1.213.569.417.561.409 1.647l-.02 2.733h-1.402l.021-2.82q.003-.394-.232-.631-.226-.245-.603-.245a.85.85 0 0 0-.641.254q-.238.254-.241.674l-.02 2.768zm-36.184 10 .046-6.447h1.437l-.047 6.447zm3.88 0-1.855-2.751h1.577l1.942 2.751zm-2.814-2.05.008-1.13h1.576q.316 0 .544-.122a.9.9 0 0 0 .362-.36q.133-.236.135-.543a1.05 1.05 0 0 0-.127-.534.8.8 0 0 0-.357-.359 1.06 1.06 0 0 0-.542-.131h-1.577l.009-1.218h1.463q.797 0 1.382.245.585.237.897.71.312.472.307 1.191l-.001.14q-.004.71-.333 1.183a1.94 1.94 0 0 1-.907.7q-.579.228-1.377.228zm7.505 2.216a3 3 0 0 1-1.12-.193 2.5 2.5 0 0 1-.828-.543 2.3 2.3 0 0 1-.502-.779 2.5 2.5 0 0 1-.169-.937l.002-.202q.003-.5.182-.946a2.4 2.4 0 0 1 .531-.797q.353-.342.845-.534a2.9 2.9 0 0 1 1.096-.202q.622 0 1.102.202.489.192.829.534t.519.797q.181.447.177.946l-.001.202a2.6 2.6 0 0 1-.182.937 2.433 2.433 0 0 1-1.35 1.322 3.1 3.1 0 0 1-1.131.193m.009-1.182q.411 0 .684-.176.273-.175.415-.49.151-.315.154-.701a1.6 1.6 0 0 0-.144-.718 1.15 1.15 0 0 0-1.089-.683q-.386 0-.667.184a1.2 1.2 0 0 0-.433.499 1.7 1.7 0 0 0-.146.718q-.001.386.135.701.138.315.417.49.28.176.674.176m5.235 1.165q-.833 0-1.275-.535-.442-.543-.435-1.629l.02-2.785h1.402l-.021 2.855q-.003.386.215.613.216.228.585.228a.84.84 0 0 0 .615-.236q.237-.237.241-.64l.02-2.82h1.401l-.034 4.8h-1.113l.015-2.024h.096q-.005.728-.201 1.218-.188.481-.557.718t-.913.237zm6.207-.088q-.727 0-1.173-.175a1.22 1.22 0 0 1-.652-.605q-.2-.429-.193-1.156l.03-4.222h1.305l-.031 4.275q-.002.342.172.525.182.176.515.176h.71l-.009 1.182zm-2.732-3.836.008-1.025h3.433l-.007 1.025zm6.529 3.941q-.613 0-1.084-.21a2.3 2.3 0 0 1-.776-.561 2.7 2.7 0 0 1-.467-.797 2.7 2.7 0 0 1-.151-.911l.001-.175q.003-.482.164-.92a2.6 2.6 0 0 1 .479-.797q.309-.35.766-.551a2.5 2.5 0 0 1 1.053-.211q.77 0 1.294.351.53.34.808.902.276.552.271 1.209l-.003.473h-4.248l.005-.797h3.399l-.458.367a2 2 0 0 0-.118-.735.94.94 0 0 0-.364-.465 1 1 0 0 0-.595-.166q-.367 0-.623.166-.254.167-.389.491-.133.315-.137.779-.003.43.118.754.12.315.382.49.261.175.681.175.386 0 .632-.148a.8.8 0 0 0 .336-.368h1.287a2 2 0 0 1-.418.858 2.1 2.1 0 0 1-.775.587q-.465.21-1.07.21m3.269-.166.034-4.8h1.113l-.015 2.058h-.026q.007-1.016.44-1.568.443-.552 1.265-.552h.184l-.008 1.209h-.351q-.578 0-.895.316-.318.306-.322.893l-.018 2.444z"/><rect width="96.259" height="80.548" x="260.5" y="356.469" fill="#E2F1FF" stroke="#036897" stroke-dasharray="2 2" rx="11.595"/><path fill="#036897" stroke="#fff" stroke-linejoin="round" stroke-miterlimit="10" stroke-width="1.162" d="M288.97 408.692v-7.586h40.234v7.586z"/><path fill="#036897" stroke="#fff" stroke-linejoin="round" stroke-miterlimit="10" stroke-width="1.162" d="M336.479 394.458v7.604l-7.275 6.627v-7.586H288.97z"/><path fill="#036897" d="M329.204 401.103v-29.896H288.97v29.896zm0 0 7.275-6.644v-29.897h-40.727l-6.782 6.645h40.234zm0-29.896 7.275-6.645z"/><path stroke="#fff" stroke-linejoin="round" stroke-miterlimit="10" stroke-width="1.162" d="M329.204 401.103v-29.896m0 29.896H288.97v-29.896m40.234 29.896 7.275-6.644v-29.897m-7.275 6.645H288.97m40.234 0 7.275-6.645m-47.509 6.645 6.782-6.645h40.727"/><path fill="#036897" d="M327.276 413.918v-4.269h-46.55l5.338-5.228h46.55v4.269zm0-4.269v4.269h-46.55v-4.269zm0 0 5.338-5.228z"/><path stroke="#fff" stroke-linejoin="round" stroke-miterlimit="10" stroke-width="1.162" d="M327.276 413.918v-4.269m0 4.269 5.338-5.228v-4.269m-5.338 9.497h-46.55v-4.269m46.55 0h-46.55m46.55 0 5.338-5.228m-51.888 5.228 5.338-5.228h46.55"/><path stroke="#fff" stroke-miterlimit="10" stroke-width="1.162" d="M325.816 397.787v-23.262h-33.452v23.262z"/><rect width="40.502" height="11.528" x="288" y="420" fill="#DBDADA" rx="1.935"/><path fill="#000" d="m299.299 427.127-.004-1.176 1.086-.012a1.1 1.1 0 0 0 .538-.13.9.9 0 0 0 .355-.352q.123-.234.123-.532a1.1 1.1 0 0 0-.127-.537.8.8 0 0 0-.357-.345 1.1 1.1 0 0 0-.539-.118l-1.086.011-.004-1.177 1.019-.01q.771-.009 1.319.242.556.252.848.721.3.47.302 1.132l.001.133q.002.647-.295 1.13a1.9 1.9 0 0 1-.843.739q-.546.262-1.317.271zm-1.187 1.745-.022-6.1 1.36-.014.021 6.1zm8.305.069q-.82.009-1.41-.266a2.8 2.8 0 0 1-.964-.744 3.4 3.4 0 0 1-.559-1.006 3.5 3.5 0 0 1-.178-1.059l-.001-.182a3.5 3.5 0 0 1 .179-1.113q.18-.557.552-1.008.38-.453.95-.723.58-.28 1.367-.289.82-.008 1.451.292t1.006.843q.383.534.452 1.263l-1.367.015a1.3 1.3 0 0 0-.268-.619 1.33 1.33 0 0 0-.54-.392 1.8 1.8 0 0 0-.73-.133q-.406.003-.72.148-.315.144-.529.404a1.9 1.9 0 0 0-.321.616 2.6 2.6 0 0 0-.105.781q.001.423.11.778.117.347.334.609.224.255.548.393.324.129.738.124.63-.006 1.06-.318.438-.31.528-.851l1.359-.014q-.072.663-.444 1.223a2.66 2.66 0 0 1-.999.889q-.63.33-1.499.339m3.579-1.952-.004-1.177 3.489-.038.004 1.177zm4.355 1.71-.004-1.243q-.001-.39.122-.681.132-.291.413-.518a3.1 3.1 0 0 1 .744-.439l.977-.433q.372-.162.545-.396a.93.93 0 0 0 .181-.59.83.83 0 0 0-.226-.595q-.224-.23-.656-.225-.43.005-.654.248-.222.243-.221.649l-1.318.014q-.002-.572.245-1.031.248-.467.735-.737.489-.27 1.209-.278t1.203.244q.49.252.74.68.258.429.26.967l.001.099q.002.697-.378 1.157-.38.451-1.174.808l-.968.433a1.1 1.1 0 0 0-.356.228.47.47 0 0 0-.098.316l.001.414-.324-.27 3.315-.035.004 1.168zM308.269 296.59a.5.5 0 0 0-1 0zm-2.721 52.379c-.276 0-.471.338-.333.577l2.22 3.845c.138.24.529.24.667 0l2.22-3.845c.138-.239-.057-.577-.333-.577zm1.721-52.379v52.879h1V296.59z"/><rect width="96.259" height="80.548" x="389.5" y="356.469" fill="#E2F1FF" stroke="#036897" stroke-dasharray="2 2" rx="11.595"/><path fill="#036897" stroke="#fff" stroke-linejoin="round" stroke-miterlimit="10" stroke-width="1.187" d="M413.333 408.887v-7.75h41.102v7.75z"/><path fill="#036897" stroke="#fff" stroke-linejoin="round" stroke-miterlimit="10" stroke-width="1.187" d="M461.867 394.347v7.768l-7.432 6.77v-7.75h-41.102z"/><path fill="#036897" d="M454.435 401.135v-30.541h-41.102v30.541zm0 0 7.432-6.788v-30.541h-41.605l-6.929 6.788h41.102zm0-30.541 7.432-6.788z"/><path stroke="#fff" stroke-linejoin="round" stroke-miterlimit="10" stroke-width="1.187" d="M454.435 401.135v-30.541m0 30.541h-41.102v-30.541m41.102 30.541 7.432-6.788v-30.541m-7.432 6.788h-41.102m41.102 0 7.432-6.788m-48.534 6.788 6.929-6.788h41.605"/><path fill="#036897" d="M452.466 414.225v-4.36h-47.553l5.453-5.341h47.553v4.361zm0-4.36v4.36h-47.553v-4.36zm0 0 5.453-5.341z"/><path stroke="#fff" stroke-linejoin="round" stroke-miterlimit="10" stroke-width="1.187" d="M452.466 414.225v-4.36m0 4.36 5.453-5.34v-4.361m-5.453 9.701h-47.553v-4.36m47.553 0h-47.553m47.553 0 5.453-5.341m-53.006 5.341 5.453-5.341h47.553"/><path stroke="#fff" stroke-miterlimit="10" stroke-width="1.187" d="M450.974 397.748v-23.763h-34.173v23.763z"/><rect width="40.502" height="11.528" x="413" y="420" fill="#DBDADA" rx="1.935"/><path fill="#000" d="m424.285 427.032.009-1.177h1.085q.315 0 .54-.124a.9.9 0 0 0 .359-.348q.126-.233.128-.531a1.1 1.1 0 0 0-.12-.539.8.8 0 0 0-.354-.348 1.1 1.1 0 0 0-.538-.124h-1.086l.009-1.177h1.019q.771 0 1.316.257.554.256.84.729.296.473.29 1.136l-.001.132a2.1 2.1 0 0 1-.306 1.128 1.9 1.9 0 0 1-.851.729q-.55.257-1.319.257zm-1.206 1.732.044-6.1h1.359l-.044 6.1zm8.304.158q-.82 0-1.407-.282a2.8 2.8 0 0 1-.956-.754 3.3 3.3 0 0 1-.548-1.012 3.5 3.5 0 0 1-.167-1.06l.002-.183a3.5 3.5 0 0 1 .19-1.11q.186-.556.563-1.003.384-.448.958-.713.582-.274 1.37-.274.82 0 1.448.307.627.307.997.854.376.539.438 1.268h-1.368a1.3 1.3 0 0 0-.26-.622 1.36 1.36 0 0 0-.536-.398 1.8 1.8 0 0 0-.729-.14q-.405 0-.722.14-.315.141-.533.398a1.9 1.9 0 0 0-.328.614 2.7 2.7 0 0 0-.113.779q-.003.422.102.779.114.348.327.613.222.257.544.398.323.133.737.133.63 0 1.063-.307.442-.307.537-.846h1.359a2.7 2.7 0 0 1-.456 1.219 2.66 2.66 0 0 1-1.01.878q-.632.324-1.502.324m3.6-1.915.008-1.177h3.49l-.009 1.177zm6.408 1.915q-.705 0-1.225-.257a1.9 1.9 0 0 1-.782-.713 1.9 1.9 0 0 1-.266-1.011h1.309a.8.8 0 0 0 .253.621q.255.232.719.232.307 0 .523-.116a.84.84 0 0 0 .334-.315.94.94 0 0 0 .119-.464.88.88 0 0 0-.252-.654q-.248-.258-.711-.257a1.2 1.2 0 0 0-.44.074q-.183.075-.316.183l-.606-1.036 1.84-1.194-.073-.141h-2.429l.009-1.16h4.078l-.01 1.26-2.123 1.342-.662-.182q.166-.05.349-.075.191-.033.406-.033.705 0 1.209.232t.774.655q.28.415.275.97l-.001.099q-.004.555-.289.995a1.9 1.9 0 0 1-.792.696q-.507.249-1.22.249M496.303 295.955a.5.5 0 0 0-1 0zm-.5 29.007v.5l.5-.5zm-58.173 0v-.5l-.5.5zm-2.22 24.007c-.277 0-.472.338-.334.577l2.22 3.845c.138.24.529.24.667 0l2.22-3.845c.138-.239-.057-.577-.333-.577zm59.893-53.014v29.007h1v-29.007zm.5 28.507H437.63v1h58.173zm-58.673.5v24.507h1v-24.507z"/><rect width="96.259" height="80.548" x="509.5" y="356.469" fill="#E2F1FF" stroke="#036897" stroke-dasharray="2 2" rx="11.595"/><path fill="#036897" stroke="#fff" stroke-linejoin="round" stroke-miterlimit="10" stroke-width="1.161" d="M542.922 406.947v-7.57h40.407v7.57z"/><path fill="#036897" stroke="#fff" stroke-linejoin="round" stroke-miterlimit="10" stroke-width="1.161" d="M590.635 392.743v7.588l-7.306 6.613v-7.571h-40.407z"/><path fill="#036897" d="M583.329 399.376v-29.835h-40.407v29.835zm0 0 7.306-6.631V362.91h-40.902l-6.811 6.631h40.407zm0-29.835 7.306-6.631z"/><path stroke="#fff" stroke-linejoin="round" stroke-miterlimit="10" stroke-width="1.161" d="M583.329 399.376v-29.835m0 29.835h-40.407v-29.835m40.407 29.835 7.306-6.631V362.91m-7.306 6.631h-40.407m40.407 0 7.306-6.631m-47.713 6.631 6.811-6.631h40.902"/><path fill="#036897" d="M581.391 412.164v-4.26h-46.749l5.361-5.217h46.749v4.26zm0-4.26v4.26h-46.749v-4.26zm0 0 5.361-5.217z"/><path stroke="#fff" stroke-linejoin="round" stroke-miterlimit="10" stroke-width="1.161" d="M581.391 412.164v-4.26m0 4.26 5.361-5.217v-4.26m-5.361 9.477h-46.749v-4.26m46.749 0h-46.749m46.749 0 5.361-5.217m-52.11 5.217 5.361-5.217h46.749"/><path stroke="#fff" stroke-miterlimit="10" stroke-width="1.161" d="M579.922 396.064v-23.212h-33.595v23.212z"/><rect width="40.502" height="11.528" x="540" y="420" fill="#DBDADA" rx="1.935"/><path fill="#000" d="m551.119 427.032.008-1.177h1.086q.315 0 .54-.124a.9.9 0 0 0 .359-.348 1.1 1.1 0 0 0 .128-.531 1.1 1.1 0 0 0-.121-.539.8.8 0 0 0-.353-.348 1.1 1.1 0 0 0-.538-.124h-1.086l.008-1.177h1.02q.77 0 1.316.257.554.256.84.729.295.473.29 1.136l-.001.132a2.1 2.1 0 0 1-.306 1.128 1.9 1.9 0 0 1-.851.729q-.549.257-1.32.257zm-1.206 1.732.044-6.1h1.359l-.044 6.1zm8.304.158q-.82 0-1.407-.282a2.8 2.8 0 0 1-.956-.754 3.3 3.3 0 0 1-.548-1.012 3.5 3.5 0 0 1-.167-1.06l.002-.183a3.5 3.5 0 0 1 .19-1.11q.187-.556.562-1.003.385-.448.959-.713.582-.274 1.369-.274.82 0 1.449.307.627.307.996.854.378.539.439 1.268h-1.368a1.3 1.3 0 0 0-.261-.622 1.35 1.35 0 0 0-.535-.398 1.8 1.8 0 0 0-.729-.14q-.406 0-.722.14a1.5 1.5 0 0 0-.533.398q-.21.258-.328.614a2.7 2.7 0 0 0-.113.779q-.003.422.102.779.114.348.327.613.222.257.544.398.323.133.737.133.63 0 1.063-.307a1.26 1.26 0 0 0 .537-.846h1.359a2.7 2.7 0 0 1-.456 1.219 2.67 2.67 0 0 1-1.01.878q-.632.324-1.502.324m3.6-1.915.008-1.177h3.49l-.009 1.177zm4.121.597.01-1.417 2.323-3.647 1.047.688-1.987 3.124.115.174h3.622l-.007 1.078zm3.166 1.16.032-4.359h1.251l-.031 4.359z"/><path fill="#232323" d="M351 198v.5h.5v-.5zm-41 0v-.5h-.5v.5zm0 23 2.887-5h-5.774zm40.5-46v23h1v-23zm.5 22.5h-41v1h41zm-41.5.5v18.5h1V198z"/><path fill="#000" d="M496.303 295.955a.5.5 0 0 0-1 0zm-.5 29.007h-.5l.5.5zm61.827 0h.5l-.5-.5zm-2.22 24.007c-.277 0-.472.338-.334.577l2.22 3.845c.138.24.529.24.667 0l2.22-3.845c.138-.239-.057-.577-.333-.577zm-60.107-53.014v29.007h1v-29.007zm.5 29.507h61.827v-1h-61.827zm61.327-.5v24.507h1v-24.507z"/><path fill="#FFD084" d="M215 85.863c0-1.029.834-1.863 1.863-1.863h293.274c1.029 0 1.863.834 1.863 1.863v25.274a1.863 1.863 0 0 1-1.863 1.863H216.863a1.863 1.863 0 0 1-1.863-1.863z"/><path fill="#000" d="M236.361 101.992q-1.164 0-1.965-.372-.79-.372-1.205-1.02a2.7 2.7 0 0 1-.409-1.488h1.668q-.003.348.187.684.19.324.608.528.43.204 1.126.204.624 0 1.046-.18t.627-.468q.207-.3.209-.672a.86.86 0 0 0-.391-.744q-.393-.288-1.221-.36l-.768-.06q-1.258-.108-2.01-.78-.739-.684-.731-1.8.006-.84.406-1.44.4-.612 1.111-.936.722-.336 1.682-.336.996 0 1.714.348a2.6 2.6 0 0 1 1.109.984q.391.624.385 1.476h-1.668q.003-.36-.175-.66a1.17 1.17 0 0 0-.512-.492q-.335-.192-.863-.192-.504 0-.841.168a1.19 1.19 0 0 0-.68 1.08 1 1 0 0 0 .295.72q.297.3.945.348l.768.072q.934.072 1.641.396.705.324 1.086.876.392.552.386 1.332a2.56 2.56 0 0 1-.443 1.464q-.436.624-1.243.972-.794.348-1.874.348m7.882 0q-.84 0-1.474-.288a3.05 3.05 0 0 1-1.039-.768 3.6 3.6 0 0 1-.616-1.092 3.8 3.8 0 0 1-.195-1.224l.002-.228q.005-.648.213-1.248.22-.612.632-1.08.423-.48 1.037-.756.614-.288 1.418-.288 1.056 0 1.761.468.716.456 1.071 1.212a3.6 3.6 0 0 1 .348 1.608l-.004.6h-5.772l.007-1.02h4.728l-.519.504q.004-.624-.173-1.068a1.4 1.4 0 0 0-.547-.684q-.357-.24-.91-.24-.552 0-.938.252a1.6 1.6 0 0 0-.593.732q-.195.468-.2 1.128-.005.612.184 1.092.189.468.583.744.394.264 1.006.264t.997-.24q.387-.252.497-.612h1.536a2.8 2.8 0 0 1-.561 1.176 2.7 2.7 0 0 1-1.049.78q-.627.276-1.43.276m4.527-.228.047-6.516h1.32l-.02 2.76h-.036q.01-1.404.615-2.124t1.769-.72h.24l-.01 1.452h-.456q-.84 0-1.311.456-.46.444-.466 1.296l-.024 3.396zm6.511 0-1.993-6.516h1.716l1.909 6.516zm.492 0 .01-1.368h1.764l-.01 1.368zm.66 0 1.727-6.516h1.608l-1.811 6.516zm7.322.228q-.84 0-1.474-.288a3.05 3.05 0 0 1-1.039-.768 3.6 3.6 0 0 1-.616-1.092 3.8 3.8 0 0 1-.195-1.224l.001-.228q.006-.648.213-1.248a3.3 3.3 0 0 1 .632-1.08 3 3 0 0 1 1.038-.756q.614-.288 1.418-.288 1.056 0 1.76.468.717.456 1.072 1.212.354.744.348 1.608l-.004.6h-5.772l.007-1.02h4.728l-.52.504q.005-.624-.172-1.068a1.4 1.4 0 0 0-.547-.684q-.358-.24-.91-.24t-.938.252a1.6 1.6 0 0 0-.593.732q-.196.468-.2 1.128-.005.612.184 1.092.188.468.582.744.394.264 1.006.264t.998-.24q.386-.252.497-.612h1.536q-.15.672-.561 1.176a2.7 2.7 0 0 1-1.049.78q-.627.276-1.43.276m4.527-.228.047-6.516h1.32l-.02 2.76h-.036q.009-1.404.615-2.124.605-.72 1.769-.72h.24l-.01 1.452h-.456q-.84 0-1.312.456-.459.444-.465 1.296l-.024 3.396zm4.593-2.64.01-1.464h4.86l-.01 1.464zm7.958 2.7.01-1.368h2.196q.6 0 .915-.324.314-.336.318-.912t-.306-.888q-.309-.324-.909-.324h-2.196l.007-1.044h2.076q.876 0 1.559.216.694.204 1.075.696.392.492.386 1.32l-.001.168q-.006.78-.358 1.332-.339.54-1.026.84-.674.288-1.67.288zm-1.428 0 .064-8.88h1.668l-.064 8.88zm1.458-4.092.007-1.044h1.872q.612 0 .903-.324.29-.324.294-.864t-.282-.864-.898-.324h-1.872l.01-1.368h1.716q1.488 0 2.252.624.776.624.767 1.788l-.001.168q-.006.816-.406 1.308-.387.48-1.073.696a5.5 5.5 0 0 1-1.573.204zm10.62 4.032.014-1.932h-.276l.016-2.148q.004-.564-.27-.84t-.85-.276q-.3 0-.72.012t-.852.036q-.42.012-.757.036l.011-1.416q.276-.024.624-.048t.708-.024q.372-.012.696-.012 1.009 0 1.666.264.67.264 1.002.828.344.564.338 1.476l-.03 4.044zm-2.101.168q-.708 0-1.246-.252a1.95 1.95 0 0 1-.823-.72q-.284-.468-.28-1.128.006-.72.357-1.176.363-.456 1.001-.684.65-.228 1.513-.228h1.512l-.007.996h-1.536q-.576 0-.89.288a.94.94 0 0 0-.305.72.93.93 0 0 0 .295.72q.31.276.886.276.348 0 .637-.12.3-.132.495-.432.206-.312.234-.84l.404.468q-.065.684-.344 1.152a1.8 1.8 0 0 1-.749.72q-.47.24-1.154.24m7.571.036q-1.344 0-2.108-.564-.752-.576-.781-1.584h1.5q.034.336.368.612t1.054.276q.6 0 .949-.216.362-.216.365-.588a.6.6 0 0 0-.273-.516q-.262-.192-.91-.252l-.575-.06q-1.092-.12-1.676-.624t-.578-1.344q.005-.672.344-1.128.34-.456.929-.684.602-.24 1.37-.24 1.2 0 1.94.528t.769 1.548h-1.5q-.022-.336-.332-.576t-.899-.24q-.528 0-.817.204a.63.63 0 0 0-.292.528.56.56 0 0 0 .225.48q.238.168.766.228l.576.06q1.151.12 1.795.636.656.516.65 1.392a1.84 1.84 0 0 1-.368 1.128q-.351.468-.989.732t-1.502.264m7.137.024q-.84 0-1.473-.288a3.05 3.05 0 0 1-1.039-.768 3.6 3.6 0 0 1-.616-1.092 3.8 3.8 0 0 1-.195-1.224l.001-.228q.006-.648.213-1.248a3.3 3.3 0 0 1 .632-1.08 3 3 0 0 1 1.038-.756q.614-.288 1.418-.288 1.056 0 1.76.468.717.456 1.072 1.212.354.744.348 1.608l-.004.6h-5.772l.007-1.02h4.728l-.52.504q.005-.624-.172-1.068a1.4 1.4 0 0 0-.547-.684q-.358-.24-.91-.24t-.938.252a1.6 1.6 0 0 0-.593.732q-.196.468-.2 1.128-.005.612.184 1.092.188.468.582.744.394.264 1.006.264t.998-.24q.386-.252.497-.612h1.536q-.15.672-.561 1.176a2.7 2.7 0 0 1-1.05.78q-.626.276-1.43.276m7.226-.012q-.684 0-1.258-.252a2.9 2.9 0 0 1-.991-.708 3.2 3.2 0 0 1-.641-1.056 3.8 3.8 0 0 1-.218-1.32l.002-.252q.004-.696.225-1.308.233-.612.632-1.068.411-.456.977-.708a3 3 0 0 1 1.274-.264q.768 0 1.342.336.585.324.928.984t.372 1.656l-.487-.576.032-4.44h1.668l-.063 8.76h-1.32l.019-2.772h.288q-.042.996-.42 1.668-.376.66-.991.996a2.84 2.84 0 0 1-1.37.324m.382-1.404q.492 0 .902-.216.41-.228.652-.648.255-.432.26-1.008l.003-.48q.004-.576-.245-.96a1.6 1.6 0 0 0-.656-.6 1.86 1.86 0 0 0-.886-.216q-.54 0-.962.264a1.8 1.8 0 0 0-.653.72 2.5 2.5 0 0 0-.236 1.092q-.005.624.232 1.092.237.456.643.708.418.252.946.252m8.032 1.188.063-8.76h2.796l3.631 7.344h.396l-.241.216.054-7.56h1.608l-.063 8.76h-2.808l-3.631-7.344h-.408l.241-.216-.054 7.56zm13.189.228q-.84 0-1.474-.288a3.05 3.05 0 0 1-1.039-.768 3.6 3.6 0 0 1-.616-1.092 3.8 3.8 0 0 1-.195-1.224l.002-.228q.005-.648.213-1.248.22-.612.631-1.08a3 3 0 0 1 1.038-.756q.614-.288 1.418-.288 1.056 0 1.76.468.717.456 1.072 1.212.354.744.348 1.608l-.004.6h-5.772l.007-1.02h4.728l-.519.504q.004-.624-.173-1.068a1.4 1.4 0 0 0-.547-.684q-.358-.24-.91-.24t-.938.252a1.6 1.6 0 0 0-.593.732q-.195.468-.2 1.128-.005.612.184 1.092.189.468.582.744.395.264 1.007.264t.997-.24q.386-.252.497-.612h1.536q-.15.672-.561 1.176a2.7 2.7 0 0 1-1.049.78q-.627.276-1.43.276m7.358-.144q-.9 0-1.486-.228a1.66 1.66 0 0 1-.859-.792q-.283-.564-.277-1.512l.055-5.904h1.56l-.055 6.012q-.004.48.246.744.262.252.742.252h1.02l-.01 1.428zm-3.633-5.376.009-1.224h4.608l-.009 1.224zm8.202 5.292 1.281-6.3h1.92l1.383 6.3h-1.32l-1.407-6.264h.696l-1.329 6.264zm-.492 0-.003-1.368h1.332l-.009 1.368zm-.672 0-1.729-6.516h1.62l1.645 6.516zm4.848 0 .009-1.368h1.332l-.021 1.368zm.528 0 1.547-6.516h1.512l-1.619 6.516zm7.315.228q-.864 0-1.522-.276a3.3 3.3 0 0 1-1.111-.744 3.4 3.4 0 0 1-.688-1.08 3.5 3.5 0 0 1-.219-1.248l.002-.252a3.4 3.4 0 0 1 .249-1.272 3.4 3.4 0 0 1 .716-1.08q.471-.48 1.133-.744a3.8 3.8 0 0 1 1.49-.276 3.8 3.8 0 0 1 1.486.276q.658.264 1.111.744.465.468.7 1.08.236.6.231 1.272l-.002.252a3.3 3.3 0 0 1-.249 1.248q-.232.6-.692 1.08a3.4 3.4 0 0 1-1.121.744q-.662.276-1.514.276m.01-1.428q.612 0 1.034-.264.422-.276.641-.732.22-.468.224-1.056a2.3 2.3 0 0 0-.22-1.056 1.63 1.63 0 0 0-.643-.732q-.418-.276-1.006-.276t-1.022.276q-.422.264-.653.732a2.3 2.3 0 0 0-.236 1.056 2.5 2.5 0 0 0 .208 1.056q.225.456.643.732.418.264 1.03.264m5.004 1.2.047-6.516h1.32l-.02 2.76h-.036q.01-1.404.615-2.124.606-.72 1.77-.72h.24l-.011 1.452h-.456q-.84 0-1.311.456-.459.444-.465 1.296l-.025 3.396zm9.564 0-2.162-3.048h-.972l2.797-3.468h1.74l-2.579 3.204.042-.84 3.018 4.152zm-4.56 0 .063-8.76h1.668l-.063 8.76zm11.856 0 .054-7.5h1.704l-.054 7.5zm-2.48-7.26.011-1.5h6.768l-.011 1.5zm10.266 7.488q-.864 0-1.522-.276a3.3 3.3 0 0 1-1.111-.744 3.4 3.4 0 0 1-.688-1.08 3.5 3.5 0 0 1-.219-1.248l.002-.252a3.4 3.4 0 0 1 .249-1.272 3.4 3.4 0 0 1 .716-1.08q.471-.48 1.133-.744a3.8 3.8 0 0 1 1.49-.276q.829 0 1.486.276.658.264 1.111.744.465.468.7 1.08.235.6.231 1.272l-.002.252a3.3 3.3 0 0 1-.249 1.248q-.232.6-.692 1.08a3.4 3.4 0 0 1-1.121.744q-.662.276-1.514.276m.01-1.428q.612 0 1.034-.264.422-.276.641-.732.22-.468.224-1.056.005-.6-.22-1.056a1.63 1.63 0 0 0-.643-.732q-.418-.276-1.006-.276t-1.022.276q-.422.264-.653.732a2.35 2.35 0 0 0-.236 1.056 2.5 2.5 0 0 0 .208 1.056q.226.456.643.732.418.264 1.03.264m4.987 3.6.064-8.916h1.32l-.02 2.808-.204-.012q.055-.996.42-1.668.377-.672.991-.996.615-.336 1.371-.336.696 0 1.246.252.562.252.955.708.405.456.616 1.068.212.6.207 1.296l-.002.252a4 4 0 0 1-.226 1.32q-.208.6-.619 1.068a2.9 2.9 0 0 1-.966.72 3.1 3.1 0 0 1-1.261.252q-.732 0-1.342-.3a2.38 2.38 0 0 1-.965-.948q-.367-.648-.408-1.668l.522.804-.031 4.296zm3.482-3.588q.54 0 .938-.264.41-.264.641-.732.231-.48.236-1.08.004-.624-.22-1.08a1.7 1.7 0 0 0-.631-.708 1.64 1.64 0 0 0-.934-.264q-.492 0-.914.216a1.8 1.8 0 0 0-.677.636q-.255.42-.259 1.008l-.003.48q-.004.564.257.96.26.396.679.612t.887.216m8.056 1.416q-.864 0-1.522-.276a3.3 3.3 0 0 1-1.11-.744 3.3 3.3 0 0 1-.689-1.08 3.5 3.5 0 0 1-.219-1.248l.002-.252a3.4 3.4 0 0 1 .249-1.272 3.4 3.4 0 0 1 .716-1.08q.471-.48 1.133-.744a3.8 3.8 0 0 1 1.49-.276q.829 0 1.486.276.658.264 1.111.744.465.468.7 1.08.236.6.231 1.272l-.002.252a3.3 3.3 0 0 1-.249 1.248q-.232.6-.691 1.08-.46.468-1.122.744t-1.514.276m.01-1.428q.612 0 1.034-.264.422-.276.642-.732.219-.468.223-1.056.005-.6-.22-1.056a1.63 1.63 0 0 0-.643-.732q-.418-.276-1.006-.276t-1.022.276q-.422.264-.653.732a2.35 2.35 0 0 0-.236 1.056q-.004.588.209 1.056.224.456.642.732.418.264 1.03.264m5.088 1.2.063-8.76h1.668l-.063 8.76zm-.762-7.512.009-1.248h2.484l-.009 1.248zm7.465 7.74q-.864 0-1.522-.276a3.3 3.3 0 0 1-1.111-.744 3.4 3.4 0 0 1-.688-1.08 3.5 3.5 0 0 1-.219-1.248l.002-.252a3.4 3.4 0 0 1 .249-1.272 3.4 3.4 0 0 1 .716-1.08q.471-.48 1.133-.744a3.8 3.8 0 0 1 1.49-.276q.828 0 1.486.276.658.264 1.111.744.465.468.7 1.08.235.6.231 1.272l-.002.252a3.3 3.3 0 0 1-.249 1.248q-.232.6-.692 1.08a3.4 3.4 0 0 1-1.121.744q-.662.276-1.514.276m.01-1.428q.612 0 1.034-.264.422-.276.641-.732.22-.468.224-1.056a2.3 2.3 0 0 0-.22-1.056 1.63 1.63 0 0 0-.643-.732q-.418-.276-1.006-.276t-1.022.276q-.422.264-.653.732a2.3 2.3 0 0 0-.236 1.056 2.5 2.5 0 0 0 .208 1.056q.225.456.643.732.418.264 1.03.264m7.53 3.768a13 13 0 0 1-1.859-.132l.01-1.392q.43.048.923.084.492.048.924.048.804 0 1.297-.192.505-.192.736-.612.243-.408.248-1.044l.009-1.284.366-.816q-.042.9-.383 1.536a2.4 2.4 0 0 1-.919.96q-.578.324-1.334.324-.672 0-1.222-.252-.539-.252-.931-.696a3.2 3.2 0 0 1-.593-1.044 3.8 3.8 0 0 1-.207-1.284l.002-.252a3.7 3.7 0 0 1 .225-1.272q.233-.6.644-1.044t.977-.684a3.2 3.2 0 0 1 1.25-.24q.804 0 1.389.348.597.348.929 1.008t.36 1.62l-.288.048.02-2.82h1.32l-.041 5.748q-.01 1.188-.422 1.92-.414.732-1.268 1.068-.842.348-2.162.348m.508-3.948q.48 0 .878-.216.397-.216.64-.624t.247-.984l.003-.42q.004-.552-.245-.936a1.5 1.5 0 0 0-.632-.576 1.85 1.85 0 0 0-.862-.204q-.528 0-.938.252-.398.24-.629.684t-.236 1.056q-.004.6.221 1.044t.619.684q.406.24.934.24m4.947 3.948.01-1.428h1.224q.349 0 .577-.096a.85.85 0 0 0 .398-.288 1.4 1.4 0 0 0 .244-.54l1.801-6.732h1.596l-1.984 7.092q-.197.732-.548 1.164a1.94 1.94 0 0 1-.905.636q-.54.192-1.345.192zm2.048-2.712.009-1.32h1.392l-.009 1.32zm-.564 0-2.066-6.372h1.68l1.958 6.372zm9.65.192.012-1.584h1.812q.684 0 1.213-.204a2.6 2.6 0 0 0 .917-.6 2.6 2.6 0 0 0 .57-.9q.208-.528.212-1.164a3.2 3.2 0 0 0-.195-1.176 2.4 2.4 0 0 0-.558-.9 2.4 2.4 0 0 0-.908-.564 3.5 3.5 0 0 0-1.21-.192h-1.812l.011-1.584h1.704q1.188 0 2.074.348t1.469.96q.584.6.866 1.38.294.768.288 1.596l-.002.264a4.3 4.3 0 0 1-.311 1.56 4.2 4.2 0 0 1-.886 1.392 4.3 4.3 0 0 1-1.483.996q-.891.372-2.079.372zm-1.464 0 .064-8.868h1.704l-.064 8.868zm9.603-.048.047-6.516h1.668l-.047 6.516zm-.874-5.268.009-1.248h2.58l-.009 1.248zm1.538-2.028q-.492 0-.73-.252a.95.95 0 0 1-.223-.648q.003-.408.232-.66.243-.252.734-.252.492 0 .718.252.227.252.224.66a.97.97 0 0 1-.233.648q-.23.252-.722.252m6.874 7.296.014-1.932h-.276l.015-2.148q.005-.564-.27-.84-.274-.276-.85-.276-.3 0-.72.012t-.852.036q-.42.012-.756.036l.01-1.416q.276-.024.624-.048t.708-.024q.373-.012.697-.012 1.008 0 1.666.264.669.264 1.002.828.343.564.337 1.476l-.029 4.044zm-2.101.168q-.708 0-1.247-.252a1.94 1.94 0 0 1-.822-.72q-.285-.468-.28-1.128.005-.72.356-1.176.363-.456 1.001-.684.65-.228 1.514-.228h1.512l-.007.996h-1.536q-.576 0-.89.288a.94.94 0 0 0-.306.72.93.93 0 0 0 .295.72q.31.276.886.276.349 0 .637-.12.302-.132.495-.432.207-.312.234-.84l.405.468q-.065.684-.344 1.152a1.8 1.8 0 0 1-.75.72q-.47.24-1.153.24m7.733 2.4a13 13 0 0 1-1.859-.132l.01-1.392q.432.048.923.084.492.048.924.048.805 0 1.297-.192.506-.192.737-.612.243-.408.247-1.044l.01-1.284.366-.816q-.043.9-.384 1.536a2.43 2.43 0 0 1-.918.96q-.579.324-1.335.324a2.9 2.9 0 0 1-1.222-.252 2.8 2.8 0 0 1-.931-.696 3.2 3.2 0 0 1-.592-1.044q-.212-.6-.207-1.284l.002-.252q.005-.684.225-1.272.232-.6.643-1.044t.977-.684a3.2 3.2 0 0 1 1.25-.24q.804 0 1.389.348.598.348.929 1.008t.361 1.62l-.289.048.021-2.82h1.32l-.042 5.748q-.008 1.188-.422 1.92-.413.732-1.267 1.068-.843.348-2.163.348m.509-3.948q.48 0 .877-.216.398-.216.641-.624t.247-.984l.003-.42q.004-.552-.246-.936a1.5 1.5 0 0 0-.631-.576 1.85 1.85 0 0 0-.863-.204q-.528 0-.938.252-.398.24-.629.684t-.235 1.056q-.005.6.22 1.044t.619.684q.407.24.935.24m5.157 1.38.047-6.516h1.32l-.02 2.76h-.036q.01-1.404.615-2.124.606-.72 1.77-.72h.24l-.011 1.452h-.456q-.84 0-1.311.456-.459.444-.466 1.296l-.024 3.396zm8.917 0 .014-1.932h-.276l.015-2.148q.004-.564-.27-.84t-.85-.276q-.3 0-.72.012t-.852.036q-.42.012-.756.036l.01-1.416q.276-.024.624-.048t.708-.024q.372-.012.696-.012 1.009 0 1.666.264.67.264 1.003.828.343.564.337 1.476l-.029 4.044zm-2.101.168q-.708 0-1.247-.252a1.94 1.94 0 0 1-.822-.72q-.286-.468-.28-1.128.005-.72.356-1.176.363-.456 1.001-.684.65-.228 1.514-.228h1.512l-.007.996h-1.536q-.576 0-.891.288a.94.94 0 0 0-.305.72.93.93 0 0 0 .295.72q.31.276.886.276.348 0 .637-.12.301-.132.495-.432.207-.312.234-.84l.405.468q-.065.684-.345 1.152a1.8 1.8 0 0 1-.749.72q-.47.24-1.153.24m5.207-.168.047-6.516h1.32l-.02 2.796h-.12q.007-.984.264-1.644.257-.672.751-1.008.507-.348 1.251-.348h.072q.756 0 1.245.348.502.336.737 1.008.248.66.24 1.644h-.42q.007-.984.264-1.644.269-.672.763-1.008.507-.348 1.251-.348h.072q.756 0 1.257.348.502.336.749 1.008.26.66.252 1.644l-.027 3.72h-1.668l.028-3.876q.005-.612-.305-.972-.309-.372-.885-.372t-.927.384q-.35.372-.355 1.008l-.028 3.828h-1.668l.028-3.876q.005-.612-.305-.972-.309-.372-.885-.372t-.927.384q-.35.372-.355 1.008l-.028 3.828z"/><path fill="#232323" d="M308.268 296.59a.5.5 0 1 0-1 0zm-.5 30.189v.5l.5-.5zm-114.363 0v-.5l-.5.5zm-2.22 25.19c-.276 0-.472.338-.334.577l2.22 3.845c.139.24.529.24.667 0l2.22-3.845c.138-.239-.057-.577-.333-.577zm116.083-55.379v30.189h1V296.59zm.5 29.689H193.405v1h114.363zm-114.863.5v25.69h1v-25.69z"/><path fill="#FF36A2" d="M177.542 289.007c1.162-.387 2.267.718 1.88 1.879l-5.862 17.586c-.436 1.307-2.262 1.368-2.784.094l-2.042-4.981a7.88 7.88 0 0 0-3.928-3.928l-4.927-2.007c-1.278-.52-1.218-2.349.091-2.785z"/><path fill="#fff" d="M158.629 318.629c0-7.409-6.006-13.415-13.415-13.415H92.5c-7.409 0-13.414 6.006-13.414 13.415s6.005 13.414 13.414 13.414h52.714c7.409 0 13.415-6.006 13.415-13.414"/><path fill="#FF36A2" fill-opacity=".2" d="M158.629 318.629c0-7.409-6.006-13.415-13.415-13.415H92.5c-7.409 0-13.414 6.006-13.414 13.415s6.005 13.414 13.414 13.414h52.714c7.409 0 13.415-6.006 13.415-13.414"/><path stroke="#FF36A2" stroke-width="1.486" d="M158.629 318.629c0-7.409-6.006-13.415-13.415-13.415H92.5c-7.409 0-13.414 6.006-13.414 13.415s6.005 13.414 13.414 13.414h52.714c7.409 0 13.415-6.006 13.415-13.414Z"/><path fill="#000" d="M105.341 323.188v-1.355h2.175q.595 0 .904-.321.309-.333.309-.903t-.309-.88q-.309-.321-.904-.321h-2.175v-1.034h2.057a5.2 5.2 0 0 1 1.545.214q.689.203 1.069.69.393.486.393 1.307v.166q0 .773-.345 1.32-.333.534-1.01.832-.666.285-1.652.285zm-1.414 0v-8.795h1.652v8.795zm1.414-4.053v-1.034h1.854q.607 0 .892-.321.285-.32.285-.856 0-.534-.285-.856-.285-.32-.892-.32h-1.854v-1.355h1.7q1.474 0 2.234.618.774.618.773 1.771v.166q0 .808-.392 1.296-.38.474-1.058.689a5.5 5.5 0 0 1-1.557.202zm6.638 3.994v-6.454h1.308v2.733h-.036q0-1.39.594-2.103.595-.714 1.747-.714h.238v1.439h-.451q-.832 0-1.296.451-.452.44-.452 1.284v3.364zm5.265 0v-6.454h1.653v6.454zm-.903-5.218v-1.236h2.556v1.236zm1.51-2.009q-.488 0-.725-.25a.94.94 0 0 1-.226-.641q0-.405.226-.654.237-.25.725-.25.487 0 .713.25.226.249.226.654a.95.95 0 0 1-.226.641q-.226.25-.713.25m6.86 7.227v-1.914h-.273v-2.128q0-.558-.274-.832-.273-.273-.844-.273a31.261 31.261 0 0 0-1.557.048q-.416.01-.748.035v-1.402q.273-.024.618-.048.344-.024.701-.024.369-.011.689-.011 1 0 1.652.261.666.261.999.82.344.56.344 1.462v4.006zm-2.08.166q-.701 0-1.236-.25a1.94 1.94 0 0 1-.82-.713q-.285-.463-.285-1.117 0-.713.344-1.165.357-.452.987-.677.642-.226 1.497-.226h1.498v.986h-1.521q-.571 0-.88.286a.92.92 0 0 0-.297.713q0 .44.297.713.309.273.88.273.343 0 .63-.119.297-.13.487-.427.202-.31.226-.832l.404.463q-.06.678-.333 1.141-.261.464-.737.713-.463.238-1.141.238m5.157-.166v-6.454h1.308v2.769h-.119q0-.987.261-1.64.262-.666.773-.999.522-.332 1.295-.332h.072q1.153 0 1.747.748.594.738.594 2.211v3.697h-1.652v-3.84q0-.594-.345-.962-.333-.369-.927-.369-.606 0-.986.381-.369.368-.369.998v3.792z"/><path fill="#FBBB54" d="M563.886 255.993c-1.161.387-2.266-.718-1.879-1.879l5.862-17.586c.436-1.307 2.261-1.368 2.784-.094l2.042 4.981a7.87 7.87 0 0 0 3.928 3.928l4.927 2.007c1.277.521 1.218 2.349-.091 2.786z"/><path fill="#fff" d="M582.8 226.371c0 7.133 5.782 12.915 12.914 12.915h63.715c7.132 0 12.914-5.782 12.914-12.915s-5.782-12.914-12.914-12.914h-63.715c-7.132 0-12.914 5.782-12.914 12.914"/><path fill="#FBBB54" fill-opacity=".2" d="M582.8 226.371c0 7.133 5.782 12.915 12.914 12.915h63.715c7.132 0 12.914-5.782 12.914-12.915s-5.782-12.914-12.914-12.914h-63.715c-7.132 0-12.914 5.782-12.914 12.914"/><path stroke="#FBBB54" stroke-width="1.486" d="M582.8 226.371c0 7.133 5.782 12.915 12.914 12.915h63.715c7.132 0 12.914-5.782 12.914-12.915s-5.782-12.914-12.914-12.914h-63.715c-7.132 0-12.914 5.782-12.914 12.914Z"/><path fill="#000" d="M607.612 230.371v-8.493h1.64v8.493zm5.153 0-2.588-3.674h1.837l2.67 3.674zm-3.998-2.819v-1.329h2.149q.451 0 .775-.185.334-.184.52-.52.185-.335.185-.763 0-.438-.185-.774a1.3 1.3 0 0 0-.52-.52 1.54 1.54 0 0 0-.775-.185h-2.149v-1.398h1.976q1.017 0 1.757.301.75.3 1.155.912t.405 1.537v.185q0 .936-.416 1.537-.405.601-1.144.901-.74.301-1.757.301zm9.937 3.039q-.831 0-1.467-.266a3.2 3.2 0 0 1-1.075-.716 3.3 3.3 0 0 1-.67-1.04 3.4 3.4 0 0 1-.22-1.202v-.243q0-.646.232-1.225a3.3 3.3 0 0 1 .681-1.04 3.1 3.1 0 0 1 1.087-.716 3.7 3.7 0 0 1 1.432-.266q.798 0 1.433.266.636.254 1.075.716.45.452.682 1.04.231.579.231 1.225v.243q0 .624-.231 1.202a3.1 3.1 0 0 1-.659 1.04q-.44.45-1.075.716t-1.456.266m0-1.375q.59 0 .994-.254.405-.266.613-.705.207-.451.208-1.017 0-.577-.22-1.017a1.6 1.6 0 0 0-.624-.705q-.404-.266-.971-.266-.565 0-.982.266-.403.255-.624.705a2.25 2.25 0 0 0-.219 1.017q0 .566.208 1.017.219.439.624.705.404.254.993.254m4.827 1.155v-6.274h1.271v2.692h-.115q0-.959.254-1.594.255-.648.751-.971.509-.324 1.26-.324h.069q1.121 0 1.699.728.578.716.578 2.15v3.593h-1.607v-3.732q0-.577-.335-.936-.323-.358-.901-.358-.59 0-.959.37-.358.357-.358.97v3.686zm11.295 0v-1.86h-.266v-2.068q0-.544-.265-.809-.267-.266-.821-.266a28 28 0 0 0-1.514.046 17 17 0 0 0-.728.035v-1.364q.267-.023.601-.046.336-.023.682-.023.358-.012.67-.012.971 0 1.606.255.648.254.971.797.336.543.335 1.421v3.894zm-2.022.162q-.682 0-1.202-.242a1.9 1.9 0 0 1-.797-.694q-.278-.45-.278-1.086 0-.694.336-1.132.346-.44.959-.659.624-.22 1.456-.22h1.456v.959h-1.479q-.555 0-.856.278a.9.9 0 0 0-.288.693q0 .427.288.693.301.267.856.266.334 0 .612-.115a1.07 1.07 0 0 0 .474-.416q.196-.301.219-.809l.393.45q-.057.66-.323 1.11-.255.45-.717.693-.45.231-1.109.231m5.095-.162v-8.435h1.606v8.435zm-.786-7.233v-1.202h2.392v1.202zm6.826 7.441q-.659 0-1.214-.242a2.8 2.8 0 0 1-.959-.682 3.2 3.2 0 0 1-.624-1.017 3.6 3.6 0 0 1-.219-1.271v-.243q0-.67.208-1.259a3.3 3.3 0 0 1 .601-1.029q.391-.439.936-.681.554-.255 1.224-.255.74 0 1.295.324.566.312.901.947.335.636.37 1.595l-.474-.555v-4.275h1.606v8.435h-1.271v-2.669h.277q-.035.96-.392 1.606a2.4 2.4 0 0 1-.948.959 2.7 2.7 0 0 1-1.317.312m.358-1.352q.474 0 .867-.208.391-.219.624-.624.242-.415.242-.97v-.462q0-.555-.242-.925a1.6 1.6 0 0 0-.636-.578 1.8 1.8 0 0 0-.855-.208q-.52 0-.925.255-.393.241-.624.693-.219.45-.219 1.051 0 .602.231 1.052.231.44.624.682.405.243.913.242"/><defs><clipPath id="c"><path fill="#fff" d="M31.689 233.317h12.673v12.674H31.69z"/></clipPath><clipPath id="d"><path fill="#fff" d="M31.692 288.237h12.674v12.674H31.692z"/></clipPath><clipPath id="f"><path fill="#fff" d="M216.584 31.014h14.025v14.025h-14.025z"/></clipPath><clipPath id="g"><path fill="#fff" d="M244.345 31.014h14.025v14.025h-14.025z"/></clipPath><clipPath id="i"><path fill="#fff" d="M469.139 31.014h-14.025v14.025h14.025z"/></clipPath><clipPath id="j"><path fill="#fff" d="M479.074 31.014h14.025v14.025h-14.025z"/></clipPath><clipPath id="n"><path fill="#fff" d="M566.16 471.692h13.739v13.739H566.16z"/></clipPath><filter id="e" width="248.316" height="37.4" x="22.325" y="20.494" color-interpolation-filters="sRGB" filterUnits="userSpaceOnUse"><feFlood flood-opacity="0" result="BackgroundImageFix"/><feColorMatrix in="SourceAlpha" result="hardAlpha" values="0 0 0 0 0 0 0 0 0 0 0 0 0 0 0 0 0 0 127 0"/><feOffset dy="1.169"/><feGaussianBlur stdDeviation="2.338"/><feComposite in2="hardAlpha" operator="out"/><feColorMatrix values="0 0 0 0 0.0117647 0 0 0 0 0.0431373 0 0 0 0 0.0862745 0 0 0 0.05 0"/><feBlend in2="BackgroundImageFix" result="effect1_dropShadow_14_11799"/><feBlend in="SourceGraphic" in2="effect1_dropShadow_14_11799" result="shape"/></filter><filter id="h" width="123.89" height="37.4" x="442.841" y="20.494" color-interpolation-filters="sRGB" filterUnits="userSpaceOnUse"><feFlood flood-opacity="0" result="BackgroundImageFix"/><feColorMatrix in="SourceAlpha" result="hardAlpha" values="0 0 0 0 0 0 0 0 0 0 0 0 0 0 0 0 0 0 127 0"/><feOffset dy="1.169"/><feGaussianBlur stdDeviation="2.338"/><feComposite in2="hardAlpha" operator="out"/><feColorMatrix values="0 0 0 0 0.0117647 0 0 0 0 0.0431373 0 0 0 0 0.0862745 0 0 0 0.05 0"/><feBlend in2="BackgroundImageFix" result="effect1_dropShadow_14_11799"/><feBlend in="SourceGraphic" in2="effect1_dropShadow_14_11799" result="shape"/></filter><filter id="k" width="120.282" height="37.4" x="564.393" y="20.494" color-interpolation-filters="sRGB" filterUnits="userSpaceOnUse"><feFlood flood-opacity="0" result="BackgroundImageFix"/><feColorMatrix in="SourceAlpha" result="hardAlpha" values="0 0 0 0 0 0 0 0 0 0 0 0 0 0 0 0 0 0 127 0"/><feOffset dy="1.169"/><feGaussianBlur stdDeviation="2.338"/><feComposite in2="hardAlpha" operator="out"/><feColorMatrix values="0 0 0 0 0.0117647 0 0 0 0 0.0431373 0 0 0 0 0.0862745 0 0 0 0.05 0"/><feBlend in2="BackgroundImageFix" result="effect1_dropShadow_14_11799"/><feBlend in="SourceGraphic" in2="effect1_dropShadow_14_11799" result="shape"/></filter><filter id="l" width="67.549" height="37.209" x="404.158" y="461.099" color-interpolation-filters="sRGB" filterUnits="userSpaceOnUse"><feFlood flood-opacity="0" result="BackgroundImageFix"/><feColorMatrix in="SourceAlpha" result="hardAlpha" values="0 0 0 0 0 0 0 0 0 0 0 0 0 0 0 0 0 0 127 0"/><feOffset dy="1.145"/><feGaussianBlur stdDeviation="2.29"/><feComposite in2="hardAlpha" operator="out"/><feColorMatrix values="0 0 0 0 0.0117647 0 0 0 0 0.0431373 0 0 0 0 0.0862745 0 0 0 0.05 0"/><feBlend in2="BackgroundImageFix" result="effect1_dropShadow_14_11799"/><feBlend in="SourceGraphic" in2="effect1_dropShadow_14_11799" result="shape"/></filter><filter id="m" width="216.96" height="37.209" x="469.417" y="461.099" color-interpolation-filters="sRGB" filterUnits="userSpaceOnUse"><feFlood flood-opacity="0" result="BackgroundImageFix"/><feColorMatrix in="SourceAlpha" result="hardAlpha" values="0 0 0 0 0 0 0 0 0 0 0 0 0 0 0 0 0 0 127 0"/><feOffset dy="1.145"/><feGaussianBlur stdDeviation="2.29"/><feComposite in2="hardAlpha" operator="out"/><feColorMatrix values="0 0 0 0 0.0117647 0 0 0 0 0.0431373 0 0 0 0 0.0862745 0 0 0 0.05 0"/><feBlend in2="BackgroundImageFix" result="effect1_dropShadow_14_11799"/><feBlend in="SourceGraphic" in2="effect1_dropShadow_14_11799" result="shape"/></filter><linearGradient id="a" x1="27.724" x2="29.233" y1="91.604" y2="110.962" gradientUnits="userSpaceOnUse"><stop stop-color="#D461F0"/><stop offset=".525" stop-color="#A587FF"/><stop offset="1" stop-color="#618CFF"/></linearGradient><linearGradient id="b" x1="31.948" x2="32.845" y1="95.731" y2="107.323" gradientUnits="userSpaceOnUse"><stop stop-color="#D461F0"/><stop offset=".525" stop-color="#A587FF"/><stop offset="1" stop-color="#618CFF"/></linearGradient><linearGradient id="o" x1="657.182" x2="673.279" y1="481.431" y2="490.21" gradientUnits="userSpaceOnUse"><stop stop-color="#FFFCFC" stop-opacity=".7"/><stop offset="1" stop-color="#FFFEFE" stop-opacity=".5"/></linearGradient></defs></svg>