<svg width="48" height="48" viewBox="0 0 48 48" fill="none" xmlns="http://www.w3.org/2000/svg">
<path d="M8.4375 24.1051H3.75C3.55127 24.1057 3.36085 24.1849 3.22033 24.3254C3.0798 24.466 3.00059 24.6564 3 24.8551V39.8836C3.00059 40.0823 3.0798 40.2728 3.22033 40.4133C3.36085 40.5538 3.55127 40.633 3.75 40.6336H8.4375C9.03072 40.6348 9.60031 40.4012 10.0219 39.9839C10.4435 39.5665 10.6827 38.9993 10.6875 38.4061V26.3551C10.684 25.7595 10.4458 25.1892 10.0246 24.768C9.60338 24.3468 9.03314 24.1086 8.4375 24.1051ZM6.84 29.3551C6.64109 29.3551 6.45032 29.2761 6.30967 29.1354C6.16902 28.9948 6.09 28.804 6.09 28.6051C6.09 28.4062 6.16902 28.2154 6.30967 28.0748C6.45032 27.9341 6.64109 27.8551 6.84 27.8551C7.03891 27.8551 7.22968 27.9341 7.37033 28.0748C7.51098 28.2154 7.59 28.4062 7.59 28.6051C7.59 28.804 7.51098 28.9948 7.37033 29.1354C7.22968 29.2761 7.03891 29.3551 6.84 29.3551ZM44.8313 32.6394C44.5796 31.9288 44.0659 31.3412 43.3953 30.9969C42.7247 30.6525 41.9479 30.5774 41.2238 30.7869L34.872 32.6319C34.8422 33.8951 34.3195 35.0966 33.4155 35.9796C32.5116 36.8625 31.2981 37.3568 30.0345 37.3568H23.0235C22.8246 37.3568 22.6338 37.2778 22.4932 37.1372C22.3525 36.9965 22.2735 36.8058 22.2735 36.6068C22.2735 36.4079 22.3525 36.2172 22.4932 36.0765C22.6338 35.9359 22.8246 35.8568 23.0235 35.8568H30.0353C34.4482 35.7234 34.4603 29.3011 30.0353 29.1594H24.6128C24.1637 29.1611 23.7237 29.0335 23.3453 28.7919C21.5288 27.6451 19.194 25.8421 16.9185 26.0026H12.171C12.1785 26.1076 12.186 26.2276 12.186 26.3551V38.4061C12.1845 38.6608 12.1569 38.9146 12.1035 39.1636C12.3443 39.1794 12.578 39.2513 12.786 39.3736L18.576 42.7486C20.1055 43.6415 21.8298 44.1478 23.5993 44.2236C25.3687 44.2994 27.1299 43.9424 28.7302 43.1836L43.3088 36.2836C43.969 35.9728 44.4903 35.4279 44.7716 34.7546C45.0529 34.0813 45.0742 33.3275 44.8313 32.6394ZM22.4985 15.7359H21.0285C21.2105 18.4526 22.372 21.011 24.2973 22.9363C26.2226 24.8616 28.781 26.0231 31.4978 26.2051V24.7351C31.4978 24.5362 31.5768 24.3454 31.7174 24.2048C31.8581 24.0641 32.0488 23.9851 32.2478 23.9851C32.4467 23.9851 32.6374 24.0641 32.7781 24.2048C32.9187 24.3454 32.9978 24.5362 32.9978 24.7351V26.2051C35.7143 26.0227 38.2725 24.861 40.1975 22.9356C42.1225 21.0101 43.2837 18.4517 43.4655 15.7351H41.9955C41.7966 15.7351 41.6058 15.6561 41.4652 15.5154C41.3245 15.3748 41.2455 15.184 41.2455 14.9851C41.2455 14.7862 41.3245 14.5954 41.4652 14.4548C41.6058 14.3141 41.7966 14.2351 41.9955 14.2351H43.4655C43.2833 11.5186 42.1219 8.96049 40.1968 7.03535C38.2716 5.1102 35.7135 3.94878 32.997 3.7666V5.2366C32.997 5.43551 32.918 5.62628 32.7773 5.76693C32.6367 5.90758 32.4459 5.9866 32.247 5.9866C32.0481 5.9866 31.8573 5.90758 31.7167 5.76693C31.576 5.62628 31.497 5.43551 31.497 5.2366V3.7666C28.7803 3.94882 26.222 5.11046 24.2968 7.03591C22.3716 8.96136 21.2103 11.5199 21.0285 14.2366H22.4985C22.6932 14.2428 22.8779 14.3244 23.0134 14.4643C23.149 14.6043 23.2248 14.7914 23.2248 14.9862C23.2248 15.181 23.149 15.3682 23.0134 15.5081C22.8779 15.648 22.6932 15.7297 22.4985 15.7359ZM29.5928 16.5759L31.4978 14.6709V9.73585C31.4978 9.53694 31.5768 9.34617 31.7174 9.20552C31.8581 9.06487 32.0488 8.98585 32.2478 8.98585C32.4467 8.98585 32.6374 9.06487 32.7781 9.20552C32.9187 9.34617 32.9978 9.53694 32.9978 9.73585V14.9859C32.9953 15.1845 32.9176 15.3748 32.7803 15.5184L30.6577 17.6409C30.5165 17.7821 30.325 17.8614 30.1252 17.8614C29.9255 17.8614 29.734 17.7821 29.5928 17.6409C29.4515 17.4996 29.3722 17.3081 29.3722 17.1084C29.3722 16.9086 29.4515 16.7171 29.5928 16.5759Z" fill="#EF1C79"/>
</svg>
