<svg xmlns="http://www.w3.org/2000/svg" width="706" height="515" fill="none"><rect width="698" height="507" x="4" y="4" fill="#F5F5F5" rx="24"/><rect width="698" height="507" x="4" y="4" stroke="#E9ECF2" stroke-width="8" rx="24"/><rect width="27.522" height="386.015" x="24.264" y="86.145" fill="#fff" stroke="#EEE" stroke-width=".528" rx="5.017"/><rect width="21.123" height="21.123" x="27.466" y="91.799" fill="url(#a)" fill-opacity=".16" rx="4.225"/><path fill="url(#b)" d="M39.228 99.223c-1.578-.321-2.811-1.52-3.142-3.053a.4.4 0 0 0-.146-.232.426.426 0 0 0-.527 0 .4.4 0 0 0-.146.232c-.33 1.534-1.564 2.732-3.142 3.053a.42.42 0 0 0-.24.142.4.4 0 0 0 0 .512c.061.073.146.123.24.142 1.578.321 2.811 1.52 3.142 3.053.02.091.071.173.145.232a.425.425 0 0 0 .528 0 .4.4 0 0 0 .146-.232c.33-1.533 1.564-2.732 3.142-3.053a.42.42 0 0 0 .239-.142.4.4 0 0 0 0-.512.42.42 0 0 0-.239-.142m-.692 6.715a1.89 1.89 0 0 1-1.48-1.438.4.4 0 0 0-.146-.232.425.425 0 0 0-.673.232 1.89 1.89 0 0 1-1.48 1.438.42.42 0 0 0-.24.142.4.4 0 0 0 0 .512c.061.073.145.123.24.142a1.89 1.89 0 0 1 1.48 1.438.4.4 0 0 0 .146.232.425.425 0 0 0 .527 0 .4.4 0 0 0 .146-.232 1.89 1.89 0 0 1 1.48-1.438.42.42 0 0 0 .24-.142.4.4 0 0 0 0-.512.42.42 0 0 0-.24-.142m5.653-3.763c-1.005-.205-1.79-.968-2.001-1.945a.4.4 0 0 0-.146-.232.426.426 0 0 0-.528 0 .4.4 0 0 0-.145.232c-.211.977-.996 1.74-2.001 1.945a.42.42 0 0 0-.24.141.4.4 0 0 0 0 .513.42.42 0 0 0 .24.141c1.005.205 1.79.968 2 1.945.02.091.072.173.146.232a.43.43 0 0 0 .528 0 .4.4 0 0 0 .145-.232c.211-.977.997-1.74 2.002-1.945a.42.42 0 0 0 .239-.141.4.4 0 0 0-.24-.654"/><rect width="21.123" height="21.123" x="27.466" y="119.257" fill="#fff" rx="4.225"/><path stroke="#18181B" stroke-linecap="round" stroke-width=".792" d="M35.39 124.565v10.561M40.665 124.565v10.561M43.303 127.209H32.742M43.303 132.49H32.742"/><path stroke="#18181B" stroke-width=".792" d="M39.094 158.374h4.337v4.337h-4.337zM43.434 154.262a2.38 2.38 0 0 1-2.375 2.376 2.38 2.38 0 0 1-2.376-2.376 2.38 2.38 0 0 1 2.376-2.376 2.38 2.38 0 0 1 2.375 2.376ZM32.893 156.343l2.3-4.051 2.3 4.051zM33.885 162.713l-1.215-2.105 1.215-2.106h2.43l1.216 2.106-1.215 2.105z"/><rect width="21.123" height="21.123" x="27.466" y="174.174" fill="#fff" rx="4.225"/><path stroke="#18181B" stroke-linejoin="round" stroke-width=".792" d="m40.452 189.358-1.291.341c-1.196.317-1.793.475-2.261.216s-.624-.834-.936-1.985l-.772-2.847c-.312-1.15-.468-1.725-.194-2.181s.872-.614 2.067-.93l2.112-.559c1.195-.316 1.793-.475 2.26-.216.47.259.625.835.937 1.985l.775 2.858c.133.489.2.734.126.964m-2.823 2.354c.397-.106.4-.107.709-.372l1.449-1.243c.395-.34.592-.509.665-.739m-2.823 2.354s.31-2.426 1.005-2.746c.789-.363 1.818.392 1.818.392"/><path stroke="#18181B" stroke-width=".792" d="M40.663 181.069c-.034-.567-.128-.923-.397-1.179-.412-.392-1.072-.394-2.393-.398l-2.336-.007c-1.321-.004-1.982-.006-2.391.384-.41.389-.407 1.018-.404 2.275l.01 3.113c.004 1.257.006 1.886.417 2.278.412.392 1.073.393 2.394.397l.36.001"/><path stroke="#18181B" stroke-linecap="round" stroke-linejoin="round" stroke-width=".792" d="M42.4 214.947v-6.324m-7.426 7.378h6.364m0-8.432h-6.364m-1.06 1.054v6.324"/><path fill="#18181B" d="m39.697 209.851.09-.386zm-3.082 0 .09.386zm-.43.163.269.291zm-.546.6a.396.396 0 0 0 .792 0zm.458-.489-.343-.198zm4.03-.111.269-.291zm-.245.6a.396.396 0 0 0 .792 0zm.333-.489-.343.198zm-2.455 3.768a.396.396 0 1 0 .792 0zm1.103.396a.396.396 0 1 0 0-.792zm-1.414-.792a.396.396 0 1 0 0 .792zm.707-3.424c.502 0 .989.057 1.452.164l.178-.772a7.3 7.3 0 0 0-1.63-.184zm-1.451.164a6.4 6.4 0 0 1 1.451-.164v-.792c-.562 0-1.109.064-1.63.184zm-.179-.772c-.19.044-.424.087-.61.258l.538.582v.001q-.002 0 0 0l.026-.011c.044-.015.104-.03.225-.058zm-.095 1.149c0-.135 0-.207.006-.259.004-.043.009-.043.003-.032l-.686-.396a.85.85 0 0 0-.106.348c-.01.101-.01.22-.01.339zm-.514-.891a1 1 0 0 0-.163.204l.686.396.001-.002.006-.007.005-.007.002-.002zm3.69.514a3 3 0 0 1 .252.069v-.001l.537-.582c-.186-.171-.42-.214-.61-.258zm1.067.377c0-.119 0-.238-.01-.339a.85.85 0 0 0-.105-.348l-.687.396c-.006-.011 0-.011.004.032.005.052.006.124.006.259zm-.816-.309.002.002.006.007.005.007.001.002.687-.396a1 1 0 0 0-.163-.204zm-2.098-.628v4.216h.792v-4.216zm1.103 3.82H37.45v.792h1.414z"/><rect width="2.121" height="2.108" x="41.338" y="206.515" stroke="#18181B" stroke-width=".792" rx=".528"/><rect width="2.121" height="2.108" x="32.852" y="206.515" stroke="#18181B" stroke-width=".792" rx=".528"/><rect width="2.121" height="2.108" x="41.338" y="214.947" stroke="#18181B" stroke-width=".792" rx=".528"/><rect width="2.121" height="2.108" x="32.852" y="214.947" stroke="#18181B" stroke-width=".792" rx=".528"/><g stroke="#18181B" stroke-width=".792" clip-path="url(#c)"><path d="M36.44 239.654c0-.747 0-1.12-.27-1.352s-.706-.232-1.577-.232c-.872 0-1.307 0-1.578.232-.27.232-.27.605-.27 1.352s0 1.12.27 1.352.706.232 1.578.232c.87 0 1.306 0 1.577-.232s.27-.605.27-1.352ZM43.306 235.957c0-.746 0-1.12-.217-1.352-.216-.232-.565-.232-1.262-.232h-.74c-.696 0-1.045 0-1.261.232-.217.232-.217.606-.217 1.352s0 1.121.217 1.353c.216.232.565.232 1.262.232h.74c.696 0 1.045 0 1.261-.232.217-.232.217-.606.217-1.353ZM43.306 243.35c0-.746 0-1.12-.217-1.352-.216-.232-.565-.232-1.262-.232h-.74c-.696 0-1.045 0-1.261.232-.217.232-.217.606-.217 1.352s0 1.12.217 1.352c.216.232.565.232 1.262.232h.74c.696 0 1.045 0 1.261-.232.217-.232.217-.605.217-1.352Z"/><path stroke-linecap="round" stroke-linejoin="round" d="M38.025 239.653v2.137c0 .99.484 1.434 1.584 1.56m-1.584-3.697v-2.137c0-.933.411-1.422 1.584-1.559m-1.584 3.696h-1.584"/></g><path stroke="#18181B" stroke-width=".792" d="M33.01 267.141c0-2.365 0-3.547.734-4.282s1.917-.734 4.282-.734c2.364 0 3.547 0 4.282.734.734.735.734 1.917.734 4.282s0 3.548-.734 4.282c-.735.735-1.917.735-4.282.735s-3.548 0-4.282-.735c-.735-.734-.735-1.917-.735-4.282Z"/><path stroke="#18181B" stroke-width=".792" d="M40.4 265.56a.792.792 0 1 0 0-1.583.792.792 0 0 0 0 1.583Z"/><path stroke="#18181B" stroke-linejoin="round" stroke-width=".792" d="M40.14 272.421c-.327-1.175-1.09-2.227-2.177-2.992-1.172-.824-2.643-1.261-4.151-1.231a7 7 0 0 0-.537.017"/><path stroke="#18181B" stroke-linejoin="round" stroke-width=".792" d="M38.548 270.309c.898-.701 1.866-1.06 2.844-1.056a4.1 4.1 0 0 1 1.644.349"/><g stroke="#18181B" stroke-linejoin="round" stroke-width=".792" clip-path="url(#d)"><path d="M40.633 289.942c.31-.31.465-.465.637-.539a.98.98 0 0 1 .775 0c.172.074.327.229.637.539s.465.465.54.637a.98.98 0 0 1 0 .776c-.075.172-.23.327-.54.637l-2.651 2.651c-.654.654-.98.98-1.39 1.174s-.868.239-1.788.33l-.416.041.04-.417c.092-.919.137-1.379.33-1.788.194-.409.52-.736 1.174-1.389z"/><path stroke-linecap="round" d="M34.854 296.19h-1.188a.924.924 0 1 0 0 1.848h5.017a.924.924 0 0 1 0 1.848h-1.189"/></g><path stroke="#18181B" stroke-linecap="round" stroke-linejoin="round" stroke-width=".792" d="M33.744 326.345c-.735-.735-.735-1.917-.735-4.282s0-3.547.735-4.282c.734-.735 1.917-.735 4.282-.735 2.364 0 3.547 0 4.282.735s.734 1.917.734 4.282 0 3.547-.734 4.282c-.735.735-1.917.735-4.282.735s-3.548 0-4.282-.735"/><path stroke="#18181B" stroke-width=".792" d="M33.01 320.479h10.032M33.01 323.645h10.032M40.138 327.08v-10.034M35.912 327.08v-10.034"/><path stroke="#18181B" stroke-linecap="round" stroke-width=".792" d="M36.967 350.168q.112.185.267.346a1.88 1.88 0 0 0 2.737 0l1.71-1.781a2.07 2.07 0 0 0 0-2.848 1.88 1.88 0 0 0-2.737 0l-.377.392"/><path stroke="#18181B" stroke-linecap="round" stroke-width=".792" d="m37.479 352.761-.377.392a1.883 1.883 0 0 1-2.737 0 2.073 2.073 0 0 1 0-2.849l1.71-1.78a1.88 1.88 0 0 1 2.737 0q.154.161.267.345"/><path stroke="#18181B" stroke-linecap="round" stroke-linejoin="round" stroke-width=".792" d="M42.779 351.63H41.68m-1.543 2.64v-1.098M33.275 347.404h1.098m1.543-2.641v1.098M39.55 371.964v.264c0 1.494 0 2.241.465 2.705.464.464 1.21.464 2.704.464h.264m.264.875v1.765c0 1.992 0 2.987-.619 3.606-.618.619-1.614.619-3.605.619-1.992 0-2.988 0-3.606-.619-.619-.619-.619-1.614-.619-3.606v-2.4c0-1.713 0-2.57.468-3.15q.142-.176.319-.319c.58-.468 1.437-.468 3.15-.468.373 0 .56 0 .73.061q.053.018.104.043c.163.078.295.209.558.473l2.501 2.501c.306.305.458.458.539.652.08.194.08.41.08.842"/><path stroke="#18181B" stroke-linecap="round" stroke-linejoin="round" stroke-width=".792" d="M38.496 380.15c-.32-.312-1.584-1.141-1.584-1.584s1.264-1.273 1.584-1.585m-1.056 1.585h3.697M44.306 406.082v-4.694c0-.553 0-.829-.172-1.001s-1.035-.172-1.589-.172c-.553 0-1.416 0-1.588.172s-.172.448-.172 1.001v4.694c0 .554 0 .83.172 1.002s1.035.172 1.588.172 1.417 0 1.589-.172.172-.448.172-1.002M40.784 408.427v-7.041c0-.553 0-.829-.172-1.001s-1.035-.172-1.588-.172-1.417 0-1.589.172-.171.448-.171 1.001v7.041c0 .553 0 .83.171 1.002s1.036.172 1.589.172 1.416 0 1.588-.172.172-.449.172-1.002M37.262 406.669v-5.281c0-.553 0-.829-.172-1.001s-1.035-.172-1.588-.172-1.417 0-1.589.172-.172.448-.172 1.001v5.281c0 .553 0 .83.172 1.002s1.035.172 1.589.172c.553 0 1.416 0 1.588-.172s.172-.449.172-1.002M35.856 401.798H34.8M39.556 401.798H38.5M43.247 401.798h-1.056"/><path stroke="#282828" stroke-width=".792" d="M43.309 431.898a5.28 5.28 0 1 1-10.561 0 5.28 5.28 0 0 1 10.56 0Z"/><path stroke="#282828" stroke-linecap="round" stroke-linejoin="round" stroke-width=".792" d="M39.08 430.313h-1.632a.264.264 0 0 0-.259.212l-.222 1.108c.367-.087.716-.188 1.094-.188a1.018 1.018 0 1 1 0 2.037c-.437 0-.955.009-1.077-.529"/><rect width="17.954" height="17.954" x="29.047" y="448.764" fill="#6762FE" rx="4.225"/><path fill="#fff" stroke="#fff" stroke-width=".792" d="M33.763 457.765c0-2.011 0-3.016.624-3.64.625-.625 1.63-.625 3.64-.625s3.015 0 3.64.625c.624.624.624 1.629.624 3.64 0 2.01 0 3.015-.624 3.639-.625.625-1.63.625-3.64.625s-3.015 0-3.64-.625c-.624-.624-.624-1.629-.624-3.639Z"/><path stroke="#6762FE" stroke-linecap="round" stroke-linejoin="round" stroke-width=".792" d="M38.029 455.971v3.591m1.795-1.796h-3.59"/><g filter="url(#e)"><rect width="237.965" height="28.05" x="27" y="24" fill="#fff" rx="5.844"/><rect width="237.381" height="27.466" x="27.292" y="24.292" stroke="#EEE" stroke-width=".584" rx="5.552"/><path fill="#6762FE" fill-rule="evenodd" d="M39.716 46.196c4.56-.273 7.838-4.058 7.712-8.434a8.173 8.173 0 0 0-8.53-7.906c-4.603.209-8.07 4.1-7.797 8.706.252 4.438 4.16 7.907 8.615 7.634m3.09-7.086c-.42 2.06-1.62 3.512-3.573 4.415a.3.3 0 0 1 .099.013q.022.008.048.008c3.215 0 5.778-2.944 5.358-6.183-.336-2.629-2.5-4.69-5.063-4.837-2.963-.167-5.463 1.85-5.884 4.837-.147 1.052.02 2.04.757 2.839.924 1.008 2.08 1.366 3.403.946 1.344-.42 2.1-1.41 2.27-2.797.02-.293.126-.316.358-.316h1.344q1.091 0 .882 1.073z" clip-rule="evenodd"/><path stroke="#282828" stroke-linecap="round" stroke-linejoin="round" stroke-width=".877" d="m53.885 36.277 3.093 3.093c.194.195.292.293.413.293.12 0 .218-.098.413-.292l3.093-3.094"/><path stroke="#EEE" stroke-width=".584" d="M69.367 27.506v21.038"/><rect width="117" height="16.35" x="73.749" y="29.85" fill="#fff" rx="4.675"/><path fill="#000" d="M79.18 41.525v-6.872h.825l3.662 5.517v-5.517h.825v6.872h-.825l-3.662-5.517v5.517zm8.908.118q-.687 0-1.217-.334a2.3 2.3 0 0 1-.835-.942q-.294-.608-.294-1.424 0-.815.294-1.423.304-.609.835-.943.54-.334 1.237-.334.745 0 1.246.334t.756.893.256 1.228v.196q0 .098-.01.236H86.36v-.639h3.2q-.02-.756-.441-1.148-.413-.403-1.031-.403-.412 0-.766.207-.344.196-.56.589t-.216.981v.275q0 .648.216 1.09.216.432.56.648.354.216.766.216.549 0 .864-.206.315-.216.461-.609h.815a2 2 0 0 1-.412.776q-.285.344-.727.54-.431.196-1.001.196m5.26-.118q-.442 0-.766-.137a1 1 0 0 1-.5-.462q-.167-.333-.167-.893v-2.975h-.903v-.697h.903l.108-1.286h.717v1.286h1.462v.697H92.74v2.975q0 .461.186.628.186.157.658.157h.599v.707zm3.056 0-1.522-5.164h.825l1.129 4.114 1.198-4.114h.932l1.208 4.104 1.119-4.104h.835l-1.522 5.164h-.844l-1.257-4.3-1.257 4.3zm8.703.118q-.715 0-1.266-.334a2.26 2.26 0 0 1-.854-.942q-.304-.608-.304-1.424 0-.825.304-1.423.314-.609.864-.943a2.44 2.44 0 0 1 1.276-.334q.726 0 1.267.334.55.334.854.943.304.598.304 1.423 0 .815-.314 1.424-.305.608-.854.942-.55.334-1.277.334m0-.707q.453 0 .815-.216.364-.225.57-.667.216-.452.216-1.11 0-.667-.206-1.11a1.46 1.46 0 0 0-.57-.657 1.46 1.46 0 0 0-.805-.226q-.441 0-.805.226a1.5 1.5 0 0 0-.579.658q-.216.441-.216 1.11 0 .657.206 1.108.216.442.569.668.364.216.805.216m3.64.59V36.36h.746l.059.943q.176-.353.461-.59.285-.235.687-.353.413-.117.923-.118v.864h-.51a2 2 0 0 0-.57.079q-.275.078-.5.255a1.2 1.2 0 0 0-.344.481q-.128.304-.128.766v2.837zm6.859 0-2.347-2.79 2.209-2.375h1.011l-2.523 2.67.01-.589 2.69 3.083zm-3.034 0v-7.07h.825v7.07zm9.724.117q-.687 0-1.218-.354a2.37 2.37 0 0 1-.824-.962 3.2 3.2 0 0 1-.295-1.394q0-.785.295-1.384.294-.609.824-.952a2.16 2.16 0 0 1 1.228-.354q.608 0 1.04.246.442.245.697.687v-2.72h.825v7.07h-.746l-.069-.826a2 2 0 0 1-.393.462 1.9 1.9 0 0 1-.579.353 2.2 2.2 0 0 1-.785.128m.108-.717q.49 0 .854-.235.364-.246.559-.688a2.6 2.6 0 0 0 .197-1.06q0-.609-.197-1.05a1.5 1.5 0 0 0-.559-.688 1.5 1.5 0 0 0-.854-.245q-.462 0-.825.245a1.57 1.57 0 0 0-.569.688q-.207.441-.207 1.05 0 .61.207 1.06.206.442.569.688.363.235.825.235m3.938.6V36.36h.824v5.164zm.412-6.147a.58.58 0 0 1-.412-.157.58.58 0 0 1-.158-.412q0-.246.158-.393a.58.58 0 0 1 .412-.157q.235 0 .402.157.167.148.167.393a.56.56 0 0 1-.167.412.56.56 0 0 1-.402.157m3.487 6.264q-.59 0-.982-.216a1.5 1.5 0 0 1-.589-.59 1.7 1.7 0 0 1-.196-.794q0-.51.255-.864.265-.364.737-.55.47-.186 1.099-.187h1.286q0-.5-.118-.834a.94.94 0 0 0-.382-.5q-.266-.168-.707-.168a1.26 1.26 0 0 0-.756.226q-.315.216-.393.648h-.844q.059-.51.343-.854.285-.353.717-.53.442-.187.933-.187.696 0 1.148.255.452.246.668.698.216.441.216 1.05v3.28h-.736l-.049-.885a1.8 1.8 0 0 1-.256.393 1.6 1.6 0 0 1-.353.314 1.8 1.8 0 0 1-.471.216 2 2 0 0 1-.57.079m.118-.697q.324 0 .599-.147.275-.148.471-.393.207-.255.314-.57a2 2 0 0 0 .108-.657v-.099h-1.217q-.462 0-.756.118a.82.82 0 0 0-.412.334.9.9 0 0 0-.128.471q0 .285.118.501a.8.8 0 0 0 .343.324q.236.118.56.118m5.702 2.857q-.698 0-1.227-.177-.52-.167-.815-.52-.285-.354-.285-.874 0-.246.088-.51.099-.265.324-.511.237-.246.658-.442l.629.334q-.56.215-.727.5a1.1 1.1 0 0 0-.167.55q0 .324.187.54.197.216.54.324t.795.108q.441 0 .756-.117.323-.108.491-.324a.73.73 0 0 0 .176-.491q0-.412-.265-.648-.264-.226-1.031-.265a10 10 0 0 1-1.001-.108 5 5 0 0 1-.668-.157 2.2 2.2 0 0 1-.431-.216 3 3 0 0 1-.305-.246v-.226l.972-.932.776.255-1.061.874.128-.373.206.147q.099.069.265.127.177.05.481.099.315.048.825.088.707.049 1.129.236.422.186.609.52.186.324.186.795 0 .413-.235.786-.226.372-.727.608-.491.246-1.276.246m-.01-3.888q-.629 0-1.07-.236a1.7 1.7 0 0 1-.658-.657 2 2 0 0 1-.226-.943q0-.52.226-.932.236-.413.668-.658.441-.246 1.06-.246.638 0 1.07.246.432.245.658.658.226.411.226.932 0 .52-.226.943-.226.413-.658.657-.432.236-1.07.236m0-.677q.55 0 .854-.285.305-.295.305-.874t-.305-.864q-.304-.285-.854-.285-.52 0-.854.285-.324.285-.324.864 0 .58.314.874.324.285.864.285m.864-2.18-.245-.697h2.022v.619zm2.77 4.467v-5.164h.747l.058.943q.177-.353.462-.59.285-.235.687-.353.413-.117.923-.118v.864h-.511q-.294 0-.569.079-.274.078-.501.255a1.2 1.2 0 0 0-.343.481q-.128.304-.128.766v2.837zm5.436.118q-.59 0-.982-.216a1.5 1.5 0 0 1-.589-.59 1.7 1.7 0 0 1-.196-.794q0-.51.255-.864.265-.364.736-.55a3 3 0 0 1 1.1-.187h1.286q0-.5-.118-.834a.93.93 0 0 0-.383-.5q-.264-.168-.707-.168-.441 0-.755.226-.315.216-.393.648h-.845q.06-.51.344-.854.285-.353.717-.53.441-.187.932-.187.698 0 1.149.255.452.246.668.698.216.441.216 1.05v3.28h-.737l-.049-.885q-.097.207-.255.393a1.64 1.64 0 0 1-.825.53q-.255.08-.569.079m.118-.697q.323 0 .599-.147.275-.148.471-.393.206-.255.314-.57a2 2 0 0 0 .108-.657v-.099h-1.217q-.462 0-.756.118a.82.82 0 0 0-.54.805q0 .285.118.501a.8.8 0 0 0 .343.324q.236.118.56.118m3.679.58V36.36h.746l.04.707q.235-.383.638-.599.403-.225.844-.226.373 0 .668.108.304.099.53.314.225.207.363.52.255-.461.687-.696.442-.246.923-.246.57 0 .972.226.412.216.628.668.226.441.226 1.109v3.28h-.815v-3.192q0-.696-.304-1.04-.305-.345-.825-.344a1.2 1.2 0 0 0-.648.187 1.34 1.34 0 0 0-.461.55q-.167.363-.167.883v2.955h-.825v-3.19q0-.698-.304-1.041-.305-.345-.815-.344a1.17 1.17 0 0 0-.638.187q-.285.186-.461.55-.177.363-.177.883v2.955zm11.324 0v-6.873h.963l2.336 4.84 2.317-4.84h.972v6.872h-.825v-5.39l-2.16 4.487h-.618l-2.16-4.447v5.35zm9.653.117q-.59 0-.982-.216a1.5 1.5 0 0 1-.589-.59 1.7 1.7 0 0 1-.196-.794q0-.51.255-.864.265-.364.736-.55a3 3 0 0 1 1.1-.187h1.286q0-.5-.118-.834a.93.93 0 0 0-.383-.5q-.264-.168-.706-.168a1.26 1.26 0 0 0-.756.226q-.315.216-.393.648h-.844q.058-.51.343-.854.285-.353.717-.53a2.4 2.4 0 0 1 .933-.187q.696 0 1.148.255.452.246.668.698.216.441.216 1.05v3.28h-.737l-.049-.885q-.097.207-.255.393a1.64 1.64 0 0 1-.825.53q-.255.08-.569.079m.118-.697q.323 0 .599-.147.275-.148.471-.393.206-.255.314-.57a2 2 0 0 0 .108-.657v-.099h-1.217q-.462 0-.756.118a.82.82 0 0 0-.54.805q0 .285.118.501a.8.8 0 0 0 .343.324q.236.118.56.118m6.713.58-2.347-2.79 2.209-2.375h1.012l-2.523 2.67.009-.589 2.69 3.083zm-3.034 0v-7.07h.825v7.07zm6.742.117q-.686 0-1.217-.334a2.3 2.3 0 0 1-.834-.942q-.295-.608-.295-1.424 0-.815.295-1.423.304-.609.834-.943.54-.334 1.237-.334.747 0 1.247.334t.756.893q.255.56.255 1.228v.196q0 .098-.01.236h-3.995v-.639h3.2q-.02-.756-.442-1.148-.412-.403-1.031-.403-.412 0-.765.207-.344.196-.56.589t-.216.981v.275q0 .648.216 1.09.216.432.56.648.353.216.765.216.55 0 .864-.206.315-.216.462-.609h.815a2 2 0 0 1-.413.776q-.284.344-.726.54a2.4 2.4 0 0 1-1.002.196m3.421-.118v-5.164h.746l.059.943q.177-.353.461-.59.285-.235.688-.353.412-.117.923-.118v.864h-.511q-.294 0-.569.079a1.4 1.4 0 0 0-.501.255 1.2 1.2 0 0 0-.344.481q-.127.304-.127.766v2.837z"/><rect width="21.038" height="21.038" x="190.749" y="27.506" fill="#fff" rx="4.675"/><path stroke="#18181B" stroke-linecap="round" stroke-linejoin="round" stroke-width=".877" d="M196.982 34.275h8.57M196.982 38.026h8.571M196.982 41.773h8.571"/><rect width="20.526" height="20.526" x="212.042" y="27.762" fill="#fff" stroke="#fff" stroke-width=".511" rx="4.419"/><g clip-path="url(#f)"><path fill="#282828" fill-rule="evenodd" d="M222.409 32.87a1.3 1.3 0 0 0-.204-.314 1.3 1.3 0 0 0-.208.318l-1.132 2.282a2.3 2.3 0 0 1-.688.804 2.3 2.3 0 0 1-.962.431l-.003.001-2.055.344c-.18.03-.291.075-.352.108.031.064.096.169.23.303l1.597 1.61c.287.29.463.657.557.988.094.332.136.733.049 1.126l-.002.006-.457 1.994c-.046.2-.059.35-.058.453.096-.03.229-.087.399-.19l1.934-1.153c.369-.217.79-.296 1.155-.296s.787.079 1.157.3l1.925 1.149c.171.102.305.159.402.19 0-.104-.013-.254-.059-.453l-.459-2a2.34 2.34 0 0 1 .049-1.126c.094-.33.27-.698.557-.987l1.6-1.613a1.2 1.2 0 0 0 .229-.3 1.2 1.2 0 0 0-.354-.109l-2.054-.344a2.3 2.3 0 0 1-.969-.43 2.3 2.3 0 0 1-.691-.806zm2.046 1.837c.154.318.567.623.915.682l2.055.344c1.314.22 1.623 1.182.676 2.13l-1.598 1.611c-.27.273-.418.8-.335 1.176l.458 1.994c.36 1.578-.471 2.189-1.856 1.364l-1.926-1.15c-.347-.208-.921-.208-1.275 0l-1.926 1.15c-1.379.825-2.216.208-1.855-1.364l.457-1.994c.084-.377-.065-.903-.335-1.176l-1.598-1.61c-.94-.949-.637-1.91.677-2.13l2.055-.345c.341-.059.753-.364.908-.682l1.134-2.286c.618-1.241 1.623-1.241 2.235 0z" clip-rule="evenodd"/></g><path stroke="#EEE" stroke-width=".584" d="M236.623 27.506v21.038"/><rect width="20.526" height="20.526" x="240.093" y="27.762" fill="#fff" stroke="#fff" stroke-width=".511" rx="4.419"/><g fill="#282828" clip-path="url(#g)"><path d="M252.189 37.946a.495.495 0 0 1 0 .7l-1.978 1.978a.495.495 0 0 1-.7 0l-.989-.99a.495.495 0 1 1 .7-.699l.639.64 1.628-1.629a.495.495 0 0 1 .7 0"/><path fill-rule="evenodd" d="M247.913 35.338a3.956 3.956 0 0 1 7.369 2.356 2.966 2.966 0 0 1-1.465 5.547h-6.923a2.967 2.967 0 0 1-1.46-5.55 2.72 2.72 0 0 1 2.479-2.353m3.431-.998a2.97 2.97 0 0 0-2.682 1.697.5.5 0 0 1-.465.282h-.067a1.73 1.73 0 0 0-1.73 1.697.49.49 0 0 1-.297.444 1.98 1.98 0 0 0 .791 3.792h6.923a1.978 1.978 0 0 0 .739-3.814.494.494 0 0 1-.301-.554 2.967 2.967 0 0 0-2.911-3.544" clip-rule="evenodd"/></g></g><g filter="url(#h)"><rect width="114.54" height="28.05" x="447.516" y="24" fill="#fff" rx="5.844"/><rect width="113.956" height="27.466" x="447.808" y="24.292" stroke="#EEE" stroke-width=".584" rx="5.552"/><g clip-path="url(#i)"><path stroke="#282828" stroke-width=".935" d="M468.093 38.028a5.97 5.97 0 0 0-5.961-5.96 5.97 5.97 0 0 0-5.961 5.96v5.961h5.961a5.97 5.97 0 0 0 5.961-5.96Z"/><path fill="#282828" d="M461.328 38.028a.8.8 0 0 0 .236.569.8.8 0 0 0 1.136 0 .802.802 0 1 0-1.137-1.136.8.8 0 0 0-.235.567m-2.678 0a.8.8 0 0 0 .235.569.804.804 0 1 0-.235-.569m5.356 0q0 .16.062.308a.8.8 0 0 0 .435.435.8.8 0 0 0 .876-.175.807.807 0 0 0-.001-1.137.803.803 0 0 0-1.372.57"/></g><g clip-path="url(#j)"><path stroke="#282828" stroke-linecap="round" stroke-linejoin="round" stroke-miterlimit="16" stroke-width=".877" d="m484.046 34.522-3.799 9.35 9.35-3.507m-5.551-5.843s1.972.219 3.798 2.045 1.753 3.798 1.753 3.798m-5.551-5.843s-.229 1.817 1.753 3.798 3.798 2.045 3.798 2.045m-.584-5.259.584-1.169 1.753.585.585-1.753m-1.169 4.382h1.169"/><path fill="#282828" d="M487.403 33.645a.73.73 0 1 0 0-1.461.73.73 0 0 0 0 1.46"/></g><circle cx="511.213" cy="38.024" r="8.327" fill="#FF5E3C" stroke="#fff" stroke-width=".877"/><path fill="#fff" d="M507.301 39.972V35.93h.999v4.042zm-1.48-1.563v-.916h3.959v.916zm4.939 2.357V39.62q0-.376.115-.654.122-.28.392-.491.278-.222.728-.418l1.015-.45q.377-.171.573-.417.204-.253.204-.646 0-.434-.262-.687-.253-.262-.728-.262t-.736.262q-.254.261-.254.728h-1.121q0-.557.238-.998.237-.45.703-.704.466-.261 1.17-.262.704 0 1.17.254.467.254.704.68.237.416.237.932v.106q0 .671-.376 1.12-.376.443-1.105.77l-1.014.45q-.287.123-.401.262a.53.53 0 0 0-.115.36v.523l-.278-.302h3.314v.99z"/><circle cx="523.487" cy="38.026" r="8.327" fill="#F9BD64" stroke="#fff" stroke-width=".877"/><path fill="#fff" d="m520.71 40.768 2.037-5.973h1.898l2.094 5.973h-1.194l-1.776-5.18.418.18h-1.023l.425-.18-1.718 5.18zm1.423-1.587.368-.982h2.422l.36.982z"/><circle cx="535.174" cy="38.024" r="8.327" fill="#B793FF" stroke="#fff" stroke-width=".877"/><path fill="#fff" d="M535.097 40.921q-.81 0-1.391-.286a2.8 2.8 0 0 1-.949-.745 3.2 3.2 0 0 1-.532-.998 3.4 3.4 0 0 1-.172-1.039v-.18q0-.555.172-1.096.18-.54.548-.982t.933-.704q.573-.27 1.35-.27.81 0 1.407.295.606.286.966.818.36.524.433 1.227h-1.17a1.4 1.4 0 0 0-.294-.687 1.34 1.34 0 0 0-.565-.425 2 2 0 0 0-.777-.148q-.442 0-.785.156-.343.147-.573.425-.23.279-.352.655-.114.376-.114.834 0 .443.114.818.123.377.36.663.237.278.581.434.351.155.81.155.671 0 1.129-.327.467-.336.564-.933h1.17a2.7 2.7 0 0 1-.433 1.17 2.54 2.54 0 0 1-.966.851q-.614.32-1.464.319"/><path stroke="#18181B" stroke-linecap="round" stroke-linejoin="round" stroke-width=".877" d="m550.205 36.707 2.217 2.216c.194.195.292.293.413.293s.218-.098.413-.293l2.216-2.216"/></g><g filter="url(#k)"><rect width="110.932" height="28.05" x="569.068" y="24" fill="#fff" rx="5.844"/><rect width="110.347" height="27.466" x="569.361" y="24.292" stroke="#EEE" stroke-width=".584" rx="5.552"/><rect width="52.453" height="18.116" x="573.451" y="28.967" fill="#fff" rx="4.383"/><rect width="52.453" height="18.116" x="573.451" y="28.967" stroke="#6762FE" stroke-width=".584" rx="4.383"/><path stroke="#6762FE" stroke-width=".877" d="M583.098 42.405a4.383 4.383 0 1 0 0-8.765 4.383 4.383 0 0 0 0 8.765Z"/><path stroke="#6762FE" stroke-linejoin="round" stroke-width=".877" d="M581.781 39.078v-2.11c0-.375.471-.603.836-.408l1.971 1.056c.348.187.348.627 0 .813l-1.971 1.056c-.365.196-.836-.033-.836-.407Z"/><path fill="#6762FE" d="M591.188 38.447v-.703h1.333q.426 0 .704-.164.278-.171.417-.458.148-.287.148-.638 0-.36-.148-.647a1.04 1.04 0 0 0-.417-.45q-.278-.163-.704-.163h-1.333v-.704h1.186q.736 0 1.227.237.5.23.753.655.254.426.254 1.006v.131q0 .573-.254 1.007-.254.425-.753.662-.49.23-1.227.23zm-.638 2.078V34.52h.802v6.005zm5.134 0v-4.369h.622v1.8h-.033q0-.957.418-1.399.425-.45 1.268-.45h.147v.704h-.278q-.655 0-1.006.352-.352.344-.352.998v2.364zm5.165.148q-.573 0-.99-.197a1.9 1.9 0 0 1-.679-.515 2.3 2.3 0 0 1-.392-.728 2.8 2.8 0 0 1-.123-.819v-.147q0-.425.123-.826.13-.4.392-.72.262-.327.663-.515a2.2 2.2 0 0 1 .957-.197q.713 0 1.17.311.466.303.687.785.23.483.229 1.031v.352h-3.878V37.9h3.306l-.18.32q0-.468-.148-.803a1.15 1.15 0 0 0-.441-.531q-.295-.189-.745-.189-.467 0-.777.213a1.3 1.3 0 0 0-.458.581q-.147.369-.148.85 0 .468.148.843.155.369.474.59.32.212.81.212.516 0 .835-.229.327-.23.392-.532h.737q-.09.45-.36.778-.27.327-.679.499a2.4 2.4 0 0 1-.925.172m4.584-.017q-.859 0-1.333-.368-.467-.367-.483-1.006h.736q.017.254.254.482.246.221.826.221.524 0 .802-.204.278-.213.278-.516a.48.48 0 0 0-.204-.417q-.205-.155-.663-.204l-.475-.05q-.621-.065-1.014-.368-.393-.31-.393-.867 0-.417.213-.712.213-.302.589-.458.376-.163.867-.163.736 0 1.195.327.457.327.474.973h-.736a.56.56 0 0 0-.246-.441q-.228-.189-.687-.189-.458 0-.695.189a.58.58 0 0 0-.237.474q0 .246.163.393.172.146.557.188l.474.05q.703.073 1.129.392.426.311.425.883 0 .41-.237.728-.228.312-.638.491a2.4 2.4 0 0 1-.941.172m4.812.017q-.573 0-.99-.197a1.9 1.9 0 0 1-.679-.515 2.3 2.3 0 0 1-.393-.728 2.8 2.8 0 0 1-.122-.819v-.147q0-.425.122-.826.131-.4.393-.72a1.8 1.8 0 0 1 .663-.515q.408-.197.957-.197.711 0 1.17.311.466.303.687.785.23.483.229 1.031v.352h-3.878V37.9h3.305l-.18.32q0-.468-.147-.803a1.15 1.15 0 0 0-.442-.531q-.294-.189-.744-.189-.467 0-.777.213a1.3 1.3 0 0 0-.459.581q-.147.369-.147.85 0 .468.147.843.156.369.475.59.32.212.81.212.516 0 .834-.229.328-.23.393-.532h.736q-.09.45-.36.778-.27.327-.679.499a2.4 2.4 0 0 1-.924.172m3.152-.148v-4.369h.622v1.874h-.098q0-.646.172-1.088.18-.45.54-.68.36-.236.908-.236h.032q.827 0 1.219.515.402.516.401 1.489v2.495h-.785v-2.659q0-.507-.286-.81-.287-.31-.786-.31-.515 0-.834.319-.32.319-.319.85v2.61zm6.935.05a2.4 2.4 0 0 1-.851-.14 1.1 1.1 0 0 1-.548-.474q-.188-.345-.188-.925v-4.205h.753v4.303q0 .352.188.549.196.188.548.188h.769v.703zm-2.34-3.83v-.589h3.011v.59z"/><rect width="44.453" height="18.116" x="631.164" y="28.967" fill="#6762FE" rx="4.383"/><rect width="44.453" height="18.116" x="631.164" y="28.967" stroke="#6762FE" stroke-width=".584" rx="4.383"/><path fill="#fff" d="M640.368 41.53v.438zm4.383-1.096a.439.439 0 1 0 0-.876zm-2.366-.876a.439.439 0 1 0 0 .876zm.745 1.621a.438.438 0 1 0 .876 0zm.876-2.366a.438.438 0 1 0-.876 0zm-2.368 3.07a.438.438 0 1 0-.125-.868zm-.439-2.719a.438.438 0 1 0 .092-.872zm-.831 1.928c-1.028 0-1.838-.166-2.373-.41-.559-.255-.695-.526-.695-.686h-.876c0 .687.548 1.183 1.208 1.484.683.311 1.627.488 2.736.488zm-3.068-1.096c0 .041-.021-.01.142-.138.148-.116.382-.24.69-.355a6.8 6.8 0 0 1 2.236-.383v-.877c-.897 0-1.825.173-2.54.438-.356.132-.682.295-.927.488-.229.18-.477.457-.477.827zm3.945-4.14c0 .44-.392.853-.877.853v.877c.968 0 1.754-.805 1.754-1.73zm-.877.853c-.484 0-.876-.414-.876-.853h-.877c0 .925.786 1.73 1.753 1.73zm-.876-.853c0-.459.412-.9.876-.9v-.877c-.987 0-1.753.874-1.753 1.777zm.876-.9c.465 0 .877.441.877.9h.877c0-.903-.766-1.777-1.754-1.777zm4.383 4.602h-1.183v.876h1.183zm-1.183 0h-1.183v.876h1.183zm.438 1.621v-1.183h-.876v1.183zm0-1.183v-1.183h-.876v1.183zm-2.493 1.019q-.517.076-1.145.077v.876q.684-.001 1.27-.085zm-1.145-1.895c.267 0 .549.015.831.044l.092-.872a9 9 0 0 0-.923-.049zM650.092 40.672q-.744 0-1.268-.245a1.87 1.87 0 0 1-.802-.68 1.8 1.8 0 0 1-.278-.98h.802q0 .27.139.54.147.27.483.45.344.179.924.179.54 0 .884-.155.344-.165.507-.418.164-.261.164-.564a.73.73 0 0 0-.319-.606q-.32-.245-.933-.302l-.663-.058q-.794-.065-1.268-.49-.474-.426-.474-1.121 0-.549.261-.958.27-.408.745-.638a2.44 2.44 0 0 1 1.104-.237q.622 0 1.097.23.474.228.736.645.27.41.27.982h-.802q0-.285-.139-.54a1 1 0 0 0-.417-.417q-.286-.164-.745-.164-.441 0-.736.156a1.1 1.1 0 0 0-.434.409q-.139.245-.139.532a.8.8 0 0 0 .254.58q.253.255.753.295l.662.057q.613.05 1.056.262.45.205.687.556.245.345.245.827 0 .548-.294.973a1.94 1.94 0 0 1-.826.663q-.533.237-1.236.237m3.587-.147v-5.972h.786v3.567h-.197q0-.647.164-1.113.172-.474.524-.728.351-.255.9-.254h.032q.785 0 1.187.524.4.516.4 1.48v2.496h-.785v-2.659q0-.532-.303-.826-.294-.295-.769-.295-.524 0-.842.352-.312.344-.311.908v2.52zm7.876 0v-1.309h-.131v-1.514q0-.45-.237-.678-.23-.23-.679-.23-.254 0-.524.009l-.515.016a8 8 0 0 0-.426.024v-.687q.18-.016.377-.024a5 5 0 0 1 .417-.017q.213-.008.409-.008.671 0 1.096.164.426.155.63.515t.205.974v2.765zm-1.432.115q-.49 0-.851-.164a1.3 1.3 0 0 1-.548-.49 1.5 1.5 0 0 1-.188-.77q0-.466.205-.777.212-.31.613-.467.401-.163.966-.163h1.186v.589h-1.219q-.474 0-.728.229a.76.76 0 0 0-.254.59q0 .36.254.58t.728.22q.278 0 .532-.097a.94.94 0 0 0 .417-.344q.171-.246.188-.67l.213.31q-.041.467-.229.785-.18.312-.507.475a1.7 1.7 0 0 1-.778.164m3.495-.115v-4.369h.622v1.8h-.033q0-.957.418-1.399.425-.45 1.268-.45h.147v.704h-.278q-.655 0-1.006.352-.352.343-.352.998v2.364zm5.165.147q-.573 0-.99-.196a1.9 1.9 0 0 1-.679-.515 2.3 2.3 0 0 1-.393-.728 2.8 2.8 0 0 1-.122-.819v-.147q0-.426.122-.826.132-.402.393-.72.262-.327.663-.516a2.2 2.2 0 0 1 .957-.196q.712 0 1.17.31.466.304.687.786.23.483.229 1.031v.352h-3.878v-.59h3.306l-.18.32q0-.466-.148-.802a1.15 1.15 0 0 0-.441-.532q-.295-.188-.745-.188-.467 0-.777.213a1.3 1.3 0 0 0-.458.58q-.148.369-.148.852 0 .465.148.842.154.369.474.59.32.212.81.212.516 0 .835-.229.327-.23.392-.532h.737q-.09.45-.36.778-.27.327-.679.499a2.4 2.4 0 0 1-.925.171"/></g><g filter="url(#l)"><rect width="58.39" height="28.05" x="408.737" y="464.534" fill="#fff" rx="6.869"/><rect width="57.818" height="27.478" x="409.023" y="464.82" stroke="#EEE" stroke-width=".572" rx="6.583"/><rect width="20.608" height="20.608" x="412.744" y="468.255" fill="#fff" rx="2.862"/><path fill="#fff" d="M416.181 471.692h13.739v13.739h-13.739z"/><path fill="#282828" fill-rule="evenodd" d="M422.848 481.423c0 .253.205.458.458.458h2.29a2.75 2.75 0 0 0 2.748-2.748v-.088a2.747 2.747 0 0 0-2.748-2.747h-5.774l1.403-1.423a.457.457 0 1 0-.652-.643l-2.172 2.202a.46.46 0 0 0 0 .643l2.172 2.202a.458.458 0 0 0 .652-.643l-1.403-1.422h5.774c1.012 0 1.832.82 1.832 1.831v.088c0 1.012-.82 1.832-1.832 1.832h-2.29a.46.46 0 0 0-.458.458" clip-rule="evenodd"/><path stroke="#EEE" stroke-width=".572" d="M438.219 467.11v22.898"/><path fill="#848382" fill-opacity=".5" fill-rule="evenodd" d="M453.528 481.423a.46.46 0 0 1-.458.458h-2.289a2.747 2.747 0 0 1-2.748-2.747v-.088a2.75 2.75 0 0 1 2.748-2.748h5.774l-1.403-1.422a.458.458 0 1 1 .652-.644l2.172 2.202a.46.46 0 0 1 0 .643l-2.172 2.202a.458.458 0 1 1-.652-.643l1.403-1.422h-5.774c-1.012 0-1.832.82-1.832 1.832v.088c0 1.011.82 1.831 1.832 1.831h2.289c.253 0 .458.205.458.458" clip-rule="evenodd"/></g><g filter="url(#m)"><rect width="207.801" height="28.05" x="473.997" y="464.534" fill="#fff" rx="6.869"/><rect width="207.228" height="27.478" x="474.283" y="464.82" stroke="#EEE" stroke-width=".572" rx="6.583"/><path stroke="#282828" stroke-linecap="round" stroke-linejoin="round" stroke-width=".823" d="M494.024 478.612v-1.633c0-1.113 0-1.669-.336-2.015-.335-.346-.875-.346-1.954-.346h-1.19c-.525 0-.53-.001-1.002-.237l-1.907-.957c-.796-.399-1.195-.599-1.619-.585s-.809.239-1.579.69l-.703.411c-.566.331-.849.496-1.004.772-.156.275-.156.61-.156 1.281v4.714c0 .882 0 1.322.196 1.567a.86.86 0 0 0 .515.31c.304.054.676-.163 1.419-.598.505-.296.99-.602 1.594-.519.506.07.976.39 1.429.616"/><path stroke="#282828" stroke-linejoin="round" stroke-width=".823" d="M486.012 472.838v8.606"/><path stroke="#282828" stroke-linecap="round" stroke-linejoin="round" stroke-width=".823" d="M490.017 474.558v3.443"/><path stroke="#282828" stroke-linejoin="round" stroke-width=".823" d="M491.451 479.426c1.108 0 2.006.88 2.006 1.964 0 1.227-1.212 1.83-1.791 2.749-.123.196-.297.196-.429 0-.597-.884-1.791-1.548-1.791-2.749 0-1.084.898-1.964 2.005-1.964Z"/><path stroke="#282828" stroke-linecap="round" stroke-linejoin="round" stroke-width="1.097" d="M491.45 481.425h.005"/><path stroke="#EEE" stroke-width=".572" d="M503.478 467.683v21.753"/><path stroke="#282828" stroke-linecap="round" stroke-linejoin="round" stroke-width=".859" d="m522.316 477.076.001 2.524c.001 1.176.001 1.764-.181 2.235a2.8 2.8 0 0 1-1.581 1.582c-.476.188-1.073.198-2.268.218-.627.01-.94.015-1.231-.043a2.7 2.7 0 0 1-1.204-.572c-.227-.188-.415-.431-.791-.918l-1.657-2.146a.905.905 0 0 1 .017-1.122.94.94 0 0 1 1.384-.098l.895.865-.002-4.309c0-.448.37-.817.827-.825a.805.805 0 0 1 .828.798m0 0-.001-1.082c0-.448.37-.818.827-.825a.803.803 0 0 1 .828.797v1.082m-1.654.028.001 2.434m1.653-2.462c0-.448.37-.817.827-.825a.804.804 0 0 1 .828.798v1.082m-1.655-1.055.001 2.435m1.654-1.38c0-.448.37-.818.827-.826a.805.805 0 0 1 .828.798v1.353m-1.655-1.325.001 1.352"/><path stroke="#282828" stroke-linecap="round" stroke-width=".859" d="M541.438 473.066h-2.443a1.22 1.22 0 0 0-1.221 1.221v2.442m3.664 7.328h-2.443a1.22 1.22 0 0 1-1.221-1.221v-2.443m7.327-7.327h2.443a1.22 1.22 0 0 1 1.221 1.221v2.442m0 3.664v2.443c0 .674-.547 1.221-1.221 1.221h-2.443m.229-5.496a2.06 2.06 0 1 1-4.12.002 2.06 2.06 0 0 1 4.12-.002Z"/><path stroke="#EEE" stroke-width=".572" d="M558.434 467.683v21.753"/><g stroke="#282828" stroke-linejoin="round" stroke-width=".859" clip-path="url(#n)"><path stroke-linecap="round" d="m576.176 481.708 2.576 2.576"/><path d="M577.606 477.99a5.153 5.153 0 1 0-10.305.001 5.153 5.153 0 0 0 10.305-.001Z"/><path stroke-linecap="round" d="M570.454 477.987h4.007"/></g><rect width="34.347" height="20.036" x="-.286" y=".286" fill="#F7F7F7" stroke="#EEE" stroke-width=".572" rx="4.293" transform="matrix(-1 0 0 1 622.262 468.255)"/><path fill="#282828" d="M596.99 482.267v-5.466l.353.273h-1.651v-.658h2.068v5.851zm4.712.144q-.657 0-1.122-.224a2.1 2.1 0 0 1-.745-.625 2.6 2.6 0 0 1-.409-.906 4.6 4.6 0 0 1-.128-1.098v-.433q0-.808.248-1.458a2.23 2.23 0 0 1 .786-1.026q.536-.385 1.37-.385t1.363.385q.528.377.777 1.026.256.65.256 1.458v.433q0 .577-.128 1.098a2.5 2.5 0 0 1-.417.906 2 2 0 0 1-.737.625q-.457.224-1.114.224m0-.705q.834 0 1.218-.561.393-.569.393-1.795 0-1.282-.401-1.836-.393-.553-1.21-.553-.825 0-1.226.553-.393.554-.393 1.82 0 1.234.393 1.803.392.569 1.226.569m5.956.705q-.657 0-1.122-.224a2.1 2.1 0 0 1-.745-.625 2.6 2.6 0 0 1-.409-.906 4.6 4.6 0 0 1-.128-1.098v-.433q0-.808.248-1.458a2.23 2.23 0 0 1 .786-1.026q.536-.385 1.37-.385t1.362.385q.53.377.778 1.026.256.65.256 1.458v.433q0 .577-.128 1.098a2.5 2.5 0 0 1-.417.906 2 2 0 0 1-.737.625q-.457.224-1.114.224m0-.705q.834 0 1.218-.561.393-.569.393-1.795 0-1.282-.401-1.836-.393-.553-1.21-.553-.825 0-1.226.553-.393.554-.393 1.82 0 1.234.393 1.803.392.569 1.226.569m4.986.561 2.212-5.851h.609l-2.212 5.851zm-.432-2.709q-.457 0-.746-.208a1.25 1.25 0 0 1-.417-.553 2.1 2.1 0 0 1-.128-.746v-.208q0-.433.136-.769.137-.345.425-.537.29-.201.73-.201.448 0 .729.201.288.192.425.537.135.336.136.769v.208q0 .401-.136.746a1.2 1.2 0 0 1-.409.553q-.281.208-.745.208m0-.529q.368 0 .544-.264.185-.273.185-.81 0-.569-.185-.825-.183-.265-.544-.265t-.545.265q-.185.256-.185.817 0 .537.177.81.183.272.553.272m3.654 3.318q-.457 0-.745-.208a1.25 1.25 0 0 1-.417-.553 2.1 2.1 0 0 1-.128-.746v-.208q0-.433.136-.769.136-.345.425-.537.288-.201.729-.201.448 0 .729.201.289.192.425.537.136.336.136.769v.208q0 .401-.136.746a1.2 1.2 0 0 1-.409.553q-.28.208-.745.208m0-.529q.368 0 .545-.264.184-.273.184-.81 0-.569-.184-.825-.185-.265-.545-.265t-.545.265q-.184.256-.184.817 0 .537.176.81.184.272.553.272"/><path stroke="#282828" stroke-linecap="round" stroke-linejoin="round" stroke-width=".859" d="m640.871 481.708 2.576 2.576"/><path stroke="#282828" stroke-linejoin="round" stroke-width=".859" d="M642.298 477.99a5.152 5.152 0 1 0-10.304 0 5.152 5.152 0 0 0 10.304 0Z"/><path stroke="#282828" stroke-linecap="round" stroke-linejoin="round" stroke-width=".859" d="M635.148 477.991h4.007m-2.004-2.003v4.007"/><path stroke="#EEE" stroke-width=".572" d="M652.889 467.683v21.753"/><rect width="20.036" height="20.036" x="657.468" y="468.541" fill="url(#o)" stroke="#fff" stroke-width=".572" rx="4.293"/><circle cx="667.613" cy="478.279" r="5.725" stroke="#282828" stroke-width=".859"/><path stroke="#282828" stroke-linecap="round" stroke-width=".859" d="M666.472 476.562a1.145 1.145 0 1 1 2.109.618c-.342.532-.964 1.039-.964 1.671v.287"/><path stroke="#282828" stroke-linecap="round" stroke-linejoin="round" stroke-width="1.145" d="M667.614 481.143h.005"/></g><g filter="url(#p)"><path fill="#fff" fill-rule="evenodd" d="m236.375 382.46-34.839-9.335-7.378 27.536 34.839 9.335zm-40.098 16.978 6.483-24.194 31.496 8.439-6.483 24.194zM186.529 405.028a.87.87 0 0 1 .691-.107l46.153 12.367a.864.864 0 0 1 .612 1.059l-1.272 4.746a.86.86 0 0 1-.368.504l-6.85 4.396a.87.87 0 0 1-.691.107l-46.153-12.367a.864.864 0 0 1-.612-1.059l1.272-4.746a.87.87 0 0 1 .368-.504zm.613 1.663-4.881 3.132 43.893 11.761 4.881-3.132zm44.593 13.367-4.687 3.008-.606 2.263 4.687-3.007zm-7.319 6.147.824-3.075-44.482-11.919-.824 3.075z" clip-rule="evenodd"/><path fill="#036897" d="m188.607 411.274 2.26-8.436 39.892 10.689-2.261 8.435z"/><path fill="#fff" fill-rule="evenodd" d="M190.032 402.614a.864.864 0 0 1 1.059-.611l39.891 10.689a.864.864 0 0 1 .612 1.059l-2.26 8.435a.865.865 0 0 1-1.06.612l-39.891-10.689a.864.864 0 0 1-.611-1.059zm1.447 1.284-1.812 6.764 38.22 10.241 1.812-6.764z" clip-rule="evenodd"/><path fill="#036897" d="m239.952 408.07-2.266 8.456-9.187 5.436 2.26-8.436-39.891-10.689z"/><path fill="#fff" fill-rule="evenodd" d="M240.665 407.581a.87.87 0 0 1 .123.713l-2.266 8.456a.87.87 0 0 1-.395.521l-9.188 5.435a.865.865 0 0 1-1.276-.968l2.037-7.6-39.056-10.465a.866.866 0 0 1 .315-1.696l49.085 5.233a.87.87 0 0 1 .621.371m-38.854-2.707 29.172 7.817a.866.866 0 0 1 .612 1.059l-1.712 6.388 7.059-4.177 1.913-7.138z" clip-rule="evenodd"/><path fill="#036897" d="m230.759 413.527 8.907-33.243-39.891-10.689-8.908 33.243zm0 0 9.193-5.455 8.907-33.244-40.38-10.82-8.704 5.587 39.891 10.689zm8.907-33.243 9.193-5.456z"/><path fill="#fff" fill-rule="evenodd" d="M208.011 363.28a.87.87 0 0 1 .692-.107l40.38 10.82a.864.864 0 0 1 .612 1.059l-8.908 33.243a.86.86 0 0 1-.394.52l-9.193 5.456a.87.87 0 0 1-.665.092l-39.892-10.689a.865.865 0 0 1-.611-1.059l8.907-33.244a.86.86 0 0 1 .369-.504zm.613 1.663-6.735 4.323 37.649 10.088 7.114-4.222zm38.85 11.713-7.063 4.192-8.267 30.851 7.063-4.192zm-17.327 35.812 8.46-31.573-38.22-10.241-8.46 31.573z" clip-rule="evenodd"/><path fill="#036897" d="m225.028 427.264 1.272-4.746-46.154-12.366 6.85-4.396 46.154 12.367-1.272 4.746zm1.272-4.746-1.272 4.746-46.153-12.366 1.271-4.746zm0 0 6.85-4.395z"/><path fill="#fff" fill-rule="evenodd" d="M186.529 405.028a.87.87 0 0 1 .691-.107l46.153 12.367a.864.864 0 0 1 .612 1.059l-1.272 4.746a.86.86 0 0 1-.368.504l-6.85 4.396a.87.87 0 0 1-.691.107l-46.153-12.367a.864.864 0 0 1-.612-1.059l1.272-4.746a.87.87 0 0 1 .368-.504zm.613 1.663-4.881 3.132 43.893 11.761 4.881-3.132zm44.594 13.367-4.687 3.008-.607 2.263 4.687-3.007zm-7.32 6.147.824-3.075-44.482-11.919-.824 3.075zM201.536 373.125l34.839 9.335-7.378 27.536-34.839-9.335zm1.224 2.119-6.483 24.194 31.496 8.439 6.483-24.194z" clip-rule="evenodd"/></g><path fill="#036897" stroke="#fff" stroke-linejoin="round" stroke-miterlimit="10" stroke-width="1.907" d="m188.606 411.274 2.26-8.435 39.891 10.689-2.26 8.435z"/><path fill="#036897" stroke="#fff" stroke-linejoin="round" stroke-miterlimit="10" stroke-width="1.907" d="m239.95 408.07-2.266 8.456-9.188 5.435 2.26-8.435-39.891-10.689z"/><path fill="#036897" d="m230.758 413.526 8.908-33.243-39.892-10.689-8.907 33.243zm0 0 9.193-5.456 8.908-33.243-40.381-10.82-8.704 5.587 39.892 10.689zm8.908-33.243 9.193-5.456z"/><path stroke="#fff" stroke-linejoin="round" stroke-miterlimit="10" stroke-width="1.907" d="m230.758 413.526 8.908-33.243m-8.908 33.243-39.891-10.689 8.907-33.243m30.984 43.932 9.193-5.456 8.908-33.243m-9.193 5.456-39.892-10.689m39.892 10.689 9.193-5.456m-49.085-5.233 8.704-5.587 40.381 10.82"/><path fill="#036897" d="m225.025 427.264 1.272-4.746-46.153-12.366 6.85-4.396 46.153 12.367-1.272 4.746zm1.272-4.746-1.272 4.746-46.153-12.366 1.272-4.746zm0 0 6.85-4.395z"/><path stroke="#fff" stroke-linejoin="round" stroke-miterlimit="10" stroke-width="1.907" d="m225.025 427.264 1.272-4.746m-1.272 4.746 6.85-4.395 1.272-4.746m-8.122 9.141-46.153-12.366 1.272-4.746m46.153 12.366-46.153-12.366m46.153 12.366 6.85-4.395m-53.003-7.971 6.85-4.396 46.153 12.367"/><path stroke="#fff" stroke-miterlimit="10" stroke-width="1.907" d="m228.387 408.936 6.93-25.865-33.167-8.887-6.931 25.865z"/><path stroke="#6762FE" stroke-width="1.484" d="m255.325 376.282-65.083-17.439-15.159 56.575 65.082 17.438z"/><path fill="#fff" stroke="#6762FE" stroke-width="1.484" d="m243.704 429.448-4.741-1.27a1.78 1.78 0 0 0-2.179 1.258l-1.271 4.742a1.78 1.78 0 0 0 1.258 2.179l4.742 1.27a1.78 1.78 0 0 0 2.179-1.258l1.271-4.741a1.78 1.78 0 0 0-1.259-2.18ZM258.808 372.86l-4.741-1.27a1.78 1.78 0 0 0-2.18 1.258l-1.27 4.741a1.78 1.78 0 0 0 1.258 2.18l4.742 1.27a1.78 1.78 0 0 0 2.179-1.258l1.27-4.742a1.78 1.78 0 0 0-1.258-2.179ZM178.567 411.994l-4.742-1.27a1.78 1.78 0 0 0-2.179 1.258l-1.271 4.742a1.78 1.78 0 0 0 1.259 2.179l4.741 1.27a1.78 1.78 0 0 0 2.18-1.258l1.27-4.741a1.78 1.78 0 0 0-1.258-2.18ZM193.726 355.42l-4.741-1.271a1.78 1.78 0 0 0-2.18 1.259l-1.27 4.741a1.78 1.78 0 0 0 1.258 2.179l4.742 1.271a1.78 1.78 0 0 0 2.179-1.258l1.271-4.742a1.78 1.78 0 0 0-1.259-2.179Z"/><g filter="url(#q)"><path fill="#fff" d="M207.527 427.238c-.042-.68-.043-1.551-.158-2.845-.114-1.294-.283-1.619-.376-2.31-.094-.69-.264-1.361-.447-2.233a22 22 0 0 1-.284-2.672 2.54 2.54 0 0 1 .907-1.936 2.51 2.51 0 0 1 2.493-.121 3.67 3.67 0 0 1 1.318 1.706c.344.926.584 1.889.715 2.869.232 1.354.32 2.728.261 4.1l-.005.816.417-2.019c.359-1.741.548-3.19 1.055-5.118.046-.226.316-1.005.397-1.224.2-.739.783-1.313 1.526-1.5a3.04 3.04 0 0 1 2.436.502c.63.454.955 1.22.842 1.988-.039.192-.202 1.773-.241 1.965l-.779 3.777-.528 2.559a52 52 0 0 1 2.006-6.736 2.65 2.65 0 0 1 1.709-1.336c.894-.155 1.8.2 2.351.921a3.3 3.3 0 0 1 .423 2.173l-.449 2.176-.761 3.69s-.108.522-.064.314c.257-.455.524-.872.735-1.192s.637-.975.935-1.367q.447-.557.962-1.054a2.45 2.45 0 0 1 1.367-.734 1.776 1.776 0 0 1 2.051 1.493 6 6 0 0 1-.395 1.915 16.6 16.6 0 0 1-1.201 2.746c-.388.737-.912 2.044-1.166 2.663-.255.619-.896 2.319-1.28 3.039a10.5 10.5 0 0 1-1.903 2.275 12.9 12.9 0 0 0-2.721 2.723 7.3 7.3 0 0 0-.533 1.705 6.1 6.1 0 0 0-.121 1.644 10.2 10.2 0 0 1-2.141-.441c-.657-.244-1.213-1.774-1.353-2.239a.674.674 0 0 0-1.183-.244c-.537.579-1.62 1.608-2.226 1.555-1.195-.101-3.569-.735-5.466-1.126 0 0 .69-1.673.088-2.45s-1.165-1.656-1.604-2.254l-1.114-1.9c-.359-.727-.706-2.123-1.441-3.926-.43-.996-1.349-2.256-1.661-3.209a3.11 3.11 0 0 1 .143-2.366 2.15 2.15 0 0 1 2.693-1.005 3.55 3.55 0 0 1 1.965 1.385q.575.75 1.036 1.574c.21.388.248.559.479 1.024s.357.909.322.285"/><path stroke="#000" stroke-linecap="round" stroke-linejoin="round" stroke-width="2.136" d="M207.527 427.238c-.042-.68-.043-1.551-.158-2.845-.114-1.294-.283-1.619-.376-2.31-.094-.69-.264-1.361-.447-2.233a22 22 0 0 1-.284-2.672 2.54 2.54 0 0 1 .907-1.936 2.51 2.51 0 0 1 2.493-.121 3.67 3.67 0 0 1 1.318 1.706c.344.926.584 1.889.715 2.869.232 1.354.32 2.728.261 4.1l-.005.816.417-2.019c.359-1.741.548-3.19 1.055-5.118.046-.226.316-1.005.397-1.224.2-.739.783-1.313 1.526-1.5a3.04 3.04 0 0 1 2.436.502c.63.454.955 1.22.842 1.988-.039.192-.202 1.773-.241 1.965l-.779 3.777-.528 2.559a52 52 0 0 1 2.006-6.736 2.65 2.65 0 0 1 1.709-1.336c.894-.155 1.8.2 2.351.921a3.3 3.3 0 0 1 .423 2.173l-.449 2.176-.761 3.69s-.108.522-.064.314c.257-.455.524-.872.735-1.192s.637-.975.935-1.367q.447-.557.962-1.054a2.45 2.45 0 0 1 1.367-.734 1.776 1.776 0 0 1 2.051 1.493 6 6 0 0 1-.395 1.915 16.6 16.6 0 0 1-1.201 2.746c-.388.737-.912 2.044-1.166 2.663-.255.619-.896 2.319-1.28 3.039a10.5 10.5 0 0 1-1.903 2.275 12.9 12.9 0 0 0-2.721 2.723 7.3 7.3 0 0 0-.533 1.705 6.1 6.1 0 0 0-.121 1.644 10.2 10.2 0 0 1-2.141-.441c-.657-.244-1.213-1.774-1.353-2.239a.674.674 0 0 0-1.183-.244c-.537.579-1.62 1.608-2.226 1.555-1.195-.101-3.569-.735-5.466-1.126 0 0 .69-1.673.088-2.45s-1.165-1.656-1.604-2.254l-1.114-1.9c-.359-.727-.706-2.123-1.441-3.926-.43-.996-1.349-2.256-1.661-3.209a3.11 3.11 0 0 1 .143-2.366 2.15 2.15 0 0 1 2.693-1.005 3.55 3.55 0 0 1 1.965 1.385q.575.75 1.036 1.574c.21.388.248.559.479 1.024s.357.909.322.285"/><path fill="#000" d="m218.86 437.127 1.239-6.008a.666.666 0 0 0-1.305-.27l-1.239 6.009a.665.665 0 0 0 1.305.269M215.399 436.412l1.222-6.015a.665.665 0 0 0-1.306-.265l-1.222 6.014c-.073.359.16.71.521.783a.665.665 0 0 0 .785-.517M211.837 429.417l-1.202 6.003a.67.67 0 0 0 .522.789.67.67 0 0 0 .785-.528l1.202-6.002a.67.67 0 0 0-.522-.789.67.67 0 0 0-.785.527"/></g><path fill="#036897" d="M252.809 318.518v-41.786h42.112v41.786zm47.61-5.123V271.21l-5.498 5.522v41.786zm-40.134-42.185-7.476 5.522h42.112l5.498-5.522z"/><path stroke="#fff" stroke-linejoin="round" stroke-miterlimit="10" stroke-width=".967" d="M252.809 276.732v41.786h42.112m-42.112-41.786h42.112m-42.112 0 7.476-5.522h40.134m-5.498 5.522v41.786m0-41.786 5.498-5.522m-5.498 47.308 5.498-5.123V271.21"/><path fill="#fff" d="M274.85 291.317v-9.062h1.57l-2.366-3.156-1.971 3.156h1.183v9.062zm-4.724 1.582-6.3-6.704 1.175-.791-3.928-.784.789 3.94.781-1.183 6.695 6.306zm-2.358 4.332h-9.06v-1.575l-3.147 1.974 3.147 2.365v-1.582h9.06zm1.57 4.339-6.695 6.704-.781-1.183-.789 3.94 3.928-.791-1.175-1.182 6.3-6.306zm3.928 2.365v9.07h-1.183l1.971 3.548 2.366-3.548h-1.57v-9.07zm4.723-1.183 6.696 6.306-1.183 1.182 3.928.791-.774-3.94-1.183 1.183-6.301-6.704zm2.359-4.339h9.053v1.582l3.541-2.365-3.541-1.974v1.575h-9.053zm-1.176-4.73 6.301-6.306 1.183 1.183.774-3.94-3.928.784 1.183.791-6.696 6.704z"/><path fill="#fff" stroke="#036C9B" stroke-miterlimit="10" stroke-width=".513" d="M279.576 305.509c4.314-3.149 5.497-9.062 2.358-13.401-2.76-4.339-8.666-5.123-12.988-2.366-4.33 3.156-5.513 9.07-2.359 13.402 3.14 4.339 9.039 5.521 12.989 2.365Z"/><rect width="41.135" height="11.709" x="304" y="290" fill="#DBDADA" rx="2.165"/><path fill="#000" d="M312.868 298.151q-.774 0-1.307-.247a1.87 1.87 0 0 1-.8-.678 1.8 1.8 0 0 1-.273-.989h1.109a.9.9 0 0 0 .125.455q.126.214.404.351.287.135.749.135.415 0 .695-.12a.95.95 0 0 0 .417-.311.8.8 0 0 0 .139-.446.57.57 0 0 0-.26-.495q-.261-.191-.812-.239l-.51-.04q-.837-.072-1.337-.519-.49-.455-.486-1.196.004-.56.271-.958.266-.406.738-.622.48-.223 1.118-.223.663 0 1.14.231t.737.654q.26.415.256.981h-1.109a.84.84 0 0 0-.116-.438.77.77 0 0 0-.341-.327 1.15 1.15 0 0 0-.574-.128q-.334 0-.559.112a.8.8 0 0 0-.337.303.8.8 0 0 0-.115.415q-.002.27.196.478.198.2.629.232l.51.048q.622.047 1.091.263.469.214.722.582.26.367.257.886a1.7 1.7 0 0 1-.294.973 1.9 1.9 0 0 1-.827.646q-.528.231-1.246.231m4.786-.151.852-4.188h1.277l.919 4.188h-.878l-.935-4.164h.463l-.884 4.164zm-.327 0-.001-.91h.885l-.006.91zm-.446 0-1.15-4.332h1.077l1.094 4.332zm3.223 0 .006-.91h.886l-.015.91zm.351 0 1.028-4.332h1.005L321.412 298zm3.083 0 .031-4.332h1.109l-.031 4.332zm-.581-3.502.006-.83h1.715l-.006.83zm1.022-1.348q-.327 0-.485-.168a.63.63 0 0 1-.148-.431.63.63 0 0 1 .154-.439q.16-.167.488-.167t.478.167.148.439a.64.64 0 0 1-.155.431q-.153.168-.48.168m3.828 4.906q-.598 0-.988-.152a1.1 1.1 0 0 1-.571-.526q-.189-.375-.184-1.006l.036-3.925h1.037l-.037 3.997q-.001.32.164.495.175.168.494.167h.678l-.007.95zm-2.416-3.574.006-.814h3.064l-.006.814zm5.867 3.669q-.566 0-.979-.191a2.05 2.05 0 0 1-.683-.511 2.2 2.2 0 0 1-.402-.718 2.5 2.5 0 0 1-.129-.813l.001-.152q.003-.439.141-.837.147-.408.428-.718.282-.32.69-.503.416-.192.959-.192.566 0 1.011.224.445.215.706.606.269.391.297.91h-1.077a.86.86 0 0 0-.284-.559q-.237-.223-.66-.223-.367 0-.616.175a1.07 1.07 0 0 0-.362.487 1.9 1.9 0 0 0-.125.702 2 2 0 0 0 .107.694q.118.311.355.487.246.175.629.175.288 0 .496-.104a.83.83 0 0 0 .329-.287.94.94 0 0 0 .162-.415h1.077q-.035.527-.317.926-.275.39-.731.614-.448.223-1.023.223m2.948-.151.042-5.824h1.109l-.025 3.399h-.191q.005-.654.175-1.109.171-.455.5-.694.337-.24.847-.24h.048q.743 0 1.122.511.378.51.372 1.484l-.018 2.473h-1.109l.019-2.577q.003-.414-.235-.654-.23-.24-.613-.239a.87.87 0 0 0-.664.271q-.249.263-.252.694l-.018 2.505z"/><path fill="#036897" stroke="#fff" stroke-linejoin="round" stroke-miterlimit="10" stroke-width="1.3" d="M312.174 410.528v-7.705h40.863v7.705z"/><path fill="#036897" stroke="#fff" stroke-linejoin="round" stroke-miterlimit="10" stroke-width="1.3" d="M360.426 396.073v7.723l-7.389 6.73v-7.705h-40.863z"/><path fill="#036897" d="M353.037 402.822v-30.363h-40.863v30.363zm0 0 7.389-6.748V365.71h-41.364l-6.888 6.749h40.863zm0-30.363 7.389-6.749z"/><path stroke="#fff" stroke-linejoin="round" stroke-miterlimit="10" stroke-width="1.3" d="M353.037 402.822v-30.363m0 30.363h-40.863v-30.363m40.863 30.363 7.389-6.748V365.71m-7.389 6.749h-40.863m40.863 0 7.389-6.749m-48.252 6.749 6.888-6.749h41.364"/><path fill="#036897" d="M351.079 415.837v-4.335h-47.277l5.421-5.31H356.5v4.335zm0-4.335v4.335h-47.277v-4.335zm0 0 5.421-5.31z"/><path stroke="#fff" stroke-linejoin="round" stroke-miterlimit="10" stroke-width="1.3" d="M351.079 415.837v-4.335m0 4.335 5.421-5.31v-4.335m-5.421 9.645h-47.277v-4.335m47.277 0h-47.277m47.277 0 5.421-5.31m-52.698 5.31 5.421-5.31H356.5"/><path stroke="#fff" stroke-miterlimit="10" stroke-width="1.3" d="M349.593 399.454V375.83h-33.974v23.624z"/><path fill="#036897" d="M464.281 319.14v-41.869h41.929v41.869zm47.402-5.132v-42.27l-5.473 5.533v41.869zm-39.959-42.27-7.443 5.533h41.929l5.473-5.533z"/><path stroke="#fff" stroke-linejoin="round" stroke-miterlimit="10" stroke-width=".967" d="M464.281 277.271v41.869h41.929m-41.929-41.869h41.929m-41.929 0 7.443-5.533h39.959m-5.473 5.533v41.869m0-41.869 5.473-5.533m-5.473 47.402 5.473-5.132v-42.27"/><path fill="#fff" d="M486.226 291.885v-9.081h1.563l-2.356-3.162-1.962 3.162h1.177v9.081zm-4.703 1.585-6.274-6.718 1.17-.792-3.91-.785.785 3.947.778-1.185 6.665 6.318zm-2.348 4.34h-9.022v-1.577l-3.133 1.977 3.133 2.37v-1.585h9.022zm1.562 4.348-6.665 6.718-.778-1.185-.785 3.948 3.91-.793-1.17-1.185 6.274-6.318zm3.911 2.37v9.088h-1.177l1.962 3.555 2.356-3.555h-1.563v-9.088zm4.703-1.185 6.666 6.318-1.177 1.185 3.91.793-.77-3.948-1.177 1.185-6.274-6.718zm2.348-4.348h9.014v1.585l3.526-2.37-3.526-1.977v1.577h-9.014zm-1.17-4.74 6.274-6.318 1.177 1.185.77-3.947-3.91.785 1.177.792-6.666 6.718z"/><path fill="#fff" stroke="#036C9B" stroke-miterlimit="10" stroke-width=".513" d="M490.931 306.105c4.296-3.155 5.473-9.08 2.348-13.428-2.748-4.348-8.629-5.133-12.932-2.37-4.311 3.162-5.489 9.088-2.348 13.428 3.125 4.348 8.999 5.533 12.932 2.37Z"/><rect width="41.135" height="11.709" x="419" y="289" fill="#DBDADA" rx="2.165"/><path fill="#000" d="M427.954 298.151q-.774 0-1.306-.247a1.87 1.87 0 0 1-.801-.678 1.8 1.8 0 0 1-.272-.989h1.109a.9.9 0 0 0 .124.455q.126.214.404.351.287.135.749.135.416 0 .695-.12a.95.95 0 0 0 .417-.311.77.77 0 0 0 .139-.446.57.57 0 0 0-.26-.495q-.261-.191-.812-.239l-.51-.04q-.837-.072-1.336-.519-.492-.455-.486-1.196.003-.56.27-.958.265-.406.738-.622.48-.223 1.119-.223.662 0 1.139.231t.737.654q.26.415.256.981h-1.109a.8.8 0 0 0-.116-.438.77.77 0 0 0-.341-.327 1.14 1.14 0 0 0-.573-.128q-.336 0-.56.112a.79.79 0 0 0-.451.718q-.002.27.196.478.198.2.628.232l.51.048a3.2 3.2 0 0 1 1.091.263q.47.214.722.582.261.367.257.886a1.7 1.7 0 0 1-.294.973 1.9 1.9 0 0 1-.827.646q-.528.231-1.246.231m4.787-.151.852-4.188h1.276l.919 4.188h-.877l-.936-4.164h.463l-.884 4.164zm-.327 0-.002-.91h.886l-.007.91zm-.447 0-1.15-4.332h1.077l1.094 4.332zm3.223 0 .006-.91h.886l-.015.91zm.351 0 1.028-4.332h1.005L436.498 298zm3.083 0 .031-4.332h1.109l-.031 4.332zm-.581-3.502.006-.83h1.715l-.006.83zm1.023-1.348q-.327 0-.486-.168a.64.64 0 0 1-.148-.431.63.63 0 0 1 .155-.439q.16-.167.487-.167.328 0 .478.167.15.168.148.439a.64.64 0 0 1-.154.431q-.153.168-.48.168m3.827 4.906q-.598 0-.988-.152a1.1 1.1 0 0 1-.571-.526q-.188-.375-.184-1.006l.036-3.925h1.038l-.037 3.997q-.003.32.164.495.174.168.493.167h.678l-.007.95zm-2.415-3.574.006-.814h3.063l-.006.814zm5.867 3.669q-.567 0-.98-.191a2.05 2.05 0 0 1-.683-.511 2.2 2.2 0 0 1-.401-.718 2.5 2.5 0 0 1-.13-.813l.001-.152q.003-.439.142-.837a2.1 2.1 0 0 1 .428-.718q.28-.32.689-.503.416-.192.959-.192.567 0 1.012.224.445.215.705.606.268.391.297.91h-1.077a.86.86 0 0 0-.283-.559q-.238-.223-.661-.223-.367 0-.615.175-.241.176-.363.487a1.9 1.9 0 0 0-.125.702q-.002.383.107.694.117.311.356.487.245.175.629.175.286 0 .495-.104a.8.8 0 0 0 .329-.287.95.95 0 0 0 .163-.415h1.077q-.036.527-.318.926-.274.39-.731.614a2.26 2.26 0 0 1-1.022.223m2.947-.151.042-5.824h1.109l-.024 3.399h-.192q.005-.654.176-1.109t.499-.694q.337-.24.848-.24h.048q.741 0 1.121.511.38.51.372 1.484l-.018 2.473h-1.109l.019-2.577q.003-.414-.235-.654-.23-.24-.612-.239a.87.87 0 0 0-.664.271q-.25.263-.253.694l-.018 2.505z"/><path fill="#232323" d="M277.114 321.518a.5.5 0 0 0-1 0zm51.792 36.76c-.27.058-.391.429-.207.634l2.969 3.302c.185.206.567.125.652-.138l1.375-4.222c.086-.262-.175-.553-.445-.496zm-52.792-36.76c0 4.998 3.119 8.786 7.725 11.89 4.604 3.104 10.797 5.597 17.158 7.985 6.386 2.398 12.944 4.692 18.37 7.405 5.44 2.721 9.617 5.806 11.358 9.715l.914-.406c-1.892-4.249-6.353-7.466-11.825-10.203-5.487-2.744-12.117-5.063-18.465-7.447-6.373-2.393-12.459-4.85-16.951-7.878-4.491-3.027-7.284-6.552-7.284-11.061z"/><rect width="41.135" height="11.709" x="312" y="421" fill="#DBDADA" rx="2.165"/><path fill="#000" d="m323.877 428.213.007-.981h1.133q.342 0 .575-.136a.88.88 0 0 0 .362-.375q.13-.239.131-.55a1.15 1.15 0 0 0-.123-.551.82.82 0 0 0-.357-.367 1.1 1.1 0 0 0-.573-.135h-1.133l.007-.982h1.037q.734 0 1.243.24.516.239.785.686.267.438.263 1.045v.127q-.004.607-.279 1.053a1.84 1.84 0 0 1-.795.687q-.513.239-1.246.239zM322.89 430l.043-5.864h1.133l-.043 5.864zm7.875.151q-.79 0-1.354-.279a2.7 2.7 0 0 1-.92-.726 3 3 0 0 1-.512-.973 3.3 3.3 0 0 1-.16-1.013l.001-.176a3.5 3.5 0 0 1 .175-1.069q.18-.526.542-.957t.914-.686q.56-.263 1.318-.263.79 0 1.37.287.59.279.936.798.348.51.414 1.196h-1.141a1.35 1.35 0 0 0-.282-.67 1.3 1.3 0 0 0-.547-.415 1.9 1.9 0 0 0-.757-.143q-.43 0-.767.151a1.5 1.5 0 0 0-.562.415q-.225.272-.347.638a2.8 2.8 0 0 0-.118.814q-.003.43.106.798.117.367.346.646.23.272.564.423.342.151.789.151.654 0 1.103-.319.457-.327.557-.909h1.141q-.085.622-.431 1.141a2.5 2.5 0 0 1-.948.829q-.6.312-1.43.311m3.505-1.906.007-.973h3.231l-.007.973zm4.143 1.755.008-1.117q.002-.367.116-.638.122-.272.386-.479.273-.215.713-.407l.993-.438a1.5 1.5 0 0 0 .561-.407q.201-.247.204-.631.003-.422-.25-.67-.246-.255-.709-.255t-.719.255q-.25.256-.253.71h-1.093q.004-.542.239-.973.234-.438.691-.686.456-.255 1.142-.255.687 0 1.139.247.453.248.682.662.228.407.224.91v.103q-.004.654-.375 1.093-.37.43-1.083.75l-.992.439q-.28.12-.393.255a.52.52 0 0 0-.114.351l-.004.511-.269-.295h3.231l-.007.965z"/><path fill="#036897" stroke="#fff" stroke-linejoin="round" stroke-miterlimit="10" stroke-width="1.328" d="M414.672 416.971V409.1h41.743v7.871z"/><path fill="#036897" stroke="#fff" stroke-linejoin="round" stroke-miterlimit="10" stroke-width="1.328" d="M463.963 402.204v7.889l-7.548 6.875v-7.87h-41.743z"/><path fill="#036897" d="M456.415 409.099v-31.018h-41.743v31.018zm0 0 7.548-6.894v-31.018h-42.255l-7.036 6.894h41.743zm0-31.018 7.548-6.894z"/><path stroke="#fff" stroke-linejoin="round" stroke-miterlimit="10" stroke-width="1.328" d="M456.415 409.099v-31.018m0 31.018h-41.743v-31.018m41.743 31.018 7.548-6.894v-31.018m-7.548 6.894h-41.743m41.743 0 7.548-6.894m-49.291 6.894 7.036-6.894h42.255"/><path fill="#036897" d="M454.415 422.395v-4.428h-48.296l5.538-5.424h48.296v4.428zm0-4.428v4.428h-48.296v-4.428zm0 0 5.538-5.424z"/><path stroke="#fff" stroke-linejoin="round" stroke-miterlimit="10" stroke-width="1.328" d="M454.415 422.395v-4.428m0 4.428 5.538-5.424v-4.428m-5.538 9.852h-48.296v-4.428m48.296 0h-48.296m48.296 0 5.538-5.424m-53.834 5.424 5.538-5.424h48.296"/><path stroke="#fff" stroke-miterlimit="10" stroke-width="1.328" d="M452.898 405.658v-24.134h-34.707v24.134z"/><rect width="41.135" height="11.709" x="415" y="427" fill="#DBDADA" rx="2.165"/><path fill="#000" d="m427.239 434.097.007-.982h1.133q.344 0 .575-.135a.9.9 0 0 0 .362-.375q.129-.24.132-.551a1.15 1.15 0 0 0-.124-.55.8.8 0 0 0-.356-.367 1.1 1.1 0 0 0-.574-.136h-1.133l.008-.981h1.037q.733 0 1.242.239.518.24.785.686.269.44.264 1.045l-.001.128a2 2 0 0 1-.279 1.053 1.84 1.84 0 0 1-.795.686q-.511.24-1.246.24zm-.986 1.787.042-5.864h1.133l-.042 5.864zm7.875.151q-.79 0-1.355-.279a2.7 2.7 0 0 1-.92-.726 3 3 0 0 1-.511-.973 3.3 3.3 0 0 1-.161-1.013l.002-.176q.004-.543.175-1.069.179-.526.541-.957t.915-.686q.56-.264 1.318-.264.79 0 1.37.288.588.28.936.797.347.511.414 1.197h-1.141a1.37 1.37 0 0 0-.83-1.085 1.9 1.9 0 0 0-.757-.144q-.43 0-.767.152a1.5 1.5 0 0 0-.561.415q-.225.271-.348.638a2.8 2.8 0 0 0-.117.814q-.003.43.106.797.117.368.346.647.23.27.563.422.342.152.789.152.654 0 1.103-.319a1.35 1.35 0 0 0 .557-.909h1.141q-.084.622-.431 1.14a2.5 2.5 0 0 1-.947.83q-.601.31-1.43.311m3.505-1.907.007-.973h3.231l-.007.973zm6.064 1.907q-.67 0-1.155-.255a1.83 1.83 0 0 1-.729-.678 1.84 1.84 0 0 1-.249-.958h1.093a.9.9 0 0 0 .275.686q.285.256.772.256.327 0 .559-.12a.9.9 0 0 0 .369-.343q.13-.224.132-.51a.93.93 0 0 0-.274-.703q-.278-.279-.764-.279-.24 0-.424.064a1.2 1.2 0 0 0-.312.168l-.512-.894 1.924-1.308-.071-.136h-2.505l.007-.965h3.806l-.009 1.165-1.98 1.308-.613-.112q.151-.048.327-.072.176-.031.383-.031.663 0 1.132.231.477.223.729.622t.249.918l-.001.103q-.004.503-.262.926-.258.415-.739.67-.48.247-1.158.247"/><path fill="#232323" d="M488.482 322.14a.5.5 0 0 0-1 0zm-54.835 40.757c-.272-.044-.519.258-.421.516l1.579 4.151c.098.258.483.32.658.106l2.805-3.442c.174-.214.035-.579-.237-.623zm53.835-40.757c0 5.15-2.745 9.132-7.08 12.524-4.346 3.401-10.225 6.157-16.364 8.852-6.114 2.684-12.484 5.307-17.711 8.43-5.222 3.12-9.405 6.795-11.042 11.641l.947.32c1.521-4.501 5.446-8.019 10.608-11.103 5.157-3.081 11.448-5.671 17.6-8.373 6.128-2.69 12.12-5.49 16.579-8.98 4.47-3.498 7.463-7.74 7.463-13.311z"/><path fill="#036897" stroke="#fff" stroke-linejoin="round" stroke-miterlimit="10" stroke-width="1.3" d="M529.222 416.003v-7.704h40.859v7.704z"/><path fill="#036897" stroke="#fff" stroke-linejoin="round" stroke-miterlimit="10" stroke-width="1.3" d="M577.47 401.549v7.722l-7.389 6.73v-7.704h-40.859z"/><path fill="#036897" d="M570.081 408.297v-30.361h-40.859v30.361zm0 0 7.389-6.748v-30.361h-41.36l-6.888 6.748h40.859zm0-30.361 7.389-6.748z"/><path stroke="#fff" stroke-linejoin="round" stroke-miterlimit="10" stroke-width="1.3" d="M570.081 408.297v-30.361m0 30.361h-40.859v-30.361m40.859 30.361 7.389-6.748v-30.361m-7.389 6.748h-40.859m40.859 0 7.389-6.748m-48.248 6.748 6.888-6.748h41.36"/><path fill="#036897" d="M568.123 421.31v-4.335H520.85l5.421-5.309h47.272v4.335zm0-4.335v4.335H520.85v-4.335zm0 0 5.42-5.309z"/><path stroke="#fff" stroke-linejoin="round" stroke-miterlimit="10" stroke-width="1.3" d="M568.123 421.31v-4.335m0 4.335 5.42-5.309v-4.335m-5.42 9.644H520.85v-4.335m47.273 0H520.85m47.273 0 5.42-5.309m-52.693 5.309 5.421-5.309h47.272"/><path stroke="#fff" stroke-miterlimit="10" stroke-width="1.3" d="M566.639 404.93v-23.623h-33.972v23.623z"/><rect width="41.135" height="11.709" x="529" y="426" fill="#DBDADA" rx="2.165"/><path fill="#000" d="m540.429 433.213.007-.981h1.133q.342 0 .575-.136a.88.88 0 0 0 .362-.375q.13-.239.131-.55a1.14 1.14 0 0 0-.123-.551.82.82 0 0 0-.357-.367 1.1 1.1 0 0 0-.573-.135h-1.133l.007-.982h1.037q.734 0 1.243.24.516.239.785.686.268.438.263 1.045v.127q-.005.607-.279 1.053a1.84 1.84 0 0 1-.795.687q-.513.239-1.246.239zm-.987 1.787.043-5.864h1.133l-.043 5.864zm7.875.151q-.79 0-1.354-.279a2.7 2.7 0 0 1-.92-.726 3 3 0 0 1-.512-.973 3.3 3.3 0 0 1-.16-1.013l.001-.176a3.5 3.5 0 0 1 .175-1.069q.18-.526.542-.957t.914-.686q.56-.263 1.318-.263.79 0 1.371.287.588.279.935.798.348.51.414 1.196h-1.14a1.36 1.36 0 0 0-.283-.67 1.3 1.3 0 0 0-.547-.415 1.9 1.9 0 0 0-.757-.143q-.43 0-.767.151a1.5 1.5 0 0 0-.562.415q-.225.272-.347.638a2.8 2.8 0 0 0-.118.814q-.003.43.106.798.117.367.347.646.228.272.563.423.342.151.789.151.654 0 1.103-.319.457-.327.557-.909h1.141q-.085.622-.431 1.141a2.5 2.5 0 0 1-.948.829q-.6.312-1.43.311m3.505-1.906.007-.973h3.231l-.007.973zm3.936.55.009-1.228 2.307-3.55.85.582-2.034 3.143.095.16h3.574l-.006.893zm3.039 1.205.03-4.172h1.045l-.03 4.172z"/><path fill="#232323" d="M488.482 322.14a.5.5 0 0 0-1 0zm57.581 41.537c-.271.051-.401.419-.222.629l2.886 3.375c.179.21.563.138.655-.122l1.48-4.186c.092-.261-.162-.557-.433-.507zm-58.581-41.537c0 5.605 3.479 9.85 8.627 13.335 5.146 3.483 12.062 6.28 19.146 8.971 7.108 2.701 14.388 5.295 20.354 8.382 5.981 3.094 10.515 6.622 12.263 11.118l.932-.362c-1.889-4.859-6.717-8.53-12.735-11.644-6.032-3.121-13.387-5.742-20.459-8.428-7.096-2.696-13.905-5.457-18.94-8.865-5.032-3.407-8.188-7.388-8.188-12.507z"/><path fill="#036897" d="M413.929 183.963c0 6.769-13.986 12.275-31.373 12.275-17.372 0-31.358-5.506-31.358-12.275v17.789c0 6.769 13.986 12.275 31.358 12.275 17.387 0 31.373-5.506 31.373-12.275zm-31.373 12.275c17.387 0 31.373-5.506 31.373-12.275 0-6.785-13.986-12.291-31.373-12.291-17.372 0-31.358 5.506-31.358 12.291 0 6.769 13.986 12.275 31.358 12.275"/><path stroke="#fff" stroke-linejoin="round" stroke-miterlimit="10" stroke-width="1.434" d="M413.929 183.963c0 6.769-13.986 12.275-31.373 12.275-17.372 0-31.358-5.506-31.358-12.275m62.731 0v17.789c0 6.769-13.986 12.275-31.373 12.275-17.372 0-31.358-5.506-31.358-12.275v-17.789m62.731 0c0-6.785-13.986-12.291-31.373-12.291-17.372 0-31.358 5.506-31.358 12.291"/><path fill="#fff" d="m375.359 179.294 2.541 3.812-9.747 2.126 2.123-1.703-14.838-2.541 3.812-2.965 14.404 2.541zm13.994 9.318-2.124-3.812 8.895-2.11-1.27 1.686 14.412 2.542-3.386 2.541-14.838-2.541zm-5.091-11.436 9.739-2.541.435 3.812-2.542-.424-4.665 4.236-4.672-.839 4.672-3.812zm-4.247 15.248-9.321 1.702-.418-4.667 2.96.855 5.09-4.667 4.665.855-5.517 5.083z"/><path fill="#232323" d="M383.064 217.027a.5.5 0 0 0-1 0zm101.56 47.392c-.268.067-.377.442-.185.641l3.08 3.198c.192.199.571.105.647-.161l1.23-4.266c.076-.266-.195-.547-.463-.481zm-102.56-47.392c0 3.218 1.547 6.023 4.184 8.494 2.631 2.465 6.374 4.627 10.853 6.583 8.957 3.912 20.997 7.056 33.336 10.104 12.36 3.054 25.024 6.011 35.301 9.553 5.136 1.77 9.654 3.679 13.226 5.807 3.578 2.131 6.161 4.455 7.491 7.033l.888-.459c-1.453-2.817-4.218-5.26-7.867-7.434-3.656-2.177-8.246-4.112-13.413-5.893-10.33-3.56-23.053-6.531-35.386-9.577-12.354-3.052-24.31-6.178-33.176-10.05-4.434-1.936-8.059-4.044-10.569-6.397-2.504-2.346-3.868-4.904-3.868-7.764z"/><path fill="#232323" d="M383.064 217.027a.5.5 0 0 0-1 0zm-107.369 45.79c-.268-.068-.54.212-.465.478l1.203 4.274c.075.265.454.362.646.164l3.1-3.179c.193-.198.087-.574-.181-.642zm106.369-45.79c0 2.824-1.368 5.353-3.882 7.674-2.52 2.328-6.159 4.414-10.611 6.329-8.902 3.832-20.907 6.925-33.314 9.944-12.387 3.014-25.168 5.952-35.553 9.471-5.193 1.76-9.809 3.673-13.489 5.824-3.672 2.148-6.46 4.561-7.933 7.346l.883.467c1.348-2.546 3.952-4.842 7.555-6.949 3.597-2.103 8.141-3.991 13.305-5.741 10.331-3.501 23.055-6.426 35.468-9.446 12.392-3.016 24.481-6.127 33.474-9.997 4.496-1.935 8.253-4.075 10.894-6.513 2.647-2.444 4.203-5.221 4.203-8.409zM277.114 321.518a.5.5 0 0 0-1 0zm-54.258 33.628c-.269-.061-.534.226-.452.49l1.322 4.239c.082.263.463.349.65.146l3.01-3.264c.188-.203.071-.575-.198-.636zm53.258-33.628c0 4.234-2.617 7.552-6.841 10.406-4.227 2.856-9.958 5.175-15.974 7.431-5.992 2.247-12.264 4.429-17.479 7.003-5.201 2.566-9.474 5.577-11.36 9.549l.904.429c1.73-3.646 5.728-6.53 10.898-9.082 5.157-2.544 11.358-4.702 17.388-6.963 6.006-2.251 11.844-4.607 16.182-7.538 4.34-2.932 7.282-6.514 7.282-11.235z"/><path fill="#FFD084" d="M177 123.824c0-1.007.817-1.824 1.824-1.824h357.352c1.007 0 1.824.817 1.824 1.824v27.352a1.824 1.824 0 0 1-1.824 1.824H178.824a1.824 1.824 0 0 1-1.824-1.824z"/><rect width="326.142" height="39.858" x="199.338" y="75.338" fill="#fff" rx="7.769"/><rect width="326.142" height="39.858" x="199.338" y="75.338" stroke="#EEE" stroke-width=".676" rx="7.769"/><rect width="54.72" height="26.347" x="206.093" y="82.093" fill="#F7F7F7" stroke="#EEE" stroke-width=".676" rx="5.067"/><path fill="#18181B" d="m249.937 100.912 2.703-3.603a.338.338 0 0 0-.271-.54h-5.404a.338.338 0 0 0-.27.54l2.702 3.603a.336.336 0 0 0 .54 0M249.937 89.624l2.703 3.603a.338.338 0 0 1-.271.54h-5.404a.338.338 0 0 1-.27-.54l2.702-3.603a.337.337 0 0 1 .54 0M215.211 97.511v-5.04h-1.315v-.805h.293c.813 0 1.088-.18 1.23-.775h.766v6.62zm4.974.114c-1.523 0-2.364-.937-2.364-2.478v-1.892c0-1.541.841-2.478 2.364-2.478 1.513 0 2.355.936 2.355 2.478v1.892c0 1.541-.842 2.478-2.355 2.478m-1.39-2.478c0 1.087.52 1.607 1.39 1.607s1.381-.52 1.381-1.607v-1.892c0-1.087-.511-1.608-1.381-1.608s-1.39.52-1.39 1.608zm7.366 4.483v-6.592h.861l.057.586h.028c.246-.416.823-.7 1.466-.7 1.201 0 2.109.955 2.109 2.346 0 1.39-.917 2.355-2.109 2.355-.605 0-1.182-.265-1.428-.681h-.038v2.686zm.908-4.36c0 .955.558 1.522 1.324 1.522.776 0 1.324-.567 1.324-1.522 0-.946-.548-1.523-1.324-1.523-.766 0-1.324.577-1.324 1.523m4.039 2.241 1.636-2.317-1.541-2.156h1.031l1.068 1.484 1.06-1.484h1.04l-1.551 2.156 1.636 2.317h-1.05l-1.135-1.627-1.144 1.627z"/><path stroke="#18181B" stroke-linecap="round" stroke-linejoin="round" stroke-width="2.027" d="M276.779 90.732h3.597a2.346 2.346 0 0 1 0 4.692h-3.597z"/><path stroke="#18181B" stroke-linecap="round" stroke-linejoin="round" stroke-width="2.027" d="M276.779 95.423h4.379a2.19 2.19 0 0 1 0 4.378h-4.379z"/><path stroke="#18181B" stroke-linecap="round" stroke-linejoin="round" stroke-width="1.081" d="M313.741 90.732h-1.408m1.408 0h1.407m-1.407 0-2.503 9.07m0 0h-1.407m1.407 0h1.408"/><path stroke="#18181B" stroke-linecap="round" stroke-linejoin="round" stroke-width="1.351" d="M349.921 100.272h-10.008m8.579-9.294v3.575a3.575 3.575 0 0 1-7.149 0v-3.575m-1.072-.715h2.144m5.004 0h2.145M372.343 95.265h6.698m0 0c1.566 0 2.836 1.26 2.836 2.815s-1.27 2.815-2.836 2.815h-1.736a3.54 3.54 0 0 1-3.473-2.815m5.209-2.815h3.935m-1.1-2.11c0-1.944-1.587-3.52-3.544-3.52h-1.736a2.825 2.825 0 0 0-2.835 2.816v.703"/><g clip-path="url(#r)"><path stroke="#18181B" stroke-linecap="round" stroke-width="1.081" d="M414.198 98.569h-9.007m5.911-3.378h-5.911m9.007-3.378h-9.007"/></g><path fill="#18181B" d="m426.546 97.208 3.032-3.639a.338.338 0 0 0-.26-.554h-6.064a.338.338 0 0 0-.259.554l3.032 3.638a.338.338 0 0 0 .519 0"/><path stroke="#18181B" stroke-linecap="round" stroke-linejoin="round" stroke-width="1.081" d="M452.533 91.515h8.057m-8.057 4.053h8.057m-8.057 4.053h8.057m-11.26-8.106v.007m0 4.046v.008m0 4.045v.008"/><path fill="#18181B" d="m471.733 97.208 3.032-3.639a.338.338 0 0 0-.26-.554h-6.064a.338.338 0 0 0-.259.554l3.032 3.638a.338.338 0 0 0 .519 0"/><path stroke="#EEE" stroke-width=".676" d="M486.973 81.756v27.022"/><g clip-path="url(#s)"><g clip-path="url(#t)"><path fill="#C8511B" d="M498.043 99.244h13.511v2.027h-13.511z"/><path fill="#18181B" d="M500.512 98.48a.673.673 0 0 0 .881-.35l.689-1.605h5.436l.689 1.604c.108.254.369.533.881.351.349-.124.499-.54.351-.881l-4.027-9.381a.668.668 0 0 0-1.229 0l-4.022 9.384c-.148.34.01.733.351.878m4.285-8.296 2.143 5h-4.285z"/></g></g><path stroke="#6762FE" stroke-width="1.15" d="M219.177 153.133v-30.786h277.989v30.786z"/><rect width="7.85" height="7.85" x="214.575" y="118.575" fill="#fff" stroke="#6762FE" stroke-width="1.15" rx="1.725"/><rect width="7.85" height="7.85" x="493.575" y="117.575" fill="#fff" stroke="#6762FE" stroke-width="1.15" rx="1.725"/><rect width="7.85" height="7.85" x="493.575" y="149.575" fill="#fff" stroke="#6762FE" stroke-width="1.15" rx="1.725"/><rect width="7.85" height="8.048" x="214.575" y="149.569" fill="#fff" stroke="#6762FE" stroke-width="1.15" rx="1.725"/><path fill="#1997F2" fill-opacity=".24" stroke="#1997F2" stroke-width=".367" d="M225.183 126.183h262.633v22.633H225.183z"/><path fill="#000" d="M238.019 141v-8.76h1.968V141zm-5.664 0v-8.76h1.968V141zm1.62-3.54v-1.728h4.392v1.728zm8.182 3.54v-6.576h1.92V141zm-.876-5.16v-1.416h2.796v1.416zm1.62-2.064q-.54 0-.804-.276a1.05 1.05 0 0 1-.252-.72q0-.444.252-.72.264-.288.804-.288t.792.288q.264.276.264.72 0 .432-.264.72-.252.276-.792.276m5.964 7.452q-.84 0-1.488-.288a3.2 3.2 0 0 1-1.068-.768 3.7 3.7 0 0 1-.648-1.092 3.7 3.7 0 0 1-.216-1.248v-.24q0-.66.216-1.26.228-.612.648-1.092a2.95 2.95 0 0 1 1.044-.756 3.45 3.45 0 0 1 1.44-.288q1.056 0 1.776.48.732.468 1.116 1.236.384.756.384 1.656v.648h-5.82v-1.092h4.656l-.624.504q0-.588-.168-1.008a1.3 1.3 0 0 0-.504-.636q-.324-.228-.816-.228-.504 0-.852.228a1.4 1.4 0 0 0-.528.672q-.18.432-.18 1.068 0 .588.168 1.032.168.432.528.672t.936.24q.528 0 .864-.204t.456-.504h1.764q-.144.66-.564 1.176a2.86 2.86 0 0 1-1.056.804q-.636.288-1.464.288m4.476-.228v-6.576h1.524v2.82h-.036q0-1.392.588-2.148.6-.756 1.728-.756h.252v1.656h-.48q-.792 0-1.224.432-.432.42-.432 1.224V141zm8.976 0v-1.944h-.324v-2.112q0-.504-.24-.756t-.768-.252q-.264 0-.696.012t-.888.036-.828.048v-1.62a30 30 0 0 1 1.416-.084q.396-.012.744-.012 1.008 0 1.692.288.696.288 1.056.876.36.576.36 1.488V141zm-2.1.168q-.708 0-1.248-.252a1.96 1.96 0 0 1-.828-.72q-.3-.48-.3-1.14 0-.72.372-1.176.372-.468 1.044-.684.672-.228 1.548-.228h1.404v1.068h-1.416q-.504 0-.78.252-.264.24-.264.66 0 .396.264.648.276.24.78.24.324 0 .576-.108a.98.98 0 0 0 .432-.396q.168-.276.192-.768l.456.48q-.06.684-.336 1.152a1.8 1.8 0 0 1-.744.72q-.468.252-1.152.252m5.253-.168v-6.576h1.524v2.82h-.036q0-1.392.588-2.148.6-.756 1.728-.756h.252v1.656h-.48q-.792 0-1.224.432-.432.42-.432 1.224V141zm7.967.228q-.852 0-1.488-.276a3.1 3.1 0 0 1-1.044-.768 3.2 3.2 0 0 1-.624-1.08 4 4 0 0 1-.204-1.26v-.228q0-.672.216-1.284.216-.624.636-1.104a2.95 2.95 0 0 1 1.044-.756q.636-.276 1.452-.276.888 0 1.572.348.684.336 1.092.948t.456 1.404h-1.884a1.18 1.18 0 0 0-.36-.744q-.3-.312-.876-.312-.48 0-.804.24-.312.24-.468.66t-.156.996q0 .528.144.96.144.42.456.66.324.228.84.228.384 0 .648-.132.276-.144.432-.384.168-.252.204-.576h1.872a2.74 2.74 0 0 1-.456 1.44q-.42.612-1.116.96-.696.336-1.584.336m4.384-.228v-8.76h1.92v5.052h-.288q0-.996.252-1.68t.744-1.032q.492-.36 1.236-.36h.084q1.092 0 1.668.78.576.768.576 2.256V141h-1.92v-3.864q0-.54-.324-.864-.312-.336-.828-.336-.54 0-.876.348-.324.348-.324.924V141zm8.14 0v-6.576h1.92V141zm-.876-5.16v-1.416h2.796v1.416zm1.62-2.064q-.54 0-.804-.276a1.05 1.05 0 0 1-.252-.72q0-.444.252-.72.264-.288.804-.288t.792.288q.264.276.264.72 0 .432-.264.72-.252.276-.792.276m5.904 7.452q-.852 0-1.488-.276a3.1 3.1 0 0 1-1.044-.768 3.2 3.2 0 0 1-.624-1.08 4 4 0 0 1-.204-1.26v-.228q0-.672.216-1.284.216-.624.636-1.104a2.95 2.95 0 0 1 1.044-.756q.636-.276 1.452-.276.888 0 1.572.348.684.336 1.092.948t.456 1.404h-1.884a1.18 1.18 0 0 0-.36-.744q-.3-.312-.876-.312-.48 0-.804.24-.312.24-.468.66t-.156.996q0 .528.144.96.144.42.456.66.324.228.84.228.384 0 .648-.132.276-.144.432-.384.168-.252.204-.576h1.872a2.74 2.74 0 0 1-.456 1.44q-.42.612-1.116.96-.696.336-1.584.336m8.356-.228v-1.944h-.324v-2.112q0-.504-.24-.756t-.768-.252q-.264 0-.696.012t-.888.036-.828.048v-1.62a30 30 0 0 1 1.416-.084q.396-.012.744-.012 1.008 0 1.692.288.696.288 1.056.876.36.576.36 1.488V141zm-2.1.168q-.708 0-1.248-.252a1.96 1.96 0 0 1-.828-.72q-.3-.48-.3-1.14 0-.72.372-1.176.372-.468 1.044-.684.672-.228 1.548-.228h1.404v1.068h-1.416q-.504 0-.78.252-.264.24-.264.66 0 .396.264.648.276.24.78.24.324 0 .576-.108a.98.98 0 0 0 .432-.396q.168-.276.192-.768l.456.48q-.06.684-.336 1.152a1.8 1.8 0 0 1-.744.72q-.468.252-1.152.252m5.337-.168v-8.76h1.932V141zm-.78-7.344v-1.416h2.712v1.416zm7.109 7.344v-8.76h3.228l3.3 7.164h.408l-.24.216v-7.38h1.848V141h-3.252l-3.3-7.164h-.408l.24-.216V141zm13.416.228q-.84 0-1.488-.288a3.2 3.2 0 0 1-1.068-.768 3.7 3.7 0 0 1-.648-1.092 3.7 3.7 0 0 1-.216-1.248v-.24q0-.66.216-1.26.228-.612.648-1.092a2.95 2.95 0 0 1 1.044-.756 3.45 3.45 0 0 1 1.44-.288q1.056 0 1.776.48.732.468 1.116 1.236.384.756.384 1.656v.648h-5.82v-1.092h4.656l-.624.504q0-.588-.168-1.008a1.3 1.3 0 0 0-.504-.636q-.324-.228-.816-.228-.504 0-.852.228a1.4 1.4 0 0 0-.528.672q-.18.432-.18 1.068 0 .588.168 1.032.168.432.528.672t.936.24q.528 0 .864-.204t.456-.504h1.764q-.144.66-.564 1.176a2.86 2.86 0 0 1-1.056.804q-.636.288-1.464.288m7.464-.144q-.996 0-1.608-.24a1.7 1.7 0 0 1-.9-.828q-.276-.588-.276-1.584v-5.784h1.788v5.856q0 .468.24.72.252.24.708.24h.972v1.62zm-3.78-5.256v-1.404h4.704v1.404zm8.407 5.172 1.2-6.36h2.1l1.392 6.36h-1.488l-1.428-6.312h.852L337.382 141zm-.456 0-.012-1.596h1.32l.012 1.596zm-.864 0-1.764-6.576h1.884l1.644 6.576zm5.016 0 .012-1.596h1.32V141zm.54 0 1.464-6.576h1.764L341.918 141zm7.466.228q-.864 0-1.536-.264a3.4 3.4 0 0 1-1.14-.744 3.2 3.2 0 0 1-.696-1.068 3.5 3.5 0 0 1-.24-1.284v-.276q0-.684.24-1.296.252-.624.72-1.092.48-.468 1.152-.732a3.9 3.9 0 0 1 1.5-.276q.852 0 1.512.276.672.264 1.14.732t.72 1.092q.252.612.252 1.296v.276q0 .672-.24 1.284-.24.6-.708 1.068-.456.468-1.128.744-.672.264-1.548.264m0-1.62q.564 0 .936-.24t.564-.672a2.2 2.2 0 0 0 .204-.96q0-.564-.204-.984a1.63 1.63 0 0 0-.588-.684q-.372-.252-.912-.252-.528 0-.912.252a1.63 1.63 0 0 0-.588.684q-.192.42-.192.984 0 .528.192.96t.576.672.924.24m4.964 1.392v-6.576h1.524v2.82h-.036q0-1.392.588-2.148.6-.756 1.728-.756h.252v1.656h-.48q-.792 0-1.224.432-.432.42-.432 1.224V141zm9.683 0-2.076-3.072h-.924l2.676-3.504h2.016l-2.52 3.264.024-.936 2.964 4.248zm-4.632 0v-8.76h1.92V141zm12.032 0v-7.284h1.968V141zm-2.46-7.044v-1.716h6.9v1.716zm10.401 7.272q-.864 0-1.536-.264a3.4 3.4 0 0 1-1.14-.744 3.2 3.2 0 0 1-.696-1.068 3.5 3.5 0 0 1-.24-1.284v-.276q0-.684.24-1.296.252-.624.72-1.092.48-.468 1.152-.732a3.9 3.9 0 0 1 1.5-.276q.852 0 1.512.276.672.264 1.14.732t.72 1.092q.252.612.252 1.296v.276q0 .672-.24 1.284-.24.6-.708 1.068-.456.468-1.128.744-.672.264-1.548.264m0-1.62q.564 0 .936-.24t.564-.672a2.2 2.2 0 0 0 .204-.96q0-.564-.204-.984a1.63 1.63 0 0 0-.588-.684q-.372-.252-.912-.252-.528 0-.912.252a1.63 1.63 0 0 0-.588.684q-.192.42-.192.984 0 .528.192.96t.576.672.924.24m4.964 3.792v-8.976h1.524v2.844l-.204-.012q.048-.984.408-1.656.36-.684.972-1.02a2.74 2.74 0 0 1 1.38-.348q.684 0 1.236.252.564.252.96.708.408.444.612 1.056.216.6.216 1.32v.276q0 .708-.204 1.332a3.1 3.1 0 0 1-.6 1.068 2.7 2.7 0 0 1-.948.72 3 3 0 0 1-1.272.252q-.744 0-1.344-.3a2.37 2.37 0 0 1-.948-.936q-.36-.636-.396-1.608l.528.72v4.308zm3.54-3.792a1.5 1.5 0 0 0 .852-.24q.372-.24.576-.672t.204-.996-.204-.984a1.522 1.522 0 0 0-1.428-.888q-.432 0-.816.204a1.63 1.63 0 0 0-.624.588q-.228.372-.228.912v.444q0 .516.24.888.252.36.636.552t.792.192m8.102 1.62q-.864 0-1.536-.264a3.4 3.4 0 0 1-1.14-.744 3.2 3.2 0 0 1-.696-1.068 3.5 3.5 0 0 1-.24-1.284v-.276q0-.684.24-1.296.252-.624.72-1.092.48-.468 1.152-.732a3.9 3.9 0 0 1 1.5-.276q.852 0 1.512.276.672.264 1.14.732t.72 1.092q.252.612.252 1.296v.276q0 .672-.24 1.284-.24.6-.708 1.068-.456.468-1.128.744-.672.264-1.548.264m0-1.62q.564 0 .936-.24t.564-.672a2.2 2.2 0 0 0 .204-.96q0-.564-.204-.984a1.63 1.63 0 0 0-.588-.684q-.372-.252-.912-.252-.528 0-.912.252a1.63 1.63 0 0 0-.588.684q-.192.42-.192.984 0 .528.192.96t.576.672.924.24m5.048 1.392v-8.76h1.932V141zm-.78-7.344v-1.416h2.712v1.416zm7.685 7.572q-.864 0-1.536-.264a3.4 3.4 0 0 1-1.14-.744 3.2 3.2 0 0 1-.696-1.068 3.5 3.5 0 0 1-.24-1.284v-.276q0-.684.24-1.296.252-.624.72-1.092.48-.468 1.152-.732a3.9 3.9 0 0 1 1.5-.276q.852 0 1.512.276.672.264 1.14.732t.72 1.092q.252.612.252 1.296v.276q0 .672-.24 1.284-.24.6-.708 1.068-.456.468-1.128.744-.672.264-1.548.264m0-1.62q.564 0 .936-.24t.564-.672a2.2 2.2 0 0 0 .204-.96q0-.564-.204-.984a1.63 1.63 0 0 0-.588-.684q-.372-.252-.912-.252-.528 0-.912.252a1.63 1.63 0 0 0-.588.684q-.192.42-.192.984 0 .528.192.96t.576.672.924.24m7.556 4.008a14 14 0 0 1-1.908-.132v-1.62q.42.06.924.096.516.048.936.048.78 0 1.26-.18.492-.18.72-.552.228-.36.228-.936v-1.308l.348-.768q-.024.876-.348 1.5-.312.624-.876.96-.564.324-1.344.324-.672 0-1.224-.24-.54-.252-.924-.696a3.1 3.1 0 0 1-.588-1.032 4 4 0 0 1-.204-1.296v-.276q0-.696.216-1.296t.624-1.044.972-.684a3 3 0 0 1 1.248-.252q.792 0 1.368.348.588.348.924 1.02t.36 1.62l-.264.072v-2.868h1.524v5.796q0 1.212-.432 1.956t-1.32 1.092q-.876.348-2.22.348m.54-4.188q.444 0 .804-.192.36-.204.564-.576.216-.372.216-.9v-.348q0-.516-.228-.864a1.4 1.4 0 0 0-.576-.54 1.6 1.6 0 0 0-.768-.192q-.48 0-.852.228a1.53 1.53 0 0 0-.576.636 2.1 2.1 0 0 0-.204.96q0 .564.204.972.216.396.576.612.372.204.84.204m5.023 4.176v-1.632h1.368q.312 0 .528-.084a.7.7 0 0 0 .348-.252q.132-.18.216-.492l1.62-6.72h1.824l-1.836 7.104q-.192.768-.54 1.224a1.8 1.8 0 0 1-.912.648q-.564.204-1.44.204zm2.064-2.748v-1.5h1.392v1.5zm-.792 0-2.016-6.432h1.932l1.908 6.432zm9.999.192v-1.836h1.632q.612 0 1.104-.18.492-.192.84-.528.348-.348.528-.828.18-.492.18-1.08 0-.612-.18-1.092a2.2 2.2 0 0 0-.528-.816 2.2 2.2 0 0 0-.84-.504 3.2 3.2 0 0 0-1.104-.18h-1.632v-1.836h1.524q1.188 0 2.076.348a4.3 4.3 0 0 1 1.488.948q.6.6.888 1.38.3.768.3 1.62v.264q0 .792-.3 1.572a4.05 4.05 0 0 1-.888 1.392q-.6.612-1.488.984t-2.076.372zm-1.728 0v-8.88h1.968v8.88zm9.579-.048v-6.576h1.92V141zm-.876-5.16v-1.416h2.796v1.416zm1.62-2.064q-.54 0-.804-.276a1.05 1.05 0 0 1-.252-.72q0-.444.252-.72.264-.288.804-.288t.792.288q.264.276.264.72 0 .432-.264.72-.252.276-.792.276m6.924 7.224v-1.944h-.324v-2.112q0-.504-.24-.756t-.768-.252q-.264 0-.696.012t-.888.036-.828.048v-1.62a30 30 0 0 1 1.416-.084q.396-.012.744-.012 1.008 0 1.692.288.696.288 1.056.876.36.576.36 1.488V141zm-2.1.168q-.708 0-1.248-.252a1.96 1.96 0 0 1-.828-.72q-.3-.48-.3-1.14 0-.72.372-1.176.372-.468 1.044-.684.672-.228 1.548-.228h1.404v1.068h-1.416q-.504 0-.78.252-.264.24-.264.66 0 .396.264.648.276.24.78.24.324 0 .576-.108a.98.98 0 0 0 .432-.396q.168-.276.192-.768l.456.48q-.06.684-.336 1.152a1.8 1.8 0 0 1-.744.72q-.468.252-1.152.252m7.845 2.448a14 14 0 0 1-1.908-.132v-1.62q.42.06.924.096.516.048.936.048.78 0 1.26-.18.492-.18.72-.552.228-.36.228-.936v-1.308l.348-.768q-.024.876-.348 1.5-.312.624-.876.96-.564.324-1.344.324-.672 0-1.224-.24-.54-.252-.924-.696a3.1 3.1 0 0 1-.588-1.032 4 4 0 0 1-.204-1.296v-.276q0-.696.216-1.296t.624-1.044.972-.684a3 3 0 0 1 1.248-.252q.792 0 1.368.348.588.348.924 1.02t.36 1.62l-.264.072v-2.868h1.524v5.796q0 1.212-.432 1.956t-1.32 1.092q-.876.348-2.22.348m.54-4.188q.444 0 .804-.192.36-.204.564-.576.216-.372.216-.9v-.348q0-.516-.228-.864a1.4 1.4 0 0 0-.576-.54 1.6 1.6 0 0 0-.768-.192q-.48 0-.852.228a1.53 1.53 0 0 0-.576.636 2.1 2.1 0 0 0-.204.96q0 .564.204.972.216.396.576.612.372.204.84.204m5.094 1.572v-6.576h1.524v2.82h-.036q0-1.392.588-2.148.6-.756 1.728-.756h.252v1.656h-.48q-.792 0-1.224.432-.432.42-.432 1.224V141zm8.976 0v-1.944h-.324v-2.112q0-.504-.24-.756t-.768-.252q-.264 0-.696.012t-.888.036-.828.048v-1.62a30 30 0 0 1 1.416-.084q.396-.012.744-.012 1.008 0 1.692.288.696.288 1.056.876.36.576.36 1.488V141zm-2.1.168q-.708 0-1.248-.252a1.96 1.96 0 0 1-.828-.72q-.3-.48-.3-1.14 0-.72.372-1.176.372-.468 1.044-.684.672-.228 1.548-.228h1.404v1.068h-1.416q-.504 0-.78.252-.264.24-.264.66 0 .396.264.648.276.24.78.24.324 0 .576-.108a.98.98 0 0 0 .432-.396q.168-.276.192-.768l.456.48q-.06.684-.336 1.152a1.8 1.8 0 0 1-.744.72q-.468.252-1.152.252m5.253-.168v-6.576h1.524v2.832h-.108q0-1.008.252-1.68t.756-1.008q.504-.348 1.236-.348h.084q.744 0 1.236.348.504.336.756 1.008.264.672.264 1.68h-.468q0-1.008.252-1.68.264-.672.768-1.008.504-.348 1.236-.348h.084q.744 0 1.248.348.516.336.78 1.008t.264 1.68V141h-1.92v-3.852q0-.54-.288-.876-.276-.336-.792-.336t-.816.348q-.3.336-.3.9V141h-1.932v-3.852q0-.54-.288-.876-.276-.336-.78-.336-.528 0-.828.348-.3.336-.3.9V141z"/><path fill="#FBBB54" d="M572.584 324.757c-1.129-.377-2.204.698-1.827 1.827l5.699 17.097c.423 1.271 2.198 1.331 2.707.091l1.985-4.842a7.66 7.66 0 0 1 3.818-3.819l4.791-1.951c1.242-.506 1.184-2.284-.088-2.708z"/><path fill="#fff" d="M591 353.556c0-7.18 5.82-13 13-13h51c7.18 0 13 5.82 13 13s-5.82 13-13 13h-51c-7.18 0-13-5.821-13-13"/><path fill="#FBBB54" fill-opacity=".2" d="M591 353.556c0-7.18 5.82-13 13-13h51c7.18 0 13 5.82 13 13s-5.82 13-13 13h-51c-7.18 0-13-5.821-13-13"/><path stroke="#FBBB54" stroke-width="1.444" d="M591 353.556c0-7.18 5.82-13 13-13h51c7.18 0 13 5.82 13 13s-5.82 13-13 13h-51c-7.18 0-13-5.821-13-13Z"/><path fill="#000" d="M611.969 357.775q-1.087 0-1.918-.358a4.2 4.2 0 0 1-1.387-.982 4.4 4.4 0 0 1-.844-1.399 4.9 4.9 0 0 1-.277-1.629v-.254q0-.798.277-1.56.278-.763.809-1.375a3.9 3.9 0 0 1 1.329-.971q.798-.37 1.826-.37 1.11 0 1.964.416a3.45 3.45 0 0 1 1.376 1.144q.519.729.612 1.699h-1.652a1.8 1.8 0 0 0-.405-.924 2.1 2.1 0 0 0-.82-.601 2.7 2.7 0 0 0-1.075-.208q-.59 0-1.075.208a2.3 2.3 0 0 0-.809.589 2.7 2.7 0 0 0-.52.913 3.8 3.8 0 0 0-.173 1.179q0 .704.197 1.259.196.555.554.948.359.38.867.589.508.196 1.144.196.843 0 1.479-.346.636-.358.924-.925l-.288 1.329v-2.172h1.513v1.872a3.7 3.7 0 0 1-1.479 1.282q-.936.451-2.149.451m-.266-3.282v-1.225h4.599v1.225zm8.632 3.282q-.809 0-1.421-.277a3 3 0 0 1-1.005-.74 3.5 3.5 0 0 1-.601-1.051 3.6 3.6 0 0 1-.197-1.179v-.22q0-.624.197-1.201.208-.59.601-1.04a2.9 2.9 0 0 1 .994-.728q.589-.278 1.363-.278 1.017 0 1.699.451a2.77 2.77 0 0 1 1.04 1.167q.346.717.346 1.549v.577h-5.558v-.982h4.553l-.497.485q0-.6-.173-1.028a1.38 1.38 0 0 0-.532-.659q-.346-.231-.878-.231-.531 0-.901.243a1.53 1.53 0 0 0-.566.705q-.186.45-.185 1.086 0 .589.185 1.052.185.45.566.716.381.254.97.254.59 0 .96-.231.37-.243.473-.589h1.479a2.65 2.65 0 0 1-.531 1.132 2.6 2.6 0 0 1-1.005.751q-.601.267-1.376.266m7.374 0q-.832 0-1.467-.266a3.2 3.2 0 0 1-1.075-.716 3.3 3.3 0 0 1-.67-1.04 3.3 3.3 0 0 1-.22-1.202v-.243q0-.647.231-1.224.243-.59.682-1.04a3.1 3.1 0 0 1 1.086-.717 3.7 3.7 0 0 1 1.433-.266q.798 0 1.433.266.636.254 1.075.717.45.45.682 1.04.231.577.231 1.224v.243q0 .624-.231 1.202a3.1 3.1 0 0 1-.659 1.04q-.44.45-1.075.716-.635.267-1.456.266m0-1.375q.59 0 .994-.254.405-.265.613-.705.207-.451.208-1.017 0-.577-.22-1.017a1.6 1.6 0 0 0-.624-.705q-.404-.266-.971-.266-.566 0-.982.266-.405.255-.624.705a2.25 2.25 0 0 0-.219 1.017q0 .566.208 1.017.219.44.624.705.404.254.993.254m4.827 1.156v-6.275h1.271v2.658h-.034q0-1.352.577-2.046.579-.693 1.699-.693h.231v1.398h-.439q-.809 0-1.259.439-.44.427-.44 1.248v3.271zm7.223 2.472a13 13 0 0 1-1.791-.127v-1.34q.416.046.89.081.474.046.89.046.774 0 1.248-.185.484-.185.705-.589.231-.393.231-1.006v-1.236l.347-.786q-.036.867-.359 1.479a2.3 2.3 0 0 1-.878.925q-.554.312-1.283.312-.647 0-1.178-.243a2.8 2.8 0 0 1-.902-.67 3.2 3.2 0 0 1-.577-1.005 3.6 3.6 0 0 1-.208-1.237v-.243q0-.658.208-1.224.219-.579.612-1.006a2.7 2.7 0 0 1 .936-.658 3 3 0 0 1 1.202-.232q.774 0 1.34.336.578.335.902.97.323.636.358 1.56l-.277.046v-2.715h1.271v5.535q0 1.144-.393 1.849t-1.214 1.028q-.808.335-2.08.335m.463-3.801q.462 0 .843-.208t.613-.601.231-.948v-.404q0-.532-.243-.902a1.47 1.47 0 0 0-.612-.554 1.8 1.8 0 0 0-.832-.197q-.509 0-.902.243a1.6 1.6 0 0 0-.601.659q-.219.428-.219 1.017 0 .577.219 1.005.22.427.601.659.393.231.902.231m7.784 1.548q-.81 0-1.422-.277a3 3 0 0 1-1.005-.74 3.5 3.5 0 0 1-.601-1.051 3.6 3.6 0 0 1-.196-1.179v-.22a3.7 3.7 0 0 1 .196-1.201q.208-.59.601-1.04a2.9 2.9 0 0 1 .994-.728q.59-.278 1.363-.278 1.017 0 1.699.451a2.77 2.77 0 0 1 1.04 1.167q.347.717.347 1.549v.577h-5.559v-.982h4.553l-.497.485q0-.6-.173-1.028a1.37 1.37 0 0 0-.531-.659q-.347-.231-.879-.231-.53 0-.901.243a1.53 1.53 0 0 0-.566.705q-.185.45-.185 1.086 0 .589.185 1.052.185.45.566.716.381.254.971.254.589 0 .959-.231.369-.243.474-.589h1.479q-.14.647-.532 1.132a2.6 2.6 0 0 1-1.005.751q-.601.267-1.375.266"/><path fill="#FF36A2" d="M211.542 258.993c1.162.387 2.267-.718 1.88-1.879l-5.862-17.586c-.436-1.307-2.262-1.368-2.784-.094l-2.042 4.981a7.88 7.88 0 0 1-3.928 3.928l-4.927 2.007c-1.278.521-1.218 2.349.091 2.786z"/><path fill="#fff" d="M192.184 229.371c0 7.409-6.006 13.415-13.415 13.415h-65.714c-7.408 0-13.414-6.006-13.414-13.415s6.006-13.414 13.414-13.414h65.714c7.409 0 13.415 6.006 13.415 13.414"/><path fill="#FF36A2" fill-opacity=".2" d="M192.184 229.371c0 7.409-6.006 13.415-13.415 13.415h-65.714c-7.408 0-13.414-6.006-13.414-13.415s6.006-13.414 13.414-13.414h65.714c7.409 0 13.415 6.006 13.415 13.414"/><path stroke="#FF36A2" stroke-width="1.486" d="M192.184 229.371c0 7.409-6.006 13.415-13.415 13.415h-65.714c-7.408 0-13.414-6.006-13.414-13.415s6.006-13.414 13.414-13.414h65.714c7.409 0 13.415 6.006 13.415 13.414Z"/><path fill="#000" d="M125.932 233.919v-1.569h1.795q.678 0 1.2-.202.535-.215.904-.594.368-.38.558-.892.202-.523.202-1.153 0-.653-.202-1.164a2.4 2.4 0 0 0-.558-.892 2.4 2.4 0 0 0-.904-.558 3.5 3.5 0 0 0-1.2-.191h-1.795v-1.569h1.688q1.176 0 2.056.345t1.462.951q.583.594.868 1.367.297.76.297 1.581v.261q0 .785-.297 1.545-.285.76-.868 1.379a4.2 4.2 0 0 1-1.462.987q-.88.368-2.056.368zm-1.45 0v-8.784h1.688v8.784zm12.304.178q-.856 0-1.51-.273a3.3 3.3 0 0 1-1.105-.737 3.4 3.4 0 0 1-.69-1.07 3.5 3.5 0 0 1-.225-1.236v-.249q0-.666.237-1.26.25-.606.702-1.07a3.2 3.2 0 0 1 1.117-.737 3.8 3.8 0 0 1 1.474-.273q.82 0 1.473.273.654.261 1.106.737.464.464.701 1.07.238.594.238 1.26v.249q0 .642-.238 1.236-.225.594-.677 1.07-.452.464-1.106.737t-1.497.273m0-1.414q.606 0 1.022-.262a1.75 1.75 0 0 0 .63-.725q.214-.463.214-1.046a2.3 2.3 0 0 0-.226-1.046 1.64 1.64 0 0 0-.642-.725q-.416-.273-.998-.273a1.84 1.84 0 0 0-1.011.273 1.73 1.73 0 0 0-.641.725q-.226.453-.226 1.046 0 .583.214 1.046.225.452.641.725.417.262 1.023.262m4.964 1.188v-6.453h1.308v2.769h-.119q0-.987.262-1.64.26-.666.772-.999.524-.333 1.296-.333h.071q1.153 0 1.747.749.594.737.594 2.211v3.696h-1.652v-3.839q0-.594-.344-.962-.333-.369-.927-.369-.607 0-.987.381-.369.368-.368.998v3.791zm11.618 0v-1.913h-.273v-2.128q0-.558-.274-.832-.273-.273-.844-.273a35.922 35.922 0 0 0-1.557.047q-.416.012-.748.036v-1.402q.273-.024.618-.048.344-.024.701-.024.369-.012.689-.012 1 0 1.652.262.666.262.999.82.345.559.344 1.462v4.005zm-2.08.167q-.701 0-1.236-.25a1.94 1.94 0 0 1-.82-.713q-.285-.463-.285-1.117 0-.714.344-1.165.357-.452.987-.677.642-.226 1.497-.226h1.498v.986h-1.521q-.571 0-.88.286a.92.92 0 0 0-.297.713q0 .44.297.713.309.273.88.273.344 0 .629-.119a1.1 1.1 0 0 0 .488-.428q.202-.309.226-.832l.404.464q-.06.678-.333 1.141-.261.464-.737.713-.463.238-1.141.238m5.24-.167v-8.676h1.652v8.676zm-.808-7.44v-1.236h2.46v1.236zm7.021 7.654q-.678 0-1.248-.249a2.9 2.9 0 0 1-.987-.701 3.2 3.2 0 0 1-.642-1.046 3.7 3.7 0 0 1-.225-1.308v-.249q0-.69.214-1.296.225-.606.618-1.058.404-.452.962-.701a3 3 0 0 1 1.26-.262q.76 0 1.331.333.583.321.928.975.344.653.38 1.64l-.487-.57v-4.398h1.652v8.676h-1.308v-2.745h.286q-.036.986-.405 1.652-.368.654-.974.986a2.8 2.8 0 0 1-1.355.321m.368-1.39q.487 0 .892-.214.404-.226.642-.642.249-.428.249-.998v-.476q0-.57-.249-.951a1.64 1.64 0 0 0-.654-.594 1.85 1.85 0 0 0-.88-.214q-.534 0-.951.262a1.75 1.75 0 0 0-.641.713 2.4 2.4 0 0 0-.226 1.081q0 .618.237 1.082.238.452.642.701.417.25.939.25"/><defs><clipPath id="c"><path fill="#fff" d="M31.688 233.317h12.674v12.674H31.688z"/></clipPath><clipPath id="d"><path fill="#fff" d="M31.692 288.237h12.674v12.674H31.692z"/></clipPath><clipPath id="f"><path fill="#fff" d="M215.584 31.014h14.025v14.025h-14.025z"/></clipPath><clipPath id="g"><path fill="#fff" d="M243.345 31.014h14.025v14.025h-14.025z"/></clipPath><clipPath id="i"><path fill="#fff" d="M469.138 31.014h-14.025v14.025h14.025z"/></clipPath><clipPath id="j"><path fill="#fff" d="M479.074 31.014h14.025v14.025h-14.025z"/></clipPath><clipPath id="n"><path fill="#fff" d="M566.16 471.692h13.739v13.739H566.16z"/></clipPath><clipPath id="r"><path fill="#fff" d="M402.265 87.76h15.012v15.013h-15.012z"/></clipPath><clipPath id="s"><path fill="#fff" d="M498.043 87.76h15.012v15.013h-15.012z"/></clipPath><clipPath id="t"><path fill="#fff" d="M498.043 87.76h13.511v13.51h-13.511z"/></clipPath><filter id="e" width="247.316" height="37.4" x="22.325" y="20.494" color-interpolation-filters="sRGB" filterUnits="userSpaceOnUse"><feFlood flood-opacity="0" result="BackgroundImageFix"/><feColorMatrix in="SourceAlpha" result="hardAlpha" values="0 0 0 0 0 0 0 0 0 0 0 0 0 0 0 0 0 0 127 0"/><feOffset dy="1.169"/><feGaussianBlur stdDeviation="2.338"/><feComposite in2="hardAlpha" operator="out"/><feColorMatrix values="0 0 0 0 0.0117647 0 0 0 0 0.0431373 0 0 0 0 0.0862745 0 0 0 0.05 0"/><feBlend in2="BackgroundImageFix" result="effect1_dropShadow_14_10617"/><feBlend in="SourceGraphic" in2="effect1_dropShadow_14_10617" result="shape"/></filter><filter id="h" width="123.89" height="37.4" x="442.84" y="20.494" color-interpolation-filters="sRGB" filterUnits="userSpaceOnUse"><feFlood flood-opacity="0" result="BackgroundImageFix"/><feColorMatrix in="SourceAlpha" result="hardAlpha" values="0 0 0 0 0 0 0 0 0 0 0 0 0 0 0 0 0 0 127 0"/><feOffset dy="1.169"/><feGaussianBlur stdDeviation="2.338"/><feComposite in2="hardAlpha" operator="out"/><feColorMatrix values="0 0 0 0 0.0117647 0 0 0 0 0.0431373 0 0 0 0 0.0862745 0 0 0 0.05 0"/><feBlend in2="BackgroundImageFix" result="effect1_dropShadow_14_10617"/><feBlend in="SourceGraphic" in2="effect1_dropShadow_14_10617" result="shape"/></filter><filter id="k" width="120.282" height="37.4" x="564.393" y="20.494" color-interpolation-filters="sRGB" filterUnits="userSpaceOnUse"><feFlood flood-opacity="0" result="BackgroundImageFix"/><feColorMatrix in="SourceAlpha" result="hardAlpha" values="0 0 0 0 0 0 0 0 0 0 0 0 0 0 0 0 0 0 127 0"/><feOffset dy="1.169"/><feGaussianBlur stdDeviation="2.338"/><feComposite in2="hardAlpha" operator="out"/><feColorMatrix values="0 0 0 0 0.0117647 0 0 0 0 0.0431373 0 0 0 0 0.0862745 0 0 0 0.05 0"/><feBlend in2="BackgroundImageFix" result="effect1_dropShadow_14_10617"/><feBlend in="SourceGraphic" in2="effect1_dropShadow_14_10617" result="shape"/></filter><filter id="l" width="67.549" height="37.209" x="404.158" y="461.099" color-interpolation-filters="sRGB" filterUnits="userSpaceOnUse"><feFlood flood-opacity="0" result="BackgroundImageFix"/><feColorMatrix in="SourceAlpha" result="hardAlpha" values="0 0 0 0 0 0 0 0 0 0 0 0 0 0 0 0 0 0 127 0"/><feOffset dy="1.145"/><feGaussianBlur stdDeviation="2.29"/><feComposite in2="hardAlpha" operator="out"/><feColorMatrix values="0 0 0 0 0.0117647 0 0 0 0 0.0431373 0 0 0 0 0.0862745 0 0 0 0.05 0"/><feBlend in2="BackgroundImageFix" result="effect1_dropShadow_14_10617"/><feBlend in="SourceGraphic" in2="effect1_dropShadow_14_10617" result="shape"/></filter><filter id="m" width="216.96" height="37.209" x="469.417" y="461.099" color-interpolation-filters="sRGB" filterUnits="userSpaceOnUse"><feFlood flood-opacity="0" result="BackgroundImageFix"/><feColorMatrix in="SourceAlpha" result="hardAlpha" values="0 0 0 0 0 0 0 0 0 0 0 0 0 0 0 0 0 0 127 0"/><feOffset dy="1.145"/><feGaussianBlur stdDeviation="2.29"/><feComposite in2="hardAlpha" operator="out"/><feColorMatrix values="0 0 0 0 0.0117647 0 0 0 0 0.0431373 0 0 0 0 0.0862745 0 0 0 0.05 0"/><feBlend in2="BackgroundImageFix" result="effect1_dropShadow_14_10617"/><feBlend in="SourceGraphic" in2="effect1_dropShadow_14_10617" result="shape"/></filter><filter id="p" width="91.395" height="84.666" x="163.374" y="360.583" color-interpolation-filters="sRGB" filterUnits="userSpaceOnUse"><feFlood flood-opacity="0" result="BackgroundImageFix"/><feColorMatrix in="SourceAlpha" result="hardAlpha" values="0 0 0 0 0 0 0 0 0 0 0 0 0 0 0 0 0 0 127 0"/><feOffset dx="-4.796" dy="7.28"/><feGaussianBlur stdDeviation="4.92"/><feComposite in2="hardAlpha" operator="out"/><feColorMatrix values="0 0 0 0 0 0 0 0 0 0 0 0 0 0 0 0 0 0 0.25 0"/><feBlend in2="BackgroundImageFix" result="effect1_dropShadow_14_10617"/><feBlend in="SourceGraphic" in2="effect1_dropShadow_14_10617" result="shape"/></filter><filter id="q" width="40.539" height="40.872" x="194.277" y="409.976" color-interpolation-filters="sRGB" filterUnits="userSpaceOnUse"><feFlood flood-opacity="0" result="BackgroundImageFix"/><feColorMatrix in="SourceAlpha" result="hardAlpha" values="0 0 0 0 0 0 0 0 0 0 0 0 0 0 0 0 0 0 127 0"/><feOffset dy="1.773"/><feGaussianBlur stdDeviation="2.704"/><feColorMatrix values="0 0 0 0 0 0 0 0 0 0 0 0 0 0 0 0 0 0 0.45 0"/><feBlend in2="BackgroundImageFix" result="effect1_dropShadow_14_10617"/><feBlend in="SourceGraphic" in2="effect1_dropShadow_14_10617" result="shape"/></filter><linearGradient id="a" x1="27.724" x2="29.233" y1="91.604" y2="110.962" gradientUnits="userSpaceOnUse"><stop stop-color="#D461F0"/><stop offset=".525" stop-color="#A587FF"/><stop offset="1" stop-color="#618CFF"/></linearGradient><linearGradient id="b" x1="31.948" x2="32.845" y1="95.731" y2="107.323" gradientUnits="userSpaceOnUse"><stop stop-color="#D461F0"/><stop offset=".525" stop-color="#A587FF"/><stop offset="1" stop-color="#618CFF"/></linearGradient><linearGradient id="o" x1="657.182" x2="673.279" y1="481.431" y2="490.21" gradientUnits="userSpaceOnUse"><stop stop-color="#FFFCFC" stop-opacity=".7"/><stop offset="1" stop-color="#FFFEFE" stop-opacity=".5"/></linearGradient></defs></svg>