<svg width="48" height="48" viewBox="0 0 48 48" fill="none" xmlns="http://www.w3.org/2000/svg">
<path fill-rule="evenodd" clip-rule="evenodd" d="M6.928 6.928C4 9.86 4 14.572 4 24C4 33.428 4 38.142 6.928 41.072C9.86 44 14.572 44 24 44C33.428 44 38.142 44 41.072 41.072C44 38.14 44 33.426 44 24C44 14.572 44 9.858 41.072 6.928C38.14 4 33.426 4 24 4C14.572 4 9.858 4 6.928 6.928ZM26.5 14C26.5 14.828 27.172 15.5 28 15.5H30.38L25.94 19.94C25.7926 20.0773 25.6744 20.2429 25.5924 20.4269C25.5105 20.6109 25.4664 20.8096 25.4628 21.011C25.4593 21.2124 25.4963 21.4124 25.5718 21.5992C25.6472 21.786 25.7595 21.9556 25.9019 22.0981C26.0444 22.2405 26.214 22.3528 26.4008 22.4282C26.5876 22.5037 26.7876 22.5407 26.989 22.5372C27.1905 22.5336 27.3891 22.4895 27.5731 22.4076C27.7571 22.3256 27.9227 22.2074 28.06 22.06L32.5 17.62V20C32.5 20.3978 32.658 20.7794 32.9393 21.0607C33.2206 21.342 33.6022 21.5 34 21.5C34.3978 21.5 34.7794 21.342 35.0607 21.0607C35.342 20.7794 35.5 20.3978 35.5 20V14C35.5 13.6022 35.342 13.2206 35.0607 12.9393C34.7794 12.658 34.3978 12.5 34 12.5H28C27.6022 12.5 27.2206 12.658 26.9393 12.9393C26.658 13.2206 26.5 13.6022 26.5 14ZM22.06 28.06C22.2074 27.9227 22.3256 27.7571 22.4076 27.5731C22.4895 27.3891 22.5336 27.1905 22.5372 26.989C22.5407 26.7876 22.5037 26.5876 22.4282 26.4008C22.3528 26.214 22.2405 26.0444 22.0981 25.9019C21.9556 25.7595 21.786 25.6472 21.5992 25.5718C21.4124 25.4963 21.2124 25.4593 21.011 25.4628C20.8096 25.4664 20.6109 25.5105 20.4269 25.5924C20.2429 25.6744 20.0773 25.7926 19.94 25.94L15.5 30.38V28C15.5 27.6022 15.342 27.2206 15.0607 26.9393C14.7794 26.658 14.3978 26.5 14 26.5C13.6022 26.5 13.2206 26.658 12.9393 26.9393C12.658 27.2206 12.5 27.6022 12.5 28V34C12.5 34.828 13.172 35.5 14 35.5H20C20.3978 35.5 20.7794 35.342 21.0607 35.0607C21.342 34.7794 21.5 34.3978 21.5 34C21.5 33.6022 21.342 33.2206 21.0607 32.9393C20.7794 32.658 20.3978 32.5 20 32.5H17.62L22.06 28.06Z" fill="#EF1C79"/>
</svg>
