<svg width="48" height="48" viewBox="0 0 48 48" fill="none" xmlns="http://www.w3.org/2000/svg">
<path d="M20.0003 33.6003C18.7674 33.5985 17.5601 33.953 16.5237 34.6209C15.4874 35.2889 14.666 36.2421 14.1585 37.3657C13.6509 38.4894 13.4787 39.7358 13.6626 40.955C13.8466 42.1742 14.3787 43.3143 15.1952 44.2382C16.0116 45.1622 17.0776 45.8306 18.2649 46.1631C19.4522 46.4957 20.7102 46.4782 21.8878 46.1128C23.0654 45.7474 24.1124 45.0496 24.9028 44.1033C25.6933 43.157 26.1936 42.0026 26.3435 40.7787C25.874 39.5537 25.6248 38.2553 25.6075 36.9435C25.0617 35.932 24.2523 35.0871 23.2651 34.4985C22.2779 33.9099 21.1497 33.5995 20.0003 33.6003ZM17.6003 27.2003V32.3691C19.1626 31.8742 20.8401 31.8775 22.4003 32.3787V27.2003C22.4016 24.8668 23.3292 22.6292 24.9792 20.9792C26.6292 19.3292 28.8668 18.4016 31.2003 18.4003C31.4125 18.4003 31.616 18.4846 31.766 18.6347C31.9161 18.7847 32.0003 18.9882 32.0003 19.2003V22.3331L38.4139 15.9611L32.0003 9.66434V12.8003C32.0003 13.0125 31.9161 13.216 31.766 13.366C31.616 13.5161 31.4125 13.6003 31.2003 13.6003C25.4507 13.6003 23.9707 16.2547 23.9107 16.3675C23.8259 16.525 23.6915 16.6501 23.5284 16.7235C23.3652 16.7968 23.1824 16.8142 23.0083 16.7731C22.8354 16.7304 22.6817 16.6312 22.5716 16.4912C22.4615 16.3512 22.4012 16.1785 22.4003 16.0003V8.80034C22.4003 8.58816 22.4846 8.38468 22.6346 8.23465C22.7847 8.08462 22.9882 8.00034 23.2003 8.00034H26.3339L19.9611 1.58594L13.6651 8.00034H16.8003C17.0125 8.00034 17.216 8.08462 17.366 8.23465C17.5161 8.38468 17.6003 8.58816 17.6003 8.80034V16.0003C17.6005 16.1807 17.5397 16.3558 17.4278 16.4973C17.316 16.6388 17.1596 16.7383 16.984 16.7797C16.8085 16.8211 16.6241 16.802 16.4608 16.7254C16.2974 16.6489 16.1648 16.5194 16.0843 16.3579C15.7429 15.8339 15.289 15.3925 14.7555 15.0659C13.7531 14.4003 11.9067 13.6003 8.80034 13.6003C8.58816 13.6003 8.38468 13.5161 8.23465 13.366C8.08462 13.216 8.00034 13.0125 8.00034 12.8003V9.66594L1.58594 16.0387L8.00034 22.3339V19.2003C8.00034 18.9882 8.08462 18.7847 8.23465 18.6347C8.38468 18.4846 8.58816 18.4003 8.80034 18.4003C11.1334 18.4031 13.3701 19.3311 15.0198 20.9808C16.6696 22.6306 17.5976 24.8673 17.6003 27.2003ZM36.8003 27.2003C34.9016 27.2003 33.0456 27.7634 31.4669 28.8182C29.8882 29.8731 28.6577 31.3724 27.9311 33.1266C27.2045 34.8807 27.0144 36.811 27.3848 38.6732C27.7552 40.5354 28.6695 42.246 30.0121 43.5886C31.3547 44.9311 33.0653 45.8455 34.9275 46.2159C36.7897 46.5863 38.7199 46.3962 40.4741 45.6696C42.2283 44.943 43.7276 43.7125 44.7824 42.1338C45.8373 40.5551 46.4003 38.699 46.4003 36.8003C46.3976 34.2551 45.3853 31.8149 43.5855 30.0152C41.7858 28.2154 39.3456 27.2031 36.8003 27.2003ZM41.4251 33.3003L35.0251 41.3003C34.9548 41.388 34.8669 41.4599 34.7669 41.5113C34.667 41.5627 34.5574 41.5925 34.4451 41.5987L34.4003 41.6003C34.2952 41.6006 34.1911 41.5801 34.094 41.5398C33.997 41.4996 33.9088 41.4405 33.8347 41.3659L32.2347 39.7659C32.089 39.6151 32.0084 39.413 32.0102 39.2032C32.012 38.9935 32.0962 38.7928 32.2445 38.6445C32.3928 38.4962 32.5935 38.412 32.8032 38.4102C33.013 38.4084 33.2151 38.489 33.3659 38.6347L34.3339 39.6027L40.1739 32.3003C40.2396 32.2183 40.3208 32.15 40.4128 32.0993C40.5049 32.0486 40.606 32.0166 40.7105 32.005C40.8149 31.9934 40.9206 32.0025 41.0216 32.0318C41.1225 32.061 41.2167 32.1099 41.2987 32.1755C41.3808 32.2412 41.4491 32.3224 41.4998 32.4144C41.5505 32.5065 41.5825 32.6076 41.5941 32.7121C41.6057 32.8165 41.5966 32.9222 41.5673 33.0232C41.5381 33.1241 41.4892 33.2183 41.4235 33.3003H41.4251Z" fill="#F99811"/>
</svg>
