<svg width="48" height="48" viewBox="0 0 48 48" fill="none" xmlns="http://www.w3.org/2000/svg">
<g clip-path="url(#clip0_281_5124)">
<path d="M32.012 3.63746H28.4999C28.2866 3.63086 28.0812 3.55522 27.9145 3.42191C27.7479 3.28859 27.629 3.10479 27.5757 2.89813C27.2429 1.16909 25.7002 -0.0598963 23.9405 0.00225497C22.1702 -0.0287617 20.635 1.22016 20.3053 2.95981C20.2499 3.16029 20.1286 3.33626 19.9609 3.45925C19.7932 3.58224 19.5889 3.64507 19.381 3.63757H15.9922V9.79904H32.012V3.63746Z" fill="#8035E8"/>
<path d="M41.8699 45.1663V9.86116C41.8737 8.466 40.7457 7.33195 39.3505 7.32818C39.2866 7.32806 39.2226 7.3303 39.1589 7.3349H33.86V10.4773C33.86 10.9702 33.5519 11.648 33.0589 11.648H14.8827C14.3897 11.648 14.1434 10.9702 14.1434 10.4773V7.33502H8.84448C7.45309 7.23288 6.24226 8.27813 6.14025 9.66964C6.13553 9.73344 6.13329 9.79736 6.13353 9.86128V45.1664C6.09909 46.6973 7.31228 47.9663 8.84318 48.0006H39.159C40.6899 47.967 41.9037 46.6986 41.87 45.1677L41.8699 45.1663ZM19.0109 37.0332L14.2049 41.5311C14.1289 41.622 14.035 41.6963 13.929 41.7493C13.823 41.8023 13.7072 41.8329 13.5889 41.8391C13.3314 41.8289 13.0881 41.7184 12.9111 41.5311L10.3849 38.9432C10.2236 38.7626 10.1396 38.5257 10.1511 38.2837C10.1626 38.0417 10.2687 37.8139 10.4465 37.6494C10.6192 37.48 10.8515 37.3852 11.0934 37.3852C11.3353 37.3852 11.5676 37.48 11.7404 37.6494L13.5887 39.621L17.7786 35.6776C17.9628 35.5506 18.1868 35.4947 18.409 35.5202C18.6313 35.5458 18.8368 35.6512 18.9873 35.8167C19.1378 35.9823 19.2231 36.1968 19.2275 36.4205C19.2318 36.6442 19.1549 36.8619 19.0109 37.0332ZM19.0109 27.1748L14.2049 31.6727C14.1289 31.7637 14.035 31.8379 13.929 31.8909C13.823 31.9439 13.7072 31.9745 13.5889 31.9808C13.3314 31.9706 13.0881 31.86 12.9111 31.6727L10.3849 29.0849C10.2236 28.9042 10.1396 28.6674 10.1511 28.4254C10.1626 28.1834 10.2687 27.9556 10.4465 27.791C10.6192 27.6217 10.8515 27.5268 11.0934 27.5268C11.3353 27.5268 11.5676 27.6217 11.7404 27.791L13.5887 29.7627L17.7786 25.8193C17.9628 25.6922 18.1868 25.6363 18.409 25.6619C18.6313 25.6875 18.8368 25.7928 18.9873 25.9584C19.1378 26.1239 19.2231 26.3385 19.2275 26.5622C19.2318 26.7859 19.1549 27.0036 19.0109 27.1748ZM19.0109 17.3165L14.2049 21.8144C14.1289 21.9053 14.035 21.9796 13.929 22.0326C13.823 22.0856 13.7072 22.1162 13.5889 22.1224C13.3314 22.1122 13.0881 22.0017 12.9111 21.8144L10.3849 19.2265C10.2236 19.0459 10.1396 18.809 10.1511 18.567C10.1626 18.325 10.2687 18.0972 10.4465 17.9327C10.6192 17.7633 10.8515 17.6685 11.0934 17.6685C11.3353 17.6685 11.5676 17.7633 11.7404 17.9327L13.5887 19.9043L17.7786 15.9609C17.9628 15.8339 18.1868 15.778 18.409 15.8035C18.6313 15.8291 18.8368 15.9345 18.9873 16.1C19.1378 16.2656 19.2231 16.4801 19.2275 16.7038C19.2318 16.9275 19.1549 17.1452 19.0109 17.3165ZM36.9407 40.6068H22.7693C22.5242 40.6068 22.2891 40.5094 22.1158 40.3361C21.9424 40.1628 21.8451 39.9277 21.8451 39.6826C21.8451 39.4374 21.9424 39.2024 22.1158 39.029C22.2891 38.8557 22.5242 38.7583 22.7693 38.7583H36.9406C37.1858 38.7583 37.4208 38.8557 37.5942 39.029C37.7675 39.2023 37.8649 39.4374 37.8649 39.6825C37.865 39.9276 37.7676 40.1627 37.5943 40.3361C37.421 40.5094 37.1859 40.6068 36.9407 40.6068ZM36.9407 30.7485H22.7693C22.5242 30.7485 22.2891 30.6511 22.1158 30.4778C21.9424 30.3044 21.8451 30.0693 21.8451 29.8242C21.8451 29.5791 21.9424 29.344 22.1158 29.1707C22.2891 28.9973 22.5242 28.9 22.7693 28.9H36.9406C37.1858 28.9 37.4208 28.9973 37.5942 29.1706C37.7675 29.344 37.8649 29.579 37.8649 29.8242C37.865 30.0693 37.7676 30.3044 37.5943 30.4777C37.421 30.6511 37.1859 30.7485 36.9407 30.7485ZM36.9407 20.8901H22.7693C22.5242 20.8901 22.2891 20.7927 22.1158 20.6194C21.9424 20.4461 21.8451 20.211 21.8451 19.9659C21.8451 19.7207 21.9424 19.4857 22.1158 19.3123C22.2891 19.139 22.5242 19.0416 22.7693 19.0416H36.9406C37.1858 19.0416 37.4208 19.139 37.5942 19.3123C37.7675 19.4856 37.8649 19.7207 37.8649 19.9658C37.865 20.2109 37.7676 20.446 37.5943 20.6194C37.421 20.7927 37.1859 20.8901 36.9407 20.8901Z" fill="#8035E8"/>
</g>
<defs>
<clipPath id="clip0_281_5124">
<rect width="48" height="48" fill="white"/>
</clipPath>
</defs>
</svg>
