<svg width="24" height="24" viewBox="0 0 24 24" fill="none" xmlns="http://www.w3.org/2000/svg">
<path d="M17.4545 7.09126H16.9091V6.54581C16.9091 6.11182 16.7367 5.6956 16.4298 5.38873C16.1229 5.08185 15.7067 4.90945 15.2727 4.90945H12.5454V2.72763C12.5454 2.4383 12.4305 2.16082 12.2259 1.95624C12.0213 1.75165 11.7438 1.63672 11.4545 1.63672H10.3636C10.0743 1.63672 9.7968 1.75165 9.59221 1.95624C9.38763 2.16082 9.27269 2.4383 9.27269 2.72763V4.90945H6.54542C6.11143 4.90945 5.69521 5.08185 5.38834 5.38873C5.08146 5.6956 4.90906 6.11182 4.90906 6.54581V18.5458C4.90906 18.9798 5.08146 19.396 5.38834 19.7029C5.69521 20.0098 6.11143 20.1822 6.54542 20.1822H7.09088V20.7276C7.09088 21.1616 7.26328 21.5778 7.57016 21.8847C7.87703 22.1916 8.29325 22.364 8.72724 22.364H17.4545C17.8885 22.364 18.3047 22.1916 18.6116 21.8847C18.9185 21.5778 19.0909 21.1616 19.0909 20.7276V8.72763C19.0909 8.29364 18.9185 7.87742 18.6116 7.57054C18.3047 7.26367 17.8885 7.09126 17.4545 7.09126ZM10.3636 2.72763H11.4545V6.00035H10.3636V2.72763ZM5.99997 18.5458V6.54581C5.99997 6.40115 6.05743 6.26241 6.15973 6.16011C6.26202 6.05782 6.40076 6.00035 6.54542 6.00035H9.27269C9.27269 6.28968 9.38763 6.56716 9.59221 6.77174C9.7968 6.97633 10.0743 7.09126 10.3636 7.09126H11.4545C11.7438 7.09126 12.0213 6.97633 12.2259 6.77174C12.4305 6.56716 12.5454 6.28968 12.5454 6.00035H15.2727C15.4174 6.00035 15.5561 6.05782 15.6584 6.16011C15.7607 6.26241 15.8181 6.40115 15.8181 6.54581V15.2731H13.0909C12.9462 15.2731 12.8075 15.3305 12.7052 15.4328C12.6029 15.5351 12.5454 15.6739 12.5454 15.8185V19.0913H6.54542C6.40076 19.0913 6.26202 19.0338 6.15973 18.9315C6.05743 18.8292 5.99997 18.6905 5.99997 18.5458ZM15.1778 16.364L13.6363 18.164V16.364H15.1778ZM18 20.7276C18 20.8723 17.9425 21.011 17.8402 21.1133C17.7379 21.2156 17.5992 21.2731 17.4545 21.2731H8.72724C8.58258 21.2731 8.44384 21.2156 8.34155 21.1133C8.23925 21.011 8.18179 20.8723 8.18179 20.7276V20.1822H13.0909C13.1695 20.1822 13.2472 20.1651 13.3187 20.1323C13.3902 20.0994 13.4537 20.0515 13.5049 19.9918L16.7776 16.1736C16.8624 16.0748 16.909 15.9488 16.9091 15.8185V8.18217H17.4545C17.5992 8.18217 17.7379 8.23964 17.8402 8.34193C17.9425 8.44423 18 8.58296 18 8.72763V20.7276Z" fill="#6762FE"/>
<path d="M8.18181 10.3643C8.48305 10.3643 8.72726 10.1201 8.72726 9.81889C8.72726 9.51765 8.48305 9.27344 8.18181 9.27344C7.88056 9.27344 7.63635 9.51765 7.63635 9.81889C7.63635 10.1201 7.88056 10.3643 8.18181 10.3643Z" fill="#6762FE"/>
<path d="M9.81817 10.3643H13.6364C13.781 10.3643 13.9198 10.3069 14.022 10.2046C14.1243 10.1023 14.1818 9.96356 14.1818 9.81889C14.1818 9.67423 14.1243 9.53549 14.022 9.4332C13.9198 9.3309 13.781 9.27344 13.6364 9.27344H9.81817C9.67351 9.27344 9.53477 9.3309 9.43248 9.4332C9.33018 9.53549 9.27272 9.67423 9.27272 9.81889C9.27272 9.96356 9.33018 10.1023 9.43248 10.2046C9.53477 10.3069 9.67351 10.3643 9.81817 10.3643ZM8.18181 13.6371H13.6364C13.781 13.6371 13.9198 13.5796 14.022 13.4773C14.1243 13.375 14.1818 13.2363 14.1818 13.0916C14.1818 12.947 14.1243 12.8082 14.022 12.7059C13.9198 12.6036 13.781 12.5462 13.6364 12.5462H8.18181C8.03714 12.5462 7.89841 12.6036 7.79611 12.7059C7.69382 12.8082 7.63635 12.947 7.63635 13.0916C7.63635 13.2363 7.69382 13.375 7.79611 13.4773C7.89841 13.5796 8.03714 13.6371 8.18181 13.6371ZM10.9091 15.8189H8.18181C8.03714 15.8189 7.89841 15.8764 7.79611 15.9787C7.69382 16.0809 7.63635 16.2197 7.63635 16.3643C7.63635 16.509 7.69382 16.6477 7.79611 16.75C7.89841 16.8523 8.03714 16.9098 8.18181 16.9098H10.9091C11.0537 16.9098 11.1925 16.8523 11.2948 16.75C11.3971 16.6477 11.4545 16.509 11.4545 16.3643C11.4545 16.2197 11.3971 16.0809 11.2948 15.9787C11.1925 15.8764 11.0537 15.8189 10.9091 15.8189Z" fill="#6762FE"/>
</svg>
