<svg width="24" height="24" viewBox="0 0 24 24" fill="none" xmlns="http://www.w3.org/2000/svg">
<path d="M20.25 18.7504H3.375C2.9625 18.7504 2.625 18.4129 2.625 18.0004V9.33789C2.625 8.92539 2.2875 8.58789 1.875 8.58789C1.4625 8.58789 1.125 8.92539 1.125 9.33789V18.0004C1.125 19.2379 2.1375 20.2504 3.375 20.2504H20.25C20.6625 20.2504 21 19.9129 21 19.5004C21 19.0879 20.6625 18.7504 20.25 18.7504Z" fill="#6762FE"/>
<path d="M23.0625 14.8129L20.475 12.2254C20.775 11.5879 20.925 10.8379 20.925 10.0879C20.925 7.20039 18.5625 4.83789 15.675 4.83789C12.7875 4.83789 10.425 7.20039 10.425 10.0879C10.425 11.2879 10.8375 12.3754 11.5125 13.2754L10.5 14.3254L8.4 12.2254C8.1 11.9254 7.65 11.9254 7.35 12.2254L3.975 15.6004C3.675 15.9004 3.675 16.3504 3.975 16.6504C4.125 16.8004 4.3125 16.8754 4.5 16.8754C4.6875 16.8754 4.875 16.8004 5.025 16.6504L7.875 13.8004L9.975 15.9004C10.275 16.2004 10.725 16.2004 11.025 15.9004L12.6 14.3254C13.4625 14.9629 14.55 15.3379 15.675 15.3379C16.425 15.3379 17.175 15.1879 17.8125 14.8879L20.4 17.4754C20.7375 17.8129 21.225 18.0379 21.7125 18.0379C22.2 18.0379 22.6875 17.8504 23.025 17.4754C23.3625 17.1379 23.5875 16.6504 23.5875 16.1629C23.5875 15.6754 23.4375 15.1504 23.0625 14.8129ZM13.6875 13.2379L16.0875 10.8379C16.3875 10.5379 16.3875 10.0879 16.0875 9.78789C15.7875 9.48789 15.3375 9.48789 15.0375 9.78789L12.6375 12.1879C12.225 11.5879 11.9625 10.8379 11.9625 10.0504C11.9625 7.98789 13.65 6.30039 15.7125 6.30039C17.775 6.30039 19.4625 7.98789 19.4625 10.0504C19.4625 12.1129 17.775 13.8004 15.7125 13.8004C14.9625 13.8379 14.2875 13.6129 13.6875 13.2379ZM22.0125 16.3879C21.9375 16.5004 21.825 16.5004 21.75 16.5004C21.675 16.5004 21.5625 16.5004 21.4875 16.3879L19.125 14.0254C19.3125 13.8754 19.5 13.6879 19.65 13.5004L22.0125 15.8629C22.125 15.9379 22.125 16.0504 22.125 16.1254C22.125 16.2004 22.125 16.3129 22.0125 16.3879Z" fill="#6762FE"/>
</svg>
