<svg width="24" height="24" viewBox="0 0 24 24" fill="none" xmlns="http://www.w3.org/2000/svg">
<path d="M12 0.09375C9.7382 0.0963305 7.56974 0.995985 5.97038 2.59535C4.37102 4.19471 3.47136 6.36316 3.46878 8.625C3.46569 9.75992 3.69159 10.8838 4.13297 11.9294C4.57434 12.9749 5.22212 13.9207 6.03753 14.7101C6.41883 15.0964 6.71959 15.5546 6.92237 16.0581C7.12515 16.5615 7.22591 17.1003 7.21878 17.643V18.375C7.21918 18.7319 7.32659 19.0804 7.52714 19.3757C7.72769 19.6709 8.01215 19.8991 8.34378 20.031V21.75C8.34448 22.3217 8.57188 22.8697 8.9761 23.2739C9.38032 23.6782 9.92837 23.9056 10.5 23.9062H13.5C14.0717 23.9056 14.6197 23.6782 15.024 23.2739C15.4282 22.8697 15.6556 22.3217 15.6563 21.75V20.031C15.9879 19.8991 16.2724 19.6709 16.4729 19.3757C16.6735 19.0804 16.7809 18.7319 16.7813 18.375V17.643C16.7742 17.1003 16.8749 16.5615 17.0777 16.0581C17.2805 15.5546 17.5812 15.0964 17.9625 14.7101C18.7779 13.9207 19.4257 12.9749 19.8671 11.9294C20.3085 10.8838 20.5344 9.75992 20.5313 8.625C20.5287 6.36316 19.629 4.19471 18.0297 2.59535C16.4303 0.995985 14.2619 0.0963305 12 0.09375ZM14.3438 21.75C14.3435 21.9737 14.2545 22.1881 14.0963 22.3463C13.9382 22.5045 13.7237 22.5935 13.5 22.5938H10.5C10.2763 22.5935 10.0619 22.5045 9.90374 22.3463C9.74557 22.1881 9.65658 21.9737 9.65628 21.75V20.1562H14.3438V21.75ZM17.046 13.7704C16.5397 14.2792 16.1395 14.8836 15.8688 15.5484C15.598 16.2132 15.4621 16.9252 15.4688 17.643V18.375C15.4686 18.4993 15.4191 18.6184 15.3313 18.7062C15.2434 18.7941 15.1243 18.8436 15 18.8438H9.00003C8.87577 18.8436 8.75666 18.7941 8.66879 18.7062C8.58093 18.6184 8.53148 18.4993 8.53128 18.375V17.643C8.53801 16.9252 8.40204 16.2132 8.13128 15.5484C7.86052 14.8836 7.46035 14.2792 6.95403 13.7704C6.26445 13.1029 5.7166 12.3032 5.34327 11.4191C4.96994 10.535 4.7788 9.58469 4.78128 8.625C4.78128 6.71047 5.54183 4.87435 6.8956 3.52057C8.24938 2.16679 10.0855 1.40625 12 1.40625C13.9146 1.40625 15.7507 2.16679 17.1045 3.52057C18.4582 4.87435 19.2188 6.71047 19.2188 8.625C19.2213 9.58469 19.0301 10.535 18.6568 11.4191C18.2835 12.3032 17.7356 13.1029 17.046 13.7704Z" fill="#6762FE"/>
<path d="M17.9063 7.5C17.9055 6.87518 17.674 6.27267 17.2562 5.80808C16.8383 5.34348 16.2637 5.04953 15.6425 4.98263C15.5756 4.36139 15.2816 3.78674 14.817 3.36894C14.3524 2.95113 13.7499 2.71959 13.1251 2.71875C12.7341 2.71844 12.3487 2.81058 12.0001 2.98763C11.6515 2.81058 11.266 2.71844 10.8751 2.71875C10.2503 2.71959 9.64775 2.95113 9.18316 3.36894C8.71857 3.78674 8.42462 4.36139 8.35771 4.98263C7.86754 5.03366 7.40301 5.22699 7.02136 5.53878C6.63971 5.85058 6.35761 6.26722 6.20984 6.73736C6.06207 7.20751 6.05507 7.71062 6.18971 8.18469C6.32436 8.65876 6.59476 9.08309 6.96759 9.40538C6.87106 9.67809 6.83041 9.96745 6.84805 10.2562C6.86569 10.545 6.94127 10.8272 7.07028 11.0862C7.1993 11.3451 7.3791 11.5754 7.599 11.7634C7.81889 11.9514 8.07437 12.0932 8.35021 12.1804C8.3966 12.8186 8.68266 13.4156 9.15098 13.8517C9.61929 14.2877 10.2352 14.5305 10.8751 14.5313C11.266 14.5316 11.6515 14.4394 12.0001 14.2624C12.3487 14.4394 12.7341 14.5316 13.1251 14.5313C13.7649 14.5305 14.3807 14.2878 14.849 13.8519C15.3173 13.416 15.6034 12.8192 15.65 12.1811C15.9258 12.0939 16.1813 11.9521 16.4012 11.7641C16.6211 11.5762 16.8009 11.3458 16.9299 11.0869C17.0589 10.828 17.1345 10.5457 17.1521 10.257C17.1698 9.9682 17.1291 9.67884 17.0326 9.40613C17.3058 9.16918 17.5252 8.87648 17.6759 8.5477C17.8266 8.21892 17.9052 7.86168 17.9063 7.5ZM11.3438 13.1205C11.1961 13.1853 11.0364 13.2188 10.8751 13.2188C10.6942 13.2185 10.5157 13.178 10.3523 13.1003C10.189 13.0225 10.045 12.9095 9.93077 12.7692C9.8165 12.629 9.73482 12.4652 9.69164 12.2895C9.64846 12.1139 9.64486 11.9308 9.68109 11.7536C9.70103 11.6568 9.69882 11.5568 9.67464 11.461C9.65046 11.3652 9.60493 11.2761 9.54146 11.2003C9.47798 11.1246 9.39821 11.0642 9.3081 11.0236C9.21798 10.9831 9.11987 10.9634 9.02109 10.9661C9.00384 10.9661 8.98696 10.9661 8.97009 10.9691C8.74626 10.9651 8.53318 10.8724 8.37773 10.7113C8.22227 10.5503 8.13717 10.334 8.14115 10.1102C8.14513 9.88636 8.23786 9.67328 8.39894 9.51783C8.56002 9.36237 8.77626 9.27727 9.00009 9.28125C9.17414 9.28125 9.34106 9.21211 9.46413 9.08904C9.5872 8.96597 9.65634 8.79905 9.65634 8.625C9.65634 8.45095 9.5872 8.28403 9.46413 8.16096C9.34106 8.03789 9.17414 7.96875 9.00009 7.96875C8.55861 7.96828 8.12775 8.10408 7.76634 8.35763C7.59493 8.18813 7.47788 7.97143 7.43012 7.73515C7.38237 7.49887 7.40607 7.25372 7.49819 7.03096C7.59032 6.8082 7.74671 6.61792 7.94741 6.4844C8.14811 6.35088 8.38403 6.28016 8.62509 6.28125C8.71899 6.28279 8.81238 6.29538 8.90334 6.31875C9.0119 6.34413 9.12515 6.3414 9.23236 6.31081C9.33958 6.28023 9.43722 6.2228 9.51606 6.14397C9.59489 6.06513 9.65232 5.96749 9.6829 5.86027C9.71348 5.75306 9.71622 5.63982 9.69084 5.53125C9.64526 5.35214 9.64155 5.16493 9.68 4.98415C9.71845 4.80337 9.79802 4.63387 9.91255 4.48881C10.0271 4.34375 10.1735 4.22701 10.3404 4.14766C10.5073 4.06831 10.6903 4.02848 10.8751 4.03125C11.0364 4.03125 11.1961 4.06471 11.3438 4.1295V13.1205ZM16.2338 8.358C15.8725 8.10433 15.4416 7.96839 15.0001 7.96875C14.826 7.96875 14.6591 8.03789 14.536 8.16096C14.413 8.28403 14.3438 8.45095 14.3438 8.625C14.3438 8.79905 14.413 8.96597 14.536 9.08904C14.6591 9.21211 14.826 9.28125 15.0001 9.28125C15.2239 9.27668 15.4403 9.36118 15.6018 9.51618C15.7632 9.67118 15.8565 9.88398 15.8611 10.1078C15.8657 10.3315 15.7812 10.548 15.6262 10.7094C15.4712 10.8709 15.2584 10.9642 15.0346 10.9688H14.9798C14.881 10.9659 14.7827 10.9854 14.6925 11.0259C14.6023 11.0663 14.5223 11.1267 14.4588 11.2025C14.3952 11.2783 14.3496 11.3675 14.3254 11.4634C14.3012 11.5593 14.2991 11.6594 14.3191 11.7563C14.3549 11.9333 14.3509 12.116 14.3076 12.2913C14.2642 12.4667 14.1824 12.6302 14.0682 12.7701C13.954 12.91 13.8101 13.0228 13.6471 13.1004C13.484 13.178 13.3057 13.2184 13.1251 13.2188C12.9637 13.2188 12.8041 13.1853 12.6563 13.1205V4.1295C12.8041 4.06471 12.9637 4.03125 13.1251 4.03125C13.3095 4.02888 13.4919 4.0689 13.6583 4.14823C13.8248 4.22755 13.9708 4.34407 14.085 4.48877C14.1993 4.63347 14.2788 4.8025 14.3173 4.98279C14.3559 5.16309 14.3525 5.34984 14.3075 5.52863C14.2821 5.63719 14.2848 5.75043 14.3154 5.85765C14.346 5.96486 14.4034 6.06251 14.4822 6.14134C14.5611 6.22018 14.6587 6.2776 14.7659 6.30819C14.8732 6.33877 14.9864 6.3415 15.095 6.31613C15.1859 6.29275 15.2793 6.28017 15.3732 6.27863C15.6143 6.27753 15.8502 6.34825 16.0509 6.48178C16.2516 6.6153 16.408 6.80557 16.5001 7.02833C16.5922 7.25109 16.6159 7.49624 16.5682 7.73252C16.5204 7.9688 16.4034 8.18551 16.232 8.355L16.2338 8.358Z" fill="#6762FE"/>
</svg>
