<svg width="24" height="24" viewBox="0 0 24 24" fill="none" xmlns="http://www.w3.org/2000/svg">
<g clip-path="url(#clip0_1434_1160)">
<path d="M14.1562 1.875C13.8975 1.875 13.6875 2.085 13.6875 2.34375C13.6875 2.6025 13.8975 2.8125 14.1562 2.8125C14.415 2.8125 14.625 2.6025 14.625 2.34375C14.625 2.085 14.415 1.875 14.1562 1.875ZM17.9062 1.875H16.0312C15.7724 1.875 15.5625 2.08486 15.5625 2.34375C15.5625 2.60264 15.7724 2.8125 16.0312 2.8125H17.9062C18.1651 2.8125 18.375 2.60264 18.375 2.34375C18.375 2.08486 18.1651 1.875 17.9062 1.875ZM21.6562 1.875H19.7812C19.5224 1.875 19.3125 2.08486 19.3125 2.34375C19.3125 2.60264 19.5224 2.8125 19.7812 2.8125H21.6562C21.9151 2.8125 22.125 2.60264 22.125 2.34375C22.125 2.08486 21.9151 1.875 21.6562 1.875Z" fill="#6762FE"/>
<path d="M22.5938 0H1.40625C0.630797 0 0 0.630797 0 1.40625V22.5938C0 23.3692 0.630797 24 1.40625 24H22.5938C23.3692 24 24 23.3692 24 22.5938V1.40625C24 0.630797 23.3692 0 22.5938 0ZM23.0625 22.5938C23.0625 22.8523 22.8523 23.0625 22.5938 23.0625H1.40625C1.14769 23.0625 0.9375 22.8523 0.9375 22.5938V4.6875H23.0625V22.5938ZM23.0625 3.75H0.9375V1.40625C0.9375 1.14769 1.14769 0.9375 1.40625 0.9375H22.5938C22.8523 0.9375 23.0625 1.14769 23.0625 1.40625V3.75Z" fill="#6762FE"/>
<path d="M3.5625 10.5938H20.4375C20.6964 10.5938 20.9062 10.3839 20.9062 10.125V7.3125C20.9062 7.05361 20.6964 6.84375 20.4375 6.84375H3.5625C3.30361 6.84375 3.09375 7.05361 3.09375 7.3125V10.125C3.09375 10.3839 3.30361 10.5938 3.5625 10.5938ZM4.03125 7.78125H19.9688V9.65625H4.03125V7.78125ZM3.5625 21.0469H9.1875C9.44639 21.0469 9.65625 20.837 9.65625 20.5781V13.0781C9.65625 12.8192 9.44639 12.6094 9.1875 12.6094H3.5625C3.30361 12.6094 3.09375 12.8192 3.09375 13.0781V20.5781C3.09375 20.837 3.30361 21.0469 3.5625 21.0469ZM4.03125 13.5469H8.71875V20.1094H4.03125V13.5469ZM20.4375 12.6094H12C11.9954 12.6094 11.991 12.6099 11.9864 12.6101C11.7292 12.6174 11.5312 12.8296 11.5312 13.0781V20.5781C11.5312 20.5809 11.5316 20.5836 11.5316 20.5864C11.5362 20.8451 11.7486 21.0469 12 21.0469H20.4375C20.6902 21.0469 20.9013 20.8444 20.9059 20.5864C20.9059 20.5836 20.9062 20.5809 20.9062 20.5781V13.0781C20.9062 12.8222 20.6975 12.6094 20.4375 12.6094ZM19.2047 13.5469L16.2188 16.201L13.2328 13.5469H19.2047ZM12.4688 14.122L15.5133 16.8281L12.4688 19.5342V14.122ZM13.2328 20.1094L16.2188 17.4553L19.2047 20.1094H13.2328ZM19.9688 19.5342L16.9242 16.8281L19.9688 14.122V19.5342Z" fill="#6762FE"/>
</g>
<defs>
<clipPath id="clip0_1434_1160">
<rect width="24" height="24" fill="white"/>
</clipPath>
</defs>
</svg>
