<svg width="24" height="24" viewBox="0 0 24 24" fill="none" xmlns="http://www.w3.org/2000/svg">
<g clip-path="url(#clip0_1434_1135)">
<path d="M13.7943 5.46717C13.2128 5.3078 12.6091 5.22698 12 5.22698C8.26533 5.22698 5.22698 8.26533 5.22698 12C5.22698 15.7347 8.26533 18.773 12 18.773C15.7347 18.773 18.773 15.7347 18.773 12C18.773 11.3909 18.6922 10.7872 18.5328 10.2057C18.4233 9.8062 18.6584 9.39361 19.0579 9.28411C19.4571 9.17466 19.8699 9.40969 19.9794 9.80916C20.1747 10.5231 20.2734 11.2599 20.273 12C20.273 16.5617 16.5617 20.273 12 20.273C7.43827 20.273 3.72698 16.5617 3.72698 12C3.72698 7.43827 7.43827 3.72698 12 3.72698C12.7431 3.72698 13.4802 3.82575 14.1908 4.02056C14.524 4.11188 14.7428 4.41403 14.7428 4.74356C14.7427 4.81065 14.7337 4.87743 14.7159 4.94212C14.6064 5.34159 14.1939 5.57681 13.7943 5.46717ZM22.5758 8.08313C22.1787 8.20073 21.952 8.61797 22.0696 9.01519C22.3552 9.97988 22.5 10.9841 22.5 12C22.5 17.7897 17.7897 22.5 12 22.5C6.21028 22.5 1.5 17.7897 1.5 12C1.5 6.21028 6.21028 1.5 12 1.5C13.016 1.5 14.0202 1.6448 14.9847 1.93036C15.3819 2.04802 15.7991 1.82123 15.9167 1.42411C15.9377 1.35309 15.9478 1.28152 15.9478 1.21106C15.9479 0.887391 15.7367 0.588656 15.4105 0.492047C14.3076 0.165516 13.1602 0 12 0C8.79469 0 5.78119 1.24823 3.51469 3.51469C1.24823 5.78123 0 8.79469 0 12C0 15.2053 1.24823 18.2188 3.51469 20.4853C5.78114 22.7518 8.79469 24 12 24C15.2053 24 18.2188 22.7518 20.4853 20.4853C22.7518 18.2188 24 15.2053 24 12C24 10.8399 23.8344 9.69239 23.5079 8.58938C23.3903 8.1922 22.973 7.9657 22.5758 8.08313ZM12 9C12.1103 9 12.2217 9.00609 12.3311 9.01809C12.743 9.06342 13.1133 8.76609 13.1584 8.35439C13.2036 7.94264 12.9064 7.57223 12.4947 7.52709C12.3304 7.50907 12.1653 7.50002 12 7.5C9.51867 7.5 7.5 9.51867 7.5 12C7.5 14.4813 9.51867 16.5 12 16.5C14.4813 16.5 16.5 14.4813 16.5 12C16.5 11.5858 16.1642 11.25 15.75 11.25C15.3358 11.25 15 11.5858 15 12C15 13.6542 13.6542 15 12 15C10.3458 15 9 13.6542 9 12C9 10.3458 10.3458 9 12 9ZM15.8294 7.11005L16.203 3.36253C16.2202 3.19016 16.2965 3.02905 16.419 2.90658L19.106 0.219656C19.2073 0.118318 19.3356 0.0481431 19.4756 0.017439C19.6156 -0.013265 19.7615 -0.00321254 19.8959 0.0464064C20.0304 0.0960254 20.1478 0.183133 20.2343 0.297418C20.3208 0.411702 20.3728 0.548378 20.384 0.691266L20.5971 3.40298L23.3087 3.61598C23.4516 3.6272 23.5883 3.67914 23.7026 3.76563C23.8169 3.85213 23.904 3.96957 23.9537 4.10404C24.0033 4.23851 24.0133 4.38439 23.9826 4.5244C23.9519 4.66441 23.8817 4.79268 23.7803 4.89403L21.0934 7.58095C20.9709 7.70345 20.8098 7.77975 20.6375 7.79691L16.89 8.17069L12.5303 12.5303C12.4608 12.6001 12.3781 12.6554 12.2871 12.6931C12.1961 12.7308 12.0985 12.7501 12 12.75C11.9015 12.7501 11.8039 12.7308 11.7129 12.6931C11.6219 12.6554 11.5393 12.6001 11.4697 12.5303C11.1768 12.2374 11.1768 11.7625 11.4697 11.4697L15.8294 7.11005ZM17.3863 6.61378L20.2221 6.33094L21.569 4.98398L19.8408 4.84823C19.6628 4.83423 19.4955 4.75714 19.3692 4.63085C19.2429 4.50455 19.1659 4.33733 19.1519 4.15927L19.0161 2.43094L17.6691 3.77794L17.3863 6.61378Z" fill="#6762FE"/>
</g>
<defs>
<clipPath id="clip0_1434_1135">
<rect width="24" height="24" fill="white"/>
</clipPath>
</defs>
</svg>
