<svg width="24" height="24" viewBox="0 0 24 24" fill="none" xmlns="http://www.w3.org/2000/svg">
<g clip-path="url(#clip0_1434_1126)">
<path d="M0.9375 21.1875H11.8125M19.3125 21.1875H23.0625" stroke="#6762FE" stroke-width="1.875" stroke-miterlimit="10" stroke-linecap="round" stroke-linejoin="round"/>
<path d="M13.6875 23.0625C14.723 23.0625 15.5625 22.223 15.5625 21.1875C15.5625 20.152 14.723 19.3125 13.6875 19.3125C12.652 19.3125 11.8125 20.152 11.8125 21.1875C11.8125 22.223 12.652 23.0625 13.6875 23.0625Z" stroke="#6762FE" stroke-width="1.875" stroke-miterlimit="10" stroke-linecap="round" stroke-linejoin="round"/>
<path d="M23.0625 12.1875C23.0625 14.2586 21.3836 15.9375 19.3125 15.9375H4.6875C2.61642 15.9375 0.9375 14.2586 0.9375 12.1875V4.6875C0.9375 2.61642 2.61642 0.9375 4.6875 0.9375H19.3125C21.3836 0.9375 23.0625 2.61642 23.0625 4.6875V12.1875Z" stroke="#6762FE" stroke-width="1.875" stroke-miterlimit="10" stroke-linecap="round" stroke-linejoin="round"/>
<path d="M4.6875 8.4375C6.75858 8.4375 8.4375 10.1164 8.4375 12.1875C8.4375 9.08091 10.9559 6.5625 14.0625 6.5625H15.5625" stroke="#6762FE" stroke-width="1.875" stroke-miterlimit="10" stroke-linecap="round" stroke-linejoin="round"/>
<path d="M17.4375 8.4375C18.473 8.4375 19.3125 7.59803 19.3125 6.5625C19.3125 5.52697 18.473 4.6875 17.4375 4.6875C16.402 4.6875 15.5625 5.52697 15.5625 6.5625C15.5625 7.59803 16.402 8.4375 17.4375 8.4375Z" stroke="#6762FE" stroke-width="1.875" stroke-miterlimit="10" stroke-linecap="round" stroke-linejoin="round"/>
</g>
<defs>
<clipPath id="clip0_1434_1126">
<rect width="24" height="24" fill="white"/>
</clipPath>
</defs>
</svg>
