<svg width="24" height="24" viewBox="0 0 24 24" fill="none" xmlns="http://www.w3.org/2000/svg">
<g clip-path="url(#clip0_1434_1111)">
<mask id="mask0_1434_1111" style="mask-type:luminance" maskUnits="userSpaceOnUse" x="0" y="0" width="24" height="24">
<path d="M24 0H0V24H24V0Z" fill="white"/>
</mask>
<g mask="url(#mask0_1434_1111)">
<path d="M13.697 7.54746C13.697 6.61043 12.9371 5.85059 12.0001 5.85059C11.0631 5.85059 10.3032 6.61043 10.3032 7.54746C10.3032 8.48449 11.0631 9.24434 12.0001 9.24434C12.9371 9.24434 13.697 8.48449 13.697 7.54746Z" stroke="#6762FE" stroke-width="1.40625" stroke-miterlimit="10"/>
<path d="M17.1468 7.54734C17.1468 7.30406 17.1294 7.065 17.0966 6.83063L18.7466 5.54578L17.1065 2.70469L15.1686 3.49125C14.7904 3.19547 14.3727 2.95359 13.9274 2.77359L13.64 0.703125H10.3597L10.0724 2.77359C9.62708 2.95359 9.20942 3.195 8.83114 3.49125L6.89333 2.70469L5.25317 5.54578L6.90317 6.83063C6.86989 7.06828 6.85349 7.30734 6.85302 7.54734C6.85302 7.79062 6.87036 8.02969 6.90317 8.26406L5.25317 9.54891L6.89333 12.39L8.83114 11.6034C9.20942 11.8992 9.62708 12.1411 10.0724 12.3211L10.3597 14.3916H13.64L13.9274 12.3211C14.3727 12.1411 14.7904 11.8997 15.1686 11.6034L17.1065 12.39L18.7466 9.54891L17.0966 8.26406C17.1299 8.02641 17.1463 7.78734 17.1463 7.54734H17.1468Z" stroke="#6762FE" stroke-width="1.40625" stroke-miterlimit="10"/>
<path d="M19.0547 23.2969V20.0287C19.0547 16.9148 16.5305 14.3906 13.4166 14.3906H10.583C7.46906 14.3906 4.94531 16.9148 4.94531 20.0287V23.2969H19.0547Z" stroke="#6762FE" stroke-width="1.40625" stroke-miterlimit="10"/>
<path d="M14.1094 14.625L13.0547 17.2031H10.9453L9.89062 14.625" stroke="#6762FE" stroke-width="1.40625" stroke-miterlimit="10"/>
<path d="M10.9453 17.2031L10.0312 23.2031" stroke="#6762FE" stroke-width="1.40625" stroke-miterlimit="10"/>
<path d="M13.0547 17.2031L13.9688 23.2031" stroke="#6762FE" stroke-width="1.40625" stroke-miterlimit="10"/>
<path d="M15.5156 19.7148H16.9219" stroke="#6762FE" stroke-width="1.40625" stroke-miterlimit="10"/>
</g>
</g>
<defs>
<clipPath id="clip0_1434_1111">
<rect width="24" height="24" fill="white"/>
</clipPath>
</defs>
</svg>
