<svg width="24" height="24" viewBox="0 0 24 24" fill="none" xmlns="http://www.w3.org/2000/svg">
<path d="M20 1.25H4C2.48 1.25 1.25 2.48 1.25 4V20C1.25 21.52 2.48 22.75 4 22.75H20C21.52 22.75 22.75 21.52 22.75 20V4C22.75 2.48 21.52 1.25 20 1.25ZM2.75 4C2.75 3.31 3.31 2.75 4 2.75H20C20.69 2.75 21.25 3.31 21.25 4V5.25H2.75V4ZM21.25 20C21.25 20.69 20.69 21.25 20 21.25H4C3.31 21.25 2.75 20.69 2.75 20V6.75H21.25V20ZM5.3 14.53C5.16052 14.3889 5.0823 14.1984 5.0823 14C5.0823 13.8016 5.16052 13.6111 5.3 13.47L7.8 10.97C8.09 10.68 8.57 10.68 8.86 10.97C9.15 11.26 9.15 11.74 8.86 12.03L6.89 14L8.86 15.97C9.15 16.26 9.15 16.74 8.86 17.03C8.71 17.18 8.52 17.25 8.33 17.25C8.14 17.25 7.95 17.18 7.8 17.03L5.3 14.53ZM15.13 15.97L17.1 14L15.13 12.03C14.84 11.74 14.84 11.26 15.13 10.97C15.42 10.68 15.9 10.68 16.19 10.97L18.69 13.47C18.98 13.76 18.98 14.24 18.69 14.53L16.19 17.03C16.04 17.18 15.85 17.25 15.66 17.25C15.47 17.25 15.28 17.18 15.13 17.03C14.9905 16.8889 14.9123 16.6984 14.9123 16.5C14.9123 16.3016 14.9905 16.1111 15.13 15.97ZM10.05 17.78L12.5 9.78C12.62 9.39 13.04 9.16 13.44 9.28C13.84 9.4 14.06 9.82 13.94 10.22L11.49 18.22C11.43 18.4099 11.298 18.5686 11.1222 18.6621C10.9464 18.7556 10.7409 18.7764 10.55 18.72C10.4552 18.6914 10.3671 18.6444 10.2906 18.5816C10.2141 18.5188 10.1507 18.4415 10.1043 18.3541C10.0578 18.2667 10.0291 18.171 10.0197 18.0725C10.0104 17.9739 10.0207 17.8745 10.05 17.78Z" fill="#6762FE"/>
</svg>
