<svg width="24" height="24" viewBox="0 0 24 24" fill="none" xmlns="http://www.w3.org/2000/svg">
<g clip-path="url(#clip0_1434_1167)">
<g clip-path="url(#clip1_1434_1167)">
<path d="M22.452 14.9966C21.3802 13.9248 19.931 13.3754 18.4309 13.4606L16.9702 12L23.1746 5.79551C23.704 5.26611 23.9956 4.56008 23.9956 3.80745C23.9956 3.05478 23.704 2.34875 23.1746 1.81939L22.1806 0.825365C21.6512 0.295913 20.9452 0.00439808 20.1925 0.00439808C19.4399 0.00439808 18.7338 0.29596 18.2044 0.825318L12 7.02978L10.5393 5.56911C10.6245 4.06887 10.075 2.61974 9.00328 1.54799C7.38019 -0.0751487 4.91738 -0.463601 2.87499 0.581288L2.01521 1.02116L5.27564 4.28159L4.28157 5.27567L1.02118 2.01524L0.581308 2.87502C-0.463627 4.9174 -0.075128 7.38017 1.54801 9.0033C2.61976 10.0751 4.06866 10.6244 5.56913 10.5393L7.0298 12L1.66262 17.3671L0.0079343 23.992L6.63281 22.3373L12 16.9702L13.4607 18.4308C13.3755 19.9311 13.925 21.3802 14.9967 22.452C16.0126 23.4678 17.3569 24 18.7217 24C19.5375 23.9999 20.3608 23.8096 21.125 23.4186L21.9848 22.9788L18.7243 19.7183L19.7184 18.7243L22.9788 21.9847L23.4187 21.1249C24.4636 19.0826 24.0751 16.6198 22.452 14.9966ZM19.1984 1.81935C19.4623 1.55549 19.8154 1.41018 20.1925 1.41018C20.5697 1.41018 20.9227 1.55549 21.1865 1.81935L22.1806 2.81342C22.4444 3.07728 22.5898 3.4303 22.5898 3.80745C22.5898 4.18461 22.4444 4.53762 22.1806 4.80148L21.4706 5.5114L18.4885 2.52927L19.1984 1.81935ZM17.4945 3.5233L20.4767 6.50543L19.4826 7.49946L16.5005 4.51733L17.4945 3.5233ZM4.47361 1.49146C4.98703 1.38193 5.51742 1.37854 6.0322 1.48151C6.54697 1.58447 7.03526 1.79161 7.46704 2.09019L6.26967 3.28752L4.47361 1.49146ZM6.08883 9.0709L5.7487 9.11257C4.55803 9.25844 3.38907 8.85626 2.54204 8.00923C1.59728 7.06446 1.22279 5.7319 1.49148 4.47359L4.28157 7.26368L8.46117 3.08413C8.99437 3.85559 9.22935 4.79497 9.11254 5.74868L9.07087 6.08881L11.0059 8.0238L8.02378 11.0059L6.08883 9.0709ZM15.5065 5.51136L16.5005 6.50539L4.28541 18.7205L3.29138 17.7265L15.5065 5.51136ZM1.93796 22.0619L2.67812 19.1013L4.89863 21.3218L1.93796 22.0619ZM6.27352 20.7086L5.27944 19.7145L17.4946 7.49942L18.4886 8.49349L6.27352 20.7086ZM19.5264 22.5084C19.0129 22.618 18.4826 22.6213 17.9678 22.5184C17.453 22.4154 16.9647 22.2083 16.5329 21.9097L17.7303 20.7123L19.5264 22.5084ZM22.5085 19.5263L19.7184 16.7362L15.5388 20.9158C15.0056 20.1443 14.7706 19.2049 14.8874 18.2512L14.9291 17.9111L12.994 15.9761L15.9762 12.994L17.9112 14.929L18.2513 14.8873C19.4421 14.7416 20.6109 15.1436 21.4579 15.9907C22.4027 16.9354 22.7771 18.268 22.5085 19.5263Z" fill="#6762FE"/>
</g>
</g>
<defs>
<clipPath id="clip0_1434_1167">
<rect width="24" height="24" fill="white"/>
</clipPath>
<clipPath id="clip1_1434_1167">
<rect width="24" height="24" fill="white"/>
</clipPath>
</defs>
</svg>
