<svg width="24" height="24" viewBox="0 0 24 24" fill="none" xmlns="http://www.w3.org/2000/svg">
<g clip-path="url(#clip0_1434_1098)">
<path d="M19.6137 16.8397C18.0163 16.8397 16.7168 15.5381 16.7168 13.9384C16.7168 12.3386 18.0163 11.0371 19.6137 11.0371C21.211 11.0371 22.5106 12.3386 22.5106 13.9384C22.5106 15.5381 21.211 16.8397 19.6137 16.8397ZM19.6137 12.5756C18.8646 12.5756 18.2553 13.187 18.2553 13.9384C18.2553 14.6898 18.8646 15.3012 19.6137 15.3012C20.3627 15.3012 20.9721 14.6898 20.9721 13.9384C20.9721 13.187 20.3627 12.5756 19.6137 12.5756ZM4.38618 16.8397C2.78885 16.8397 1.48926 15.5381 1.48926 13.9384C1.48926 12.3386 2.7888 11.0371 4.38618 11.0371C5.98357 11.0371 7.28305 12.3386 7.28305 13.9384C7.28305 15.5381 5.98357 16.8397 4.38618 16.8397ZM4.38618 12.5756C3.63716 12.5756 3.02772 13.187 3.02772 13.9384C3.02772 14.6898 3.6371 15.3012 4.38618 15.3012C5.13526 15.3012 5.74459 14.6898 5.74459 13.9384C5.74459 13.187 5.13526 12.5756 4.38618 12.5756ZM11.2308 18.1437L11.2305 20.7875L12.769 20.7877L12.7693 18.1437C14.2964 17.7926 15.4394 16.4213 15.4394 14.7867C15.4394 12.8871 13.8964 11.3417 11.9999 11.3417C10.1034 11.3417 8.56049 12.8871 8.56049 14.7867C8.56049 16.4214 9.70351 17.7928 11.2308 18.1437ZM11.9999 12.8801C13.0481 12.8801 13.9009 13.7354 13.9009 14.7867C13.9009 15.8379 13.0481 16.6932 11.9999 16.6932C10.9517 16.6932 10.099 15.8379 10.099 14.7867C10.099 13.7354 10.9517 12.8801 11.9999 12.8801Z" fill="#6762FE"/>
<path d="M23.2527 16.4112L21.9771 17.2713C22.294 17.7413 22.4615 18.2909 22.4615 18.8607V19.8974H17.2018C17.0491 19.1462 16.7347 18.4378 16.2703 17.8101L15.0335 18.7251C15.5154 19.3766 15.7702 20.1509 15.7702 20.9643V22.3136C15.7702 22.3528 15.7546 22.3904 15.7269 22.4182C15.6991 22.4459 15.6616 22.4615 15.6224 22.4615H8.37774C8.33854 22.4615 8.30096 22.4459 8.27324 22.4182C8.24553 22.3904 8.22994 22.3528 8.2299 22.3136V20.9643C8.2299 20.2099 8.45169 19.4823 8.87133 18.8599L7.59574 17.9998C7.20834 18.574 6.93781 19.2188 6.79959 19.8975H1.53846V18.8607C1.53846 18.2717 1.71656 17.7067 2.05354 17.2268L0.794462 16.3427C0.274718 17.0829 0 17.9536 0 18.8607V19.9359C0 20.763 0.672923 21.4359 1.5 21.4359H6.69138V22.3136C6.69138 23.2435 7.44785 24 8.37769 24H15.6223C16.5522 24 17.3086 23.2435 17.3086 22.3136V21.4359H22.5C23.3271 21.4359 24 20.763 24 19.9359V18.8607C24 17.9833 23.7416 17.1363 23.2527 16.4112ZM14.2768 7.36985V1.20928C14.2768 0.542462 14.8193 0 15.4861 0H22.7907C23.4575 0 24 0.542462 24 1.20928V5.16964C24 5.83646 23.4575 6.37892 22.7907 6.37892H17.6359L15.5094 7.98385C14.953 8.40169 14.2522 7.94015 14.2768 7.36985ZM15.8152 1.53846V5.82559L16.9148 4.99569C17.0482 4.89494 17.2109 4.84045 17.3782 4.84046H22.4615V1.53846H15.8152Z" fill="#6762FE"/>
<path d="M17.1901 2.52539H21.0867V4.06385H17.1901V2.52539ZM8.49056 11.0612L6.3641 9.45632H1.20928C0.542462 9.45632 0 8.91385 0 8.24703V4.28667C0 3.61985 0.542462 3.07739 1.20928 3.07739H8.51395C9.18072 3.07739 9.72323 3.61985 9.72323 4.28667V10.4472C9.72323 11.1287 8.97436 11.4235 8.49056 11.0612ZM1.53846 7.91785H6.6218C6.78903 7.91785 6.95169 7.97237 7.08518 8.07308L8.18472 8.90298V4.61585H1.53846V7.91785Z" fill="#6762FE"/>
<path d="M2.91333 5.60156H6.81V7.14002H2.91333V5.60156Z" fill="#6762FE"/>
</g>
<defs>
<clipPath id="clip0_1434_1098">
<rect width="24" height="24" fill="white"/>
</clipPath>
</defs>
</svg>
