<svg width="24" height="24" viewBox="0 0 24 24" fill="none" xmlns="http://www.w3.org/2000/svg">
<path d="M11.0302 5.01921V3.74121C11.0297 3.14466 10.7924 2.57271 10.3706 2.15088C9.94875 1.72905 9.3768 1.49181 8.78025 1.49121H3C2.40345 1.49181 1.8315 1.72905 1.40967 2.15088C0.98784 2.57271 0.750596 3.14466 0.75 3.74121V5.01921C0.750596 5.61577 0.98784 6.18772 1.40967 6.60954C1.8315 7.03137 2.40345 7.26862 3 7.26921H8.78025C9.3768 7.26862 9.94875 7.03137 10.3706 6.60954C10.7924 6.18772 11.0297 5.61577 11.0302 5.01921ZM2.25 5.01921V3.74121C2.2502 3.54236 2.32928 3.35171 2.46989 3.2111C2.6105 3.07049 2.80115 2.99141 3 2.99121H8.78025C8.9791 2.99141 9.16975 3.07049 9.31036 3.2111C9.45097 3.35171 9.53005 3.54236 9.53025 3.74121V5.01921C9.53005 5.21806 9.45097 5.40871 9.31036 5.54932C9.16975 5.68993 8.9791 5.76901 8.78025 5.76921H3C2.80115 5.76901 2.6105 5.68993 2.46989 5.54932C2.32928 5.40871 2.2502 5.21806 2.25 5.01921ZM21 7.75521H15.2197C14.6232 7.75581 14.0512 7.99305 13.6294 8.41488C13.2076 8.83671 12.9703 9.40866 12.9697 10.0052V11.2832C12.9703 11.8798 13.2076 12.4517 13.6294 12.8735C14.0512 13.2954 14.6232 13.5326 15.2197 13.5332H21C21.5966 13.5326 22.1685 13.2954 22.5903 12.8735C23.0122 12.4517 23.2494 11.8798 23.25 11.2832V10.0045C23.2494 9.40791 23.0122 8.83596 22.5903 8.41413C22.1685 7.9923 21.5966 7.75506 21 7.75446V7.75521ZM21.75 11.2832C21.7498 11.4821 21.6707 11.6727 21.5301 11.8133C21.3895 11.9539 21.1989 12.033 21 12.0332H15.2197C15.0209 12.033 14.8302 11.9539 14.6896 11.8133C14.549 11.6727 14.4699 11.4821 14.4697 11.2832V10.0045C14.4699 9.80561 14.549 9.61496 14.6896 9.47435C14.8302 9.33374 15.0209 9.25466 15.2197 9.25446H21C21.1989 9.25466 21.3895 9.33374 21.5301 9.47435C21.6707 9.61496 21.7498 9.80561 21.75 10.0045V11.2832ZM21 16.7312H15.2197C14.6232 16.7318 14.0512 16.969 13.6294 17.3909C13.2076 17.8127 12.9703 18.3847 12.9697 18.9812V20.2592C12.9703 20.8558 13.2076 21.4277 13.6294 21.8495C14.0512 22.2714 14.6232 22.5086 15.2197 22.5092H21C21.5966 22.5086 22.1685 22.2714 22.5903 21.8495C23.0122 21.4277 23.2494 20.8558 23.25 20.2592V18.9812C23.2494 18.3847 23.0122 17.8127 22.5903 17.3909C22.1685 16.969 21.5966 16.7318 21 16.7312ZM21.75 20.2592C21.75 20.4581 21.671 20.6489 21.5303 20.7895C21.3897 20.9302 21.1989 21.0092 21 21.0092H15.2197C15.0208 21.0092 14.8301 20.9302 14.6894 20.7895C14.5488 20.6489 14.4697 20.4581 14.4697 20.2592V18.9812C14.4697 18.7823 14.5488 18.5915 14.6894 18.4509C14.8301 18.3102 15.0208 18.2312 15.2197 18.2312H21C21.1989 18.2312 21.3897 18.3102 21.5303 18.4509C21.671 18.5915 21.75 18.7823 21.75 18.9812V20.2592ZM11.238 11.3957C11.4369 11.3957 11.6277 11.3167 11.7683 11.176C11.909 11.0354 11.988 10.8446 11.988 10.6457C11.988 10.4468 11.909 10.256 11.7683 10.1154C11.6277 9.97473 11.4369 9.89571 11.238 9.89571H6.6405V8.85471C6.6405 8.6558 6.56148 8.46503 6.42083 8.32438C6.28018 8.18373 6.08941 8.10471 5.8905 8.10471C5.69159 8.10471 5.50082 8.18373 5.36017 8.32438C5.21952 8.46503 5.1405 8.6558 5.1405 8.85471V17.2712C5.14129 18.0927 5.46795 18.8804 6.04879 19.4614C6.62963 20.0424 7.41722 20.3692 8.23875 20.3702H11.2365C11.4354 20.3702 11.6262 20.2912 11.7668 20.1505C11.9075 20.0099 11.9865 19.8191 11.9865 19.6202C11.9865 19.4213 11.9075 19.2305 11.7668 19.0899C11.6262 18.9492 11.4354 18.8702 11.2365 18.8702H8.23875C7.81492 18.8696 7.40863 18.7009 7.10901 18.4012C6.80939 18.1014 6.6409 17.695 6.6405 17.2712V11.3957H11.238Z" fill="#6762FE"/>
</svg>
