<svg width="24" height="24" viewBox="0 0 24 24" fill="none" xmlns="http://www.w3.org/2000/svg">
<g clip-path="url(#clip0_1434_1041)">
<path d="M12 23.0495H12C12.4738 23.0491 12.928 22.8607 13.263 22.5257C13.598 22.1907 13.7864 21.7365 13.7868 21.2627V21.2627V17.789C13.7868 17.6222 13.7206 17.4622 13.6026 17.3443C13.4847 17.2263 13.3247 17.1601 13.1579 17.1601C12.9911 17.1601 12.8311 17.2263 12.7132 17.3443C12.5952 17.4622 12.5289 17.6222 12.5289 17.789V21.2627C12.5289 21.403 12.4732 21.5375 12.374 21.6367C12.2748 21.7359 12.1403 21.7916 12 21.7916H2.73684C2.59656 21.7916 2.46202 21.7359 2.36282 21.6367C2.26362 21.5375 2.20789 21.403 2.20789 21.2627V11.9995C2.20789 11.8593 2.26362 11.7247 2.36282 11.6255C2.46202 11.5263 2.59656 11.4706 2.73684 11.4706H6.21053C6.37733 11.4706 6.53731 11.4043 6.65526 11.2864C6.77321 11.1684 6.83947 11.0084 6.83947 10.8416C6.83947 10.6748 6.77321 10.5149 6.65526 10.3969C6.53731 10.279 6.37733 10.2127 6.21053 10.2127L2.73684 10.2127L2.73679 10.2127C2.26305 10.2132 1.80885 10.4016 1.47386 10.7366C1.13888 11.0715 0.950473 11.5257 0.95 11.9995V11.9995L0.95 21.2627L0.95 21.2627C0.950473 21.7365 1.13888 22.1907 1.47386 22.5257C1.80885 22.8607 2.26305 23.0491 2.73679 23.0495H2.73684H12Z" fill="#6762FE" stroke="#6762FE" stroke-width="0.1"/>
<path d="M16.6316 18.4187H16.6316C17.1054 18.4182 17.5596 18.2298 17.8946 17.8948C18.2296 17.5598 18.418 17.1056 18.4184 16.6319V16.6318V13.1582C18.4184 12.9913 18.3522 12.8314 18.2342 12.7134C18.1163 12.5955 17.9563 12.5292 17.7895 12.5292C17.6227 12.5292 17.4627 12.5955 17.3448 12.7134C17.2268 12.8314 17.1605 12.9913 17.1605 13.1582V16.6318C17.1605 16.7721 17.1048 16.9067 17.0056 17.0059C16.9064 17.1051 16.7719 17.1608 16.6316 17.1608H7.36843C7.22815 17.1608 7.09361 17.1051 6.99441 17.0059C6.89521 16.9067 6.83949 16.7721 6.83949 16.6318V7.36868C6.83949 7.22839 6.89521 7.09385 6.99441 6.99466C7.09361 6.89546 7.22815 6.83973 7.36843 6.83973H10.8421C11.0089 6.83973 11.1689 6.77347 11.2869 6.65552C11.4048 6.53757 11.4711 6.37759 11.4711 6.21078C11.4711 6.04398 11.4048 5.884 11.2869 5.76605C11.1689 5.6481 11.0089 5.58184 10.8421 5.58184L7.36843 5.58184L7.36838 5.58184C6.89464 5.58231 6.44044 5.77071 6.10545 6.1057C5.77047 6.44068 5.58206 6.89489 5.58159 7.36863V7.36868L5.58159 16.6318L5.58159 16.6319C5.58206 17.1056 5.77047 17.5598 6.10545 17.8948C6.44044 18.2298 6.89464 18.4182 7.36838 18.4187H7.36843H16.6316Z" fill="#6762FE" stroke="#6762FE" stroke-width="0.1"/>
<path d="M21.2632 13.7868H21.2632C21.737 13.7864 22.1912 13.598 22.5262 13.263C22.8611 12.928 23.0496 12.4738 23.05 12V12V2.73684V2.73679C23.0496 2.26305 22.8611 1.80885 22.5262 1.47386C22.1912 1.13888 21.737 0.950473 21.2632 0.95H21.2632L12 0.95L12 0.95C11.5262 0.950473 11.072 1.13888 10.737 1.47386C10.4021 1.80885 10.2137 2.26305 10.2132 2.73679V2.73684L10.2132 12L10.2132 12C10.2137 12.4738 10.4021 12.928 10.737 13.263C11.072 13.598 11.5262 13.7864 12 13.7868H12H21.2632ZM11.626 2.36282C11.7252 2.26362 11.8597 2.20789 12 2.20789H21.2632C21.4035 2.20789 21.538 2.26362 21.6372 2.36282C21.7364 2.46202 21.7921 2.59656 21.7921 2.73684V12C21.7921 12.1403 21.7364 12.2748 21.6372 12.374C21.538 12.4732 21.4035 12.5289 21.2632 12.5289H12C11.8597 12.5289 11.7252 12.4732 11.626 12.374C11.5268 12.2748 11.4711 12.1403 11.4711 12V2.73684C11.4711 2.59656 11.5268 2.46202 11.626 2.36282Z" fill="#6762FE" stroke="#6762FE" stroke-width="0.1"/>
</g>
<defs>
<clipPath id="clip0_1434_1041">
<rect width="24" height="24" fill="white"/>
</clipPath>
</defs>
</svg>
