<svg width="24" height="24" viewBox="0 0 24 24" fill="none" xmlns="http://www.w3.org/2000/svg">
<g clip-path="url(#clip0_1434_1048)">
<path d="M14.55 4.55203C14.8316 4.09766 14.9867 3.5763 14.9992 3.0419C15.0117 2.5075 14.8812 1.97946 14.6212 1.51241C14.3611 1.04536 13.9811 0.656266 13.5202 0.385387C13.0594 0.114508 12.5346 -0.0283203 12 -0.0283203C11.4654 -0.0283203 10.9406 0.114508 10.4798 0.385387C10.0189 0.656266 9.63885 1.04536 9.37883 1.51241C9.11881 1.97946 8.98831 2.5075 9.00082 3.0419C9.01333 3.5763 9.16841 4.09766 9.45 4.55203C8.85009 4.96461 8.35925 5.5166 8.01961 6.16061C7.67997 6.80463 7.50166 7.52144 7.5 8.24953V8.99953C7.5 9.19844 7.57902 9.3892 7.71967 9.52986C7.86032 9.67051 8.05109 9.74953 8.25 9.74953H15.75C15.9489 9.74953 16.1397 9.67051 16.2803 9.52986C16.421 9.3892 16.5 9.19844 16.5 8.99953V8.24953C16.5029 7.52061 16.3265 6.80216 15.9865 6.1574C15.6464 5.51265 15.1531 4.96135 14.55 4.55203ZM12 1.49953C12.2967 1.49953 12.5867 1.5875 12.8334 1.75232C13.08 1.91715 13.2723 2.15141 13.3858 2.4255C13.4994 2.69959 13.5291 3.00119 13.4712 3.29216C13.4133 3.58313 13.2704 3.85041 13.0607 4.06019C12.8509 4.26997 12.5836 4.41283 12.2926 4.47071C12.0017 4.52858 11.7001 4.49888 11.426 4.38535C11.1519 4.27182 10.9176 4.07956 10.7528 3.83288C10.588 3.58621 10.5 3.2962 10.5 2.99953C10.5 2.6017 10.658 2.22017 10.9393 1.93887C11.2206 1.65756 11.6022 1.49953 12 1.49953ZM9 8.24953C9.00061 7.71037 9.14651 7.18134 9.42235 6.71808C9.69819 6.25483 10.0938 5.87448 10.5675 5.61703C11.0031 5.86421 11.4954 5.99415 11.9963 5.99415C12.4971 5.99415 12.9894 5.86421 13.425 5.61703C13.9044 5.86831 14.3052 6.24707 14.5831 6.71157C14.861 7.17607 15.0052 7.70827 15 8.24953H9ZM7.05 18.802C7.33159 18.3477 7.48667 17.8263 7.49918 17.2919C7.51169 16.7575 7.38119 16.2295 7.12117 15.7624C6.86115 15.2954 6.48106 14.9063 6.02023 14.6354C5.55939 14.3645 5.03455 14.2217 4.5 14.2217C3.96545 14.2217 3.44061 14.3645 2.97977 14.6354C2.51894 14.9063 2.13885 15.2954 1.87883 15.7624C1.61881 16.2295 1.48831 16.7575 1.50082 17.2919C1.51333 17.8263 1.66841 18.3477 1.95 18.802C1.35009 19.2146 0.859252 19.7666 0.519609 20.4106C0.179966 21.0546 0.00166169 21.7714 0 22.4995L0 23.2495C0 23.4484 0.0790176 23.6392 0.21967 23.7799C0.360322 23.9205 0.551088 23.9995 0.75 23.9995H3C3.19891 23.9995 3.38968 23.9205 3.53033 23.7799C3.67098 23.6392 3.75 23.4484 3.75 23.2495C3.75 23.0506 3.67098 22.8598 3.53033 22.7192C3.38968 22.5785 3.19891 22.4995 3 22.4995H1.5C1.50061 21.9604 1.64651 21.4313 1.92235 20.9681C2.19819 20.5048 2.59378 20.1245 3.0675 19.867C3.50311 20.1142 3.9954 20.2442 4.49625 20.2442C4.9971 20.2442 5.48939 20.1142 5.925 19.867C6.40442 20.1183 6.80516 20.4971 7.08307 20.9616C7.36097 21.4261 7.50525 21.9583 7.5 22.4995H6C5.80109 22.4995 5.61032 22.5785 5.46967 22.7192C5.32902 22.8598 5.25 23.0506 5.25 23.2495C5.25 23.4484 5.32902 23.6392 5.46967 23.7799C5.61032 23.9205 5.80109 23.9995 6 23.9995H8.25C8.44891 23.9995 8.63968 23.9205 8.78033 23.7799C8.92098 23.6392 9 23.4484 9 23.2495V22.4995C9.00286 21.7706 8.82651 21.0522 8.48648 20.4074C8.14644 19.7626 7.65315 19.2114 7.05 18.802ZM3 17.2495C3 16.9529 3.08797 16.6628 3.2528 16.4162C3.41762 16.1695 3.65189 15.9772 3.92597 15.8637C4.20006 15.7502 4.50166 15.7205 4.79264 15.7783C5.08361 15.8362 5.35088 15.9791 5.56066 16.1889C5.77044 16.3986 5.9133 16.6659 5.97118 16.9569C6.02906 17.2479 5.99935 17.5495 5.88582 17.8236C5.77229 18.0976 5.58003 18.3319 5.33335 18.4967C5.08668 18.6616 4.79667 18.7495 4.5 18.7495C4.10218 18.7495 3.72064 18.5915 3.43934 18.3102C3.15804 18.0289 3 17.6474 3 17.2495ZM22.05 18.802C22.3316 18.3477 22.4867 17.8263 22.4992 17.2919C22.5117 16.7575 22.3812 16.2295 22.1212 15.7624C21.8611 15.2954 21.4811 14.9063 21.0202 14.6354C20.5594 14.3645 20.0345 14.2217 19.5 14.2217C18.9655 14.2217 18.4406 14.3645 17.9798 14.6354C17.5189 14.9063 17.1389 15.2954 16.8788 15.7624C16.6188 16.2295 16.4883 16.7575 16.5008 17.2919C16.5133 17.8263 16.6684 18.3477 16.95 18.802C16.3501 19.2146 15.8593 19.7666 15.5196 20.4106C15.18 21.0546 15.0017 21.7714 15 22.4995V23.2495C15 23.4484 15.079 23.6392 15.2197 23.7799C15.3603 23.9205 15.5511 23.9995 15.75 23.9995H23.25C23.4489 23.9995 23.6397 23.9205 23.7803 23.7799C23.921 23.6392 24 23.4484 24 23.2495V22.4995C24.0029 21.7706 23.8265 21.0522 23.4865 20.4074C23.1464 19.7626 22.6531 19.2114 22.05 18.802ZM19.5 15.7495C19.7967 15.7495 20.0867 15.8375 20.3334 16.0023C20.58 16.1671 20.7723 16.4014 20.8858 16.6755C20.9994 16.9496 21.0291 17.2512 20.9712 17.5422C20.9133 17.8331 20.7704 18.1004 20.5607 18.3102C20.3509 18.52 20.0836 18.6628 19.7926 18.7207C19.5017 18.7786 19.2001 18.7489 18.926 18.6353C18.6519 18.5218 18.4176 18.3296 18.2528 18.0829C18.088 17.8362 18 17.5462 18 17.2495C18 16.8517 18.158 16.4702 18.4393 16.1889C18.7206 15.9076 19.1022 15.7495 19.5 15.7495ZM16.5 22.4995C16.5006 21.9604 16.6465 21.4313 16.9223 20.9681C17.1982 20.5048 17.5938 20.1245 18.0675 19.867C18.5031 20.1142 18.9954 20.2442 19.4963 20.2442C19.9971 20.2442 20.4894 20.1142 20.925 19.867C21.4044 20.1183 21.8052 20.4971 22.0831 20.9616C22.361 21.4261 22.5052 21.9583 22.5 22.4995H16.5Z" fill="#6762FE"/>
<path d="M14.7825 16.7175L12.75 14.6925V12C12.75 11.8011 12.671 11.6103 12.5303 11.4697C12.3896 11.329 12.1989 11.25 12 11.25C11.8011 11.25 11.6103 11.329 11.4696 11.4697C11.329 11.6103 11.25 11.8011 11.25 12V14.6925L9.21747 16.7175C9.1117 16.8224 9.03956 16.9564 9.01026 17.1025C8.98096 17.2485 8.99581 17.4 9.05294 17.5376C9.11006 17.6752 9.20687 17.7926 9.33101 17.875C9.45515 17.9573 9.601 18.0009 9.74997 18C10.1625 18 10.155 17.9025 12 16.0575C13.845 17.91 13.8375 18 14.25 18C14.3989 18.0009 14.5448 17.9573 14.6689 17.875C14.7931 17.7926 14.8899 17.6752 14.947 17.5376C15.0041 17.4 15.019 17.2485 14.9897 17.1025C14.9604 16.9564 14.8882 16.8224 14.7825 16.7175Z" fill="#6762FE"/>
</g>
<defs>
<clipPath id="clip0_1434_1048">
<rect width="24" height="24" fill="white"/>
</clipPath>
</defs>
</svg>
