<svg width="24" height="24" viewBox="0 0 24 24" fill="none" xmlns="http://www.w3.org/2000/svg">
<g clip-path="url(#clip0_1434_1142)">
<path d="M3.49988 3.99219C2.67146 3.99219 1.99988 4.66377 1.99988 5.49219V9.49219H2.99987V5.49219C2.99987 5.21605 3.22374 4.99218 3.49988 4.99218H15.4999V3.99219H3.49988ZM3.49988 18.9922C3.22374 18.9922 2.99987 18.7684 2.99987 18.4922V13.4922H1.99988V18.4922C1.99988 19.3207 2.67146 19.9922 3.49988 19.9922H8.49992V18.9922H3.49988Z" fill="#6762FE"/>
<path d="M15.8535 20.2816L3.71041 8.13858C3.51517 7.94339 3.19867 7.94339 3.00339 8.13858L0.146391 10.9956C-0.0487971 11.1909 -0.0487971 11.5074 0.146391 11.7026L12.2895 23.8457C12.3359 23.8921 12.391 23.9289 12.4516 23.9541C12.5123 23.9792 12.5773 23.9921 12.6429 23.9921C12.7086 23.9921 12.7736 23.9792 12.8343 23.9541C12.8949 23.9289 12.95 23.8921 12.9964 23.8457L15.8534 20.9887C16.0487 20.7934 16.0487 20.4769 15.8535 20.2816ZM12.6429 22.7852L1.2069 11.3491L3.35692 9.19908L14.793 20.6352L12.6429 22.7852Z" fill="#6762FE"/>
<path d="M22 18.9922H14.5V19.9922H20V22.4922C20 22.7683 20.2239 22.9922 20.5 22.9922H22C23.1046 22.9922 24 22.0968 24 20.9922C24 19.8876 23.1046 18.9922 22 18.9922ZM22 21.9922H21V19.9922H22C22.5523 19.9922 23 20.4399 23 20.9922C23 21.5445 22.5523 21.9922 22 21.9922Z" fill="#6762FE"/>
<path d="M22 3.99219H19.5V4.99218H22C22.5522 4.99218 23 5.43988 23 5.99216V20.9922H23.9999V5.99216C24 4.8876 23.1045 3.99219 22 3.99219ZM7.64645 15.6387L9.1466 14.1386L9.85367 14.8457L8.35357 16.3458L7.64645 15.6387ZM5.64652 13.6387L7.14662 12.1386L7.85374 12.8457L6.35359 14.3458L5.64652 13.6387ZM9.6454 17.6388L11.1455 16.1386L11.8526 16.8457L10.3525 18.3458L9.6454 17.6388ZM11.6463 19.6398L13.1464 18.1396L13.8535 18.8467L12.3534 20.3468L11.6463 19.6398ZM3.64514 11.6387L5.14524 10.1386L5.85235 10.8457L4.35221 12.3458L3.64514 11.6387Z" fill="#6762FE"/>
<path d="M21.5669 1.11643L20.8759 0.425441C20.2912 -0.132699 19.371 -0.132699 18.7864 0.425441L11.1834 8.02843C10.9882 8.22366 10.9882 8.54016 11.1834 8.73544L13.2569 10.809C13.3032 10.8555 13.3583 10.8925 13.419 10.9176C13.4796 10.9428 13.5447 10.9556 13.6104 10.9554C13.743 10.9554 13.8701 10.9027 13.9639 10.809L21.5669 3.20593L21.5676 3.20522C22.1442 2.62824 22.1439 1.69304 21.5669 1.11643ZM20.8604 2.49844L13.6104 9.74841L12.2439 8.38191L19.4939 1.13241C19.5848 1.04556 19.7057 0.997088 19.8314 0.997088C19.9571 0.997088 20.078 1.04556 20.1689 1.13241L20.8604 1.82293L20.8606 1.82316C21.047 2.00968 21.0469 2.31202 20.8604 2.49844Z" fill="#6762FE"/>
<path d="M13.4499 9.98163L11.2919 10.7021L12.0124 8.54065L11.0624 8.22415L10.0254 11.3346C10.0084 11.3856 9.99977 11.439 9.99976 11.4927C9.9998 11.7689 10.2237 11.9927 10.4999 11.9926C10.5528 11.9928 10.6054 11.9847 10.6559 11.9686L13.7663 10.9316L13.4499 9.98163ZM17.4037 2.51473L18.1108 1.80762L20.1843 3.88113L19.4772 4.58824L17.4037 2.51473Z" fill="#6762FE"/>
<path d="M10.5 10.9922H18V11.9922H10.5V10.9922ZM19 10.9922H20V11.9922H19V10.9922ZM21 10.9922H22V11.9922H21V10.9922Z" fill="#6762FE"/>
</g>
<defs>
<clipPath id="clip0_1434_1142">
<rect width="24" height="24" fill="white"/>
</clipPath>
</defs>
</svg>
