<svg width="24" height="24" viewBox="0 0 24 24" fill="none" xmlns="http://www.w3.org/2000/svg">
<path d="M18.4008 2.40039C16.633 2.40039 15.1999 3.83319 15.1999 5.60031C15.1999 7.08927 16.2219 8.33007 17.5999 8.68695V10.4003C17.5999 10.6124 17.5156 10.8159 17.3656 10.9659C17.2156 11.1159 17.0122 11.2002 16.8 11.2002H8.8001C7.8953 11.2002 7.07042 11.512 6.4001 12.0191V8.68791C7.77818 8.33007 8.8001 7.08951 8.8001 5.60055C8.8001 3.83319 7.3673 2.40039 5.59994 2.40039C3.83258 2.40039 2.40002 3.83319 2.40002 5.60031C2.40002 7.08927 3.42194 8.33007 4.80002 8.68623V15.3143C3.42194 15.6705 2.40002 16.911 2.40002 18.4002C2.40002 20.1676 3.83282 21.6004 5.59994 21.6004C7.36706 21.6004 8.79986 20.1676 8.79986 18.4005C8.79986 16.9113 7.77794 15.6707 6.39986 15.3145V15.2003C6.39986 13.8748 7.47482 12.8003 8.79986 12.8003H16.8C18.1251 12.8003 19.2 11.7261 19.2 10.4003V8.68743C20.5774 8.33031 21.6 7.08975 21.6 5.60031C21.6 3.83319 20.1672 2.40039 18.4008 2.40039ZM7.20002 18.4005C7.20002 19.2849 6.48362 20.0003 5.59994 20.0003C4.71626 20.0003 3.99986 19.2849 3.99986 18.4005C3.99986 17.9761 4.16844 17.5691 4.46852 17.269C4.76859 16.969 5.17558 16.8004 5.59994 16.8004C6.02431 16.8004 6.4313 16.969 6.73137 17.269C7.03144 17.5691 7.20002 17.9761 7.20002 18.4005ZM5.59994 7.20039C5.17558 7.20039 4.76859 7.03181 4.46852 6.73174C4.16844 6.43166 3.99986 6.02468 3.99986 5.60031C3.99986 5.17594 4.16844 4.76896 4.46852 4.46888C4.76859 4.16881 5.17558 4.00023 5.59994 4.00023C6.02431 4.00023 6.4313 4.16881 6.73137 4.46888C7.03144 4.76896 7.20002 5.17594 7.20002 5.60031C7.20002 6.02468 7.03144 6.43166 6.73137 6.73174C6.4313 7.03181 6.02431 7.20039 5.59994 7.20039Z" fill="#6762FE"/>
</svg>
