<svg width="24" height="24" viewBox="0 0 24 24" fill="none" xmlns="http://www.w3.org/2000/svg">
<path d="M21 3.67316H12.75V2.22266C12.75 2.02374 12.671 1.83298 12.5303 1.69233C12.3897 1.55167 12.1989 1.47266 12 1.47266C11.8011 1.47266 11.6103 1.55167 11.4697 1.69233C11.329 1.83298 11.25 2.02374 11.25 2.22266V3.67316H3C1.7595 3.67316 0.75 4.68191 0.75 5.92316V14.1627C0.75 15.4032 1.7595 16.4127 3 16.4127H5.259L3.77925 21.5697C3.72984 21.7591 3.75647 21.9604 3.85345 22.1304C3.95043 22.3005 4.11008 22.4259 4.29829 22.4799C4.48649 22.5338 4.68834 22.5121 4.8607 22.4192C5.03307 22.3263 5.16228 22.1698 5.22075 21.9829L6.81975 16.4127H17.1803L18.7792 21.9829C18.8416 22.165 18.9716 22.3162 19.1423 22.4053C19.313 22.4943 19.5113 22.5144 19.6964 22.4613C19.8815 22.4083 20.0391 22.2862 20.1367 22.1202C20.2342 21.9543 20.2643 21.7572 20.2208 21.5697L18.741 16.4127H21C22.2405 16.4127 23.25 15.4032 23.25 14.1627V5.92316C23.25 4.68191 22.2405 3.67316 21 3.67316ZM21.75 14.1627C21.75 14.5752 21.4132 14.9127 21 14.9127H3C2.58675 14.9127 2.25 14.5752 2.25 14.1627V5.92316C2.25 5.50916 2.58675 5.17316 3 5.17316H21C21.4132 5.17316 21.75 5.50916 21.75 5.92316V14.1627Z" fill="#6762FE"/>
<path d="M15.837 6.07812C13.6515 6.07812 11.8732 7.85638 11.8732 10.0426C11.8732 12.2289 13.6507 14.0064 15.837 14.0064C18.0232 14.0064 19.8015 12.2289 19.8015 10.0426C19.8015 7.85638 18.0232 6.07812 15.837 6.07812ZM18.1725 9.29263H16.587V7.70713C16.9581 7.8267 17.2954 8.03285 17.5711 8.30853C17.8468 8.58422 18.0529 8.92154 18.1725 9.29263ZM15.837 12.5071C15.1837 12.5061 14.5575 12.2461 14.0957 11.7841C13.6338 11.3222 13.374 10.6959 13.3732 10.0426C13.3732 8.94763 14.0962 8.02738 15.087 7.70713V10.0426C15.087 10.2415 15.166 10.4323 15.3067 10.573C15.4473 10.7136 15.6381 10.7926 15.837 10.7926H18.1725C17.853 11.7826 16.9327 12.5071 15.837 12.5071ZM9.23474 6.77563H4.94849C4.74957 6.77563 4.55881 6.85464 4.41816 6.9953C4.2775 7.13595 4.19849 7.32671 4.19849 7.52563C4.19849 7.72454 4.2775 7.9153 4.41816 8.05596C4.55881 8.19661 4.74957 8.27563 4.94849 8.27563H9.23474C9.43365 8.27563 9.62441 8.19661 9.76507 8.05596C9.90572 7.9153 9.98474 7.72454 9.98474 7.52563C9.98474 7.32671 9.90572 7.13595 9.76507 6.9953C9.62441 6.85464 9.43365 6.77563 9.23474 6.77563ZM9.23474 9.29188H4.94849C4.74957 9.29188 4.55881 9.37089 4.41816 9.51154C4.2775 9.6522 4.19849 9.84296 4.19849 10.0419C4.19849 10.2408 4.2775 10.4316 4.41816 10.5722C4.55881 10.7129 4.74957 10.7919 4.94849 10.7919H9.23474C9.43365 10.7919 9.62441 10.7129 9.76507 10.5722C9.90572 10.4316 9.98474 10.2408 9.98474 10.0419C9.98474 9.84296 9.90572 9.6522 9.76507 9.51154C9.62441 9.37089 9.43365 9.29188 9.23474 9.29188ZM9.23474 11.8089H4.94849C4.74957 11.8089 4.55881 11.8879 4.41816 12.0285C4.2775 12.1692 4.19849 12.36 4.19849 12.5589C4.19849 12.7578 4.2775 12.9486 4.41816 13.0892C4.55881 13.2299 4.74957 13.3089 4.94849 13.3089H9.23474C9.43365 13.3089 9.62441 13.2299 9.76507 13.0892C9.90572 12.9486 9.98474 12.7578 9.98474 12.5589C9.98474 12.36 9.90572 12.1692 9.76507 12.0285C9.62441 11.8879 9.43365 11.8089 9.23474 11.8089Z" fill="#6762FE"/>
</svg>
