<svg width="24" height="24" viewBox="0 0 24 24" fill="none" xmlns="http://www.w3.org/2000/svg">
<path d="M10.1666 1H1.91658C1.41277 1 1 1.4125 1 1.91658V12C1 12.5041 1.41277 12.9166 1.91658 12.9166H10.1666C10.6707 12.9166 11.0834 12.5041 11.0834 12V1.91658C11.0834 1.4125 10.6707 1 10.1666 1ZM9.25 11.0834H2.83342V2.83342H9.25V11.0834ZM22.0834 11.0834H13.8334C13.3293 11.0834 12.9166 11.4959 12.9166 12V22.0834C12.9166 22.5872 13.3293 23 13.8334 23H22.0834C22.5872 23 23 22.5872 23 22.0834V12C23 11.4959 22.5872 11.0834 22.0834 11.0834ZM21.1666 21.1666H14.75V12.9166H21.1666V21.1666ZM10.1666 14.75H1.91658C1.41277 14.75 1 15.1628 1 15.6666V22.0834C1 22.5872 1.41277 23 1.91658 23H10.1666C10.6707 23 11.0834 22.5872 11.0834 22.0834V15.6666C11.0834 15.1628 10.6707 14.75 10.1666 14.75ZM9.25 21.1666H2.83342V16.5834H9.25V21.1666ZM22.0834 1H13.8334C13.3293 1 12.9166 1.4125 12.9166 1.91658V8.33315C12.9166 8.83696 13.3293 9.24973 13.8334 9.24973H22.0834C22.5872 9.25 23 8.83723 23 8.33342V1.91658C23 1.4125 22.5872 1 22.0834 1ZM21.1666 7.41658H14.75V2.83342H21.1666V7.41658Z" fill="#6762FE"/>
</svg>
