<svg width="24" height="24" viewBox="0 0 24 24" fill="none" xmlns="http://www.w3.org/2000/svg">
<g clip-path="url(#clip0_1434_1153)">
<g clip-path="url(#clip1_1434_1153)">
<path d="M2.66113 4.23156C2.86005 4.23156 3.05081 4.15254 3.19146 4.01189C3.33212 3.87124 3.41113 3.68047 3.41113 3.48156V1.91406H20.588V16.3422C20.588 16.5411 20.667 16.7319 20.8077 16.8725C20.9483 17.0132 21.1391 17.0922 21.338 17.0922C21.5369 17.0922 21.7277 17.0132 21.8683 16.8725C22.009 16.7319 22.088 16.5411 22.088 16.3422V1.16406C22.088 0.96515 22.009 0.774385 21.8683 0.633732C21.7277 0.49308 21.5369 0.414063 21.338 0.414062H2.66113C2.46222 0.414063 2.27145 0.49308 2.1308 0.633732C1.99015 0.774385 1.91113 0.96515 1.91113 1.16406V3.48156C1.91113 3.68047 1.99015 3.87124 2.1308 4.01189C2.27145 4.15254 2.46222 4.23156 2.66113 4.23156ZM21.3382 20.4541C21.1393 20.4541 20.9485 20.5331 20.8079 20.6737C20.6672 20.8144 20.5882 21.0051 20.5882 21.2041V22.0853H3.41132V8.44094C3.41132 8.24202 3.3323 8.05126 3.19165 7.91061C3.051 7.76996 2.86023 7.69094 2.66132 7.69094C2.46241 7.69094 2.27164 7.76996 2.13099 7.91061C1.99034 8.05126 1.91132 8.24202 1.91132 8.44094V22.8353C1.91132 23.0342 1.99034 23.225 2.13099 23.3656C2.27164 23.5063 2.46241 23.5853 2.66132 23.5853H21.3382C21.5371 23.5853 21.7279 23.5063 21.8685 23.3656C22.0092 23.225 22.0882 23.0342 22.0882 22.8353V21.2041C22.0882 21.0051 22.0092 20.8144 21.8685 20.6737C21.7279 20.5331 21.5371 20.4541 21.3382 20.4541Z" fill="#6762FE"/>
<path d="M11.5933 5.93803C11.5933 5.73911 11.5143 5.54835 11.3736 5.40769C11.233 5.26704 11.0422 5.18803 10.8433 5.18803H1.26392C1.065 5.18803 0.874238 5.26704 0.733586 5.40769C0.592934 5.54835 0.513916 5.73911 0.513916 5.93803C0.513916 6.13694 0.592934 6.3277 0.733586 6.46836C0.874238 6.60901 1.065 6.68802 1.26392 6.68802H10.8433C11.0422 6.68802 11.233 6.60901 11.3736 6.46836C11.5143 6.3277 11.5933 6.13694 11.5933 5.93803ZM12.6682 10.2505C12.6682 10.0516 12.5892 9.86085 12.4486 9.7202C12.3079 9.57954 12.1171 9.50052 11.9182 9.50052H5.20123C5.00232 9.50052 4.81155 9.57954 4.6709 9.7202C4.53025 9.86085 4.45123 10.0516 4.45123 10.2505C4.45123 10.4494 4.53025 10.6402 4.6709 10.7809C4.81155 10.9215 5.00232 11.0005 5.20123 11.0005H11.9182C12.1171 11.0005 12.3079 10.9215 12.4486 10.7809C12.5892 10.6402 12.6682 10.4494 12.6682 10.2505ZM6.51373 15.313H13.0432C13.2421 15.313 13.4329 15.234 13.5736 15.0934C13.7142 14.9527 13.7932 14.7619 13.7932 14.563C13.7932 14.3641 13.7142 14.1733 13.5736 14.0327C13.4329 13.892 13.2421 13.813 13.0432 13.813H6.51373C6.31482 13.813 6.12405 13.892 5.9834 14.0327C5.84275 14.1733 5.76373 14.3641 5.76373 14.563C5.76373 14.7619 5.84275 14.9527 5.9834 15.0934C6.12405 15.234 6.31482 15.313 6.51373 15.313ZM22.7362 18.1255H8.76373C8.56482 18.1255 8.37405 18.2045 8.2334 18.3452C8.09275 18.4858 8.01373 18.6766 8.01373 18.8755C8.01373 19.0744 8.09275 19.2652 8.2334 19.4059C8.37405 19.5465 8.56482 19.6255 8.76373 19.6255H22.7362C22.9351 19.6255 23.1259 19.5465 23.2666 19.4059C23.4072 19.2652 23.4862 19.0744 23.4862 18.8755C23.4862 18.6766 23.4072 18.4858 23.2666 18.3452C23.1259 18.2045 22.9351 18.1255 22.7362 18.1255ZM14.6424 7.90303C14.6574 7.90396 14.6724 7.90452 14.6876 7.90452C14.8715 7.90451 15.049 7.83691 15.1864 7.71459L17.4675 5.68434C17.5422 5.61918 17.6032 5.53987 17.6471 5.45098C17.6909 5.3621 17.7167 5.2654 17.723 5.16648C17.7292 5.06756 17.7158 4.96838 17.6835 4.87467C17.6512 4.78097 17.6006 4.6946 17.5348 4.62055C17.4689 4.54651 17.3889 4.48626 17.2996 4.44329C17.2103 4.40032 17.1134 4.37548 17.0144 4.3702C16.9154 4.36493 16.8164 4.37933 16.723 4.41256C16.6296 4.4458 16.5437 4.49721 16.4704 4.56384L14.7517 6.09327L14.0289 5.2739C13.8973 5.12472 13.7119 5.03391 13.5134 5.02146C13.3148 5.00902 13.1195 5.07594 12.9703 5.20753C12.8211 5.33911 12.7303 5.52456 12.7179 5.72309C12.7054 5.92162 12.7723 6.11697 12.9039 6.26615L14.1251 7.65065C14.1905 7.72471 14.2698 7.78513 14.3586 7.82844C14.4474 7.87175 14.5438 7.8971 14.6424 7.90303ZM15.4376 11.9631C15.503 12.0372 15.5823 12.0976 15.6711 12.1409C15.7599 12.1842 15.8563 12.2096 15.9549 12.2155C15.9699 12.2165 15.9849 12.217 16.0001 12.217C16.184 12.217 16.3615 12.1494 16.4989 12.0271L18.78 9.99684C18.8547 9.93168 18.9157 9.85237 18.9596 9.76348C19.0034 9.6746 19.0292 9.5779 19.0355 9.47898C19.0417 9.38006 19.0283 9.28088 18.996 9.18717C18.9637 9.09347 18.9131 9.0071 18.8473 8.93305C18.7814 8.85901 18.7014 8.79876 18.6121 8.75579C18.5228 8.71282 18.4259 8.68798 18.3269 8.6827C18.2279 8.67743 18.1289 8.69183 18.0355 8.72506C17.9421 8.7583 17.8562 8.80971 17.7829 8.87634L16.0642 10.4058L15.3414 9.5864C15.2763 9.51253 15.1972 9.45222 15.1087 9.40891C15.0203 9.36559 14.9242 9.34013 14.8259 9.33396C14.7275 9.3278 14.629 9.34106 14.5358 9.37298C14.4426 9.40491 14.3567 9.45487 14.2828 9.52003C14.2089 9.58518 14.1486 9.66424 14.1053 9.7527C14.062 9.84116 14.0365 9.93729 14.0304 10.0356C14.0242 10.1339 14.0375 10.2324 14.0694 10.3256C14.1013 10.4188 14.1513 10.5048 14.2164 10.5786L15.4376 11.9631ZM16.3751 16.4632C16.4405 16.5372 16.5198 16.5976 16.6086 16.6409C16.6974 16.6842 16.7938 16.7096 16.8924 16.7155C16.9074 16.7165 16.9224 16.717 16.9376 16.717C17.1215 16.717 17.299 16.6494 17.4364 16.5271L19.7175 14.4968C19.7922 14.4317 19.8532 14.3524 19.8971 14.2635C19.9409 14.1746 19.9667 14.0779 19.973 13.979C19.9792 13.8801 19.9658 13.7809 19.9335 13.6872C19.9012 13.5935 19.8506 13.5071 19.7848 13.4331C19.7189 13.359 19.6389 13.2988 19.5496 13.2558C19.4603 13.2128 19.3634 13.188 19.2644 13.1827C19.1654 13.1774 19.0664 13.1918 18.973 13.2251C18.8796 13.2583 18.7937 13.3097 18.7204 13.3763L17.0017 14.9058L16.2789 14.0864C16.1473 13.9372 15.9619 13.8464 15.7634 13.834C15.5648 13.8215 15.3695 13.8884 15.2203 14.02C15.0711 14.1516 14.9803 14.3371 14.9679 14.5356C14.9554 14.7341 15.0223 14.9295 15.1539 15.0786L16.3751 16.4632Z" fill="#6762FE"/>
</g>
</g>
<defs>
<clipPath id="clip0_1434_1153">
<rect width="24" height="24" fill="white"/>
</clipPath>
<clipPath id="clip1_1434_1153">
<rect width="24" height="24" fill="white"/>
</clipPath>
</defs>
</svg>
