<svg width="24" height="24" viewBox="0 0 24 24" fill="none" xmlns="http://www.w3.org/2000/svg">
<path d="M9.31873 8.19742L7.06873 15.2174C7.05538 15.2564 7.05147 15.2981 7.05734 15.3389C7.0632 15.3797 7.07866 15.4185 7.10245 15.4522C7.12625 15.4859 7.15769 15.5134 7.1942 15.5326C7.23071 15.5517 7.27125 15.562 7.31248 15.5624H7.94248C7.99871 15.5623 8.05338 15.5439 8.09832 15.5101C8.14327 15.4763 8.17608 15.4289 8.19185 15.3749L8.54435 14.2499H11.625L11.5819 14.1805L11.9681 15.3749C11.9839 15.4289 12.0167 15.4763 12.0616 15.5101C12.1066 15.5439 12.1612 15.5623 12.2175 15.5624H12.8475C12.8887 15.5627 12.9295 15.5531 12.9663 15.5345C13.0032 15.516 13.0351 15.4889 13.0594 15.4556C13.0838 15.4223 13.0999 15.3836 13.1064 15.3429C13.1129 15.3021 13.1096 15.2604 13.0969 15.2212L10.8469 8.20117C10.8308 8.14735 10.7979 8.1001 10.753 8.06635C10.7082 8.0326 10.6536 8.01414 10.5975 8.01367H9.56248C9.50769 8.01479 9.45465 8.03314 9.41089 8.06613C9.36713 8.09911 9.33488 8.14506 9.31873 8.19742ZM8.91935 13.1249L10.08 9.5118L11.25 13.1249H8.91935Z" fill="#6762FE"/>
<path d="M15.675 8.01562H15.075C14.93 8.01562 14.8125 8.13315 14.8125 8.27813V15.2981C14.8125 15.4431 14.93 15.5606 15.075 15.5606H15.675C15.82 15.5606 15.9375 15.4431 15.9375 15.2981V8.27813C15.9375 8.13315 15.82 8.01562 15.675 8.01562Z" fill="#6762FE"/>
<path d="M12.6112 18.375H7.155C6.74922 18.375 6.36006 18.2138 6.07313 17.9269C5.7862 17.6399 5.625 17.2508 5.625 16.845V7.155C5.625 6.74922 5.7862 6.36006 6.07313 6.07313C6.36006 5.7862 6.74922 5.625 7.155 5.625H16.845C17.2508 5.625 17.6399 5.7862 17.9269 6.07313C18.2138 6.36006 18.375 6.74922 18.375 7.155V12C18.3784 12.1023 18.4221 12.1991 18.4966 12.2693C18.571 12.3396 18.6702 12.3775 18.7725 12.375C19.0918 12.374 19.4069 12.4472 19.6931 12.5888C19.7525 12.6192 19.8188 12.6338 19.8855 12.631C19.9522 12.6282 20.0171 12.6082 20.0738 12.5729C20.1304 12.5376 20.177 12.4882 20.2088 12.4295C20.2407 12.3708 20.2568 12.3049 20.2556 12.2381V7.155C20.2556 6.70738 20.1674 6.26415 19.9959 5.85067C19.8244 5.43719 19.5731 5.06157 19.2563 4.74532C18.9396 4.42906 18.5635 4.17836 18.1498 4.00758C17.736 3.83679 17.2926 3.74927 16.845 3.75H7.155C6.25194 3.75 5.38586 4.10874 4.7473 4.74731C4.10874 5.38587 3.75 6.25194 3.75 7.155V16.845C3.75 17.7481 4.10874 18.6141 4.7473 19.2527C5.38586 19.8913 6.25194 20.25 7.155 20.25H13.3988C13.4755 20.2501 13.5505 20.2275 13.6144 20.1849C13.6782 20.1424 13.728 20.0819 13.7575 20.0111C13.787 19.9403 13.7949 19.8623 13.7801 19.787C13.7653 19.7117 13.7285 19.6425 13.6744 19.5881C13.3826 19.3205 13.1463 18.9981 12.9788 18.6394C12.9519 18.563 12.9023 18.4967 12.8366 18.4494C12.7708 18.4022 12.6922 18.3762 12.6112 18.375Z" fill="#6762FE"/>
<path d="M20.9495 19.0871L22.6482 18.4178C22.6832 18.404 22.7132 18.3799 22.7343 18.3488C22.7555 18.3177 22.7668 18.281 22.7668 18.2434C22.7668 18.2058 22.7555 18.1691 22.7343 18.138C22.7132 18.1069 22.6832 18.0828 22.6482 18.069L20.9495 17.3996C20.6487 17.2807 20.3756 17.1014 20.147 16.8728C19.9183 16.6441 19.739 16.371 19.6201 16.0703L18.9507 14.3828C18.9368 14.3479 18.9128 14.318 18.8817 14.2969C18.8506 14.2759 18.8139 14.2646 18.7763 14.2646C18.7388 14.2646 18.7021 14.2759 18.671 14.2969C18.6399 14.318 18.6158 14.3479 18.602 14.3828L17.9326 16.0703C17.814 16.3712 17.6348 16.6444 17.4061 16.8731C17.1774 17.1018 16.9041 17.281 16.6032 17.3996L14.9157 18.069C14.8807 18.0828 14.8507 18.1069 14.8296 18.138C14.8084 18.1691 14.7971 18.2058 14.7971 18.2434C14.7971 18.281 14.8084 18.3177 14.8296 18.3488C14.8507 18.3799 14.8807 18.404 14.9157 18.4178L16.6032 19.0871C16.9041 19.2058 17.1774 19.385 17.4061 19.6137C17.6348 19.8424 17.814 20.1156 17.9326 20.4165L18.602 22.104C18.6155 22.1393 18.6395 22.1696 18.6706 22.191C18.7017 22.2124 18.7386 22.2239 18.7763 22.224C18.8141 22.2239 18.851 22.2124 18.8821 22.191C18.9132 22.1696 18.9371 22.1393 18.9507 22.104L19.6201 20.4165C19.739 20.1158 19.9183 19.8427 20.147 19.614C20.3756 19.3854 20.6487 19.206 20.9495 19.0871Z" fill="#6762FE"/>
</svg>
