<svg width="24" height="24" viewBox="0 0 24 24" fill="none" xmlns="http://www.w3.org/2000/svg">
<g clip-path="url(#clip0_1434_1106)">
<path d="M21.8539 11.5754C21.2023 11.5754 20.6257 11.9017 20.2779 12.3992L18.8607 12.1536C18.8625 12.1003 18.8648 12.0472 18.8648 11.9935C18.8651 11.3835 18.7464 10.7793 18.5154 10.2148L20.9156 8.76664C21.2493 9.02149 21.6577 9.15936 22.0776 9.15896C23.1376 9.15896 23.9999 8.2966 23.9999 7.23661C23.9999 6.17668 23.1376 5.3144 22.0776 5.3144C21.0177 5.3144 20.1554 6.17668 20.1554 7.23661C20.1554 7.34923 20.1656 7.4594 20.1843 7.56676L17.796 9.00769C17.0714 8.12426 16.0327 7.50802 14.8522 7.33083V4.38199C15.7331 4.08733 16.3701 3.25504 16.3701 2.27627C16.3701 1.05186 15.374 0.0556641 14.1496 0.0556641C12.9254 0.0556641 11.9293 1.05179 11.9293 2.27627C11.9293 3.25504 12.5661 4.08726 13.4471 4.38199V7.33083C11.8384 7.57224 10.4941 8.62963 9.8479 10.0665L5.44991 8.71563C5.46352 8.6057 5.47047 8.49505 5.4707 8.38429C5.4707 6.87597 4.2437 5.64883 2.73546 5.64883C1.22707 5.64883 0 6.87597 0 8.38429C0 9.89253 1.22707 11.1196 2.73553 11.1196C3.62922 11.1196 4.42399 10.6887 4.92346 10.0239L9.47061 11.4206C9.44705 11.6106 9.43501 11.8019 9.43457 11.9934C9.43457 13.2581 9.93608 14.4072 10.7494 15.2548L8.76844 17.3631C8.47094 17.2301 8.1487 17.1615 7.82283 17.1617C6.53857 17.1617 5.49389 18.2064 5.49389 19.4906C5.49389 20.7746 6.53857 21.8193 7.82283 21.8193C9.10688 21.8193 10.1516 20.7746 10.1516 19.4906C10.1521 19.0695 10.0376 18.6562 9.82064 18.2954L11.8671 16.1172C12.5652 16.5056 13.3509 16.7091 14.1497 16.7083C14.9134 16.709 15.6657 16.5229 16.3411 16.1663L18.3831 19.2712C17.8856 19.7669 17.5771 20.4522 17.5771 21.2081C17.5771 22.7165 18.8043 23.9436 20.3126 23.9436C21.8209 23.9436 23.0481 22.7165 23.0481 21.2081C23.0481 19.6999 21.8209 18.4728 20.3126 18.4728C20.0668 18.4728 19.8287 18.5059 19.6019 18.567L17.4748 15.3328C17.983 14.8271 18.3693 14.2123 18.6046 13.5351L19.9513 13.7684C20.0833 14.7006 20.8861 15.4199 21.8541 15.4199C22.9141 15.4199 23.7764 14.5575 23.7764 13.4975C23.7763 12.4377 22.9139 11.5754 21.8539 11.5754ZM10.8397 11.9934C10.8397 10.1683 12.3245 8.68345 14.1496 8.68345C15.9748 8.68345 17.4595 10.1683 17.4595 11.9934C17.4595 13.8185 15.9747 15.3032 14.1496 15.3032C12.3245 15.3032 10.8397 13.8185 10.8397 11.9934Z" fill="#6762FE"/>
</g>
<defs>
<clipPath id="clip0_1434_1106">
<rect width="24" height="24" fill="white"/>
</clipPath>
</defs>
</svg>
