<svg width="48" height="48" viewBox="0 0 48 48" fill="none" xmlns="http://www.w3.org/2000/svg">
<path fill-rule="evenodd" clip-rule="evenodd" d="M12.5319 19.7445C16.6447 19.7445 19.9906 16.3986 19.9906 12.2848C19.9906 8.17203 16.6447 4.82609 12.5319 4.82609C8.41812 4.82609 5.07219 8.17203 5.07219 12.2848C5.07219 16.3977 8.41812 19.7445 12.5319 19.7445ZM27.4972 23.862L21.3856 29.8114C21.7153 30.0042 21.9865 30.2829 22.1703 30.6177L27.9997 24.943L34.5491 28.1117C34.7591 28.2139 35.0103 28.1745 35.1809 28.0142L42.8544 20.7598L42.8028 22.4145C42.7984 22.5637 42.8535 22.7085 42.9558 22.8171C43.0581 22.9257 43.1993 22.9893 43.3484 22.9939H43.3662C43.6681 22.9939 43.9184 22.7539 43.9278 22.4483L44.0206 19.4314C44.0229 19.3575 44.0105 19.2839 43.9843 19.2148C43.9581 19.1457 43.9186 19.0825 43.8679 19.0286C43.8172 18.9748 43.7564 18.9315 43.689 18.9012C43.6216 18.8709 43.5489 18.8542 43.475 18.852L40.4581 18.7592C40.1478 18.7508 39.8881 18.9936 39.8787 19.3039C39.8694 19.6142 40.1131 19.8739 40.4234 19.8833L42.0884 19.9339L34.6897 26.9305L28.1347 23.7589C28.0307 23.7085 27.9137 23.6914 27.7997 23.7099C27.6856 23.7283 27.58 23.7814 27.4972 23.862ZM39.6256 28.8917H43.0447V45.2061H39.6256V28.8917ZM32.6628 33.882V45.207H36.0819V33.882H32.6628ZM25.7 31.2917V45.2061H29.1191V31.2917H25.7ZM22.1562 36.9664H18.7372V45.207H22.1562V36.9664ZM20.3066 30.6561C19.775 30.6711 19.355 31.1164 19.3709 31.647C19.3859 32.1786 19.8312 32.5995 20.3619 32.5827C20.8934 32.5667 21.3134 32.1223 21.2975 31.5908C21.2825 31.0602 20.8363 30.6402 20.3066 30.6561ZM13.5247 28.3733H11.5381C10.8041 28.3733 10.2059 28.9705 10.2059 29.7045V39.342C10.2059 40.0761 10.8041 40.6733 11.5381 40.6733H13.5247C14.2597 40.6733 14.8569 40.0761 14.8569 39.342V29.7045C14.8569 28.9705 14.2597 28.3733 13.5247 28.3733ZM13.5359 23.3802C13.205 23.4092 12.8703 23.4261 12.5319 23.4261C12.1934 23.4261 11.8588 23.4102 11.5278 23.3802V27.2483H13.5359V23.3802ZM12.5319 3.70109C17.2644 3.70109 21.1156 7.55234 21.1156 12.2848C21.1156 17.0183 17.2644 20.8686 12.5319 20.8686C7.79844 20.8686 3.94719 17.0173 3.94719 12.2848C3.94719 7.55234 7.79844 3.70109 12.5319 3.70109ZM12.5319 22.3011C7.00906 22.3011 2.51562 17.8077 2.51562 12.2848C2.51562 6.76203 7.00906 2.26953 12.5319 2.26953C18.0547 2.26953 22.5472 6.76203 22.5472 12.2848C22.5472 17.8077 18.0547 22.3011 12.5319 22.3011Z" fill="#75BB0B"/>
</svg>
