<svg width="49" height="48" viewBox="0 0 49 48" fill="none" xmlns="http://www.w3.org/2000/svg">
<path fill-rule="evenodd" clip-rule="evenodd" d="M7.428 6.928C4.5 9.86 4.5 14.572 4.5 24C4.5 33.428 4.5 38.142 7.428 41.072C10.36 44 15.072 44 24.5 44C33.928 44 38.642 44 41.572 41.072C44.5 38.14 44.5 33.426 44.5 24C44.5 14.572 44.5 9.858 41.572 6.928C38.64 4 33.926 4 24.5 4C15.072 4 10.358 4 7.428 6.928ZM27 14C27 14.828 27.672 15.5 28.5 15.5H30.88L26.44 19.94C26.2926 20.0773 26.1744 20.2429 26.0924 20.4269C26.0105 20.6109 25.9664 20.8096 25.9628 21.011C25.9593 21.2124 25.9963 21.4124 26.0718 21.5992C26.1472 21.786 26.2595 21.9556 26.4019 22.0981C26.5444 22.2405 26.714 22.3528 26.9008 22.4282C27.0876 22.5037 27.2876 22.5407 27.489 22.5372C27.6905 22.5336 27.8891 22.4895 28.0731 22.4076C28.2571 22.3256 28.4227 22.2074 28.56 22.06L33 17.62V20C33 20.3978 33.158 20.7794 33.4393 21.0607C33.7206 21.342 34.1022 21.5 34.5 21.5C34.8978 21.5 35.2794 21.342 35.5607 21.0607C35.842 20.7794 36 20.3978 36 20V14C36 13.6022 35.842 13.2206 35.5607 12.9393C35.2794 12.658 34.8978 12.5 34.5 12.5H28.5C28.1022 12.5 27.7206 12.658 27.4393 12.9393C27.158 13.2206 27 13.6022 27 14ZM22.56 28.06C22.7074 27.9227 22.8256 27.7571 22.9076 27.5731C22.9895 27.3891 23.0336 27.1905 23.0372 26.989C23.0407 26.7876 23.0037 26.5876 22.9282 26.4008C22.8528 26.214 22.7405 26.0444 22.5981 25.9019C22.4556 25.7595 22.286 25.6472 22.0992 25.5718C21.9124 25.4963 21.7124 25.4593 21.511 25.4628C21.3096 25.4664 21.1109 25.5105 20.9269 25.5924C20.7429 25.6744 20.5773 25.7926 20.44 25.94L16 30.38V28C16 27.6022 15.842 27.2206 15.5607 26.9393C15.2794 26.658 14.8978 26.5 14.5 26.5C14.1022 26.5 13.7206 26.658 13.4393 26.9393C13.158 27.2206 13 27.6022 13 28V34C13 34.828 13.672 35.5 14.5 35.5H20.5C20.8978 35.5 21.2794 35.342 21.5607 35.0607C21.842 34.7794 22 34.3978 22 34C22 33.6022 21.842 33.2206 21.5607 32.9393C21.2794 32.658 20.8978 32.5 20.5 32.5H18.12L22.56 28.06Z" fill="#EF1C79"/>
</svg>
