<svg width="49" height="48" viewBox="0 0 49 48" fill="none" xmlns="http://www.w3.org/2000/svg">
<path d="M40.7302 7.76964C35.704 2.7434 27.5261 2.74348 22.4998 7.76972C19.0666 11.2029 17.8741 16.2624 19.3607 20.8526L4.84336 35.37C4.73448 35.4788 4.64812 35.608 4.5892 35.7501C4.53028 35.8923 4.49997 36.0447 4.5 36.1986V42.8281C4.5 43.4759 5.02414 44 5.67187 44H12.3014C12.6126 44 12.9102 43.8764 13.1299 43.6566L14.787 41.9984C14.9119 41.8734 15.007 41.7218 15.065 41.555C15.1231 41.3881 15.1427 41.2103 15.1223 41.0348L14.9163 39.2541L17.3837 39.0217C17.6553 38.9964 17.9095 38.877 18.1024 38.6841C18.2953 38.4912 18.4147 38.237 18.44 37.9654L18.6723 35.4981L20.453 35.7052C20.7837 35.7498 21.1168 35.6388 21.3674 35.4168C21.4907 35.3067 21.5894 35.1718 21.6571 35.021C21.7247 34.8701 21.7598 34.7067 21.7599 34.5413V32.3594H23.9022C24.2135 32.3594 24.5111 32.2358 24.7308 32.016L27.736 29.0506C32.3251 30.5383 37.297 29.4356 40.7302 26.0001C45.7564 20.9739 45.7564 12.7959 40.7302 7.76964ZM37.415 16.0564C36.044 17.4274 33.8147 17.4274 32.4436 16.0564C31.0726 14.6853 31.0726 12.456 32.4436 11.085C33.8147 9.71402 36.044 9.71402 37.415 11.085C38.786 12.456 38.7859 14.6853 37.415 16.0564Z" fill="#8035E8"/>
</svg>
