<svg width="49" height="48" viewBox="0 0 49 48" fill="none" xmlns="http://www.w3.org/2000/svg">
<path d="M23.7499 18.75V20.25H21.4939L22.5859 23.25H23.7499V24.75H23.1319L24.2396 27.7935L27.0011 19.0185L28.2499 17.109V2.25H20.7499V5.25H23.7499V6.75H20.7499V9.75H23.7499V11.25H20.7499V14.25H23.7499V15.75H20.7499V18.2055L20.9479 18.75H23.7499ZM19.5214 32.3752C20.4244 32.9129 21.4083 33.3011 22.4351 33.525L23.4994 30.1455L16.6999 11.469L12.4714 13.008L19.5214 32.3752ZM16.1884 10.059L11.7656 4.48575L11.9599 11.598L16.1884 10.059ZM24.4999 33.75C25.8877 33.7491 27.2592 33.451 28.5221 32.8755L33.9379 21.9L34.7411 17.5942C34.5911 17.6093 34.4351 17.6348 34.2806 17.6348C33.6107 17.6373 32.9484 17.4929 32.3404 17.2117C31.7324 16.9305 31.1935 16.5194 30.7616 16.0072L28.3699 19.6665L23.9449 33.723C24.1301 33.7335 24.3139 33.75 24.4999 33.75ZM33.1099 15.912C35.0314 16.6838 37.3549 15.4027 38.2991 13.0507C39.2434 10.6987 37.5799 4.77525 37.5799 4.77525C37.5799 4.77525 32.2826 7.90575 31.3384 10.257C30.3941 12.6082 31.1876 15.1402 33.1099 15.912Z" fill="#75BB0B"/>
<path d="M45.92 27.75C46.36 25.2694 46.36 22.7306 45.92 20.25H35.105C35.5337 21.4537 35.7519 22.7222 35.75 24C35.75 26.9837 34.5647 29.8452 32.455 31.955C30.3452 34.0647 27.4837 35.25 24.5 35.25C21.5163 35.25 18.6548 34.0647 16.545 31.955C14.4353 29.8452 13.25 26.9837 13.25 24C13.2481 22.7222 13.4663 21.4537 13.895 20.25H3.08C2.64 22.7306 2.64 25.2694 3.08 27.75H7.6625C8.09724 29.7034 8.86876 31.5662 9.9425 33.255L6.7025 36.495C8.14097 38.5635 9.93653 40.359 12.005 41.7975L15.245 38.5575C16.9338 39.6312 18.7966 40.4028 20.75 40.8375V45.42C23.2306 45.86 25.7694 45.86 28.25 45.42V40.8375C30.2034 40.4028 32.0662 39.6312 33.755 38.5575L36.995 41.7975C39.0635 40.359 40.859 38.5635 42.2975 36.495L39.0575 33.255C40.1312 31.5662 40.9028 29.7034 41.3375 27.75H45.92Z" fill="#75BB0B"/>
</svg>
