<svg width="49" height="48" viewBox="0 0 49 48" fill="none" xmlns="http://www.w3.org/2000/svg">
<g clip-path="url(#clip0_170_1914)">
<path d="M22.5 30C20.9494 30.0003 19.4589 29.4002 18.3411 28.3257C17.2232 27.2511 16.5647 25.7855 16.5037 24.2361C16.4427 22.6867 16.9839 21.1739 18.0138 20.0147C19.0438 18.8556 20.4824 18.1402 22.0282 18.0185C22.1852 18.0063 22.3426 18.0001 22.5 18V14C22.4992 13.3232 22.6713 12.6574 23 12.0658C22.8368 12.0228 22.6688 12.0007 22.5 12H15.9605C16.3682 11.2996 16.5521 10.4914 16.4875 9.68353C16.4059 8.65323 15.9286 7.69452 15.1557 7.00832C14.3828 6.32213 13.3744 5.96173 12.3416 6.00265C11.3089 6.04357 10.3321 6.48264 9.61594 7.22783C8.89979 7.97303 8.49987 8.9665 8.5 10C8.49999 10.7027 8.68614 11.3927 9.0395 12H2.5C1.96957 12 1.46086 12.2107 1.08579 12.5858C0.710714 12.9609 0.5 13.4696 0.5 14L0.5 34C0.5 34.5305 0.710714 35.0392 1.08579 35.4142C1.46086 35.7893 1.96957 36 2.5 36H9.0395C8.6318 36.7004 8.44792 37.5087 8.5125 38.3165C8.59414 39.3468 9.07142 40.3056 9.84429 40.9917C10.6172 41.6779 11.6256 42.0383 12.6584 41.9974C13.6911 41.9565 14.6679 41.5174 15.3841 40.7722C16.1002 40.027 16.5001 39.0336 16.5 38C16.5 37.2974 16.3139 36.6073 15.9605 36H22.5C22.6688 35.9993 22.8368 35.9772 23 35.9343C22.6713 35.3426 22.4992 34.6768 22.5 34V30Z" fill="#20D8F8"/>
<path d="M46.4993 12H39.9598C40.3675 12.7004 40.5514 13.5087 40.4868 14.3165C40.4052 15.3468 39.9279 16.3055 39.155 16.9917C38.3821 17.6779 37.3737 18.0383 36.3409 17.9974C35.3082 17.9565 34.3314 17.5174 33.6152 16.7722C32.8991 16.027 32.4992 15.0335 32.4993 14C32.4993 13.2974 32.6854 12.6073 33.0388 12H26.4993C25.9689 12 25.4602 12.2107 25.0851 12.5858C24.71 12.9609 24.4993 13.4696 24.4993 14V20.5395C23.799 20.132 22.991 19.948 22.1833 20.0123C21.1524 20.0931 20.1929 20.57 19.5061 21.343C18.8192 22.116 18.4583 23.1249 18.4992 24.1581C18.5401 25.1914 18.9795 26.1686 19.7253 26.8849C20.4711 27.6012 21.4653 28.0008 22.4993 28C23.2019 28 23.892 27.8139 24.4993 27.4605V34C24.4993 34.5304 24.71 35.0391 25.0851 35.4142C25.4602 35.7893 25.9689 36 26.4993 36H33.0388C32.6311 35.2996 32.4472 34.4913 32.5118 33.6835C32.5934 32.6532 33.0707 31.6945 33.8436 31.0083C34.6165 30.3221 35.625 29.9617 36.6577 30.0026C37.6904 30.0435 38.6672 30.4826 39.3834 31.2278C40.0995 31.973 40.4994 32.9665 40.4993 34C40.4993 34.7026 40.3132 35.3927 39.9598 36H46.4993C47.0297 36 47.5384 35.7893 47.9135 35.4142C48.2886 35.0391 48.4993 34.5304 48.4993 34V14C48.4993 13.4696 48.2886 12.9609 47.9135 12.5858C47.5384 12.2107 47.0297 12 46.4993 12Z" fill="#20D8F8"/>
</g>
<defs>
<clipPath id="clip0_170_1914">
<rect width="48" height="48" fill="white" transform="translate(0.5)"/>
</clipPath>
</defs>
</svg>
