<svg width="49" height="48" viewBox="0 0 49 48" fill="none" xmlns="http://www.w3.org/2000/svg">
<path d="M10.7979 34.035C10.657 33.896 10.4671 33.8181 10.2692 33.8181C10.0713 33.8181 9.88133 33.896 9.74043 34.035L7.71543 36.0675C7.6459 36.1369 7.59074 36.2193 7.5531 36.31C7.51547 36.4007 7.49609 36.498 7.49609 36.5962C7.49609 36.6944 7.51547 36.7917 7.5531 36.8824C7.59074 36.9732 7.6459 37.0556 7.71543 37.125L13.7904 43.2075C13.8598 43.277 13.9422 43.3322 14.033 43.3698C14.1237 43.4074 14.221 43.4268 14.3192 43.4268C14.4174 43.4268 14.5147 43.4074 14.6054 43.3698C14.6961 43.3322 14.7785 43.277 14.8479 43.2075L16.8804 41.175C16.95 41.1056 17.0051 41.0232 17.0428 40.9324C17.0804 40.8417 17.0998 40.7444 17.0998 40.6462C17.0998 40.548 17.0804 40.4507 17.0428 40.36C17.0051 40.2693 16.95 40.1869 16.8804 40.1175L10.7979 34.035ZM41.3754 24.7575C41.2238 24.5661 41.0253 24.4172 40.7992 24.3251C40.5731 24.233 40.3271 24.2009 40.0849 24.2318C39.8427 24.2627 39.6127 24.3557 39.417 24.5017C39.2213 24.6476 39.0666 24.8417 38.9679 25.065C37.8804 27.8925 34.7904 30.825 33.9129 31.62C33.8213 32.2936 33.4892 32.9114 32.9778 33.3594C32.4664 33.8074 31.8103 34.0553 31.1304 34.0575H24.3354C24.1365 34.0575 23.9457 33.9785 23.8051 33.8378C23.6644 33.6971 23.5854 33.5064 23.5854 33.3075C23.5854 33.1086 23.6644 32.9178 23.8051 32.7771C23.9457 32.6365 24.1365 32.5575 24.3354 32.5575H31.1304C31.3018 32.556 31.4712 32.5208 31.629 32.4538C31.7867 32.3869 31.9298 32.2895 32.0499 32.1673C32.17 32.0451 32.2649 31.9004 32.3291 31.7415C32.3934 31.5826 32.4257 31.4126 32.4242 31.2412C32.4227 31.0698 32.3875 30.9004 32.3205 30.7427C32.2536 30.5849 32.1562 30.4419 32.034 30.3217C31.9118 30.2016 31.7671 30.1067 31.6082 30.0425C31.4493 29.9783 31.2793 29.946 31.1079 29.9475L26.9604 30.0375C25.1454 30.1822 23.2892 28.8795 21.7929 28.035C21.2114 27.7026 20.5409 27.5594 19.8743 27.6253C19.2077 27.6911 18.5782 27.9628 18.0729 28.4025L12.2979 33.4125L17.8104 38.925C18.15 38.5886 18.5565 38.3273 19.0036 38.1581C19.4506 37.9888 19.9282 37.9154 20.4054 37.9425L27.2754 38.355C28.5743 38.4338 29.8732 38.1997 31.0629 37.6725C37.2429 34.875 40.2579 29.07 41.5029 25.86C41.5737 25.6798 41.5991 25.4851 41.5768 25.2928C41.5546 25.1006 41.4854 24.9167 41.3754 24.7575ZM25.9929 15.7125H27.7179V23.0775C27.7178 23.3296 27.7674 23.5794 27.8639 23.8123C27.9603 24.0453 28.1018 24.257 28.2801 24.4353C28.4584 24.6136 28.6701 24.7551 28.9031 24.8515C29.136 24.948 29.3858 24.9976 29.6379 24.9975H32.2929C32.5451 24.9976 32.7948 24.948 33.0278 24.8515C33.2608 24.7551 33.4725 24.6136 33.6508 24.4353C33.8291 24.257 33.9705 24.0453 34.067 23.8123C34.1634 23.5794 34.213 23.3296 34.2129 23.0775V15.7125H35.9379C36.2969 15.7081 36.6485 15.6103 36.9583 15.4289C37.268 15.2474 37.5252 14.9884 37.7045 14.6774C37.8839 14.3664 37.9792 14.0141 37.9811 13.6551C37.983 13.2962 37.8914 12.9429 37.7154 12.63L32.7429 4.02747C32.563 3.71514 32.304 3.45573 31.992 3.27535C31.6799 3.09497 31.3259 3 30.9654 3C30.605 3 30.2509 3.09497 29.9389 3.27535C29.6268 3.45573 29.3678 3.71514 29.1879 4.02747L24.2154 12.63C24.0394 12.9429 23.9479 13.2962 23.9498 13.6551C23.9517 14.0141 24.047 14.3664 24.2263 14.6774C24.4057 14.9884 24.6628 15.2474 24.9726 15.4289C25.2823 15.6103 25.634 15.7081 25.9929 15.7125Z" fill="#F99811"/>
</svg>
