<svg xmlns="http://www.w3.org/2000/svg" width="583" height="388" fill="none"><rect width="578.42" height="384" x="2" y="2" fill="#F5F5F5" rx="22"/><rect width="578.42" height="384" x="2" y="2" stroke="#E9ECF2" stroke-width="4" rx="22"/><g clip-path="url(#a)"><path fill="#FA973C" fill-opacity=".18" stroke="#FA973C" stroke-width=".849" d="M506.441 317.714c10.158 0 18.386 6.71 18.386 14.994s-8.228 14.994-18.386 14.994H469.67c-10.158 0-18.386-6.71-18.386-14.994s8.228-14.994 18.386-14.994z"/><path fill="#000" d="M481.319 335.708v-5.578h1.062v5.578zm.909 0v-.917h2.529v.917zm0-2.376v-.917h2.331v.917zm0-2.285v-.917h2.468v.917zm3.559 4.661v-4.149h.84v1.78h-.076q0-.634.168-1.054a1.3 1.3 0 0 1 .496-.642q.336-.214.833-.214h.046q.742 0 1.123.482.382.473.382 1.421v2.376h-1.062v-2.468q0-.382-.221-.619-.215-.237-.596-.237a.86.86 0 0 0-.635.245q-.236.237-.236.642v2.437zm6.673.138q-.436 0-.802-.161a1.9 1.9 0 0 1-.634-.451 2.05 2.05 0 0 1-.413-.672 2.4 2.4 0 0 1-.145-.841v-.16q0-.443.138-.833.144-.39.397-.68.26-.29.619-.451.366-.168.81-.168.489 0 .855.214.375.207.596.627.222.42.245 1.054l-.313-.367v-2.827h1.062v5.578h-.841v-1.765h.184q-.024.635-.26 1.062-.237.42-.627.634a1.8 1.8 0 0 1-.871.207m.237-.894q.313 0 .573-.138.26-.145.413-.413.16-.275.16-.641v-.306q0-.366-.16-.611a1.04 1.04 0 0 0-.421-.382 1.2 1.2 0 0 0-.565-.138q-.344 0-.611.168-.26.16-.413.459-.145.297-.145.695t.153.695q.153.29.412.451.268.16.604.161"/></g><path fill="#9D69FF" fill-opacity=".18" stroke="#9D69FF" stroke-width=".849" d="M454.714 216.091a2.3 2.3 0 0 1 .746-1.681 2.64 2.64 0 0 1 1.801-.696h62.823c.675 0 1.323.25 1.801.696.477.446.746 1.051.746 1.681v42.788c0 .63-.269 1.235-.746 1.681a2.65 2.65 0 0 1-1.801.696h-62.823a2.64 2.64 0 0 1-1.801-.696 2.3 2.3 0 0 1-.746-1.681z"/><path fill="#000" d="M469.956 240.63q-.741 0-1.253-.237a1.8 1.8 0 0 1-.772-.649 1.73 1.73 0 0 1-.267-.948h1.062q0 .222.122.436a.9.9 0 0 0 .39.336q.275.13.718.13.397 0 .665-.115a.9.9 0 0 0 .397-.298.74.74 0 0 0 .13-.428.55.55 0 0 0-.252-.473q-.252-.184-.78-.23l-.489-.038q-.801-.069-1.283-.496-.474-.436-.474-1.146 0-.536.252-.917.252-.39.703-.596a2.5 2.5 0 0 1 1.07-.214q.634 0 1.093.221.458.222.71.627.252.397.252.94h-1.062a.8.8 0 0 0-.114-.421.76.76 0 0 0-.329-.313 1.1 1.1 0 0 0-.55-.122q-.32 0-.535.107a.74.74 0 0 0-.428.688q0 .26.191.458.192.19.604.222l.489.045q.595.046 1.047.253.45.206.695.557.252.352.252.848 0 .528-.275.933a1.8 1.8 0 0 1-.787.618q-.504.222-1.192.222m3.162-.145v-5.578h1.062v3.255h-.183q0-.627.16-1.062t.474-.665q.321-.228.81-.229h.046q.71 0 1.077.489.367.49.367 1.421v2.369h-1.062v-2.468q0-.397-.23-.627-.22-.228-.588-.229a.83.83 0 0 0-.634.26q-.237.252-.237.665v2.399zm5.153 0v-4.149h1.062v4.149zm-.581-3.354v-.795h1.643v.795zm.971-1.292q-.313 0-.466-.16a.6.6 0 0 1-.146-.413q0-.26.146-.42.153-.16.466-.16t.458.16a.6.6 0 0 1 .145.42.6.6 0 0 1-.145.413q-.145.16-.458.16m1.896 6.174v-5.677h.841v1.788l-.13-.008q.03-.634.259-1.062.237-.427.627-.634.39-.214.871-.214.442 0 .795.161.359.16.611.45.26.291.397.68.138.382.138.826v.16q0 .452-.138.84a2 2 0 0 1-.389.681 1.8 1.8 0 0 1-.612.458q-.359.16-.802.16a1.9 1.9 0 0 1-.856-.191 1.53 1.53 0 0 1-.619-.603q-.236-.412-.267-1.062l.336.512v2.735zm2.201-2.285q.344 0 .596-.168.26-.168.405-.466.144-.305.145-.687 0-.397-.145-.688a1.1 1.1 0 0 0-.405-.451 1.05 1.05 0 0 0-.596-.168q-.314 0-.581.138a1.1 1.1 0 0 0-.428.405q-.16.267-.16.641v.306a1.08 1.08 0 0 0 .603 1.001q.268.137.566.137m7.495.902q-.756 0-1.314-.267a2.8 2.8 0 0 1-.917-.696 3.2 3.2 0 0 1-.542-.932 3 3 0 0 1-.176-.97v-.168a2.97 2.97 0 0 1 .734-1.941q.374-.413.924-.657.55-.252 1.291-.252.733 0 1.284.252.55.244.917.657.374.412.558.924.183.505.183 1.017v.168q0 .466-.183.97a3 3 0 0 1-.543.932 2.7 2.7 0 0 1-.917.696q-.549.267-1.299.267m0-1.009q.428 0 .764-.152a1.7 1.7 0 0 0 .581-.421q.244-.274.367-.618.13-.352.13-.742 0-.42-.13-.771a1.7 1.7 0 0 0-.948-1.017 2 2 0 0 0-.764-.145q-.427 0-.771.145t-.589.405q-.237.26-.366.612a2.3 2.3 0 0 0-.123.771q0 .39.123.742.129.344.366.618.244.268.589.421.344.152.771.152m3.907.864v-4.149h.84v1.757h-.023q0-.893.382-1.352.382-.458 1.123-.458h.153v.924h-.29q-.535 0-.833.29-.29.283-.29.826v2.162zm4.875.137q-.435 0-.802-.16a1.9 1.9 0 0 1-.634-.451 2.1 2.1 0 0 1-.413-.672 2.4 2.4 0 0 1-.145-.841v-.16q0-.444.137-.833.146-.39.398-.68.26-.29.618-.451.368-.168.81-.168.49 0 .856.214.374.206.596.627.221.42.245 1.054l-.314-.367v-2.827h1.062v5.578h-.84v-1.765h.183q-.023.634-.259 1.062a1.6 1.6 0 0 1-.627.634 1.8 1.8 0 0 1-.871.206m.237-.894q.313 0 .573-.137.26-.145.412-.413.16-.274.161-.642v-.305a1.1 1.1 0 0 0-.161-.611 1.04 1.04 0 0 0-.42-.382 1.2 1.2 0 0 0-.565-.138q-.344 0-.611.168-.26.16-.413.459-.145.297-.145.695t.153.695q.152.29.412.451.268.16.604.16m5.243.902q-.535 0-.94-.183a2 2 0 0 1-.665-.489 2.3 2.3 0 0 1-.397-.696 2.4 2.4 0 0 1-.13-.779v-.145q0-.412.13-.795.138-.39.397-.687a1.9 1.9 0 0 1 .658-.482q.389-.183.901-.183.672 0 1.123.298.459.29.688.772.23.473.229 1.023v.382h-3.675v-.649h3.01l-.328.321q0-.398-.115-.68a.9.9 0 0 0-.351-.436 1.03 1.03 0 0 0-.581-.153q-.351 0-.596.161a1 1 0 0 0-.374.466 1.9 1.9 0 0 0-.122.718q0 .39.122.696.122.297.374.473.252.168.642.168t.634-.152a.7.7 0 0 0 .313-.39h.978a1.76 1.76 0 0 1-.351.749 1.7 1.7 0 0 1-.665.496 2.2 2.2 0 0 1-.909.176m2.881-.145v-4.149h.841v1.757h-.023q0-.893.382-1.352.382-.458 1.123-.458h.153v.924h-.29q-.536 0-.833.29-.291.283-.291.826v2.162zM486.452 309c-.276 0-.471.338-.333.578l2.22 3.845c.138.239.529.239.667 0l2.22-3.845c.138-.24-.057-.578-.334-.578zm2.72-44.744a.5.5 0 1 0-1 0zm0 45.244v-45.244h-1V309.5z"/><g clip-path="url(#b)"><path fill="#FA973C" fill-opacity=".18" stroke="#FA973C" stroke-width=".849" d="M113.441 127.714c10.158 0 18.386 6.71 18.386 14.994s-8.228 14.994-18.386 14.994H76.67c-10.158 0-18.386-6.71-18.386-14.994s8.228-14.994 18.386-14.994z"/><path fill="#000" d="M87.85 146.145q-.743 0-1.254-.237a1.8 1.8 0 0 1-.772-.649 1.73 1.73 0 0 1-.267-.948h1.062q0 .222.122.436.123.206.39.336.275.13.718.13.398 0 .665-.115a.9.9 0 0 0 .397-.298.74.74 0 0 0 .13-.427.55.55 0 0 0-.252-.474q-.252-.184-.78-.229l-.489-.039q-.801-.068-1.283-.496-.474-.437-.474-1.146 0-.536.252-.917a1.6 1.6 0 0 1 .703-.596 2.5 2.5 0 0 1 1.07-.214q.634 0 1.093.221.458.222.71.627.252.397.252.94h-1.062a.8.8 0 0 0-.114-.42.76.76 0 0 0-.329-.314 1.1 1.1 0 0 0-.55-.122q-.32 0-.535.107a.74.74 0 0 0-.428.688.64.64 0 0 0 .191.458q.192.19.604.222l.489.046q.596.045 1.047.252.45.206.695.557.252.352.252.849 0 .527-.275.932a1.8 1.8 0 0 1-.787.619q-.504.22-1.192.221m4.964-.092q-.573 0-.947-.145a1.07 1.07 0 0 1-.55-.504q-.184-.358-.184-.963l.008-3.759h.993l-.008 3.828q0 .306.161.474.168.16.474.16h.65v.909zm-2.338-3.423v-.779h2.934v.779zM96.8 146v-1.23h-.175v-1.368q0-.359-.176-.535-.175-.175-.543-.175a17 17 0 0 0-1 .03q-.269.008-.482.023v-.902q.176-.015.397-.03.223-.015.451-.015.237-.008.443-.008.642 0 1.063.168.428.168.641.527.222.36.222.94V146zm-1.337.107q-.45 0-.794-.16a1.25 1.25 0 0 1-.528-.459 1.34 1.34 0 0 1-.183-.718q0-.459.222-.749.228-.29.634-.435.413-.146.963-.146h.962v.635h-.978q-.367 0-.565.183a.6.6 0 0 0-.191.458q0 .284.19.459.2.176.566.176.222 0 .405-.077a.7.7 0 0 0 .314-.275q.13-.198.145-.535l.26.298a1.7 1.7 0 0 1-.215.734q-.168.297-.473.458a1.6 1.6 0 0 1-.734.153M98.78 146v-4.149h.84v1.757h-.023q0-.893.382-1.352t1.123-.458h.153v.924h-.29q-.535 0-.833.291-.29.282-.29.825V146zm5.078.053q-.573 0-.947-.145a1.06 1.06 0 0 1-.55-.504q-.183-.358-.184-.963l.008-3.759h.993l-.007 3.828q0 .306.16.474.168.16.474.16h.649v.909zm-2.338-3.423v-.779h2.934v.779z"/></g><path fill="#9D69FF" fill-opacity=".18" stroke="#9D69FF" stroke-width=".849" d="M61.714 216.091c0-.63.268-1.235.746-1.681a2.64 2.64 0 0 1 1.8-.696h62.824c.675 0 1.323.25 1.801.696.477.446.746 1.051.746 1.681v42.788c0 .63-.269 1.235-.746 1.681a2.65 2.65 0 0 1-1.801.696H64.261a2.65 2.65 0 0 1-1.801-.696 2.3 2.3 0 0 1-.746-1.681z"/><path fill="#000" d="M67.622 239.852v-5.616h1.085v5.616zm3.408 0-1.711-2.43h1.215l1.764 2.43zm-2.644-1.864v-.879h1.422q.297 0 .512-.122a.86.86 0 0 0 .343-.344q.123-.222.123-.504 0-.291-.123-.512a.86.86 0 0 0-.343-.344 1 1 0 0 0-.512-.122h-1.422v-.925h1.307q.672 0 1.161.199.497.198.764.603.268.405.268 1.017v.122q0 .618-.275 1.016-.267.398-.757.596-.489.198-1.161.199zm6.434 2.009q-.535 0-.94-.183a2 2 0 0 1-.665-.489 2.3 2.3 0 0 1-.397-.696 2.4 2.4 0 0 1-.13-.779v-.145q0-.412.13-.795.137-.39.397-.687.267-.306.657-.482.39-.183.902-.183.672 0 1.123.298.459.29.688.772.228.473.229 1.023v.382h-3.675v-.649h3.01l-.329.321q0-.398-.114-.68a.9.9 0 0 0-.352-.436 1.02 1.02 0 0 0-.58-.152q-.352 0-.596.16a1 1 0 0 0-.375.466 1.9 1.9 0 0 0-.122.718q0 .39.122.696.123.297.375.473.252.168.642.168.389 0 .634-.152a.7.7 0 0 0 .313-.39h.978a1.76 1.76 0 0 1-.351.749 1.7 1.7 0 0 1-.665.496 2.2 2.2 0 0 1-.91.176m4.722 0a2.2 2.2 0 0 1-.94-.183 2 2 0 0 1-.657-.489 2.1 2.1 0 0 1-.39-.688 2.4 2.4 0 0 1-.129-.779v-.145q0-.421.13-.803a2.02 2.02 0 0 1 1.062-1.169 2.2 2.2 0 0 1 .917-.183q.542 0 .97.214.428.206.68.581.26.373.29.871h-1.031a.83.83 0 0 0-.275-.535q-.23-.214-.634-.214a1 1 0 0 0-.589.168 1 1 0 0 0-.343.466 1.8 1.8 0 0 0-.115.672q0 .367.107.665.114.298.344.466.237.168.603.168.276 0 .474-.099a.8.8 0 0 0 .313-.275.9.9 0 0 0 .153-.397h1.032q-.03.504-.298.886a1.8 1.8 0 0 1-.696.588 2.15 2.15 0 0 1-.978.214m4.68 0q-.535 0-.94-.183a2 2 0 0 1-.665-.489 2.3 2.3 0 0 1-.398-.696 2.4 2.4 0 0 1-.13-.779v-.145q0-.412.13-.795.138-.39.398-.687.267-.306.657-.482a2.1 2.1 0 0 1 .901-.183q.673 0 1.124.298.458.29.687.772.23.473.23 1.023v.382H82.54v-.649h3.01l-.328.321q0-.398-.114-.68a.9.9 0 0 0-.352-.436q-.23-.152-.58-.152-.352 0-.597.16a1 1 0 0 0-.374.466 1.9 1.9 0 0 0-.122.718q0 .39.122.696.123.297.374.473.253.168.642.168.39 0 .634-.152a.7.7 0 0 0 .314-.39h.978a1.76 1.76 0 0 1-.352.749 1.7 1.7 0 0 1-.665.496 2.2 2.2 0 0 1-.909.176m3.08-.145v-4.149h1.061v4.149zm-.581-3.354v-.795h1.642v.795zm.97-1.292q-.313 0-.466-.16a.6.6 0 0 1-.145-.413q0-.26.145-.42.153-.16.466-.16t.458.16a.6.6 0 0 1 .145.42.6.6 0 0 1-.145.413q-.145.16-.458.16m2.73 4.646-1.3-4.149h1.093l1.245 4.149zm.312 0v-.871h1.124v.871zm.42 0 1.07-4.149h1.024l-1.123 4.149zm4.663.145q-.535 0-.94-.183a2 2 0 0 1-.664-.489 2.3 2.3 0 0 1-.397-.696 2.4 2.4 0 0 1-.13-.779v-.145q0-.412.13-.795.137-.39.397-.687.267-.306.657-.482a2.1 2.1 0 0 1 .902-.183q.672 0 1.123.298.458.29.688.772.229.473.229 1.023v.382h-3.676v-.649h3.01l-.328.321q0-.398-.114-.68a.9.9 0 0 0-.352-.436 1.02 1.02 0 0 0-.58-.152q-.352 0-.596.16a1 1 0 0 0-.375.466 1.9 1.9 0 0 0-.122.718q0 .39.122.696.123.297.375.473.252.168.642.168.389 0 .634-.152a.72.72 0 0 0 .313-.39h.978a1.76 1.76 0 0 1-.352.749 1.7 1.7 0 0 1-.664.496 2.2 2.2 0 0 1-.91.176m7.236 0q-.757 0-1.315-.267a2.8 2.8 0 0 1-.916-.696 3.2 3.2 0 0 1-.543-.932 3 3 0 0 1-.176-.97v-.168q0-.512.184-1.016.183-.513.55-.925.374-.413.924-.657.55-.252 1.292-.252.734 0 1.283.252.55.245.917.657.375.412.558.925.183.504.183 1.016v.168q0 .466-.183.97a3 3 0 0 1-.543.932 2.7 2.7 0 0 1-.916.696q-.55.267-1.299.267m0-1.008q.428 0 .764-.153.344-.153.58-.421a1.9 1.9 0 0 0 .367-.618q.13-.352.13-.742 0-.42-.13-.771a1.69 1.69 0 0 0-.947-1.016 1.9 1.9 0 0 0-.764-.146 2 2 0 0 0-.772.146 1.7 1.7 0 0 0-.588.404 1.8 1.8 0 0 0-.367.612 2.3 2.3 0 0 0-.122.771q0 .39.122.742.13.344.367.618.244.268.588.421t.772.153m3.906.863v-4.149h.84v1.757h-.023q0-.893.382-1.352.383-.459 1.124-.458h.152v.924h-.29q-.534 0-.833.29-.29.283-.29.826v2.162zm4.875.137q-.436 0-.802-.16a1.9 1.9 0 0 1-.634-.451 2.1 2.1 0 0 1-.413-.672 2.4 2.4 0 0 1-.145-.841v-.16q0-.444.138-.833.144-.39.397-.68.26-.29.619-.451.366-.168.81-.168.489 0 .855.214.375.206.596.627.222.42.245 1.054l-.313-.367v-2.827h1.062v5.578h-.841v-1.765h.184q-.023.634-.26 1.062-.237.42-.627.634a1.8 1.8 0 0 1-.871.206m.237-.893q.314 0 .573-.138.26-.145.413-.413.16-.275.16-.641v-.306a1.1 1.1 0 0 0-.16-.611 1.04 1.04 0 0 0-.42-.382 1.2 1.2 0 0 0-.566-.138q-.344 0-.611.168-.26.16-.413.459-.145.297-.145.695t.153.695q.153.29.412.451.268.16.604.161m5.243.901q-.534 0-.94-.183a2 2 0 0 1-.664-.489 2.3 2.3 0 0 1-.398-.696 2.4 2.4 0 0 1-.129-.779v-.145q0-.412.129-.795.138-.39.398-.687.267-.306.657-.482.39-.183.901-.183.673 0 1.124.298.457.29.687.772.23.473.229 1.023v.382h-3.675v-.649h3.011l-.329.321q0-.398-.114-.68a.9.9 0 0 0-.352-.436q-.229-.152-.581-.152-.351 0-.596.16a1 1 0 0 0-.374.466 1.9 1.9 0 0 0-.122.718q0 .39.122.696.123.297.374.473.253.168.642.168.39 0 .634-.152a.72.72 0 0 0 .314-.39h.978a1.76 1.76 0 0 1-.352.749 1.7 1.7 0 0 1-.664.496 2.2 2.2 0 0 1-.91.176m2.882-.145v-4.149h.84v1.757h-.023q0-.893.382-1.352t1.123-.458h.153v.924h-.29q-.535 0-.833.29-.29.283-.29.826v2.162zM92.835 205c-.276 0-.471.338-.333.577l2.22 3.846c.138.239.528.239.666 0l2.22-3.846c.139-.239-.057-.577-.333-.577zm2.72-43.584a.5.5 0 0 0-1 0zm0 44.084v-44.084h-1V205.5z"/><path fill="#9D69FF" fill-opacity=".18" stroke="#9D69FF" stroke-width=".849" d="M330.714 312.091a2.3 2.3 0 0 1 .746-1.681 2.64 2.64 0 0 1 1.801-.696h62.823c.675 0 1.323.25 1.801.696.477.446.746 1.051.746 1.681v42.788c0 .63-.269 1.235-.746 1.681a2.65 2.65 0 0 1-1.801.696h-62.823a2.64 2.64 0 0 1-1.801-.696 2.3 2.3 0 0 1-.746-1.681z"/><path fill="#000" d="M351.626 331.13q-.756 0-1.299-.267a2.6 2.6 0 0 1-.886-.696 3 3 0 0 1-.497-.932 3.2 3.2 0 0 1-.16-.97v-.168q0-.52.16-1.024.168-.504.512-.917t.871-.657q.535-.252 1.261-.252.756 0 1.314.275a2.2 2.2 0 0 1 .902.764q.336.489.405 1.146h-1.093a1.3 1.3 0 0 0-.275-.642 1.24 1.24 0 0 0-.527-.397 1.8 1.8 0 0 0-.726-.138q-.413 0-.733.146a1.4 1.4 0 0 0-.535.397 1.9 1.9 0 0 0-.329.611 2.7 2.7 0 0 0-.107.78q0 .412.107.764.115.351.336.618.222.261.543.405.329.146.756.146.627 0 1.055-.306.435-.313.527-.871h1.092q-.075.595-.405 1.093a2.35 2.35 0 0 1-.901.794q-.573.298-1.368.298m5.5 0a2.5 2.5 0 0 1-.97-.176 2.1 2.1 0 0 1-.711-.473 2.2 2.2 0 0 1-.443-.688 2.2 2.2 0 0 1-.145-.795v-.16q0-.428.153-.81.16-.39.451-.688.297-.305.718-.473.42-.176.947-.176t.948.176q.42.168.71.473.298.298.451.688.153.382.153.81v.16q0 .412-.153.795a2.05 2.05 0 0 1-.436.688q-.29.297-.71.473t-.963.176m0-.909q.39 0 .657-.168.269-.176.405-.466.138-.298.138-.673 0-.381-.145-.672a1.05 1.05 0 0 0-.413-.466 1.14 1.14 0 0 0-.642-.176 1.2 1.2 0 0 0-.649.176 1.1 1.1 0 0 0-.413.466 1.5 1.5 0 0 0-.145.672q0 .375.137.673.146.29.413.466.267.168.657.168m3.192.764v-4.149h.84v1.78h-.076q0-.634.168-1.054a1.3 1.3 0 0 1 .497-.642q.336-.214.832-.214h.046q.741 0 1.123.482.382.473.382 1.421v2.376h-1.062v-2.468q0-.382-.221-.619-.214-.237-.596-.237a.86.86 0 0 0-.634.245q-.237.237-.237.642v2.437zm6.757.053q-.572 0-.947-.145a1.06 1.06 0 0 1-.55-.504q-.184-.358-.184-.963l.008-3.759h.993l-.007 3.828q0 .306.16.474.168.16.474.16h.649v.909zm-2.338-3.423v-.779h2.934v.779zm5.66 3.515q-.534 0-.94-.183a1.95 1.95 0 0 1-.664-.489 2.3 2.3 0 0 1-.398-.696 2.4 2.4 0 0 1-.13-.779v-.145q0-.412.13-.795.137-.39.398-.687.267-.306.657-.482.389-.183.901-.183.673 0 1.123.298.459.29.688.772.23.473.229 1.023v.383h-3.675v-.65h3.011l-.329.321q0-.398-.115-.68a.9.9 0 0 0-.351-.436 1.03 1.03 0 0 0-.581-.152q-.351 0-.596.16a1 1 0 0 0-.374.466 1.9 1.9 0 0 0-.122.718q0 .39.122.696.122.297.374.473.252.168.642.168t.634-.152a.72.72 0 0 0 .314-.39h.978a1.8 1.8 0 0 1-.352.749 1.7 1.7 0 0 1-.665.496 2.2 2.2 0 0 1-.909.176m2.882-.145v-4.149h.84v1.78h-.076q0-.634.168-1.054a1.3 1.3 0 0 1 .496-.642q.336-.214.833-.214h.046q.74 0 1.123.482.382.473.382 1.421v2.376h-1.062v-2.468q0-.382-.221-.619-.215-.237-.596-.237a.86.86 0 0 0-.635.245q-.236.237-.236.642v2.437zm6.757.053q-.573 0-.947-.145a1.06 1.06 0 0 1-.55-.504q-.184-.358-.184-.963l.008-3.759h.993l-.007 3.828q0 .306.16.474.168.16.474.16h.649v.909zm-2.338-3.423v-.779h2.934v.779zm-34.376 14.515q-.542 0-.939-.183a2 2 0 0 1-.657-.489 2.1 2.1 0 0 1-.39-.688 2.4 2.4 0 0 1-.13-.779v-.145q0-.421.13-.803.138-.39.405-.687.267-.306.657-.482a2.2 2.2 0 0 1 .917-.183q.542 0 .97.214.428.206.68.581.26.374.29.871h-1.031a.83.83 0 0 0-.275-.535q-.23-.214-.634-.214a1 1 0 0 0-.589.168 1 1 0 0 0-.343.466 1.8 1.8 0 0 0-.115.672q0 .367.107.665.114.298.344.466.237.168.603.168.276 0 .474-.099a.8.8 0 0 0 .313-.275.9.9 0 0 0 .153-.397h1.032a1.7 1.7 0 0 1-.298.886 1.8 1.8 0 0 1-.696.588 2.15 2.15 0 0 1-.978.214m4.817 0q-.55 0-.971-.176a2.1 2.1 0 0 1-.71-.473 2.1 2.1 0 0 1-.443-.688 2.2 2.2 0 0 1-.146-.795v-.16q0-.428.153-.81.16-.39.451-.688.298-.305.718-.473.42-.176.948-.176.527 0 .947.176.42.168.711.473.298.298.451.688.152.382.152.81v.16q0 .412-.152.795a2.05 2.05 0 0 1-.436.688q-.29.297-.711.473a2.5 2.5 0 0 1-.962.176m0-.909q.39 0 .657-.168.267-.176.405-.466a1.6 1.6 0 0 0 .137-.673q0-.381-.145-.672a1.05 1.05 0 0 0-.412-.466 1.15 1.15 0 0 0-.642-.176q-.375 0-.65.176a1.1 1.1 0 0 0-.412.466 1.5 1.5 0 0 0-.146.672q0 .375.138.673.145.29.413.466.267.168.657.168m3.191.764v-4.149h.841v1.78h-.077q0-.634.168-1.054.169-.428.497-.642.336-.214.833-.214h.046q.74 0 1.123.482.382.473.382 1.421v2.376h-1.062v-2.468q0-.382-.222-.619-.213-.237-.596-.237a.86.86 0 0 0-.634.245q-.237.237-.237.642v2.437zm6.46.13q-.856 0-1.345-.359-.482-.367-.504-1.009h.955q.022.215.237.39.214.176.672.176.382 0 .604-.138.23-.137.229-.374a.38.38 0 0 0-.176-.329q-.168-.122-.58-.16l-.367-.039q-.695-.076-1.07-.397-.374-.32-.374-.856 0-.427.214-.718.214-.29.588-.435.382-.153.871-.153.764 0 1.238.336t.497.986h-.956a.5.5 0 0 0-.213-.367q-.2-.153-.573-.153-.337 0-.52.13a.4.4 0 0 0-.183.336q0 .2.145.306.153.107.489.145l.366.038q.734.077 1.147.405.42.329.42.886 0 .413-.229.719a1.46 1.46 0 0 1-.627.466q-.405.168-.955.168m2.887-.13v-4.149h1.062v4.149zm-.581-3.354v-.795h1.643v.795zm.971-1.292q-.314 0-.467-.16a.61.61 0 0 1-.145-.413q0-.26.145-.42.153-.16.467-.16.312 0 .458.16a.6.6 0 0 1 .145.42.6.6 0 0 1-.145.413q-.146.16-.458.16m3.401 4.776q-.856 0-1.345-.359-.481-.367-.504-1.009h.955q.022.215.237.39t.672.176q.382 0 .604-.138.23-.137.229-.374a.38.38 0 0 0-.176-.329q-.168-.122-.58-.16l-.367-.039q-.696-.076-1.07-.397-.374-.32-.374-.856 0-.427.214-.718a1.3 1.3 0 0 1 .588-.435q.382-.153.871-.153.764 0 1.238.336.473.336.497.986h-.955a.5.5 0 0 0-.214-.367q-.2-.153-.573-.153-.337 0-.52.13a.4.4 0 0 0-.183.336q0 .2.145.306.153.107.489.145l.367.038q.733.077 1.146.405.42.329.42.886 0 .413-.229.719a1.46 1.46 0 0 1-.627.466q-.405.168-.955.168m4.491-.077q-.572 0-.947-.145a1.07 1.07 0 0 1-.55-.504q-.183-.358-.183-.963l.007-3.759h.993l-.007 3.828q0 .306.16.474.168.16.474.16h.649v.909zm-2.338-3.423v-.779h2.934v.779zm5.66 3.515q-.534 0-.94-.183a1.95 1.95 0 0 1-.664-.489 2.3 2.3 0 0 1-.398-.696 2.4 2.4 0 0 1-.13-.779v-.145q0-.412.13-.795.137-.39.398-.687.267-.306.657-.482.389-.183.901-.183.673 0 1.123.298.459.29.688.772.23.473.229 1.023v.383H370.6v-.65h3.011l-.329.321q0-.398-.115-.68a.9.9 0 0 0-.351-.436 1.03 1.03 0 0 0-.581-.152q-.351 0-.596.16a1 1 0 0 0-.374.466 1.9 1.9 0 0 0-.122.718q0 .39.122.696.122.297.374.473.252.168.642.168t.634-.152a.72.72 0 0 0 .314-.39h.978a1.8 1.8 0 0 1-.352.749 1.7 1.7 0 0 1-.665.496 2.2 2.2 0 0 1-.909.176m2.882-.145v-4.149h.84v1.78h-.076q0-.634.168-1.054a1.3 1.3 0 0 1 .496-.642q.336-.214.833-.214h.046q.742 0 1.123.482.382.473.382 1.421v2.376h-1.062v-2.468q0-.382-.221-.619-.215-.237-.596-.237a.86.86 0 0 0-.635.245q-.236.237-.236.642v2.437zm6.795.145q-.541 0-.939-.183a2 2 0 0 1-.657-.489 2.1 2.1 0 0 1-.39-.688 2.4 2.4 0 0 1-.13-.779v-.145q0-.421.13-.803.138-.39.405-.687.267-.306.657-.482a2.2 2.2 0 0 1 .917-.183q.542 0 .97.214.428.206.68.581.26.374.291.871h-1.032a.83.83 0 0 0-.275-.535q-.23-.214-.634-.214a1 1 0 0 0-.589.168 1 1 0 0 0-.343.466 1.8 1.8 0 0 0-.115.672q0 .367.107.665.114.298.344.466.237.168.603.168.276 0 .474-.099a.8.8 0 0 0 .313-.275.9.9 0 0 0 .153-.397h1.032a1.7 1.7 0 0 1-.298.886 1.8 1.8 0 0 1-.696.588 2.15 2.15 0 0 1-.978.214m2.7 1.49v-.909h.78a1 1 0 0 0 .366-.061.54.54 0 0 0 .253-.184.86.86 0 0 0 .152-.343l1.116-4.287h1.016l-1.23 4.516q-.123.466-.344.741a1.23 1.23 0 0 1-.573.405 2.6 2.6 0 0 1-.856.122zm1.292-1.727v-.84h.886v.84zm-.36 0-1.344-4.057h1.069l1.276 4.057z"/><path fill="#9D69FF" fill-opacity=".18" stroke="#9D69FF" stroke-width=".849" d="M330.714 216.091a2.3 2.3 0 0 1 .746-1.681 2.64 2.64 0 0 1 1.801-.696h62.823c.675 0 1.323.25 1.801.696.477.446.746 1.051.746 1.681v42.788c0 .63-.269 1.235-.746 1.681a2.65 2.65 0 0 1-1.801.696h-62.823a2.64 2.64 0 0 1-1.801-.696 2.3 2.3 0 0 1-.746-1.681z"/><path fill="#000" d="M350.951 233.273v-.939h1.085q.329 0 .55-.13a.84.84 0 0 0 .344-.359 1.1 1.1 0 0 0 .122-.528q0-.297-.122-.527a.8.8 0 0 0-.344-.351 1.07 1.07 0 0 0-.55-.13h-1.085v-.94h.993q.703 0 1.192.229.498.23.757.657.26.421.26 1.001v.123q0 .58-.26 1.008a1.74 1.74 0 0 1-.757.657q-.489.23-1.192.229zm-.932 1.712v-5.616h1.085v5.616zm4.975 0v-4.149h.84v1.757h-.023q0-.893.383-1.352.382-.458 1.123-.458h.152v.924h-.29q-.534 0-.833.29-.29.283-.29.826v2.162zm5.013.145q-.535 0-.94-.183a2 2 0 0 1-.665-.489 2.3 2.3 0 0 1-.397-.696 2.4 2.4 0 0 1-.13-.779v-.145q0-.412.13-.795.138-.39.397-.687.269-.306.657-.482.39-.183.902-.183.672 0 1.123.298.459.29.688.772.23.473.229 1.023v.383h-3.675v-.65h3.01l-.328.321q0-.398-.115-.68a.9.9 0 0 0-.351-.436 1.03 1.03 0 0 0-.581-.152q-.351 0-.596.16a1 1 0 0 0-.374.466 1.9 1.9 0 0 0-.123.718q0 .39.123.696.122.297.374.473.252.168.642.168t.634-.152a.72.72 0 0 0 .313-.39h.978a1.76 1.76 0 0 1-.351.749 1.7 1.7 0 0 1-.665.496 2.2 2.2 0 0 1-.909.176m2.881 1.383v-5.677h.841v1.788l-.13-.008q.03-.633.26-1.062.237-.427.626-.634.39-.214.871-.214.444 0 .795.161.359.16.611.45.26.291.397.68.138.382.138.826v.16q0 .451-.138.841a2 2 0 0 1-.389.68 1.8 1.8 0 0 1-.612.458 1.9 1.9 0 0 1-.802.161q-.466 0-.856-.191a1.53 1.53 0 0 1-.618-.604q-.237-.412-.268-1.062l.336.512v2.735zm2.201-2.284q.344 0 .596-.169.26-.168.405-.466.145-.305.145-.687 0-.397-.145-.688a1.1 1.1 0 0 0-.405-.451 1.05 1.05 0 0 0-.596-.168q-.314 0-.581.138a1.1 1.1 0 0 0-.428.405q-.16.267-.16.641v.306a1.08 1.08 0 0 0 .603 1.001q.268.138.566.138m5.656.756v-1.23h-.176v-1.368q0-.359-.176-.535-.176-.175-.542-.175a17 17 0 0 0-1.001.03q-.268.008-.482.023v-.902q.176-.015.398-.03.221-.015.45-.015.237-.008.444-.008.64 0 1.062.168.428.168.641.527.222.36.222.94v2.575zm-1.338.107q-.45 0-.794-.16-.336-.16-.527-.459a1.34 1.34 0 0 1-.184-.718q0-.459.222-.749.23-.291.634-.435.412-.146.963-.146h.962v.635h-.978q-.367 0-.565.183a.6.6 0 0 0-.191.458q0 .284.191.459.199.176.565.176.222 0 .405-.077a.7.7 0 0 0 .314-.275q.13-.198.145-.535l.26.298a1.7 1.7 0 0 1-.214.734q-.168.297-.474.458a1.6 1.6 0 0 1-.734.153m3.316-.107v-4.149h.84v1.757h-.023q0-.893.382-1.352.382-.458 1.123-.458h.153v.924h-.29q-.535 0-.833.29-.29.283-.29.826v2.162zm5.013.145q-.535 0-.94-.183a1.95 1.95 0 0 1-.665-.489 2.3 2.3 0 0 1-.397-.696 2.4 2.4 0 0 1-.13-.779v-.145q0-.412.13-.795.137-.39.397-.687.267-.306.657-.482a2.1 2.1 0 0 1 .902-.183q.672 0 1.123.298.459.29.688.772.228.473.229 1.023v.383h-3.675v-.65h3.01l-.329.321q0-.398-.114-.68a.9.9 0 0 0-.352-.436 1.03 1.03 0 0 0-.58-.152 1.06 1.06 0 0 0-.596.16 1 1 0 0 0-.375.466 1.9 1.9 0 0 0-.122.718q0 .39.122.696.123.297.375.473.252.168.642.168.389 0 .634-.152a.72.72 0 0 0 .313-.39h.978a1.76 1.76 0 0 1-.351.749 1.7 1.7 0 0 1-.665.496 2.2 2.2 0 0 1-.909.176m-29.668 10.985q-.856 0-1.345-.359-.481-.367-.504-1.009h.955q.023.215.236.39.214.176.673.176.382 0 .603-.138.23-.138.23-.374a.38.38 0 0 0-.176-.329q-.168-.122-.581-.16l-.367-.039q-.695-.076-1.069-.397-.375-.32-.375-.856 0-.427.214-.718.214-.29.589-.435.382-.153.871-.153.764 0 1.237.336t.497.986h-.955a.5.5 0 0 0-.214-.367q-.198-.153-.573-.153-.336 0-.519.13a.4.4 0 0 0-.184.336q0 .2.145.306.153.107.489.145l.367.038q.733.077 1.146.405.42.329.42.886 0 .413-.229.719a1.46 1.46 0 0 1-.626.466q-.405.168-.955.168m2.688-.13v-5.578h1.062v3.255h-.184q0-.626.161-1.062.16-.435.474-.665.321-.228.81-.229h.045q.71 0 1.078.489.366.49.366 1.421v2.369h-1.062v-2.468q0-.398-.229-.626a.78.78 0 0 0-.588-.23.83.83 0 0 0-.634.26q-.237.252-.237.665v2.399zm5.153 0v-4.149h1.062v4.149zm-.581-3.354v-.795h1.643v.795zm.971-1.292q-.314 0-.467-.16a.61.61 0 0 1-.145-.413q0-.26.145-.42.153-.16.467-.16.312 0 .458.16a.6.6 0 0 1 .145.42.6.6 0 0 1-.145.413q-.146.16-.458.16m1.896 6.174v-5.677h.84v1.788l-.129-.008q.03-.633.259-1.062.237-.427.627-.634.39-.214.871-.214.443 0 .794.161.36.16.612.45.26.291.397.68.138.382.138.826v.16q0 .451-.138.841a2 2 0 0 1-.39.68 1.8 1.8 0 0 1-.611.458 1.94 1.94 0 0 1-.802.161q-.466 0-.856-.191a1.53 1.53 0 0 1-.619-.604q-.237-.412-.267-1.062l.336.512v2.735zm2.2-2.284q.345 0 .596-.169.261-.168.405-.466.146-.305.146-.687a1.5 1.5 0 0 0-.146-.688 1.1 1.1 0 0 0-.405-.451 1.05 1.05 0 0 0-.596-.168q-.312 0-.58.138a1.1 1.1 0 0 0-.428.405 1.2 1.2 0 0 0-.161.641v.306q0 .36.169.611.168.252.435.39t.565.138m3.142.756v-4.149h.841v1.78h-.077q0-.626.161-1.046.16-.429.474-.642.32-.222.794-.222h.046q.482 0 .795.222.321.213.473.642.16.42.161 1.046h-.267q0-.626.16-1.046.168-.429.481-.642.321-.222.795-.222h.046q.481 0 .802.222.32.213.481.642.168.42.169 1.046v2.369h-1.063v-2.468q0-.39-.198-.619-.199-.237-.566-.237a.76.76 0 0 0-.588.245q-.221.237-.221.642v2.437h-1.063v-2.468q0-.39-.198-.619-.199-.237-.566-.237a.76.76 0 0 0-.588.245q-.222.237-.222.642v2.437zm9.326.145q-.535 0-.94-.183a1.95 1.95 0 0 1-.664-.489 2.3 2.3 0 0 1-.398-.696 2.4 2.4 0 0 1-.13-.779v-.145q0-.412.13-.795.137-.39.398-.687.267-.306.657-.482.389-.183.901-.183.673 0 1.123.298.459.29.688.772.23.473.229 1.023v.383h-3.675v-.65h3.011l-.329.321q0-.398-.115-.68a.9.9 0 0 0-.351-.436 1.03 1.03 0 0 0-.581-.152q-.351 0-.596.16a1 1 0 0 0-.374.466 1.9 1.9 0 0 0-.122.718q0 .39.122.696.122.297.374.473.252.168.642.168t.634-.152a.72.72 0 0 0 .314-.39h.978a1.8 1.8 0 0 1-.352.749 1.7 1.7 0 0 1-.665.496 2.2 2.2 0 0 1-.909.176m2.882-.145v-4.149h.84v1.78h-.076q0-.633.168-1.054a1.3 1.3 0 0 1 .496-.642q.336-.214.833-.214h.046q.742 0 1.123.482.382.473.382 1.421v2.376h-1.062v-2.468q0-.382-.221-.619-.215-.237-.596-.237a.86.86 0 0 0-.635.245q-.236.237-.236.642v2.437zm6.757.053q-.573 0-.947-.145a1.06 1.06 0 0 1-.55-.504q-.184-.358-.184-.963l.008-3.759h.993l-.007 3.828q0 .306.16.474.168.16.474.16h.649v.909zm-2.338-3.423v-.779h2.934v.779z"/><g clip-path="url(#c)"><path fill="#FF36A2" fill-opacity=".18" stroke="#FF36A2" stroke-width=".998" d="M222.408 211.261a3.72 3.72 0 0 1 4.459 0l32.7 24.524a2.1 2.1 0 0 1 .836 1.672 2.09 2.09 0 0 1-.836 1.673l-32.7 24.524a3.72 3.72 0 0 1-4.459 0l-32.699-24.524a2.1 2.1 0 0 1-.836-1.673 2.09 2.09 0 0 1 .836-1.672z"/><path fill="#000" d="M207.198 240v-4.148h1.062V240zm-.58-3.354v-.794h1.642v.794zm.97-1.291q-.313 0-.466-.16a.6.6 0 0 1-.145-.413q0-.26.145-.42.153-.16.466-.161.314 0 .458.161a.6.6 0 0 1 .146.42q0 .244-.146.413-.144.16-.458.16m1.896 4.645v-4.148h.841v1.78h-.077q0-.635.168-1.055.168-.428.497-.641.336-.214.833-.214h.046q.74 0 1.123.481.381.474.382 1.421V240h-1.062v-2.468q0-.382-.222-.618-.214-.237-.596-.237a.86.86 0 0 0-.634.244q-.237.237-.237.642V240zm8.108.13q-.856 0-1.344-.359-.481-.367-.505-1.009h.955q.023.215.237.39t.672.176q.382 0 .604-.138.23-.137.229-.374a.38.38 0 0 0-.176-.329q-.168-.122-.58-.16l-.367-.038q-.695-.077-1.069-.398-.375-.321-.375-.855 0-.428.214-.718.215-.29.588-.436.382-.153.871-.153.764 0 1.238.336.474.337.497.986h-.955a.5.5 0 0 0-.214-.367q-.2-.153-.573-.152-.337 0-.52.129a.4.4 0 0 0-.183.337q0 .198.145.305.153.107.489.145l.367.038q.734.076 1.146.405.42.329.42.887 0 .412-.229.718a1.46 1.46 0 0 1-.627.466q-.405.168-.955.168m4.491-.077q-.573 0-.947-.145a1.06 1.06 0 0 1-.55-.504q-.184-.359-.184-.963l.008-3.758h.993l-.008 3.827q0 .306.161.474.168.16.474.16h.649v.909zm-2.338-3.422v-.779h2.934v.779zm5.797 3.514a2.5 2.5 0 0 1-.97-.176 2.1 2.1 0 0 1-.711-.473 2.2 2.2 0 0 1-.443-.688 2.2 2.2 0 0 1-.145-.794v-.161q0-.428.153-.81.16-.39.45-.687a2.05 2.05 0 0 1 .719-.474q.42-.176.947-.176t.947.176q.42.168.711.474.298.298.45.687.153.382.153.81v.161q0 .413-.153.794a2 2 0 0 1-.435.688q-.29.297-.711.473a2.5 2.5 0 0 1-.962.176m0-.909q.39 0 .657-.168.267-.176.405-.466.137-.299.137-.672 0-.382-.145-.673a1.05 1.05 0 0 0-.412-.466 1.15 1.15 0 0 0-.642-.175q-.375 0-.65.175a1.1 1.1 0 0 0-.412.466 1.5 1.5 0 0 0-.145.673q0 .374.137.672.146.29.413.466.267.168.657.168m5.032.909q-.542 0-.939-.183a2 2 0 0 1-.657-.489 2.1 2.1 0 0 1-.39-.688 2.4 2.4 0 0 1-.13-.779v-.145q0-.42.13-.802.138-.39.405-.688.267-.306.657-.481a2.2 2.2 0 0 1 .917-.184q.542 0 .97.214a1.69 1.69 0 0 1 .97 1.452h-1.031a.83.83 0 0 0-.275-.535q-.23-.214-.634-.214a1 1 0 0 0-.589.168 1 1 0 0 0-.343.466 1.8 1.8 0 0 0-.115.673q0 .367.107.664.114.298.344.466.237.168.603.168.276 0 .474-.099a.892.892 0 0 0 .466-.672h1.031q-.03.504-.298.886a1.77 1.77 0 0 1-.695.588 2.15 2.15 0 0 1-.978.214m5.725-.145-1.39-1.941h-.619l1.765-2.207h1.108l-1.628 2.039.023-.534 1.941 2.643zm-2.903 0v-5.577h1.062V240zm5.361-1.803v-1.36h.65q.458 0 .672-.237a.85.85 0 0 0 .221-.596.9.9 0 0 0-.099-.435.67.67 0 0 0-.29-.29.94.94 0 0 0-.443-.1.9.9 0 0 0-.474.115.8.8 0 0 0-.298.305.9.9 0 0 0-.107.444h-1.016q0-.489.222-.894.221-.405.649-.642.427-.245 1.047-.245.565 0 .97.222.412.215.634.588.221.375.221.848v.092q0 .466-.221.833a1.53 1.53 0 0 1-.657.58q-.427.207-1.047.222l.436-.397-.016.947zm-.084 1.803v-1.131h1.222V240z"/></g><path fill="#000" d="M322 335.415c0 .277.338.472.577.334l3.846-2.22c.239-.138.239-.529 0-.667l-3.846-2.22c-.239-.138-.577.057-.577.333zm-97.082-67.538a.5.5 0 1 0-1 0zm97.582 64.818h-97.082v1H322.5zm-97.582-.5v-64.318h-1v64.318zm.5.5a.5.5 0 0 1-.5-.5h-1a1.5 1.5 0 0 0 1.5 1.5zM180 239.416c0 .276.338.471.578.333l3.845-2.22c.239-.138.239-.529 0-.667l-3.845-2.22c-.24-.138-.578.057-.578.333zm-47.234-2.721a.5.5 0 0 0 0 1zm47.734 0h-47.734v1H180.5zM322 239.659c0 .276.338.471.577.333l3.846-2.22c.239-.138.239-.529 0-.667l-3.846-2.22c-.239-.138-.577.057-.577.334zm-58.163-2.72a.5.5 0 1 0 0 1zm58.663 0h-58.663v1H322.5z"/><rect width="19.404" height="8.82" x="214" y="287" fill="#D9D9D9" rx="2.352"/><path fill="#000" d="M219.121 294v-5.151h1.129l2.618 4.53h.226l-.141.127v-4.657h.663V294h-1.143l-2.618-4.53h-.226l.142-.127V294zm7.625.127a2.1 2.1 0 0 1-.867-.169 2 2 0 0 1-.636-.445 2 2 0 0 1-.388-.628 2 2 0 0 1-.127-.705v-.127q0-.36.134-.706.135-.353.396-.628a1.9 1.9 0 0 1 .635-.445q.374-.17.853-.169.48 0 .854.169.374.163.635.445.261.275.395.628.134.346.134.706v.127q0 .36-.134.705a1.903 1.903 0 0 1-1.016 1.073 2.1 2.1 0 0 1-.868.169m0-.607q.424 0 .72-.183.303-.191.459-.508.162-.318.162-.713 0-.402-.162-.72a1.24 1.24 0 0 0-.466-.501 1.33 1.33 0 0 0-.713-.183q-.408 0-.712.183a1.23 1.23 0 0 0-.466.501 1.56 1.56 0 0 0-.162.72q0 .395.155.713.162.317.459.508.303.183.726.183"/><rect width="18.9" height="8.591" x="281" y="233" fill="#D9D9D9" rx="2.291"/><path fill="#000" d="m286.206 238.048-1.595-3.065h.701l1.347 2.625-.261-.075h.811l-.275.075 1.265-2.625h.66l-1.499 3.065zm.247 1.952v-2.089h.66V240zm4.342.124q-.481 0-.832-.165a1.6 1.6 0 0 1-.57-.433 1.9 1.9 0 0 1-.33-.612 2.3 2.3 0 0 1-.103-.687v-.124q0-.358.103-.694.11-.337.33-.605.22-.274.556-.433.344-.165.804-.165.599 0 .983.261.392.255.578.66.192.405.192.866v.296h-3.258v-.495h2.777l-.151.268a1.7 1.7 0 0 0-.124-.674.97.97 0 0 0-.371-.446q-.248-.158-.626-.158-.391 0-.653.178a1.1 1.1 0 0 0-.384.488 1.9 1.9 0 0 0-.124.715q0 .392.124.708.13.309.398.495.268.178.681.178.432 0 .701-.192.274-.192.33-.447h.618q-.075.378-.302.653a1.5 1.5 0 0 1-.571.419 2 2 0 0 1-.776.145m3.85-.014q-.721 0-1.12-.309-.392-.309-.405-.846h.618q.013.214.213.406.207.185.694.185.44 0 .674-.171.234-.18.234-.433a.41.41 0 0 0-.172-.351q-.172-.13-.557-.172l-.398-.041q-.523-.055-.853-.309-.33-.261-.33-.729 0-.35.179-.598.178-.254.495-.385.317-.137.728-.137.619 0 1.004.275t.399.818h-.619a.47.47 0 0 0-.206-.371q-.192-.158-.578-.158-.384 0-.584.158a.49.49 0 0 0-.199.398q0 .207.137.33.145.124.468.158l.398.041q.591.063.949.33.357.261.357.743a1 1 0 0 1-.199.611 1.3 1.3 0 0 1-.536.413 2 2 0 0 1-.791.144M443.284 335.416c0 .276.339.471.578.333l3.845-2.22c.239-.138.239-.529 0-.667l-3.845-2.22c-.239-.138-.578.057-.578.333zm-41.518-2.72a.5.5 0 1 0 0 1zm42.018 0h-42.018v1h42.018zM446 239.416c0 .276.338.471.578.333l3.845-2.22c.239-.138.239-.529 0-.667l-3.845-2.22c-.24-.138-.578.057-.578.333zm-44.234-2.721a.5.5 0 0 0 0 1zm44.734 0h-44.734v1H446.5z"/><path fill="#FFD084" d="M148 131.863c0-1.029.834-1.863 1.863-1.863h228.274c1.029 0 1.863.834 1.863 1.863v19.274a1.863 1.863 0 0 1-1.863 1.863H149.863a1.863 1.863 0 0 1-1.863-1.863z"/><path fill="#000" d="M204.107 145.171q-.89 0-1.546-.315a3.3 3.3 0 0 1-1.074-.819 3.8 3.8 0 0 1-.631-1.098 3.5 3.5 0 0 1-.199-1.143l.002-.198a3.52 3.52 0 0 1 .88-2.286 3.2 3.2 0 0 1 1.095-.774q.65-.297 1.523-.297.864 0 1.51.297.646.288 1.074.774.438.486.649 1.089.213.594.208 1.197l-.002.198a3.3 3.3 0 0 1-.224 1.143q-.211.585-.647 1.098a3.2 3.2 0 0 1-1.086.819q-.65.315-1.532.315m.009-1.188q.504 0 .901-.18.406-.18.687-.495a2.2 2.2 0 0 0 .438-.729q.156-.414.159-.873a2.6 2.6 0 0 0-.146-.909 1.98 1.98 0 0 0-1.108-1.197 2.3 2.3 0 0 0-.899-.171q-.504 0-.91.171a2 2 0 0 0-.696.477 2.2 2.2 0 0 0-.437.72 2.8 2.8 0 0 0-.151.909q-.003.459.138.873.15.405.426.729.286.315.69.495t.908.18m4.593 1.017.036-4.887h.99l-.015 2.07h-.027q.008-1.053.461-1.593.454-.54 1.327-.54h.18l-.008 1.089h-.342q-.63 0-.983.342-.345.333-.349.972L209.96 145zm5.742.162q-.513 0-.944-.189a2.2 2.2 0 0 1-.743-.531 2.4 2.4 0 0 1-.48-.792 2.8 2.8 0 0 1-.164-.99l.001-.189q.004-.522.169-.981.175-.459.474-.801.309-.342.733-.531a2.3 2.3 0 0 1 .955-.198q.576 0 1.007.252.439.243.696.738.258.495.279 1.242l-.365-.432.024-3.33h1.251l-.048 6.57h-.99l.015-2.079h.216q-.032.747-.315 1.251a1.9 1.9 0 0 1-.743.747 2.14 2.14 0 0 1-1.028.243m.287-1.053q.369 0 .676-.162.308-.171.489-.486.192-.324.195-.756l.002-.36q.003-.432-.184-.72a1.2 1.2 0 0 0-.491-.45 1.4 1.4 0 0 0-.665-.162q-.405 0-.722.198a1.34 1.34 0 0 0-.489.54 1.85 1.85 0 0 0-.177.819q-.005.468.174.819.177.342.482.531.314.189.71.189m6.168 1.062q-.63 0-1.106-.216a2.3 2.3 0 0 1-.778-.576 2.7 2.7 0 0 1-.462-.819q-.15-.45-.147-.918l.001-.171a2.9 2.9 0 0 1 .16-.936q.165-.459.474-.81.318-.36.778-.567a2.5 2.5 0 0 1 1.064-.216q.792 0 1.32.351.537.342.803.909.267.558.262 1.206l-.003.45h-4.329l.005-.765h3.546l-.39.378a2.1 2.1 0 0 0-.129-.801 1.06 1.06 0 0 0-.41-.513q-.269-.18-.683-.18t-.703.189a1.2 1.2 0 0 0-.445.549 2.2 2.2 0 0 0-.15.846q-.004.459.138.819.141.351.437.558.295.198.754.198.46 0 .749-.18.29-.189.372-.459h1.152q-.112.504-.42.882a2.05 2.05 0 0 1-.788.585q-.47.207-1.072.207m3.395-.171.035-4.887h.99l-.015 2.07h-.027q.008-1.053.462-1.593t1.327-.54h.18l-.008 1.089h-.342q-.63 0-.983.342-.345.333-.349.972l-.019 2.547zm6.907-2.016.008-1.107h1.278q.387 0 .649-.153a1 1 0 0 0 .408-.423q.146-.27.149-.621a1.3 1.3 0 0 0-.14-.621.93.93 0 0 0-.402-.414 1.26 1.26 0 0 0-.647-.153h-1.278l.008-1.107h1.17q.829 0 1.402.27.583.27.886.774.302.495.297 1.179l-.001.144q-.005.684-.314 1.188-.31.495-.897.774-.578.27-1.406.27zM230.095 145l.048-6.615h1.278l-.048 6.615zm5.86 0 .036-4.887h.99l-.015 2.07h-.027q.008-1.053.461-1.593.454-.54 1.327-.54h.18l-.008 1.089h-.342q-.63 0-.983.342-.345.333-.349.972l-.019 2.547zm6.066.171a2.9 2.9 0 0 1-1.141-.207 2.5 2.5 0 0 1-.833-.558 2.5 2.5 0 0 1-.517-.81 2.6 2.6 0 0 1-.164-.936l.001-.189a2.6 2.6 0 0 1 .187-.954 2.6 2.6 0 0 1 .537-.81q.354-.36.85-.558a2.9 2.9 0 0 1 1.118-.207q.62 0 1.114.207.494.198.833.558a2.3 2.3 0 0 1 .525.81q.177.45.173.954l-.001.189a2.5 2.5 0 0 1-.187.936q-.174.45-.518.81-.345.351-.841.558-.497.207-1.136.207m.008-1.071q.459 0 .775-.198.316-.207.481-.549a1.9 1.9 0 0 0 .168-.792q.003-.45-.165-.792a1.22 1.22 0 0 0-.483-.549 1.34 1.34 0 0 0-.754-.207 1.4 1.4 0 0 0-.767.207q-.316.198-.489.549a1.75 1.75 0 0 0-.177.792q-.003.441.156.792.168.342.482.549.314.198.773.198m5.92 1.071q-.639 0-1.105-.216a2.3 2.3 0 0 1-.77-.576 2.5 2.5 0 0 1-.453-.81 2.8 2.8 0 0 1-.146-.918l.001-.171q.003-.495.16-.945.165-.459.482-.81.318-.36.779-.567a2.6 2.6 0 0 1 1.081-.216q.639 0 1.141.252.502.243.796.684.303.441.335 1.026h-1.215a.97.97 0 0 0-.32-.63q-.268-.252-.745-.252-.414 0-.694.198a1.2 1.2 0 0 0-.409.549 2.1 2.1 0 0 0-.141.792q-.003.432.121.783.132.351.401.549.277.198.709.198.324 0 .559-.117a.93.93 0 0 0 .371-.324q.145-.207.184-.468h1.215a2 2 0 0 1-.359 1.044 2.1 2.1 0 0 1-.824.693 2.55 2.55 0 0 1-1.154.252m5.512 0q-.63 0-1.106-.216a2.3 2.3 0 0 1-.779-.576 2.7 2.7 0 0 1-.462-.819q-.15-.45-.146-.918l.001-.171q.004-.486.16-.936.165-.459.474-.81.317-.36.778-.567a2.5 2.5 0 0 1 1.063-.216q.792 0 1.321.351.537.342.803.909.267.558.261 1.206l-.003.45h-4.329l.006-.765h3.546l-.39.378a2.1 2.1 0 0 0-.129-.801 1.06 1.06 0 0 0-.41-.513q-.27-.18-.683-.18a1.26 1.26 0 0 0-.704.189 1.2 1.2 0 0 0-.445.549 2.3 2.3 0 0 0-.15.846q-.003.459.138.819.142.351.437.558.297.198.755.198.459 0 .748-.18a.85.85 0 0 0 .373-.459h1.152a2.1 2.1 0 0 1-.421.882 2.05 2.05 0 0 1-.787.585q-.47.207-1.072.207m5.167-.018q-1.008 0-1.581-.423-.564-.432-.586-1.188h1.125q.025.252.276.459.25.207.791.207.45 0 .712-.162.271-.162.273-.441a.45.45 0 0 0-.204-.387q-.197-.144-.683-.189l-.432-.045q-.818-.09-1.256-.468t-.434-1.008q.003-.504.258-.846t.697-.513q.451-.18 1.027-.18.9 0 1.455.396t.577 1.161h-1.125a.58.58 0 0 0-.249-.432q-.233-.18-.674-.18-.396 0-.613.153a.47.47 0 0 0-.219.396.42.42 0 0 0 .169.36q.179.126.575.171l.431.045q.864.09 1.347.477.492.387.487 1.044a1.38 1.38 0 0 1-.276.846 1.73 1.73 0 0 1-.742.549q-.478.198-1.126.198m4.939 0q-1.008 0-1.581-.423-.564-.432-.585-1.188h1.125q.026.252.276.459t.79.207q.45 0 .712-.162.271-.162.273-.441a.44.44 0 0 0-.204-.387q-.197-.144-.682-.189l-.432-.045q-.819-.09-1.257-.468t-.434-1.008q.004-.504.259-.846.253-.342.696-.513a2.8 2.8 0 0 1 1.028-.18q.9 0 1.455.396t.576 1.161h-1.125a.58.58 0 0 0-.249-.432q-.232-.18-.673-.18-.397 0-.613.153a.47.47 0 0 0-.219.396.42.42 0 0 0 .168.36q.18.126.575.171l.432.045q.863.09 1.346.477.492.387.488 1.044a1.4 1.4 0 0 1-.276.846 1.73 1.73 0 0 1-.742.549q-.479.198-1.127.198m3.402-.153.035-4.887h1.251L268.22 145zm-.656-3.951.007-.936h1.935l-.007.936zm1.154-1.521q-.369 0-.547-.189a.72.72 0 0 1-.168-.486.72.72 0 0 1 .175-.495q.181-.189.55-.189t.539.189a.7.7 0 0 1 .167.495.72.72 0 0 1-.174.486q-.173.189-.542.189m2.195 5.472.035-4.887h.99l-.015 2.097h-.09q.005-.747.207-1.242.201-.504.59-.756.398-.252.983-.252h.054q.873 0 1.319.567.446.558.438 1.674l-.02 2.799h-1.251l.02-2.907q.004-.45-.255-.729-.25-.279-.7-.279-.46 0-.749.288-.281.279-.285.756l-.02 2.871zm7.73 1.926a10 10 0 0 1-1.395-.099l.008-1.044q.324.036.692.063.369.036.693.036.603 0 .973-.144.38-.144.552-.459.183-.306.186-.783l.007-.963.274-.612q-.032.675-.287 1.152-.255.468-.689.72a2 2 0 0 1-1.001.243q-.504 0-.916-.189-.404-.189-.699-.522a2.4 2.4 0 0 1-.444-.783 2.8 2.8 0 0 1-.155-.963l.001-.189q.004-.513.169-.954.174-.45.483-.783a2.1 2.1 0 0 1 .732-.513q.425-.18.938-.18.603 0 1.042.261.448.261.696.756.249.495.271 1.215l-.217.036.016-2.115h.99l-.031 4.311q-.007.891-.317 1.44-.309.549-.951.801-.631.261-1.621.261m.381-2.961q.36 0 .658-.162t.48-.468.186-.738l.002-.315a1.24 1.24 0 0 0-.184-.702 1.13 1.13 0 0 0-.474-.432 1.4 1.4 0 0 0-.647-.153q-.396 0-.703.189-.298.18-.472.513a1.7 1.7 0 0 0-.176.792q-.004.45.165.783.168.333.464.513.305.18.701.18m6.989 1.035-1.626-6.57h1.323l1.318 5.715-.35-.207h.9l-.397.207 1.11-5.463h1.098L286.76 145zm3.924 0-1.403-6.318h1.143l1.194 5.463-.386-.207h.882l-.343.207 1.238-5.715h1.251L290.72 145zm6.57.171a2.9 2.9 0 0 1-1.141-.207 2.5 2.5 0 0 1-.833-.558 2.5 2.5 0 0 1-.516-.81 2.6 2.6 0 0 1-.165-.936l.002-.189a2.6 2.6 0 0 1 .187-.954q.192-.459.537-.81.353-.36.85-.558a2.9 2.9 0 0 1 1.117-.207q.621 0 1.115.207.493.198.833.558.348.351.525.81.176.45.173.954l-.002.189a2.5 2.5 0 0 1-.186.936q-.174.45-.519.81-.345.351-.841.558-.497.207-1.136.207m.008-1.071q.46 0 .776-.198.317-.207.48-.549a1.9 1.9 0 0 0 .168-.792q.003-.45-.165-.792a1.2 1.2 0 0 0-.482-.549 1.34 1.34 0 0 0-.755-.207q-.44 0-.766.207a1.33 1.33 0 0 0-.49.549 1.75 1.75 0 0 0-.177.792q-.003.441.156.792.17.342.483.549.313.198.772.198m3.753.9.035-4.887h.99l-.015 2.07H300q.007-1.053.462-1.593.454-.54 1.327-.54h.18l-.008 1.089h-.342q-.63 0-.984.342-.344.333-.349.972l-.018 2.547zm7.173 0-1.622-2.286h-.729l2.098-2.601h1.305l-1.934 2.403.031-.63 2.264 3.114zm-3.42 0 .047-6.57h1.251l-.047 6.57zm5.592 0 .036-4.932q.006-.837.468-1.233.471-.405 1.38-.405h.432l-.007.954h-.522q-.28 0-.433.153-.145.144-.147.414l-.037 5.049zm-.575-3.861.007-.918h2.907l-.007.918zm3.851 3.861.048-6.57h1.251l-.048 6.57zm-.526-5.634.007-.936h1.818l-.007.936zm5.555 5.805q-.648 0-1.142-.207a2.5 2.5 0 0 1-.833-.558 2.5 2.5 0 0 1-.516-.81 2.6 2.6 0 0 1-.164-.936l.001-.189a2.6 2.6 0 0 1 .187-.954q.192-.459.537-.81.353-.36.85-.558a2.9 2.9 0 0 1 1.117-.207q.621 0 1.115.207.493.198.833.558.348.351.525.81.176.45.173.954l-.001.189a2.5 2.5 0 0 1-.187.936q-.174.45-.519.81-.345.351-.841.558a2.9 2.9 0 0 1-1.135.207m.007-1.071q.46 0 .776-.198.316-.207.481-.549.164-.351.167-.792.003-.45-.165-.792a1.2 1.2 0 0 0-.482-.549 1.34 1.34 0 0 0-.755-.207q-.44 0-.766.207a1.33 1.33 0 0 0-.49.549 1.75 1.75 0 0 0-.177.792q-.003.441.157.792.168.342.482.549.313.198.772.198m5.322.9.961-4.725h1.44l1.037 4.725h-.99l-1.055-4.698h.522l-.997 4.698zm-.369 0-.002-1.026h.999l-.007 1.026zm-.504 0-1.297-4.887h1.215l1.234 4.887zm3.636 0 .007-1.026h.999l-.016 1.026zm.396 0 1.16-4.887h1.134L326.235 145z"/><rect width="517.227" height="47.679" x="28.387" y="20.387" fill="#fff" stroke="#EEE" stroke-width=".774" rx="7.349"/><rect width="101.038" height="22.498" x="35.043" y="38.696" stroke="#6762FE" stroke-width=".678" rx="4.957"/><path fill="#000" d="M42.894 53v-6.154h.826V53zm.657-2.74v-.741l2.639-.009v.742zm0-2.672v-.742h2.782v.742zM47.592 53v-6.154h.81V53zm-.623-5.513v-.64h1.433v.64zm5.058 5.665a2.5 2.5 0 0 1-1.036-.203 2.4 2.4 0 0 1-.76-.53 2.4 2.4 0 0 1-.463-.75 2.4 2.4 0 0 1-.151-.844v-.152q0-.429.16-.843.16-.42.472-.75.312-.336.758-.53a2.45 2.45 0 0 1 1.02-.203q.574 0 1.02.202.447.194.76.531.31.33.471.75.16.414.16.843v.152q0 .43-.16.843a2.2 2.2 0 0 1-.463.75q-.305.33-.75.531a2.5 2.5 0 0 1-1.038.203m0-.725q.507 0 .86-.22.363-.227.548-.606.195-.38.194-.852 0-.48-.194-.86a1.47 1.47 0 0 0-.556-.598 1.6 1.6 0 0 0-.852-.22q-.489 0-.851.22a1.47 1.47 0 0 0-.556.599q-.195.378-.194.86 0 .471.185.85.195.38.548.608.363.219.868.219m4.856.573.91-4.35h1.096L59.951 53h-.69l-1.063-4.333h.27L57.548 53zm-.413 0v-.64h.936V53zm-.185 0-1.273-4.501h.775L57.027 53zm3.144 0v-.64h.935V53zm.379 0 1.079-4.501h.733L60.516 53zm4.753.152q-.581 0-1.011-.203a2 2 0 0 1-.7-.54 2.5 2.5 0 0 1-.421-.758 2.7 2.7 0 0 1-.135-.826v-.152a2.7 2.7 0 0 1 .135-.843q.143-.412.421-.741a2.1 2.1 0 0 1 .708-.54q.422-.202.986-.202t1.012.21q.455.21.725.6.278.378.312.901h-.776a1.09 1.09 0 0 0-.387-.7q-.33-.285-.886-.286-.48 0-.8.219a1.34 1.34 0 0 0-.48.599q-.161.378-.161.86 0 .462.16.85.16.38.48.608.33.219.818.219.38 0 .658-.135.278-.134.447-.363.169-.227.202-.514h.775a1.64 1.64 0 0 1-.311.92q-.279.387-.742.606a2.4 2.4 0 0 1-1.029.21M67.743 53v-6.154h.81v3.676h-.203q0-.666.169-1.147.176-.489.539-.75.362-.261.927-.261h.034q.81 0 1.222.54.413.53.413 1.525V53h-.809v-2.74q0-.548-.312-.851-.303-.303-.792-.303-.54 0-.868.362-.32.354-.32.936V53zm8.115 0v-1.349h-.135v-1.56q0-.462-.245-.699-.235-.236-.7-.236-.26 0-.539.009l-.53.016a8 8 0 0 0-.44.026v-.708q.186-.018.388-.026.211-.016.43-.017.22-.008.422-.008.69 0 1.13.169.438.16.648.53.211.371.211 1.004V53zm-1.476.118q-.506 0-.876-.169a1.34 1.34 0 0 1-.565-.505 1.53 1.53 0 0 1-.194-.793q0-.48.21-.8.22-.32.633-.481.413-.168.995-.169h1.222v.607h-1.256q-.489 0-.75.236a.78.78 0 0 0-.261.607q0 .37.26.599.262.227.751.227.287 0 .548-.1a.97.97 0 0 0 .43-.355q.177-.252.194-.691l.219.32q-.042.48-.236.81a1.2 1.2 0 0 1-.523.488q-.329.17-.8.169M77.985 53v-4.501h.64v1.854h-.034q0-.986.43-1.441.439-.464 1.307-.464h.152v.725h-.287q-.674 0-1.037.362-.362.355-.362 1.029V53zm5.293.05a2.4 2.4 0 0 1-.877-.143 1.1 1.1 0 0 1-.565-.489q-.195-.354-.194-.952v-4.333h.776v4.434q0 .363.194.565.203.194.564.194h.793v.725zm-2.411-3.944v-.607h3.102v.607zM87.148 53v-6.154h1.096l1.821 4.106h.135l1.812-4.105h1.105V53h-.827v-5.252l.06.017-1.745 3.962h-1.012l-1.753-3.962.067-.017V53zm10.36 0v-1.349h-.135v-1.56q0-.462-.245-.699-.235-.236-.7-.236-.26 0-.539.009l-.53.016a8 8 0 0 0-.44.026v-.708q.186-.018.389-.026.21-.016.43-.017.219-.008.42-.008.692 0 1.13.169.44.16.65.53.21.371.21 1.004V53zm-1.475.118q-.507 0-.877-.169a1.34 1.34 0 0 1-.565-.505 1.53 1.53 0 0 1-.194-.793q0-.48.21-.8.22-.32.633-.481.413-.168.995-.169h1.222v.607h-1.256q-.489 0-.75.236a.78.78 0 0 0-.261.607q0 .37.26.599.262.227.751.227.287 0 .548-.1a.97.97 0 0 0 .43-.355q.177-.252.194-.691l.219.32q-.042.48-.236.81a1.2 1.2 0 0 1-.523.488q-.329.17-.8.169m6.703-.118-1.695-2.099h-.742l2.066-2.402h.851l-1.871 2.166.059-.43L103.671 53zm-3.103 0v-6.154h.81V53zm6.647.152q-.59 0-1.02-.203a2 2 0 0 1-.699-.53 2.4 2.4 0 0 1-.405-.75 2.9 2.9 0 0 1-.126-.844v-.152q0-.438.126-.85.135-.414.405-.743.27-.336.683-.53.421-.204.986-.203.734 0 1.205.32.482.312.708.81.237.497.236 1.062v.362h-3.995v-.607h3.405l-.185.329q0-.48-.152-.826a1.2 1.2 0 0 0-.455-.548q-.303-.195-.767-.194-.48 0-.801.22a1.36 1.36 0 0 0-.472.598 2.4 2.4 0 0 0-.152.876q0 .48.152.869.16.379.489.606.329.22.834.22.531 0 .86-.236.337-.236.405-.548h.758a1.8 1.8 0 0 1-.37.8 1.8 1.8 0 0 1-.7.515 2.4 2.4 0 0 1-.953.177m3.248-.152v-4.501h.641v1.854h-.034q0-.986.43-1.441.438-.464 1.307-.464h.151v.725h-.286q-.674 0-1.037.362-.362.355-.362 1.029V53z"/><g clip-path="url(#d)"><rect width="80.844" height="23.176" x="141.161" y="38.357" fill="#fff" fill-opacity=".38" rx="5.296"/><path fill="#000" d="M149.517 52.655V46.5h.641v6.154zm2.433 0v-4.468h.506v1.88h-.101q0-.615.168-1.062.177-.447.523-.691.346-.253.877-.253h.025q.53 0 .877.244.345.245.514.691.168.447.169 1.07h-.203q0-.614.169-1.061.177-.447.522-.691.354-.253.886-.253h.025q.531 0 .876.244.355.245.523.691.177.447.177 1.07v2.589h-.632v-2.731q0-.591-.287-.936-.286-.345-.826-.346-.556 0-.885.363-.32.354-.32.96v2.69h-.632v-2.731q0-.591-.287-.936-.286-.345-.826-.346-.557 0-.885.363-.321.354-.321.96v2.69zm10.823 0v-1.34h-.101V49.73q0-.498-.261-.759-.262-.27-.81-.27a16 16 0 0 0-1.003.034 7 7 0 0 0-.404.025v-.556l.379-.034q.194-.017.396-.017.21-.008.405-.008.682 0 1.096.169.421.168.615.53.194.355.194.945v2.866zm-1.509.118q-.472 0-.834-.169a1.3 1.3 0 0 1-.565-.489 1.47 1.47 0 0 1-.194-.775q0-.446.202-.759.211-.312.599-.472.396-.168.952-.169h1.307v.481h-1.349q-.53 0-.817.261a.86.86 0 0 0-.279.666q0 .422.295.675.296.244.801.244.312 0 .599-.11a1.1 1.1 0 0 0 .48-.387q.194-.279.211-.759l.185.261q-.033.498-.236.835-.202.329-.548.497-.345.17-.809.169m5.297 1.627q-.312 0-.632-.034a9 9 0 0 1-.599-.068v-.539q.303.041.632.068.338.033.632.033.642 0 1.02-.168.38-.17.54-.54.168-.363.168-.96v-.894l.237-.624q-.018.64-.27 1.104a1.8 1.8 0 0 1-.683.7 1.95 1.95 0 0 1-.978.244q-.48 0-.877-.185a2 2 0 0 1-.665-.506 2.479 2.479 0 0 1-.582-1.61v-.118q0-.447.152-.851.151-.413.43-.725.278-.321.674-.498.405-.185.893-.185.591 0 1.029.261t.683.725q.252.465.269 1.087l-.202-.11v-1.811h.497v3.97q0 .801-.236 1.29-.236.488-.758.716-.514.228-1.374.228m.177-2.26q.455 0 .809-.193.363-.202.573-.565.211-.363.211-.843v-.413a1.5 1.5 0 0 0-.219-.81 1.5 1.5 0 0 0-.565-.539 1.66 1.66 0 0 0-.809-.194q-.489 0-.852.236-.362.237-.556.641a2 2 0 0 0-.194.902q0 .514.194.919.202.404.565.632t.843.228m5.638.658q-.573 0-.994-.194a2 2 0 0 1-.692-.53 2.4 2.4 0 0 1-.404-.751 2.9 2.9 0 0 1-.127-.852v-.117q0-.43.127-.843.135-.414.404-.742.27-.33.675-.523.412-.202.961-.202.7 0 1.163.312.472.312.708.8.236.48.236 1.037v.33h-3.987v-.49h3.549l-.16.245q0-.498-.177-.869a1.3 1.3 0 0 0-.506-.59q-.329-.219-.826-.219-.523 0-.869.245-.345.244-.522.649a2.4 2.4 0 0 0-.169.919q0 .506.169.927.177.412.531.657.362.245.91.245.582 0 .944-.262.363-.27.447-.632h.59a1.7 1.7 0 0 1-.354.776q-.27.32-.683.497t-.944.177"/><path stroke="#6762FE" stroke-linecap="round" stroke-linejoin="round" stroke-width="1.22" d="m205.671 48.858 2.592 2.606c.176.177.264.266.373.266.11 0 .198-.089.374-.266l2.591-2.606"/></g><rect width="80.167" height="22.498" x="141.5" y="38.696" stroke="#6762FE" stroke-width=".678" rx="4.957"/><g clip-path="url(#e)"><rect width="80.844" height="23.176" x="226.751" y="38.357" fill="#fff" fill-opacity=".38" rx="5.296"/><path fill="#000" d="M236.604 52.807q-.599 0-1.088-.253a1.9 1.9 0 0 1-.775-.75q-.279-.498-.279-1.24v-.21h.827v.362q0 .632.37.986.371.345.945.346.573 0 .944-.346.37-.354.371-.986v-3.642h.826v3.49q0 .742-.287 1.24a1.82 1.82 0 0 1-.767.75q-.48.252-1.087.252m-1.332-5.564v-.742h3.473v.742zm5.813 3.27v-.724h1.374q.438 0 .725-.169.286-.177.43-.472.152-.296.152-.657 0-.372-.152-.666a1.07 1.07 0 0 0-.43-.464q-.287-.168-.725-.168h-1.374v-.725h1.222q.76 0 1.265.244.514.236.775.674.262.439.262 1.037v.135q0 .59-.262 1.037-.26.438-.775.683-.506.236-1.265.236zm-.657 2.142v-6.187h.826v6.187zm8.139.151q-.716 0-1.298-.235a2.9 2.9 0 0 1-1.003-.666 3 3 0 0 1-.64-1.012 3.5 3.5 0 0 1-.228-1.281v-.186q0-.59.202-1.138.211-.555.599-.994.396-.447.961-.7a3 3 0 0 1 1.273-.261q.767 0 1.365.295.599.285.961.809.362.514.422 1.197h-.843q-.06-.515-.338-.852a1.7 1.7 0 0 0-.691-.514 2.2 2.2 0 0 0-.876-.177q-.482 0-.885.177-.405.17-.7.49-.287.32-.447.766-.16.448-.16 1.003 0 .633.169 1.113.177.473.488.792.312.312.734.473.43.16.935.16.717 0 1.256-.287.549-.296.827-.758l-.304 1.003v-1.83h.776v1.467q-.414.54-1.062.843-.65.303-1.493.303m-.219-2.444v-.691h3.296v.691z"/><path stroke="#6762FE" stroke-linecap="round" stroke-linejoin="round" stroke-width="1.22" d="m291.265 48.858 2.591 2.606c.176.177.264.266.373.266.11 0 .198-.089.374-.266l2.591-2.606"/></g><rect width="80.167" height="22.498" x="227.09" y="38.696" stroke="#6762FE" stroke-width=".678" rx="4.957"/><rect width="87.832" height="22.503" x="312.679" y="38.704" fill="#fff" stroke="#6762FE" stroke-width=".678" rx="4.957"/><path fill="#6762FE" d="M343.334 52.865q-.834 0-1.433-.287a2.85 2.85 0 0 1-.978-.767 3.4 3.4 0 0 1-.565-1.028 3.6 3.6 0 0 1-.177-1.08v-.185q0-.572.186-1.13.185-.564.565-1.02.387-.454.969-.724.59-.279 1.391-.278.834 0 1.475.312.64.311 1.02.868a2.6 2.6 0 0 1 .455 1.29h-1.391a1.3 1.3 0 0 0-.269-.633 1.4 1.4 0 0 0-.548-.404 1.8 1.8 0 0 0-.742-.144q-.413 0-.734.144-.32.143-.539.404-.211.261-.329.624-.11.354-.109.792 0 .43.109.793.118.354.337.624.228.261.557.404.329.135.75.135.64 0 1.079-.312a1.26 1.26 0 0 0 .539-.86h1.383q-.076.675-.455 1.24-.372.555-1.02.893-.64.33-1.526.329m3.842-.16v-4.62h1.071v1.981h-.026q0-.978.413-1.509.422-.53 1.214-.53h.177v1.163h-.337q-.556 0-.86.303-.303.295-.303.86v2.352zm5.774.16q-.607 0-1.079-.186a2.4 2.4 0 0 1-.801-.522 2.3 2.3 0 0 1-.489-.75 2.5 2.5 0 0 1-.168-.902v-.194q0-.48.168-.91.177-.44.506-.768.338-.328.809-.514.472-.195 1.054-.194.599 0 1.062.194.473.186.801.514.329.33.506.767.177.43.177.91v.194q0 .473-.169.902a2.2 2.2 0 0 1-.497.75 2.3 2.3 0 0 1-.792.523 3 3 0 0 1-1.088.186m0-1.138q.396 0 .658-.169.261-.169.396-.472.143-.303.143-.674 0-.396-.143-.691a1.116 1.116 0 0 0-1.054-.657q-.37-.001-.641.176a1.16 1.16 0 0 0-.413.48 1.7 1.7 0 0 0-.134.692q0 .37.134.674.135.303.405.472a1.2 1.2 0 0 0 .649.169m3.487 2.664v-6.306h1.071v1.998l-.144-.008q.034-.691.287-1.164.253-.48.683-.716.429-.245.969-.245.48 0 .868.177.396.177.675.498.286.312.43.742.151.42.151.927v.194q0 .497-.143.935a2.2 2.2 0 0 1-.421.75q-.27.321-.666.506a2.1 2.1 0 0 1-.894.177q-.522 0-.944-.21a1.67 1.67 0 0 1-.666-.658q-.253-.447-.278-1.13l.371.506v3.027zm2.487-2.664q.346 0 .598-.169a1.1 1.1 0 0 0 .405-.472q.143-.303.143-.7t-.143-.69a1.07 1.07 0 0 0-1.003-.624q-.304 0-.573.143-.27.143-.439.413-.16.261-.16.64v.312q0 .363.169.624.177.253.446.388.27.135.557.135m5.303.978V46.55h1.382v6.154zm2.706 0v-4.62h1.07v1.99h-.076q0-.71.178-1.18.177-.472.531-.709.354-.244.868-.244h.059q.522 0 .868.244.354.237.531.709.186.47.186 1.18h-.329q0-.71.177-1.18.185-.472.539-.709.354-.244.869-.244h.059q.522 0 .876.244.363.237.548.709.186.47.186 1.18v2.63h-1.349v-2.706q0-.38-.202-.616-.194-.236-.557-.236a.72.72 0 0 0-.573.245q-.21.236-.211.632v2.68h-1.357V50q0-.38-.202-.616-.194-.236-.548-.236-.37 0-.582.245-.21.236-.21.632v2.68zm11.08 0v-1.366h-.228v-1.484q0-.354-.169-.53-.168-.178-.539-.178-.186 0-.489.009t-.624.025q-.32.017-.581.034v-1.138a21 21 0 0 1 .994-.06q.279-.008.523-.008.708 0 1.188.203.49.202.742.615.253.405.253 1.045v2.833zm-1.476.118q-.497 0-.876-.177a1.4 1.4 0 0 1-.582-.506 1.5 1.5 0 0 1-.211-.801q0-.505.262-.826.26-.33.733-.48.472-.16 1.087-.16h.987v.75h-.995q-.354 0-.548.177-.186.169-.185.463a.6.6 0 0 0 .185.455q.194.17.548.169.228 0 .405-.076a.7.7 0 0 0 .303-.278q.119-.195.135-.54l.32.338q-.042.48-.236.809-.185.329-.522.506-.33.177-.81.177m5.511 1.72a10 10 0 0 1-1.34-.093V53.31q.295.043.649.068.363.033.657.034.549 0 .886-.127a.95.95 0 0 0 .505-.388q.16-.252.16-.657v-.919l.245-.54q-.017.615-.245 1.054a1.6 1.6 0 0 1-.615.675q-.396.227-.944.227-.472 0-.86-.168a1.9 1.9 0 0 1-.649-.49 2.2 2.2 0 0 1-.413-.724 2.8 2.8 0 0 1-.143-.91v-.194q0-.49.152-.91.151-.422.438-.734t.683-.48q.396-.178.876-.178.557 0 .961.245.414.245.649.716.237.472.253 1.138l-.185.05v-2.014h1.07v4.072q0 .85-.303 1.374-.304.522-.927.767-.616.244-1.56.244m.38-2.943q.311 0 .564-.135.253-.143.396-.404a1.23 1.23 0 0 0 .152-.632v-.245q0-.362-.16-.607a.97.97 0 0 0-.405-.38 1.1 1.1 0 0 0-.539-.134q-.337 0-.599.16a1.07 1.07 0 0 0-.404.447 1.5 1.5 0 0 0-.143.674q0 .396.143.683.152.279.404.43.262.144.591.143m5.694 1.265q-.59 0-1.045-.203a2.2 2.2 0 0 1-.75-.539 2.6 2.6 0 0 1-.456-.767 2.6 2.6 0 0 1-.151-.877v-.168q0-.465.151-.886.16-.43.456-.767.294-.336.733-.53a2.4 2.4 0 0 1 1.011-.203q.743 0 1.248.337.514.33.784.868.27.531.27 1.164v.455h-4.089v-.767h3.271l-.438.354q0-.413-.118-.708a.92.92 0 0 0-.354-.447.97.97 0 0 0-.574-.16q-.354 0-.598.16a1 1 0 0 0-.371.472 2 2 0 0 0-.126.75q0 .414.118.725.117.304.371.472.252.17.657.169.371 0 .607-.143a.74.74 0 0 0 .32-.354h1.239q-.1.463-.396.826-.295.362-.742.564-.446.203-1.028.203M325.183 43.68a.7.7 0 0 0-.178.128c-.151.16-.156.188-.156 1.035v.766h-.77c-.862 0-.887.005-1.05.175a.56.56 0 0 0-.155.417c0 .178.046.302.155.418.163.17.188.175 1.05.175h.77v6.384l.069.2c.149.42.452.719.877.862l.188.062h6.3740000000000006v.77c0 .862.005.887.175 1.05.116.108.24.155.417.155a.56.56 0 0 0 .418-.155c.17-.163.175-.188.175-1.05v-.77h.773c.86 0 .884-.005 1.047-.176a.56.56 0 0 0 .156-.422.56.56 0 0 0-.176-.432c-.16-.15-.187-.156-1.034-.156h-.766v-6.383l-.069-.2a1.35 1.35 0 0 0-.854-.855l-.201-.07h-6.383v-.772c0-.7-.005-.78-.047-.87a.64.64 0 0 0-.304-.293.77.77 0 0 0-.501.007m7.026 3.141c.155.057.148-.113.148 3.245v3.05h-3.05c-3.359 0-3.188.008-3.245-.148-.02-.06-.027-.919-.027-3.126v-3.048h3.047c2.208 0 3.067.008 3.127.027"/><rect width="57.933" height="22.503" x="405.92" y="38.704" fill="#fff" rx="4.957"/><rect width="57.933" height="22.503" x="405.92" y="38.704" stroke="#6762FE" stroke-width=".678" rx="4.957"/><path fill="#6762FE" d="M424.698 53.096q-.73 0-1.254-.25a2.5 2.5 0 0 1-.856-.672 3 3 0 0 1-.494-.9 3.1 3.1 0 0 1-.155-.944v-.162q0-.502.162-.988.163-.495.495-.893a2.45 2.45 0 0 1 .848-.634q.516-.243 1.217-.243.73 0 1.291.273.56.272.892.76.34.478.398 1.128h-1.217a1.15 1.15 0 0 0-.236-.553 1.2 1.2 0 0 0-.479-.355 1.6 1.6 0 0 0-.649-.125q-.362 0-.642.126a1.3 1.3 0 0 0-.472.353 1.7 1.7 0 0 0-.288.546 2.4 2.4 0 0 0-.095.694q0 .376.095.693.104.309.295.546.2.228.487.354.288.118.657.118.56 0 .944-.273.39-.273.472-.752h1.21a2.4 2.4 0 0 1-.399 1.084 2.35 2.35 0 0 1-.892.782q-.561.287-1.335.287m5.803-.14v-1.195h-.199v-1.298q0-.309-.148-.465-.147-.154-.472-.154-.162 0-.427.007t-.546.022-.509.03v-.996a18 18 0 0 1 .87-.052q.243-.007.457-.007.62 0 1.04.177.428.177.65.538.22.354.221.915v2.478zm-1.291.103q-.435 0-.767-.154a1.2 1.2 0 0 1-.509-.443 1.3 1.3 0 0 1-.184-.7q0-.444.229-.724a1.3 1.3 0 0 1 .641-.42q.414-.14.952-.14h.863v.656h-.871q-.31 0-.479.155a.52.52 0 0 0-.162.406q0 .243.162.398.17.148.479.148a.9.9 0 0 0 .354-.067.6.6 0 0 0 .266-.243q.103-.17.118-.472l.28.295a1.7 1.7 0 0 1-.206.708q-.163.288-.458.442a1.5 1.5 0 0 1-.708.155m3.229-.103v-4.042h.937v1.733h-.067q0-.62.155-1.032.162-.413.487-.62a1.44 1.44 0 0 1 .789-.206h.052q.708 0 1.077.465.376.457.376 1.394v2.308h-1.18v-2.375a.75.75 0 0 0-.192-.53.67.67 0 0 0-.516-.207.72.72 0 0 0-.539.213.76.76 0 0 0-.199.546v2.353zm6.626.14q-.523 0-.915-.17a1.9 1.9 0 0 1-.641-.471 2 2 0 0 1-.384-.664 2.5 2.5 0 0 1-.125-.775v-.14q0-.412.133-.789.132-.384.391-.679.258-.294.641-.464.391-.17.893-.17a2.1 2.1 0 0 1 .966.214 1.68 1.68 0 0 1 .951 1.446h-1.158a.72.72 0 0 0-.221-.458q-.184-.19-.538-.191a.8.8 0 0 0-.494.147.9.9 0 0 0-.288.406 1.8 1.8 0 0 0-.096.612q0 .324.088.59a.84.84 0 0 0 .281.406q.2.14.516.14.236 0 .398-.081a.7.7 0 0 0 .266-.236.8.8 0 0 0 .125-.354h1.151q-.022.501-.28.885-.258.375-.686.59-.429.206-.974.206m4.546 0q-.516 0-.915-.177a2 2 0 0 1-.656-.472 2.3 2.3 0 0 1-.398-.671 2.3 2.3 0 0 1-.133-.767v-.148q0-.405.133-.774.14-.376.398-.671t.642-.465q.39-.177.885-.177.648 0 1.091.295.45.288.686.76.237.465.236 1.018v.398h-3.577v-.671h2.862l-.384.31q0-.362-.103-.62a.8.8 0 0 0-.31-.39.85.85 0 0 0-.501-.141.94.94 0 0 0-.524.14.86.86 0 0 0-.324.413 1.7 1.7 0 0 0-.111.657q0 .36.103.634a.85.85 0 0 0 .325.413q.22.148.575.148.324 0 .531-.126a.65.65 0 0 0 .28-.31h1.085q-.089.406-.347.723a1.76 1.76 0 0 1-.649.494 2.2 2.2 0 0 1-.9.177m2.803-.14v-5.384h1.187v5.384zm-.479-4.514v-.87h1.666v.87z"/><g filter="url(#f)"><rect width="71.611" height="23.181" x="468.47" y="38.366" fill="#6762FE" rx="5.296" shape-rendering="crispEdges"/><path fill="#fff" d="M486.335 52.986v-1.129h1.004q.375 0 .678-.11.303-.119.516-.325.214-.214.325-.509.111-.302.111-.664 0-.376-.111-.67a1.34 1.34 0 0 0-.325-.502 1.4 1.4 0 0 0-.516-.31 2 2 0 0 0-.678-.11h-1.004v-1.13h.937q.73 0 1.276.215.546.213.915.582.369.37.546.848.184.472.184.996v.162q0 .487-.184.967-.177.472-.546.855a2.75 2.75 0 0 1-.915.605q-.546.23-1.276.229zm-1.062 0v-5.458h1.21v5.458zm7.666.11q-.531 0-.944-.162a2.1 2.1 0 0 1-.701-.457 2 2 0 0 1-.428-.657 2.2 2.2 0 0 1-.148-.789v-.17q0-.42.148-.796.155-.384.443-.671.294-.288.708-.45.412-.17.922-.17.524 0 .929.17.413.162.701.45.287.287.442.67.155.378.155.797v.17q0 .413-.147.79a2.022 2.022 0 0 1-1.129 1.114 2.6 2.6 0 0 1-.951.161m0-.995q.346 0 .575-.148a.93.93 0 0 0 .347-.413q.125-.266.125-.59 0-.347-.125-.605a.975.975 0 0 0-.922-.575 1 1 0 0 0-.561.155 1 1 0 0 0-.361.42 1.4 1.4 0 0 0-.118.605q0 .324.118.59a.9.9 0 0 0 .354.413q.235.148.568.148m4.44.855.737-3.909h1.291l.856 3.91h-.915l-.878-3.88h.524l-.789 3.88zm-.281 0-.007-.98h.811l.008.98zm-.531 0-1.084-4.042h1.158l1.011 4.042zm3.083 0 .008-.98h.811v.98zm.332 0 .9-4.042h1.084l-.973 4.042zm2.714 0v-4.042h.936v1.733h-.066q0-.62.155-1.032.162-.413.487-.62.324-.206.789-.206h.052q.708 0 1.076.465.377.457.377 1.394v2.308h-1.181v-2.375a.75.75 0 0 0-.191-.53.67.67 0 0 0-.517-.207q-.331 0-.538.213-.2.207-.199.546v2.353zm4.863 0v-5.384h1.187v5.384zm-.48-4.514v-.87h1.667v.87zm4.724 4.654q-.531 0-.944-.162a2.1 2.1 0 0 1-.701-.457 2 2 0 0 1-.427-.657 2.1 2.1 0 0 1-.148-.789v-.17q0-.42.148-.796.154-.384.442-.671.296-.288.708-.45a2.4 2.4 0 0 1 .922-.17q.524 0 .929.17.413.162.701.45.288.287.443.67.155.378.155.797v.17q0 .413-.148.79a2.031 2.031 0 0 1-1.128 1.114 2.6 2.6 0 0 1-.952.161m0-.995q.347 0 .575-.148a.93.93 0 0 0 .347-.413q.126-.266.126-.59 0-.347-.126-.605a1 1 0 0 0-.361-.42 1 1 0 0 0-.561-.155 1 1 0 0 0-.56.155 1 1 0 0 0-.362.42 1.4 1.4 0 0 0-.118.605q0 .324.118.59a.9.9 0 0 0 .354.413q.237.148.568.148m5.493.855v-1.195h-.2v-1.298q0-.309-.147-.465-.148-.154-.472-.154-.162 0-.428.007-.265.007-.546.022-.28.015-.509.03v-.996a18 18 0 0 1 .871-.052q.243-.007.457-.007.62 0 1.04.177.428.177.649.538.221.354.221.915v2.478zm-1.291.103q-.435 0-.767-.154a1.2 1.2 0 0 1-.509-.443 1.3 1.3 0 0 1-.185-.7q0-.444.229-.724.229-.287.642-.42.412-.14.951-.14h.863v.656h-.87q-.31 0-.48.155a.52.52 0 0 0-.162.406q0 .243.162.398.17.148.48.148a.9.9 0 0 0 .354-.067.6.6 0 0 0 .265-.243q.104-.17.118-.472l.281.295q-.038.42-.207.708-.162.288-.457.442a1.5 1.5 0 0 1-.708.155m4.896.03q-.429 0-.782-.155a1.9 1.9 0 0 1-.605-.428 2 2 0 0 1-.398-.656 2.4 2.4 0 0 1-.133-.812v-.17q0-.435.125-.81.133-.377.376-.657.252-.288.598-.443.346-.162.774-.162.487 0 .841.214.355.206.553.62.2.405.222 1.003l-.31-.288v-2.773h1.187v5.384h-.936v-1.674h.162q-.022.575-.244.98-.213.407-.582.62a1.7 1.7 0 0 1-.848.207m.295-.988q.273 0 .494-.118a.9.9 0 0 0 .361-.362q.14-.235.14-.568v-.273a1 1 0 0 0-.14-.546.94.94 0 0 0-.369-.339 1.06 1.06 0 0 0-.494-.118.95.95 0 0 0-.531.155 1 1 0 0 0-.361.413 1.3 1.3 0 0 0-.133.605q0 .354.133.612a.96.96 0 0 0 .369.398q.236.14.531.14"/></g><path fill="#000" d="M35.399 33.606V28.22h1.047v5.385zm.9-2.242v-.886l2.153-.007v.885zm0-2.257v-.886h2.257v.886zm3.287 4.499V29.6h1.025v4.005zm-.56-3.238V29.6h1.585v.767zm.936-1.247q-.302 0-.45-.155a.6.6 0 0 1-.14-.398q0-.25.14-.405.148-.155.45-.155t.443.155.14.405q0 .236-.14.398-.14.155-.443.155m1.883 4.485V28.22h1.025v5.385zm-.502-4.617v-.768h1.527v.768zm4.49 4.757a2.2 2.2 0 0 1-.908-.177 1.9 1.9 0 0 1-.641-.472 2.2 2.2 0 0 1-.384-.671 2.3 2.3 0 0 1-.125-.753v-.14q0-.398.125-.767.133-.375.384-.664a1.8 1.8 0 0 1 .634-.464q.375-.177.87-.177.65 0 1.085.287.443.28.663.745.222.458.222.989v.368H44.21v-.627h2.906l-.317.31q0-.383-.11-.656a.88.88 0 0 0-.34-.42 1 1 0 0 0-.56-.148q-.34 0-.576.155a.98.98 0 0 0-.361.45 1.8 1.8 0 0 0-.118.693q0 .375.118.671.117.288.361.458.243.162.62.162.376 0 .612-.148a.7.7 0 0 0 .302-.376h.944q-.089.412-.339.723a1.66 1.66 0 0 1-.642.48 2.15 2.15 0 0 1-.877.169m4.454-.14V28.22h1.719l2.264 4.515h.243l-.147.132v-4.647h.988v5.385h-1.726l-2.264-4.514h-.25l.147-.133v4.647zm8.742 0v-1.188h-.17v-1.32q0-.346-.17-.516-.168-.17-.523-.17-.184 0-.443.008-.258.007-.523.022-.258.007-.465.022v-.87q.17-.015.384-.03.213-.015.435-.015.229-.007.427-.007.62 0 1.026.162.413.162.62.509.213.347.213.907v2.486zm-1.29.103q-.436 0-.768-.155a1.2 1.2 0 0 1-.509-.442 1.3 1.3 0 0 1-.177-.694q0-.443.214-.723.222-.279.612-.42.399-.14.93-.14h.929v.612h-.944q-.354 0-.546.177a.57.57 0 0 0-.184.443q0 .274.184.442.192.17.546.17.214 0 .39-.074a.7.7 0 0 0 .303-.265q.126-.192.14-.517l.251.288q-.036.42-.206.708-.163.288-.458.443a1.54 1.54 0 0 1-.708.147m3.2-.103V29.6h.81v1.718h-.073q0-.605.155-1.01.155-.414.457-.62.31-.214.767-.214h.045q.464 0 .767.214a1.2 1.2 0 0 1 .457.62q.155.405.155 1.01h-.258q0-.605.155-1.01.162-.414.464-.62.31-.214.767-.214h.045q.464 0 .774.214.31.207.465.62.162.405.162 1.01v2.287h-1.025v-2.383q0-.376-.192-.597-.192-.229-.546-.229a.73.73 0 0 0-.568.236q-.213.23-.214.62v2.353h-1.025v-2.383q0-.376-.192-.597-.192-.229-.545-.229a.73.73 0 0 0-.568.236q-.214.23-.214.62v2.353zm9.002.14a2.2 2.2 0 0 1-.907-.177 1.9 1.9 0 0 1-.642-.472 2.2 2.2 0 0 1-.384-.671 2.3 2.3 0 0 1-.125-.753v-.14q0-.398.125-.767.133-.375.384-.664a1.8 1.8 0 0 1 .634-.464q.377-.177.87-.177.65 0 1.085.287.442.28.664.745.22.458.221.989v.368h-3.548v-.627h2.906l-.317.31q0-.383-.11-.656a.88.88 0 0 0-.34-.42 1 1 0 0 0-.56-.148q-.34 0-.576.155a.98.98 0 0 0-.361.45 1.8 1.8 0 0 0-.118.693q0 .375.118.671.119.288.361.458.245.162.62.162.376 0 .612-.148a.7.7 0 0 0 .303-.376h.944a1.7 1.7 0 0 1-.34.723 1.66 1.66 0 0 1-.641.48 2.15 2.15 0 0 1-.878.169"/><path fill="#FF5030" d="m77.22 30.899-1.12-.811v-.797l1.12-.811.406.715-.922.384v.22l.922.384zm-1.084-3.061-.14 1.38-.693.398-1.262-.568.413-.708.797.604.192-.11-.133-.989zm-2.095 2.493 1.262-.568.693.398.14 1.38-.819-.015.126-.981-.192-.11-.797.597z"/><path fill="#000" d="M141.834 33.606V28.22h1.048v5.385zm.9-2.242v-.886l2.154-.007v.885zm0-2.257v-.886h2.257v.886zm3.288 4.499V29.6h1.025v4.005zm-.561-3.238V29.6h1.586v.767zm.937-1.247q-.303 0-.45-.155a.6.6 0 0 1-.14-.398q0-.25.14-.405.147-.155.45-.155t.442.155a.58.58 0 0 1 .141.405q0 .236-.141.398-.14.155-.442.155m1.882 4.485V28.22h1.025v5.385zm-.501-4.617v-.768h1.526v.768zm4.489 4.757q-.516 0-.907-.177a1.9 1.9 0 0 1-.642-.472 2.2 2.2 0 0 1-.383-.671 2.3 2.3 0 0 1-.126-.753v-.14q0-.398.126-.767.132-.375.383-.664a1.8 1.8 0 0 1 .635-.464q.375-.177.87-.177.65 0 1.084.287.442.28.664.745.222.458.221.989v.368h-3.547v-.627h2.906l-.318.31q0-.383-.11-.656a.9.9 0 0 0-.339-.42 1 1 0 0 0-.561-.148q-.34 0-.575.155a.98.98 0 0 0-.362.45 1.8 1.8 0 0 0-.118.693q0 .375.118.671.118.288.362.458.243.162.619.162t.612-.148a.7.7 0 0 0 .303-.376h.944a1.7 1.7 0 0 1-.339.723 1.66 1.66 0 0 1-.642.48 2.15 2.15 0 0 1-.878.169m5.517-.14v-4.61h1.047v4.61zm-1.556-4.463v-.922h4.16v.922zm4.479 6.041v-.877h.753a.9.9 0 0 0 .354-.06.5.5 0 0 0 .243-.176.84.84 0 0 0 .148-.332l1.077-4.138h.981l-1.188 4.359q-.118.45-.332.715a1.18 1.18 0 0 1-.553.391 2.5 2.5 0 0 1-.826.118zm1.247-1.667v-.811h.856v.811zm-.347 0-1.298-3.916h1.033l1.232 3.916zm3.36 1.564v-5.48h.812v1.726l-.126-.008q.03-.612.251-1.025.228-.413.605-.612.376-.207.841-.207.427 0 .767.155.346.156.59.435.25.28.383.657.133.369.133.796v.155q0 .434-.133.812a1.9 1.9 0 0 1-.376.656 1.8 1.8 0 0 1-.59.443 1.9 1.9 0 0 1-.774.155q-.45 0-.827-.185a1.5 1.5 0 0 1-.597-.583q-.228-.398-.258-1.025l.324.494v2.641zm2.124-2.205q.332 0 .576-.163.25-.162.391-.45.14-.294.14-.663 0-.384-.14-.664a1.06 1.06 0 0 0-.391-.435 1 1 0 0 0-.576-.163q-.302 0-.56.133a1.1 1.1 0 0 0-.413.391 1.2 1.2 0 0 0-.155.62v.295q0 .345.162.59.162.243.421.376.258.133.545.133m4.826.87q-.516 0-.907-.177a1.9 1.9 0 0 1-.642-.472 2.2 2.2 0 0 1-.384-.671 2.3 2.3 0 0 1-.125-.753v-.14q0-.398.125-.767.134-.375.384-.664.258-.294.634-.464.376-.177.871-.177.648 0 1.084.287.442.28.664.745.22.458.221.989v.368h-3.548v-.627h2.906l-.317.31a1.7 1.7 0 0 0-.111-.656.87.87 0 0 0-.339-.42 1 1 0 0 0-.56-.148q-.34 0-.576.155a.98.98 0 0 0-.361.45 1.8 1.8 0 0 0-.118.693q0 .375.118.671.118.288.361.458.244.162.62.162.377 0 .612-.148a.7.7 0 0 0 .302-.376h.945a1.7 1.7 0 0 1-.34.723 1.66 1.66 0 0 1-.641.48q-.384.169-.878.169M227.43 33.606V28.22h1.047v5.385zm.9-2.242v-.886l2.154-.007v.885zm0-2.257v-.886h2.257v.886zm3.287 4.499V29.6h1.026v4.005zm-.56-3.238V29.6h1.586v.767zm.937-1.247q-.303 0-.45-.155a.59.59 0 0 1-.14-.398q0-.25.14-.405.147-.155.45-.155.302 0 .442.155t.14.405q0 .236-.14.398-.14.155-.442.155m1.882 4.485V28.22h1.025v5.385zm-.502-4.617v-.768h1.527v.768zm4.49 4.757q-.516 0-.907-.177a1.9 1.9 0 0 1-.642-.472 2.2 2.2 0 0 1-.384-.671 2.3 2.3 0 0 1-.125-.753v-.14q0-.398.125-.767.133-.375.384-.664.259-.294.634-.464.376-.177.871-.177.649 0 1.084.287.442.28.664.745.22.458.221.989v.368h-3.548v-.627h2.906l-.317.31a1.7 1.7 0 0 0-.111-.656.87.87 0 0 0-.339-.42 1 1 0 0 0-.56-.148q-.34 0-.576.155a1 1 0 0 0-.361.45 1.8 1.8 0 0 0-.118.693q0 .375.118.671.118.288.361.458.244.162.62.162.377 0 .612-.148a.7.7 0 0 0 .302-.376h.945a1.7 1.7 0 0 1-.34.723 1.66 1.66 0 0 1-.641.48q-.384.169-.878.169m4.454-.14V28.22h1.048v5.385zm.9-2.242v-.886l2.154-.007v.885zm0-2.257v-.886h2.257v.886zm4.978 4.639q-.53 0-.937-.17a2.1 2.1 0 0 1-.686-.457 2.1 2.1 0 0 1-.427-.664 2.1 2.1 0 0 1-.141-.767v-.155q0-.413.148-.782.155-.376.435-.663.288-.296.693-.458.406-.17.915-.17.508 0 .915.17.405.162.686.458.286.287.435.663.147.37.147.782v.155q0 .398-.147.767a2 2 0 0 1-.421.664 2 2 0 0 1-.686.457q-.405.17-.929.17m0-.878q.376 0 .634-.162a1.1 1.1 0 0 0 .391-.45q.133-.288.133-.649 0-.368-.14-.65a1 1 0 0 0-.398-.449 1.1 1.1 0 0 0-.62-.17q-.361 0-.627.17a1.07 1.07 0 0 0-.398.45q-.14.28-.14.649 0 .36.132.65.141.28.399.449.258.162.634.162m3.081.738V29.6h.811v1.696h-.022q0-.863.369-1.305.369-.443 1.084-.443h.148v.893h-.281q-.516 0-.803.28-.28.273-.281.796v2.088zm3.076 0V29.6h.811v1.718h-.074q0-.605.155-1.01.155-.414.457-.62.31-.214.768-.214h.044q.465 0 .767.214.31.207.457.62.155.405.155 1.01h-.258q0-.605.155-1.01.162-.414.464-.62.31-.214.768-.214h.044q.465 0 .774.214.31.207.465.62.162.405.162 1.01v2.287h-1.025v-2.383q0-.376-.192-.597-.192-.229-.546-.229a.73.73 0 0 0-.568.236q-.213.23-.213.62v2.353h-1.026v-2.383q0-.376-.191-.597-.192-.229-.546-.229a.73.73 0 0 0-.568.236q-.214.23-.214.62v2.353zm9.636 0v-1.188h-.169v-1.32q0-.346-.17-.516-.169-.17-.524-.17-.183 0-.442.008a20 20 0 0 0-.524.022q-.258.007-.464.022v-.87q.17-.015.383-.03a6 6 0 0 1 .435-.015q.229-.007.428-.007.62 0 1.025.162.413.162.62.509.214.347.214.907v2.486zm-1.29.103q-.435 0-.767-.155a1.2 1.2 0 0 1-.509-.442 1.3 1.3 0 0 1-.177-.694q0-.443.214-.723.22-.279.612-.42.398-.14.929-.14h.929v.612h-.944q-.354 0-.545.177a.57.57 0 0 0-.185.443q0 .274.185.442.19.17.545.17.214 0 .391-.074a.7.7 0 0 0 .303-.265q.125-.192.14-.517l.251.288q-.038.42-.207.708-.163.288-.457.443a1.54 1.54 0 0 1-.708.147m4.941-.052q-.553 0-.915-.14a1.03 1.03 0 0 1-.531-.486q-.177-.347-.177-.93l.007-3.629h.959l-.007 3.696q0 .294.155.457.162.155.457.155h.627v.877zm-2.257-3.304v-.752h2.832v.752z"/><g filter="url(#g)"><path fill="#000" d="M526.857 65.577 510.041 54.85l1.283 19.905 5.479-5.05 3.812 6.45 2.985-1.766-3.81-6.449z"/><path fill="#fff" fill-rule="evenodd" d="m529.876 65.89-8.088 2.705 3.641 6.162-5.375 3.18-3.642-6.165-6.271 5.78-1.631-25.291zm-13.074 3.816 3.812 6.45 2.986-1.767-3.811-6.448 7.067-2.363L510.04 54.85l1.284 19.904z" clip-rule="evenodd"/></g><path fill="#fff" stroke="#EEE" stroke-width=".774" d="M141.322 76.25a3.823 3.823 0 0 1 3.823-3.823h71.506a3.823 3.823 0 0 1 3.823 3.823v86.997a3.83 3.83 0 0 1-3.828 3.828H145.15a3.83 3.83 0 0 1-3.828-3.828z"/><path fill="#797979" d="m154.563 112.002-1.823-5.261h.728l1.636 4.799-.346-.172h.865l-.368.172 1.506-4.799h.707l-1.694 5.261zm3.873 0v-3.849h.692v3.849zm-.591-3.301v-.548h1.283v.548zm.785-1.167q-.23 0-.346-.123a.45.45 0 0 1-.108-.31q0-.187.108-.31.116-.122.346-.122.231 0 .339.122a.43.43 0 0 1 .115.31.43.43 0 0 1-.115.31q-.108.123-.339.123m3.442 4.597q-.41 0-.756-.151a1.9 1.9 0 0 1-.606-.425 2.1 2.1 0 0 1-.396-.634 2.2 2.2 0 0 1-.137-.779v-.129q0-.411.137-.771t.382-.635q.252-.273.591-.425.346-.159.764-.158.44 0 .8.187.36.18.591.569.23.39.259 1.009l-.288-.461v-2.587h.692v5.261h-.548v-1.708h.202q-.029.655-.274 1.066-.245.403-.62.591-.367.18-.793.18m.094-.605q.353 0 .642-.158.287-.16.461-.455a1.4 1.4 0 0 0 .173-.706v-.331q0-.397-.18-.67a1.1 1.1 0 0 0-.469-.426 1.34 1.34 0 0 0-.634-.151q-.382 0-.678.18-.288.18-.454.505-.158.323-.158.764 0 .44.166.771.165.324.461.504.295.173.67.173m4.904.605q-.504 0-.872-.173a1.7 1.7 0 0 1-.598-.454 2 2 0 0 1-.346-.641 2.5 2.5 0 0 1-.108-.721v-.129q0-.375.108-.728.115-.354.346-.634.23-.29.584-.454.36-.174.843-.173.627 0 1.03.273.411.267.606.692a2.1 2.1 0 0 1 .201.908v.31h-3.416v-.519h2.912l-.159.281a1.8 1.8 0 0 0-.129-.706 1 1 0 0 0-.389-.468q-.26-.166-.656-.166-.41 0-.685.187a1.16 1.16 0 0 0-.403.512q-.13.324-.13.75 0 .41.13.742.136.324.418.519.28.187.713.187.454 0 .735-.202.288-.201.346-.468h.649a1.513 1.513 0 0 1-.916 1.124 2.1 2.1 0 0 1-.814.151m4.55 0a2.1 2.1 0 0 1-.887-.173 2 2 0 0 1-.648-.454 2.1 2.1 0 0 1-.397-.641 2.1 2.1 0 0 1-.13-.721v-.129q0-.368.137-.721.137-.36.404-.641.267-.29.649-.454.381-.174.872-.173.49 0 .872.173.381.165.648.454.267.28.404.641.137.353.137.721v.129q0 .368-.137.721a1.942 1.942 0 0 1-1.038 1.095 2.1 2.1 0 0 1-.886.173m0-.619q.432 0 .735-.188.309-.194.468-.519.166-.324.166-.727 0-.41-.166-.736a1.25 1.25 0 0 0-.476-.511 1.35 1.35 0 0 0-.727-.188q-.419 0-.728.188a1.25 1.25 0 0 0-.476.511q-.166.325-.166.736 0 .403.159.727.166.326.468.519.31.188.743.188M153.908 132.622v-.649h1.311q.476 0 .843-.151a1.87 1.87 0 0 0 1.038-1.074q.137-.367.137-.793a2.3 2.3 0 0 0-.137-.807 1.75 1.75 0 0 0-.403-.634 1.7 1.7 0 0 0-.635-.418 2.3 2.3 0 0 0-.843-.144h-1.311v-.649h1.239q.714 0 1.24.224.525.216.872.591.352.367.526.829.173.453.173.929v.159q0 .461-.173.922a2.5 2.5 0 0 1-.526.836q-.347.375-.872.606-.526.222-1.24.223zm-.563 0v-5.319h.707v5.319zm7.373.101q-.505 0-.886-.173a2.05 2.05 0 0 1-.649-.454 2.1 2.1 0 0 1-.396-.642 2 2 0 0 1-.13-.72v-.13q0-.367.137-.721a1.9 1.9 0 0 1 .403-.641q.267-.288.649-.454.382-.173.872-.173t.872.173q.382.166.649.454.266.28.403.641.137.354.137.721v.13q0 .367-.137.72a1.9 1.9 0 0 1-.396.642 2 2 0 0 1-.642.454q-.381.173-.886.173m0-.62q.432 0 .735-.187.31-.195.469-.519.165-.324.165-.728 0-.411-.165-.735a1.26 1.26 0 0 0-.476-.512 1.36 1.36 0 0 0-.728-.187 1.4 1.4 0 0 0-.728.187 1.25 1.25 0 0 0-.475.512 1.6 1.6 0 0 0-.166.735q0 .404.158.728.166.324.469.519.31.187.742.187m4.748.62q-.498 0-.865-.173a1.7 1.7 0 0 1-.598-.461 2.2 2.2 0 0 1-.361-.649 2.3 2.3 0 0 1-.115-.706v-.13q0-.367.115-.721.123-.352.361-.634.245-.288.605-.461t.843-.173.865.18q.39.18.62.512.237.324.267.771h-.664a.93.93 0 0 0-.331-.598q-.281-.246-.757-.245-.411 0-.684.187a1.14 1.14 0 0 0-.411.512 1.9 1.9 0 0 0-.137.735q0 .396.137.728.137.324.411.519.28.187.699.187.324 0 .562-.115a1 1 0 0 0 .382-.31.9.9 0 0 0 .173-.44h.663a1.4 1.4 0 0 1-.267.786q-.238.332-.634.519-.39.18-.879.18m4.053-.015q-.684 0-1.052-.446-.368-.447-.368-1.29v-2.234h.692v2.371q0 .453.245.713.246.252.663.252.433 0 .706-.274.274-.28.274-.764v-2.298h.692v3.855h-.548v-1.65h.087q0 .569-.151.966a1.27 1.27 0 0 1-.454.598q-.296.201-.757.201zm3.192-.115v-3.848h.548v1.65h-.087q0-.562.144-.951.151-.396.447-.606.295-.209.75-.209h.029q.453 0 .749.209.303.21.447.606.144.388.144.951h-.202q0-.562.152-.951.151-.396.446-.606.303-.209.757-.209h.029q.454 0 .757.209.301.21.447.606.15.388.151.951v2.198h-.692v-2.349q0-.47-.231-.721-.23-.26-.641-.259-.425 0-.685.273-.26.267-.259.75v2.306h-.692v-2.349q0-.47-.231-.721-.23-.26-.641-.259-.425 0-.685.273-.26.267-.259.75v2.306zm8.611.13q-.505 0-.872-.173a1.7 1.7 0 0 1-.599-.454 2 2 0 0 1-.346-.642 2.4 2.4 0 0 1-.108-.72v-.13q0-.375.108-.728.116-.353.346-.634.231-.288.584-.454.36-.173.843-.173.627 0 1.031.274.41.266.605.692.202.425.202.908v.31H179.7v-.519h2.912l-.159.281q0-.41-.13-.706a1 1 0 0 0-.389-.469q-.259-.166-.656-.166-.411 0-.684.188a1.16 1.16 0 0 0-.404.511q-.13.325-.13.75 0 .41.13.742.137.324.418.519.28.187.714.187.453 0 .735-.201.288-.202.346-.469h.648a1.5 1.5 0 0 1-.317.685 1.54 1.54 0 0 1-.598.44q-.36.15-.814.151m2.776-.13v-3.848h.548v1.65h-.086q0-.569.151-.958a1.22 1.22 0 0 1 .476-.599q.317-.209.799-.209h.029q.728 0 1.074.454.353.454.353 1.312v2.198h-.692v-2.342q0-.447-.252-.714-.252-.273-.692-.273-.453 0-.735.281-.28.28-.281.749v2.299zm6.109.043q-.432 0-.749-.122a.95.95 0 0 1-.483-.418q-.166-.303-.166-.814v-3.705h.663v3.791q0 .31.166.483.173.166.483.166h.677v.619zm-2.061-3.372v-.519h2.652v.519zM155.695 154.804q-.613 0-1.11-.202a2.5 2.5 0 0 1-.858-.569 2.6 2.6 0 0 1-.547-.865 3 3 0 0 1-.195-1.095v-.159q0-.504.173-.973.18-.475.512-.85.339-.382.821-.598a2.6 2.6 0 0 1 1.089-.224q.655 0 1.167.253.512.244.822.691.309.44.36 1.024h-.721a1.35 1.35 0 0 0-.288-.728 1.46 1.46 0 0 0-.591-.44 1.85 1.85 0 0 0-.749-.151q-.411 0-.757.151-.346.145-.598.418a2 2 0 0 0-.382.656 2.5 2.5 0 0 0-.137.858q0 .54.144.951.151.404.418.677.267.267.627.404.368.137.8.137.612 0 1.074-.245a1.8 1.8 0 0 0 .706-.649l-.26.858v-1.564h.663v1.254a2.4 2.4 0 0 1-.908.721q-.555.26-1.275.259m-.188-2.09v-.591h2.818v.591zm3.842 1.96v-5.261h.706v5.261zm2.252 0v-5.261h.706v5.261zm.562-2.342v-.634l2.256-.007v.634zm0-2.284v-.635h2.378v.635z"/><path fill="#6762FE" fill-opacity=".2" d="M146.351 80.651a3.455 3.455 0 0 1 3.455-3.455h61.737a3.455 3.455 0 0 1 3.456 3.455v13.34a3.455 3.455 0 0 1-3.456 3.456h-61.737a3.455 3.455 0 0 1-3.455-3.456z"/><path fill="#6762FE" d="M153.976 89.336v-5.26h1.023v5.26zm2.257 0v-3.913h.793v1.679h-.072q0-.591.151-.987.151-.404.447-.606.302-.209.749-.209h.044q.453 0 .749.21.303.201.447.605.151.396.151.987h-.252q0-.591.151-.987.159-.404.454-.606.303-.209.75-.209h.043q.454 0 .757.21.303.201.454.605.158.396.158.987v2.234h-1.001v-2.328q0-.368-.188-.584-.187-.222-.533-.223a.71.71 0 0 0-.555.23q-.209.225-.209.606v2.3h-1.002v-2.329q0-.368-.187-.584-.188-.222-.533-.223a.71.71 0 0 0-.555.23q-.21.225-.209.606v2.3zm9.416 0v-1.16h-.166v-1.29q0-.339-.166-.505t-.511-.165a16 16 0 0 0-.944.028q-.253.007-.454.022v-.85q.165-.015.374-.03.21-.014.425-.014.224-.007.418-.007.606 0 1.002.159.404.158.606.497.209.339.209.886v2.43zm-1.261.101q-.426 0-.75-.151a1.2 1.2 0 0 1-.497-.433 1.27 1.27 0 0 1-.173-.677q0-.432.209-.707.216-.273.598-.41.389-.137.908-.137h.908v.598h-.922q-.346 0-.534.173a.56.56 0 0 0-.18.432q0 .267.18.433.188.165.534.165a1 1 0 0 0 .382-.072.67.67 0 0 0 .295-.259q.123-.187.137-.504l.245.28a1.6 1.6 0 0 1-.202.692 1.07 1.07 0 0 1-.447.433 1.5 1.5 0 0 1-.691.144m4.654 1.441a8 8 0 0 1-1.117-.079v-.836q.26.03.555.05.296.03.555.03.484-.001.778-.116a.8.8 0 0 0 .44-.368q.144-.245.144-.626v-.772l.216-.49q-.02.54-.223.923-.201.375-.548.576-.345.195-.8.195a1.75 1.75 0 0 1-.735-.151q-.324-.151-.562-.418a2 2 0 0 1-.36-.627 2.3 2.3 0 0 1-.13-.772v-.15q0-.413.13-.765.136-.36.382-.627a1.7 1.7 0 0 1 .584-.41 1.9 1.9 0 0 1 .749-.145q.483 0 .836.21.36.208.562.605.202.396.224.973l-.173.028v-1.693h.792v3.452q0 .713-.245 1.153a1.43 1.43 0 0 1-.756.641q-.505.21-1.298.21m.289-2.37q.288 0 .526-.13a1 1 0 0 0 .382-.375q.144-.244.144-.591v-.252q0-.332-.152-.562a.9.9 0 0 0-.381-.346 1.1 1.1 0 0 0-.519-.123q-.318 0-.562.151a1 1 0 0 0-.375.411q-.138.268-.137.634 0 .36.137.627a1 1 0 0 0 .375.411q.244.144.562.144m4.854.965q-.505 0-.886-.173a1.85 1.85 0 0 1-.627-.461 2.2 2.2 0 0 1-.375-.656 2.3 2.3 0 0 1-.122-.735v-.137q0-.39.122-.75.13-.367.375-.648.252-.288.62-.454.367-.173.85-.173.635 0 1.059.28.433.274.649.729.216.447.216.965v.36H172.6v-.612h2.839l-.31.303q0-.375-.108-.641a.86.86 0 0 0-.331-.411.97.97 0 0 0-.548-.144q-.331 0-.562.151a.95.95 0 0 0-.353.44 1.8 1.8 0 0 0-.116.677q0 .368.116.656a1 1 0 0 0 .353.447q.237.158.605.158t.598-.144a.67.67 0 0 0 .296-.368h.922q-.086.404-.331.707a1.6 1.6 0 0 1-.627.468q-.375.165-.858.166"/><rect width="79.153" height="73.17" x="228.387" y="72.387" fill="#fff" stroke="#EEE" stroke-width=".774" rx="3.823"/><path fill="#797979" d="M241.186 110.132v-.62h1.175q.374 0 .619-.144a.96.96 0 0 0 .368-.403q.13-.253.13-.562 0-.318-.13-.57a.9.9 0 0 0-.368-.396 1.2 1.2 0 0 0-.619-.144h-1.175v-.62h1.045q.648 0 1.081.209.44.202.663.577t.223.886v.115q0 .505-.223.887-.224.375-.663.583-.433.202-1.081.202zm-.562 1.831v-5.29h.706v5.29zm4.61 0v-5.261h1.153l2.673 4.627h.231l-.144.129v-4.756h.677v5.261h-1.167l-2.674-4.627h-.231l.145-.13v4.757zm8.465.129q-.613 0-1.11-.201a2.5 2.5 0 0 1-.858-.57 2.6 2.6 0 0 1-.547-.864 3 3 0 0 1-.195-1.096v-.158q0-.505.173-.973.18-.476.512-.851.339-.382.821-.598a2.6 2.6 0 0 1 1.088-.223q.657 0 1.168.252.512.245.822.692.309.44.36 1.023h-.721a1.36 1.36 0 0 0-.288-.728 1.45 1.45 0 0 0-.591-.439 1.85 1.85 0 0 0-.75-.152q-.41 0-.756.152-.346.144-.598.418a1.95 1.95 0 0 0-.382.655 2.5 2.5 0 0 0-.137.858q0 .54.144.951.151.403.418.678.267.267.627.403.368.138.8.137.612 0 1.074-.245.468-.252.706-.648l-.26.857v-1.564h.663v1.254a2.4 2.4 0 0 1-.908.721q-.555.26-1.275.259m-.188-2.089v-.591h2.818v.591zM241.186 130.722v-.619h1.175q.374 0 .619-.144a.96.96 0 0 0 .368-.404q.13-.252.13-.562a1.2 1.2 0 0 0-.13-.569.9.9 0 0 0-.368-.397 1.2 1.2 0 0 0-.619-.144h-1.175v-.62h1.045q.648 0 1.081.209.44.202.663.577t.223.886v.116q0 .504-.223.886-.224.375-.663.584-.433.201-1.081.201zm-.562 1.831v-5.29h.706v5.29zm5.172.029v-.649h1.311q.476 0 .843-.151a1.86 1.86 0 0 0 1.038-1.074q.137-.367.137-.793a2.2 2.2 0 0 0-.137-.807 1.75 1.75 0 0 0-.403-.634 1.7 1.7 0 0 0-.635-.418 2.3 2.3 0 0 0-.843-.144h-1.311v-.649h1.239q.714 0 1.24.224.525.216.872.591.353.368.526.828.173.454.173.93v.159q0 .461-.173.922a2.57 2.57 0 0 1-1.398 1.441q-.526.224-1.24.224zm-.562 0v-5.319h.706v5.319zm5.7-.029v-5.261h.706v5.261zm.562-2.342v-.634l2.256-.008v.635zm0-2.285v-.634h2.379v.634z"/><path fill="#6762FE" fill-opacity=".2" d="M233.319 81.204a3.455 3.455 0 0 1 3.455-3.455h61.738a3.455 3.455 0 0 1 3.455 3.455v13.34A3.455 3.455 0 0 1 298.512 98h-61.738a3.455 3.455 0 0 1-3.455-3.455z"/><path fill="#6762FE" d="M243.217 90.62q-.57 0-1.002-.223a1.57 1.57 0 0 1-.67-.656q-.238-.432-.238-1.06v-.23h1.016v.317q0 .418.245.663.245.238.641.238.404 0 .642-.238.245-.245.245-.663V85.98h1.023v2.703q0 .626-.238 1.059a1.6 1.6 0 0 1-.663.656 2.1 2.1 0 0 1-1.001.223m-1.269-4.497v-.9h3.171v.9zm5.258 2.746v-.886h1.024q.309 0 .519-.123a.8.8 0 0 0 .324-.339q.115-.216.115-.497 0-.28-.115-.497a.75.75 0 0 0-.324-.332 1 1 0 0 0-.519-.122h-1.024v-.887h.937q.663 0 1.124.216.47.217.714.62.245.398.245.944v.116a1.8 1.8 0 0 1-.245.951q-.245.395-.714.62-.46.216-1.124.216zm-.879 1.614v-5.297h1.023v5.297zm7.194.137a3 3 0 0 1-1.196-.223 2.6 2.6 0 0 1-.865-.613 2.7 2.7 0 0 1-.526-.872 3 3 0 0 1-.173-1.016v-.159a2.8 2.8 0 0 1 .677-1.83q.339-.382.829-.605.497-.231 1.139-.231.691 0 1.225.26.533.252.857.713.325.454.382 1.06h-1.03a1.13 1.13 0 0 0-.253-.577 1.3 1.3 0 0 0-.511-.375 1.7 1.7 0 0 0-.67-.13 1.7 1.7 0 0 0-.671.13 1.4 1.4 0 0 0-.504.368 1.7 1.7 0 0 0-.324.569 2.4 2.4 0 0 0-.109.735q0 .44.123.785t.346.592q.224.237.54.367.318.123.714.123.526 0 .922-.217.397-.223.577-.576l-.18.829v-1.355h.944v1.167a2.3 2.3 0 0 1-.923.8q-.584.282-1.34.281m-.166-2.047v-.763h2.868v.763z"/><path fill="#059669" d="M198.673 296.062a1 1 0 0 1 1.265 1.265l-3.946 11.837c-.293.88-1.522.921-1.874.063l-1.374-3.352a5.3 5.3 0 0 0-2.644-2.644l-3.316-1.351c-.86-.35-.82-1.581.061-1.875z"/><path fill="#fff" d="M185.942 316.5c0-5.523-4.477-10-10-10h-43c-5.522 0-10 4.477-10 10s4.477 10 10 10h43c5.523 0 10-4.477 10-10"/><path fill="#059669" fill-opacity=".2" d="M185.942 316.5c0-5.523-4.477-10-10-10h-43c-5.522 0-10 4.477-10 10s4.477 10 10 10h43c5.523 0 10-4.477 10-10"/><path stroke="#059669" d="M185.942 316.5c0-5.523-4.477-10-10-10h-43c-5.522 0-10 4.477-10 10s4.477 10 10 10h43c5.523 0 10-4.477 10-10Z"/><path fill="#000" d="m144.899 320.5-2.825-3.608h-1.09l3.354-4.116h1.725l-3.026 3.703-.042-.74 3.734 4.761zm-5.004 0v-7.724h1.502v7.724zm9.986.201q-.74 0-1.301-.254a2.7 2.7 0 0 1-.921-.677 3.2 3.2 0 0 1-.55-.963 3.3 3.3 0 0 1-.18-1.079v-.201q0-.572.18-1.1.191-.54.55-.953a2.6 2.6 0 0 1 .91-.666q.54-.254 1.249-.254.931 0 1.555.412.635.403.952 1.069.318.656.318 1.418v.529h-5.089v-.899h4.168l-.455.444q0-.55-.158-.942a1.26 1.26 0 0 0-.487-.603q-.318-.211-.804-.211t-.825.222a1.4 1.4 0 0 0-.519.645q-.17.413-.169.995 0 .539.169.962.17.413.519.656.349.234.888.233.54 0 .878-.211.34-.223.434-.54h1.354a2.4 2.4 0 0 1-.486 1.037q-.36.444-.921.688a3.1 3.1 0 0 1-1.259.243m5.092-.201-1.799-5.745h1.513l1.725 5.745zm.434 0v-1.206h1.555v1.206zm.581 0 1.482-5.745h1.417l-1.555 5.745zm4.285 0v-5.745h1.471v5.745zm-.804-4.645v-1.1h2.275v1.1zm1.344-1.788q-.433 0-.646-.222a.84.84 0 0 1-.201-.571q0-.36.201-.582.213-.222.646-.222t.635.222q.201.222.201.582a.84.84 0 0 1-.201.571q-.201.222-.635.222m2.626 6.433v-5.745h1.164v2.465h-.106q0-.878.233-1.46.232-.592.687-.889.466-.296 1.153-.296h.064q1.026 0 1.555.667.53.656.529 1.967v3.291h-1.47v-3.417q0-.53-.307-.857-.297-.328-.825-.328-.54 0-.879.338-.327.328-.328.889v3.375z"/><path fill="#FF7E36" d="M421.327 119.938a1 1 0 0 1-1.265-1.265l3.946-11.837c.293-.879 1.522-.921 1.874-.063l1.374 3.353a5.3 5.3 0 0 0 2.644 2.643l3.316 1.351c.86.351.82 1.582-.061 1.875z"/><path fill="#fff" d="M434.058 99.5a9 9 0 0 0 9 9h39a9 9 0 0 0 0-18h-39a9 9 0 0 0-9 9"/><path fill="#FF7E36" fill-opacity=".2" d="M434.058 99.5a9 9 0 0 0 9 9h39a9 9 0 0 0 0-18h-39a9 9 0 0 0-9 9"/><path stroke="#FF7E36" d="M434.058 99.5a9 9 0 0 0 9 9h39a9 9 0 0 0 0-18h-39a9 9 0 0 0-9 9Z"/><path fill="#000" d="M452.458 102.652q-.633 0-1.112-.248a1.75 1.75 0 0 1-.744-.728q-.264-.48-.264-1.176v-.256h1.128v.352q0 .464.272.736.271.264.712.264.447 0 .712-.264.272-.272.272-.736V97.5h1.136v3q0 .696-.264 1.176-.265.48-.736.728-.473.248-1.112.248m-1.408-4.992v-1h3.52v1zm7.404 4.84v-1.288h-.184V99.78q0-.375-.184-.56-.183-.184-.568-.184-.2 0-.48.008t-.568.024q-.279.008-.504.024v-.944l.416-.032a7 7 0 0 1 .472-.016q.248-.008.464-.008.672 0 1.112.176.448.176.672.552.232.376.232.984v2.696zm-1.4.112a1.95 1.95 0 0 1-.832-.168 1.3 1.3 0 0 1-.552-.48 1.4 1.4 0 0 1-.192-.752q0-.48.232-.784.24-.305.664-.456a3 3 0 0 1 1.008-.152h1.008v.664h-1.024q-.384 0-.592.192a.62.62 0 0 0-.2.48q0 .295.2.48.208.184.592.184.232 0 .424-.08a.74.74 0 0 0 .328-.288q.137-.208.152-.56l.272.312q-.04.456-.224.768a1.2 1.2 0 0 1-.496.48q-.312.16-.768.16m5.048.024q-.897 0-1.408-.376-.504-.384-.528-1.056h1q.024.223.248.408t.704.184q.4 0 .632-.144.24-.144.24-.392a.4.4 0 0 0-.184-.344q-.176-.127-.608-.168l-.384-.04q-.729-.08-1.12-.416t-.392-.896q0-.449.224-.752.223-.305.616-.456.399-.16.912-.16.8 0 1.296.352.495.352.52 1.032h-1a.53.53 0 0 0-.224-.384q-.209-.16-.6-.16-.352 0-.544.136a.41.41 0 0 0-.192.352q0 .209.152.32.16.113.512.152l.384.04q.768.08 1.2.424.44.344.44.928 0 .432-.24.752a1.5 1.5 0 0 1-.656.488 2.6 2.6 0 0 1-1 .176m4.902.016q-.576 0-1.016-.184a2.2 2.2 0 0 1-.744-.496 2.3 2.3 0 0 1-.464-.72 2.3 2.3 0 0 1-.152-.832v-.168q0-.447.16-.848a2.3 2.3 0 0 1 .472-.72q.312-.32.752-.496.44-.184.992-.184t.992.184q.441.176.744.496.313.312.472.72.16.4.16.848v.168q0 .432-.16.832a2.1 2.1 0 0 1-.456.72 2.2 2.2 0 0 1-.744.496 2.6 2.6 0 0 1-1.008.184m0-.952q.409 0 .688-.176.28-.184.424-.488.144-.312.144-.704 0-.4-.152-.704a1.1 1.1 0 0 0-.432-.488 1.2 1.2 0 0 0-.672-.184q-.392 0-.68.184-.279.176-.432.488a1.56 1.56 0 0 0-.152.704q0 .392.144.704.153.304.432.488.28.176.688.176m3.342.8v-4.344h.88v1.864h-.08q0-.663.176-1.104a1.37 1.37 0 0 1 .52-.672q.352-.225.872-.224h.048q.776 0 1.176.504.4.496.4 1.488v2.488h-1.112v-2.584q0-.4-.232-.648-.224-.248-.624-.248a.9.9 0 0 0-.664.256q-.248.249-.248.672v2.552z"/><defs><clipPath id="a"><path fill="#fff" d="M447 317h82.11v31.416H447z"/></clipPath><clipPath id="b"><path fill="#fff" d="M54 127h82.11v31.416H54z"/></clipPath><clipPath id="c"><path fill="#fff" d="M188 210h72.837v54.877H188z"/></clipPath><clipPath id="d"><rect width="80.844" height="23.176" x="141.161" y="38.357" fill="#fff" rx="5.296"/></clipPath><clipPath id="e"><rect width="80.844" height="23.176" x="226.751" y="38.357" fill="#fff" rx="5.296"/></clipPath><filter id="f" width="96.899" height="48.47" x="455.825" y="27.829" color-interpolation-filters="sRGB" filterUnits="userSpaceOnUse"><feFlood flood-opacity="0" result="BackgroundImageFix"/><feColorMatrix in="SourceAlpha" result="hardAlpha" values="0 0 0 0 0 0 0 0 0 0 0 0 0 0 0 0 0 0 127 0"/><feOffset dy="2.107"/><feGaussianBlur stdDeviation="6.322"/><feComposite in2="hardAlpha" operator="out"/><feColorMatrix values="0 0 0 0 0.0980392 0 0 0 0 0.439216 0 0 0 0 0.94902 0 0 0 0.1 0"/><feBlend in2="BackgroundImageFix" result="effect1_dropShadow_77_28105"/><feBlend in="SourceGraphic" in2="effect1_dropShadow_77_28105" result="shape"/></filter><filter id="g" width="33.36" height="37.67" x="502.513" y="49.206" color-interpolation-filters="sRGB" filterUnits="userSpaceOnUse"><feFlood flood-opacity="0" result="BackgroundImageFix"/><feColorMatrix in="SourceAlpha" result="hardAlpha" values="0 0 0 0 0 0 0 0 0 0 0 0 0 0 0 0 0 0 127 0"/><feOffset dy="2.942"/><feGaussianBlur stdDeviation="2.998"/><feComposite in2="hardAlpha" operator="out"/><feColorMatrix values="0 0 0 0 0 0 0 0 0 0 0 0 0 0 0 0 0 0 0.25 0"/><feBlend in2="BackgroundImageFix" result="effect1_dropShadow_77_28105"/><feBlend in="SourceGraphic" in2="effect1_dropShadow_77_28105" result="shape"/></filter></defs></svg>