<svg width="430" height="424" viewBox="0 0 430 424" fill="none" xmlns="http://www.w3.org/2000/svg">
<g clip-path="url(#clip0_4043_2608)">
<path d="M169.416 63.021C167.816 63.1958 166.241 63.5521 164.721 64.0831C161.517 65.166 158.676 67.1177 156.516 69.7204L144.115 26.3807C146.368 26.3108 148.541 25.5313 150.324 24.1533L169.416 63.021Z" fill="url(#paint0_linear_4043_2608)"/>
<path d="M406.63 385.341L132.695 394.021V278.248C171.021 275.948 218.463 264.918 264.998 242.954C292.651 229.929 315.372 216.432 333.247 203.037L406.63 385.341Z" fill="url(#paint1_linear_4043_2608)"/>
<path d="M380.916 118.035C379.569 114.575 377.748 111.317 375.507 108.356C363.037 91.7237 324.543 90.3649 276.143 100.56C280.847 106.268 283.438 113.424 283.48 120.82C283.521 128.216 281.01 135.401 276.37 141.161C264.997 155.377 245.342 172.293 212.219 183.094C180.399 193.47 155.394 194.12 137.971 192.008C131.559 191.227 125.533 188.526 120.685 184.258C115.836 179.991 112.392 174.357 110.803 168.096C96.1066 178.907 82.9106 191.621 71.5615 205.906C59.8784 220.668 50.3195 237.042 51.201 250.394C59.2549 265.482 90.7051 272.995 132.695 270.139C170.638 267.559 217.198 256.53 262.877 234.983C290.268 222.057 312.826 208.71 330.636 195.448C367.793 167.778 384.292 140.46 380.916 118.035ZM107.243 226.705C101.902 236.72 92.2316 241.996 85.6397 238.478C79.0478 234.961 78.0287 223.996 83.365 213.968C88.7013 203.941 98.3763 198.678 104.968 202.191C111.56 205.704 112.579 216.686 107.243 226.705ZM164.076 249.624C155.024 249.624 147.689 239.51 147.689 227.045C147.689 214.579 155.024 204.465 164.076 204.465C173.127 204.465 180.463 214.57 180.463 227.045C180.463 239.519 173.123 249.624 164.076 249.624ZM249.397 231.039C240.453 234.828 229.045 228.094 223.919 215.989C218.793 203.885 221.898 191.015 230.842 187.227C239.786 183.438 251.19 190.172 256.315 202.277C261.441 214.381 258.353 227.255 249.397 231.039ZM320.39 182.54C314.473 189.39 302.029 188.332 292.594 180.179C283.16 172.026 280.305 159.862 286.226 153.012C292.147 146.162 304.587 147.228 314.021 155.381C323.455 163.534 326.311 175.694 320.39 182.54ZM356.677 121.51C356.153 128.962 346.551 134.362 335.229 133.55C323.907 132.737 315.148 126.072 315.672 118.62C316.197 111.168 325.795 105.767 337.121 106.559C348.447 107.35 357.198 114.054 356.677 121.51Z" fill="#D1CFFF"/>
<path d="M383.167 136.835C383.129 137.175 383.081 137.515 383.038 137.854C383.038 137.897 383.038 137.94 383.038 137.983C382.94 138.624 382.832 139.273 382.716 139.91C382.6 140.546 382.445 141.256 382.286 141.935C382.286 141.935 382.286 141.97 382.286 141.987C382.204 142.331 382.118 142.679 382.032 143.027C381.946 143.376 381.847 143.728 381.748 144.077C381.65 144.425 381.551 144.777 381.447 145.13C381.344 145.474 381.232 145.822 381.121 146.171C380.781 147.228 380.407 148.299 379.99 149.37C379.852 149.727 379.71 150.084 379.56 150.445L379.13 151.524C378.66 152.605 378.159 153.691 377.629 154.784L377.1 155.846V155.88C376.722 156.607 376.335 157.342 375.926 158.077C375.518 158.813 375.101 159.552 374.636 160.292C374.172 161.031 373.742 161.78 373.269 162.519C373.247 162.558 373.222 162.592 373.204 162.627C372.749 163.341 372.284 164.05 371.803 164.777C371.549 165.155 371.291 165.529 371.033 165.903C370.775 166.277 370.551 166.6 370.302 166.948C370.278 166.975 370.257 167.004 370.237 167.034C369.7 167.782 369.145 168.539 368.578 169.296C368.01 170.053 367.391 170.844 366.776 171.627L365.916 172.715C365.292 173.476 364.656 174.241 364.002 175.002C363.349 175.763 362.682 176.533 361.994 177.303C361.306 178.072 360.605 178.838 359.883 179.612C358.45 181.151 356.946 182.698 355.372 184.251C354.584 185.025 353.781 185.802 352.964 186.582C352.147 187.362 351.313 188.142 350.462 188.921C350.428 188.943 350.399 188.97 350.376 189.003C349.55 189.751 348.709 190.504 347.852 191.26C346.521 192.433 345.155 193.607 343.754 194.782C342.352 195.958 340.919 197.136 339.454 198.317C338.473 199.099 337.467 199.886 336.444 200.677L336.414 200.703C335.402 201.477 334.377 202.254 333.339 203.034C330.541 205.124 327.627 207.218 324.597 209.316C322.777 210.572 320.913 211.829 319.007 213.087C317.726 213.947 316.423 214.794 315.098 215.629C314.462 216.059 313.808 216.441 313.168 216.854L312.953 216.992L311.164 218.11C310.493 218.54 309.814 218.944 309.13 219.361C308.446 219.778 307.776 220.191 307.092 220.604C306.401 221.025 305.704 221.442 305.002 221.855C302.901 223.111 300.751 224.362 298.552 225.609L297.193 226.383C296.359 226.856 295.521 227.325 294.673 227.798C294.136 228.094 293.598 228.395 293.052 228.692C291.421 229.592 289.771 230.488 288.103 231.379L286.417 232.278C284.728 233.173 283.016 234.071 281.283 234.957C280.137 235.55 278.973 236.144 277.792 236.737C277.203 237.034 276.613 237.335 276.02 237.623C272.468 239.403 268.823 241.173 265.085 242.934C262.614 244.103 260.139 245.24 257.659 246.343L255.178 247.44C246.015 251.43 236.929 254.999 227.899 258.177C225.439 259.037 222.982 259.876 220.529 260.693C218.897 261.231 217.268 261.758 215.639 262.271L213.201 263.04L212.793 263.169C210.5 263.875 208.206 264.554 205.913 265.208C200.377 266.799 194.898 268.243 189.474 269.542L189.164 269.615L186.804 270.17C185.23 270.531 183.665 270.882 182.108 271.223L179.773 271.726C177.503 272.208 175.248 272.662 173.009 273.089C169.856 273.694 166.726 274.248 163.618 274.749C162.909 274.87 162.203 274.981 161.498 275.089C158.517 275.559 155.567 275.986 152.649 276.37C150.461 276.657 148.299 276.912 146.16 277.136L144.01 277.359L141.894 277.561C141.249 277.626 140.604 277.678 139.964 277.738H139.792C139.095 277.798 138.399 277.858 137.706 277.91L135.638 278.065L133.587 278.202C132.903 278.245 132.224 278.288 131.549 278.323C130.198 278.4 128.865 278.464 127.541 278.516C126.724 278.55 125.911 278.581 125.103 278.602C117.216 278.869 109.32 278.692 101.453 278.073C97.3278 277.729 93.4148 277.256 89.7139 276.654C86.9505 276.178 84.3031 275.654 81.7718 275.08C80.9333 274.883 80.1034 274.65 79.295 274.461C78.0824 274.134 76.8999 273.799 75.7561 273.442C75.3734 273.326 74.995 273.201 74.6209 273.081C73.4943 272.711 72.4107 272.324 71.3615 271.924C70.6606 271.653 69.9726 271.378 69.3104 271.099L68.3171 270.669C65.0409 269.247 61.9635 267.406 59.1624 265.19C58.9345 265.005 58.7109 264.821 58.4916 264.631C58.0616 264.253 57.6316 263.87 57.236 263.479C56.3796 262.642 55.5889 261.741 54.871 260.783C54.6259 260.452 54.3894 260.116 54.1658 259.777C53.3372 258.512 52.6712 257.148 52.1835 255.717C52.0244 255.24 51.8911 254.767 51.7535 254.281C51.7191 254.122 51.6804 253.963 51.646 253.804C51.5471 253.327 51.4568 252.841 51.3837 252.355C51.2891 251.706 51.2203 251.065 51.1816 250.381C59.2269 265.474 90.6857 272.986 132.68 270.131C170.623 267.551 217.183 256.522 262.862 234.974C290.253 222.048 312.811 208.701 330.621 195.44C367.791 167.757 384.294 140.43 380.897 117.997C381.215 118.818 381.503 119.653 381.757 120.487C382.189 121.883 382.539 123.303 382.806 124.739C382.804 124.752 382.804 124.765 382.806 124.778C382.961 125.638 383.089 126.498 383.189 127.358C383.219 127.655 383.253 127.947 383.279 128.244C383.305 128.541 383.331 128.829 383.348 129.125C383.387 129.719 383.417 130.312 383.43 130.91C383.482 132.889 383.395 134.869 383.167 136.835Z" fill="url(#paint2_linear_4043_2608)"/>
<path d="M107.245 226.704C101.904 236.719 92.2336 241.995 85.6417 238.478C79.0498 234.96 78.0307 223.995 83.367 213.968C88.7033 203.94 98.3783 198.677 104.97 202.19C111.562 205.703 112.581 216.685 107.245 226.704Z" fill="white"/>
<path d="M356.677 121.51C356.152 128.962 346.55 134.363 335.228 133.55C323.906 132.738 315.147 126.073 315.672 118.621C316.196 111.169 325.794 105.768 337.12 106.559C348.446 107.351 357.197 114.054 356.677 121.51Z" fill="white"/>
<path d="M164.077 249.622C173.127 249.622 180.464 239.513 180.464 227.043C180.464 214.573 173.127 204.464 164.077 204.464C155.026 204.464 147.689 214.573 147.689 227.043C147.689 239.513 155.026 249.622 164.077 249.622Z" fill="white"/>
<path d="M320.388 182.54C314.472 189.39 302.027 188.332 292.593 180.179C283.159 172.027 280.304 159.862 286.225 153.012C292.146 146.162 304.586 147.229 314.02 155.381C323.454 163.534 326.31 175.695 320.388 182.54Z" fill="white"/>
<path d="M249.396 231.039C240.452 234.827 229.045 228.093 223.919 215.989C218.793 203.884 221.898 191.014 230.842 187.226C239.786 183.438 251.19 190.172 256.315 202.276C261.441 214.381 258.353 227.255 249.396 231.039Z" fill="white"/>
<path d="M275.628 99.9534C266.646 117.153 247.678 136.417 208.931 151.553C153.71 173.17 124.41 168.685 109.859 161.74C109.77 159.898 109.842 158.052 110.074 156.223C113.002 132.745 122.501 100.104 151.517 81.257C157.317 77.51 163.548 74.478 170.076 72.227C175.23 70.4203 180.532 69.0678 185.922 68.185C222.902 62.165 253.651 80.8399 272.102 96.4618C273.366 97.5333 274.544 98.7006 275.628 99.9534Z" fill="url(#paint3_linear_4043_2608)"/>
<path d="M186.404 68.2696C181.015 69.1524 175.713 70.5049 170.559 72.3116C164.031 74.5626 157.8 77.5946 152 81.3416C152.645 77.6694 154.034 73.3479 156.988 69.8047C159.15 67.2006 161.994 65.2489 165.201 64.1674C166.722 63.6361 168.299 63.2797 169.901 63.1053C176.669 62.4044 182.423 65.3241 186.404 68.2696Z" fill="url(#paint4_linear_4043_2608)"/>
<path d="M276.373 141.16C264.999 155.376 245.344 172.292 212.221 183.094C180.401 193.47 155.396 194.119 137.973 192.008C131.561 191.227 125.535 188.525 120.687 184.258C115.838 179.99 112.394 174.356 110.805 168.095C110.274 166.015 109.957 163.885 109.859 161.74C111.917 162.717 114.039 163.552 116.21 164.238C132.353 169.398 160.797 170.396 208.931 151.562C247.068 136.658 266.044 117.747 275.199 100.762C275.345 100.491 275.491 100.224 275.629 99.9531L276.145 100.559C280.849 106.267 283.44 113.423 283.482 120.819C283.523 128.216 281.012 135.4 276.373 141.16Z" fill="url(#paint5_linear_4043_2608)"/>
<path d="M175.302 315.826C177.157 315.826 178.661 314.322 178.661 312.468C178.661 310.613 177.157 309.109 175.302 309.109C173.448 309.109 171.944 310.613 171.944 312.468C171.944 314.322 173.448 315.826 175.302 315.826Z" fill="white"/>
<path d="M199.721 305.214C204.514 305.214 208.399 301.329 208.399 296.537C208.399 291.744 204.514 287.859 199.721 287.859C194.929 287.859 191.044 291.744 191.044 296.537C191.044 301.329 194.929 305.214 199.721 305.214Z" fill="white"/>
<path d="M210 323.275C212.057 323.275 213.724 321.608 213.724 319.551C213.724 317.494 212.057 315.827 210 315.827C207.944 315.827 206.276 317.494 206.276 319.551C206.276 321.608 207.944 323.275 210 323.275Z" fill="white"/>
<path d="M331.305 255.627C333.848 255.627 335.91 253.565 335.91 251.021C335.91 248.478 333.848 246.416 331.305 246.416C328.761 246.416 326.699 248.478 326.699 251.021C326.699 253.565 328.761 255.627 331.305 255.627Z" fill="white"/>
<path d="M303.778 296.53C308.917 296.53 313.083 292.364 313.083 287.225C313.083 282.086 308.917 277.92 303.778 277.92C298.639 277.92 294.473 282.086 294.473 287.225C294.473 292.364 298.639 296.53 303.778 296.53Z" fill="white"/>
<path d="M371.079 251.809C374.698 251.809 377.632 248.875 377.632 245.255C377.632 241.636 374.698 238.702 371.079 238.702C367.459 238.702 364.525 241.636 364.525 245.255C364.525 248.875 367.459 251.809 371.079 251.809Z" fill="url(#paint6_linear_4043_2608)"/>
<path d="M154.512 15.6338C154.514 18.4248 153.43 21.107 151.49 23.1132C149.549 25.1194 146.905 26.2922 144.115 26.3838C143.999 26.3838 143.879 26.3838 143.762 26.3838C141.636 26.3838 139.558 25.7533 137.79 24.5721C136.022 23.3909 134.644 21.712 133.831 19.7476C133.017 17.7833 132.804 15.6219 133.219 13.5366C133.634 11.4513 134.658 9.53581 136.161 8.0324C137.664 6.52898 139.58 5.50514 141.665 5.09035C143.751 4.67556 145.912 4.88845 147.876 5.70209C149.841 6.51573 151.52 7.89359 152.701 9.66142C153.882 11.4292 154.512 13.5076 154.512 15.6338Z" fill="url(#paint7_linear_4043_2608)"/>
<path d="M276.355 58.3592L277.138 16.3912C277.148 15.8709 277.276 15.3597 277.511 14.8954C277.746 14.4311 278.082 14.0255 278.495 13.7088C278.908 13.3921 279.387 13.1724 279.896 13.0658C280.406 12.9592 280.932 12.9685 281.438 13.0931L307.375 19.6119C307.93 19.7514 308.443 20.0262 308.866 20.4117C309.289 20.7972 309.61 21.2815 309.801 21.8213C309.992 22.3611 310.046 22.9397 309.959 23.5055C309.872 24.0714 309.646 24.6069 309.302 25.0643L282.594 60.5092C282.153 61.0938 281.538 61.5238 280.837 61.7376C280.137 61.9514 279.387 61.9381 278.694 61.6994C278.002 61.4608 277.402 61.0091 276.982 60.4091C276.562 59.8091 276.342 59.0915 276.355 58.3592Z" fill="#D3D1FF"/>
<path d="M292.29 65.1962L305.792 51.0062C306.151 50.627 306.59 50.3338 307.079 50.1485C307.567 49.9632 308.09 49.8905 308.611 49.936C309.131 49.9815 309.634 50.1439 310.082 50.4111C310.531 50.6783 310.913 51.0434 311.201 51.4792L318.081 61.8981C318.396 62.376 318.589 62.9247 318.641 63.495C318.693 64.0653 318.603 64.6397 318.379 65.1668C318.155 65.6939 317.804 66.1574 317.357 66.5159C316.911 66.8744 316.382 67.1168 315.819 67.2215L295.441 71.0012C294.72 71.1366 293.974 71.0398 293.311 70.7245C292.648 70.4092 292.102 69.8917 291.752 69.2465C291.401 68.6013 291.265 67.8615 291.361 67.1337C291.458 66.4059 291.783 65.7276 292.29 65.1962Z" fill="#D3D1FF"/>
<path d="M84.0282 159.775L69.7178 161.843C69.2013 161.918 68.7085 162.109 68.2759 162.401C67.8434 162.693 67.4822 163.079 67.2194 163.529C66.9566 163.98 66.7988 164.485 66.7579 165.005C66.717 165.525 66.7939 166.048 66.983 166.534L70.3198 175.134C70.5272 175.668 70.8635 176.142 71.2987 176.514C71.7338 176.887 72.2543 177.145 72.8137 177.268C73.3732 177.39 73.9542 177.372 74.5049 177.215C75.0556 177.058 75.5589 176.767 75.97 176.368L86.9393 165.717C87.473 165.208 87.8306 164.543 87.9603 163.816C88.09 163.09 87.985 162.342 87.6606 161.68C87.3361 161.017 86.8091 160.476 86.1559 160.133C85.5028 159.791 84.7575 159.665 84.0282 159.775Z" fill="white"/>
<path d="M260.45 56.1703L255.57 50.5201C255.228 50.1254 254.98 49.6586 254.843 49.1545C254.707 48.6504 254.687 48.122 254.784 47.6089C254.88 47.0958 255.092 46.6112 255.402 46.1912C255.713 45.7713 256.114 45.4269 256.576 45.1838L260.786 42.965C261.292 42.6983 261.857 42.5611 262.429 42.5655C263.002 42.57 263.564 42.716 264.067 42.9906C264.569 43.2652 264.995 43.6598 265.308 44.1393C265.621 44.6187 265.811 45.1681 265.86 45.7385L266.53 53.6075C266.594 54.3382 266.425 55.0705 266.047 55.6988C265.668 56.3272 265.1 56.8192 264.424 57.1041C263.748 57.389 262.999 57.4521 262.285 57.2843C261.571 57.1165 260.928 56.7265 260.45 56.1703Z" fill="#D3D1FF"/>
<path d="M149.871 183.558C148.03 183.558 146.323 183.519 144.745 183.454C130.237 182.835 123.159 179.86 122.867 179.731C122.561 179.59 122.322 179.335 122.202 179.021C122.081 178.707 122.088 178.358 122.221 178.049C122.354 177.74 122.602 177.495 122.913 177.367C123.224 177.238 123.573 177.236 123.886 177.361C124.006 177.413 131.006 180.311 145.059 180.883C158.092 181.416 180.031 179.993 210.509 170.21C210.831 170.12 211.175 170.158 211.469 170.316C211.763 170.474 211.985 170.741 212.087 171.059C212.189 171.377 212.163 171.722 212.016 172.022C211.868 172.322 211.61 172.552 211.296 172.666C184.038 181.421 163.454 183.558 149.871 183.558ZM221.199 167.824C220.903 167.823 220.616 167.72 220.387 167.533C220.157 167.346 220 167.085 219.94 166.795C219.88 166.505 219.921 166.204 220.057 165.941C220.193 165.678 220.416 165.47 220.687 165.351C243.985 155.264 261.834 139.259 262.015 139.1C262.272 138.901 262.596 138.807 262.92 138.836C263.244 138.865 263.545 139.016 263.763 139.258C263.981 139.5 264.099 139.816 264.093 140.141C264.088 140.467 263.96 140.778 263.735 141.013C263.554 141.177 245.404 157.457 221.702 167.716C221.543 167.786 221.372 167.822 221.199 167.824ZM250.129 101.243C249.941 101.242 249.754 101.201 249.583 101.12C249.412 101.04 249.261 100.923 249.14 100.778C238.39 87.8999 223.435 82.4518 212.797 80.1384C201.187 77.6229 192.032 78.1948 191.942 78.2034C191.6 78.2262 191.262 78.1122 191.004 77.8864C190.746 77.6606 190.589 77.3415 190.566 76.9994C190.543 76.6573 190.657 76.3201 190.883 76.062C191.109 75.804 191.428 75.6462 191.77 75.6234C192.152 75.5976 201.324 75.0171 213.27 77.5928C224.329 79.9793 239.87 85.6467 251.11 99.0928C251.268 99.2809 251.369 99.5103 251.401 99.754C251.433 99.9976 251.395 100.245 251.291 100.468C251.187 100.691 251.022 100.879 250.815 101.011C250.607 101.143 250.366 101.213 250.121 101.213L250.129 101.243ZM121.632 262.273C106.699 262.273 94.951 260.734 86.2564 258.898C66.8548 254.796 58.1258 248.509 57.7646 248.243C57.4886 248.04 57.3043 247.736 57.2523 247.398C57.2003 247.06 57.2848 246.715 57.4872 246.439C57.6896 246.163 57.9934 245.978 58.3317 245.926C58.67 245.874 59.0151 245.959 59.2911 246.161C59.3771 246.222 68.0674 252.448 87.0089 256.417C104.523 260.089 134.61 262.523 178.517 253.287C178.684 253.249 178.856 253.245 179.024 253.275C179.192 253.305 179.353 253.368 179.497 253.46C179.64 253.552 179.764 253.672 179.861 253.813C179.958 253.953 180.026 254.112 180.061 254.279C180.097 254.446 180.099 254.618 180.067 254.786C180.035 254.954 179.97 255.113 179.876 255.256C179.782 255.398 179.661 255.521 179.519 255.616C179.377 255.711 179.218 255.777 179.05 255.811C156.321 260.592 137.237 262.273 121.632 262.273Z" fill="white"/>
<g opacity="0.5">
<path d="M238.868 332.771C238.552 332.774 238.247 332.661 238.009 332.453C237.771 332.245 237.618 331.958 237.578 331.645L230.483 276.239C230.443 275.902 230.538 275.563 230.747 275.295C230.956 275.027 231.262 274.852 231.598 274.809C231.935 274.765 232.276 274.856 232.546 275.062C232.816 275.268 232.994 275.572 233.041 275.908L240.149 331.318C240.193 331.657 240.1 332 239.892 332.271C239.683 332.542 239.375 332.719 239.036 332.763L238.868 332.771ZM247.997 295.262C247.704 295.262 247.421 295.162 247.193 294.979C246.965 294.796 246.805 294.541 246.741 294.256L241.289 270.228C241.213 269.894 241.274 269.543 241.457 269.254C241.64 268.964 241.931 268.759 242.265 268.684C242.599 268.609 242.949 268.669 243.239 268.853C243.528 269.036 243.733 269.326 243.809 269.66L249.257 293.684C249.332 294.018 249.273 294.368 249.09 294.657C248.908 294.947 248.618 295.152 248.285 295.228C248.19 295.25 248.094 295.261 247.997 295.262ZM150.855 328.114C150.513 328.114 150.185 327.979 149.943 327.737C149.701 327.495 149.565 327.167 149.565 326.824V283.919C149.565 283.577 149.701 283.249 149.943 283.007C150.185 282.765 150.513 282.629 150.855 282.629C151.198 282.629 151.526 282.765 151.768 283.007C152.01 283.249 152.145 283.577 152.145 283.919V326.824C152.145 327.167 152.01 327.495 151.768 327.737C151.526 327.979 151.198 328.114 150.855 328.114ZM303.776 334.491C303.509 334.492 303.247 334.41 303.029 334.256C302.81 334.102 302.644 333.884 302.555 333.631L272.954 246.832C272.899 246.671 272.876 246.502 272.887 246.333C272.898 246.163 272.942 245.998 273.017 245.846C273.091 245.694 273.195 245.558 273.322 245.446C273.45 245.334 273.598 245.248 273.758 245.193C273.918 245.139 274.088 245.116 274.257 245.127C274.426 245.137 274.592 245.181 274.744 245.256C274.896 245.331 275.032 245.435 275.144 245.562C275.256 245.689 275.342 245.837 275.396 245.997L304.993 332.771C305.062 332.966 305.083 333.175 305.055 333.38C305.026 333.585 304.949 333.78 304.829 333.948C304.709 334.117 304.551 334.254 304.367 334.349C304.183 334.443 303.979 334.492 303.772 334.491H303.776Z" fill="white"/>
</g>
<path opacity="0.5" d="M383.057 137.687C383.057 137.742 383.057 137.798 383.035 137.854C383.014 137.91 383.035 137.94 383.035 137.983C382.935 138.625 382.827 139.266 382.713 139.905C382.584 140.58 382.442 141.256 382.283 141.935C382.282 141.952 382.282 141.969 382.283 141.987C382.201 142.331 382.115 142.679 382.029 143.027C381.943 143.375 381.844 143.728 381.745 144.076C381.646 144.425 381.548 144.777 381.444 145.13C381.341 145.474 381.229 145.822 381.118 146.17C380.778 147.228 380.404 148.295 379.987 149.37C379.849 149.725 379.706 150.082 379.557 150.44C379.41 150.802 379.26 151.163 379.127 151.524C378.657 152.605 378.156 153.691 377.626 154.783L377.097 155.845V155.88C376.719 156.607 376.332 157.342 375.923 158.077C375.515 158.812 375.098 159.552 374.633 160.292C374.169 161.031 373.739 161.779 373.27 162.519C373.245 162.553 373.222 162.589 373.201 162.627C372.745 163.34 372.281 164.05 371.799 164.777C371.546 165.155 371.288 165.529 371.03 165.903C370.772 166.277 370.548 166.595 370.299 166.948C370.275 166.975 370.254 167.004 370.234 167.034C369.697 167.782 369.142 168.539 368.574 169.296C368.007 170.053 367.388 170.844 366.773 171.626L365.913 172.714C365.289 173.475 364.653 174.241 363.999 175.002C363.346 175.763 362.679 176.533 361.991 177.302C361.303 178.072 360.602 178.838 359.88 179.612C358.447 181.151 356.943 182.697 355.369 184.251C354.581 185.025 353.778 185.802 352.961 186.582C352.144 187.362 351.31 188.141 350.459 188.921C350.425 188.942 350.396 188.97 350.373 189.003C349.547 189.751 348.706 190.503 347.848 191.26C346.52 192.43 345.157 193.608 343.751 194.782C342.344 195.956 340.908 197.134 339.451 198.317C338.47 199.099 337.464 199.886 336.441 200.677L336.41 200.703C335.398 201.477 334.374 202.254 333.336 203.034L338.059 215.603H391.038C391.257 215.603 391.468 215.603 391.704 215.603C401.994 215.452 411.807 211.236 418.999 203.875C426.191 196.514 430.178 186.606 430.09 176.315C430.002 166.025 425.846 156.187 418.529 148.95C411.212 141.713 401.329 137.666 391.038 137.691L383.057 137.687Z" fill="url(#paint8_linear_4043_2608)"/>
<path opacity="0.5" d="M38.2885 215.596C38.5121 215.596 38.7185 215.596 38.955 215.596H64.4024C66.6384 212.32 69.0507 209.069 71.5619 205.896C82.9122 191.612 96.108 178.897 110.804 168.086C109.821 164.208 109.573 160.182 110.073 156.213C110.844 149.96 112.02 143.764 113.594 137.663C113.272 137.663 112.949 137.663 112.623 137.663H77.7926C77.2195 137.68 71 137.663 50.307 137.685C50.2377 137.115 46.5382 147.356 46.7466 146.822L50.307 137.685L38.955 137.685C28.6639 137.659 18.7808 141.707 11.464 148.944C4.14708 156.181 -0.00917258 166.018 -0.0972055 176.309C-0.185238 186.6 3.8021 196.508 10.9941 203.868C18.1861 211.229 27.9985 215.446 38.2885 215.596ZM69.7172 161.846L84.0276 159.778C84.7533 159.673 85.4935 159.801 86.1419 160.144C86.7904 160.486 87.3138 161.024 87.6371 161.682C87.9604 162.341 88.067 163.084 87.9415 163.806C87.816 164.529 87.465 165.193 86.9387 165.703L75.9694 176.35C75.5583 176.749 75.055 177.04 74.5043 177.196C73.9536 177.353 73.3726 177.371 72.8132 177.249C72.2537 177.127 71.7332 176.868 71.2981 176.496C70.8629 176.124 70.5266 175.65 70.3192 175.116L66.9824 166.516C66.7965 166.031 66.722 165.51 66.7645 164.991C66.807 164.473 66.9654 163.971 67.2279 163.523C67.4904 163.074 67.8504 162.69 68.2813 162.399C68.7122 162.108 69.2029 161.918 69.7172 161.842V161.846Z" fill="url(#paint9_linear_4043_2608)"/>
</g>
<path d="M94.0159 412V384.583H97.3059L111.915 406.595V384.583H115.205V412H111.915L97.3059 389.988V412H94.0159ZM129.866 412.47C127.96 412.47 126.276 412.026 124.814 411.138C123.351 410.251 122.216 408.997 121.406 407.378C120.597 405.759 120.192 403.866 120.192 401.699C120.192 399.506 120.597 397.613 121.406 396.02C122.242 394.401 123.391 393.147 124.853 392.26C126.341 391.372 128.038 390.928 129.945 390.928C131.877 390.928 133.561 391.372 134.997 392.26C136.459 393.147 137.595 394.401 138.405 396.02C139.214 397.613 139.619 399.506 139.619 401.699C139.619 403.866 139.201 405.759 138.366 407.378C137.556 408.997 136.42 410.251 134.958 411.138C133.496 412.026 131.799 412.47 129.866 412.47ZM129.866 409.65C131.067 409.65 132.151 409.363 133.117 408.788C134.083 408.188 134.841 407.3 135.389 406.125C135.963 404.924 136.251 403.448 136.251 401.699C136.251 399.923 135.976 398.448 135.428 397.273C134.88 396.098 134.122 395.223 133.156 394.649C132.216 394.048 131.146 393.748 129.945 393.748C128.77 393.748 127.699 394.048 126.733 394.649C125.767 395.223 124.996 396.098 124.422 397.273C123.848 398.448 123.56 399.923 123.56 401.699C123.56 403.448 123.835 404.924 124.383 406.125C124.957 407.3 125.715 408.188 126.655 408.788C127.621 409.363 128.691 409.65 129.866 409.65ZM155.138 412V384.583H162.189C165.374 384.583 167.998 385.144 170.061 386.267C172.15 387.364 173.691 388.943 174.683 391.006C175.701 393.043 176.21 395.497 176.21 398.37C176.21 401.19 175.701 403.618 174.683 405.655C173.691 407.692 172.15 409.258 170.061 410.355C167.998 411.452 165.374 412 162.189 412H155.138ZM158.428 409.258H162.11C164.747 409.258 166.849 408.827 168.416 407.966C169.983 407.078 171.106 405.825 171.785 404.206C172.463 402.561 172.803 400.615 172.803 398.37C172.803 396.072 172.463 394.101 171.785 392.455C171.106 390.81 169.983 389.544 168.416 388.656C166.849 387.768 164.747 387.325 162.11 387.325H158.428V409.258ZM187.336 412.47C185.77 412.47 184.464 412.183 183.42 411.608C182.375 411.008 181.592 410.224 181.07 409.258C180.547 408.266 180.286 407.209 180.286 406.086C180.286 404.728 180.626 403.579 181.305 402.639C182.01 401.673 182.989 400.942 184.242 400.446C185.496 399.95 186.958 399.701 188.629 399.701H193.76C193.76 398.37 193.603 397.26 193.29 396.372C192.977 395.484 192.467 394.819 191.762 394.375C191.057 393.931 190.117 393.709 188.942 393.709C187.767 393.709 186.762 394.009 185.926 394.61C185.091 395.184 184.569 396.046 184.36 397.195H180.991C181.148 395.837 181.605 394.701 182.362 393.787C183.119 392.847 184.073 392.142 185.221 391.672C186.396 391.176 187.637 390.928 188.942 390.928C190.796 390.928 192.324 391.267 193.525 391.946C194.726 392.599 195.614 393.526 196.188 394.727C196.763 395.902 197.05 397.299 197.05 398.918V412H194.112L193.917 408.475C193.655 409.023 193.316 409.546 192.898 410.042C192.507 410.512 192.037 410.929 191.488 411.295C190.94 411.661 190.313 411.948 189.608 412.157C188.929 412.366 188.172 412.47 187.336 412.47ZM187.806 409.689C188.668 409.689 189.465 409.493 190.196 409.102C190.927 408.71 191.553 408.188 192.076 407.535C192.624 406.856 193.042 406.099 193.329 405.263C193.616 404.428 193.76 403.553 193.76 402.639V402.247H188.903C187.676 402.247 186.671 402.404 185.887 402.717C185.13 403.031 184.582 403.475 184.242 404.049C183.903 404.597 183.733 405.224 183.733 405.929C183.733 406.686 183.89 407.352 184.203 407.927C184.516 408.475 184.973 408.906 185.574 409.219C186.201 409.532 186.945 409.689 187.806 409.689ZM209.94 412C208.765 412 207.747 411.817 206.885 411.452C206.024 411.086 205.358 410.472 204.888 409.611C204.444 408.723 204.222 407.535 204.222 406.047V394.179H200.618V391.398H204.222L204.653 386.267H207.512V391.398H213.348V394.179H207.512V406.047C207.512 407.274 207.76 408.109 208.256 408.553C208.752 408.971 209.627 409.18 210.88 409.18H213.27V412H209.94ZM224.285 412.47C222.719 412.47 221.413 412.183 220.369 411.608C219.324 411.008 218.541 410.224 218.019 409.258C217.496 408.266 217.235 407.209 217.235 406.086C217.235 404.728 217.575 403.579 218.254 402.639C218.959 401.673 219.938 400.942 221.191 400.446C222.445 399.95 223.907 399.701 225.578 399.701H230.709C230.709 398.37 230.552 397.26 230.239 396.372C229.925 395.484 229.416 394.819 228.711 394.375C228.006 393.931 227.066 393.709 225.891 393.709C224.716 393.709 223.711 394.009 222.875 394.61C222.04 395.184 221.518 396.046 221.309 397.195H217.94C218.097 395.837 218.554 394.701 219.311 393.787C220.068 392.847 221.021 392.142 222.17 391.672C223.345 391.176 224.586 390.928 225.891 390.928C227.745 390.928 229.273 391.267 230.474 391.946C231.675 392.599 232.563 393.526 233.137 394.727C233.712 395.902 233.999 397.299 233.999 398.918V412H231.061L230.866 408.475C230.604 409.023 230.265 409.546 229.847 410.042C229.455 410.512 228.985 410.929 228.437 411.295C227.889 411.661 227.262 411.948 226.557 412.157C225.878 412.366 225.121 412.47 224.285 412.47ZM224.755 409.689C225.617 409.689 226.413 409.493 227.145 409.102C227.876 408.71 228.502 408.188 229.025 407.535C229.573 406.856 229.991 406.099 230.278 405.263C230.565 404.428 230.709 403.553 230.709 402.639V402.247H225.852C224.625 402.247 223.62 402.404 222.836 402.717C222.079 403.031 221.531 403.475 221.191 404.049C220.852 404.597 220.682 405.224 220.682 405.929C220.682 406.686 220.839 407.352 221.152 407.927C221.465 408.475 221.922 408.906 222.523 409.219C223.15 409.532 223.894 409.689 224.755 409.689ZM250.188 412V384.583H266.873V387.285H253.478V396.921H264.876V399.584H253.478V412H250.188ZM279.077 412.47C277.171 412.47 275.487 412.026 274.025 411.138C272.562 410.251 271.426 408.997 270.617 407.378C269.808 405.759 269.403 403.866 269.403 401.699C269.403 399.506 269.808 397.613 270.617 396.02C271.453 394.401 272.602 393.147 274.064 392.26C275.552 391.372 277.249 390.928 279.156 390.928C281.088 390.928 282.772 391.372 284.208 392.26C285.67 393.147 286.806 394.401 287.616 396.02C288.425 397.613 288.83 399.506 288.83 401.699C288.83 403.866 288.412 405.759 287.577 407.378C286.767 408.997 285.631 410.251 284.169 411.138C282.707 412.026 281.009 412.47 279.077 412.47ZM279.077 409.65C280.278 409.65 281.362 409.363 282.328 408.788C283.294 408.188 284.051 407.3 284.6 406.125C285.174 404.924 285.461 403.448 285.461 401.699C285.461 399.923 285.187 398.448 284.639 397.273C284.091 396.098 283.333 395.223 282.367 394.649C281.427 394.048 280.357 393.748 279.156 393.748C277.981 393.748 276.91 394.048 275.944 394.649C274.978 395.223 274.207 396.098 273.633 397.273C273.058 398.448 272.771 399.923 272.771 401.699C272.771 403.448 273.045 404.924 273.594 406.125C274.168 407.3 274.925 408.188 275.865 408.788C276.832 409.363 277.902 409.65 279.077 409.65ZM300.998 412.47C299.484 412.47 298.165 412.183 297.042 411.608C295.92 411.034 295.045 410.159 294.418 408.984C293.792 407.783 293.478 406.295 293.478 404.519V391.398H296.768V404.167C296.768 405.994 297.212 407.365 298.1 408.279C299.014 409.193 300.228 409.65 301.743 409.65C302.787 409.65 303.727 409.415 304.563 408.945C305.398 408.449 306.064 407.731 306.56 406.791C307.082 405.851 307.344 404.702 307.344 403.344V391.398H310.634V412H307.657L307.461 408.71C306.913 409.911 306.064 410.838 304.915 411.491C303.792 412.144 302.487 412.47 300.998 412.47ZM316.201 412V391.398H319.178L319.335 394.649C319.935 393.474 320.797 392.56 321.92 391.907C323.068 391.254 324.387 390.928 325.875 390.928C327.39 390.928 328.709 391.215 329.831 391.79C330.954 392.364 331.829 393.239 332.456 394.414C333.082 395.589 333.396 397.077 333.396 398.879V412H330.106V399.231C330.106 397.404 329.649 396.033 328.735 395.119C327.847 394.205 326.646 393.748 325.131 393.748C324.113 393.748 323.173 393.996 322.311 394.492C321.45 394.962 320.758 395.667 320.235 396.607C319.739 397.547 319.491 398.696 319.491 400.054V412H316.201ZM347.344 412.47C345.516 412.47 343.897 412 342.487 411.06C341.077 410.12 339.981 408.84 339.197 407.222C338.414 405.577 338.022 403.723 338.022 401.66C338.022 399.571 338.414 397.73 339.197 396.137C339.981 394.518 341.077 393.252 342.487 392.338C343.897 391.398 345.529 390.928 347.383 390.928C349.002 390.928 350.386 391.254 351.535 391.907C352.71 392.56 353.637 393.474 354.316 394.649V383.799H357.606V412H354.629L354.355 408.71C353.963 409.363 353.441 409.976 352.788 410.551C352.162 411.125 351.391 411.595 350.478 411.961C349.59 412.3 348.545 412.47 347.344 412.47ZM347.775 409.611C349.081 409.611 350.216 409.297 351.183 408.671C352.149 408.018 352.893 407.104 353.415 405.929C353.937 404.728 354.198 403.318 354.198 401.699C354.198 400.08 353.937 398.683 353.415 397.508C352.893 396.307 352.149 395.393 351.183 394.766C350.216 394.114 349.081 393.787 347.775 393.787C346.548 393.787 345.451 394.114 344.485 394.766C343.519 395.393 342.762 396.307 342.213 397.508C341.665 398.683 341.391 400.08 341.391 401.699C341.391 403.318 341.665 404.728 342.213 405.929C342.762 407.104 343.519 408.018 344.485 408.671C345.451 409.297 346.548 409.611 347.775 409.611Z" fill="#9A97FF"/>
<defs>
<linearGradient id="paint0_linear_4043_2608" x1="153.95" y1="9.83368" x2="183.418" y2="34.2538" gradientUnits="userSpaceOnUse">
<stop stop-color="#D3D1FF"/>
<stop offset="1" stop-color="#E9E8FF" stop-opacity="0.5"/>
</linearGradient>
<linearGradient id="paint1_linear_4043_2608" x1="253.727" y1="355.294" x2="242.376" y2="247.126" gradientUnits="userSpaceOnUse">
<stop stop-color="white" stop-opacity="0"/>
<stop offset="1" stop-color="#D3D1FF"/>
</linearGradient>
<linearGradient id="paint2_linear_4043_2608" x1="217.313" y1="117.997" x2="217.313" y2="278.722" gradientUnits="userSpaceOnUse">
<stop stop-color="#BBB9FF"/>
<stop offset="1" stop-color="#F8F8FF"/>
</linearGradient>
<linearGradient id="paint3_linear_4043_2608" x1="150.5" y1="76.5" x2="211.5" y2="151" gradientUnits="userSpaceOnUse">
<stop stop-color="#BEBBFF"/>
<stop offset="1" stop-color="#E9E8FF" stop-opacity="0.5"/>
</linearGradient>
<linearGradient id="paint4_linear_4043_2608" x1="147.251" y1="57.0933" x2="185.248" y2="81.6953" gradientUnits="userSpaceOnUse">
<stop offset="0.14" stop-color="#E9E8FF"/>
<stop offset="1" stop-color="#8784FF"/>
</linearGradient>
<linearGradient id="paint5_linear_4043_2608" x1="85.8912" y1="69.995" x2="278.213" y2="193.895" gradientUnits="userSpaceOnUse">
<stop offset="0.14" stop-color="#E9E8FF"/>
<stop offset="1" stop-color="#8784FF"/>
</linearGradient>
<linearGradient id="paint6_linear_4043_2608" x1="362.716" y1="234.481" x2="381.072" y2="240.817" gradientUnits="userSpaceOnUse">
<stop offset="0.14" stop-color="#E9E8FF"/>
<stop offset="1" stop-color="#8784FF"/>
</linearGradient>
<linearGradient id="paint7_linear_4043_2608" x1="130.044" y1="-2.04009" x2="160.157" y2="8.35385" gradientUnits="userSpaceOnUse">
<stop offset="0.14" stop-color="#E9E8FF"/>
<stop offset="1" stop-color="#8784FF"/>
</linearGradient>
<linearGradient id="paint8_linear_4043_2608" x1="430.019" y1="164.348" x2="352.203" y2="145.07" gradientUnits="userSpaceOnUse">
<stop stop-color="#D3D1FF" stop-opacity="0.5"/>
<stop offset="1" stop-color="#D3D1FF"/>
</linearGradient>
<linearGradient id="paint9_linear_4043_2608" x1="113.51" y1="164.331" x2="24.0378" y2="138.29" gradientUnits="userSpaceOnUse">
<stop stop-color="#D3D1FF" stop-opacity="0.5"/>
<stop offset="1" stop-color="#D3D1FF"/>
</linearGradient>
<clipPath id="clip0_4043_2608">
<rect width="430" height="381" fill="white"/>
</clipPath>
</defs>
</svg>
