<svg width="36" height="36" viewBox="0 0 36 36" fill="none" xmlns="http://www.w3.org/2000/svg">
<path fill-rule="evenodd" clip-rule="evenodd" d="M18.988 35.9668C29.0186 35.3663 36.2325 27.039 35.9551 17.4123C35.5371 7.00244 26.8938 -0.401099 17.1863 0.0168425C7.0609 0.476929 -0.567414 9.03946 0.0331578 19.1719C0.588072 28.9356 9.18573 36.5674 18.988 35.9668ZM25.784 20.3766C24.8603 24.9107 22.2227 28.1032 17.9239 30.0911C18.0327 30.0911 18.0924 30.1051 18.1416 30.1192C18.1767 30.1297 18.2083 30.1367 18.247 30.1367C25.3204 30.1367 30.9608 23.6604 30.0371 16.5343C29.2961 10.7499 24.5372 6.21572 18.8967 5.89261C12.3782 5.52384 6.87827 9.96315 5.95107 16.5343C5.62796 18.8488 5.99673 21.0228 7.61581 22.7789C9.64933 24.9985 12.1921 25.7852 15.1036 24.8615C18.0608 23.9378 19.7256 21.7603 20.0979 18.7083C20.1435 18.0621 20.3753 18.0129 20.8846 18.0129H23.8418C25.4433 18.0129 26.0907 18.7996 25.784 20.3731V20.3766Z" fill="#6762FE"/>
</svg>
