<svg width="48" height="48" viewBox="0 0 48 48" fill="none" xmlns="http://www.w3.org/2000/svg">
<path d="M37.3605 28.1672C37.488 28.305 37.5442 28.47 37.5283 28.6566C36.8852 36.5119 29.3936 36.6478 33.3958 46.3313C33.5552 46.7166 33.5158 47.1178 33.2842 47.4637C33.0527 47.8097 32.6964 48 32.282 48H19.7224C19.1561 48 18.6808 47.625 18.5477 47.0775L17.8755 44.3034C13.4458 45.2044 10.3014 45.0553 12.0799 40.8806C11.0008 40.5112 10.6445 39.4003 11.8567 38.9062C11.2427 38.7281 10.2274 37.9041 11.3196 36.9609C10.2621 36.9319 7.99799 36.9159 9.49893 34.4869C11.9195 31.3772 11.9252 30.0675 11.9177 28.6059C11.9177 28.4278 11.9814 28.2741 12.1061 28.1484C12.2308 28.0209 12.3855 27.9572 12.5636 27.9572H36.8852C37.0736 27.9572 37.233 28.0284 37.3605 28.1672ZM16.5949 17.5425C16.3792 17.16 16.2517 16.6763 16.2517 16.1447C16.2517 15.6159 16.3792 15.1322 16.5949 14.7497C16.7917 14.3991 17.057 14.1441 17.3524 14.0297C17.7433 13.8806 17.942 13.44 17.7911 13.0491C17.7808 13.0172 17.7667 12.9881 17.7508 12.9591C17.7086 12.855 17.6711 12.7434 17.6449 12.6244C17.6172 12.4924 17.603 12.358 17.6027 12.2231C17.6027 11.7075 17.8127 11.2425 18.1502 10.905C18.4877 10.5675 18.9555 10.3575 19.4711 10.3575C19.5958 10.3575 19.7158 10.3678 19.8274 10.3894C19.8461 10.395 19.8649 10.3978 19.8836 10.4025C20.0327 10.7081 20.2314 10.9847 20.4705 11.2181C20.7995 11.5397 21.2036 11.7872 21.6527 11.9278C22.0539 12.0525 22.4796 11.8294 22.6042 11.4281C22.7289 11.0269 22.5058 10.5994 22.1045 10.4738C21.8903 10.4076 21.6951 10.2909 21.5355 10.1334C21.3761 9.97687 21.2514 9.78281 21.1792 9.57C21.1764 9.55687 21.1708 9.54562 21.1689 9.53531C21.1474 9.46594 21.1314 9.40219 21.1211 9.33562C21.1127 9.27469 21.108 9.19969 21.108 9.10969C21.108 8.71594 21.2674 8.36063 21.5252 8.1C21.783 7.84219 22.142 7.68281 22.5349 7.68281C22.9305 7.68281 23.2867 7.84219 23.5445 8.1C23.8024 8.36063 23.9617 8.71688 23.9617 9.10969V23.1806C23.9617 23.5744 23.8024 23.9297 23.5445 24.1875C23.4126 24.3211 23.2554 24.4271 23.082 24.4992C22.9086 24.5713 22.7226 24.6081 22.5349 24.6075C22.1411 24.6075 21.783 24.4481 21.5252 24.1875C21.3927 24.0554 21.2877 23.8985 21.2161 23.7257C21.1445 23.5529 21.1078 23.3677 21.108 23.1806C21.108 23.0906 21.1136 23.0156 21.1211 22.9547C21.1314 22.8909 21.1474 22.8272 21.1661 22.7634C21.1689 22.7531 21.1745 22.7447 21.1764 22.7344C21.2486 22.5169 21.3705 22.32 21.527 22.1634C21.6892 22.0069 21.8861 21.8841 22.1036 21.8156C22.5049 21.6909 22.728 21.2653 22.6033 20.8641C22.4786 20.4628 22.053 20.2397 21.6517 20.3644C21.2035 20.5054 20.7953 20.7513 20.4611 21.0816C20.2237 21.3162 20.0278 21.5895 19.8817 21.8897C19.863 21.8953 19.8442 21.8972 19.8255 21.9028C19.7139 21.9244 19.5939 21.9347 19.4692 21.9347C18.9536 21.9347 18.4858 21.7247 18.1483 21.3872C17.8108 21.0497 17.6008 20.5847 17.6008 20.0691C17.6008 19.9284 17.6167 19.7953 17.643 19.6678C17.6749 19.53 17.717 19.4025 17.7705 19.2881C17.943 18.9084 17.7761 18.4566 17.3927 18.2812C17.3795 18.2756 17.3636 18.2709 17.3477 18.2625H17.3505C17.057 18.1481 16.7917 17.8931 16.5949 17.5425ZM18.8036 16.1447C18.8036 16.7316 18.9527 17.2819 19.202 17.7262C19.4814 18.2259 19.893 18.6028 20.3795 18.7894C20.7733 18.9412 21.2139 18.7416 21.363 18.3506C21.512 17.9569 21.3152 17.5163 20.9214 17.3672C20.7752 17.3109 20.6374 17.1731 20.5305 16.9819C20.403 16.7559 20.3261 16.4662 20.3261 16.1447C20.3261 15.8259 20.403 15.5363 20.5305 15.3075C20.6364 15.1191 20.7752 14.9803 20.9214 14.925C21.3152 14.7759 21.5111 14.3353 21.363 13.9416C21.2149 13.5478 20.7733 13.3519 20.3795 13.5028C19.893 13.6866 19.4814 14.0662 19.202 14.5659C18.9517 15.0094 18.8036 15.5597 18.8036 16.1447ZM25.487 9.10969C25.487 8.71594 25.6464 8.36063 25.9042 8.1C26.162 7.84219 26.5211 7.68281 26.9139 7.68281C27.3095 7.68281 27.6658 7.84219 27.9236 8.1C28.1814 8.36063 28.3408 8.71688 28.3408 9.10969C28.3408 9.19969 28.338 9.27469 28.3277 9.33562C28.3174 9.40219 28.3014 9.46594 28.2799 9.53531C28.2799 9.54094 28.2771 9.54844 28.2742 9.55406C28.2686 9.56719 28.2639 9.58031 28.2583 9.59437C28.1842 9.80437 28.0614 9.99281 27.9049 10.1419C27.7466 10.2949 27.5545 10.4086 27.3442 10.4738C26.943 10.5984 26.7199 11.0269 26.8445 11.4281C26.9692 11.8294 27.3949 12.0525 27.7961 11.9278C28.2377 11.79 28.6333 11.5509 28.9577 11.2369C29.2099 10.9978 29.417 10.7137 29.5689 10.3997C29.5877 10.3969 29.6036 10.3941 29.6224 10.3894C29.7339 10.3678 29.8539 10.3575 29.9814 10.3575C30.497 10.3575 30.962 10.5675 31.2995 10.905C31.637 11.2425 31.847 11.7075 31.847 12.2231C31.847 12.3638 31.8311 12.4969 31.8049 12.6244C31.7786 12.7444 31.7439 12.8559 31.6989 12.9591C31.683 12.9881 31.6699 13.0172 31.6586 13.0491C31.5095 13.44 31.7064 13.8806 32.1002 14.0297C32.3955 14.1441 32.658 14.3991 32.8549 14.7497C33.0705 15.1322 33.198 15.6159 33.198 16.1447C33.198 16.6763 33.0705 17.16 32.8549 17.5425C32.658 17.8931 32.3955 18.1481 32.1002 18.2625C32.0842 18.27 32.0711 18.2756 32.0552 18.2812C31.6727 18.4566 31.5049 18.9084 31.6802 19.2881C31.7336 19.4025 31.7758 19.53 31.8049 19.6678C31.8311 19.7953 31.847 19.9284 31.847 20.0691C31.847 20.5847 31.637 21.0497 31.2995 21.3872C30.962 21.7247 30.497 21.9347 29.9814 21.9347C29.8539 21.9347 29.7339 21.9244 29.6224 21.9028C29.6036 21.8972 29.5877 21.8953 29.5689 21.8897C29.4225 21.5875 29.2245 21.3131 28.9839 21.0788C28.6503 20.7495 28.2432 20.5043 27.7961 20.3634C27.3949 20.2388 26.9692 20.4619 26.8445 20.8631C26.7199 21.2644 26.943 21.69 27.3442 21.8147C27.5617 21.8841 27.7586 22.0031 27.918 22.1606C28.0745 22.3172 28.1974 22.5112 28.2714 22.7297C28.2742 22.7456 28.2799 22.7587 28.2845 22.7719C28.3033 22.8328 28.3164 22.8938 28.3267 22.9556C28.337 23.0166 28.3399 23.0916 28.3399 23.1816C28.3399 23.5753 28.1805 23.9306 27.9227 24.1884C27.7907 24.322 27.6335 24.428 27.4601 24.5001C27.2868 24.5722 27.1008 24.6091 26.913 24.6084C26.5192 24.6084 26.1611 24.4491 25.9033 24.1884C25.7709 24.0564 25.6658 23.8994 25.5943 23.7266C25.5227 23.5538 25.4859 23.3686 25.4861 23.1816L25.487 9.10969ZM29.1227 16.1447C29.1227 16.4662 29.0486 16.7559 28.9211 16.9819C28.8124 17.1731 28.6764 17.3119 28.5274 17.3672C28.1336 17.5163 27.9377 17.9569 28.0858 18.3506C28.2377 18.7416 28.6755 18.9403 29.0692 18.7894C29.5558 18.6038 29.9674 18.2259 30.2467 17.7262C30.4989 17.2828 30.648 16.7325 30.648 16.1447C30.648 15.5597 30.4989 15.0103 30.2467 14.5659C29.9674 14.0662 29.5558 13.6866 29.0692 13.5028C28.6755 13.3509 28.2377 13.5478 28.0858 13.9416C27.9367 14.3353 28.1336 14.7759 28.5274 14.925C28.6764 14.9812 28.8114 15.1191 28.9211 15.3075C29.0477 15.5363 29.1227 15.8259 29.1227 16.1447ZM24.7239 3.69187C25.1467 3.69187 25.487 3.34875 25.487 2.92875V0.760312C25.487 0.340312 25.1467 0 24.7239 0C24.3039 0 23.9608 0.340312 23.9608 0.760312V2.92875C23.9617 3.34875 24.3039 3.69187 24.7239 3.69187ZM30.9555 5.35781C31.3174 5.565 31.7824 5.44031 31.9895 5.07656L33.0742 3.20062C33.2842 2.83875 33.1595 2.37375 32.7949 2.16656C32.7085 2.11661 32.6131 2.0842 32.5142 2.07121C32.4152 2.05822 32.3147 2.06489 32.2184 2.09085C32.122 2.11681 32.0318 2.16154 31.9528 2.22247C31.8738 2.28341 31.8076 2.35935 31.758 2.44594L30.6733 4.32187C30.574 4.49682 30.5479 4.70394 30.6008 4.89803C30.6537 5.09211 30.7812 5.2574 30.9555 5.35781ZM36.5524 10.1944L38.4283 9.10969C38.792 8.89969 38.9149 8.43469 38.7049 8.07375C38.4949 7.71 38.0299 7.58437 37.6661 7.79437L35.7902 8.87906C35.4264 9.08906 35.3036 9.55406 35.5136 9.91781C35.7236 10.2825 36.1886 10.4044 36.5524 10.1944ZM17.4583 5.07562C17.6655 5.43937 18.1305 5.565 18.4952 5.35687C18.857 5.14687 18.9817 4.68469 18.7745 4.32L17.6899 2.44406C17.4827 2.08031 17.0177 1.95469 16.653 2.16469C16.2911 2.37188 16.1664 2.83687 16.3736 3.19875L17.4583 5.07562ZM11.0195 9.10969L12.8983 10.1944C13.2602 10.4044 13.7252 10.2825 13.9352 9.91781C14.148 9.55406 14.0233 9.08906 13.6586 8.87906L11.7817 7.79437C11.6952 7.74441 11.5997 7.712 11.5006 7.69901C11.4016 7.68601 11.3009 7.69267 11.2044 7.71862C11.1079 7.74457 11.0175 7.7893 10.9383 7.85023C10.8592 7.91117 10.7928 7.98713 10.743 8.07375C10.533 8.43469 10.6577 8.90063 11.0195 9.10969Z" fill="#8035E8"/>
</svg>
