<svg width="48" height="48" viewBox="0 0 48 48" fill="none" xmlns="http://www.w3.org/2000/svg">
<g clip-path="url(#clip0_330_329)">
<path fill-rule="evenodd" clip-rule="evenodd" d="M10.773 26.6888L10.548 26.4076H9.19829C8.32659 26.4076 7.59548 25.7046 7.59548 24.8048V22.499C7.51112 22.7521 7.42676 23.0051 7.39864 23.202C7.03309 25.1985 4.05242 24.6361 4.38986 22.6677C4.75541 20.5869 5.88019 18.506 7.98915 17.9436H12.2352C13.36 18.2811 13.2756 18.2811 13.6693 18.7872C14.4004 18.2248 14.9628 17.6062 15.7783 17.7468C17.128 17.9155 17.5779 19.6308 16.5094 20.4463L14.316 22.1053C13.8099 22.499 13.0788 22.499 12.5726 22.1616C12.5726 25.1141 12.2633 23.3707 13.8099 25.7046C13.8661 25.789 13.9224 25.9014 13.9786 25.9858H12.1227C11.5884 25.9858 11.0823 26.267 10.773 26.6888Z" fill="#F99811"/>
<path fill-rule="evenodd" clip-rule="evenodd" d="M5.99219 31.5222L6.02031 31.494C6.92013 29.8912 7.7356 27.4448 7.96055 25.5327C8.04491 24.7735 11.0537 25.1672 10.9693 25.8983C10.9412 26.1232 10.9131 26.3201 10.885 26.5169C10.7444 26.6856 10.66 26.8543 10.5757 27.023L8.7479 31.5222H5.99219ZM10.2101 17.4905C7.25757 17.4905 7.28568 13.0195 10.2101 13.0195C13.1345 13.0195 13.1345 17.4905 10.2101 17.4905Z" fill="#F99811"/>
<path fill-rule="evenodd" clip-rule="evenodd" d="M48.0029 42.4342H0.00291979C-0.418873 42.4342 -0.700068 41.9843 -0.475112 41.5906C-0.475112 41.5906 0.734027 39.4254 1.9994 37.2602C4.67076 32.5924 4.61452 32.6205 5.06443 32.6486H9.50731L11.6163 27.4465C11.7006 27.2497 11.8975 27.1091 12.1224 27.1091H15.2156L20.3614 14.8771C20.4458 14.6521 20.6426 14.5397 20.8676 14.5397H27.1101C27.3351 14.5397 27.56 14.6521 27.6444 14.8771L32.7903 27.1091H35.8553C36.0802 27.1091 36.3052 27.2497 36.3896 27.4465L38.4985 32.6486H42.9695C43.1382 32.6486 43.307 32.7049 43.4194 32.8455C43.7288 33.2391 47.3562 39.6504 48.481 41.5906C48.6778 41.9843 48.4247 42.4342 48.0029 42.4342ZM25.9853 12.7962L23.9889 11.7839L22.2736 12.7119C21.8799 12.965 21.3737 12.5994 21.4581 12.1214L21.8237 10.2092L20.3896 8.85951C20.0521 8.5502 20.249 7.95969 20.727 7.90345L22.6672 7.65037L23.4827 5.87884C23.6795 5.45705 24.2982 5.45705 24.495 5.87884L25.3386 7.65037L27.2788 7.90345C27.7569 7.95969 27.9537 8.5502 27.5882 8.85951L26.1822 10.2092L26.5477 12.1214C26.604 12.4869 26.3228 12.7962 25.9853 12.7962Z" fill="#F99811"/>
</g>
<defs>
<clipPath id="clip0_330_329">
<rect width="48" height="48" fill="white"/>
</clipPath>
</defs>
</svg>
