<svg width="48" height="48" viewBox="0 0 48 48" fill="none" xmlns="http://www.w3.org/2000/svg">
<path d="M24.0019 1.49912C18.0354 1.50212 12.3141 3.87343 8.09496 8.09208C3.87578 12.3107 1.50376 18.0317 1.5 23.9981C1.503 29.9651 3.87469 35.6868 8.09396 39.906C12.3132 44.1253 18.0349 46.497 24.0019 46.5C27.7963 46.496 31.5282 45.533 34.8508 43.7005C38.1735 41.868 40.979 39.2253 43.0068 36.0182C45.0346 32.811 46.2189 29.1433 46.4497 25.3559C46.6804 21.5684 45.9501 17.7841 44.3267 14.3545L42.0958 16.5854C41.8867 16.7961 41.6381 16.9633 41.3642 17.0777C41.0904 17.192 40.7966 17.2511 40.4998 17.2516H39.8762C40.7635 19.3237 41.2539 21.6057 41.2539 23.9981C41.2509 28.5727 39.4323 32.9591 36.1975 36.1938C32.9628 39.4286 28.5765 41.2471 24.0019 41.2501C14.4829 41.2501 6.74987 33.5171 6.74987 23.9981C6.75312 21.1488 7.46162 18.3445 8.81215 15.8355C10.1627 13.3265 12.1133 11.1908 14.4899 9.61894C16.8665 8.04708 19.5952 7.08792 22.4326 6.82704C25.27 6.56616 28.1279 7.01167 30.7513 8.12382V7.50018C30.7513 6.90206 30.9894 6.32662 31.4146 5.90425L33.6483 3.6705C30.6346 2.23798 27.3388 1.49424 24.0019 1.49912ZM38.2321 1.49912C38.04 1.50484 37.8573 1.58397 37.7218 1.72023L32.4719 6.96726C32.4018 7.03713 32.3461 7.12019 32.3082 7.21165C32.2702 7.30311 32.2508 7.40117 32.2508 7.50018V12.4411L22.3464 22.3455C21.9102 22.7861 21.6655 23.381 21.6655 24.001C21.6655 24.621 21.9102 25.2159 22.3464 25.6564C23.2535 26.5635 24.7474 26.5607 25.6545 25.6508L35.5561 15.7492H40.4998C40.5988 15.7493 40.6969 15.7298 40.7884 15.6918C40.8798 15.6539 40.9629 15.5982 41.0327 15.5281L46.2798 10.2782C46.3825 10.1729 46.452 10.0397 46.4797 9.89523C46.5074 9.75075 46.4921 9.60132 46.4357 9.46547C46.3792 9.32962 46.2841 9.21334 46.1622 9.13105C46.0402 9.04876 45.8968 9.00409 45.7497 9.00258H42.3055L42.9037 8.40162C43.3396 7.96242 43.5847 7.36898 43.5858 6.75015C43.5868 6.13132 43.3438 5.53705 42.9093 5.09636C42.4558 4.6428 41.852 4.41603 41.251 4.41603C40.6501 4.41603 40.0491 4.6428 39.5956 5.09636L39.0003 5.69164V2.24465C38.9999 2.14479 38.9797 2.04601 38.9407 1.95407C38.9017 1.86213 38.8448 1.77889 38.7733 1.70921C38.7017 1.63953 38.617 1.58481 38.5241 1.54825C38.4312 1.51169 38.3319 1.49686 38.2321 1.49912ZM24.0019 11.996C17.3828 11.996 11.9969 17.382 11.9969 23.9981C11.9969 30.6143 17.3828 35.9974 24.0019 35.9974C27.1831 35.9944 30.2331 34.7292 32.4823 32.4794C34.7315 30.2297 35.9961 27.1794 35.9983 23.9981C35.9983 22.0904 35.5391 20.2875 34.7454 18.6831L30.6351 22.7934C30.8098 23.7651 30.7696 24.7632 30.5171 25.7176C30.2647 26.6721 29.8062 27.5596 29.1739 28.3178C28.5416 29.076 27.7509 29.6865 26.8573 30.1063C25.9638 30.526 24.9891 30.7449 24.0019 30.7476C22.213 30.7453 20.498 30.0339 19.2328 28.7692C17.9676 27.5046 17.2554 25.7899 17.2524 24.001C17.2547 22.2121 17.9661 20.4971 19.2308 19.2319C20.4954 17.9667 22.2101 17.2546 23.999 17.2516C24.4129 17.2516 24.8154 17.2941 25.2066 17.3649L29.3169 13.2546C27.6667 12.4289 25.8471 11.998 24.0019 11.996Z" fill="#75BB0B"/>
</svg>
