<svg width="48" height="48" viewBox="0 0 48 48" fill="none" xmlns="http://www.w3.org/2000/svg">
<path d="M21.4991 16.7323C22.0616 16.7323 22.6091 16.6573 23.1266 16.5148C23.6516 16.3723 24.1616 16.1773 24.7166 15.9598C25.7441 15.5623 26.8091 15.1573 27.9941 15.1573C28.7666 15.1573 29.5016 15.3298 30.2516 15.6823L30.8516 15.9673L30.5441 15.3748C30.2891 14.8723 29.9666 14.4223 29.6066 14.0473C28.4066 12.7873 26.6816 12.0898 24.7316 12.0898H23.2691C21.3266 12.0898 19.5941 12.7798 18.3941 14.0398C18.0266 14.4223 17.7191 14.8498 17.4566 15.3448L17.3516 15.5398L17.5466 15.6448C18.2966 16.0573 19.8041 16.7323 21.4991 16.7323Z" fill="#20D8F8"/>
<path d="M17.3044 26.3314C17.5069 26.3689 17.6719 26.5189 17.7169 26.7139C18.6994 30.7339 21.2194 33.4339 24.0019 33.4339C26.7694 33.4339 29.2969 30.7339 30.2794 26.7139C30.3244 26.5189 30.4894 26.3689 30.6919 26.3314C31.2244 26.2339 32.1244 24.8614 32.4244 23.3089C32.6719 22.0489 32.3794 21.2464 31.6294 21.0964L31.5844 21.3139L31.5319 21.0739C31.4156 21.0451 31.3126 20.9773 31.2403 20.8817C31.1679 20.7862 31.1306 20.6687 31.1344 20.5489L31.2094 18.5164C31.2169 18.1789 31.2094 17.8714 31.1794 17.5939L31.1719 17.4964L31.0969 17.4364C30.0244 16.5889 29.0419 16.1914 28.0069 16.1914C27.0169 16.1914 26.0869 16.5514 25.0894 16.9339C24.5794 17.1289 24.0019 17.3539 23.3944 17.5189C22.7869 17.6839 22.1494 17.7739 21.4969 17.7739C19.7569 17.7739 18.2344 17.1739 17.2594 16.6789L16.9969 16.5439L16.9369 16.8364C16.8244 17.4064 16.7794 17.9764 16.8019 18.5164L16.8694 20.5489C16.8769 20.7964 16.7119 21.0139 16.4569 21.0739L16.3594 21.0889C15.6169 21.2389 15.3319 22.0489 15.5794 23.3014C15.8719 24.8164 16.7719 26.2264 17.3044 26.3314Z" fill="#20D8F8"/>
<path d="M19.3716 32.5508C18.8841 32.8658 18.4191 33.1658 17.9766 33.4433C19.3191 35.2658 22.4766 37.0583 23.9991 37.8083C25.5291 37.0583 28.6791 35.2658 30.0216 33.4508C29.5491 33.1583 29.0841 32.8583 28.6191 32.5508C27.3066 33.9083 25.6941 34.7033 23.9991 34.7033C22.2966 34.7108 20.6916 33.9158 19.3716 32.5508Z" fill="#20D8F8"/>
<path d="M37.2841 37.1025C35.5591 36.51 33.5416 35.535 31.3141 34.2225C29.3716 36.9675 24.5341 39.2175 24.3166 39.315C24.2191 39.36 24.1066 39.3825 24.0016 39.3825C23.8966 39.3825 23.7916 39.36 23.6941 39.315C23.4691 39.2175 18.6316 36.9675 16.6891 34.2225C14.4541 35.5275 12.4366 36.51 10.7191 37.1025C5.87406 38.7525 5.60406 45.765 5.64156 48H42.3691C42.3991 45.7575 42.1141 38.745 37.2841 37.1025ZM24.0016 6.66C24.4966 6.66 24.9016 6.255 24.9016 5.76V0.9C24.9016 0.405 24.4966 0 24.0016 0C23.5066 0 23.1016 0.405 23.1016 0.9V5.76C23.1016 6.255 23.5066 6.66 24.0016 6.66ZM13.0141 10.68C13.1866 10.8525 13.4116 10.9425 13.6516 10.9425C13.8916 10.9425 14.1166 10.8525 14.2891 10.68C14.6416 10.3275 14.6416 9.7575 14.2891 9.4125L10.8466 5.97C10.6741 5.7975 10.4491 5.7075 10.2091 5.7075C9.96906 5.7075 9.74406 5.7975 9.57156 5.97C9.21906 6.3225 9.21906 6.8925 9.57156 7.2375L13.0141 10.68ZM10.2616 20.4C10.2616 19.905 9.85656 19.5 9.36156 19.5H4.50156C4.00656 19.5 3.60156 19.905 3.60156 20.4C3.60156 20.895 4.00656 21.3 4.50156 21.3H9.36156C9.85656 21.2925 10.2616 20.895 10.2616 20.4ZM43.5016 19.5H38.6416C38.1466 19.5 37.7416 19.905 37.7416 20.4C37.7416 20.895 38.1466 21.3 38.6416 21.3H43.5016C43.9966 21.3 44.4016 20.895 44.4016 20.4C44.4016 19.905 43.9966 19.5 43.5016 19.5ZM34.3516 10.9425C34.5916 10.9425 34.8166 10.8525 34.9891 10.68L38.4241 7.2375C38.7766 6.885 38.7766 6.315 38.4241 5.97C38.2516 5.7975 38.0266 5.7075 37.7866 5.7075C37.5466 5.7075 37.3216 5.7975 37.1491 5.97L33.7141 9.4125C33.3616 9.765 33.3616 10.335 33.7141 10.68C33.8866 10.8525 34.1116 10.9425 34.3516 10.9425Z" fill="#20D8F8"/>
</svg>
