<svg width="46" height="46" viewBox="0 0 46 46" fill="none" xmlns="http://www.w3.org/2000/svg">
<path d="M38.75 16.25C38.75 7.1225 32.1275 0.5 23 0.5C21.9927 0.503514 21.0023 0.759322 20.1193 1.24406C19.2363 1.72881 18.4887 2.42704 17.945 3.275C17.1725 2.93 16.34 2.75 15.5 2.75C12.1925 2.75 9.5 5.4425 9.5 8.75C9.50047 9.49683 9.64037 10.237 9.9125 10.9325C8.27 11.855 7.25 13.5725 7.25 15.5C7.25 17.4275 8.255 19.115 9.875 20.045C9.89 20.0525 9.8975 20.06 9.9125 20.0675C9.64037 20.763 9.50047 21.5032 9.5 22.25C9.5 25.4525 12.02 28.0775 15.185 28.2425C16.0925 30.4775 18.305 32 20.75 32C21.2675 32 21.77 31.94 22.25 31.8125V33.5H15.5C15.0875 33.5 14.75 33.8375 14.75 34.25C14.75 34.6625 15.0875 35 15.5 35H16.25V37.25H15.5C15.0875 37.25 14.75 37.5875 14.75 38C14.75 38.4125 15.0875 38.75 15.5 38.75H16.25V39.5C16.25 41.1575 17.5925 42.5 19.25 42.5C19.25 44.1575 20.5925 45.5 22.25 45.5H23.75C25.4075 45.5 26.75 44.1575 26.75 42.5C28.4075 42.5 29.75 41.1575 29.75 39.5V38.75H30.5C30.9125 38.75 31.25 38.4125 31.25 38C31.25 37.5875 30.9125 37.25 30.5 37.25H29.75V35H30.5C30.9125 35 31.25 34.6625 31.25 34.25C31.25 33.8375 30.9125 33.5 30.5 33.5H29.765C29.885 31.7075 30.8075 30.0575 32.345 28.9175C34.3269 27.4521 35.9383 25.5433 37.0505 23.3437C38.1627 21.1441 38.7447 18.7148 38.75 16.25ZM17.75 8C18.1625 8 18.5 8.3375 18.5 8.75C18.5 9.1625 18.1625 9.5 17.75 9.5C16.925 9.5 16.25 10.175 16.25 11C16.25 11.4125 15.9125 11.75 15.5 11.75C15.0875 11.75 14.75 11.4125 14.75 11C14.75 9.3425 16.0925 8 17.75 8ZM12.5 20.75C12.1025 20.75 11.6975 20.705 11.315 20.615C11.3825 20.4275 11.465 20.2475 11.5625 20.075C11.6675 19.88 11.69 19.655 11.615 19.4525C11.5822 19.3575 11.5299 19.2704 11.4614 19.1968C11.393 19.1231 11.3099 19.0646 11.2175 19.025C11.7841 19.2308 12.3919 19.2971 12.9896 19.2182C13.5872 19.1393 14.157 18.9175 14.6508 18.5717C15.1445 18.2258 15.5476 17.7661 15.826 17.2314C16.1044 16.6967 16.2498 16.1028 16.25 15.5C16.25 15.0875 16.5875 14.75 17 14.75C17.4125 14.75 17.75 15.0875 17.75 15.5C17.75 18.395 15.395 20.75 12.5 20.75ZM19.25 25.25C17.5925 25.25 16.25 23.9075 16.25 22.25C16.25 21.8375 16.5875 21.5 17 21.5C17.4125 21.5 17.75 21.8375 17.75 22.25C17.75 23.075 18.425 23.75 19.25 23.75C19.6625 23.75 20 24.0875 20 24.5C20 24.9125 19.6625 25.25 19.25 25.25ZM31.4525 27.7175C29.5325 29.135 28.3775 31.2275 28.2575 33.5H23.75V2.015C31.7375 2.3525 37.25 8.1125 37.25 16.25C37.25 20.75 35.0825 25.0325 31.4525 27.7175ZM11 32C9.7625 32 8.75 30.9875 8.75 29.75C8.75 29.3375 8.4125 29 8 29C7.5875 29 7.25 29.3375 7.25 29.75C7.25 30.9875 6.2375 32 5 32C4.5875 32 4.25 32.3375 4.25 32.75C4.25 33.1625 4.5875 33.5 5 33.5C6.2375 33.5 7.25 34.5125 7.25 35.75C7.25 36.1625 7.5875 36.5 8 36.5C8.4125 36.5 8.75 36.1625 8.75 35.75C8.75 34.5125 9.7625 33.5 11 33.5C11.4125 33.5 11.75 33.1625 11.75 32.75C11.75 32.3375 11.4125 32 11 32ZM5 8C5 6.7625 6.0125 5.75 7.25 5.75C7.6625 5.75 8 5.4125 8 5C8 4.5875 7.6625 4.25 7.25 4.25C6.0125 4.25 5 3.2375 5 2C5 1.5875 4.6625 1.25 4.25 1.25C3.8375 1.25 3.5 1.5875 3.5 2C3.5 3.2375 2.4875 4.25 1.25 4.25C0.8375 4.25 0.5 4.5875 0.5 5C0.5 5.4125 0.8375 5.75 1.25 5.75C2.4875 5.75 3.5 6.7625 3.5 8C3.5 8.4125 3.8375 8.75 4.25 8.75C4.6625 8.75 5 8.4125 5 8ZM44.75 5C43.5125 5 42.5 3.9875 42.5 2.75C42.5 2.3375 42.1625 2 41.75 2C41.3375 2 41 2.3375 41 2.75C41 3.9875 39.9875 5 38.75 5C38.3375 5 38 5.3375 38 5.75C38 6.1625 38.3375 6.5 38.75 6.5C39.9875 6.5 41 7.5125 41 8.75C41 9.1625 41.3375 9.5 41.75 9.5C42.1625 9.5 42.5 9.1625 42.5 8.75C42.5 7.5125 43.5125 6.5 44.75 6.5C45.1625 6.5 45.5 6.1625 45.5 5.75C45.5 5.3375 45.1625 5 44.75 5ZM41 32C39.7625 32 38.75 30.9875 38.75 29.75C38.75 29.3375 38.4125 29 38 29C37.5875 29 37.25 29.3375 37.25 29.75C37.25 30.9875 36.2375 32 35 32C34.5875 32 34.25 32.3375 34.25 32.75C34.25 33.1625 34.5875 33.5 35 33.5C36.2375 33.5 37.25 34.5125 37.25 35.75C37.25 36.1625 37.5875 36.5 38 36.5C38.4125 36.5 38.75 36.1625 38.75 35.75C38.75 34.5125 39.7625 33.5 41 33.5C41.4125 33.5 41.75 33.1625 41.75 32.75C41.75 32.3375 41.4125 32 41 32Z" fill="#EF1C79"/>
</svg>
