<svg width="180" height="36" viewBox="0 0 180 36" fill="none" xmlns="http://www.w3.org/2000/svg">
<path fill-rule="evenodd" clip-rule="evenodd" d="M18.988 35.9668C29.0186 35.3663 36.2325 27.039 35.9551 17.4123C35.5371 7.00244 26.8938 -0.401099 17.1863 0.0168425C7.0609 0.476929 -0.567414 9.03946 0.0331578 19.1719C0.588072 28.9356 9.18573 36.5674 18.988 35.9668ZM25.784 20.3766C24.8603 24.9107 22.2227 28.1032 17.9239 30.0911C18.0327 30.0911 18.0924 30.1051 18.1416 30.1192C18.1767 30.1297 18.2083 30.1367 18.247 30.1367C25.3204 30.1367 30.9608 23.6604 30.0371 16.5343C29.2961 10.7499 24.5372 6.21572 18.8967 5.89261C12.3782 5.52384 6.87827 9.96315 5.95107 16.5343C5.62796 18.8488 5.99673 21.0228 7.61581 22.7789C9.64933 24.9985 12.1921 25.7852 15.1036 24.8615C18.0608 23.9378 19.7256 21.7603 20.0979 18.7083C20.1435 18.0621 20.3753 18.0129 20.8846 18.0129H23.8418C25.4433 18.0129 26.0907 18.7996 25.784 20.3731V20.3766Z" fill="#6762FE"/>
<path d="M56.821 28.336C54.8797 28.336 53.1997 27.916 51.781 27.076C50.381 26.2173 49.2983 25.032 48.533 23.52C47.7863 21.9893 47.413 20.2253 47.413 18.228C47.413 16.212 47.7863 14.448 48.533 12.936C49.2983 11.4053 50.381 10.2107 51.781 9.352C53.1997 8.49333 54.8797 8.064 56.821 8.064C59.1543 8.064 61.0583 8.64267 62.533 9.8C64.0077 10.9387 64.941 12.5533 65.333 14.644H61.637C61.3757 13.5427 60.8437 12.6747 60.041 12.04C59.2383 11.4053 58.1557 11.088 56.793 11.088C55.561 11.088 54.497 11.3773 53.601 11.956C52.7237 12.516 52.0423 13.3373 51.557 14.42C51.0903 15.484 50.857 16.7533 50.857 18.228C50.857 19.7027 51.0903 20.972 51.557 22.036C52.0423 23.0813 52.7237 23.8933 53.601 24.472C54.497 25.032 55.561 25.312 56.793 25.312C58.1557 25.312 59.2383 25.0227 60.041 24.444C60.8437 23.8467 61.3757 23.0253 61.637 21.98H65.333C64.9597 23.9587 64.0263 25.5173 62.533 26.656C61.0583 27.776 59.1543 28.336 56.821 28.336ZM67.5088 28V7.84H70.8688V28H67.5088ZM80.1982 28.336C78.8542 28.336 77.6409 28.028 76.5582 27.412C75.4942 26.7773 74.6542 25.9093 74.0382 24.808C73.4409 23.688 73.1422 22.4093 73.1422 20.972C73.1422 19.4973 73.4502 18.2093 74.0662 17.108C74.6822 15.988 75.5222 15.12 76.5862 14.504C77.6689 13.8693 78.8822 13.552 80.2262 13.552C81.5702 13.552 82.7742 13.8693 83.8382 14.504C84.9209 15.12 85.7609 15.9787 86.3582 17.08C86.9742 18.1813 87.2822 19.4693 87.2822 20.944C87.2822 22.4187 86.9742 23.7067 86.3582 24.808C85.7422 25.9093 84.8929 26.7773 83.8102 27.412C82.7462 28.028 81.5422 28.336 80.1982 28.336ZM80.1982 25.452C80.8702 25.452 81.4769 25.284 82.0182 24.948C82.5782 24.612 83.0262 24.108 83.3622 23.436C83.6982 22.764 83.8662 21.9333 83.8662 20.944C83.8662 19.9547 83.6982 19.1333 83.3622 18.48C83.0449 17.808 82.6062 17.304 82.0462 16.968C81.5049 16.632 80.8982 16.464 80.2262 16.464C79.5729 16.464 78.9662 16.632 78.4062 16.968C77.8462 17.304 77.3982 17.808 77.0622 18.48C76.7262 19.1333 76.5582 19.9547 76.5582 20.944C76.5582 21.9333 76.7262 22.764 77.0622 23.436C77.3982 24.108 77.8369 24.612 78.3782 24.948C78.9382 25.284 79.5449 25.452 80.1982 25.452ZM94.8073 28.336C93.6686 28.336 92.6886 28.112 91.8673 27.664C91.0646 27.1973 90.4486 26.5067 90.0193 25.592C89.59 24.6587 89.3753 23.5107 89.3753 22.148V13.888H92.7353V21.812C92.7353 23.0253 92.9873 23.9493 93.4913 24.584C94.014 25.2 94.798 25.508 95.8433 25.508C96.5153 25.508 97.1126 25.3493 97.6353 25.032C98.1766 24.7147 98.5966 24.2573 98.8953 23.66C99.2126 23.044 99.3713 22.2973 99.3713 21.42V13.888H102.731V28H99.7633L99.5113 25.648C99.082 26.4693 98.4566 27.1227 97.6353 27.608C96.8326 28.0933 95.89 28.336 94.8073 28.336ZM111.742 28.336C110.435 28.336 109.268 28.0187 108.242 27.384C107.215 26.7493 106.412 25.872 105.834 24.752C105.274 23.632 104.994 22.3627 104.994 20.944C104.994 19.5253 105.283 18.2653 105.862 17.164C106.44 16.044 107.243 15.1667 108.27 14.532C109.315 13.8787 110.491 13.552 111.798 13.552C112.862 13.552 113.786 13.7573 114.57 14.168C115.372 14.56 116.007 15.12 116.474 15.848V7.84H119.834V28H116.81L116.474 25.956C116.175 26.3667 115.811 26.7587 115.382 27.132C114.952 27.4867 114.439 27.776 113.842 28C113.244 28.224 112.544 28.336 111.742 28.336ZM112.442 25.424C113.244 25.424 113.954 25.2373 114.57 24.864C115.186 24.472 115.662 23.94 115.998 23.268C116.334 22.596 116.502 21.8213 116.502 20.944C116.502 20.0667 116.334 19.292 115.998 18.62C115.662 17.948 115.186 17.4253 114.57 17.052C113.954 16.6787 113.244 16.492 112.442 16.492C111.676 16.492 110.986 16.6787 110.37 17.052C109.754 17.4253 109.268 17.948 108.914 18.62C108.578 19.292 108.41 20.0667 108.41 20.944C108.41 21.8213 108.578 22.596 108.914 23.268C109.268 23.94 109.754 24.472 110.37 24.864C110.986 25.2373 111.676 25.424 112.442 25.424ZM127.275 28.336C126.118 28.336 125.157 28.14 124.391 27.748C123.626 27.356 123.057 26.8333 122.683 26.18C122.31 25.5267 122.123 24.8173 122.123 24.052C122.123 23.156 122.347 22.3813 122.795 21.728C123.262 21.0747 123.943 20.5707 124.839 20.216C125.735 19.8427 126.837 19.656 128.143 19.656H131.699C131.699 18.9093 131.597 18.2933 131.391 17.808C131.186 17.304 130.869 16.9307 130.439 16.688C130.01 16.4453 129.459 16.324 128.787 16.324C128.022 16.324 127.369 16.5013 126.827 16.856C126.286 17.192 125.95 17.7147 125.819 18.424H122.515C122.627 17.416 122.963 16.5573 123.523 15.848C124.083 15.12 124.821 14.56 125.735 14.168C126.669 13.7573 127.686 13.552 128.787 13.552C130.113 13.552 131.242 13.7853 132.175 14.252C133.109 14.7 133.818 15.3533 134.303 16.212C134.807 17.052 135.059 18.0693 135.059 19.264V28H132.203L131.867 25.732C131.681 26.1053 131.438 26.4507 131.139 26.768C130.859 27.0853 130.533 27.3653 130.159 27.608C129.786 27.832 129.357 28.0093 128.871 28.14C128.405 28.2707 127.873 28.336 127.275 28.336ZM128.031 25.676C128.573 25.676 129.049 25.5827 129.459 25.396C129.889 25.1907 130.253 24.9107 130.551 24.556C130.869 24.1827 131.111 23.772 131.279 23.324C131.447 22.876 131.559 22.4 131.615 21.896V21.84H128.507C127.854 21.84 127.313 21.924 126.883 22.092C126.454 22.2413 126.146 22.4653 125.959 22.764C125.773 23.0627 125.679 23.408 125.679 23.8C125.679 24.192 125.773 24.528 125.959 24.808C126.146 25.088 126.417 25.3027 126.771 25.452C127.126 25.6013 127.546 25.676 128.031 25.676ZM137.789 28V13.888H141.149V28H137.789ZM139.469 11.648C138.853 11.648 138.34 11.4613 137.929 11.088C137.537 10.696 137.341 10.22 137.341 9.66C137.341 9.08133 137.537 8.61467 137.929 8.26C138.34 7.88667 138.853 7.7 139.469 7.7C140.085 7.7 140.589 7.88667 140.981 8.26C141.392 8.61467 141.597 9.08133 141.597 9.66C141.597 10.22 141.392 10.696 140.981 11.088C140.589 11.4613 140.085 11.648 139.469 11.648ZM144.032 28V13.888H147.028L147.336 16.52C147.672 15.904 148.092 15.3813 148.596 14.952C149.1 14.504 149.688 14.1587 150.36 13.916C151.051 13.6733 151.807 13.552 152.628 13.552V17.108H151.452C150.892 17.108 150.36 17.1827 149.856 17.332C149.352 17.4627 148.914 17.6867 148.54 18.004C148.186 18.3027 147.906 18.7227 147.7 19.264C147.495 19.7867 147.392 20.4493 147.392 21.252V28H144.032ZM155.869 34.16L159.313 26.432H158.473L152.845 13.888H156.513L160.713 23.464L164.689 13.888H168.245L159.425 34.16H155.869Z" fill="black"/>
</svg>
