<svg width="192" height="42" viewBox="0 0 192 42" fill="none" xmlns="http://www.w3.org/2000/svg">
<g filter="url(#filter0_i_0_473)">
<path fill-rule="evenodd" clip-rule="evenodd" d="M22.1527 41.9613C33.8551 41.2606 42.2713 31.5456 41.9476 20.3144C41.46 8.16951 31.3761 -0.467949 20.0507 0.0196496C8.23771 0.556418 -0.661983 10.546 0.0386841 22.3672C0.686084 33.7582 10.7167 42.662 22.1527 41.9613ZM30.0813 23.7706C30.0813 23.772 30.0812 23.7734 30.0809 23.7747C29.0197 28.9809 26.0214 32.6707 21.1446 34.9966C21.0899 35.0227 21.1069 35.1224 21.1652 35.139C21.2062 35.1513 21.2431 35.1595 21.2881 35.1595C29.5404 35.1595 36.121 27.6038 35.0433 19.29C34.1788 12.5415 28.6267 7.25168 22.0462 6.87471C14.4413 6.44448 8.02465 11.6237 6.94291 19.29C6.56595 21.9903 6.99618 24.5266 8.88511 26.5753C11.2575 29.1649 14.2241 30.0828 17.6209 29.0051C21.071 27.9275 23.0132 25.3871 23.4475 21.8264C23.5008 21.0724 23.7712 21.0151 24.3653 21.0151H27.8154C29.6832 21.0151 30.4386 21.9322 30.0817 23.7666C30.0814 23.7679 30.0813 23.7692 30.0813 23.7706Z" fill="url(#paint0_linear_0_473)"/>
</g>
<path d="M22.0954 41.0047L22.0941 41.0048C11.1861 41.6731 1.61264 33.1718 0.995476 22.3128L0.995338 22.3105C0.325932 11.0167 8.821 1.48985 20.0931 0.977047C30.9018 0.512303 40.5213 8.7509 40.9898 20.3474C41.2962 31.074 33.264 40.336 22.0954 41.0047ZM20.7321 34.1316L21.1446 34.9966L20.7321 34.1316C20.1727 34.3984 20.1256 34.961 20.1656 35.2183C20.2058 35.4779 20.3935 35.9115 20.8945 36.0583C20.9814 36.0842 21.1163 36.1178 21.2881 36.1178C30.1298 36.1178 37.1434 28.0432 35.9939 19.1683C35.0732 11.9817 29.1616 6.32242 22.101 5.91795L22.1003 5.91791C14.0009 5.4597 7.14573 10.9936 5.99398 19.1561L5.99379 19.1575C5.59101 22.0426 6.03816 24.9005 8.17952 27.2238C9.4628 28.6242 10.9437 29.6115 12.6053 30.0868C14.2702 30.5631 16.0538 30.5073 17.9084 29.9193C19.7944 29.3299 21.3109 28.325 22.4137 26.9452C23.5084 25.5757 24.157 23.8855 24.395 21.9734H27.8154C28.6267 21.9734 28.9308 22.1758 29.0431 22.3122C29.1555 22.4487 29.2961 22.7864 29.141 23.5835L29.1409 23.5842C29.139 23.5941 29.1372 23.6041 29.1355 23.6142C28.1322 28.4933 25.3427 31.9327 20.7321 34.1316ZM24.1226 21.9834C24.1226 21.9834 24.1232 21.9832 24.1245 21.983L24.1226 21.9834Z" stroke="url(#paint1_linear_0_473)" stroke-opacity="0.11" stroke-width="1.91667" style="mix-blend-mode:plus-lighter"/>
<path fill-rule="evenodd" clip-rule="evenodd" d="M59.512 32.4857C59.5356 32.4857 59.5588 32.4842 59.5815 32.4812C61.6253 32.4707 63.5062 31.997 65.2714 30.996L65.2781 30.9921C66.9997 29.9826 68.3674 28.6123 69.3235 26.9403C69.3939 26.8172 69.4124 26.671 69.3749 26.5342C69.3375 26.3974 69.2471 26.2811 69.1238 26.211L66.6318 24.7951C66.5059 24.7235 66.3564 24.7062 66.2175 24.747C66.0785 24.7879 65.9622 24.8834 65.895 25.0117C65.3226 26.1051 64.4941 26.9438 63.3209 27.6356C62.1622 28.3188 60.8974 28.6376 59.512 28.6376C57.1497 28.6376 55.2522 27.8406 53.7695 26.358L53.769 26.3575C52.291 24.8835 51.5459 22.9798 51.5459 20.7274C51.5459 18.4753 52.2908 16.5755 53.7695 15.0967L53.776 15.0901C55.2506 13.5636 57.1453 12.8172 59.512 12.8172C60.9016 12.8172 62.1621 13.1358 63.3209 13.8191C64.4844 14.5052 65.3178 15.3962 65.895 16.499C65.9629 16.6288 66.0812 16.7249 66.2221 16.765C66.363 16.805 66.5142 16.7854 66.6402 16.7107L69.1321 15.2345C69.385 15.0847 69.4692 14.7586 69.3206 14.5051C68.3067 12.776 66.9385 11.4647 65.2222 10.4583C63.4881 9.44145 61.5812 8.969 59.512 8.969C56.0963 8.969 53.2933 10.0946 51.0345 12.3577C48.7777 14.6146 47.6504 17.4209 47.6504 20.7274C47.6504 24.0404 48.838 26.8374 51.0293 29.0918C53.2368 31.3627 56.1005 32.4857 59.512 32.4857Z" fill="url(#paint2_linear_0_473)"/>
<path d="M71.9208 31.5553C71.9208 31.8502 72.1598 32.0893 72.4547 32.0893H75.1748C75.4696 32.0893 75.7087 31.8502 75.7087 31.5553V8.93433C75.7087 8.63944 75.4696 8.40039 75.1748 8.40039H72.4547C72.1598 8.40039 71.9208 8.63944 71.9208 8.93433V31.5553Z" fill="url(#paint3_linear_0_473)"/>
<path d="M109.609 15.5491C109.314 15.5491 109.075 15.7881 109.075 16.083C109.075 16.1686 109.095 16.2495 109.131 16.3212V24.3033C109.131 25.9903 108.752 27.0697 108.039 27.782C108.035 27.7866 108.03 27.7913 108.026 27.7961C107.358 28.5147 106.438 28.8738 105.189 28.8738C104.108 28.8738 103.297 28.5678 102.742 28.0175C102.177 27.4016 101.871 26.5793 101.871 25.4396V16.083C101.871 15.7881 101.632 15.5491 101.337 15.5491H98.6171C98.3223 15.5491 98.0832 15.7881 98.0832 16.083V25.6074C98.0832 27.641 98.6843 29.3716 99.8742 30.6234L99.8749 30.6242C101.073 31.8798 102.695 32.4895 104.625 32.4895C106.415 32.4895 107.93 31.9596 109.075 30.8636V31.5596C109.075 31.8545 109.314 32.0936 109.609 32.0936H112.329C112.624 32.0936 112.863 31.8545 112.863 31.5596V16.083C112.863 15.7881 112.624 15.5491 112.329 15.5491H109.609Z" fill="url(#paint4_linear_0_473)"/>
<path fill-rule="evenodd" clip-rule="evenodd" d="M123.906 15.0881C126.054 15.0881 127.852 15.775 129.208 17.1527V9.89367C129.208 9.59878 129.447 9.35973 129.742 9.35973C129.765 9.35973 129.788 9.36119 129.81 9.36403H132.462C132.757 9.36403 132.996 9.60309 132.996 9.89797V31.5549C132.996 31.8498 132.757 32.0888 132.462 32.0888H129.742C129.447 32.0888 129.208 31.8498 129.208 31.5549V30.3979C127.84 31.7866 126.073 32.4848 123.906 32.4848C121.608 32.4848 119.602 31.6327 117.97 29.9415L117.97 29.941C116.34 28.2473 115.552 26.184 115.552 23.7865C115.552 21.3898 116.335 19.3261 117.97 17.6318L117.97 17.6314C119.598 15.9398 121.608 15.0881 123.906 15.0881ZM127.771 27.3826C127.77 27.3842 127.768 27.3857 127.767 27.3873C126.859 28.3443 125.702 28.8088 124.246 28.8088C122.791 28.8088 121.633 28.3443 120.726 27.3873C120.723 27.3838 120.719 27.3804 120.716 27.3771C119.748 26.4093 119.289 25.2447 119.289 23.7865C119.289 22.3282 119.748 21.1637 120.716 20.1959C121.687 19.2252 122.853 18.7641 124.246 18.7641C125.64 18.7641 126.806 19.2252 127.777 20.1959C128.745 21.1644 129.208 22.3293 129.208 23.7865C129.208 25.2436 128.745 26.4085 127.777 27.3771C127.775 27.3789 127.773 27.3808 127.771 27.3826Z" fill="url(#paint5_linear_0_473)"/>
<path fill-rule="evenodd" clip-rule="evenodd" d="M144.043 15.0892C146.188 15.0892 147.988 15.7762 149.345 17.1542V16.075C149.345 15.7802 149.585 15.5411 149.879 15.5411C149.902 15.5411 149.925 15.5426 149.948 15.5454H152.599C152.894 15.5454 153.133 15.7845 153.133 16.0794V31.556C153.133 31.8509 152.894 32.0899 152.599 32.0899H149.879C149.585 32.0899 149.345 31.8509 149.345 31.556V30.3989C147.977 31.7877 146.21 32.4859 144.043 32.4859C141.745 32.4859 139.734 31.634 138.107 29.9421C136.477 28.2484 135.689 26.185 135.689 23.7875C135.689 21.391 136.472 19.3272 138.107 17.633C139.734 15.941 141.745 15.0892 144.043 15.0892ZM147.858 27.3824C147.854 27.3858 147.851 27.3892 147.848 27.3926C146.941 28.3497 145.783 28.8142 144.327 28.8142C142.934 28.8142 141.768 28.3531 140.797 27.3824C139.829 26.4146 139.37 25.2501 139.37 23.7918C139.37 22.3336 139.829 21.169 140.797 20.2012C141.768 19.2306 142.934 18.7695 144.327 18.7695C145.721 18.7695 146.887 19.2306 147.858 20.2012C148.826 21.169 149.285 22.3336 149.285 23.7918C149.285 25.2501 148.826 26.4146 147.858 27.3824Z" fill="url(#paint6_linear_0_473)"/>
<path d="M156.832 9.78833C156.822 9.79867 156.812 9.80943 156.802 9.82059C156.394 10.3024 156.168 10.8741 156.168 11.4699C156.168 12.0565 156.384 12.6478 156.832 13.0956C157.284 13.5474 157.882 13.7641 158.514 13.7641C159.169 13.7641 159.7 13.5348 160.139 13.0956L160.142 13.0932C160.575 12.6547 160.804 12.1246 160.804 11.4699C160.804 10.8436 160.598 10.2554 160.155 9.80392C159.71 9.28847 159.166 9.06383 158.514 9.06383C157.836 9.06383 157.254 9.36689 156.832 9.78833Z" fill="url(#paint7_linear_0_473)"/>
<path d="M156.62 31.543C156.62 31.8379 156.859 32.077 157.154 32.077H159.874C160.169 32.077 160.408 31.8379 160.408 31.543V16.0664C160.408 15.7716 160.169 15.5325 159.874 15.5325H157.154C156.859 15.5325 156.62 15.7716 156.62 16.0664V31.543Z" fill="url(#paint8_linear_0_473)"/>
<path d="M168.802 16.0759C168.406 16.3145 168.051 16.604 167.736 16.9421V16.09C167.736 15.7952 167.497 15.5561 167.202 15.5561H164.482C164.187 15.5561 163.948 15.7952 163.948 16.09V31.6269C163.948 31.9218 164.187 32.1608 164.482 32.1608H167.202C167.497 32.1608 167.736 31.9218 167.736 31.6269V23.4066C167.736 21.7882 168.166 20.7396 168.942 20.1469C168.945 20.1447 168.948 20.1424 168.951 20.1401C168.953 20.1385 168.955 20.1368 168.957 20.1351C169.808 19.4358 170.807 19.129 171.995 19.18C172.141 19.1862 172.283 19.1328 172.388 19.0321C172.493 18.9314 172.552 18.7921 172.552 18.6465V15.8103C172.552 15.5154 172.313 15.2764 172.018 15.2764C170.782 15.2764 169.704 15.5331 168.802 16.0759Z" fill="url(#paint9_linear_0_473)"/>
<path d="M187.566 15.9001C187.65 15.6632 187.888 15.5187 188.136 15.5504H190.956C191.132 15.5504 191.296 15.6369 191.396 15.7817C191.496 15.9264 191.518 16.111 191.455 16.2751L185.166 32.7178C184.464 34.532 183.507 35.9917 182.216 36.9739C180.917 37.963 179.433 38.3909 177.793 38.3308C177.506 38.3203 177.278 38.0845 177.278 37.7972V35.301C177.278 35.1509 177.341 35.0077 177.452 34.9065C177.563 34.8053 177.712 34.7555 177.861 34.7693C178.67 34.8439 179.357 34.6492 179.945 34.2027C180.545 33.7475 181.077 33.0036 181.508 31.9263C181.514 31.9126 181.52 31.8992 181.527 31.886L181.699 31.5414L175.059 16.3498C174.987 16.1848 175.003 15.9944 175.102 15.8437C175.2 15.6929 175.368 15.6021 175.548 15.6021H178.436C178.649 15.6021 178.841 15.7283 178.926 15.9234L183.656 26.8179L187.566 15.9001Z" fill="url(#paint10_linear_0_473)"/>
<path fill-rule="evenodd" clip-rule="evenodd" d="M87.0363 32.5495C89.4428 32.5495 91.5019 31.7036 93.1907 30.0163C94.9377 28.3272 95.7882 26.2586 95.7303 23.8446C95.7288 21.4396 94.882 19.3773 93.1939 17.6893C91.5045 15.9999 89.4444 15.1529 87.0363 15.1529C84.6282 15.1529 82.5681 15.9999 80.8787 17.6893C79.1891 19.3789 78.3423 21.4434 78.3423 23.8512C78.3423 26.259 79.1891 28.3235 80.8787 30.0131C82.5681 31.7025 84.6282 32.5495 87.0363 32.5495ZM90.5732 20.323C90.5747 20.3244 90.5761 20.3258 90.5776 20.3272C91.5354 21.2316 91.9983 22.443 91.9983 23.8512C91.9983 25.2495 91.5371 26.4153 90.5666 27.3858C89.596 28.3565 88.43 28.8175 87.0363 28.8175C85.6605 28.8175 84.5402 28.313 83.5517 27.3759L83.5509 27.3751C82.5931 26.4707 82.1302 25.2594 82.1302 23.8512C82.1302 22.4652 82.6391 21.2902 83.5718 20.3063C84.481 19.3473 85.6397 18.8848 87.0363 18.8848C88.43 18.8848 89.596 19.3459 90.5666 20.3165C90.5688 20.3187 90.571 20.3209 90.5732 20.323Z" fill="url(#paint11_linear_0_473)"/>
<defs>
<filter id="filter0_i_0_473" x="0" y="0" width="41.9566" height="45.8333" filterUnits="userSpaceOnUse" color-interpolation-filters="sRGB">
<feFlood flood-opacity="0" result="BackgroundImageFix"/>
<feBlend mode="normal" in="SourceGraphic" in2="BackgroundImageFix" result="shape"/>
<feColorMatrix in="SourceAlpha" type="matrix" values="0 0 0 0 0 0 0 0 0 0 0 0 0 0 0 0 0 0 127 0" result="hardAlpha"/>
<feOffset dy="3.83333"/>
<feGaussianBlur stdDeviation="2.5"/>
<feComposite in2="hardAlpha" operator="arithmetic" k2="-1" k3="1"/>
<feColorMatrix type="matrix" values="0 0 0 0 1 0 0 0 0 1 0 0 0 0 1 0 0 0 0.27 0"/>
<feBlend mode="plus-lighter" in2="shape" result="effect1_innerShadow_0_473"/>
</filter>
<linearGradient id="paint0_linear_0_473" x1="35.8644" y1="35.3712" x2="4.97305" y2="7.90899" gradientUnits="userSpaceOnUse">
<stop stop-color="#7630FF"/>
<stop offset="1" stop-color="#3EDDFA"/>
</linearGradient>
<linearGradient id="paint1_linear_0_473" x1="40.2671" y1="42" x2="-2.39877" y2="38.3957" gradientUnits="userSpaceOnUse">
<stop stop-color="white" stop-opacity="0"/>
<stop offset="1" stop-color="#999999"/>
</linearGradient>
<linearGradient id="paint2_linear_0_473" x1="150.118" y1="23.3576" x2="152.469" y2="43.0142" gradientUnits="userSpaceOnUse">
<stop stop-color="white"/>
<stop offset="1" stop-color="white" stop-opacity="0.3"/>
</linearGradient>
<linearGradient id="paint3_linear_0_473" x1="150.118" y1="23.3576" x2="152.469" y2="43.0142" gradientUnits="userSpaceOnUse">
<stop stop-color="white"/>
<stop offset="1" stop-color="white" stop-opacity="0.3"/>
</linearGradient>
<linearGradient id="paint4_linear_0_473" x1="150.118" y1="23.3576" x2="152.469" y2="43.0142" gradientUnits="userSpaceOnUse">
<stop stop-color="white"/>
<stop offset="1" stop-color="white" stop-opacity="0.3"/>
</linearGradient>
<linearGradient id="paint5_linear_0_473" x1="150.118" y1="23.3576" x2="152.469" y2="43.0142" gradientUnits="userSpaceOnUse">
<stop stop-color="white"/>
<stop offset="1" stop-color="white" stop-opacity="0.3"/>
</linearGradient>
<linearGradient id="paint6_linear_0_473" x1="150.118" y1="23.3576" x2="152.469" y2="43.0142" gradientUnits="userSpaceOnUse">
<stop stop-color="white"/>
<stop offset="1" stop-color="white" stop-opacity="0.3"/>
</linearGradient>
<linearGradient id="paint7_linear_0_473" x1="150.118" y1="23.3576" x2="152.469" y2="43.0142" gradientUnits="userSpaceOnUse">
<stop stop-color="white"/>
<stop offset="1" stop-color="white" stop-opacity="0.3"/>
</linearGradient>
<linearGradient id="paint8_linear_0_473" x1="150.118" y1="23.3576" x2="152.469" y2="43.0142" gradientUnits="userSpaceOnUse">
<stop stop-color="white"/>
<stop offset="1" stop-color="white" stop-opacity="0.3"/>
</linearGradient>
<linearGradient id="paint9_linear_0_473" x1="150.118" y1="23.3576" x2="152.469" y2="43.0142" gradientUnits="userSpaceOnUse">
<stop stop-color="white"/>
<stop offset="1" stop-color="white" stop-opacity="0.3"/>
</linearGradient>
<linearGradient id="paint10_linear_0_473" x1="150.118" y1="23.3576" x2="152.469" y2="43.0142" gradientUnits="userSpaceOnUse">
<stop stop-color="white"/>
<stop offset="1" stop-color="white" stop-opacity="0.3"/>
</linearGradient>
<linearGradient id="paint11_linear_0_473" x1="150.118" y1="23.3576" x2="152.469" y2="43.0142" gradientUnits="userSpaceOnUse">
<stop stop-color="white"/>
<stop offset="1" stop-color="white" stop-opacity="0.3"/>
</linearGradient>
</defs>
</svg>
