<svg width="284" height="237" viewBox="0 0 284 237" fill="none" xmlns="http://www.w3.org/2000/svg">
<path d="M275.19 0.771667H8.91556C4.24702 0.771667 0.462402 4.55174 0.462402 9.21469V129.879C0.462402 134.542 4.24702 138.322 8.91556 138.322H275.19C279.858 138.322 283.643 134.542 283.643 129.879V9.21469C283.643 4.55174 279.858 0.771667 275.19 0.771667Z" fill="white"/>
<path d="M269.892 22.3604H13.5675C8.88771 22.3604 5.09399 26.1037 5.09399 30.7213V118.859C5.09399 123.477 8.88771 127.22 13.5675 127.22H269.892C274.572 127.22 278.366 123.477 278.366 118.859V30.7213C278.366 26.1037 274.572 22.3604 269.892 22.3604Z" fill="#D3D5DA"/>
<path d="M269.892 28.5287H13.5675C8.88771 28.5287 5.09399 32.4418 5.09399 37.2689V118.48C5.09399 123.307 8.88771 127.22 13.5675 127.22H269.892C274.572 127.22 278.366 123.307 278.366 118.48V37.2689C278.366 32.4418 274.572 28.5287 269.892 28.5287Z" fill="#F1F2F3"/>
<path d="M269.892 28.5287H13.5675C8.88771 28.5287 5.09399 32.4418 5.09399 37.2689V118.48C5.09399 123.307 8.88771 127.22 13.5675 127.22H269.892C274.572 127.22 278.366 123.307 278.366 118.48V37.2689C278.366 32.4418 274.572 28.5287 269.892 28.5287Z" fill="black" fill-opacity="0.01"/>
<path d="M74.6037 8.15887H9.09164C7.24368 8.15887 5.74561 9.65515 5.74561 11.5009V11.5009C5.74561 13.3467 7.24368 14.8429 9.09164 14.8429H74.6037C76.4516 14.8429 77.9497 13.3467 77.9497 11.5009C77.9497 9.65515 76.4516 8.15887 74.6037 8.15887Z" fill="#D3D5DA"/>
<path d="M176.525 43.0654H23.2397C21.2091 43.0654 19.5621 44.7097 19.5621 46.7391V61.0218C19.5621 63.0513 21.2091 64.6955 23.2397 64.6955H176.525C178.556 64.6955 180.203 63.0513 180.203 61.0218V46.7391C180.203 44.7097 178.556 43.0654 176.525 43.0654Z" fill="#F1668F"/>
<path d="M176.525 43.0654H23.2397C21.2091 43.0654 19.5621 44.7097 19.5621 46.7391V61.0218C19.5621 63.0513 21.2091 64.6955 23.2397 64.6955H176.525C178.556 64.6955 180.203 63.0513 180.203 61.0218V46.7391C180.203 44.7097 178.556 43.0654 176.525 43.0654Z" stroke="#F1668F" stroke-width="0.843081"/>
<path d="M176.525 43.0654H23.2397C21.2091 43.0654 19.5621 44.7097 19.5621 46.7391V61.0218C19.5621 63.0513 21.2091 64.6955 23.2397 64.6955H176.525C178.556 64.6955 180.203 63.0513 180.203 61.0218V46.7391C180.203 44.7097 178.556 43.0654 176.525 43.0654Z" stroke="black" stroke-opacity="0.2" stroke-width="0.843081"/>
<path d="M73.7092 52.2427H25.6195C24.7204 52.2427 23.9915 52.9708 23.9915 53.8688C23.9915 54.7669 24.7204 55.4949 25.6195 55.4949H73.7092C74.6083 55.4949 75.3372 54.7669 75.3372 53.8688C75.3372 52.9708 74.6083 52.2427 73.7092 52.2427Z" fill="#F1668F"/>
<path d="M73.7092 52.2427H25.6195C24.7204 52.2427 23.9915 52.9708 23.9915 53.8688C23.9915 54.7669 24.7204 55.4949 25.6195 55.4949H73.7092C74.6083 55.4949 75.3372 54.7669 75.3372 53.8688C75.3372 52.9708 74.6083 52.2427 73.7092 52.2427Z" fill="black" fill-opacity="0.2"/>
<path d="M179.321 161.635H26.0356C24.005 161.635 22.358 163.279 22.358 165.308V179.591C22.358 181.62 24.005 183.265 26.0356 183.265H179.321C181.352 183.265 182.999 181.62 182.999 179.591V165.308C182.999 163.279 181.352 161.635 179.321 161.635Z" fill="#F1668F"/>
<path d="M179.321 161.635H26.0356C24.005 161.635 22.358 163.279 22.358 165.308V179.591C22.358 181.62 24.005 183.265 26.0356 183.265H179.321C181.352 183.265 182.999 181.62 182.999 179.591V165.308C182.999 163.279 181.352 161.635 179.321 161.635Z" stroke="#F1668F" stroke-width="0.843081"/>
<path d="M179.321 161.635H26.0356C24.005 161.635 22.358 163.279 22.358 165.308V179.591C22.358 181.62 24.005 183.265 26.0356 183.265H179.321C181.352 183.265 182.999 181.62 182.999 179.591V165.308C182.999 163.279 181.352 161.635 179.321 161.635Z" stroke="black" stroke-opacity="0.2" stroke-width="0.843081"/>
<path d="M76.5053 170.812H28.4156C27.5165 170.812 26.7876 171.54 26.7876 172.438C26.7876 173.336 27.5165 174.064 28.4156 174.064H76.5053C77.4044 174.064 78.1333 173.336 78.1333 172.438C78.1333 171.54 77.4044 170.812 76.5053 170.812Z" fill="#F1668F"/>
<path d="M76.5053 170.812H28.4156C27.5165 170.812 26.7876 171.54 26.7876 172.438C26.7876 173.336 27.5165 174.064 28.4156 174.064H76.5053C77.4044 174.064 78.1333 173.336 78.1333 172.438C78.1333 171.54 77.4044 170.812 76.5053 170.812Z" fill="black" fill-opacity="0.2"/>
<path d="M256.83 70.2229H103.544C101.746 70.2229 100.288 71.6789 100.288 73.4751V87.7578C100.288 89.5539 101.746 91.01 103.544 91.01H256.83C258.628 91.01 260.086 89.5539 260.086 87.7578V73.4751C260.086 71.6789 258.628 70.2229 256.83 70.2229Z" fill="#6ABF6C" stroke="#559956" stroke-width="0.843081"/>
<path d="M154.014 79.1038H105.924C105.094 79.1038 104.421 79.7758 104.421 80.6048C104.421 81.4337 105.094 82.1058 105.924 82.1058H154.014C154.844 82.1058 155.517 81.4337 155.517 80.6048C155.517 79.7758 154.844 79.1038 154.014 79.1038Z" fill="#6ABF6C"/>
<path d="M154.014 79.1038H105.924C105.094 79.1038 104.421 79.7758 104.421 80.6048C104.421 81.4337 105.094 82.1058 105.924 82.1058H154.014C154.844 82.1058 155.517 81.4337 155.517 80.6048C155.517 79.7758 154.844 79.1038 154.014 79.1038Z" fill="black" fill-opacity="0.2"/>
<path d="M154.014 79.1038H105.924C105.094 79.1038 104.421 79.7758 104.421 80.6048C104.421 81.4337 105.094 82.1058 105.924 82.1058H154.014C154.844 82.1058 155.517 81.4337 155.517 80.6048C155.517 79.7758 154.844 79.1038 154.014 79.1038Z" stroke="#6F8FBF" stroke-width="0.21077"/>
<path d="M259.626 188.792H106.34C104.542 188.792 103.084 190.248 103.084 192.044V206.327C103.084 208.123 104.542 209.579 106.34 209.579H259.626C261.424 209.579 262.882 208.123 262.882 206.327V192.044C262.882 190.248 261.424 188.792 259.626 188.792Z" fill="#6ABF6C" stroke="#559956" stroke-width="0.843081"/>
<path d="M156.81 197.673H108.72C107.89 197.673 107.217 198.345 107.217 199.174C107.217 200.003 107.89 200.675 108.72 200.675H156.81C157.64 200.675 158.313 200.003 158.313 199.174C158.313 198.345 157.64 197.673 156.81 197.673Z" fill="#6ABF6C"/>
<path d="M156.81 197.673H108.72C107.89 197.673 107.217 198.345 107.217 199.174C107.217 200.003 107.89 200.675 108.72 200.675H156.81C157.64 200.675 158.313 200.003 158.313 199.174C158.313 198.345 157.64 197.673 156.81 197.673Z" fill="black" fill-opacity="0.2"/>
<path d="M156.81 197.673H108.72C107.89 197.673 107.217 198.345 107.217 199.174C107.217 200.003 107.89 200.675 108.72 200.675H156.81C157.64 200.675 158.313 200.003 158.313 199.174C158.313 198.345 157.64 197.673 156.81 197.673Z" stroke="#6F8FBF" stroke-width="0.21077"/>
<path d="M218.791 96.9592H65.5056C63.7073 96.9592 62.2495 98.4153 62.2495 100.211V114.494C62.2495 116.29 63.7073 117.746 65.5056 117.746H218.791C220.589 117.746 222.047 116.29 222.047 114.494V100.211C222.047 98.4153 220.589 96.9592 218.791 96.9592Z" fill="#F5DC4E" stroke="#C4B03E" stroke-width="0.843081"/>
<path d="M115.974 105.84H67.8839C67.054 105.84 66.3811 106.512 66.3811 107.341C66.3811 108.17 67.054 108.842 67.8839 108.842H115.974C116.804 108.842 117.476 108.17 117.476 107.341C117.476 106.512 116.804 105.84 115.974 105.84Z" fill="#F5DC4E"/>
<path d="M115.974 105.84H67.8839C67.054 105.84 66.3811 106.512 66.3811 107.341C66.3811 108.17 67.054 108.842 67.8839 108.842H115.974C116.804 108.842 117.476 108.17 117.476 107.341C117.476 106.512 116.804 105.84 115.974 105.84Z" fill="black" fill-opacity="0.2"/>
<path d="M221.587 215.528H68.3017C66.5034 215.528 65.0457 216.984 65.0457 218.781V233.063C65.0457 234.859 66.5034 236.316 68.3017 236.316H221.587C223.385 236.316 224.843 234.859 224.843 233.063V218.781C224.843 216.984 223.385 215.528 221.587 215.528Z" fill="#F5DC4E" stroke="#C4B03E" stroke-width="0.843081"/>
<path d="M118.771 224.408H70.6815C69.8515 224.408 69.1787 225.08 69.1787 225.909C69.1787 226.738 69.8515 227.41 70.6815 227.41H118.771C119.601 227.41 120.274 226.738 120.274 225.909C120.274 225.08 119.601 224.408 118.771 224.408Z" fill="#F5DC4E"/>
<path d="M118.771 224.408H70.6815C69.8515 224.408 69.1787 225.08 69.1787 225.909C69.1787 226.738 69.8515 227.41 70.6815 227.41H118.771C119.601 227.41 120.274 226.738 120.274 225.909C120.274 225.08 119.601 224.408 118.771 224.408Z" fill="black" fill-opacity="0.2"/>
</svg>
