<svg width="265" height="248" viewBox="0 0 265 248" fill="none" xmlns="http://www.w3.org/2000/svg">
<path d="M17.8008 0.0447388H246.897C255.706 0.0447388 262.847 7.18566 262.847 15.9944V91.393C262.847 100.202 255.706 107.343 246.897 107.343H88.3162L90.2943 130.471L40.9575 107.343H17.8008C8.99205 107.343 1.85107 100.202 1.85107 91.393V15.9944C1.85107 7.18566 8.99205 0.0447388 17.8008 0.0447388Z" fill="#BA96FF"/>
<path d="M41.73 192.892C54.9431 192.892 65.6546 182.18 65.6546 168.967C65.6546 155.754 54.9431 145.043 41.73 145.043C28.5168 145.043 17.8055 155.754 17.8055 168.967C17.8055 182.18 28.5168 192.892 41.73 192.892Z" fill="#F5DC4E"/>
<path d="M133.079 192.892C146.292 192.892 157.004 182.18 157.004 168.967C157.004 155.754 146.292 145.043 133.079 145.043C119.866 145.043 109.155 155.754 109.155 168.967C109.155 182.18 119.866 192.892 133.079 192.892Z" fill="#F1668F"/>
<path d="M224.429 192.892C237.642 192.892 248.353 182.18 248.353 168.967C248.353 155.754 237.642 145.043 224.429 145.043C211.215 145.043 200.504 155.754 200.504 168.967C200.504 182.18 211.215 192.892 224.429 192.892Z" fill="#6ABF6C"/>
<path d="M41.0077 247.99C63.43 247.99 81.607 237.279 81.607 224.066C81.607 210.853 63.43 200.141 41.0077 200.141C18.5854 200.141 0.408447 210.853 0.408447 224.066C0.408447 237.279 18.5854 247.99 41.0077 247.99Z" fill="#F5DC4E"/>
<path d="M132.357 247.99C154.779 247.99 172.956 237.279 172.956 224.066C172.956 210.853 154.779 200.141 132.357 200.141C109.935 200.141 91.7578 210.853 91.7578 224.066C91.7578 237.279 109.935 247.99 132.357 247.99Z" fill="#F1668F"/>
<path d="M223.69 247.99C246.112 247.99 264.289 237.279 264.289 224.066C264.289 210.853 246.112 200.141 223.69 200.141C201.268 200.141 183.091 210.853 183.091 224.066C183.091 237.279 201.268 247.99 223.69 247.99Z" fill="#6ABF6C"/>
<path d="M199.775 15.9945H19.9781C17.1753 15.9945 14.9032 18.2666 14.9032 21.0694C14.9032 23.8722 17.1753 26.1443 19.9781 26.1443H199.775C202.578 26.1443 204.85 23.8722 204.85 21.0694C204.85 18.2666 202.578 15.9945 199.775 15.9945Z" fill="#BA96FF"/>
<path d="M199.775 15.9945H19.9781C17.1753 15.9945 14.9032 18.2666 14.9032 21.0694C14.9032 23.8722 17.1753 26.1443 19.9781 26.1443H199.775C202.578 26.1443 204.85 23.8722 204.85 21.0694C204.85 18.2666 202.578 15.9945 199.775 15.9945Z" fill="black" fill-opacity="0.2"/>
<path d="M102.626 33.3945H19.9781C17.1753 33.3945 14.9032 35.6666 14.9032 38.4694C14.9032 41.2722 17.1753 43.5443 19.9781 43.5443H102.626C105.429 43.5443 107.701 41.2722 107.701 38.4694C107.701 35.6666 105.429 33.3945 102.626 33.3945Z" fill="#BA96FF"/>
<path d="M102.626 33.3945H19.9781C17.1753 33.3945 14.9032 35.6666 14.9032 38.4694C14.9032 41.2722 17.1753 43.5443 19.9781 43.5443H102.626C105.429 43.5443 107.701 41.2722 107.701 38.4694C107.701 35.6666 105.429 33.3945 102.626 33.3945Z" fill="black" fill-opacity="0.2"/>
<path d="M72.1771 49.3442H19.9781C17.1753 49.3442 14.9032 51.6163 14.9032 54.4191C14.9032 57.2219 17.1753 59.494 19.9781 59.494H72.1771C74.9799 59.494 77.252 57.2219 77.252 54.4191C77.252 51.6163 74.9799 49.3442 72.1771 49.3442Z" fill="#BA96FF"/>
<path d="M72.1771 49.3442H19.9781C17.1753 49.3442 14.9032 51.6163 14.9032 54.4191C14.9032 57.2219 17.1753 59.494 19.9781 59.494H72.1771C74.9799 59.494 77.252 57.2219 77.252 54.4191C77.252 51.6163 74.9799 49.3442 72.1771 49.3442Z" fill="black" fill-opacity="0.2"/>
</svg>
