<svg width="248" height="225" viewBox="0 0 248 225" fill="none" xmlns="http://www.w3.org/2000/svg">
<g clip-path="url(#clip0_3631_36444)">
<path d="M194.168 87.3653C193.759 87.3572 193.51 87.5908 193.232 87.7492C192.17 88.354 191.118 88.9759 190.049 89.5673C189.491 89.876 189.369 89.8008 189.341 89.1888C189.321 88.7719 189.319 88.3531 189.341 87.9362C189.364 87.5004 189.163 87.3483 188.753 87.3769C188.516 87.3939 188.276 87.3787 188.037 87.3787C178.314 87.3787 168.592 87.3787 158.868 87.3787C158.629 87.3787 158.39 87.3895 158.152 87.3751C157.618 87.3438 157.495 87.223 157.486 86.756C157.477 86.2433 157.613 86.1082 158.179 86.084C158.388 86.0751 158.597 86.0822 158.806 86.0822C168.618 86.0822 178.43 86.084 188.243 86.0804C189.46 86.0804 189.325 86.229 189.338 84.9781C189.34 84.6801 189.321 84.3795 189.35 84.0842C189.393 83.6485 189.542 83.5581 189.931 83.7737C190.971 84.3526 191.997 84.9602 193.03 85.5525C193.358 85.7404 193.691 85.9176 194.031 86.1046C194.237 85.7512 194.165 85.4505 194.165 85.1651C194.169 74.011 194.169 62.856 194.169 51.7019C194.169 51.523 194.161 51.344 194.167 51.1651C194.181 50.8206 194.008 50.6837 193.678 50.6944C193.41 50.7025 193.141 50.6944 192.873 50.6944C177.274 50.6944 161.676 50.6944 146.078 50.6944C145.78 50.6944 145.48 50.7079 145.183 50.6891C143.376 50.5763 142.208 49.4069 142.098 47.6021C142.085 47.3937 142.093 47.1843 142.093 46.9758C142.093 32.5111 142.095 18.0455 142.089 3.58084C142.089 2.52949 142.258 1.5712 143.088 0.823185C143.667 0.30154 144.309 -0.0187845 145.101 0.00805835C145.249 0.0134269 145.399 0.00805835 145.548 0.00805835C178.295 0.00805835 211.044 0.00984787 243.791 0.000900269C244.789 0.000900269 245.676 0.178063 246.386 0.939504C246.875 1.46473 247.134 2.07674 247.178 2.78539C247.188 2.96345 247.181 3.1433 247.181 3.32225C247.181 17.9963 247.178 32.6704 247.189 47.3436C247.189 48.216 247.018 48.981 246.421 49.6467C245.803 50.3365 245.037 50.6551 244.133 50.6918C243.864 50.7025 243.596 50.6944 243.327 50.6944C227.759 50.6944 212.191 50.6944 196.622 50.6971C195.305 50.6971 195.467 50.5611 195.467 51.8263C195.464 92.2686 195.464 132.712 195.467 173.154C195.467 174.485 195.292 174.304 196.586 174.304C212.363 174.308 228.14 174.309 243.917 174.3C244.821 174.3 245.622 174.485 246.285 175.138C246.866 175.711 247.165 176.398 247.18 177.212C247.182 177.331 247.18 177.451 247.18 177.57C247.18 192.273 247.18 206.977 247.181 221.68C247.181 222.158 247.187 222.63 246.979 223.082C246.429 224.284 245.487 224.9 244.185 224.988C243.947 225.004 243.708 224.993 243.469 224.993C210.959 224.993 178.45 224.993 145.942 224.993C145.673 224.993 145.404 225.006 145.136 224.987C143.369 224.856 142.227 223.712 142.097 221.945C142.08 221.708 142.092 221.468 142.092 221.229C142.092 206.824 142.092 192.418 142.092 178.013C142.092 177.835 142.088 177.656 142.092 177.477C142.138 175.542 143.388 174.307 145.319 174.307C161.186 174.306 177.053 174.307 192.919 174.303C194.337 174.303 194.162 174.509 194.163 173.085C194.168 163.661 194.166 154.236 194.166 144.811C194.166 144.721 194.166 144.632 194.166 144.542C194.166 143.517 194.222 143.57 193.192 143.57C181.77 143.57 170.346 143.57 158.924 143.57C158.685 143.57 158.446 143.578 158.208 143.568C157.573 143.539 157.351 143.242 157.507 142.648C157.567 142.42 157.693 142.282 157.942 142.281C158.211 142.28 158.479 142.274 158.747 142.274C170.2 142.274 181.653 142.274 193.105 142.271C194.257 142.271 194.166 142.417 194.166 141.225C194.167 123.54 194.167 105.853 194.167 88.167C194.167 87.9031 194.167 87.6391 194.167 87.3644L194.168 87.3653ZM194.707 223.792V223.789C211.111 223.789 227.515 223.789 243.919 223.789C245.321 223.789 245.985 223.16 246.086 221.751C246.101 221.544 246.092 221.334 246.092 221.125C246.092 206.749 246.091 192.373 246.09 177.997C246.09 177.789 246.101 177.579 246.084 177.371C245.983 176.164 245.288 175.482 244.069 175.406C243.683 175.382 243.294 175.398 242.906 175.398C210.635 175.398 178.364 175.398 146.093 175.398C145.854 175.398 145.615 175.388 145.377 175.403C143.94 175.49 143.292 176.179 143.292 177.621C143.292 192.056 143.294 206.492 143.295 220.927C143.295 221.255 143.291 221.584 143.301 221.911C143.337 223.077 144.043 223.764 145.228 223.79C145.436 223.795 145.646 223.79 145.854 223.79C162.139 223.79 178.423 223.79 194.708 223.79L194.707 223.792Z" fill="#98B9E1"/>
<path d="M53.4127 87.3805V142.6C55.0904 141.643 56.7224 140.714 58.444 139.732C58.6489 140.364 58.5522 140.923 58.5612 141.465C58.5764 142.341 58.5352 142.275 59.4049 142.275C68.9189 142.275 78.4329 142.275 87.9469 142.275C88.1858 142.275 88.4247 142.284 88.6627 142.273C89.0582 142.256 89.3651 142.297 89.3517 142.827C89.3373 143.426 89.2649 143.535 88.6287 143.568C88.3907 143.58 88.1518 143.571 87.9129 143.571C78.4884 143.571 69.0639 143.571 59.6394 143.571C58.4431 143.571 58.5764 143.469 58.5665 144.607C58.5639 144.905 58.58 145.204 58.5594 145.501C58.529 145.952 58.3912 146.039 57.9975 145.822C57.1367 145.347 56.2903 144.846 55.4376 144.356C54.7978 143.989 54.1581 143.622 53.4727 143.23C53.3331 143.518 53.3796 143.755 53.3796 143.979C53.3769 153.791 53.3769 163.603 53.3769 173.415C53.3769 173.565 53.3886 173.714 53.3769 173.863C53.3483 174.228 53.5416 174.328 53.8664 174.309C54.1044 174.296 54.3433 174.307 54.5822 174.307C70.2995 174.307 86.0169 174.309 101.734 174.302C102.433 174.302 103.094 174.364 103.699 174.758C104.59 175.339 105.07 176.141 105.093 177.208C105.097 177.358 105.094 177.506 105.094 177.656C105.094 192.299 105.094 206.943 105.091 221.587C105.091 222.029 105.131 222.472 104.956 222.909C104.437 224.212 103.464 224.869 102.095 224.988C101.858 225.009 101.618 224.993 101.379 224.993C68.8411 224.993 36.3031 224.993 3.76515 224.993C3.55667 224.993 3.3473 225.001 3.13882 224.99C1.29561 224.895 0.100213 223.698 0.00805284 221.857C-0.00089476 221.678 0.00536856 221.499 0.00536856 221.32C0.00536856 206.826 0.00805284 192.331 0.00089476 177.836C0.00089476 176.78 0.190584 175.828 1.03166 175.093C1.59178 174.604 2.20827 174.292 2.96613 174.306C3.20503 174.311 3.44304 174.306 3.68194 174.306C19.4288 174.306 35.1766 174.307 50.9235 174.304C52.2093 174.304 52.0777 174.481 52.0777 173.174C52.0795 132.731 52.0795 92.2901 52.0795 51.8478C52.0795 51.7878 52.0795 51.7288 52.0795 51.6688C52.0795 50.6443 52.1386 50.6935 51.1087 50.6935C35.3314 50.6935 19.5541 50.6935 3.77768 50.6926C3.4502 50.6926 3.11824 50.7043 2.79613 50.6577C1.14619 50.4215 0.136004 49.3281 0.0107371 47.6603C-0.0044738 47.4527 0.00536856 47.2433 0.00536856 47.034C0.00536856 32.5406 0.00805284 18.0455 0 3.5513C0 2.4597 0.205795 1.48083 1.08713 0.742651C1.62936 0.289008 2.22616 -0.0107371 2.95271 0.0089476C3.13166 0.0134214 3.31061 0.00805284 3.48957 0.00805284C36.2369 0.00805284 68.9842 0.00984236 101.732 0C102.734 0 103.614 0.196847 104.317 0.960078C104.804 1.48799 105.051 2.10537 105.091 2.81313C105.099 2.96166 105.094 3.11108 105.094 3.26051C105.094 17.9641 105.091 32.6677 105.099 47.3704C105.099 48.4826 104.794 49.4185 103.859 50.0878C103.335 50.4636 102.741 50.6381 102.108 50.6891C101.842 50.7105 101.571 50.6944 101.303 50.6944C85.7046 50.6944 70.1063 50.6944 54.5088 50.6971C53.2042 50.6971 53.3805 50.5656 53.3796 51.8523C53.3751 62.8578 53.3769 73.8625 53.3769 84.868C53.3769 84.987 53.3769 85.1069 53.3769 85.2259C53.3805 86.2164 53.3322 86.0822 54.2475 86.0831C64.6563 86.0849 75.065 86.084 85.4738 86.084C86.5475 86.084 87.6212 86.0751 88.6949 86.0885C89.3016 86.0956 89.3373 86.1439 89.3445 86.6674C89.3517 87.24 89.2667 87.3376 88.6878 87.376C88.4497 87.3921 88.2108 87.3805 87.9719 87.3805C76.8474 87.3805 65.7228 87.3805 54.5983 87.3805H53.4127ZM52.5877 223.795C67.0489 223.795 81.51 223.795 95.972 223.795C97.9995 223.795 100.027 223.801 102.055 223.791C103.082 223.786 103.714 223.234 103.923 222.239C103.991 221.913 104.003 221.589 104.003 221.262C104.003 206.86 104.005 192.458 104.003 178.056C104.003 176.023 103.364 175.4 101.319 175.4C68.8482 175.4 36.3774 175.4 3.90652 175.4C3.72757 175.4 3.54862 175.402 3.36967 175.4C1.88705 175.392 1.17393 176.434 1.18377 177.634C1.23835 184.253 1.20793 190.873 1.20793 197.492C1.20793 205.603 1.20793 213.713 1.21061 221.823C1.21061 223.041 1.91389 223.76 3.12271 223.792C3.39114 223.799 3.65957 223.795 3.928 223.795C20.1482 223.795 36.3693 223.795 52.5895 223.795H52.5877Z" fill="#98B9E1"/>
<path d="M123.325 89.1656C116.411 89.1656 109.496 89.1629 102.583 89.1682C101.338 89.1691 100.373 88.7164 99.8607 87.5371C99.5117 86.7336 99.6236 85.9954 100.217 85.3029C100.938 84.4609 101.845 84.1719 102.91 84.1728C110.242 84.179 117.572 84.1755 124.904 84.1755C131.252 84.1755 137.6 84.1817 143.948 84.1665C144.689 84.1647 145.374 84.3106 145.995 84.6873C147.712 85.7297 147.52 87.725 146.104 88.6448C145.51 89.0304 144.864 89.1736 144.157 89.1727C137.212 89.1629 130.269 89.1673 123.325 89.1673V89.1656Z" fill="#98B9E1"/>
<path d="M123.318 145.358C116.464 145.358 109.609 145.355 102.755 145.365C102.177 145.365 101.652 145.251 101.114 145.036C99.8598 144.534 99.0545 142.627 100.355 141.346C101.022 140.689 101.773 140.399 102.665 140.371C103.23 140.354 103.798 140.367 104.363 140.367C117.535 140.367 130.707 140.371 143.878 140.358C144.616 140.358 145.297 140.484 145.933 140.845C147.636 141.811 147.619 143.891 146.097 144.843C145.494 145.22 144.854 145.364 144.148 145.363C137.204 145.355 130.261 145.357 123.317 145.357L123.318 145.358Z" fill="#98B9E1"/>
<path d="M194.706 223.793C178.422 223.793 162.137 223.793 145.852 223.793C145.644 223.793 145.434 223.797 145.226 223.793C144.042 223.767 143.336 223.08 143.299 221.914C143.29 221.586 143.293 221.258 143.293 220.93C143.292 206.495 143.291 192.059 143.291 177.623C143.291 176.182 143.938 175.493 145.375 175.405C145.613 175.391 145.852 175.401 146.091 175.401C178.362 175.401 210.633 175.401 242.904 175.401C243.292 175.401 243.681 175.385 244.067 175.409C245.286 175.485 245.981 176.167 246.082 177.374C246.099 177.581 246.089 177.791 246.089 178C246.089 192.376 246.09 206.751 246.09 221.128C246.09 221.336 246.099 221.546 246.084 221.754C245.983 223.161 245.319 223.79 243.917 223.791C227.513 223.793 211.109 223.792 194.705 223.792V223.795L194.706 223.793Z" fill="#FAF181"/>
<path d="M52.5878 223.795C36.3675 223.795 20.1464 223.795 3.92622 223.795C3.65779 223.795 3.38936 223.799 3.12093 223.792C1.91211 223.76 1.20883 223.041 1.20883 221.823C1.20614 213.713 1.20614 205.602 1.20614 197.492C1.20614 190.873 1.23657 184.254 1.18199 177.634C1.17214 176.434 1.88527 175.392 3.36788 175.4C3.54684 175.401 3.72579 175.4 3.90474 175.4C36.3756 175.4 68.8464 175.4 101.317 175.4C103.363 175.4 104.002 176.022 104.002 178.056C104.004 192.458 104.002 206.86 104.002 221.262C104.002 221.589 103.989 221.912 103.921 222.239C103.713 223.234 103.081 223.786 102.053 223.791C100.025 223.801 97.9977 223.795 95.9702 223.795C81.5091 223.795 67.048 223.795 52.586 223.795H52.5878Z" fill="#FAF181"/>
</g>
<defs>
<clipPath id="clip0_3631_36444">
<rect width="247.189" height="225" fill="white"/>
</clipPath>
</defs>
</svg>
