<svg width="280" height="512" viewBox="0 0 280 512" fill="none" xmlns="http://www.w3.org/2000/svg">
<g clip-path="url(#clip0_4251_3008)">
<rect width="280" height="512" rx="11" fill="#F9FAFC"/>
<path fill-rule="evenodd" clip-rule="evenodd" d="M139.5 340.378C128.354 340.378 118.146 344.224 110.072 350.693C108.368 352.059 105.875 352.006 104.373 350.421L78.0775 322.678C76.5752 321.093 76.6368 318.583 78.2839 317.149C94.6494 302.901 116.086 294.245 139.5 294.245C191.003 294.245 232.755 335.997 232.755 387.5C232.755 439.003 191.003 480.754 139.5 480.754C116.086 480.754 94.6494 472.098 78.284 457.85C76.6368 456.416 76.5752 453.907 78.0775 452.322L104.373 424.578C105.875 422.993 108.368 422.941 110.072 424.307C118.146 430.776 128.354 434.621 139.5 434.621C165.525 434.621 186.622 413.524 186.622 387.5C186.622 361.475 165.525 340.378 139.5 340.378Z" fill="#DCE7FD" fill-opacity="0.3"/>
<circle cx="139.17" cy="387.5" r="68.0462" stroke="url(#paint0_linear_4251_3008)" stroke-opacity="0.5" stroke-width="0.988565" stroke-dasharray="4.94 4.94"/>
<path d="M20.4385 394.898C20.3386 393.265 20.2716 391.623 20.238 389.974L20.7322 389.964C20.7155 389.144 20.7071 388.323 20.7071 387.5C20.7071 386.676 20.7155 385.855 20.7322 385.036L20.238 385.026C20.2716 383.376 20.3386 381.734 20.4385 380.102L20.9319 380.132C21.0322 378.493 21.1657 376.862 21.3318 375.242L20.8401 375.191C21.0085 373.549 21.2102 371.916 21.4445 370.294L21.9337 370.365C22.1687 368.738 22.4366 367.123 22.7367 365.518L22.2508 365.428C22.5541 363.807 22.8901 362.197 23.2582 360.6L23.7398 360.711C24.1084 359.112 24.5093 357.525 24.9418 355.951L24.4652 355.82C24.9016 354.232 25.3701 352.657 25.8699 351.095L26.3407 351.246C26.8407 349.684 27.3721 348.136 27.9342 346.603L27.4701 346.433C28.0373 344.886 28.6357 343.354 29.2644 341.838L29.721 342.028C30.3492 340.513 31.0079 339.013 31.6962 337.531L31.2479 337.323C31.9412 335.83 32.6645 334.353 33.417 332.894L33.8563 333.121C34.6076 331.664 35.3881 330.225 36.1971 328.804L35.7676 328.56C36.5818 327.13 37.4247 325.718 38.2955 324.326L38.7145 324.588C39.5833 323.2 40.4801 321.83 41.4039 320.48L40.996 320.201C41.9252 318.844 42.8816 317.507 43.8645 316.191L44.2606 316.486C45.2407 315.174 46.2474 313.882 47.2797 312.613L46.8962 312.301C47.9336 311.025 48.9968 309.771 50.0851 308.539L50.4554 308.867C51.5397 307.64 52.6489 306.436 53.7823 305.255L53.4257 304.912C54.5639 303.726 55.7264 302.564 56.9124 301.426L57.2547 301.782C58.4356 300.649 59.6399 299.54 60.8668 298.455L60.5394 298.085C61.7708 296.997 63.0249 295.934 64.3008 294.896L64.6127 295.28C65.8824 294.247 67.1739 293.241 68.4862 292.261L68.1905 291.865C69.5066 290.882 70.8437 289.925 72.201 288.996L72.4802 289.404C73.8299 288.48 75.1995 287.583 76.5884 286.715L76.3263 286.296C77.7184 285.425 79.1298 284.582 80.5596 283.768L80.8042 284.197C82.2249 283.388 83.664 282.608 85.1206 281.856L84.8941 281.417C86.353 280.665 87.8294 279.941 89.3226 279.248L89.5308 279.696C91.0134 279.008 92.5125 278.349 94.0275 277.721L93.8381 277.264C95.3542 276.636 96.8861 276.037 98.4329 275.47L98.6031 275.934C100.136 275.372 101.684 274.841 103.246 274.341L103.095 273.87C104.656 273.37 106.232 272.902 107.82 272.465L107.951 272.942C109.525 272.509 111.112 272.108 112.711 271.74L112.6 271.258C114.197 270.89 115.807 270.554 117.428 270.251L117.518 270.737C119.123 270.437 120.738 270.169 122.365 269.934L122.294 269.444C123.916 269.21 125.549 269.008 127.191 268.84L127.242 269.332C128.862 269.166 130.493 269.032 132.132 268.932L132.102 268.438C133.734 268.339 135.376 268.272 137.026 268.238L137.036 268.732C137.855 268.715 138.676 268.707 139.5 268.707C140.323 268.707 141.144 268.715 141.964 268.732L141.974 268.238C143.624 268.272 145.265 268.339 146.898 268.438L146.868 268.932C148.507 269.032 150.137 269.166 151.758 269.332L151.808 268.84C153.451 269.008 155.083 269.21 156.705 269.444L156.635 269.934C158.261 270.169 159.877 270.437 161.481 270.737L161.572 270.251C163.193 270.554 164.802 270.89 166.399 271.258L166.288 271.74C167.887 272.108 169.474 272.509 171.048 272.942L171.179 272.465C172.768 272.902 174.343 273.37 175.904 273.87L175.754 274.341C177.315 274.841 178.863 275.372 180.396 275.934L180.566 275.47C182.113 276.037 183.645 276.636 185.161 277.264L184.972 277.721C186.487 278.349 187.986 279.008 189.469 279.696L189.677 279.248C191.17 279.941 192.646 280.664 194.105 281.417L193.879 281.856C195.335 282.608 196.774 283.388 198.195 284.197L198.44 283.768C199.87 284.582 201.281 285.425 202.673 286.295L202.411 286.715C203.8 287.583 205.17 288.48 206.519 289.404L206.798 288.996C208.156 289.925 209.493 290.882 210.809 291.865L210.513 292.261C211.826 293.241 213.117 294.247 214.387 295.28L214.699 294.896C215.974 295.934 217.229 296.997 218.46 298.085L218.133 298.455C219.36 299.54 220.564 300.649 221.745 301.782L222.087 301.426C223.273 302.564 224.435 303.726 225.574 304.912L225.217 305.255C226.351 306.436 227.46 307.64 228.544 308.867L228.914 308.539C230.003 309.771 231.066 311.025 232.103 312.301L231.72 312.613C232.752 313.882 233.759 315.174 234.739 316.486L235.135 316.19C236.118 317.507 237.074 318.844 238.003 320.201L237.595 320.48C238.519 321.83 239.416 323.2 240.285 324.588L240.704 324.326C241.575 325.718 242.418 327.13 243.232 328.56L242.802 328.804C243.611 330.225 244.392 331.664 245.143 333.121L245.582 332.894C246.335 334.353 247.058 335.829 247.752 337.323L247.303 337.531C247.992 339.013 248.65 340.513 249.278 342.027L249.735 341.838C250.364 343.354 250.962 344.886 251.529 346.433L251.065 346.603C251.627 348.136 252.159 349.684 252.659 351.246L253.13 351.095C253.629 352.656 254.098 354.232 254.534 355.82L254.058 355.951C254.49 357.525 254.891 359.112 255.26 360.711L255.741 360.6C256.109 362.197 256.445 363.807 256.749 365.428L256.263 365.518C256.563 367.123 256.831 368.738 257.066 370.365L257.555 370.294C257.789 371.916 257.991 373.549 258.159 375.191L257.668 375.242C257.834 376.862 257.967 378.493 258.068 380.132L258.561 380.102C258.661 381.734 258.728 383.376 258.761 385.026L258.267 385.036C258.284 385.855 258.292 386.676 258.292 387.5C258.292 388.323 258.284 389.144 258.267 389.964L258.761 389.974C258.728 391.624 258.661 393.265 258.561 394.898L258.068 394.868C257.967 396.507 257.834 398.137 257.668 399.758L258.159 399.808C257.991 401.451 257.789 403.083 257.555 404.705L257.066 404.635C256.831 406.261 256.563 407.877 256.263 409.481L256.749 409.572C256.445 411.193 256.109 412.802 255.741 414.399L255.26 414.288C254.891 415.887 254.49 417.474 254.058 419.048L254.534 419.179C254.098 420.768 253.629 422.343 253.13 423.904L252.659 423.754C252.159 425.315 251.627 426.863 251.065 428.396L251.529 428.566C250.962 430.113 250.364 431.645 249.735 433.161L249.278 432.972C248.65 434.487 247.992 435.986 247.303 437.469L247.752 437.677C247.058 439.17 246.335 440.646 245.582 442.105L245.143 441.879C244.392 443.335 243.611 444.774 242.802 446.195L243.232 446.44C242.418 447.87 241.575 449.281 240.704 450.673L240.285 450.411C239.416 451.8 238.519 453.17 237.596 454.519L238.003 454.798C237.074 456.156 236.118 457.493 235.135 458.809L234.739 458.513C233.759 459.826 232.752 461.117 231.72 462.387L232.103 462.699C231.066 463.974 230.003 465.229 228.914 466.46L228.544 466.133C227.46 467.36 226.351 468.564 225.217 469.745L225.574 470.087C224.436 471.273 223.273 472.436 222.087 473.574L221.745 473.217C220.564 474.351 219.36 475.46 218.133 476.544L218.46 476.914C217.229 478.003 215.975 479.066 214.699 480.103L214.387 479.72C213.117 480.752 211.826 481.759 210.513 482.739L210.809 483.135C209.493 484.118 208.156 485.074 206.798 486.003L206.519 485.596C205.17 486.519 203.8 487.416 202.411 488.285L202.673 488.704C201.281 489.575 199.87 490.418 198.44 491.232L198.195 490.802C196.775 491.611 195.335 492.392 193.879 493.143L194.105 493.582C192.646 494.335 191.17 495.058 189.677 495.752L189.469 495.303C187.986 495.992 186.487 496.65 184.972 497.278L185.161 497.735C183.645 498.364 182.113 498.962 180.566 499.529L180.396 499.065C178.863 499.627 177.315 500.159 175.754 500.659L175.904 501.13C174.343 501.629 172.768 502.098 171.179 502.534L171.048 502.058C169.474 502.49 167.887 502.891 166.288 503.26L166.399 503.741C164.802 504.109 163.193 504.445 161.572 504.749L161.481 504.263C159.877 504.563 158.261 504.831 156.635 505.066L156.705 505.555C155.083 505.789 153.451 505.991 151.808 506.159L151.758 505.668C150.137 505.834 148.507 505.967 146.868 506.068L146.898 506.561C145.265 506.661 143.623 506.728 141.974 506.761L141.964 506.267C141.144 506.284 140.323 506.292 139.5 506.292C138.676 506.292 137.855 506.284 137.036 506.267L137.026 506.761C135.376 506.728 133.734 506.661 132.102 506.561L132.132 506.068C130.493 505.967 128.862 505.834 127.242 505.668L127.191 506.159C125.549 505.991 123.916 505.789 122.294 505.555L122.365 505.066C120.738 504.831 119.123 504.563 117.518 504.263L117.428 504.749C115.807 504.445 114.197 504.109 112.6 503.741L112.711 503.26C111.112 502.891 109.525 502.49 107.951 502.058L107.82 502.534C106.232 502.098 104.656 501.629 103.095 501.13L103.246 500.659C101.684 500.159 100.136 499.627 98.6031 499.065L98.433 499.529C96.8861 498.962 95.3542 498.364 93.8381 497.735L94.0275 497.278C92.5125 496.65 91.0134 495.992 89.5308 495.303L89.3227 495.752C87.8295 495.058 86.353 494.335 84.8941 493.582L85.1207 493.143C83.6641 492.392 82.225 491.611 80.8042 490.802L80.5596 491.232C79.1298 490.418 77.7184 489.575 76.3263 488.704L76.5885 488.285C75.1996 487.416 73.8299 486.519 72.4803 485.596L72.2011 486.003C70.8438 485.074 69.5067 484.118 68.1905 483.135L68.4863 482.739C67.1739 481.759 65.8824 480.752 64.6127 479.72L64.3009 480.103C63.0249 479.066 61.7709 478.003 60.5395 476.914L60.8668 476.544C59.6399 475.46 58.4356 474.351 57.2547 473.217L56.9124 473.574C55.7265 472.436 54.5639 471.273 53.4257 470.087L53.7823 469.745C52.6489 468.564 51.5397 467.36 50.4555 466.133L50.0851 466.46C48.9968 465.229 47.9336 463.975 46.8962 462.699L47.2798 462.387C46.2474 461.117 45.2407 459.826 44.2606 458.513L43.8646 458.809C42.8816 457.493 41.9252 456.156 40.9961 454.798L41.4039 454.519C40.4801 453.17 39.5834 451.8 38.7146 450.411L38.2955 450.673C37.4247 449.281 36.5818 447.87 35.7676 446.44L36.1972 446.195C35.3881 444.775 34.6076 443.335 33.8563 441.879L33.417 442.105C32.6645 440.646 31.9412 439.17 31.2479 437.677L31.6962 437.469C31.0079 435.986 30.3492 434.487 29.721 432.972L29.2644 433.161C28.6357 431.645 28.0374 430.113 27.4702 428.566L27.9342 428.396C27.3721 426.863 26.8407 425.315 26.3407 423.754L25.8699 423.904C25.3701 422.343 24.9016 420.768 24.4651 419.179L24.9418 419.048C24.5093 417.474 24.1084 415.887 23.7398 414.288L23.2582 414.399C22.8901 412.802 22.5541 411.193 22.2508 409.572L22.7367 409.481C22.4366 407.877 22.1687 406.261 21.9337 404.635L21.4445 404.705C21.2102 403.083 21.0085 401.451 20.8401 399.808L21.3318 399.758C21.1657 398.137 21.0322 396.507 20.9319 394.868L20.4385 394.898Z" stroke="url(#paint1_linear_4251_3008)" stroke-opacity="0.5" stroke-width="0.988565" stroke-dasharray="4.94 4.94"/>
<circle cx="139.5" cy="387.5" r="158.006" transform="rotate(180 139.5 387.5)" stroke="url(#paint2_linear_4251_3008)" stroke-opacity="0.5" stroke-width="0.988565" stroke-dasharray="4.94 4.94"/>
<g opacity="0.2" filter="url(#filter0_f_4251_3008)">
<circle cx="139.5" cy="387.5" r="27.6798" fill="#B4C7ED"/>
</g>
<circle cx="139.5" cy="387.5" r="27.6798" fill="white"/>
<circle cx="139.5" cy="387.5" r="27.6798" fill="white"/>
<g filter="url(#filter1_f_4251_3008)">
<rect x="130.273" y="309.733" width="24.7141" height="24.7141" rx="6.26091" fill="#B4C7ED"/>
</g>
<rect x="123.683" y="303.142" width="30.316" height="30.316" rx="6.26091" fill="white"/>
<g filter="url(#filter2_f_4251_3008)">
<rect x="130.273" y="446.814" width="24.7141" height="24.7141" rx="6.26091" fill="#B4C7ED"/>
</g>
<rect x="123.683" y="440.224" width="30.316" height="30.316" rx="6.26091" fill="white"/>
<g filter="url(#filter3_f_4251_3008)">
<rect x="194.86" y="345.321" width="24.7141" height="24.7141" rx="6.26091" fill="#B4C7ED"/>
</g>
<rect x="188.269" y="338.731" width="30.316" height="30.316" rx="6.26091" fill="white"/>
<g filter="url(#filter4_f_4251_3008)">
<rect x="67.0049" y="345.321" width="24.7141" height="24.7141" rx="6.26091" fill="#B4C7ED"/>
</g>
<rect x="60.4146" y="338.731" width="30.316" height="30.316" rx="6.26091" fill="white"/>
<path d="M77.7954 358.335V358.779C77.7954 359.133 77.6549 359.472 77.4047 359.722C77.1546 359.973 76.8153 360.113 76.4615 360.113H74.683C74.3292 360.113 73.99 359.973 73.7398 359.722C73.4897 359.472 73.3491 359.133 73.3491 358.779V358.335H77.7954Z" fill="#18181B"/>
<path d="M80.0186 352.113C80.0201 352.785 79.8679 353.449 79.5735 354.054C79.2791 354.659 78.8504 355.188 78.3201 355.602C78.1573 355.726 78.0253 355.887 77.9343 356.07C77.8433 356.253 77.7958 356.455 77.7955 356.66V357.447H76.0169V354.7C76.2764 354.608 76.5011 354.438 76.6603 354.214C76.8195 353.99 76.9054 353.721 76.9062 353.446V352.557C76.9062 352.204 76.7657 351.864 76.5155 351.614C76.2654 351.364 75.9261 351.224 75.5723 351.224C75.2185 351.224 74.8793 351.364 74.6291 351.614C74.3789 351.864 74.2384 352.204 74.2384 352.557V353.446C74.2392 353.721 74.3251 353.99 74.4843 354.214C74.6435 354.438 74.8682 354.608 75.1277 354.7V357.447H73.3492V356.66C73.3513 356.462 73.3084 356.267 73.2236 356.088C73.1389 355.909 73.0145 355.752 72.8601 355.629C72.3191 355.216 71.8811 354.684 71.5802 354.074C71.2794 353.464 71.1239 352.793 71.126 352.113C71.1343 350.96 71.5867 349.855 72.3891 349.027C73.1915 348.199 74.2822 347.712 75.4345 347.668C76.0332 347.643 76.6306 347.742 77.1896 347.957C77.7487 348.173 78.2576 348.501 78.6847 348.921C79.1108 349.336 79.4485 349.832 79.6778 350.381C79.907 350.929 80.0229 351.518 80.0186 352.113Z" fill="#FFCA20"/>
<path d="M76.0177 352.555V353.444C76.0177 353.562 75.9709 353.675 75.8875 353.758C75.8041 353.842 75.691 353.888 75.5731 353.888C75.4551 353.888 75.342 353.842 75.2587 353.758C75.1753 353.675 75.1284 353.562 75.1284 353.444V352.555C75.1284 352.437 75.1753 352.323 75.2587 352.24C75.342 352.157 75.4551 352.11 75.5731 352.11C75.691 352.11 75.8041 352.157 75.8875 352.24C75.9709 352.323 76.0177 352.437 76.0177 352.555Z" fill="#ED7100"/>
<g filter="url(#filter5_f_4251_3008)">
<rect x="194.86" y="412.544" width="24.7141" height="24.7141" rx="6.26091" fill="#B4C7ED"/>
</g>
<rect x="188.269" y="405.953" width="30.316" height="30.316" rx="6.26091" fill="white"/>
<g filter="url(#filter6_f_4251_3008)">
<rect x="67.0049" y="412.544" width="24.7141" height="24.7141" rx="6.26091" fill="#B4C7ED"/>
</g>
<rect x="60.4146" y="405.953" width="30.316" height="30.316" rx="6.26091" fill="white"/>
<path d="M208.667 422.553V422.903C208.678 423.072 208.651 423.241 208.589 423.399C208.527 423.558 208.431 423.703 208.308 423.826C208.184 423.949 208.035 424.047 207.869 424.113C207.703 424.18 207.525 424.215 207.345 424.215C207.164 424.215 206.986 424.18 206.82 424.113C206.655 424.047 206.506 423.949 206.382 423.826C206.258 423.703 206.162 423.558 206.1 423.399C206.038 423.241 206.012 423.072 206.022 422.903V422.569C206.012 422.4 206.038 422.231 206.1 422.073C206.162 421.914 206.258 421.769 206.382 421.646C206.506 421.523 206.655 421.425 206.82 421.358C206.986 421.292 207.164 421.257 207.345 421.257C207.525 421.257 207.703 421.292 207.869 421.358C208.035 421.425 208.184 421.523 208.308 421.646C208.431 421.769 208.527 421.914 208.589 422.073C208.651 422.231 208.678 422.4 208.667 422.569V422.553ZM200.858 422.553V422.903C200.869 423.072 200.842 423.241 200.78 423.399C200.718 423.558 200.623 423.703 200.499 423.826C200.375 423.949 200.226 424.047 200.06 424.113C199.894 424.18 199.716 424.215 199.536 424.215C199.355 424.215 199.177 424.18 199.012 424.113C198.846 424.047 198.697 423.949 198.573 423.826C198.449 423.703 198.353 423.558 198.291 423.399C198.23 423.241 198.203 423.072 198.213 422.903V422.569C198.203 422.4 198.23 422.231 198.291 422.073C198.353 421.914 198.449 421.769 198.573 421.646C198.697 421.523 198.846 421.425 199.012 421.358C199.177 421.292 199.355 421.257 199.536 421.257C199.716 421.257 199.894 421.292 200.06 421.358C200.226 421.425 200.375 421.523 200.499 421.646C200.623 421.769 200.718 421.914 200.78 422.073C200.842 422.231 200.869 422.4 200.858 422.569V422.553ZM204.765 416.751V417.101C204.765 417.43 204.625 417.746 204.377 417.979C204.129 418.212 203.792 418.342 203.44 418.342C203.089 418.342 202.752 418.212 202.503 417.979C202.255 417.746 202.115 417.43 202.115 417.101V416.751C202.115 416.422 202.255 416.106 202.503 415.873C202.752 415.64 203.089 415.509 203.44 415.509C203.792 415.509 204.129 415.64 204.377 415.873C204.625 416.106 204.765 416.422 204.765 416.751Z" fill="#ED7100"/>
<path d="M207.236 420.915C207.131 420.915 207.03 420.879 206.951 420.814C206.873 420.749 206.823 420.658 206.812 420.56C206.799 420.441 206.778 420.323 206.748 420.206C206.597 419.557 206.232 418.97 205.703 418.527C205.662 418.492 205.628 418.45 205.604 418.403C205.58 418.355 205.566 418.304 205.563 418.252C205.56 418.2 205.568 418.147 205.587 418.098C205.605 418.048 205.634 418.003 205.671 417.964C205.709 417.925 205.754 417.894 205.804 417.871C205.855 417.848 205.909 417.835 205.965 417.833C206.021 417.83 206.077 417.837 206.13 417.855C206.182 417.872 206.231 417.899 206.272 417.934C207.049 418.588 207.543 419.485 207.661 420.457C207.673 420.561 207.64 420.666 207.57 420.748C207.5 420.83 207.398 420.883 207.287 420.895L207.236 420.915ZM199.644 420.915H199.593C199.482 420.903 199.38 420.85 199.31 420.768C199.24 420.686 199.207 420.581 199.219 420.477C199.336 419.504 199.83 418.605 200.608 417.95C200.692 417.898 200.793 417.875 200.893 417.887C200.993 417.898 201.086 417.942 201.154 418.012C201.223 418.081 201.263 418.171 201.267 418.266C201.271 418.36 201.239 418.453 201.177 418.527C200.647 418.969 200.28 419.557 200.128 420.206C200.098 420.323 200.077 420.441 200.064 420.56C200.053 420.658 200.004 420.747 199.926 420.813C199.849 420.878 199.748 420.914 199.644 420.915Z" fill="#18181B"/>
<path d="M201.492 424.197C202.095 424.488 202.763 424.639 203.441 424.638C204.095 424.645 204.742 424.509 205.33 424.24C205.433 424.193 205.512 424.11 205.55 424.009C205.587 423.907 205.58 423.796 205.53 423.699C205.48 423.603 205.391 423.529 205.283 423.494C205.174 423.459 205.056 423.465 204.953 423.512C204.474 423.732 203.947 423.845 203.414 423.841C202.882 423.836 202.357 423.716 201.882 423.488C201.782 423.44 201.666 423.431 201.558 423.463C201.505 423.479 201.455 423.504 201.413 423.538C201.37 423.572 201.335 423.613 201.309 423.659C201.284 423.706 201.268 423.757 201.263 423.809C201.259 423.861 201.265 423.914 201.282 423.963C201.299 424.013 201.326 424.06 201.362 424.1C201.398 424.14 201.442 424.173 201.492 424.197Z" fill="#18181B"/>
<path d="M200.434 424.494H198.638C198.335 424.495 198.045 424.608 197.831 424.809C197.617 425.009 197.497 425.281 197.496 425.565V426.315C197.496 426.42 197.54 426.521 197.62 426.596C197.7 426.671 197.808 426.712 197.92 426.712H201.317V426.681C201.395 426.651 201.461 426.6 201.508 426.535C201.555 426.47 201.58 426.393 201.581 426.315V425.565C201.579 425.28 201.458 425.008 201.243 424.808C201.028 424.607 200.737 424.494 200.434 424.494ZM208.243 424.494H206.447C206.143 424.494 205.852 424.607 205.638 424.808C205.423 425.008 205.301 425.28 205.3 425.565V426.315C205.301 426.393 205.326 426.47 205.373 426.535C205.42 426.6 205.486 426.651 205.564 426.681V426.712H208.961C209.073 426.712 209.181 426.671 209.261 426.596C209.34 426.521 209.385 426.42 209.385 426.315V425.565C209.384 425.281 209.263 425.009 209.049 424.809C208.835 424.608 208.546 424.495 208.243 424.494ZM204.341 418.771H202.54C202.238 418.772 201.948 418.885 201.734 419.085C201.52 419.286 201.399 419.557 201.398 419.841V420.362C201.396 420.456 201.43 420.547 201.493 420.62C201.555 420.693 201.644 420.742 201.742 420.76H205.139C205.237 420.742 205.325 420.693 205.388 420.62C205.451 420.547 205.485 420.456 205.483 420.362V419.841C205.482 419.557 205.361 419.286 205.147 419.085C204.933 418.885 204.643 418.772 204.341 418.771Z" fill="#6762FE"/>
<g clip-path="url(#clip1_4251_3008)">
<path d="M137.467 460.558H131.629C131.43 460.558 131.239 460.478 131.098 460.336C130.957 460.194 130.877 460.001 130.877 459.8C130.877 459.6 130.957 459.407 131.098 459.265C131.239 459.123 131.43 459.043 131.629 459.043H137.467C138.53 459.043 139.549 458.617 140.301 457.859C141.053 457.101 141.475 456.074 141.475 455.002C141.475 454.801 141.555 454.608 141.696 454.466C141.837 454.324 142.028 454.244 142.227 454.244C142.426 454.244 142.618 454.324 142.759 454.466C142.899 454.608 142.979 454.801 142.979 455.002C142.979 456.475 142.398 457.889 141.364 458.931C140.331 459.973 138.929 460.558 137.467 460.558Z" fill="#FF5665"/>
<path d="M146.767 459.285L145.264 457.815C145.121 457.676 144.931 457.599 144.732 457.599C144.534 457.599 144.344 457.676 144.201 457.815C144.131 457.882 144.076 457.962 144.037 458.052C143.999 458.141 143.98 458.237 143.98 458.335C143.98 458.432 143.999 458.529 144.037 458.618C144.076 458.707 144.131 458.788 144.201 458.855L144.387 459.042H142.205C141.781 459.73 141.148 460.261 140.401 460.557H144.387L144.181 460.759C144.111 460.826 144.055 460.907 144.017 460.997C143.979 461.086 143.96 461.182 143.96 461.28C143.96 461.377 143.979 461.473 144.017 461.563C144.055 461.652 144.111 461.733 144.181 461.8C144.251 461.87 144.334 461.925 144.425 461.962C144.516 462 144.614 462.018 144.712 462.017C144.911 462.018 145.102 461.94 145.244 461.8L146.747 460.33C146.818 460.264 146.876 460.184 146.916 460.095C146.956 460.006 146.977 459.909 146.979 459.812C146.981 459.714 146.963 459.617 146.927 459.526C146.89 459.436 146.836 459.353 146.767 459.285Z" fill="#01A88D"/>
<path d="M136.084 450.112L137.587 448.637C137.731 448.499 137.922 448.421 138.121 448.421C138.32 448.421 138.511 448.499 138.655 448.637C138.723 448.705 138.778 448.786 138.815 448.875C138.853 448.965 138.872 449.061 138.872 449.158C138.872 449.255 138.853 449.351 138.815 449.44C138.778 449.529 138.723 449.61 138.655 449.678L138.464 449.865V450.602V451.38L138.675 451.582C138.743 451.65 138.798 451.731 138.835 451.82C138.873 451.91 138.892 452.006 138.892 452.103C138.892 452.2 138.873 452.295 138.835 452.385C138.798 452.474 138.743 452.555 138.675 452.623C138.531 452.763 138.339 452.841 138.138 452.84C137.94 452.841 137.749 452.763 137.607 452.623L136.104 451.153C136.033 451.087 135.975 451.008 135.935 450.919C135.896 450.83 135.874 450.734 135.872 450.637C135.87 450.54 135.888 450.443 135.925 450.353C135.961 450.263 136.015 450.181 136.084 450.112Z" fill="#FF5665"/>
<path d="M142.227 455.76C142.027 455.76 141.836 455.68 141.695 455.538C141.554 455.396 141.475 455.203 141.475 455.002C141.475 454.042 141.097 453.122 140.425 452.443C139.752 451.764 138.839 451.381 137.887 451.38C137.688 451.38 137.497 451.3 137.356 451.158C137.215 451.016 137.136 450.823 137.136 450.622C137.136 450.421 137.215 450.229 137.356 450.087C137.497 449.945 137.688 449.865 137.887 449.865C139.238 449.867 140.532 450.41 141.486 451.373C142.44 452.336 142.977 453.641 142.978 455.002C142.978 455.203 142.899 455.396 142.758 455.538C142.617 455.68 142.426 455.76 142.227 455.76Z" fill="#FF5665"/>
<path d="M134.49 458.305C134.303 458.299 134.125 458.226 133.989 458.098C133.593 457.685 133.285 457.195 133.083 456.659C132.881 456.122 132.788 455.55 132.811 454.976C132.811 453.667 133.324 452.41 134.239 451.481C134.379 451.338 134.57 451.256 134.77 451.255C134.97 451.253 135.162 451.332 135.304 451.473C135.446 451.615 135.527 451.807 135.528 452.009C135.53 452.21 135.452 452.403 135.311 452.547C134.672 453.191 134.312 454.065 134.309 454.976C134.29 455.344 134.343 455.712 134.466 456.059C134.589 456.406 134.779 456.725 135.026 456.997C135.166 457.14 135.244 457.334 135.244 457.535C135.244 457.736 135.166 457.929 135.026 458.073C134.884 458.218 134.692 458.301 134.49 458.305Z" fill="#ED7100"/>
</g>
<path d="M138.52 319.698C138.242 319.699 137.972 319.617 137.741 319.463C137.51 319.31 137.33 319.091 137.224 318.835C137.117 318.58 137.089 318.298 137.142 318.026C137.196 317.754 137.329 317.504 137.524 317.308C137.687 317.144 137.887 317.023 138.108 316.956C138.328 316.888 138.562 316.876 138.789 316.92C139.015 316.965 139.227 317.064 139.406 317.21C139.584 317.356 139.724 317.544 139.813 317.757C139.902 317.97 139.936 318.202 139.914 318.431C139.892 318.661 139.813 318.882 139.685 319.074C139.557 319.266 139.384 319.423 139.181 319.532C138.977 319.641 138.75 319.698 138.52 319.698Z" fill="#FF5665"/>
<path d="M138.529 323.895C137.534 323.899 136.555 323.637 135.694 323.136C134.833 322.636 134.121 321.915 133.632 321.047C133.143 320.18 132.894 319.198 132.91 318.202C132.927 317.207 133.209 316.234 133.727 315.383C134.246 314.533 134.981 313.836 135.858 313.365C136.736 312.894 137.723 312.665 138.718 312.702C139.713 312.739 140.68 313.041 141.519 313.577C142.359 314.113 143.04 314.863 143.493 315.749C143.55 315.86 143.561 315.989 143.523 316.107C143.485 316.226 143.401 316.325 143.29 316.381C143.18 316.438 143.051 316.449 142.932 316.411C142.814 316.373 142.715 316.289 142.658 316.179C142.182 315.245 141.406 314.498 140.455 314.06C139.503 313.621 138.431 313.516 137.412 313.76C136.393 314.005 135.486 314.585 134.838 315.408C134.189 316.231 133.836 317.249 133.836 318.297C133.836 319.344 134.189 320.362 134.838 321.185C135.486 322.008 136.393 322.588 137.412 322.833C138.431 323.078 139.503 322.972 140.455 322.533C141.406 322.095 142.182 321.348 142.658 320.415C142.715 320.304 142.814 320.22 142.932 320.182C143.051 320.144 143.18 320.155 143.29 320.212C143.401 320.269 143.485 320.367 143.523 320.486C143.561 320.604 143.55 320.733 143.493 320.844C143.026 321.759 142.315 322.528 141.44 323.066C140.564 323.604 139.557 323.891 138.529 323.895Z" fill="#FF5665"/>
<path d="M138.53 321.563C137.985 321.563 137.449 321.428 136.97 321.168C136.491 320.908 136.085 320.532 135.788 320.076C135.492 319.619 135.314 319.095 135.272 318.552C135.229 318.009 135.323 317.464 135.545 316.966C135.767 316.469 136.11 316.035 136.543 315.704C136.976 315.373 137.484 315.155 138.022 315.071C138.561 314.987 139.111 315.039 139.624 315.222C140.138 315.405 140.597 315.713 140.96 316.119C141.001 316.164 141.033 316.218 141.053 316.276C141.074 316.333 141.083 316.395 141.079 316.456C141.076 316.517 141.061 316.577 141.034 316.633C141.008 316.688 140.971 316.738 140.925 316.779C140.88 316.82 140.826 316.852 140.768 316.872C140.71 316.893 140.649 316.901 140.588 316.898C140.527 316.895 140.466 316.88 140.411 316.853C140.356 316.827 140.306 316.79 140.265 316.744C139.95 316.391 139.536 316.143 139.077 316.031C138.617 315.919 138.135 315.95 137.694 316.118C137.252 316.286 136.872 316.585 136.604 316.974C136.336 317.363 136.192 317.825 136.192 318.297C136.192 318.77 136.336 319.231 136.604 319.621C136.872 320.01 137.252 320.308 137.694 320.477C138.135 320.645 138.617 320.676 139.077 320.564C139.536 320.452 139.95 320.204 140.265 319.851C140.306 319.805 140.356 319.768 140.411 319.742C140.466 319.715 140.527 319.7 140.588 319.697C140.649 319.694 140.71 319.702 140.768 319.723C140.826 319.743 140.88 319.775 140.925 319.816C140.971 319.857 141.008 319.907 141.034 319.962C141.061 320.017 141.076 320.078 141.079 320.139C141.083 320.2 141.074 320.261 141.053 320.319C141.033 320.377 141.001 320.43 140.96 320.476C140.654 320.818 140.279 321.091 139.861 321.279C139.442 321.466 138.988 321.563 138.53 321.563Z" fill="#ED7100"/>
<path d="M143.195 318.764H138.53C138.406 318.764 138.287 318.715 138.2 318.627C138.112 318.54 138.063 318.421 138.063 318.298C138.063 318.174 138.112 318.055 138.2 317.968C138.287 317.88 138.406 317.831 138.53 317.831H143.195C143.319 317.831 143.437 317.88 143.525 317.968C143.612 318.055 143.661 318.174 143.661 318.298C143.661 318.421 143.612 318.54 143.525 318.627C143.437 318.715 143.319 318.764 143.195 318.764Z" fill="#18181B"/>
<path d="M144.142 319.734C144.082 319.734 144.022 319.722 143.965 319.698C143.909 319.675 143.858 319.64 143.815 319.597L142.871 318.65C142.828 318.606 142.793 318.553 142.77 318.496C142.746 318.438 142.734 318.377 142.734 318.314C142.734 318.252 142.746 318.19 142.77 318.132C142.793 318.075 142.828 318.023 142.871 317.979L143.816 317.034C143.858 316.99 143.909 316.954 143.965 316.93C144.022 316.906 144.082 316.894 144.143 316.894C144.204 316.894 144.264 316.906 144.32 316.93C144.376 316.954 144.427 316.99 144.47 317.034C144.556 317.122 144.604 317.242 144.604 317.367C144.604 317.492 144.556 317.611 144.47 317.7L143.848 318.314L144.47 318.93C144.533 318.997 144.576 319.081 144.593 319.172C144.61 319.263 144.601 319.357 144.566 319.443C144.531 319.529 144.472 319.602 144.397 319.654C144.322 319.705 144.233 319.733 144.142 319.734Z" fill="#18181B"/>
<path d="M199.786 355.89V354.822C199.786 354.307 200.204 353.889 200.719 353.889H203.427M203.427 353.889V351.888M203.427 353.889H206.134C206.65 353.889 207.068 354.307 207.068 354.822V355.89" stroke="#18181B" stroke-width="0.933645" stroke-linecap="round" stroke-linejoin="round"/>
<rect x="201" y="348.287" width="4.85495" height="2.80093" rx="0.933645" fill="#ED7100"/>
<rect x="197.358" y="356.689" width="4.85495" height="2.80093" rx="0.933645" fill="#E7157B"/>
<rect x="204.641" y="356.689" width="4.85495" height="2.80093" rx="0.933645" fill="#E7157B"/>
<path d="M77.1925 420.894C77.1938 421.032 77.1759 421.169 77.1395 421.302C77.0482 421.652 76.8437 421.961 76.5581 422.181C76.2724 422.402 75.9216 422.522 75.5606 422.522C75.1997 422.522 74.8489 422.402 74.5632 422.181C74.2775 421.961 74.073 421.652 73.9818 421.302C73.911 421.035 73.911 420.753 73.9818 420.486C74.073 420.136 74.2775 419.827 74.5632 419.607C74.8489 419.386 75.1997 419.266 75.5606 419.266C75.9216 419.266 76.2724 419.386 76.5581 419.607C76.8437 419.827 77.0482 420.136 77.1395 420.486C77.1759 420.619 77.1938 420.756 77.1925 420.894Z" fill="#ED7100"/>
<path d="M73.1127 416.812C73.1139 416.95 73.0961 417.087 73.0596 417.22C72.9603 417.605 72.7242 417.94 72.3955 418.163C72.0667 418.386 71.668 418.482 71.2739 418.432C70.8799 418.382 70.5177 418.19 70.2551 417.892C69.9925 417.593 69.8477 417.21 69.8477 416.812C69.8477 416.415 69.9925 416.031 70.2551 415.733C70.5177 415.435 70.8799 415.243 71.2739 415.193C71.668 415.143 72.0667 415.238 72.3955 415.461C72.7242 415.684 72.9603 416.019 73.0596 416.404C73.0961 416.537 73.1139 416.674 73.1127 416.812Z" fill="#FF5665"/>
<path d="M80.4565 418.854C80.4565 419.504 80.1986 420.127 79.7395 420.586C79.2805 421.045 78.6579 421.303 78.0086 421.303H77.1397C77.2104 421.036 77.2104 420.754 77.1397 420.487H78.0086C78.4415 420.487 78.8565 420.315 79.1626 420.009C79.4686 419.702 79.6406 419.287 79.6406 418.854C79.6406 418.421 79.4686 418.006 79.1626 417.7C78.8565 417.394 78.4415 417.222 78.0086 417.222H73.0599C73.0963 417.089 73.1142 416.951 73.1129 416.813C73.1142 416.676 73.0963 416.538 73.0599 416.405H78.0086C78.6579 416.405 79.2805 416.663 79.7395 417.123C80.1986 417.582 80.4565 418.205 80.4565 418.854ZM76.3452 425.11V425.11C76.3432 425.331 76.166 425.51 75.945 425.51H73.2384C72.5892 425.51 71.9666 425.252 71.5075 424.793C71.0484 424.333 70.7905 423.711 70.7905 423.061C70.7905 422.412 70.923 421.663 71.382 421.204C71.8411 420.745 72.4637 420.487 73.1129 420.487H73.9819C73.9112 420.754 73.9112 421.036 73.9819 421.303H73.1129C72.6801 421.303 72.265 421.475 71.959 421.781C71.653 422.087 71.6065 422.628 71.6065 423.061C71.6065 423.494 71.7784 423.909 72.0845 424.215C72.3905 424.522 72.8056 424.694 73.2384 424.694H75.9291C76.1589 424.694 76.3452 424.88 76.3452 425.11V425.11Z" fill="#18181B"/>
<path d="M78.8836 423.281C79.1461 423.024 79.5714 423.024 79.8338 423.281L81.1777 424.6C81.4402 424.857 81.4402 425.274 81.1777 425.531L79.8338 426.85C79.7026 426.978 79.5307 427.043 79.3587 427.043C79.1868 427.043 79.0149 426.978 78.8836 426.85C78.6212 426.592 78.6212 426.175 78.8836 425.918L79.0805 425.725H77.5379C77.174 425.725 76.8789 425.43 76.8789 425.066C76.879 424.702 77.174 424.406 77.5381 424.406H79.0805L78.8836 424.213C78.6212 423.956 78.6212 423.539 78.8836 423.281Z" fill="#01A88D"/>
<path d="M141.628 383.025C138.799 382.447 136.588 380.293 135.995 377.536C135.959 377.372 135.867 377.225 135.733 377.119C135.6 377.013 135.433 376.956 135.26 376.956C135.088 376.956 134.921 377.013 134.788 377.119C134.654 377.225 134.562 377.372 134.526 377.536C133.933 380.293 131.722 382.447 128.892 383.024C128.724 383.059 128.573 383.149 128.464 383.279C128.356 383.409 128.296 383.572 128.296 383.74C128.296 383.907 128.356 384.07 128.464 384.2C128.573 384.33 128.724 384.42 128.892 384.455C131.722 385.033 133.933 387.187 134.526 389.943C134.561 390.107 134.654 390.255 134.787 390.36C134.921 390.466 135.088 390.524 135.26 390.524C135.433 390.524 135.599 390.466 135.733 390.36C135.867 390.255 135.959 390.107 135.994 389.943C136.588 387.187 138.799 385.033 141.628 384.455C141.797 384.42 141.948 384.331 142.057 384.2C142.165 384.07 142.225 383.908 142.225 383.74C142.225 383.572 142.165 383.409 142.057 383.279C141.948 383.149 141.797 383.059 141.628 383.025ZM141.81 395.096C140.477 394.823 139.436 393.808 139.156 392.51C139.121 392.346 139.028 392.198 138.895 392.092C138.761 391.987 138.594 391.929 138.422 391.929C138.25 391.929 138.083 391.987 137.949 392.092C137.815 392.198 137.723 392.346 137.688 392.51C137.408 393.808 136.366 394.823 135.033 395.096C134.865 395.13 134.714 395.22 134.605 395.35C134.496 395.48 134.437 395.643 134.437 395.811C134.437 395.978 134.496 396.141 134.605 396.271C134.714 396.402 134.865 396.491 135.033 396.526C136.366 396.798 137.408 397.813 137.688 399.112C137.723 399.276 137.815 399.423 137.949 399.529C138.083 399.635 138.25 399.693 138.422 399.693C138.594 399.693 138.761 399.635 138.895 399.529C139.028 399.423 139.121 399.276 139.156 399.112C139.435 397.813 140.477 396.798 141.81 396.526C141.979 396.491 142.13 396.402 142.239 396.271C142.347 396.141 142.407 395.979 142.407 395.811C142.407 395.643 142.347 395.48 142.239 395.35C142.13 395.22 141.979 395.13 141.81 395.096ZM150.108 388.33C148.306 387.962 146.898 386.59 146.52 384.835C146.485 384.671 146.392 384.523 146.259 384.418C146.125 384.312 145.958 384.254 145.786 384.254C145.614 384.254 145.447 384.312 145.313 384.418C145.179 384.523 145.087 384.671 145.052 384.835C144.674 386.59 143.266 387.962 141.464 388.33C141.295 388.364 141.144 388.454 141.035 388.585C140.927 388.715 140.868 388.877 140.868 389.045C140.868 389.213 140.927 389.375 141.035 389.506C141.144 389.636 141.295 389.726 141.464 389.76C143.265 390.128 144.674 391.5 145.051 393.255C145.087 393.42 145.179 393.567 145.313 393.673C145.446 393.778 145.613 393.836 145.786 393.836C145.958 393.836 146.125 393.778 146.258 393.673C146.392 393.567 146.484 393.42 146.52 393.255C146.898 391.5 148.306 390.128 150.108 389.76C150.276 389.726 150.427 389.636 150.536 389.506C150.645 389.376 150.704 389.213 150.704 389.045C150.704 388.877 150.645 388.715 150.536 388.585C150.428 388.454 150.276 388.364 150.108 388.33Z" fill="#6762FE"/>
</g>
<defs>
<filter id="filter0_f_4251_3008" x="93.3671" y="341.367" width="92.2663" height="92.2663" filterUnits="userSpaceOnUse" color-interpolation-filters="sRGB">
<feFlood flood-opacity="0" result="BackgroundImageFix"/>
<feBlend mode="normal" in="SourceGraphic" in2="BackgroundImageFix" result="shape"/>
<feGaussianBlur stdDeviation="9.22661" result="effect1_foregroundBlur_4251_3008"/>
</filter>
<filter id="filter1_f_4251_3008" x="111.82" y="291.28" width="61.6208" height="61.6208" filterUnits="userSpaceOnUse" color-interpolation-filters="sRGB">
<feFlood flood-opacity="0" result="BackgroundImageFix"/>
<feBlend mode="normal" in="SourceGraphic" in2="BackgroundImageFix" result="shape"/>
<feGaussianBlur stdDeviation="9.22661" result="effect1_foregroundBlur_4251_3008"/>
</filter>
<filter id="filter2_f_4251_3008" x="111.82" y="428.361" width="61.6208" height="61.6208" filterUnits="userSpaceOnUse" color-interpolation-filters="sRGB">
<feFlood flood-opacity="0" result="BackgroundImageFix"/>
<feBlend mode="normal" in="SourceGraphic" in2="BackgroundImageFix" result="shape"/>
<feGaussianBlur stdDeviation="9.22661" result="effect1_foregroundBlur_4251_3008"/>
</filter>
<filter id="filter3_f_4251_3008" x="176.407" y="326.868" width="61.6208" height="61.6208" filterUnits="userSpaceOnUse" color-interpolation-filters="sRGB">
<feFlood flood-opacity="0" result="BackgroundImageFix"/>
<feBlend mode="normal" in="SourceGraphic" in2="BackgroundImageFix" result="shape"/>
<feGaussianBlur stdDeviation="9.22661" result="effect1_foregroundBlur_4251_3008"/>
</filter>
<filter id="filter4_f_4251_3008" x="48.5517" y="326.868" width="61.6208" height="61.6208" filterUnits="userSpaceOnUse" color-interpolation-filters="sRGB">
<feFlood flood-opacity="0" result="BackgroundImageFix"/>
<feBlend mode="normal" in="SourceGraphic" in2="BackgroundImageFix" result="shape"/>
<feGaussianBlur stdDeviation="9.22661" result="effect1_foregroundBlur_4251_3008"/>
</filter>
<filter id="filter5_f_4251_3008" x="176.407" y="394.091" width="61.6208" height="61.6208" filterUnits="userSpaceOnUse" color-interpolation-filters="sRGB">
<feFlood flood-opacity="0" result="BackgroundImageFix"/>
<feBlend mode="normal" in="SourceGraphic" in2="BackgroundImageFix" result="shape"/>
<feGaussianBlur stdDeviation="9.22661" result="effect1_foregroundBlur_4251_3008"/>
</filter>
<filter id="filter6_f_4251_3008" x="48.5517" y="394.091" width="61.6208" height="61.6208" filterUnits="userSpaceOnUse" color-interpolation-filters="sRGB">
<feFlood flood-opacity="0" result="BackgroundImageFix"/>
<feBlend mode="normal" in="SourceGraphic" in2="BackgroundImageFix" result="shape"/>
<feGaussianBlur stdDeviation="9.22661" result="effect1_foregroundBlur_4251_3008"/>
</filter>
<linearGradient id="paint0_linear_4251_3008" x1="70.6299" y1="387.5" x2="219.903" y2="387.5" gradientUnits="userSpaceOnUse">
<stop stop-color="#6762FE"/>
<stop offset="1" stop-color="#0055FF" stop-opacity="0.05"/>
</linearGradient>
<linearGradient id="paint1_linear_4251_3008" x1="258.787" y1="387.5" x2="20.2128" y2="387.5" gradientUnits="userSpaceOnUse">
<stop stop-color="#6762FE" stop-opacity="0.5"/>
<stop offset="1" stop-color="#CCD0FE" stop-opacity="0.7"/>
</linearGradient>
<linearGradient id="paint2_linear_4251_3008" x1="-19" y1="387.5" x2="298" y2="387.5" gradientUnits="userSpaceOnUse">
<stop stop-color="#6762FE" stop-opacity="0.5"/>
<stop offset="1" stop-color="#CCD0FE" stop-opacity="0.7"/>
</linearGradient>
<clipPath id="clip0_4251_3008">
<rect width="280" height="512" rx="11" fill="white"/>
</clipPath>
<clipPath id="clip1_4251_3008">
<rect width="16.11" height="13.5928" fill="white" transform="translate(130.877 448.424)"/>
</clipPath>
</defs>
</svg>
