<svg width="280" height="512" viewBox="0 0 280 512" fill="none" xmlns="http://www.w3.org/2000/svg">
<g clip-path="url(#clip0_4251_3008)">
<rect width="280" height="512" rx="11" fill="#F9FAFC"/>
<path fill-rule="evenodd" clip-rule="evenodd" d="M140 338.999C128.646 338.999 118.247 342.916 110.023 349.506C108.287 350.897 105.748 350.844 104.217 349.229L77.4312 320.968C75.9008 319.353 75.9636 316.797 77.6415 315.336C94.3124 300.822 116.149 292.004 140 292.004C192.465 292.004 234.995 334.535 234.995 387C234.995 439.464 192.465 481.995 140 481.995C116.149 481.995 94.3124 473.177 77.6415 458.663C75.9636 457.203 75.9008 454.646 77.4312 453.031L104.217 424.77C105.748 423.156 108.287 423.102 110.023 424.493C118.247 431.083 128.646 435.001 140 435.001C166.51 435.001 188.001 413.51 188.001 387C188.001 360.489 166.51 338.999 140 338.999Z" fill="#DCE7FD" fill-opacity="0.3"/>
<circle cx="139.665" cy="387" r="69.3163" stroke="url(#paint0_linear_4251_3008)" stroke-opacity="0.5" stroke-width="1.00702" stroke-dasharray="5.04 5.04"/>
<path d="M32.3828 393.687C32.2925 392.211 32.2319 390.727 32.2015 389.236L32.6482 389.227C32.6332 388.487 32.6256 387.744 32.6256 387C32.6256 386.256 32.6332 385.514 32.6482 384.773L32.2015 384.764C32.2319 383.273 32.2925 381.789 32.3828 380.313L32.8287 380.34C32.9194 378.859 33.0401 377.385 33.1902 375.92L32.7458 375.875C32.898 374.39 33.0803 372.914 33.2921 371.448L33.7343 371.512C33.9466 370.042 34.1888 368.582 34.4601 367.132L34.0209 367.049C34.295 365.584 34.5987 364.13 34.9314 362.686L35.3668 362.786C35.7 361.341 36.0623 359.906 36.4532 358.484L36.0224 358.365C36.4169 356.93 36.8404 355.506 37.2922 354.095L37.7177 354.231C38.1696 352.819 38.65 351.42 39.1581 350.034L38.7386 349.88C39.2513 348.482 39.7921 347.098 40.3604 345.727L40.7731 345.898C41.3409 344.529 41.9363 343.174 42.5585 341.834L42.1533 341.646C42.7799 340.296 43.4337 338.962 44.1139 337.643L44.5109 337.848C45.19 336.531 45.8955 335.23 46.6268 333.946L46.2386 333.725C46.9745 332.433 47.7364 331.157 48.5235 329.898L48.9022 330.135C49.6875 328.88 50.4981 327.642 51.3331 326.422L50.9645 326.17C51.8043 324.943 52.6688 323.734 53.5573 322.545L53.9152 322.812C54.8012 321.626 55.7111 320.458 56.6442 319.311L56.2975 319.029C57.2352 317.876 58.1962 316.742 59.1799 315.629L59.5147 315.925C60.4947 314.816 61.4973 313.727 62.5218 312.66L62.1994 312.351C63.2283 311.279 64.2791 310.228 65.351 309.199L65.6604 309.521C66.7278 308.497 67.8164 307.494 68.9253 306.514L68.6295 306.179C69.7425 305.196 70.8761 304.235 72.0293 303.297L72.3112 303.644C73.4589 302.711 74.6262 301.801 75.8125 300.915L75.5452 300.557C76.7348 299.668 77.9434 298.804 79.1702 297.964L79.4226 298.333C80.6425 297.498 81.8805 296.687 83.1359 295.902L82.899 295.523C84.1573 294.736 85.433 293.974 86.7254 293.238L86.9465 293.626C88.2307 292.895 89.5315 292.19 90.8481 291.51L90.6433 291.113C91.962 290.433 93.2965 289.779 94.6462 289.153L94.8343 289.558C96.1744 288.936 97.5295 288.34 98.8988 287.773L98.7277 287.36C100.098 286.792 101.483 286.251 102.881 285.738L103.035 286.158C104.42 285.649 105.819 285.169 107.231 284.717L107.095 284.292C108.506 283.84 109.93 283.416 111.366 283.022L111.484 283.453C112.907 283.062 114.341 282.699 115.787 282.366L115.687 281.931C117.13 281.598 118.585 281.295 120.05 281.02L120.132 281.46C121.582 281.188 123.043 280.946 124.513 280.734L124.449 280.292C125.915 280.08 127.391 279.897 128.875 279.745L128.921 280.19C130.386 280.04 131.859 279.919 133.341 279.828L133.314 279.382C134.789 279.292 136.273 279.231 137.764 279.201L137.773 279.648C138.514 279.633 139.256 279.625 140.001 279.625C140.745 279.625 141.487 279.633 142.228 279.648L142.237 279.201C143.728 279.231 145.212 279.292 146.687 279.382L146.66 279.828C148.142 279.919 149.615 280.04 151.08 280.19L151.126 279.745C152.61 279.897 154.086 280.08 155.552 280.292L155.488 280.734C156.959 280.946 158.419 281.188 159.869 281.46L159.951 281.02C161.416 281.295 162.871 281.598 164.314 281.931L164.214 282.366C165.66 282.699 167.094 283.062 168.517 283.453L168.635 283.022C170.071 283.416 171.495 283.84 172.906 284.292L172.77 284.717C174.182 285.169 175.581 285.649 176.966 286.158L177.12 285.738C178.518 286.251 179.903 286.792 181.273 287.36L181.102 287.773C182.472 288.34 183.827 288.936 185.167 289.558L185.355 289.153C186.705 289.779 188.039 290.433 189.358 291.113L189.153 291.51C190.47 292.19 191.77 292.895 193.055 293.626L193.276 293.238C194.568 293.974 195.844 294.736 197.102 295.523L196.865 295.902C198.121 296.687 199.359 297.498 200.578 298.333L200.831 297.964C202.058 298.804 203.266 299.668 204.456 300.557L204.189 300.915C205.375 301.801 206.542 302.711 207.69 303.644L207.972 303.297C209.125 304.235 210.259 305.196 211.372 306.179L211.076 306.514C212.185 307.494 213.273 308.497 214.341 309.521L214.65 309.199C215.722 310.228 216.773 311.279 217.802 312.351L217.479 312.66C218.504 313.727 219.506 314.816 220.486 315.925L220.821 315.629C221.805 316.742 222.766 317.876 223.704 319.029L223.357 319.311C224.29 320.458 225.2 321.626 226.086 322.812L226.444 322.545C227.332 323.734 228.197 324.943 229.037 326.17L228.668 326.422C229.503 327.642 230.314 328.88 231.099 330.135L231.478 329.898C232.265 331.157 233.027 332.432 233.763 333.725L233.374 333.946C234.106 335.23 234.811 336.531 235.49 337.848L235.887 337.643C236.567 338.961 237.221 340.296 237.848 341.646L237.443 341.834C238.065 343.174 238.66 344.529 239.228 345.898L239.641 345.727C240.209 347.098 240.75 348.482 241.262 349.88L240.843 350.034C241.351 351.42 241.831 352.819 242.283 354.231L242.709 354.095C243.161 355.506 243.584 356.93 243.979 358.365L243.548 358.484C243.939 359.906 244.301 361.341 244.634 362.786L245.07 362.686C245.402 364.13 245.706 365.584 245.98 367.049L245.541 367.131C245.812 368.582 246.054 370.042 246.267 371.512L246.709 371.448C246.921 372.914 247.103 374.39 247.255 375.875L246.811 375.92C246.961 377.385 247.082 378.859 247.172 380.34L247.618 380.313C247.709 381.789 247.769 383.273 247.8 384.764L247.353 384.773C247.368 385.513 247.375 386.256 247.375 387C247.375 387.744 247.368 388.487 247.353 389.227L247.8 389.236C247.769 390.727 247.709 392.211 247.618 393.687L247.172 393.66C247.082 395.141 246.961 396.615 246.811 398.08L247.255 398.125C247.103 399.61 246.921 401.086 246.709 402.552L246.267 402.488C246.054 403.958 245.812 405.418 245.541 406.869L245.98 406.951C245.706 408.416 245.402 409.87 245.07 411.314L244.634 411.214C244.301 412.659 243.939 414.094 243.548 415.516L243.979 415.635C243.584 417.07 243.161 418.494 242.709 419.906L242.283 419.769C241.831 421.181 241.351 422.58 240.843 423.966L241.262 424.12C240.75 425.518 240.209 426.903 239.641 428.273L239.228 428.102C238.66 429.471 238.065 430.826 237.443 432.166L237.848 432.354C237.221 433.704 236.567 435.039 235.887 436.357L235.49 436.152C234.811 437.469 234.106 438.77 233.374 440.054L233.763 440.275C233.027 441.568 232.265 442.843 231.478 444.102L231.099 443.865C230.314 445.12 229.503 446.358 228.668 447.578L229.037 447.83C228.197 449.057 227.332 450.266 226.444 451.455L226.086 451.188C225.2 452.374 224.29 453.542 223.357 454.689L223.704 454.971C222.766 456.125 221.805 457.258 220.821 458.371L220.486 458.075C219.506 459.184 218.504 460.273 217.479 461.34L217.802 461.65C216.773 462.722 215.722 463.772 214.65 464.801L214.341 464.479C213.273 465.503 212.185 466.506 211.076 467.486L211.372 467.821C210.259 468.804 209.125 469.765 207.972 470.703L207.69 470.356C206.542 471.29 205.375 472.199 204.189 473.085L204.456 473.443C203.266 474.332 202.058 475.196 200.831 476.036L200.578 475.667C199.359 476.502 198.121 477.313 196.865 478.098L197.102 478.477C195.844 479.264 194.568 480.026 193.276 480.762L193.055 480.374C191.77 481.105 190.47 481.811 189.153 482.49L189.358 482.887C188.039 483.567 186.705 484.221 185.355 484.847L185.167 484.442C183.827 485.064 182.472 485.66 181.102 486.228L181.273 486.64C179.903 487.208 178.518 487.749 177.12 488.262L176.966 487.843C175.581 488.351 174.182 488.831 172.77 489.283L172.906 489.708C171.495 490.16 170.071 490.584 168.635 490.978L168.517 490.547C167.094 490.938 165.66 491.301 164.214 491.634L164.314 492.069C162.871 492.402 161.416 492.706 159.951 492.98L159.869 492.541C158.419 492.812 156.959 493.054 155.489 493.266L155.552 493.708C154.086 493.92 152.61 494.103 151.126 494.255L151.08 493.81C149.615 493.96 148.142 494.081 146.66 494.172L146.687 494.618C145.212 494.708 143.728 494.769 142.237 494.799L142.228 494.352C141.487 494.367 140.745 494.375 140.001 494.375C139.256 494.375 138.514 494.367 137.773 494.352L137.764 494.799C136.273 494.769 134.789 494.708 133.314 494.618L133.341 494.172C131.859 494.081 130.386 493.961 128.921 493.81L128.875 494.255C127.391 494.103 125.915 493.92 124.449 493.708L124.513 493.266C123.043 493.054 121.582 492.812 120.132 492.541L120.05 492.98C118.585 492.706 117.13 492.402 115.687 492.069L115.787 491.634C114.341 491.301 112.907 490.938 111.484 490.547L111.366 490.978C109.93 490.584 108.506 490.16 107.095 489.708L107.231 489.283C105.819 488.831 104.42 488.351 103.035 487.843L102.881 488.262C101.483 487.749 100.098 487.208 98.7277 486.64L98.8988 486.228C97.5295 485.66 96.1744 485.064 94.8343 484.442L94.6462 484.847C93.2965 484.221 91.962 483.567 90.6433 482.887L90.8481 482.49C89.5315 481.811 88.2307 481.105 86.9465 480.374L86.7254 480.762C85.433 480.026 84.1573 479.264 82.899 478.477L83.1359 478.098C81.8805 477.313 80.6425 476.503 79.4226 475.667L79.1702 476.036C77.9434 475.196 76.7348 474.332 75.5452 473.443L75.8125 473.085C74.6262 472.199 73.4589 471.29 72.3112 470.356L72.0294 470.703C70.8761 469.765 69.7425 468.804 68.6295 467.821L68.9253 467.486C67.8164 466.506 66.7278 465.503 65.6604 464.479L65.351 464.801C64.2791 463.772 63.2283 462.722 62.1995 461.65L62.5218 461.34C61.4973 460.273 60.4947 459.184 59.5147 458.075L59.1799 458.371C58.1963 457.258 57.2352 456.125 56.2976 454.971L56.6442 454.689C55.7111 453.542 54.8012 452.374 53.9152 451.188L53.5573 451.455C52.6688 450.266 51.8043 449.057 50.9645 447.83L51.3331 447.578C50.4981 446.358 49.6876 445.12 48.9022 443.865L48.5235 444.102C47.7364 442.843 46.9745 441.568 46.2386 440.275L46.6268 440.054C45.8955 438.77 45.19 437.469 44.5109 436.153L44.1139 436.357C43.4337 435.039 42.7799 433.704 42.1533 432.354L42.5585 432.166C41.9363 430.826 41.3409 429.471 40.7731 428.102L40.3604 428.273C39.7921 426.903 39.2513 425.518 38.7386 424.12L39.1581 423.966C38.65 422.58 38.1696 421.181 37.7177 419.769L37.2922 419.906C36.8404 418.494 36.4169 417.07 36.0224 415.635L36.4532 415.516C36.0623 414.094 35.7 412.659 35.3668 411.214L34.9315 411.314C34.5987 409.87 34.295 408.416 34.0209 406.951L34.4601 406.869C34.1888 405.418 33.9466 403.958 33.7343 402.488L33.2921 402.552C33.0803 401.086 32.898 399.61 32.7458 398.125L33.1903 398.08C33.0401 396.615 32.9194 395.141 32.8287 393.66L32.3828 393.687Z" stroke="url(#paint1_linear_4251_3008)" stroke-opacity="0.5" stroke-width="0.89355" stroke-dasharray="4.47 4.47"/>
<circle cx="140" cy="387" r="124.61" transform="rotate(180 140 387)" stroke="url(#paint2_linear_4251_3008)" stroke-opacity="0.5" stroke-width="0.779626" stroke-dasharray="3.9 3.9"/>
<g opacity="0.2" filter="url(#filter0_f_4251_3008)">
<circle cx="140.001" cy="387" r="28.1965" fill="#B4C7ED"/>
</g>
<circle cx="140.001" cy="387" r="28.1965" fill="white"/>
<circle cx="140.001" cy="387" r="28.1965" fill="white"/>
<g filter="url(#filter1_f_4251_3008)">
<rect x="130.602" y="307.781" width="25.1754" height="25.1754" rx="6.37778" fill="#B4C7ED"/>
</g>
<rect x="123.889" y="301.067" width="30.8819" height="30.8819" rx="6.37778" fill="white"/>
<g filter="url(#filter2_f_4251_3008)">
<rect x="130.602" y="447.421" width="25.1754" height="25.1754" rx="6.37778" fill="#B4C7ED"/>
</g>
<rect x="123.889" y="440.708" width="30.8819" height="30.8819" rx="6.37778" fill="white"/>
<g filter="url(#filter3_f_4251_3008)">
<rect x="196.394" y="344.034" width="25.1754" height="25.1754" rx="6.37778" fill="#B4C7ED"/>
</g>
<rect x="189.68" y="337.32" width="30.8819" height="30.8819" rx="6.37778" fill="white"/>
<g filter="url(#filter4_f_4251_3008)">
<rect x="66.1523" y="344.034" width="25.1754" height="25.1754" rx="6.37778" fill="#B4C7ED"/>
</g>
<rect x="59.439" y="337.32" width="30.8819" height="30.8819" rx="6.37778" fill="white"/>
<g clip-path="url(#clip1_4251_3008)">
<path d="M72.2118 360.188C71.8451 360.188 71.4988 360.025 71.2646 359.73L67.6999 355.299C67.4657 355.004 67.374 354.627 67.4657 354.261L68.7388 348.73C68.8203 348.364 69.0647 348.068 69.4008 347.905L74.5542 345.441C74.7172 345.359 74.9005 345.318 75.0838 345.318C75.2672 345.318 75.4505 345.359 75.6135 345.441L80.7669 347.895C81.103 348.058 81.3474 348.353 81.4289 348.72L82.702 354.25C82.7835 354.617 82.702 354.994 82.4677 355.289L78.9031 359.72C78.6689 360.005 78.3226 360.178 77.9559 360.178L72.2118 360.188Z" fill="#326DE6"/>
<path d="M75.074 345.573C75.2166 345.573 75.3592 345.603 75.4916 345.665L80.645 348.119C80.9098 348.251 81.1135 348.496 81.1746 348.781L82.4477 354.311C82.519 354.607 82.4477 354.912 82.2542 355.147L78.6896 359.577C78.5063 359.811 78.2211 359.944 77.9257 359.944H72.2121C71.9168 359.944 71.6316 359.811 71.4483 359.577L67.8836 355.147C67.7003 354.912 67.629 354.607 67.6901 354.311L68.9632 348.781C69.0345 348.486 69.228 348.241 69.4928 348.119L74.6463 345.654C74.7787 345.603 74.9314 345.573 75.074 345.573ZM75.074 345.094C74.8601 345.094 74.6463 345.145 74.4426 345.237L69.2891 347.702C68.8817 347.895 68.5966 348.251 68.4947 348.689L67.2216 354.22C67.1198 354.658 67.2216 355.106 67.5068 355.462L71.0714 359.893C71.3464 360.239 71.764 360.432 72.2019 360.432H77.9155C78.3535 360.432 78.7711 360.239 79.046 359.893L82.6107 355.462C82.8959 355.116 82.9977 354.658 82.8959 354.22L81.6228 348.689C81.5209 348.251 81.2358 347.895 80.8284 347.702L75.6953 345.237C75.5018 345.145 75.2879 345.094 75.074 345.094Z" fill="white"/>
<path d="M80.235 354.039C80.2249 354.039 80.2249 354.039 80.235 354.039H80.2249C80.2147 354.039 80.2045 354.039 80.2045 354.029C80.1841 354.029 80.1638 354.019 80.1434 354.019C80.0721 354.009 80.011 353.999 79.9499 353.999C79.9193 353.999 79.8888 353.999 79.848 353.988H79.8378C79.624 353.968 79.4508 353.948 79.2879 353.897C79.2166 353.866 79.1962 353.825 79.1758 353.785C79.1758 353.775 79.1657 353.775 79.1657 353.764L79.0333 353.724C79.0944 353.255 79.074 352.766 78.962 352.288C78.8499 351.809 78.6564 351.361 78.3916 350.953L78.4935 350.862V350.841C78.4935 350.79 78.5037 350.739 78.5444 350.689C78.6666 350.577 78.8194 350.485 79.0027 350.373C79.0333 350.352 79.0638 350.342 79.0944 350.322C79.1555 350.291 79.2064 350.261 79.2675 350.22C79.2777 350.21 79.2981 350.2 79.3184 350.179C79.3286 350.169 79.3388 350.169 79.3388 350.159C79.4814 350.037 79.5119 349.833 79.4101 349.701C79.3592 349.629 79.2675 349.589 79.1758 349.589C79.0944 349.589 79.0231 349.619 78.9518 349.67C78.9416 349.68 78.9416 349.68 78.9314 349.69C78.911 349.701 78.9009 349.721 78.8805 349.731C78.8296 349.782 78.7888 349.823 78.7481 349.874C78.7277 349.894 78.7073 349.925 78.6768 349.945C78.5342 350.098 78.4018 350.22 78.2694 350.312C78.2388 350.332 78.2083 350.342 78.1777 350.342C78.1574 350.342 78.137 350.342 78.1166 350.332H78.0963L77.974 350.414C77.8416 350.271 77.6991 350.149 77.5565 350.027C76.9454 349.548 76.2019 349.253 75.4279 349.181L75.4177 349.049C75.4075 349.039 75.4075 349.039 75.3973 349.028C75.3668 348.998 75.326 348.967 75.3158 348.896C75.3057 348.733 75.326 348.55 75.3464 348.346V348.336C75.3464 348.305 75.3566 348.265 75.3668 348.234C75.377 348.173 75.3871 348.112 75.3973 348.041V347.979V347.949C75.3973 347.766 75.2547 347.613 75.0816 347.613C75.0001 347.613 74.9186 347.654 74.8575 347.715C74.7964 347.776 74.7659 347.857 74.7659 347.949V347.969V348.03C74.7659 348.102 74.7761 348.163 74.7964 348.224C74.8066 348.254 74.8066 348.285 74.8168 348.326V348.336C74.8372 348.54 74.8677 348.723 74.8473 348.886C74.8372 348.957 74.7964 348.988 74.7659 349.018C74.7557 349.028 74.7557 349.028 74.7455 349.039L74.7353 349.171C74.552 349.191 74.3687 349.212 74.1853 349.253C73.4011 349.426 72.7086 349.823 72.1688 350.393L72.0669 350.322H72.0466C72.0262 350.322 72.0058 350.332 71.9855 350.332C71.9549 350.332 71.9243 350.322 71.8938 350.302C71.7614 350.21 71.629 350.077 71.4864 349.925C71.466 349.904 71.4457 349.874 71.4151 349.853C71.3744 349.803 71.3336 349.762 71.2827 349.711C71.2725 349.701 71.2522 349.69 71.2318 349.67C71.2216 349.66 71.2114 349.66 71.2114 349.65C71.1503 349.599 71.0688 349.568 70.9874 349.568C70.8957 349.568 70.804 349.609 70.7531 349.68C70.6513 349.813 70.6818 350.016 70.8244 350.139C70.8346 350.139 70.8346 350.149 70.8448 350.149C70.8651 350.159 70.8753 350.179 70.8957 350.19C70.9568 350.23 71.0077 350.261 71.0688 350.291C71.0994 350.302 71.1299 350.322 71.1605 350.342C71.3438 350.454 71.4966 350.546 71.6188 350.658C71.6697 350.709 71.6697 350.76 71.6697 350.811V350.831L71.7716 350.923C71.7512 350.953 71.7308 350.974 71.7206 351.004C71.2114 351.809 71.0179 352.756 71.1503 353.693L71.0179 353.734C71.0179 353.744 71.0077 353.744 71.0077 353.754C70.9874 353.795 70.9568 353.836 70.8957 353.866C70.7429 353.917 70.5596 353.937 70.3457 353.958H70.3355C70.305 353.958 70.2642 353.958 70.2337 353.968C70.1726 353.968 70.1115 353.978 70.0402 353.988C70.0198 353.988 69.9994 353.999 69.9791 353.999C69.9689 353.999 69.9587 353.999 69.9485 354.009C69.7652 354.05 69.6532 354.223 69.6837 354.386C69.7143 354.528 69.8467 354.62 70.0096 354.62C70.0402 354.62 70.0605 354.62 70.0911 354.61C70.1013 354.61 70.1115 354.61 70.1115 354.599C70.1318 354.599 70.1522 354.589 70.1726 354.589C70.2439 354.569 70.2948 354.549 70.3559 354.518C70.3865 354.508 70.417 354.487 70.4476 354.477H70.4577C70.6513 354.406 70.8244 354.345 70.9874 354.325H71.0077C71.0688 354.325 71.1096 354.355 71.1401 354.375C71.1503 354.375 71.1503 354.386 71.1605 354.386L71.3031 354.365C71.5475 355.119 72.016 355.791 72.6373 356.28C72.7799 356.392 72.9224 356.484 73.0752 356.575L73.0141 356.708C73.0141 356.718 73.0243 356.718 73.0243 356.728C73.0447 356.769 73.065 356.82 73.0447 356.891C72.9836 357.044 72.8919 357.197 72.7799 357.37V357.38C72.7595 357.41 72.7391 357.431 72.7187 357.461C72.678 357.512 72.6475 357.563 72.6067 357.624C72.5965 357.635 72.5863 357.655 72.5762 357.675C72.5762 357.685 72.566 357.696 72.566 357.696C72.4845 357.869 72.5456 358.062 72.6984 358.134C72.7391 358.154 72.7799 358.164 72.8206 358.164C72.9428 358.164 73.065 358.083 73.1261 357.971C73.1261 357.96 73.1363 357.95 73.1363 357.95C73.1465 357.93 73.1567 357.91 73.1669 357.899C73.1974 357.828 73.2076 357.777 73.228 357.716C73.2382 357.685 73.2484 357.655 73.2585 357.624C73.3298 357.421 73.3808 357.258 73.4724 357.115C73.5132 357.054 73.5641 357.044 73.6048 357.023C73.615 357.023 73.615 357.023 73.6252 357.013L73.6965 356.881C74.1446 357.054 74.6335 357.146 75.1223 357.146C75.4177 357.146 75.7232 357.115 76.0084 357.044C76.1917 357.003 76.3649 356.952 76.538 356.891L76.5991 357.003C76.6093 357.003 76.6093 357.003 76.6195 357.013C76.6704 357.023 76.7111 357.044 76.7519 357.105C76.8334 357.248 76.8945 357.421 76.9658 357.614V357.624C76.9759 357.655 76.9861 357.685 76.9963 357.716C77.0167 357.777 77.0269 357.838 77.0574 357.899C77.0676 357.92 77.0778 357.93 77.088 357.95C77.088 357.96 77.0982 357.971 77.0982 357.971C77.1593 358.093 77.2815 358.164 77.4037 358.164C77.4444 358.164 77.4852 358.154 77.5259 358.134C77.5972 358.093 77.6583 358.032 77.6787 357.95C77.6991 357.869 77.6991 357.777 77.6583 357.696C77.6583 357.685 77.6481 357.685 77.6481 357.675C77.638 357.655 77.6278 357.635 77.6176 357.624C77.587 357.563 77.5463 357.512 77.5056 357.461C77.4852 357.431 77.4648 357.41 77.4444 357.38V357.37C77.3324 357.197 77.2306 357.044 77.1796 356.891C77.1593 356.82 77.1796 356.779 77.1898 356.728C77.1898 356.718 77.2 356.718 77.2 356.708L77.1491 356.585C77.6889 356.27 78.1472 355.822 78.4935 355.272C78.6768 354.987 78.8194 354.671 78.9212 354.355L79.0434 354.375C79.0536 354.375 79.0536 354.365 79.0638 354.365C79.1045 354.345 79.1351 354.314 79.1962 354.314H79.2166C79.3795 354.335 79.5527 354.396 79.7462 354.467H79.7564C79.7869 354.477 79.8175 354.498 79.848 354.508C79.9091 354.538 79.9601 354.559 80.0314 354.579C80.0517 354.579 80.0721 354.589 80.0925 354.589C80.1026 354.589 80.1128 354.589 80.123 354.599C80.1536 354.61 80.1739 354.61 80.2045 354.61C80.3573 354.61 80.4897 354.508 80.5304 354.375C80.5304 354.253 80.4184 354.09 80.235 354.039ZM75.5195 353.54L75.0714 353.754L74.6233 353.54L74.5113 353.062L74.8168 352.675H75.3158L75.6214 353.062L75.5195 353.54ZM78.1777 352.481C78.2592 352.827 78.2796 353.174 78.249 353.51L76.6908 353.062C76.5482 353.021 76.4667 352.878 76.4973 352.736C76.5075 352.695 76.5278 352.654 76.5584 352.624L77.7907 351.514C77.9639 351.799 78.0963 352.125 78.1777 352.481ZM77.3019 350.902L75.9677 351.85C75.8556 351.921 75.7029 351.901 75.6112 351.789C75.5806 351.758 75.5705 351.717 75.5603 351.676L75.4686 350.016C76.1714 350.098 76.813 350.414 77.3019 350.902ZM74.3483 350.067C74.4603 350.047 74.5622 350.027 74.6742 350.006L74.5825 351.636C74.5724 351.778 74.4603 351.901 74.3076 351.901C74.2668 351.901 74.2159 351.89 74.1853 351.87L72.8308 350.902C73.2484 350.485 73.7678 350.2 74.3483 350.067ZM72.3419 351.514L73.5539 352.593C73.6659 352.685 73.6761 352.858 73.5844 352.97C73.5539 353.011 73.5132 353.041 73.4622 353.051L71.8836 353.51C71.8225 352.817 71.9753 352.114 72.3419 351.514ZM72.0669 354.274L73.6863 353.999C73.8187 353.988 73.9409 354.08 73.9715 354.212C73.9817 354.274 73.9817 354.325 73.9613 354.375L73.34 355.873C72.7697 355.506 72.3114 354.946 72.0669 354.274ZM75.7843 356.3C75.5501 356.351 75.3158 356.382 75.0714 356.382C74.7149 356.382 74.3687 356.321 74.0428 356.219L74.8473 354.762C74.9288 354.671 75.0612 354.63 75.1733 354.691C75.2242 354.722 75.2649 354.762 75.2955 354.803L76.0797 356.219C75.988 356.249 75.8862 356.27 75.7843 356.3ZM77.7704 354.885C77.5157 355.292 77.1796 355.618 76.7926 355.873L76.151 354.335C76.1204 354.212 76.1714 354.08 76.2936 354.019C76.3343 353.999 76.3852 353.988 76.4362 353.988L78.0657 354.263C78.0046 354.487 77.9028 354.691 77.7704 354.885Z" fill="white"/>
</g>
<g filter="url(#filter5_f_4251_3008)">
<rect x="196.394" y="412.511" width="25.1754" height="25.1754" rx="6.37778" fill="#B4C7ED"/>
</g>
<rect x="189.68" y="405.798" width="30.8819" height="30.8819" rx="6.37778" fill="white"/>
<g filter="url(#filter6_f_4251_3008)">
<rect x="66.1523" y="412.511" width="25.1754" height="25.1754" rx="6.37778" fill="#B4C7ED"/>
</g>
<rect x="59.439" y="405.798" width="30.8819" height="30.8819" rx="6.37778" fill="white"/>
<path d="M207.251 418.632H207.691L208.944 417.379L209.005 416.847C208.287 416.213 207.42 415.773 206.485 415.568C205.55 415.363 204.577 415.4 203.66 415.675C202.743 415.95 201.912 416.454 201.244 417.14C200.576 417.826 200.093 418.671 199.843 419.595C199.982 419.538 200.137 419.528 200.282 419.568L202.788 419.155C202.788 419.155 202.916 418.944 202.982 418.957C203.519 418.368 204.261 418.005 205.056 417.945C205.851 417.884 206.64 418.13 207.26 418.632H207.251Z" fill="#EA4335"/>
<path d="M210.729 419.595C210.441 418.534 209.849 417.58 209.027 416.851L207.269 418.61C207.635 418.909 207.929 419.288 208.128 419.718C208.326 420.147 208.425 420.616 208.416 421.089V421.402C208.622 421.402 208.825 421.442 209.015 421.521C209.205 421.599 209.378 421.715 209.523 421.86C209.668 422.005 209.784 422.178 209.862 422.368C209.941 422.558 209.981 422.761 209.981 422.967C209.981 423.172 209.941 423.376 209.862 423.566C209.784 423.756 209.668 423.928 209.523 424.073C209.378 424.219 209.205 424.334 209.015 424.413C208.825 424.491 208.622 424.532 208.416 424.532H205.286L204.974 424.848V426.726L205.286 427.038H208.416C209.29 427.045 210.143 426.77 210.849 426.254C211.555 425.739 212.076 425.01 212.336 424.175C212.595 423.34 212.579 422.444 212.289 421.619C212 420.794 211.453 420.084 210.729 419.595Z" fill="#4285F4"/>
<path d="M202.151 427.021H205.281V424.515H202.151C201.928 424.515 201.708 424.467 201.505 424.375L201.065 424.511L199.803 425.764L199.693 426.203C200.401 426.738 201.264 427.025 202.151 427.021Z" fill="#34A853"/>
<path d="M202.15 418.891C201.302 418.896 200.477 419.166 199.789 419.663C199.102 420.16 198.587 420.859 198.316 421.663C198.046 422.467 198.033 423.335 198.28 424.147C198.526 424.958 199.02 425.672 199.693 426.189L201.509 424.374C201.278 424.269 201.076 424.111 200.92 423.911C200.764 423.712 200.659 423.477 200.613 423.228C200.568 422.979 200.583 422.723 200.659 422.481C200.734 422.239 200.867 422.02 201.046 421.841C201.225 421.661 201.445 421.529 201.687 421.453C201.928 421.378 202.185 421.362 202.434 421.408C202.683 421.453 202.917 421.558 203.117 421.714C203.316 421.87 203.475 422.072 203.579 422.303L205.395 420.487C205.014 419.989 204.523 419.586 203.96 419.309C203.397 419.032 202.778 418.889 202.15 418.891Z" fill="#FBBC05"/>
<path d="M137.235 450.347H140.954L137.093 461.553C137.054 461.668 136.978 461.768 136.877 461.839C136.777 461.91 136.656 461.948 136.532 461.948H133.637C133.543 461.948 133.451 461.926 133.367 461.884C133.284 461.842 133.211 461.781 133.157 461.706C133.102 461.632 133.066 461.545 133.052 461.454C133.038 461.363 133.046 461.27 133.076 461.183L136.673 450.742C136.713 450.627 136.788 450.527 136.889 450.456C136.99 450.385 137.111 450.347 137.235 450.347Z" fill="url(#paint3_linear_4251_3008)"/>
<path d="M142.639 457.864H136.742C136.687 457.864 136.634 457.88 136.588 457.91C136.543 457.94 136.508 457.983 136.488 458.033C136.468 458.083 136.463 458.138 136.475 458.19C136.488 458.243 136.515 458.29 136.556 458.327L140.345 461.792C140.455 461.892 140.601 461.949 140.751 461.949H144.091L142.639 457.864Z" fill="#0078D4"/>
<path d="M137.235 450.347C137.109 450.347 136.987 450.386 136.886 450.458C136.784 450.53 136.709 450.633 136.672 450.75L133.081 461.173C133.049 461.261 133.038 461.354 133.051 461.447C133.064 461.539 133.099 461.627 133.154 461.703C133.209 461.779 133.281 461.841 133.366 461.883C133.45 461.926 133.544 461.948 133.639 461.948H136.608C136.718 461.928 136.822 461.881 136.907 461.809C136.993 461.738 137.057 461.646 137.095 461.542L137.811 459.475L140.369 461.812C140.476 461.899 140.61 461.947 140.75 461.948H144.076L142.617 457.863L138.364 457.864L140.967 450.347H137.235Z" fill="url(#paint4_linear_4251_3008)"/>
<path d="M141.985 450.742C141.945 450.627 141.87 450.527 141.769 450.456C141.669 450.385 141.548 450.347 141.424 450.347H137.279C137.403 450.347 137.524 450.385 137.625 450.456C137.725 450.527 137.801 450.627 137.84 450.742L141.437 461.182C141.467 461.27 141.476 461.363 141.462 461.454C141.448 461.545 141.412 461.631 141.357 461.706C141.302 461.781 141.23 461.842 141.147 461.884C141.063 461.926 140.97 461.948 140.876 461.948H145.021C145.115 461.948 145.208 461.926 145.291 461.884C145.375 461.842 145.447 461.781 145.502 461.706C145.557 461.631 145.593 461.545 145.606 461.454C145.62 461.363 145.612 461.27 145.582 461.182L141.985 450.742Z" fill="url(#paint5_linear_4251_3008)"/>
<g clip-path="url(#clip2_4251_3008)">
<mask id="path-36-outside-1_4251_3008" maskUnits="userSpaceOnUse" x="130.26" y="310.259" width="18" height="7" fill="black">
<rect fill="white" x="130.26" y="310.259" width="18" height="7"/>
<path d="M135.49 315.248C135.49 315.474 135.514 315.657 135.555 315.791C135.601 315.926 135.66 316.072 135.742 316.231C135.771 316.28 135.783 316.329 135.783 316.372C135.783 316.433 135.748 316.494 135.672 316.555L135.303 316.811C135.25 316.848 135.198 316.866 135.151 316.866C135.092 316.866 135.034 316.836 134.975 316.781C134.893 316.689 134.823 316.592 134.765 316.494C134.706 316.39 134.648 316.274 134.583 316.133C134.127 316.695 133.553 316.976 132.863 316.976C132.372 316.976 131.979 316.83 131.693 316.537C131.406 316.243 131.26 315.852 131.26 315.364C131.26 314.844 131.435 314.423 131.792 314.105C132.149 313.788 132.623 313.629 133.226 313.629C133.425 313.629 133.63 313.647 133.846 313.678C134.063 313.708 134.285 313.757 134.519 313.812V313.366C134.519 312.902 134.425 312.578 134.244 312.389C134.057 312.199 133.741 312.108 133.29 312.108C133.085 312.108 132.875 312.132 132.658 312.187C132.442 312.242 132.231 312.309 132.026 312.395C131.933 312.438 131.862 312.462 131.821 312.474C131.781 312.487 131.751 312.493 131.728 312.493C131.646 312.493 131.605 312.432 131.605 312.303V312.004C131.605 311.906 131.617 311.833 131.646 311.79C131.675 311.747 131.728 311.705 131.81 311.662C132.015 311.552 132.26 311.46 132.547 311.387C132.834 311.308 133.138 311.271 133.46 311.271C134.156 311.271 134.665 311.436 134.993 311.766C135.315 312.096 135.479 312.597 135.479 313.268V315.248H135.49ZM133.115 316.176C133.308 316.176 133.507 316.139 133.717 316.066C133.928 315.993 134.115 315.858 134.273 315.675C134.367 315.559 134.437 315.431 134.472 315.284C134.507 315.138 134.531 314.961 134.531 314.753V314.496C134.361 314.454 134.18 314.417 133.992 314.392C133.805 314.368 133.624 314.356 133.442 314.356C133.05 314.356 132.764 314.435 132.57 314.6C132.377 314.765 132.284 314.997 132.284 315.303C132.284 315.59 132.354 315.804 132.5 315.95C132.641 316.103 132.845 316.176 133.115 316.176ZM137.813 316.836C137.708 316.836 137.638 316.818 137.591 316.775C137.544 316.738 137.503 316.653 137.468 316.537L136.093 311.815C136.058 311.692 136.04 311.613 136.04 311.57C136.04 311.473 136.087 311.418 136.181 311.418H136.754C136.865 311.418 136.941 311.436 136.982 311.479C137.029 311.515 137.064 311.601 137.099 311.717L138.082 315.761L138.995 311.717C139.024 311.595 139.06 311.515 139.106 311.479C139.153 311.442 139.235 311.418 139.34 311.418H139.809C139.92 311.418 139.996 311.436 140.043 311.479C140.089 311.515 140.13 311.601 140.154 311.717L141.078 315.81L142.091 311.717C142.126 311.595 142.167 311.515 142.208 311.479C142.254 311.442 142.33 311.418 142.436 311.418H142.98C143.074 311.418 143.126 311.466 143.126 311.57C143.126 311.601 143.12 311.631 143.114 311.668C143.109 311.705 143.097 311.754 143.074 311.821L141.663 316.543C141.628 316.665 141.587 316.744 141.54 316.781C141.494 316.818 141.418 316.842 141.318 316.842H140.815C140.704 316.842 140.628 316.824 140.581 316.781C140.534 316.738 140.493 316.659 140.47 316.537L139.563 312.597L138.662 316.53C138.632 316.653 138.597 316.732 138.55 316.775C138.504 316.818 138.422 316.836 138.316 316.836H137.813ZM145.332 317.001C145.028 317.001 144.724 316.964 144.431 316.891C144.138 316.818 143.91 316.738 143.758 316.646C143.665 316.592 143.6 316.53 143.577 316.475C143.553 316.42 143.542 316.359 143.542 316.304V315.993C143.542 315.865 143.588 315.804 143.676 315.804C143.711 315.804 143.746 315.81 143.782 315.822C143.817 315.834 143.869 315.858 143.928 315.883C144.127 315.975 144.343 316.048 144.571 316.097C144.806 316.146 145.034 316.17 145.268 316.17C145.636 316.17 145.923 316.103 146.122 315.968C146.321 315.834 146.426 315.639 146.426 315.388C146.426 315.217 146.374 315.077 146.268 314.961C146.163 314.844 145.964 314.741 145.677 314.643L144.829 314.368C144.402 314.228 144.086 314.02 143.893 313.745C143.7 313.476 143.6 313.177 143.6 312.859C143.6 312.603 143.653 312.377 143.758 312.181C143.863 311.986 144.004 311.815 144.179 311.68C144.355 311.54 144.554 311.436 144.788 311.363C145.022 311.289 145.268 311.259 145.525 311.259C145.654 311.259 145.789 311.265 145.917 311.283C146.052 311.302 146.175 311.326 146.298 311.35C146.415 311.381 146.526 311.412 146.631 311.448C146.736 311.485 146.818 311.521 146.877 311.558C146.959 311.607 147.017 311.656 147.052 311.711C147.088 311.76 147.105 311.827 147.105 311.912V312.199C147.105 312.328 147.058 312.395 146.971 312.395C146.924 312.395 146.848 312.371 146.748 312.322C146.415 312.163 146.04 312.083 145.625 312.083C145.291 312.083 145.028 312.138 144.846 312.254C144.665 312.371 144.571 312.548 144.571 312.798C144.571 312.969 144.63 313.116 144.747 313.232C144.864 313.348 145.081 313.464 145.391 313.568L146.222 313.843C146.643 313.983 146.947 314.179 147.128 314.429C147.31 314.68 147.398 314.967 147.398 315.284C147.398 315.547 147.345 315.785 147.246 315.993C147.14 316.201 147 316.384 146.818 316.53C146.637 316.683 146.42 316.793 146.169 316.873C145.906 316.958 145.631 317.001 145.332 317.001Z"/>
</mask>
<path d="M135.49 315.248C135.49 315.474 135.514 315.657 135.555 315.791C135.601 315.926 135.66 316.072 135.742 316.231C135.771 316.28 135.783 316.329 135.783 316.372C135.783 316.433 135.748 316.494 135.672 316.555L135.303 316.811C135.25 316.848 135.198 316.866 135.151 316.866C135.092 316.866 135.034 316.836 134.975 316.781C134.893 316.689 134.823 316.592 134.765 316.494C134.706 316.39 134.648 316.274 134.583 316.133C134.127 316.695 133.553 316.976 132.863 316.976C132.372 316.976 131.979 316.83 131.693 316.537C131.406 316.243 131.26 315.852 131.26 315.364C131.26 314.844 131.435 314.423 131.792 314.105C132.149 313.788 132.623 313.629 133.226 313.629C133.425 313.629 133.63 313.647 133.846 313.678C134.063 313.708 134.285 313.757 134.519 313.812V313.366C134.519 312.902 134.425 312.578 134.244 312.389C134.057 312.199 133.741 312.108 133.29 312.108C133.085 312.108 132.875 312.132 132.658 312.187C132.442 312.242 132.231 312.309 132.026 312.395C131.933 312.438 131.862 312.462 131.821 312.474C131.781 312.487 131.751 312.493 131.728 312.493C131.646 312.493 131.605 312.432 131.605 312.303V312.004C131.605 311.906 131.617 311.833 131.646 311.79C131.675 311.747 131.728 311.705 131.81 311.662C132.015 311.552 132.26 311.46 132.547 311.387C132.834 311.308 133.138 311.271 133.46 311.271C134.156 311.271 134.665 311.436 134.993 311.766C135.315 312.096 135.479 312.597 135.479 313.268V315.248H135.49ZM133.115 316.176C133.308 316.176 133.507 316.139 133.717 316.066C133.928 315.993 134.115 315.858 134.273 315.675C134.367 315.559 134.437 315.431 134.472 315.284C134.507 315.138 134.531 314.961 134.531 314.753V314.496C134.361 314.454 134.18 314.417 133.992 314.392C133.805 314.368 133.624 314.356 133.442 314.356C133.05 314.356 132.764 314.435 132.57 314.6C132.377 314.765 132.284 314.997 132.284 315.303C132.284 315.59 132.354 315.804 132.5 315.95C132.641 316.103 132.845 316.176 133.115 316.176ZM137.813 316.836C137.708 316.836 137.638 316.818 137.591 316.775C137.544 316.738 137.503 316.653 137.468 316.537L136.093 311.815C136.058 311.692 136.04 311.613 136.04 311.57C136.04 311.473 136.087 311.418 136.181 311.418H136.754C136.865 311.418 136.941 311.436 136.982 311.479C137.029 311.515 137.064 311.601 137.099 311.717L138.082 315.761L138.995 311.717C139.024 311.595 139.06 311.515 139.106 311.479C139.153 311.442 139.235 311.418 139.34 311.418H139.809C139.92 311.418 139.996 311.436 140.043 311.479C140.089 311.515 140.13 311.601 140.154 311.717L141.078 315.81L142.091 311.717C142.126 311.595 142.167 311.515 142.208 311.479C142.254 311.442 142.33 311.418 142.436 311.418H142.98C143.074 311.418 143.126 311.466 143.126 311.57C143.126 311.601 143.12 311.631 143.114 311.668C143.109 311.705 143.097 311.754 143.074 311.821L141.663 316.543C141.628 316.665 141.587 316.744 141.54 316.781C141.494 316.818 141.418 316.842 141.318 316.842H140.815C140.704 316.842 140.628 316.824 140.581 316.781C140.534 316.738 140.493 316.659 140.47 316.537L139.563 312.597L138.662 316.53C138.632 316.653 138.597 316.732 138.55 316.775C138.504 316.818 138.422 316.836 138.316 316.836H137.813ZM145.332 317.001C145.028 317.001 144.724 316.964 144.431 316.891C144.138 316.818 143.91 316.738 143.758 316.646C143.665 316.592 143.6 316.53 143.577 316.475C143.553 316.42 143.542 316.359 143.542 316.304V315.993C143.542 315.865 143.588 315.804 143.676 315.804C143.711 315.804 143.746 315.81 143.782 315.822C143.817 315.834 143.869 315.858 143.928 315.883C144.127 315.975 144.343 316.048 144.571 316.097C144.806 316.146 145.034 316.17 145.268 316.17C145.636 316.17 145.923 316.103 146.122 315.968C146.321 315.834 146.426 315.639 146.426 315.388C146.426 315.217 146.374 315.077 146.268 314.961C146.163 314.844 145.964 314.741 145.677 314.643L144.829 314.368C144.402 314.228 144.086 314.02 143.893 313.745C143.7 313.476 143.6 313.177 143.6 312.859C143.6 312.603 143.653 312.377 143.758 312.181C143.863 311.986 144.004 311.815 144.179 311.68C144.355 311.54 144.554 311.436 144.788 311.363C145.022 311.289 145.268 311.259 145.525 311.259C145.654 311.259 145.789 311.265 145.917 311.283C146.052 311.302 146.175 311.326 146.298 311.35C146.415 311.381 146.526 311.412 146.631 311.448C146.736 311.485 146.818 311.521 146.877 311.558C146.959 311.607 147.017 311.656 147.052 311.711C147.088 311.76 147.105 311.827 147.105 311.912V312.199C147.105 312.328 147.058 312.395 146.971 312.395C146.924 312.395 146.848 312.371 146.748 312.322C146.415 312.163 146.04 312.083 145.625 312.083C145.291 312.083 145.028 312.138 144.846 312.254C144.665 312.371 144.571 312.548 144.571 312.798C144.571 312.969 144.63 313.116 144.747 313.232C144.864 313.348 145.081 313.464 145.391 313.568L146.222 313.843C146.643 313.983 146.947 314.179 147.128 314.429C147.31 314.68 147.398 314.967 147.398 315.284C147.398 315.547 147.345 315.785 147.246 315.993C147.14 316.201 147 316.384 146.818 316.53C146.637 316.683 146.42 316.793 146.169 316.873C145.906 316.958 145.631 317.001 145.332 317.001Z" fill="#252F3E"/>
<path d="M135.49 315.248C135.49 315.474 135.514 315.657 135.555 315.791C135.601 315.926 135.66 316.072 135.742 316.231C135.771 316.28 135.783 316.329 135.783 316.372C135.783 316.433 135.748 316.494 135.672 316.555L135.303 316.811C135.25 316.848 135.198 316.866 135.151 316.866C135.092 316.866 135.034 316.836 134.975 316.781C134.893 316.689 134.823 316.592 134.765 316.494C134.706 316.39 134.648 316.274 134.583 316.133C134.127 316.695 133.553 316.976 132.863 316.976C132.372 316.976 131.979 316.83 131.693 316.537C131.406 316.243 131.26 315.852 131.26 315.364C131.26 314.844 131.435 314.423 131.792 314.105C132.149 313.788 132.623 313.629 133.226 313.629C133.425 313.629 133.63 313.647 133.846 313.678C134.063 313.708 134.285 313.757 134.519 313.812V313.366C134.519 312.902 134.425 312.578 134.244 312.389C134.057 312.199 133.741 312.108 133.29 312.108C133.085 312.108 132.875 312.132 132.658 312.187C132.442 312.242 132.231 312.309 132.026 312.395C131.933 312.438 131.862 312.462 131.821 312.474C131.781 312.487 131.751 312.493 131.728 312.493C131.646 312.493 131.605 312.432 131.605 312.303V312.004C131.605 311.906 131.617 311.833 131.646 311.79C131.675 311.747 131.728 311.705 131.81 311.662C132.015 311.552 132.26 311.46 132.547 311.387C132.834 311.308 133.138 311.271 133.46 311.271C134.156 311.271 134.665 311.436 134.993 311.766C135.315 312.096 135.479 312.597 135.479 313.268V315.248H135.49ZM133.115 316.176C133.308 316.176 133.507 316.139 133.717 316.066C133.928 315.993 134.115 315.858 134.273 315.675C134.367 315.559 134.437 315.431 134.472 315.284C134.507 315.138 134.531 314.961 134.531 314.753V314.496C134.361 314.454 134.18 314.417 133.992 314.392C133.805 314.368 133.624 314.356 133.442 314.356C133.05 314.356 132.764 314.435 132.57 314.6C132.377 314.765 132.284 314.997 132.284 315.303C132.284 315.59 132.354 315.804 132.5 315.95C132.641 316.103 132.845 316.176 133.115 316.176ZM137.813 316.836C137.708 316.836 137.638 316.818 137.591 316.775C137.544 316.738 137.503 316.653 137.468 316.537L136.093 311.815C136.058 311.692 136.04 311.613 136.04 311.57C136.04 311.473 136.087 311.418 136.181 311.418H136.754C136.865 311.418 136.941 311.436 136.982 311.479C137.029 311.515 137.064 311.601 137.099 311.717L138.082 315.761L138.995 311.717C139.024 311.595 139.06 311.515 139.106 311.479C139.153 311.442 139.235 311.418 139.34 311.418H139.809C139.92 311.418 139.996 311.436 140.043 311.479C140.089 311.515 140.13 311.601 140.154 311.717L141.078 315.81L142.091 311.717C142.126 311.595 142.167 311.515 142.208 311.479C142.254 311.442 142.33 311.418 142.436 311.418H142.98C143.074 311.418 143.126 311.466 143.126 311.57C143.126 311.601 143.12 311.631 143.114 311.668C143.109 311.705 143.097 311.754 143.074 311.821L141.663 316.543C141.628 316.665 141.587 316.744 141.54 316.781C141.494 316.818 141.418 316.842 141.318 316.842H140.815C140.704 316.842 140.628 316.824 140.581 316.781C140.534 316.738 140.493 316.659 140.47 316.537L139.563 312.597L138.662 316.53C138.632 316.653 138.597 316.732 138.55 316.775C138.504 316.818 138.422 316.836 138.316 316.836H137.813ZM145.332 317.001C145.028 317.001 144.724 316.964 144.431 316.891C144.138 316.818 143.91 316.738 143.758 316.646C143.665 316.592 143.6 316.53 143.577 316.475C143.553 316.42 143.542 316.359 143.542 316.304V315.993C143.542 315.865 143.588 315.804 143.676 315.804C143.711 315.804 143.746 315.81 143.782 315.822C143.817 315.834 143.869 315.858 143.928 315.883C144.127 315.975 144.343 316.048 144.571 316.097C144.806 316.146 145.034 316.17 145.268 316.17C145.636 316.17 145.923 316.103 146.122 315.968C146.321 315.834 146.426 315.639 146.426 315.388C146.426 315.217 146.374 315.077 146.268 314.961C146.163 314.844 145.964 314.741 145.677 314.643L144.829 314.368C144.402 314.228 144.086 314.02 143.893 313.745C143.7 313.476 143.6 313.177 143.6 312.859C143.6 312.603 143.653 312.377 143.758 312.181C143.863 311.986 144.004 311.815 144.179 311.68C144.355 311.54 144.554 311.436 144.788 311.363C145.022 311.289 145.268 311.259 145.525 311.259C145.654 311.259 145.789 311.265 145.917 311.283C146.052 311.302 146.175 311.326 146.298 311.35C146.415 311.381 146.526 311.412 146.631 311.448C146.736 311.485 146.818 311.521 146.877 311.558C146.959 311.607 147.017 311.656 147.052 311.711C147.088 311.76 147.105 311.827 147.105 311.912V312.199C147.105 312.328 147.058 312.395 146.971 312.395C146.924 312.395 146.848 312.371 146.748 312.322C146.415 312.163 146.04 312.083 145.625 312.083C145.291 312.083 145.028 312.138 144.846 312.254C144.665 312.371 144.571 312.548 144.571 312.798C144.571 312.969 144.63 313.116 144.747 313.232C144.864 313.348 145.081 313.464 145.391 313.568L146.222 313.843C146.643 313.983 146.947 314.179 147.128 314.429C147.31 314.68 147.398 314.967 147.398 315.284C147.398 315.547 147.345 315.785 147.246 315.993C147.14 316.201 147 316.384 146.818 316.53C146.637 316.683 146.42 316.793 146.169 316.873C145.906 316.958 145.631 317.001 145.332 317.001Z" stroke="#252F3E" stroke-width="0.125676" mask="url(#path-36-outside-1_4251_3008)"/>
<path d="M146.472 320.015L146.472 320.015C146.56 319.947 146.611 319.867 146.628 319.785C146.644 319.703 146.626 319.623 146.583 319.559C146.498 319.43 146.319 319.369 146.134 319.456C143.983 320.406 141.644 320.868 139.516 320.868C136.361 320.868 133.311 319.961 130.839 318.463C130.712 318.385 130.582 318.407 130.516 318.498C130.451 318.588 130.466 318.72 130.573 318.82L130.573 318.82C132.876 320.992 135.926 322.299 139.312 322.299C141.726 322.299 144.536 321.508 146.472 320.015Z" fill="#FF9900" stroke="#FF9900" stroke-width="0.111175"/>
<path d="M147.196 319.051L147.196 319.051C147.218 319.081 147.235 319.127 147.243 319.191C147.251 319.255 147.251 319.333 147.242 319.422C147.224 319.6 147.176 319.815 147.112 320.042C146.984 320.496 146.796 320.986 146.679 321.288L146.679 321.288C146.659 321.341 146.653 321.391 146.662 321.436C146.673 321.481 146.7 321.518 146.741 321.538C146.82 321.576 146.922 321.542 147.008 321.466C147.534 321.004 147.863 320.294 148.034 319.67C148.12 319.357 148.167 319.063 148.178 318.829C148.184 318.712 148.182 318.608 148.17 318.524C148.159 318.442 148.139 318.37 148.103 318.324L148.103 318.324L148.103 318.324C148.068 318.279 148.006 318.241 147.932 318.21C147.856 318.177 147.76 318.148 147.65 318.124C147.429 318.077 147.144 318.047 146.833 318.052C146.211 318.061 145.471 318.206 144.908 318.618L144.908 318.618L144.907 318.619C144.815 318.689 144.761 318.782 144.775 318.867C144.783 318.912 144.809 318.949 144.85 318.972C144.89 318.994 144.94 319 144.995 318.993L144.987 318.938L144.994 318.993C145.308 318.954 145.807 318.891 146.258 318.88C146.483 318.874 146.695 318.881 146.863 318.91C146.948 318.924 147.02 318.943 147.077 318.967C147.134 318.992 147.173 319.02 147.196 319.051L147.196 319.051Z" fill="#FF9900" stroke="#FF9900" stroke-width="0.111175"/>
</g>
<g clip-path="url(#clip3_4251_3008)">
<path d="M204.084 348.29C204.64 347.709 205.414 347.348 206.27 347.348C207.408 347.348 208.4 347.985 208.929 348.93C209.388 348.724 209.897 348.61 210.432 348.61C212.484 348.61 214.147 350.295 214.147 352.373C214.147 354.451 212.484 356.136 210.432 356.136C210.181 356.136 209.936 356.111 209.7 356.063C209.234 356.896 208.347 357.459 207.329 357.459C206.903 357.459 206.5 357.361 206.141 357.185C205.669 358.299 204.569 359.081 203.288 359.081C201.953 359.081 200.816 358.233 200.38 357.044C200.189 357.085 199.991 357.106 199.788 357.106C198.2 357.106 196.912 355.8 196.912 354.188C196.912 353.108 197.49 352.165 198.35 351.66C198.173 351.251 198.075 350.8 198.075 350.325C198.075 348.472 199.574 346.969 201.422 346.969C202.508 346.969 203.473 347.487 204.084 348.29Z" fill="#00B7FF"/>
<path d="M199.408 353.248C199.397 353.277 199.412 353.283 199.416 353.288C199.448 353.311 199.481 353.328 199.514 353.347C199.69 353.441 199.856 353.468 200.029 353.468C200.383 353.468 200.602 353.279 200.602 352.976V352.97C200.602 352.689 200.355 352.587 200.122 352.513L200.092 352.503C199.917 352.446 199.765 352.397 199.765 352.281V352.275C199.765 352.175 199.854 352.102 199.991 352.102C200.143 352.102 200.324 352.153 200.44 352.218C200.44 352.218 200.474 352.24 200.487 352.207C200.494 352.189 200.553 352.03 200.559 352.013C200.565 351.994 200.554 351.98 200.542 351.973C200.409 351.891 200.225 351.836 200.035 351.836L200 351.836C199.676 351.836 199.45 352.032 199.45 352.314V352.32C199.45 352.616 199.699 352.712 199.933 352.779L199.97 352.791C200.141 352.843 200.287 352.889 200.287 353.009V353.015C200.287 353.125 200.192 353.206 200.038 353.206C199.979 353.206 199.788 353.205 199.583 353.075C199.558 353.06 199.543 353.05 199.524 353.038C199.514 353.032 199.489 353.021 199.478 353.054L199.408 353.248Z" fill="white"/>
<path d="M204.584 353.248C204.573 353.277 204.588 353.283 204.591 353.288C204.624 353.311 204.657 353.328 204.69 353.347C204.866 353.441 205.032 353.468 205.205 353.468C205.559 353.468 205.778 353.279 205.778 352.976V352.97C205.778 352.689 205.53 352.587 205.298 352.513L205.268 352.503C205.092 352.446 204.941 352.397 204.941 352.281V352.275C204.941 352.175 205.03 352.102 205.167 352.102C205.319 352.102 205.5 352.153 205.616 352.218C205.616 352.218 205.65 352.24 205.663 352.207C205.669 352.189 205.728 352.03 205.734 352.013C205.741 351.994 205.729 351.98 205.717 351.973C205.584 351.891 205.401 351.836 205.211 351.836L205.175 351.836C204.852 351.836 204.626 352.032 204.626 352.314V352.32C204.626 352.616 204.875 352.712 205.109 352.779L205.146 352.791C205.316 352.843 205.463 352.889 205.463 353.009V353.015C205.463 353.125 205.368 353.206 205.214 353.206C205.154 353.206 204.964 353.205 204.759 353.075C204.734 353.06 204.719 353.05 204.7 353.038C204.694 353.034 204.664 353.022 204.654 353.054L204.584 353.248Z" fill="white"/>
<path d="M208.118 352.652C208.118 352.824 208.086 352.96 208.023 353.055C207.961 353.15 207.867 353.196 207.736 353.196C207.604 353.196 207.511 353.15 207.449 353.055C207.388 352.96 207.356 352.824 207.356 352.652C207.356 352.481 207.388 352.346 207.449 352.251C207.511 352.158 207.604 352.112 207.736 352.112C207.867 352.112 207.961 352.158 208.023 352.251C208.086 352.346 208.118 352.481 208.118 352.652ZM208.413 352.334C208.384 352.236 208.339 352.149 208.278 352.077C208.218 352.004 208.142 351.946 208.052 351.904C207.962 351.861 207.855 351.84 207.736 351.84C207.616 351.84 207.509 351.861 207.419 351.904C207.329 351.946 207.253 352.004 207.192 352.077C207.132 352.149 207.087 352.236 207.058 352.334C207.029 352.432 207.015 352.539 207.015 352.652C207.015 352.766 207.029 352.873 207.058 352.971C207.087 353.069 207.132 353.156 207.192 353.228C207.253 353.301 207.329 353.359 207.419 353.4C207.509 353.441 207.616 353.462 207.736 353.462C207.855 353.462 207.961 353.441 208.052 353.4C208.142 353.359 208.218 353.301 208.278 353.228C208.339 353.156 208.384 353.069 208.413 352.971C208.442 352.873 208.456 352.766 208.456 352.652C208.456 352.539 208.442 352.432 208.413 352.334Z" fill="white"/>
<path d="M210.836 353.151C210.826 353.122 210.798 353.133 210.798 353.133C210.755 353.149 210.71 353.165 210.661 353.172C210.612 353.18 210.557 353.184 210.499 353.184C210.356 353.184 210.243 353.141 210.162 353.057C210.08 352.973 210.034 352.836 210.035 352.652C210.035 352.484 210.076 352.358 210.148 352.262C210.22 352.166 210.329 352.117 210.476 352.117C210.597 352.117 210.69 352.131 210.787 352.162C210.787 352.162 210.811 352.172 210.822 352.141C210.848 352.07 210.867 352.018 210.894 351.939C210.902 351.916 210.883 351.907 210.876 351.904C210.838 351.889 210.747 351.865 210.679 351.854C210.615 351.844 210.541 351.839 210.458 351.839C210.334 351.839 210.223 351.86 210.129 351.903C210.034 351.945 209.954 352.003 209.891 352.076C209.828 352.148 209.78 352.235 209.747 352.333C209.715 352.431 209.699 352.538 209.699 352.652C209.699 352.898 209.765 353.096 209.896 353.242C210.026 353.388 210.222 353.462 210.478 353.462C210.63 353.462 210.785 353.431 210.896 353.387C210.896 353.387 210.918 353.377 210.908 353.352L210.836 353.151Z" fill="white"/>
<path d="M211.353 352.488C211.367 352.392 211.393 352.313 211.433 352.251C211.494 352.157 211.588 352.105 211.719 352.105C211.85 352.105 211.937 352.157 211.999 352.251C212.04 352.313 212.058 352.396 212.065 352.488H211.353ZM212.346 352.278C212.321 352.183 212.259 352.087 212.218 352.043C212.154 351.974 212.091 351.925 212.029 351.898C211.947 351.863 211.849 351.84 211.742 351.84C211.618 351.84 211.505 351.861 211.413 351.904C211.321 351.947 211.243 352.007 211.183 352.08C211.122 352.154 211.076 352.241 211.047 352.341C211.018 352.439 211.003 352.547 211.003 352.661C211.003 352.776 211.019 352.884 211.049 352.981C211.079 353.079 211.128 353.165 211.194 353.236C211.259 353.308 211.344 353.364 211.445 353.403C211.545 353.442 211.667 353.462 211.808 353.462C212.096 353.461 212.248 353.396 212.311 353.362C212.322 353.355 212.332 353.345 212.319 353.314L212.254 353.13C212.244 353.103 212.216 353.113 212.216 353.113C212.145 353.139 212.043 353.187 211.806 353.187C211.651 353.186 211.536 353.14 211.464 353.069C211.39 352.995 211.354 352.887 211.348 352.735L212.347 352.736C212.347 352.736 212.373 352.736 212.376 352.71C212.377 352.699 212.41 352.504 212.346 352.278Z" fill="white"/>
<path d="M203.352 352.488C203.366 352.392 203.392 352.313 203.432 352.251C203.493 352.157 203.587 352.105 203.718 352.105C203.849 352.105 203.936 352.157 203.998 352.251C204.039 352.313 204.057 352.396 204.064 352.488H203.352ZM204.345 352.278C204.32 352.183 204.258 352.087 204.217 352.043C204.153 351.974 204.09 351.925 204.028 351.898C203.946 351.863 203.849 351.84 203.741 351.84C203.617 351.84 203.504 351.861 203.412 351.904C203.32 351.947 203.242 352.007 203.182 352.08C203.121 352.154 203.075 352.241 203.046 352.341C203.017 352.439 203.002 352.547 203.002 352.661C203.002 352.776 203.018 352.884 203.048 352.981C203.078 353.079 203.127 353.165 203.193 353.236C203.258 353.308 203.343 353.364 203.444 353.403C203.544 353.442 203.666 353.462 203.807 353.462C204.095 353.461 204.247 353.396 204.31 353.362C204.321 353.355 204.331 353.345 204.318 353.314L204.253 353.13C204.243 353.103 204.215 353.113 204.215 353.113C204.144 353.139 204.042 353.187 203.805 353.187C203.65 353.186 203.535 353.14 203.463 353.069C203.389 352.995 203.353 352.887 203.347 352.735L204.346 352.736C204.346 352.736 204.372 352.736 204.375 352.71C204.376 352.699 204.409 352.504 204.345 352.278Z" fill="white"/>
<path d="M201.193 353.144C201.153 353.113 201.148 353.105 201.135 353.085C201.115 353.054 201.105 353.01 201.105 352.955C201.105 352.866 201.134 352.803 201.194 352.76C201.193 352.761 201.28 352.685 201.484 352.688C201.627 352.69 201.755 352.711 201.755 352.711V353.167H201.755C201.755 353.167 201.628 353.194 201.485 353.203C201.282 353.215 201.192 353.144 201.193 353.144ZM201.59 352.44C201.549 352.437 201.497 352.435 201.434 352.435C201.348 352.435 201.266 352.446 201.188 352.467C201.11 352.488 201.04 352.521 200.979 352.564C200.919 352.608 200.87 352.663 200.835 352.729C200.799 352.795 200.781 352.873 200.781 352.961C200.781 353.049 200.796 353.126 200.827 353.19C200.857 353.253 200.901 353.306 200.957 353.346C201.013 353.387 201.081 353.417 201.161 353.435C201.239 353.453 201.328 353.462 201.425 353.462C201.528 353.462 201.63 353.454 201.729 353.437C201.827 353.42 201.947 353.395 201.98 353.388C202.014 353.38 202.05 353.37 202.05 353.37C202.075 353.364 202.073 353.337 202.073 353.337L202.073 352.42C202.073 352.219 202.019 352.07 201.914 351.977C201.809 351.885 201.655 351.838 201.455 351.838C201.38 351.838 201.26 351.849 201.187 351.863C201.187 351.863 200.969 351.906 200.879 351.976C200.879 351.976 200.86 351.988 200.87 352.016L200.941 352.207C200.95 352.231 200.974 352.223 200.974 352.223C200.974 352.223 200.981 352.22 200.99 352.215C201.182 352.11 201.426 352.113 201.426 352.113C201.534 352.113 201.617 352.135 201.673 352.178C201.727 352.22 201.755 352.283 201.755 352.417V352.459C201.669 352.447 201.59 352.44 201.59 352.44Z" fill="white"/>
<path d="M209.647 351.923C209.655 351.901 209.639 351.89 209.632 351.887C209.615 351.881 209.53 351.863 209.465 351.859C209.339 351.851 209.269 351.872 209.207 351.9C209.145 351.928 209.076 351.974 209.038 352.025V351.903C209.038 351.886 209.026 351.873 209.009 351.873H208.753C208.737 351.873 208.725 351.886 208.725 351.903V353.399C208.725 353.416 208.738 353.43 208.755 353.43H209.018C209.034 353.43 209.048 353.416 209.048 353.399V352.652C209.048 352.551 209.059 352.451 209.081 352.389C209.102 352.326 209.132 352.277 209.168 352.241C209.205 352.205 209.246 352.18 209.292 352.166C209.338 352.152 209.389 352.147 209.426 352.147C209.478 352.147 209.536 352.161 209.536 352.161C209.555 352.163 209.566 352.151 209.572 352.134C209.589 352.088 209.638 351.951 209.647 351.923Z" fill="white"/>
<path d="M207.184 351.23C207.152 351.22 207.123 351.214 207.086 351.206C207.047 351.199 207.002 351.196 206.95 351.196C206.769 351.196 206.627 351.247 206.527 351.348C206.427 351.449 206.36 351.602 206.326 351.803L206.314 351.871H206.087C206.087 351.871 206.059 351.87 206.053 351.9L206.016 352.109C206.014 352.129 206.022 352.141 206.049 352.141H206.27L206.046 353.396C206.028 353.497 206.008 353.581 205.986 353.644C205.964 353.706 205.942 353.752 205.916 353.786C205.89 353.819 205.866 353.843 205.825 353.857C205.79 353.869 205.75 353.874 205.707 353.874C205.683 353.874 205.651 353.87 205.627 353.865C205.603 353.861 205.591 353.855 205.573 353.848C205.573 353.848 205.547 353.838 205.537 353.864C205.529 353.885 205.47 354.048 205.463 354.068C205.456 354.088 205.466 354.103 205.478 354.108C205.508 354.118 205.529 354.125 205.57 354.135C205.625 354.148 205.672 354.148 205.716 354.148C205.808 354.148 205.892 354.135 205.961 354.11C206.031 354.085 206.092 354.041 206.146 353.981C206.204 353.916 206.241 353.849 206.275 353.757C206.31 353.665 206.34 353.552 206.363 353.42L206.588 352.141H206.917C206.917 352.141 206.945 352.142 206.951 352.112L206.988 351.903C206.991 351.883 206.982 351.871 206.955 351.871H206.636C206.638 351.864 206.652 351.751 206.689 351.645C206.705 351.6 206.734 351.563 206.759 351.538C206.783 351.513 206.812 351.496 206.843 351.486C206.874 351.475 206.91 351.47 206.95 351.47C206.98 351.47 207.01 351.474 207.032 351.478C207.063 351.485 207.075 351.489 207.083 351.491C207.116 351.501 207.12 351.491 207.126 351.476L207.203 351.265C207.211 351.242 207.191 351.233 207.184 351.23Z" fill="white"/>
<path d="M202.721 353.399C202.721 353.416 202.709 353.43 202.692 353.43H202.427C202.41 353.43 202.398 353.416 202.398 353.399V351.259C202.398 351.242 202.41 351.229 202.427 351.229H202.692C202.709 351.229 202.721 351.242 202.721 351.259V353.399Z" fill="white"/>
</g>
<path fill-rule="evenodd" clip-rule="evenodd" d="M72.1517 423.933C69.7798 423.933 67.855 422.034 67.855 419.689C67.855 417.343 69.7798 415.438 72.1517 415.438H77.1457C79.5183 415.438 81.4418 417.343 81.4418 419.689C81.4418 422.034 79.5183 423.933 77.1457 423.933H72.1517ZM77.0347 422.434C78.5714 422.434 79.8159 421.207 79.8159 419.689C79.8159 418.17 78.5714 416.936 77.0347 416.936H72.2621C70.7261 416.936 69.4808 418.17 69.4808 419.689C69.4808 421.207 70.7261 422.434 72.2621 422.434H77.0347Z" fill="#FF0000"/>
<path d="M73.6277 426.339H74.6058L74.0886 425.474L73.1394 427.038H72.7075L73.862 425.16C73.9121 425.084 73.9958 425.038 74.0886 425.038C74.1783 425.038 74.262 425.082 74.3107 425.157L75.4697 427.038H75.0378L74.834 426.689H73.8437L73.6277 426.339H73.6277ZM78.1149 426.689V425.057H77.7483V426.849C77.7483 426.898 77.7666 426.945 77.8016 426.981C77.8365 427.018 77.8837 427.038 77.9354 427.038H79.6071L79.8231 426.689H78.1149L78.1149 426.689ZM72.0503 426.396C72.4063 426.396 72.6953 426.097 72.6953 425.727C72.6953 425.357 72.4063 425.057 72.0503 425.057H70.4467V427.038H70.8131V425.407H72.026C72.1964 425.407 72.3333 425.55 72.3333 425.728C72.3333 425.905 72.1964 426.048 72.026 426.048L70.9926 426.047L72.0868 427.038H72.6192L71.883 426.396H72.0504L72.0503 426.396ZM68.1909 427.038C67.6648 427.038 67.2378 426.596 67.2378 426.048C67.2378 425.501 67.6648 425.057 68.1909 425.057H69.2987C69.825 425.057 70.2517 425.501 70.2517 426.048C70.2517 426.596 69.825 427.038 69.2987 427.038H68.1909ZM69.2741 426.689C69.615 426.689 69.891 426.403 69.891 426.048C69.891 425.694 69.615 425.407 69.2741 425.407H68.2154C67.8747 425.407 67.5985 425.694 67.5985 426.048C67.5985 426.403 67.8747 426.689 68.2154 426.689H69.2741H69.2741ZM76.2349 427.038C75.7086 427.038 75.2811 426.596 75.2811 426.048C75.2811 425.501 75.7086 425.057 76.2349 425.057H77.5506L77.3361 425.407H76.2592C75.9185 425.407 75.6416 425.694 75.6416 426.048C75.6416 426.403 75.9185 426.689 76.2592 426.689H77.581L77.365 427.038H76.2349ZM80.7175 426.689C80.4361 426.689 80.1973 426.493 80.1243 426.222H81.691L81.907 425.873H80.1243C80.1973 425.604 80.4361 425.407 80.7175 425.407H81.7929L82.0104 425.057H80.6931C80.1668 425.057 79.7394 425.501 79.7394 426.048C79.7394 426.596 80.1668 427.038 80.6931 427.038H81.8233L82.0393 426.689H80.7175H80.7175Z" fill="#FF0000"/>
<path d="M142.505 382.44C139.623 381.852 137.37 379.657 136.766 376.849C136.73 376.682 136.636 376.532 136.5 376.424C136.363 376.317 136.193 376.258 136.018 376.258C135.842 376.258 135.672 376.317 135.536 376.424C135.4 376.532 135.306 376.682 135.27 376.849C134.666 379.657 132.413 381.852 129.531 382.44C129.359 382.475 129.205 382.567 129.095 382.699C128.984 382.832 128.924 382.998 128.924 383.168C128.924 383.339 128.984 383.505 129.095 383.638C129.205 383.77 129.359 383.862 129.531 383.897C132.413 384.486 134.666 386.68 135.27 389.488C135.306 389.655 135.4 389.805 135.536 389.913C135.672 390.021 135.842 390.079 136.018 390.079C136.193 390.079 136.363 390.021 136.499 389.913C136.636 389.805 136.73 389.655 136.766 389.488C137.37 386.68 139.623 384.486 142.505 383.897C142.676 383.862 142.83 383.771 142.941 383.638C143.052 383.505 143.112 383.34 143.112 383.169C143.112 382.998 143.052 382.832 142.941 382.699C142.831 382.567 142.676 382.475 142.505 382.44ZM142.69 394.736C141.332 394.459 140.271 393.425 139.986 392.102C139.95 391.935 139.856 391.785 139.72 391.677C139.584 391.57 139.414 391.511 139.238 391.511C139.063 391.511 138.893 391.569 138.757 391.677C138.62 391.785 138.526 391.935 138.49 392.102C138.206 393.425 137.144 394.459 135.786 394.736C135.615 394.772 135.461 394.863 135.35 394.996C135.24 395.128 135.179 395.294 135.179 395.465C135.179 395.636 135.24 395.801 135.35 395.934C135.461 396.067 135.615 396.158 135.786 396.193C137.144 396.471 138.206 397.505 138.49 398.828C138.526 398.995 138.62 399.145 138.757 399.253C138.893 399.36 139.063 399.419 139.238 399.419C139.414 399.419 139.584 399.36 139.72 399.253C139.856 399.145 139.95 398.995 139.986 398.828C140.271 397.505 141.332 396.471 142.69 396.193C142.862 396.158 143.016 396.067 143.126 395.934C143.237 395.801 143.297 395.636 143.297 395.465C143.297 395.294 143.237 395.128 143.126 394.996C143.016 394.863 142.862 394.772 142.69 394.736ZM151.142 387.845C149.307 387.47 147.872 386.072 147.487 384.284C147.451 384.117 147.357 383.967 147.221 383.859C147.085 383.751 146.915 383.693 146.74 383.693C146.564 383.693 146.394 383.751 146.258 383.859C146.122 383.967 146.028 384.117 145.992 384.284C145.607 386.072 144.172 387.47 142.337 387.845C142.165 387.88 142.011 387.971 141.901 388.104C141.79 388.236 141.73 388.402 141.73 388.573C141.73 388.744 141.79 388.91 141.901 389.042C142.011 389.175 142.165 389.266 142.337 389.302C144.172 389.676 145.607 391.074 145.992 392.862C146.028 393.029 146.122 393.179 146.258 393.287C146.394 393.395 146.564 393.454 146.739 393.454C146.915 393.454 147.085 393.395 147.221 393.287C147.357 393.179 147.451 393.029 147.487 392.862C147.872 391.074 149.307 389.676 151.142 389.302C151.314 389.267 151.468 389.175 151.579 389.042C151.689 388.91 151.75 388.744 151.75 388.573C151.75 388.402 151.689 388.237 151.579 388.104C151.468 387.971 151.314 387.88 151.142 387.845Z" fill="#6762FE"/>
</g>
<defs>
<filter id="filter0_f_4251_3008" x="93.0065" y="340.006" width="93.9884" height="93.9884" filterUnits="userSpaceOnUse" color-interpolation-filters="sRGB">
<feFlood flood-opacity="0" result="BackgroundImageFix"/>
<feBlend mode="normal" in="SourceGraphic" in2="BackgroundImageFix" result="shape"/>
<feGaussianBlur stdDeviation="9.39883" result="effect1_foregroundBlur_4251_3008"/>
</filter>
<filter id="filter1_f_4251_3008" x="111.804" y="288.983" width="62.7706" height="62.7706" filterUnits="userSpaceOnUse" color-interpolation-filters="sRGB">
<feFlood flood-opacity="0" result="BackgroundImageFix"/>
<feBlend mode="normal" in="SourceGraphic" in2="BackgroundImageFix" result="shape"/>
<feGaussianBlur stdDeviation="9.39883" result="effect1_foregroundBlur_4251_3008"/>
</filter>
<filter id="filter2_f_4251_3008" x="111.804" y="428.623" width="62.7706" height="62.7706" filterUnits="userSpaceOnUse" color-interpolation-filters="sRGB">
<feFlood flood-opacity="0" result="BackgroundImageFix"/>
<feBlend mode="normal" in="SourceGraphic" in2="BackgroundImageFix" result="shape"/>
<feGaussianBlur stdDeviation="9.39883" result="effect1_foregroundBlur_4251_3008"/>
</filter>
<filter id="filter3_f_4251_3008" x="177.596" y="325.237" width="62.7706" height="62.7706" filterUnits="userSpaceOnUse" color-interpolation-filters="sRGB">
<feFlood flood-opacity="0" result="BackgroundImageFix"/>
<feBlend mode="normal" in="SourceGraphic" in2="BackgroundImageFix" result="shape"/>
<feGaussianBlur stdDeviation="9.39883" result="effect1_foregroundBlur_4251_3008"/>
</filter>
<filter id="filter4_f_4251_3008" x="47.3547" y="325.237" width="62.7706" height="62.7706" filterUnits="userSpaceOnUse" color-interpolation-filters="sRGB">
<feFlood flood-opacity="0" result="BackgroundImageFix"/>
<feBlend mode="normal" in="SourceGraphic" in2="BackgroundImageFix" result="shape"/>
<feGaussianBlur stdDeviation="9.39883" result="effect1_foregroundBlur_4251_3008"/>
</filter>
<filter id="filter5_f_4251_3008" x="177.596" y="393.714" width="62.7706" height="62.7706" filterUnits="userSpaceOnUse" color-interpolation-filters="sRGB">
<feFlood flood-opacity="0" result="BackgroundImageFix"/>
<feBlend mode="normal" in="SourceGraphic" in2="BackgroundImageFix" result="shape"/>
<feGaussianBlur stdDeviation="9.39883" result="effect1_foregroundBlur_4251_3008"/>
</filter>
<filter id="filter6_f_4251_3008" x="47.3547" y="393.714" width="62.7706" height="62.7706" filterUnits="userSpaceOnUse" color-interpolation-filters="sRGB">
<feFlood flood-opacity="0" result="BackgroundImageFix"/>
<feBlend mode="normal" in="SourceGraphic" in2="BackgroundImageFix" result="shape"/>
<feGaussianBlur stdDeviation="9.39883" result="effect1_foregroundBlur_4251_3008"/>
</filter>
<linearGradient id="paint0_linear_4251_3008" x1="69.8452" y1="387" x2="221.905" y2="387" gradientUnits="userSpaceOnUse">
<stop stop-color="#6762FE"/>
<stop offset="1" stop-color="#0055FF" stop-opacity="0.05"/>
</linearGradient>
<linearGradient id="paint1_linear_4251_3008" x1="247.822" y1="387" x2="32.1788" y2="387" gradientUnits="userSpaceOnUse">
<stop stop-color="#6762FE" stop-opacity="0.5"/>
<stop offset="1" stop-color="#CCD0FE" stop-opacity="0.7"/>
</linearGradient>
<linearGradient id="paint2_linear_4251_3008" x1="15" y1="387" x2="265" y2="387" gradientUnits="userSpaceOnUse">
<stop stop-color="#6762FE" stop-opacity="0.5"/>
<stop offset="1" stop-color="#CCD0FE" stop-opacity="0.7"/>
</linearGradient>
<linearGradient id="paint3_linear_4251_3008" x1="138.59" y1="451.207" x2="134.869" y2="462.431" gradientUnits="userSpaceOnUse">
<stop stop-color="#084284"/>
<stop offset="1" stop-color="#0669BC"/>
</linearGradient>
<linearGradient id="paint4_linear_4251_3008" x1="139.797" y1="456.416" x2="138.907" y2="456.723" gradientUnits="userSpaceOnUse">
<stop stop-opacity="0.3"/>
<stop offset="0.071" stop-opacity="0.2"/>
<stop offset="0.321" stop-opacity="0.1"/>
<stop offset="0.623" stop-opacity="0.05"/>
<stop offset="1" stop-opacity="0"/>
</linearGradient>
<linearGradient id="paint5_linear_4251_3008" x1="139.306" y1="450.881" x2="143.395" y2="462.001" gradientUnits="userSpaceOnUse">
<stop stop-color="#33D2FF"/>
<stop offset="1" stop-color="#0094FF"/>
</linearGradient>
<clipPath id="clip0_4251_3008">
<rect width="280" height="512" rx="11" fill="white"/>
</clipPath>
<clipPath id="clip1_4251_3008">
<rect width="15.7863" height="15.3546" fill="white" transform="translate(67.1499 345.084)"/>
</clipPath>
<clipPath id="clip2_4251_3008">
<rect width="17.788" height="11.1175" fill="white" transform="translate(130.435 311.192)"/>
</clipPath>
<clipPath id="clip3_4251_3008">
<rect width="17.253" height="12.1786" fill="white" transform="translate(196.904 346.96)"/>
</clipPath>
</defs>
</svg>
