<svg width="1240" height="450" viewBox="0 0 1240 450" fill="none" xmlns="http://www.w3.org/2000/svg">
<g clip-path="url(#clip0_4251_1115)">
<rect width="1240" height="449.5" rx="38.75" fill="#F9FAFC"/>
<path fill-rule="evenodd" clip-rule="evenodd" d="M918 143.73C896.411 143.73 876.638 151.179 861.001 163.709C857.7 166.354 852.871 166.252 849.961 163.182L799.03 109.446C796.12 106.376 796.239 101.515 799.43 98.7378C831.128 71.1406 872.648 54.3745 918 54.3745C1017.76 54.3745 1098.63 135.243 1098.63 235C1098.63 334.757 1017.76 415.626 918 415.626C872.648 415.626 831.128 398.86 799.43 371.263C796.239 368.485 796.12 363.624 799.03 360.554L849.961 306.818C852.871 303.748 857.7 303.647 861.001 306.292C876.638 318.822 896.411 326.271 918 326.271C968.407 326.271 1009.27 285.407 1009.27 235C1009.27 184.593 968.407 143.73 918 143.73Z" fill="#DCE7FD" fill-opacity="0.3"/>
<circle cx="917.362" cy="235" r="131.799" stroke="url(#paint0_linear_4251_1115)" stroke-opacity="0.5" stroke-width="1.91476" stroke-dasharray="9.57 9.57"/>
<path d="M687.389 249.329C687.196 246.167 687.066 242.987 687.001 239.792L687.958 239.772C687.926 238.186 687.91 236.595 687.91 235C687.91 233.405 687.926 231.815 687.958 230.228L687.001 230.208C687.066 227.013 687.196 223.833 687.389 220.671L688.345 220.729C688.539 217.554 688.798 214.397 689.12 211.258L688.167 211.16C688.493 207.979 688.884 204.816 689.338 201.675L690.285 201.811C690.74 198.661 691.259 195.532 691.841 192.424L690.9 192.248C691.487 189.109 692.138 185.992 692.851 182.899L693.784 183.114C694.498 180.016 695.274 176.942 696.112 173.894L695.189 173.64C696.034 170.563 696.941 167.512 697.909 164.488L698.821 164.78C699.79 161.755 700.819 158.756 701.908 155.787L701.009 155.458C702.108 152.461 703.267 149.494 704.484 146.558L705.369 146.925C706.585 143.99 707.861 141.086 709.194 138.215L708.326 137.812C709.669 134.919 711.07 132.06 712.527 129.234L713.378 129.673C714.834 126.851 716.345 124.064 717.912 121.312L717.08 120.838C718.657 118.069 720.29 115.335 721.977 112.639L722.788 113.147C724.471 110.456 726.208 107.804 727.997 105.189L727.207 104.649C729.007 102.02 730.859 99.4299 732.763 96.8806L733.53 97.4535C735.429 94.9115 737.379 92.4101 739.378 89.9507L738.635 89.3467C740.645 86.8754 742.704 84.4464 744.812 82.0613L745.529 82.6952C747.629 80.3189 749.778 77.9863 751.973 75.6989L751.282 75.036C753.487 72.7388 755.739 70.4872 758.036 68.2825L758.699 68.9733C760.986 66.778 763.319 64.6295 765.695 62.5295L765.061 61.8121C767.446 59.7042 769.875 57.6448 772.347 55.6355L772.951 56.3784C775.41 54.3788 777.911 52.429 780.453 50.5305L779.881 49.7635C782.43 47.8596 785.02 46.007 787.649 44.2075L788.189 44.9975C790.804 43.208 793.456 41.4712 796.147 39.7884L795.639 38.9767C798.335 37.29 801.069 35.6574 803.838 34.0804L804.312 34.9124C807.064 33.3454 809.851 31.8336 812.673 30.3784L812.234 29.5275C815.06 28.0699 817.919 26.669 820.812 25.3262L821.215 26.1945C824.086 24.8612 826.99 23.5854 829.924 22.3686L829.558 21.4842C832.494 20.2665 835.461 19.1076 838.457 18.009L838.787 18.9078C841.756 17.819 844.754 16.7897 847.78 15.8213L847.488 14.9094C850.512 13.9414 853.563 13.034 856.64 12.1885L856.894 13.1117C859.942 12.2741 863.016 11.4976 866.113 10.7837L865.898 9.85073C868.992 9.13778 872.109 8.48699 875.248 7.89965L875.424 8.84069C878.532 8.25933 881.661 7.74047 884.811 7.28539L884.674 6.33785C887.816 5.88396 890.979 5.49331 894.16 5.1672L894.258 6.11959C897.397 5.79781 900.554 5.53917 903.729 5.3449L903.671 4.3893C906.833 4.19582 910.013 4.06591 913.208 4.0009L913.228 4.95809C914.815 4.9258 916.405 4.90956 918 4.90956C919.595 4.90956 921.185 4.9258 922.772 4.95809L922.792 4.0009C925.987 4.06591 929.167 4.19579 932.329 4.38927L932.271 5.34487C935.446 5.53914 938.603 5.79781 941.742 6.11955L941.84 5.16719C945.021 5.4933 948.184 5.88393 951.326 6.33782L951.189 7.28536C954.339 7.74043 957.468 8.25932 960.576 8.84068L960.752 7.89961C963.891 8.48695 967.008 9.1378 970.102 9.85072L969.887 10.7836C972.984 11.4976 976.058 12.2741 979.106 13.1117L979.36 12.1885C982.437 13.0339 985.488 13.9414 988.512 14.9094L988.22 15.8212C991.246 16.7897 994.244 17.819 997.213 18.9078L997.543 18.0089C1000.54 19.1076 1003.51 20.2665 1006.44 21.4842L1006.08 22.3685C1009.01 23.5854 1011.91 24.8612 1014.79 26.1945L1015.19 25.3261C1018.08 26.669 1020.94 28.0699 1023.77 29.5274L1023.33 30.3783C1026.15 31.8335 1028.94 33.3453 1031.69 34.9123L1032.16 34.0804C1034.93 35.6574 1037.66 37.29 1040.36 38.9767L1039.85 39.7883C1042.54 41.4711 1045.2 43.208 1047.81 44.9974L1048.35 44.2074C1050.98 46.007 1053.57 47.8595 1056.12 49.7634L1055.55 50.5305C1058.09 52.4289 1060.59 54.3787 1063.05 56.3783L1063.65 55.6355C1066.12 57.6448 1068.55 59.7041 1070.94 61.812L1070.3 62.5294C1072.68 64.6295 1075.01 66.7779 1077.3 68.9732L1077.96 68.2824C1080.26 70.4871 1082.51 72.7388 1084.72 75.0359L1084.03 75.6989C1086.22 77.9862 1088.37 80.3188 1090.47 82.6952L1091.19 82.0612C1093.3 84.4463 1095.36 86.8753 1097.36 89.3467L1096.62 89.9506C1098.62 92.41 1100.57 94.9114 1102.47 97.4534L1103.24 96.8806C1105.14 99.4298 1106.99 102.02 1108.79 104.649L1108 105.189C1109.79 107.804 1111.53 110.456 1113.21 113.147L1114.02 112.639C1115.71 115.335 1117.34 118.069 1118.92 120.838L1118.09 121.312C1119.65 124.064 1121.17 126.851 1122.62 129.673L1123.47 129.234C1124.93 132.06 1126.33 134.919 1127.67 137.812L1126.81 138.215C1128.14 141.086 1129.41 143.99 1130.63 146.924L1131.52 146.558C1132.73 149.494 1133.89 152.461 1134.99 155.457L1134.09 155.787C1135.18 158.756 1136.21 161.754 1137.18 164.78L1138.09 164.488C1139.06 167.512 1139.97 170.563 1140.81 173.64L1139.89 173.894C1140.73 176.942 1141.5 180.016 1142.22 183.113L1143.15 182.898C1143.86 185.992 1144.51 189.109 1145.1 192.248L1144.16 192.424C1144.74 195.532 1145.26 198.661 1145.71 201.811L1146.66 201.674C1147.12 204.816 1147.51 207.979 1147.83 211.16L1146.88 211.258C1147.2 214.397 1147.46 217.554 1147.66 220.729L1148.61 220.671C1148.8 223.833 1148.93 227.013 1149 230.208L1148.04 230.228C1148.07 231.815 1148.09 233.405 1148.09 235C1148.09 236.595 1148.07 238.185 1148.04 239.772L1149 239.792C1148.93 242.987 1148.8 246.167 1148.61 249.329L1147.66 249.271C1147.46 252.446 1147.2 255.603 1146.88 258.742L1147.83 258.84C1147.51 262.021 1147.12 265.184 1146.66 268.326L1145.71 268.189C1145.26 271.339 1144.74 274.468 1144.16 277.576L1145.1 277.752C1144.51 280.891 1143.86 284.008 1143.15 287.102L1142.22 286.887C1141.5 289.984 1140.73 293.058 1139.89 296.106L1140.81 296.36C1139.97 299.437 1139.06 302.488 1138.09 305.512L1137.18 305.22C1136.21 308.246 1135.18 311.244 1134.09 314.213L1134.99 314.543C1133.89 317.539 1132.73 320.506 1131.52 323.442L1130.63 323.076C1129.41 326.01 1128.14 328.914 1126.81 331.785L1127.67 332.188C1126.33 335.081 1124.93 337.94 1123.47 340.766L1122.62 340.327C1121.17 343.149 1119.65 345.936 1118.09 348.688L1118.92 349.162C1117.34 351.931 1115.71 354.665 1114.02 357.361L1113.21 356.853C1111.53 359.544 1109.79 362.196 1108 364.811L1108.79 365.351C1106.99 367.98 1105.14 370.57 1103.24 373.119L1102.47 372.547C1100.57 375.089 1098.62 377.59 1096.62 380.049L1097.36 380.653C1095.36 383.125 1093.3 385.554 1091.19 387.939L1090.47 387.305C1088.37 389.681 1086.22 392.014 1084.03 394.301L1084.72 394.964C1082.51 397.261 1080.26 399.513 1077.96 401.718L1077.3 401.027C1075.01 403.222 1072.68 405.371 1070.3 407.471L1070.94 408.188C1068.55 410.296 1066.12 412.355 1063.65 414.365L1063.05 413.622C1060.59 415.621 1058.09 417.571 1055.55 419.47L1056.12 420.237C1053.57 422.141 1050.98 423.993 1048.35 425.793L1047.81 425.003C1045.2 426.792 1042.54 428.529 1039.85 430.212L1040.36 431.023C1037.66 432.71 1034.93 434.343 1032.16 435.92L1031.69 435.088C1028.94 436.655 1026.15 438.167 1023.33 439.622L1023.77 440.473C1020.94 441.93 1018.08 443.331 1015.19 444.674L1014.79 443.806C1011.91 445.139 1009.01 446.415 1006.08 447.631L1006.44 448.516C1003.51 449.734 1000.54 450.892 997.543 451.991L997.213 451.092C994.244 452.181 991.246 453.21 988.22 454.179L988.512 455.091C985.488 456.059 982.437 456.966 979.36 457.812L979.107 456.888C976.058 457.726 972.984 458.502 969.887 459.216L970.102 460.149C967.008 460.862 963.891 461.513 960.752 462.1L960.576 461.159C957.468 461.741 954.339 462.26 951.189 462.715L951.326 463.662C948.184 464.116 945.022 464.507 941.84 464.833L941.742 463.88C938.604 464.202 935.446 464.461 932.271 464.655L932.329 465.611C929.167 465.804 925.987 465.934 922.792 465.999L922.772 465.042C921.186 465.074 919.595 465.09 918 465.09C916.405 465.09 914.815 465.074 913.228 465.042L913.208 465.999C910.013 465.934 906.833 465.804 903.671 465.611L903.729 464.655C900.554 464.461 897.397 464.202 894.258 463.88L894.16 464.833C890.979 464.507 887.816 464.116 884.674 463.662L884.811 462.715C881.661 462.26 878.532 461.741 875.424 461.159L875.248 462.1C872.109 461.513 868.992 460.862 865.898 460.149L866.113 459.216C863.016 458.502 859.942 457.726 856.894 456.888L856.64 457.812C853.563 456.966 850.512 456.059 847.488 455.091L847.78 454.179C844.754 453.21 841.756 452.181 838.787 451.092L838.458 451.991C835.461 450.892 832.494 449.734 829.558 448.516L829.924 447.631C826.99 446.415 824.086 445.139 821.215 443.806L820.812 444.674C817.919 443.331 815.06 441.93 812.234 440.473L812.673 439.622C809.851 438.167 807.064 436.655 804.312 435.088L803.838 435.92C801.069 434.343 798.335 432.71 795.639 431.023L796.147 430.212C793.456 428.529 790.804 426.792 788.189 425.003L787.649 425.793C785.02 423.993 782.43 422.141 779.881 420.237L780.454 419.47C777.912 417.571 775.41 415.621 772.951 413.622L772.347 414.365C769.875 412.355 767.446 410.296 765.061 408.188L765.695 407.471C763.319 405.371 760.986 403.222 758.699 401.027L758.036 401.718C755.739 399.513 753.487 397.261 751.283 394.964L751.973 394.301C749.778 392.014 747.63 389.681 745.529 387.305L744.812 387.939C742.704 385.554 740.645 383.125 738.636 380.653L739.378 380.049C737.379 377.59 735.429 375.089 733.531 372.547L732.763 373.12C730.86 370.57 729.007 367.98 727.207 365.351L727.997 364.811C726.208 362.197 724.471 359.544 722.788 356.853L721.977 357.361C720.29 354.665 718.657 351.931 717.08 349.162L717.912 348.688C716.345 345.936 714.834 343.149 713.378 340.327L712.527 340.766C711.07 337.94 709.669 335.081 708.326 332.188L709.195 331.785C707.861 328.914 706.585 326.01 705.369 323.076L704.484 323.442C703.267 320.506 702.108 317.539 701.009 314.543L701.908 314.213C700.819 311.244 699.79 308.246 698.821 305.22L697.909 305.512C696.941 302.488 696.034 299.437 695.189 296.36L696.112 296.107C695.274 293.058 694.498 289.984 693.784 286.887L692.851 287.102C692.138 284.008 691.487 280.891 690.9 277.752L691.841 277.576C691.259 274.468 690.74 271.339 690.285 268.189L689.338 268.326C688.884 265.184 688.493 262.022 688.167 258.84L689.12 258.742C688.798 255.604 688.539 252.446 688.345 249.271L687.389 249.329Z" stroke="url(#paint1_linear_4251_1115)" stroke-opacity="0.5" stroke-width="1.91476" stroke-dasharray="9.57 9.57"/>
<circle cx="918" cy="235" r="306.043" transform="rotate(180 918 235)" stroke="url(#paint2_linear_4251_1115)" stroke-opacity="0.5" stroke-width="1.91476" stroke-dasharray="9.57 9.57"/>
<g opacity="0.2" filter="url(#filter0_f_4251_1115)">
<circle cx="918" cy="235" r="53.6133" fill="#B4C7ED"/>
</g>
<circle cx="918" cy="235" r="53.6133" fill="white"/>
<circle cx="918" cy="235" r="53.6133" fill="white"/>
<g filter="url(#filter1_f_4251_1115)">
<rect x="900.129" y="84.3721" width="47.869" height="47.869" rx="12.1268" fill="#B4C7ED"/>
</g>
<rect x="887.364" y="71.6069" width="58.7193" height="58.7193" rx="12.1268" fill="white"/>
<g filter="url(#filter2_f_4251_1115)">
<rect x="900.129" y="349.886" width="47.869" height="47.869" rx="12.1268" fill="#B4C7ED"/>
</g>
<rect x="887.364" y="337.121" width="58.7193" height="58.7193" rx="12.1268" fill="white"/>
<g filter="url(#filter3_f_4251_1115)">
<rect x="1025.23" y="153.304" width="47.869" height="47.869" rx="12.1268" fill="#B4C7ED"/>
</g>
<rect x="1012.46" y="140.538" width="58.7193" height="58.7193" rx="12.1268" fill="white"/>
<g filter="url(#filter4_f_4251_1115)">
<rect x="777.584" y="153.304" width="47.869" height="47.869" rx="12.1268" fill="#B4C7ED"/>
</g>
<rect x="764.819" y="140.538" width="58.7193" height="58.7193" rx="12.1268" fill="white"/>
<g clip-path="url(#clip1_4251_1115)">
<path d="M789.105 184.019C788.408 184.019 787.75 183.71 787.304 183.148L780.526 174.724C780.081 174.163 779.907 173.446 780.081 172.749L782.502 162.233C782.657 161.536 783.121 160.975 783.76 160.665L793.559 155.978C793.869 155.824 794.218 155.746 794.566 155.746C794.915 155.746 795.263 155.824 795.573 155.978L805.372 160.646C806.011 160.955 806.476 161.517 806.631 162.214L809.052 172.73C809.207 173.427 809.052 174.143 808.606 174.705L801.828 183.129C801.383 183.671 800.724 184 800.027 184L789.105 184.019Z" fill="#326DE6"/>
<path d="M794.546 156.23C794.818 156.23 795.089 156.288 795.34 156.404L805.139 161.071C805.643 161.323 806.03 161.788 806.146 162.33L808.567 172.845C808.702 173.407 808.567 173.988 808.199 174.433L801.421 182.857C801.073 183.303 800.53 183.554 799.969 183.554H789.105C788.543 183.554 788.001 183.303 787.652 182.857L780.874 174.433C780.526 173.988 780.39 173.407 780.507 172.845L782.927 162.33C783.063 161.768 783.431 161.304 783.934 161.071L793.733 156.385C793.985 156.288 794.275 156.23 794.546 156.23ZM794.546 155.32C794.14 155.32 793.733 155.417 793.346 155.591L783.547 160.277C782.772 160.645 782.23 161.323 782.036 162.156L779.616 172.671C779.422 173.504 779.616 174.356 780.158 175.034L786.936 183.458C787.459 184.116 788.253 184.484 789.085 184.484H799.949C800.782 184.484 801.576 184.116 802.099 183.458L808.877 175.034C809.419 174.375 809.613 173.504 809.419 172.671L806.998 162.156C806.805 161.323 806.262 160.645 805.488 160.277L795.728 155.591C795.36 155.417 794.953 155.32 794.546 155.32Z" fill="white"/>
<path d="M804.36 172.328C804.341 172.328 804.341 172.328 804.36 172.328H804.341C804.321 172.328 804.302 172.328 804.302 172.309C804.263 172.309 804.225 172.29 804.186 172.29C804.05 172.27 803.934 172.251 803.818 172.251C803.76 172.251 803.702 172.251 803.624 172.232H803.605C803.198 172.193 802.869 172.154 802.559 172.057C802.424 171.999 802.385 171.922 802.346 171.844C802.346 171.825 802.327 171.825 802.327 171.806L802.075 171.728C802.191 170.837 802.152 169.908 801.939 168.998C801.726 168.087 801.358 167.235 800.855 166.461L801.049 166.286V166.248C801.049 166.151 801.068 166.054 801.145 165.957C801.378 165.744 801.668 165.57 802.017 165.357C802.075 165.318 802.133 165.299 802.191 165.26C802.307 165.202 802.404 165.144 802.52 165.066C802.54 165.047 802.578 165.028 802.617 164.989C802.637 164.97 802.656 164.97 802.656 164.95C802.927 164.718 802.985 164.331 802.792 164.079C802.695 163.943 802.52 163.866 802.346 163.866C802.191 163.866 802.056 163.924 801.92 164.021C801.901 164.04 801.901 164.04 801.881 164.059C801.843 164.079 801.823 164.118 801.785 164.137C801.688 164.234 801.61 164.311 801.533 164.408C801.494 164.447 801.455 164.505 801.397 164.544C801.126 164.834 800.874 165.066 800.623 165.241C800.564 165.279 800.506 165.299 800.448 165.299C800.41 165.299 800.371 165.299 800.332 165.279H800.293L800.061 165.434C799.809 165.163 799.538 164.931 799.267 164.698C798.105 163.788 796.691 163.227 795.22 163.091L795.2 162.839C795.181 162.82 795.181 162.82 795.162 162.801C795.103 162.743 795.026 162.684 795.007 162.549C794.987 162.239 795.026 161.89 795.065 161.503V161.484C795.065 161.426 795.084 161.348 795.103 161.29C795.123 161.174 795.142 161.058 795.162 160.922V160.806V160.748C795.162 160.399 794.89 160.109 794.561 160.109C794.406 160.109 794.251 160.186 794.135 160.303C794.019 160.419 793.961 160.574 793.961 160.748V160.787V160.903C793.961 161.038 793.98 161.155 794.019 161.271C794.038 161.329 794.038 161.387 794.058 161.464V161.484C794.096 161.871 794.155 162.22 794.116 162.53C794.096 162.665 794.019 162.723 793.961 162.781C793.942 162.801 793.942 162.801 793.922 162.82L793.903 163.072C793.554 163.111 793.206 163.149 792.857 163.227C791.366 163.556 790.049 164.311 789.023 165.396L788.829 165.26H788.79C788.752 165.26 788.713 165.279 788.674 165.279C788.616 165.279 788.558 165.26 788.5 165.221C788.248 165.047 787.996 164.795 787.725 164.505C787.687 164.466 787.648 164.408 787.59 164.369C787.512 164.272 787.435 164.195 787.338 164.098C787.319 164.079 787.28 164.059 787.241 164.021C787.222 164.001 787.202 164.001 787.202 163.982C787.086 163.885 786.931 163.827 786.776 163.827C786.602 163.827 786.428 163.904 786.331 164.04C786.137 164.292 786.195 164.679 786.467 164.911C786.486 164.911 786.486 164.931 786.505 164.931C786.544 164.95 786.563 164.989 786.602 165.008C786.718 165.086 786.815 165.144 786.931 165.202C786.989 165.221 787.047 165.26 787.106 165.299C787.454 165.512 787.745 165.686 787.977 165.899C788.074 165.996 788.074 166.093 788.074 166.19V166.228L788.267 166.403C788.229 166.461 788.19 166.499 788.171 166.558C787.202 168.087 786.834 169.888 787.086 171.67L786.834 171.747C786.834 171.767 786.815 171.767 786.815 171.786C786.776 171.864 786.718 171.941 786.602 171.999C786.312 172.096 785.963 172.135 785.556 172.173H785.537C785.479 172.173 785.401 172.173 785.343 172.193C785.227 172.193 785.111 172.212 784.975 172.232C784.937 172.232 784.898 172.251 784.859 172.251C784.84 172.251 784.82 172.251 784.801 172.27C784.453 172.348 784.24 172.677 784.298 172.987C784.356 173.258 784.607 173.432 784.917 173.432C784.975 173.432 785.014 173.432 785.072 173.413C785.092 173.413 785.111 173.413 785.111 173.394C785.15 173.394 785.188 173.374 785.227 173.374C785.363 173.335 785.46 173.297 785.576 173.239C785.634 173.219 785.692 173.18 785.75 173.161H785.769C786.137 173.026 786.467 172.909 786.776 172.871H786.815C786.931 172.871 787.009 172.929 787.067 172.967C787.086 172.967 787.086 172.987 787.106 172.987L787.377 172.948C787.841 174.381 788.732 175.659 789.914 176.589C790.185 176.802 790.456 176.976 790.746 177.15L790.63 177.402C790.63 177.422 790.649 177.422 790.649 177.441C790.688 177.518 790.727 177.615 790.688 177.751C790.572 178.041 790.398 178.332 790.185 178.661V178.68C790.146 178.738 790.107 178.777 790.068 178.835C789.991 178.932 789.933 179.029 789.855 179.145C789.836 179.164 789.817 179.203 789.797 179.242C789.797 179.261 789.778 179.281 789.778 179.281C789.623 179.61 789.739 179.978 790.03 180.113C790.107 180.152 790.185 180.171 790.262 180.171C790.495 180.171 790.727 180.016 790.843 179.803C790.843 179.784 790.862 179.765 790.862 179.765C790.882 179.726 790.901 179.687 790.921 179.668C790.979 179.532 790.998 179.436 791.037 179.319C791.056 179.261 791.075 179.203 791.095 179.145C791.23 178.758 791.327 178.448 791.502 178.177C791.579 178.061 791.676 178.041 791.753 178.002C791.773 178.002 791.773 178.002 791.792 177.983L791.928 177.731C792.78 178.061 793.709 178.235 794.639 178.235C795.2 178.235 795.781 178.177 796.323 178.041C796.672 177.964 797.001 177.867 797.33 177.751L797.447 177.964C797.466 177.964 797.466 177.964 797.485 177.983C797.582 178.002 797.66 178.041 797.737 178.157C797.892 178.429 798.008 178.758 798.144 179.126V179.145C798.163 179.203 798.183 179.261 798.202 179.319C798.241 179.436 798.26 179.552 798.318 179.668C798.337 179.707 798.357 179.726 798.376 179.765C798.376 179.784 798.396 179.803 798.396 179.803C798.512 180.036 798.744 180.171 798.977 180.171C799.054 180.171 799.131 180.152 799.209 180.113C799.344 180.036 799.461 179.92 799.499 179.765C799.538 179.61 799.538 179.436 799.461 179.281C799.461 179.261 799.441 179.261 799.441 179.242C799.422 179.203 799.403 179.164 799.383 179.145C799.325 179.029 799.248 178.932 799.17 178.835C799.131 178.777 799.093 178.738 799.054 178.68V178.661C798.841 178.332 798.647 178.041 798.55 177.751C798.512 177.615 798.55 177.538 798.57 177.441C798.57 177.422 798.589 177.422 798.589 177.402L798.492 177.17C799.519 176.569 800.39 175.717 801.049 174.672C801.397 174.129 801.668 173.529 801.862 172.929L802.094 172.967C802.114 172.967 802.114 172.948 802.133 172.948C802.211 172.909 802.269 172.851 802.385 172.851H802.424C802.733 172.89 803.063 173.006 803.431 173.142H803.45C803.508 173.161 803.566 173.2 803.624 173.219C803.74 173.277 803.837 173.316 803.973 173.355C804.012 173.355 804.05 173.374 804.089 173.374C804.108 173.374 804.128 173.374 804.147 173.394C804.205 173.413 804.244 173.413 804.302 173.413C804.592 173.413 804.844 173.219 804.922 172.967C804.922 172.735 804.709 172.425 804.36 172.328ZM795.394 171.38L794.542 171.786L793.69 171.38L793.477 170.469L794.058 169.733H795.007L795.588 170.469L795.394 171.38ZM800.448 169.366C800.603 170.024 800.642 170.682 800.584 171.321L797.621 170.469C797.35 170.392 797.195 170.121 797.253 169.85C797.272 169.772 797.311 169.695 797.369 169.637L799.712 167.526C800.042 168.068 800.293 168.688 800.448 169.366ZM798.783 166.364L796.246 168.165C796.033 168.3 795.743 168.262 795.568 168.049C795.51 167.991 795.491 167.913 795.471 167.836L795.297 164.679C796.633 164.834 797.853 165.434 798.783 166.364ZM793.167 164.776C793.38 164.737 793.574 164.698 793.787 164.66L793.612 167.758C793.593 168.029 793.38 168.262 793.089 168.262C793.012 168.262 792.915 168.242 792.857 168.204L790.281 166.364C791.075 165.57 792.063 165.028 793.167 164.776ZM789.352 167.526L791.656 169.579C791.869 169.753 791.889 170.082 791.715 170.295C791.656 170.373 791.579 170.431 791.482 170.45L788.481 171.321C788.364 170.005 788.655 168.668 789.352 167.526ZM788.829 172.774L791.908 172.251C792.16 172.232 792.392 172.406 792.45 172.658C792.47 172.774 792.47 172.871 792.431 172.967L791.25 175.814C790.165 175.117 789.294 174.052 788.829 172.774ZM795.897 176.628C795.452 176.724 795.007 176.782 794.542 176.782C793.864 176.782 793.206 176.666 792.586 176.473L794.116 173.703C794.271 173.529 794.523 173.452 794.736 173.568C794.832 173.626 794.91 173.703 794.968 173.781L796.459 176.473C796.285 176.531 796.091 176.569 795.897 176.628ZM799.674 173.936C799.19 174.71 798.55 175.33 797.815 175.814L796.595 172.89C796.536 172.658 796.633 172.406 796.866 172.29C796.943 172.251 797.04 172.232 797.137 172.232L800.235 172.754C800.119 173.18 799.925 173.568 799.674 173.936Z" fill="white"/>
</g>
<g filter="url(#filter5_f_4251_1115)">
<rect x="1025.23" y="283.507" width="47.869" height="47.869" rx="12.1268" fill="#B4C7ED"/>
</g>
<rect x="1012.46" y="270.742" width="58.7193" height="58.7193" rx="12.1268" fill="white"/>
<g filter="url(#filter6_f_4251_1115)">
<rect x="777.584" y="283.507" width="47.869" height="47.869" rx="12.1268" fill="#B4C7ED"/>
</g>
<rect x="764.819" y="270.742" width="58.7193" height="58.7193" rx="12.1268" fill="white"/>
<path d="M1045.87 295.146H1046.71L1049.09 292.764L1049.21 291.752C1047.84 290.548 1046.19 289.711 1044.41 289.321C1042.64 288.931 1040.79 289.001 1039.04 289.524C1037.3 290.047 1035.72 291.005 1034.45 292.31C1033.18 293.614 1032.26 295.22 1031.78 296.977C1032.05 296.868 1032.34 296.851 1032.62 296.927L1037.39 296.141C1037.39 296.141 1037.63 295.74 1037.75 295.765C1038.77 294.644 1040.19 293.955 1041.7 293.84C1043.21 293.725 1044.71 294.192 1045.89 295.146H1045.87Z" fill="#EA4335"/>
<path d="M1052.48 296.978C1051.94 294.961 1050.81 293.148 1049.25 291.761L1045.9 295.105C1046.6 295.675 1047.16 296.395 1047.54 297.212C1047.92 298.028 1048.1 298.92 1048.09 299.82V300.414C1048.48 300.414 1048.86 300.49 1049.23 300.64C1049.59 300.79 1049.91 301.009 1050.19 301.285C1050.47 301.562 1050.69 301.89 1050.84 302.251C1050.99 302.612 1051.06 302.999 1051.06 303.39C1051.06 303.78 1050.99 304.167 1050.84 304.528C1050.69 304.89 1050.47 305.218 1050.19 305.494C1049.91 305.77 1049.59 305.989 1049.23 306.139C1048.86 306.289 1048.48 306.366 1048.09 306.366H1042.13L1041.54 306.967V310.537L1042.13 311.131H1048.09C1049.75 311.144 1051.37 310.621 1052.71 309.641C1054.05 308.66 1055.05 307.274 1055.54 305.687C1056.03 304.099 1056 302.395 1055.45 300.827C1054.9 299.259 1053.86 297.909 1052.48 296.978Z" fill="#4285F4"/>
<path d="M1036.17 311.097H1042.13V306.332H1036.17C1035.75 306.332 1035.33 306.241 1034.94 306.064L1034.11 306.324L1031.71 308.706L1031.5 309.542C1032.85 310.558 1034.49 311.104 1036.17 311.097Z" fill="#34A853"/>
<path d="M1036.17 295.639C1034.56 295.648 1032.99 296.161 1031.68 297.106C1030.38 298.051 1029.4 299.381 1028.88 300.909C1028.37 302.438 1028.34 304.089 1028.81 305.632C1029.28 307.175 1030.22 308.533 1031.5 309.516L1034.95 306.063C1034.51 305.865 1034.13 305.563 1033.83 305.184C1033.54 304.805 1033.34 304.359 1033.25 303.885C1033.16 303.412 1033.19 302.924 1033.34 302.465C1033.48 302.005 1033.73 301.587 1034.07 301.247C1034.41 300.906 1034.83 300.654 1035.29 300.51C1035.75 300.367 1036.24 300.337 1036.71 300.423C1037.19 300.51 1037.63 300.71 1038.01 301.006C1038.39 301.303 1038.69 301.687 1038.89 302.126L1042.34 298.673C1041.62 297.726 1040.68 296.959 1039.61 296.433C1038.54 295.906 1037.37 295.634 1036.17 295.639Z" fill="#FBBC05"/>
<path d="M912.742 355.451H919.813L912.472 376.757C912.397 376.976 912.253 377.167 912.062 377.301C911.87 377.436 911.64 377.509 911.404 377.509H905.901C905.722 377.509 905.546 377.467 905.387 377.387C905.228 377.307 905.091 377.191 904.987 377.049C904.882 376.907 904.814 376.742 904.788 376.569C904.761 376.396 904.777 376.219 904.834 376.053L911.673 356.202C911.749 355.983 911.892 355.793 912.084 355.658C912.276 355.523 912.506 355.451 912.742 355.451Z" fill="url(#paint3_linear_4251_1115)"/>
<path d="M923.017 369.742H911.804C911.7 369.742 911.598 369.772 911.512 369.83C911.425 369.887 911.359 369.969 911.321 370.064C911.282 370.159 911.274 370.263 911.297 370.362C911.32 370.462 911.373 370.552 911.45 370.622L918.655 377.21C918.865 377.402 919.141 377.509 919.428 377.509H925.777L923.017 369.742Z" fill="#0078D4"/>
<path d="M912.742 355.451C912.503 355.45 912.27 355.524 912.078 355.661C911.885 355.799 911.742 355.994 911.671 356.217L904.843 376.035C904.782 376.202 904.763 376.38 904.787 376.555C904.811 376.731 904.878 376.898 904.982 377.042C905.086 377.187 905.225 377.304 905.385 377.386C905.545 377.467 905.723 377.509 905.904 377.508H911.549C911.759 377.472 911.956 377.381 912.119 377.245C912.281 377.11 912.404 376.934 912.475 376.737L913.837 372.806L918.701 377.25C918.904 377.415 919.16 377.506 919.425 377.508H925.75L922.976 369.742L914.888 369.743L919.838 355.451H912.742Z" fill="url(#paint4_linear_4251_1115)"/>
<path d="M921.773 356.201C921.698 355.982 921.554 355.792 921.363 355.658C921.172 355.523 920.942 355.451 920.706 355.451H912.826C913.061 355.451 913.291 355.523 913.482 355.658C913.674 355.792 913.817 355.982 913.892 356.201L920.732 376.053C920.789 376.219 920.805 376.396 920.778 376.569C920.752 376.742 920.684 376.907 920.579 377.049C920.475 377.191 920.338 377.307 920.179 377.387C920.02 377.467 919.844 377.509 919.665 377.509H927.546C927.725 377.509 927.901 377.467 928.06 377.387C928.219 377.307 928.356 377.191 928.46 377.049C928.564 376.907 928.633 376.742 928.659 376.569C928.685 376.396 928.669 376.219 928.612 376.053L921.773 356.201Z" fill="url(#paint5_linear_4251_1115)"/>
<g clip-path="url(#clip2_4251_1115)">
<mask id="path-36-outside-1_4251_1115" maskUnits="userSpaceOnUse" x="900.381" y="89.9844" width="32" height="13" fill="black">
<rect fill="white" x="900.381" y="89.9844" width="32" height="13"/>
<path d="M909.425 98.5689C909.425 98.9986 909.47 99.347 909.547 99.6026C909.636 99.8581 909.748 100.137 909.903 100.439C909.959 100.532 909.981 100.625 909.981 100.706C909.981 100.822 909.915 100.938 909.77 101.054L909.069 101.542C908.969 101.612 908.869 101.647 908.78 101.647C908.668 101.647 908.557 101.589 908.446 101.484C908.29 101.31 908.157 101.124 908.045 100.938C907.934 100.741 907.823 100.52 907.701 100.253C906.833 101.322 905.742 101.856 904.43 101.856C903.495 101.856 902.75 101.577 902.204 101.02C901.659 100.462 901.381 99.7187 901.381 98.7895C901.381 97.8023 901.715 97.0008 902.394 96.3969C903.072 95.7929 903.973 95.4909 905.119 95.4909C905.498 95.4909 905.887 95.5258 906.299 95.5838C906.71 95.6419 907.133 95.7348 907.578 95.8394V94.9915C907.578 94.1088 907.4 93.4932 907.055 93.1331C906.699 92.7731 906.098 92.5988 905.242 92.5988C904.852 92.5988 904.452 92.6453 904.04 92.7498C903.629 92.8544 903.228 92.9821 902.839 93.1447C902.661 93.226 902.527 93.2725 902.449 93.2957C902.371 93.319 902.316 93.3306 902.271 93.3306C902.115 93.3306 902.038 93.2144 902.038 92.9705V92.4014C902.038 92.2155 902.06 92.0762 902.115 91.9949C902.171 91.9136 902.271 91.8323 902.427 91.751C902.816 91.5419 903.284 91.3677 903.829 91.2283C904.374 91.0773 904.952 91.0076 905.564 91.0076C906.888 91.0076 907.856 91.3212 908.479 91.9484C909.091 92.5756 909.403 93.528 909.403 94.8056V98.5689H909.425ZM904.908 100.334C905.275 100.334 905.653 100.265 906.054 100.125C906.454 99.9859 906.81 99.7303 907.111 99.3819C907.289 99.1612 907.422 98.9173 907.489 98.6385C907.556 98.3598 907.6 98.023 907.6 97.628V97.1402C907.278 97.0589 906.933 96.9892 906.577 96.9428C906.221 96.8963 905.876 96.8731 905.531 96.8731C904.786 96.8731 904.24 97.0241 903.873 97.3377C903.506 97.6513 903.328 98.0926 903.328 98.6734C903.328 99.2193 903.462 99.6258 903.74 99.9046C904.007 100.195 904.396 100.334 904.908 100.334ZM913.842 101.589C913.642 101.589 913.508 101.554 913.419 101.473C913.33 101.403 913.252 101.24 913.186 101.02L910.571 92.0413C910.504 91.809 910.471 91.658 910.471 91.5767C910.471 91.3909 910.56 91.2864 910.738 91.2864H911.828C912.04 91.2864 912.184 91.3212 912.262 91.4025C912.351 91.4722 912.418 91.6348 912.485 91.8555L914.354 99.5445L916.089 91.8555C916.145 91.6232 916.212 91.4722 916.301 91.4025C916.39 91.3328 916.546 91.2864 916.746 91.2864H917.636C917.847 91.2864 917.992 91.3212 918.081 91.4025C918.17 91.4722 918.248 91.6348 918.292 91.8555L920.05 99.6374L921.975 91.8555C922.042 91.6232 922.12 91.4722 922.197 91.4025C922.286 91.3328 922.431 91.2864 922.631 91.2864H923.666C923.844 91.2864 923.944 91.3793 923.944 91.5767C923.944 91.6348 923.933 91.6929 923.922 91.7626C923.911 91.8323 923.889 91.9252 923.844 92.0529L921.163 101.031C921.096 101.263 921.018 101.414 920.929 101.484C920.84 101.554 920.695 101.6 920.506 101.6H919.549C919.338 101.6 919.193 101.565 919.104 101.484C919.015 101.403 918.938 101.252 918.893 101.02L917.169 93.528L915.455 101.008C915.4 101.24 915.333 101.391 915.244 101.473C915.155 101.554 914.999 101.589 914.799 101.589H913.842ZM928.139 101.902C927.56 101.902 926.981 101.833 926.425 101.693C925.869 101.554 925.435 101.403 925.146 101.229C924.968 101.124 924.845 101.008 924.801 100.903C924.756 100.799 924.734 100.683 924.734 100.578V99.9859C924.734 99.7419 924.823 99.6258 924.99 99.6258C925.057 99.6258 925.123 99.6374 925.19 99.6606C925.257 99.6839 925.357 99.7303 925.468 99.7768C925.847 99.951 926.258 100.09 926.692 100.183C927.137 100.276 927.571 100.323 928.016 100.323C928.717 100.323 929.262 100.195 929.641 99.9394C930.019 99.6839 930.219 99.3122 930.219 98.836C930.219 98.5108 930.119 98.2436 929.919 98.023C929.718 97.8023 929.34 97.6048 928.795 97.419L927.182 96.8963C926.37 96.6292 925.769 96.2343 925.402 95.7116C925.034 95.2006 924.845 94.6314 924.845 94.0275C924.845 93.5396 924.945 93.1099 925.146 92.7382C925.346 92.3665 925.613 92.0413 925.947 91.7858C926.281 91.5187 926.659 91.3212 927.104 91.1818C927.549 91.0424 928.016 90.9844 928.506 90.9844C928.75 90.9844 929.006 90.996 929.251 91.0308C929.507 91.0657 929.741 91.1121 929.974 91.1586C930.197 91.2167 930.408 91.2747 930.608 91.3444C930.809 91.4141 930.965 91.4838 931.076 91.5535C931.232 91.6464 931.343 91.7393 931.41 91.8439C931.476 91.9368 931.51 92.0646 931.51 92.2272V92.7731C931.51 93.017 931.421 93.1447 931.254 93.1447C931.165 93.1447 931.02 93.0983 930.831 93.0054C930.197 92.7034 929.485 92.5524 928.695 92.5524C928.061 92.5524 927.56 92.6569 927.215 92.8776C926.87 93.0983 926.692 93.4351 926.692 93.9113C926.692 94.2365 926.803 94.5153 927.026 94.736C927.249 94.9566 927.66 95.1773 928.25 95.3748L929.83 95.8974C930.631 96.1646 931.209 96.5363 931.554 97.0125C931.899 97.4887 932.066 98.0346 932.066 98.6385C932.066 99.138 931.966 99.591 931.777 99.9859C931.576 100.381 931.309 100.729 930.965 101.008C930.62 101.298 930.208 101.507 929.73 101.658C929.229 101.821 928.706 101.902 928.139 101.902Z"/>
</mask>
<path d="M909.425 98.5689C909.425 98.9986 909.47 99.347 909.547 99.6026C909.636 99.8581 909.748 100.137 909.903 100.439C909.959 100.532 909.981 100.625 909.981 100.706C909.981 100.822 909.915 100.938 909.77 101.054L909.069 101.542C908.969 101.612 908.869 101.647 908.78 101.647C908.668 101.647 908.557 101.589 908.446 101.484C908.29 101.31 908.157 101.124 908.045 100.938C907.934 100.741 907.823 100.52 907.701 100.253C906.833 101.322 905.742 101.856 904.43 101.856C903.495 101.856 902.75 101.577 902.204 101.02C901.659 100.462 901.381 99.7187 901.381 98.7895C901.381 97.8023 901.715 97.0008 902.394 96.3969C903.072 95.7929 903.973 95.4909 905.119 95.4909C905.498 95.4909 905.887 95.5258 906.299 95.5838C906.71 95.6419 907.133 95.7348 907.578 95.8394V94.9915C907.578 94.1088 907.4 93.4932 907.055 93.1331C906.699 92.7731 906.098 92.5988 905.242 92.5988C904.852 92.5988 904.452 92.6453 904.04 92.7498C903.629 92.8544 903.228 92.9821 902.839 93.1447C902.661 93.226 902.527 93.2725 902.449 93.2957C902.371 93.319 902.316 93.3306 902.271 93.3306C902.115 93.3306 902.038 93.2144 902.038 92.9705V92.4014C902.038 92.2155 902.06 92.0762 902.115 91.9949C902.171 91.9136 902.271 91.8323 902.427 91.751C902.816 91.5419 903.284 91.3677 903.829 91.2283C904.374 91.0773 904.952 91.0076 905.564 91.0076C906.888 91.0076 907.856 91.3212 908.479 91.9484C909.091 92.5756 909.403 93.528 909.403 94.8056V98.5689H909.425ZM904.908 100.334C905.275 100.334 905.653 100.265 906.054 100.125C906.454 99.9859 906.81 99.7303 907.111 99.3819C907.289 99.1612 907.422 98.9173 907.489 98.6385C907.556 98.3598 907.6 98.023 907.6 97.628V97.1402C907.278 97.0589 906.933 96.9892 906.577 96.9428C906.221 96.8963 905.876 96.8731 905.531 96.8731C904.786 96.8731 904.24 97.0241 903.873 97.3377C903.506 97.6513 903.328 98.0926 903.328 98.6734C903.328 99.2193 903.462 99.6258 903.74 99.9046C904.007 100.195 904.396 100.334 904.908 100.334ZM913.842 101.589C913.642 101.589 913.508 101.554 913.419 101.473C913.33 101.403 913.252 101.24 913.186 101.02L910.571 92.0413C910.504 91.809 910.471 91.658 910.471 91.5767C910.471 91.3909 910.56 91.2864 910.738 91.2864H911.828C912.04 91.2864 912.184 91.3212 912.262 91.4025C912.351 91.4722 912.418 91.6348 912.485 91.8555L914.354 99.5445L916.089 91.8555C916.145 91.6232 916.212 91.4722 916.301 91.4025C916.39 91.3328 916.546 91.2864 916.746 91.2864H917.636C917.847 91.2864 917.992 91.3212 918.081 91.4025C918.17 91.4722 918.248 91.6348 918.292 91.8555L920.05 99.6374L921.975 91.8555C922.042 91.6232 922.12 91.4722 922.197 91.4025C922.286 91.3328 922.431 91.2864 922.631 91.2864H923.666C923.844 91.2864 923.944 91.3793 923.944 91.5767C923.944 91.6348 923.933 91.6929 923.922 91.7626C923.911 91.8323 923.889 91.9252 923.844 92.0529L921.163 101.031C921.096 101.263 921.018 101.414 920.929 101.484C920.84 101.554 920.695 101.6 920.506 101.6H919.549C919.338 101.6 919.193 101.565 919.104 101.484C919.015 101.403 918.938 101.252 918.893 101.02L917.169 93.528L915.455 101.008C915.4 101.24 915.333 101.391 915.244 101.473C915.155 101.554 914.999 101.589 914.799 101.589H913.842ZM928.139 101.902C927.56 101.902 926.981 101.833 926.425 101.693C925.869 101.554 925.435 101.403 925.146 101.229C924.968 101.124 924.845 101.008 924.801 100.903C924.756 100.799 924.734 100.683 924.734 100.578V99.9859C924.734 99.7419 924.823 99.6258 924.99 99.6258C925.057 99.6258 925.123 99.6374 925.19 99.6606C925.257 99.6839 925.357 99.7303 925.468 99.7768C925.847 99.951 926.258 100.09 926.692 100.183C927.137 100.276 927.571 100.323 928.016 100.323C928.717 100.323 929.262 100.195 929.641 99.9394C930.019 99.6839 930.219 99.3122 930.219 98.836C930.219 98.5108 930.119 98.2436 929.919 98.023C929.718 97.8023 929.34 97.6048 928.795 97.419L927.182 96.8963C926.37 96.6292 925.769 96.2343 925.402 95.7116C925.034 95.2006 924.845 94.6314 924.845 94.0275C924.845 93.5396 924.945 93.1099 925.146 92.7382C925.346 92.3665 925.613 92.0413 925.947 91.7858C926.281 91.5187 926.659 91.3212 927.104 91.1818C927.549 91.0424 928.016 90.9844 928.506 90.9844C928.75 90.9844 929.006 90.996 929.251 91.0308C929.507 91.0657 929.741 91.1121 929.974 91.1586C930.197 91.2167 930.408 91.2747 930.608 91.3444C930.809 91.4141 930.965 91.4838 931.076 91.5535C931.232 91.6464 931.343 91.7393 931.41 91.8439C931.476 91.9368 931.51 92.0646 931.51 92.2272V92.7731C931.51 93.017 931.421 93.1447 931.254 93.1447C931.165 93.1447 931.02 93.0983 930.831 93.0054C930.197 92.7034 929.485 92.5524 928.695 92.5524C928.061 92.5524 927.56 92.6569 927.215 92.8776C926.87 93.0983 926.692 93.4351 926.692 93.9113C926.692 94.2365 926.803 94.5153 927.026 94.736C927.249 94.9566 927.66 95.1773 928.25 95.3748L929.83 95.8974C930.631 96.1646 931.209 96.5363 931.554 97.0125C931.899 97.4887 932.066 98.0346 932.066 98.6385C932.066 99.138 931.966 99.591 931.777 99.9859C931.576 100.381 931.309 100.729 930.965 101.008C930.62 101.298 930.208 101.507 929.73 101.658C929.229 101.821 928.706 101.902 928.139 101.902Z" fill="#252F3E"/>
<path d="M909.425 98.5689C909.425 98.9986 909.47 99.347 909.547 99.6026C909.636 99.8581 909.748 100.137 909.903 100.439C909.959 100.532 909.981 100.625 909.981 100.706C909.981 100.822 909.915 100.938 909.77 101.054L909.069 101.542C908.969 101.612 908.869 101.647 908.78 101.647C908.668 101.647 908.557 101.589 908.446 101.484C908.29 101.31 908.157 101.124 908.045 100.938C907.934 100.741 907.823 100.52 907.701 100.253C906.833 101.322 905.742 101.856 904.43 101.856C903.495 101.856 902.75 101.577 902.204 101.02C901.659 100.462 901.381 99.7187 901.381 98.7895C901.381 97.8023 901.715 97.0008 902.394 96.3969C903.072 95.7929 903.973 95.4909 905.119 95.4909C905.498 95.4909 905.887 95.5258 906.299 95.5838C906.71 95.6419 907.133 95.7348 907.578 95.8394V94.9915C907.578 94.1088 907.4 93.4932 907.055 93.1331C906.699 92.7731 906.098 92.5988 905.242 92.5988C904.852 92.5988 904.452 92.6453 904.04 92.7498C903.629 92.8544 903.228 92.9821 902.839 93.1447C902.661 93.226 902.527 93.2725 902.449 93.2957C902.371 93.319 902.316 93.3306 902.271 93.3306C902.115 93.3306 902.038 93.2144 902.038 92.9705V92.4014C902.038 92.2155 902.06 92.0762 902.115 91.9949C902.171 91.9136 902.271 91.8323 902.427 91.751C902.816 91.5419 903.284 91.3677 903.829 91.2283C904.374 91.0773 904.952 91.0076 905.564 91.0076C906.888 91.0076 907.856 91.3212 908.479 91.9484C909.091 92.5756 909.403 93.528 909.403 94.8056V98.5689H909.425ZM904.908 100.334C905.275 100.334 905.653 100.265 906.054 100.125C906.454 99.9859 906.81 99.7303 907.111 99.3819C907.289 99.1612 907.422 98.9173 907.489 98.6385C907.556 98.3598 907.6 98.023 907.6 97.628V97.1402C907.278 97.0589 906.933 96.9892 906.577 96.9428C906.221 96.8963 905.876 96.8731 905.531 96.8731C904.786 96.8731 904.24 97.0241 903.873 97.3377C903.506 97.6513 903.328 98.0926 903.328 98.6734C903.328 99.2193 903.462 99.6258 903.74 99.9046C904.007 100.195 904.396 100.334 904.908 100.334ZM913.842 101.589C913.642 101.589 913.508 101.554 913.419 101.473C913.33 101.403 913.252 101.24 913.186 101.02L910.571 92.0413C910.504 91.809 910.471 91.658 910.471 91.5767C910.471 91.3909 910.56 91.2864 910.738 91.2864H911.828C912.04 91.2864 912.184 91.3212 912.262 91.4025C912.351 91.4722 912.418 91.6348 912.485 91.8555L914.354 99.5445L916.089 91.8555C916.145 91.6232 916.212 91.4722 916.301 91.4025C916.39 91.3328 916.546 91.2864 916.746 91.2864H917.636C917.847 91.2864 917.992 91.3212 918.081 91.4025C918.17 91.4722 918.248 91.6348 918.292 91.8555L920.05 99.6374L921.975 91.8555C922.042 91.6232 922.12 91.4722 922.197 91.4025C922.286 91.3328 922.431 91.2864 922.631 91.2864H923.666C923.844 91.2864 923.944 91.3793 923.944 91.5767C923.944 91.6348 923.933 91.6929 923.922 91.7626C923.911 91.8323 923.889 91.9252 923.844 92.0529L921.163 101.031C921.096 101.263 921.018 101.414 920.929 101.484C920.84 101.554 920.695 101.6 920.506 101.6H919.549C919.338 101.6 919.193 101.565 919.104 101.484C919.015 101.403 918.938 101.252 918.893 101.02L917.169 93.528L915.455 101.008C915.4 101.24 915.333 101.391 915.244 101.473C915.155 101.554 914.999 101.589 914.799 101.589H913.842ZM928.139 101.902C927.56 101.902 926.981 101.833 926.425 101.693C925.869 101.554 925.435 101.403 925.146 101.229C924.968 101.124 924.845 101.008 924.801 100.903C924.756 100.799 924.734 100.683 924.734 100.578V99.9859C924.734 99.7419 924.823 99.6258 924.99 99.6258C925.057 99.6258 925.123 99.6374 925.19 99.6606C925.257 99.6839 925.357 99.7303 925.468 99.7768C925.847 99.951 926.258 100.09 926.692 100.183C927.137 100.276 927.571 100.323 928.016 100.323C928.717 100.323 929.262 100.195 929.641 99.9394C930.019 99.6839 930.219 99.3122 930.219 98.836C930.219 98.5108 930.119 98.2436 929.919 98.023C929.718 97.8023 929.34 97.6048 928.795 97.419L927.182 96.8963C926.37 96.6292 925.769 96.2343 925.402 95.7116C925.034 95.2006 924.845 94.6314 924.845 94.0275C924.845 93.5396 924.945 93.1099 925.146 92.7382C925.346 92.3665 925.613 92.0413 925.947 91.7858C926.281 91.5187 926.659 91.3212 927.104 91.1818C927.549 91.0424 928.016 90.9844 928.506 90.9844C928.75 90.9844 929.006 90.996 929.251 91.0308C929.507 91.0657 929.741 91.1121 929.974 91.1586C930.197 91.2167 930.408 91.2747 930.608 91.3444C930.809 91.4141 930.965 91.4838 931.076 91.5535C931.232 91.6464 931.343 91.7393 931.41 91.8439C931.476 91.9368 931.51 92.0646 931.51 92.2272V92.7731C931.51 93.017 931.421 93.1447 931.254 93.1447C931.165 93.1447 931.02 93.0983 930.831 93.0054C930.197 92.7034 929.485 92.5524 928.695 92.5524C928.061 92.5524 927.56 92.6569 927.215 92.8776C926.87 93.0983 926.692 93.4351 926.692 93.9113C926.692 94.2365 926.803 94.5153 927.026 94.736C927.249 94.9566 927.66 95.1773 928.25 95.3748L929.83 95.8974C930.631 96.1646 931.209 96.5363 931.554 97.0125C931.899 97.4887 932.066 98.0346 932.066 98.6385C932.066 99.138 931.966 99.591 931.777 99.9859C931.576 100.381 931.309 100.729 930.965 101.008C930.62 101.298 930.208 101.507 929.73 101.658C929.229 101.821 928.706 101.902 928.139 101.902Z" stroke="#252F3E" stroke-width="0.238962" mask="url(#path-36-outside-1_4251_1115)"/>
<path d="M930.306 107.633L930.306 107.633C930.473 107.504 930.569 107.352 930.601 107.196C930.633 107.04 930.598 106.888 930.517 106.767C930.355 106.522 930.014 106.405 929.663 106.571C925.572 108.376 921.126 109.256 917.08 109.256C911.081 109.256 905.281 107.531 900.58 104.683C900.338 104.534 900.092 104.576 899.966 104.749C899.842 104.92 899.871 105.17 900.074 105.362L900.074 105.362C904.454 109.491 910.254 111.976 916.69 111.976C921.282 111.976 926.624 110.472 930.306 107.633Z" fill="#FF9900" stroke="#FF9900" stroke-width="0.21139"/>
<path d="M931.681 105.801L931.682 105.801C931.724 105.858 931.756 105.945 931.772 106.067C931.787 106.189 931.786 106.336 931.769 106.506C931.736 106.844 931.644 107.254 931.522 107.686C931.279 108.549 930.922 109.479 930.699 110.055L930.699 110.055C930.661 110.155 930.648 110.251 930.667 110.335C930.687 110.422 930.739 110.492 930.817 110.529C930.967 110.602 931.161 110.538 931.324 110.393C932.325 109.514 932.95 108.165 933.275 106.978C933.438 106.383 933.527 105.824 933.55 105.378C933.561 105.156 933.556 104.959 933.534 104.799C933.513 104.643 933.475 104.507 933.407 104.419L933.407 104.419L933.407 104.418C933.339 104.332 933.221 104.261 933.081 104.201C932.936 104.14 932.754 104.085 932.544 104.039C932.124 103.948 931.583 103.892 930.991 103.901C929.808 103.919 928.401 104.194 927.331 104.978L927.331 104.978L927.33 104.979C927.154 105.112 927.051 105.29 927.079 105.452C927.094 105.536 927.143 105.608 927.222 105.651C927.297 105.693 927.392 105.705 927.496 105.691L927.482 105.586L927.496 105.691C928.091 105.616 929.04 105.497 929.898 105.476C930.327 105.465 930.728 105.478 931.049 105.532C931.21 105.559 931.346 105.595 931.455 105.642C931.564 105.688 931.638 105.742 931.681 105.801L931.681 105.801Z" fill="#FF9900" stroke="#FF9900" stroke-width="0.21139"/>
</g>
<g clip-path="url(#clip3_4251_1115)">
<path d="M1039.85 161.396C1040.91 160.291 1042.38 159.605 1044.01 159.605C1046.17 159.605 1048.06 160.816 1049.06 162.614C1049.94 162.222 1050.9 162.004 1051.92 162.004C1055.82 162.004 1058.99 165.208 1058.99 169.159C1058.99 173.111 1055.82 176.314 1051.92 176.314C1051.44 176.314 1050.98 176.267 1050.53 176.175C1049.64 177.76 1047.96 178.831 1046.02 178.831C1045.21 178.831 1044.44 178.643 1043.76 178.309C1042.86 180.428 1040.77 181.914 1038.34 181.914C1035.8 181.914 1033.64 180.302 1032.81 178.041C1032.44 178.119 1032.07 178.159 1031.68 178.159C1028.66 178.159 1026.21 175.675 1026.21 172.61C1026.21 170.557 1027.31 168.764 1028.95 167.804C1028.61 167.027 1028.42 166.168 1028.42 165.266C1028.42 161.742 1031.27 158.885 1034.79 158.885C1036.85 158.885 1038.69 159.87 1039.85 161.396Z" fill="#00B7FF"/>
<path d="M1030.96 170.825C1030.94 170.879 1030.97 170.89 1030.97 170.9C1031.03 170.945 1031.1 170.977 1031.16 171.013C1031.49 171.191 1031.81 171.243 1032.14 171.243C1032.81 171.243 1033.23 170.884 1033.23 170.306V170.295C1033.23 169.761 1032.76 169.567 1032.32 169.427L1032.26 169.408C1031.93 169.299 1031.64 169.205 1031.64 168.985V168.973C1031.64 168.785 1031.81 168.646 1032.07 168.646C1032.36 168.646 1032.7 168.743 1032.92 168.866C1032.92 168.866 1032.99 168.908 1033.01 168.844C1033.02 168.811 1033.14 168.508 1033.15 168.475C1033.16 168.44 1033.14 168.413 1033.11 168.399C1032.86 168.245 1032.51 168.14 1032.15 168.14L1032.08 168.14C1031.47 168.14 1031.04 168.513 1031.04 169.048V169.059C1031.04 169.623 1031.51 169.806 1031.96 169.933L1032.03 169.955C1032.35 170.055 1032.63 170.141 1032.63 170.37V170.381C1032.63 170.59 1032.45 170.745 1032.16 170.745C1032.04 170.745 1031.68 170.743 1031.29 170.495C1031.24 170.468 1031.22 170.447 1031.18 170.425C1031.16 170.413 1031.11 170.392 1031.09 170.456L1030.96 170.825Z" fill="white"/>
<path d="M1040.8 170.825C1040.78 170.879 1040.81 170.89 1040.82 170.9C1040.88 170.945 1040.94 170.977 1041 171.013C1041.34 171.191 1041.65 171.243 1041.98 171.243C1042.65 171.243 1043.07 170.884 1043.07 170.306V170.295C1043.07 169.761 1042.6 169.567 1042.16 169.427L1042.1 169.408C1041.77 169.299 1041.48 169.205 1041.48 168.985V168.973C1041.48 168.785 1041.65 168.646 1041.91 168.646C1042.2 168.646 1042.54 168.743 1042.76 168.866C1042.76 168.866 1042.83 168.908 1042.85 168.844C1042.87 168.811 1042.98 168.508 1042.99 168.475C1043 168.44 1042.98 168.413 1042.96 168.399C1042.7 168.245 1042.35 168.14 1041.99 168.14L1041.93 168.14C1041.31 168.14 1040.88 168.513 1040.88 169.048V169.059C1040.88 169.623 1041.35 169.806 1041.8 169.933L1041.87 169.955C1042.19 170.055 1042.47 170.141 1042.47 170.37V170.381C1042.47 170.59 1042.29 170.745 1042 170.745C1041.89 170.745 1041.52 170.743 1041.13 170.495C1041.09 170.468 1041.06 170.448 1041.02 170.425C1041.01 170.417 1040.95 170.395 1040.93 170.456L1040.8 170.825Z" fill="white"/>
<path d="M1047.52 169.691C1047.52 170.018 1047.46 170.275 1047.34 170.457C1047.22 170.637 1047.04 170.725 1046.79 170.725C1046.54 170.725 1046.37 170.638 1046.25 170.457C1046.13 170.276 1046.07 170.018 1046.07 169.691C1046.07 169.365 1046.13 169.108 1046.25 168.928C1046.37 168.75 1046.54 168.664 1046.79 168.664C1047.04 168.664 1047.22 168.75 1047.34 168.928C1047.46 169.108 1047.52 169.365 1047.52 169.691ZM1048.08 169.086C1048.03 168.899 1047.94 168.734 1047.83 168.597C1047.71 168.459 1047.57 168.348 1047.39 168.268C1047.22 168.187 1047.02 168.147 1046.79 168.147C1046.57 168.147 1046.36 168.187 1046.19 168.268C1046.02 168.348 1045.87 168.459 1045.76 168.597C1045.65 168.734 1045.56 168.899 1045.5 169.086C1045.45 169.272 1045.42 169.475 1045.42 169.691C1045.42 169.907 1045.45 170.111 1045.5 170.297C1045.56 170.483 1045.65 170.648 1045.76 170.786C1045.87 170.924 1046.02 171.034 1046.19 171.112C1046.36 171.191 1046.57 171.23 1046.79 171.23C1047.02 171.23 1047.22 171.191 1047.39 171.112C1047.57 171.034 1047.71 170.924 1047.83 170.786C1047.94 170.649 1048.03 170.484 1048.08 170.297C1048.14 170.111 1048.16 169.907 1048.16 169.691C1048.16 169.476 1048.14 169.272 1048.08 169.086Z" fill="white"/>
<path d="M1052.69 170.639C1052.67 170.584 1052.62 170.605 1052.62 170.605C1052.54 170.636 1052.45 170.665 1052.36 170.68C1052.26 170.694 1052.16 170.702 1052.05 170.702C1051.78 170.702 1051.56 170.621 1051.41 170.46C1051.25 170.3 1051.16 170.041 1051.17 169.69C1051.17 169.371 1051.24 169.131 1051.38 168.948C1051.52 168.767 1051.73 168.673 1052 168.673C1052.24 168.673 1052.41 168.7 1052.6 168.759C1052.6 168.759 1052.64 168.778 1052.66 168.72C1052.71 168.583 1052.75 168.485 1052.8 168.335C1052.81 168.292 1052.78 168.274 1052.77 168.268C1052.69 168.24 1052.52 168.193 1052.39 168.174C1052.27 168.155 1052.13 168.145 1051.97 168.145C1051.73 168.145 1051.52 168.185 1051.34 168.266C1051.16 168.346 1051.01 168.457 1050.89 168.595C1050.77 168.732 1050.68 168.897 1050.62 169.084C1050.56 169.27 1050.53 169.474 1050.53 169.69C1050.53 170.158 1050.65 170.535 1050.9 170.812C1051.15 171.089 1051.52 171.23 1052.01 171.23C1052.3 171.23 1052.59 171.172 1052.8 171.088C1052.8 171.088 1052.84 171.068 1052.83 171.021L1052.69 170.639Z" fill="white"/>
<path d="M1053.67 169.378C1053.7 169.196 1053.75 169.046 1053.82 168.928C1053.94 168.749 1054.12 168.651 1054.37 168.651C1054.62 168.651 1054.78 168.75 1054.9 168.928C1054.98 169.046 1055.01 169.203 1055.03 169.378H1053.67ZM1055.56 168.979C1055.51 168.799 1055.39 168.616 1055.32 168.533C1055.19 168.401 1055.07 168.308 1054.96 168.257C1054.8 168.19 1054.62 168.146 1054.41 168.146C1054.17 168.146 1053.96 168.186 1053.78 168.268C1053.61 168.351 1053.46 168.463 1053.35 168.604C1053.23 168.743 1053.15 168.91 1053.09 169.098C1053.03 169.286 1053.01 169.491 1053.01 169.707C1053.01 169.927 1053.04 170.132 1053.09 170.316C1053.15 170.502 1053.24 170.665 1053.37 170.801C1053.49 170.937 1053.65 171.044 1053.85 171.118C1054.04 171.193 1054.27 171.231 1054.54 171.23C1055.08 171.229 1055.37 171.106 1055.49 171.04C1055.51 171.028 1055.53 171.007 1055.51 170.948L1055.38 170.599C1055.37 170.547 1055.31 170.566 1055.31 170.566C1055.18 170.617 1054.98 170.708 1054.53 170.707C1054.24 170.706 1054.02 170.619 1053.88 170.483C1053.74 170.343 1053.67 170.138 1053.66 169.848L1055.56 169.85C1055.56 169.85 1055.61 169.849 1055.62 169.801C1055.62 169.78 1055.68 169.409 1055.56 168.979Z" fill="white"/>
<path d="M1038.46 169.378C1038.48 169.196 1038.53 169.046 1038.61 168.928C1038.73 168.749 1038.91 168.651 1039.15 168.651C1039.4 168.651 1039.57 168.75 1039.69 168.928C1039.76 169.046 1039.8 169.203 1039.81 169.378H1038.46ZM1040.35 168.979C1040.3 168.799 1040.18 168.616 1040.1 168.533C1039.98 168.401 1039.86 168.308 1039.74 168.257C1039.59 168.19 1039.4 168.146 1039.2 168.146C1038.96 168.146 1038.75 168.186 1038.57 168.268C1038.4 168.351 1038.25 168.463 1038.13 168.604C1038.02 168.743 1037.93 168.91 1037.88 169.098C1037.82 169.286 1037.79 169.491 1037.79 169.707C1037.79 169.927 1037.82 170.132 1037.88 170.316C1037.94 170.502 1038.03 170.665 1038.16 170.801C1038.28 170.937 1038.44 171.044 1038.63 171.118C1038.82 171.193 1039.06 171.231 1039.32 171.23C1039.87 171.229 1040.16 171.106 1040.28 171.04C1040.3 171.028 1040.32 171.007 1040.3 170.948L1040.17 170.599C1040.15 170.547 1040.1 170.566 1040.1 170.566C1039.96 170.617 1039.77 170.708 1039.32 170.707C1039.03 170.706 1038.81 170.619 1038.67 170.483C1038.53 170.343 1038.46 170.138 1038.45 169.848L1040.35 169.85C1040.35 169.85 1040.4 169.849 1040.4 169.801C1040.41 169.78 1040.47 169.409 1040.35 168.979Z" fill="white"/>
<path d="M1034.35 170.627C1034.28 170.567 1034.27 170.552 1034.24 170.514C1034.2 170.455 1034.19 170.372 1034.19 170.266C1034.19 170.098 1034.24 169.978 1034.36 169.897C1034.35 169.897 1034.52 169.754 1034.91 169.759C1035.18 169.763 1035.42 169.803 1035.42 169.803V170.67H1035.42C1035.42 170.67 1035.18 170.722 1034.91 170.738C1034.52 170.762 1034.35 170.626 1034.35 170.627ZM1035.11 169.287C1035.03 169.281 1034.93 169.278 1034.81 169.278C1034.65 169.278 1034.49 169.299 1034.34 169.338C1034.19 169.378 1034.06 169.441 1033.95 169.523C1033.83 169.606 1033.74 169.712 1033.67 169.838C1033.6 169.963 1033.57 170.111 1033.57 170.277C1033.57 170.446 1033.6 170.593 1033.66 170.713C1033.71 170.833 1033.8 170.933 1033.9 171.011C1034.01 171.088 1034.14 171.145 1034.29 171.179C1034.44 171.213 1034.61 171.23 1034.79 171.23C1034.99 171.23 1035.18 171.215 1035.37 171.182C1035.56 171.15 1035.79 171.104 1035.85 171.089C1035.91 171.074 1035.98 171.055 1035.98 171.055C1036.03 171.043 1036.03 170.993 1036.03 170.993L1036.03 169.249C1036.03 168.866 1035.92 168.583 1035.72 168.407C1035.52 168.232 1035.23 168.143 1034.85 168.143C1034.71 168.143 1034.48 168.163 1034.34 168.191C1034.34 168.191 1033.93 168.271 1033.76 168.405C1033.76 168.405 1033.72 168.429 1033.74 168.481L1033.87 168.844C1033.89 168.891 1033.94 168.875 1033.94 168.875C1033.94 168.875 1033.95 168.869 1033.97 168.859C1034.33 168.66 1034.79 168.666 1034.79 168.666C1035 168.666 1035.16 168.707 1035.26 168.789C1035.37 168.869 1035.42 168.989 1035.42 169.243V169.324C1035.26 169.3 1035.11 169.287 1035.11 169.287Z" fill="white"/>
<path d="M1050.43 168.306C1050.44 168.263 1050.41 168.242 1050.4 168.237C1050.37 168.225 1050.21 168.191 1050.08 168.183C1049.84 168.168 1049.71 168.208 1049.59 168.262C1049.47 168.315 1049.34 168.401 1049.27 168.499V168.267C1049.27 168.235 1049.25 168.209 1049.22 168.209H1048.73C1048.7 168.209 1048.67 168.235 1048.67 168.267V171.112C1048.67 171.144 1048.7 171.17 1048.73 171.17H1049.23C1049.26 171.17 1049.29 171.144 1049.29 171.112V169.691C1049.29 169.5 1049.31 169.31 1049.35 169.19C1049.39 169.072 1049.45 168.977 1049.52 168.91C1049.59 168.842 1049.67 168.795 1049.75 168.768C1049.84 168.741 1049.94 168.732 1050.01 168.732C1050.11 168.732 1050.22 168.758 1050.22 168.758C1050.25 168.762 1050.27 168.739 1050.29 168.706C1050.32 168.619 1050.41 168.358 1050.43 168.306Z" fill="white"/>
<path d="M1045.74 166.987C1045.68 166.968 1045.63 166.956 1045.56 166.942C1045.48 166.929 1045.4 166.922 1045.3 166.922C1044.95 166.922 1044.68 167.02 1044.49 167.212C1044.3 167.403 1044.18 167.694 1044.11 168.077L1044.09 168.206H1043.66C1043.66 168.206 1043.61 168.204 1043.59 168.261L1043.52 168.658C1043.52 168.696 1043.53 168.72 1043.58 168.72H1044L1043.58 171.106C1043.55 171.298 1043.51 171.456 1043.46 171.576C1043.42 171.694 1043.38 171.783 1043.33 171.848C1043.28 171.91 1043.24 171.955 1043.16 171.982C1043.09 172.004 1043.02 172.014 1042.94 172.014C1042.89 172.014 1042.83 172.007 1042.78 171.998C1042.74 171.989 1042.71 171.979 1042.68 171.964C1042.68 171.964 1042.63 171.946 1042.61 171.995C1042.6 172.036 1042.48 172.344 1042.47 172.382C1042.46 172.42 1042.48 172.45 1042.5 172.459C1042.56 172.478 1042.6 172.492 1042.67 172.51C1042.78 172.535 1042.87 172.536 1042.95 172.536C1043.13 172.536 1043.29 172.511 1043.42 172.463C1043.55 172.415 1043.67 172.331 1043.77 172.218C1043.88 172.095 1043.95 171.967 1044.02 171.791C1044.08 171.618 1044.14 171.402 1044.18 171.151L1044.61 168.72H1045.24C1045.24 168.72 1045.29 168.722 1045.3 168.664L1045.37 168.267C1045.38 168.229 1045.36 168.206 1045.31 168.206H1044.7C1044.7 168.192 1044.73 167.978 1044.8 167.776C1044.83 167.69 1044.89 167.62 1044.94 167.572C1044.98 167.526 1045.04 167.492 1045.09 167.473C1045.15 167.453 1045.22 167.444 1045.3 167.444C1045.36 167.444 1045.41 167.451 1045.45 167.459C1045.51 167.472 1045.54 167.479 1045.55 167.483C1045.61 167.502 1045.62 167.484 1045.63 167.454L1045.78 167.054C1045.79 167.01 1045.76 166.992 1045.74 166.987Z" fill="white"/>
<path d="M1037.26 171.112C1037.26 171.144 1037.23 171.17 1037.2 171.17H1036.7C1036.67 171.17 1036.65 171.144 1036.65 171.112V167.042C1036.65 167.01 1036.67 166.985 1036.7 166.985H1037.2C1037.23 166.985 1037.26 167.01 1037.26 167.042V171.112Z" fill="white"/>
</g>
<path fill-rule="evenodd" clip-rule="evenodd" d="M788.991 305.224C784.481 305.224 780.822 301.615 780.822 297.155C780.822 292.695 784.481 289.072 788.991 289.072H798.487C802.998 289.072 806.656 292.695 806.656 297.155C806.656 301.615 802.998 305.224 798.487 305.224H788.991ZM798.276 302.375C801.198 302.375 803.564 300.042 803.564 297.155C803.564 294.267 801.198 291.921 798.276 291.921H789.201C786.281 291.921 783.913 294.267 783.913 297.155C783.913 300.042 786.281 302.375 789.201 302.375H798.276Z" fill="#FF0000"/>
<path d="M791.797 309.8H793.657L792.674 308.156L790.869 311.129H790.048L792.243 307.558C792.338 307.413 792.497 307.326 792.674 307.326C792.844 307.326 793.003 307.41 793.096 307.552L795.3 311.129H794.479L794.091 310.465H792.208L791.797 309.8H791.797ZM800.329 310.465V307.362H799.632V310.769C799.632 310.862 799.667 310.952 799.734 311.021C799.8 311.09 799.89 311.129 799.988 311.129H803.167L803.577 310.465H800.329L800.329 310.465ZM788.798 309.909C789.475 309.909 790.024 309.34 790.024 308.637C790.024 307.933 789.475 307.362 788.798 307.362H785.749V311.129H786.446V308.027H788.752C789.076 308.027 789.336 308.3 789.336 308.637C789.336 308.974 789.076 309.247 788.752 309.247L786.787 309.244L788.868 311.129H789.88L788.48 309.909H788.798L788.798 309.909ZM781.46 311.129C780.459 311.129 779.647 310.288 779.647 309.247C779.647 308.207 780.459 307.362 781.46 307.362H783.566C784.567 307.362 785.378 308.207 785.378 309.247C785.378 310.288 784.567 311.129 783.566 311.129H781.46ZM783.519 310.465C784.167 310.465 784.692 309.921 784.692 309.247C784.692 308.574 784.167 308.027 783.519 308.027H781.506C780.858 308.027 780.333 308.574 780.333 309.247C780.333 309.921 780.858 310.465 781.506 310.465H783.519H783.519ZM796.755 311.129C795.754 311.129 794.941 310.288 794.941 309.247C794.941 308.207 795.754 307.362 796.755 307.362H799.256L798.849 308.027H796.801C796.153 308.027 795.627 308.574 795.627 309.247C795.627 309.921 796.153 310.465 796.801 310.465H799.314L798.904 311.129H796.755ZM805.278 310.465C804.743 310.465 804.289 310.092 804.15 309.578H807.129L807.54 308.914H804.15C804.289 308.402 804.743 308.027 805.278 308.027H807.323L807.736 307.362H805.232C804.231 307.362 803.418 308.207 803.418 309.247C803.418 310.287 804.231 311.129 805.232 311.129H807.381L807.791 310.465H805.278H805.278Z" fill="#FF0000"/>
<path d="M922.761 226.331C917.281 225.212 912.997 221.04 911.848 215.701C911.78 215.383 911.601 215.098 911.342 214.893C911.083 214.688 910.76 214.576 910.426 214.576C910.093 214.576 909.77 214.688 909.511 214.893C909.252 215.098 909.073 215.383 909.005 215.701C907.856 221.04 903.572 225.212 898.092 226.331C897.766 226.398 897.473 226.572 897.263 226.824C897.052 227.076 896.938 227.391 896.938 227.716C896.938 228.041 897.052 228.356 897.263 228.608C897.473 228.861 897.766 229.035 898.092 229.101C903.572 230.221 907.855 234.393 909.004 239.732C909.073 240.05 909.251 240.335 909.51 240.54C909.769 240.745 910.093 240.857 910.426 240.857C910.76 240.857 911.083 240.745 911.342 240.54C911.601 240.335 911.78 240.05 911.848 239.732C912.997 234.393 917.28 230.221 922.761 229.102C923.087 229.035 923.38 228.861 923.59 228.609C923.801 228.357 923.915 228.041 923.915 227.717C923.915 227.392 923.801 227.077 923.59 226.824C923.38 226.572 923.087 226.398 922.761 226.331ZM923.113 249.712C920.531 249.185 918.513 247.219 917.972 244.703C917.903 244.385 917.725 244.1 917.466 243.895C917.207 243.69 916.884 243.578 916.55 243.578C916.216 243.578 915.893 243.69 915.634 243.895C915.375 244.1 915.196 244.385 915.128 244.703C914.587 247.219 912.568 249.184 909.986 249.712C909.66 249.778 909.367 249.953 909.157 250.205C908.947 250.457 908.832 250.772 908.832 251.097C908.832 251.422 908.947 251.737 909.157 251.989C909.367 252.241 909.66 252.415 909.986 252.482C912.568 253.009 914.587 254.975 915.128 257.491C915.196 257.809 915.375 258.094 915.634 258.299C915.893 258.504 916.216 258.616 916.55 258.616C916.883 258.616 917.207 258.504 917.466 258.299C917.725 258.094 917.903 257.809 917.972 257.491C918.513 254.975 920.531 253.009 923.113 252.482C923.44 252.415 923.733 252.241 923.943 251.989C924.153 251.737 924.268 251.422 924.268 251.097C924.268 250.772 924.153 250.457 923.943 250.205C923.733 249.953 923.44 249.779 923.113 249.712ZM939.184 236.608C935.694 235.895 932.966 233.237 932.235 229.838C932.166 229.52 931.988 229.234 931.729 229.029C931.47 228.825 931.147 228.713 930.813 228.713C930.479 228.713 930.156 228.825 929.897 229.029C929.638 229.234 929.459 229.52 929.391 229.838C928.659 233.237 925.932 235.895 922.442 236.607C922.115 236.674 921.822 236.848 921.612 237.1C921.402 237.353 921.287 237.668 921.287 237.993C921.287 238.317 921.402 238.632 921.612 238.885C921.822 239.137 922.115 239.311 922.442 239.378C925.932 240.09 928.659 242.748 929.391 246.148C929.459 246.466 929.638 246.751 929.897 246.956C930.156 247.161 930.479 247.272 930.813 247.272C931.146 247.272 931.47 247.161 931.729 246.956C931.988 246.751 932.166 246.466 932.235 246.148C932.966 242.748 935.694 240.09 939.184 239.378C939.511 239.311 939.804 239.137 940.014 238.885C940.224 238.633 940.339 238.318 940.339 237.993C940.339 237.668 940.224 237.353 940.014 237.101C939.804 236.848 939.511 236.674 939.184 236.608Z" fill="#6762FE"/>
</g>
<defs>
<filter id="filter0_f_4251_1115" x="828.645" y="145.645" width="178.711" height="178.711" filterUnits="userSpaceOnUse" color-interpolation-filters="sRGB">
<feFlood flood-opacity="0" result="BackgroundImageFix"/>
<feBlend mode="normal" in="SourceGraphic" in2="BackgroundImageFix" result="shape"/>
<feGaussianBlur stdDeviation="17.8711" result="effect1_foregroundBlur_4251_1115"/>
</filter>
<filter id="filter1_f_4251_1115" x="864.387" y="48.6299" width="119.354" height="119.354" filterUnits="userSpaceOnUse" color-interpolation-filters="sRGB">
<feFlood flood-opacity="0" result="BackgroundImageFix"/>
<feBlend mode="normal" in="SourceGraphic" in2="BackgroundImageFix" result="shape"/>
<feGaussianBlur stdDeviation="17.8711" result="effect1_foregroundBlur_4251_1115"/>
</filter>
<filter id="filter2_f_4251_1115" x="864.387" y="314.144" width="119.354" height="119.354" filterUnits="userSpaceOnUse" color-interpolation-filters="sRGB">
<feFlood flood-opacity="0" result="BackgroundImageFix"/>
<feBlend mode="normal" in="SourceGraphic" in2="BackgroundImageFix" result="shape"/>
<feGaussianBlur stdDeviation="17.8711" result="effect1_foregroundBlur_4251_1115"/>
</filter>
<filter id="filter3_f_4251_1115" x="989.485" y="117.562" width="119.354" height="119.354" filterUnits="userSpaceOnUse" color-interpolation-filters="sRGB">
<feFlood flood-opacity="0" result="BackgroundImageFix"/>
<feBlend mode="normal" in="SourceGraphic" in2="BackgroundImageFix" result="shape"/>
<feGaussianBlur stdDeviation="17.8711" result="effect1_foregroundBlur_4251_1115"/>
</filter>
<filter id="filter4_f_4251_1115" x="741.842" y="117.562" width="119.354" height="119.354" filterUnits="userSpaceOnUse" color-interpolation-filters="sRGB">
<feFlood flood-opacity="0" result="BackgroundImageFix"/>
<feBlend mode="normal" in="SourceGraphic" in2="BackgroundImageFix" result="shape"/>
<feGaussianBlur stdDeviation="17.8711" result="effect1_foregroundBlur_4251_1115"/>
</filter>
<filter id="filter5_f_4251_1115" x="989.485" y="247.765" width="119.354" height="119.354" filterUnits="userSpaceOnUse" color-interpolation-filters="sRGB">
<feFlood flood-opacity="0" result="BackgroundImageFix"/>
<feBlend mode="normal" in="SourceGraphic" in2="BackgroundImageFix" result="shape"/>
<feGaussianBlur stdDeviation="17.8711" result="effect1_foregroundBlur_4251_1115"/>
</filter>
<filter id="filter6_f_4251_1115" x="741.842" y="247.765" width="119.354" height="119.354" filterUnits="userSpaceOnUse" color-interpolation-filters="sRGB">
<feFlood flood-opacity="0" result="BackgroundImageFix"/>
<feBlend mode="normal" in="SourceGraphic" in2="BackgroundImageFix" result="shape"/>
<feGaussianBlur stdDeviation="17.8711" result="effect1_foregroundBlur_4251_1115"/>
</filter>
<linearGradient id="paint0_linear_4251_1115" x1="784.605" y1="235" x2="1073.73" y2="235" gradientUnits="userSpaceOnUse">
<stop stop-color="#6762FE"/>
<stop offset="1" stop-color="#0055FF" stop-opacity="0.05"/>
</linearGradient>
<linearGradient id="paint1_linear_4251_1115" x1="1149.05" y1="235" x2="686.952" y2="235" gradientUnits="userSpaceOnUse">
<stop stop-color="#6762FE" stop-opacity="0.5"/>
<stop offset="1" stop-color="#CCD0FE" stop-opacity="0.7"/>
</linearGradient>
<linearGradient id="paint2_linear_4251_1115" x1="611" y1="235" x2="1225" y2="235" gradientUnits="userSpaceOnUse">
<stop stop-color="#6762FE" stop-opacity="0.5"/>
<stop offset="1" stop-color="#CCD0FE" stop-opacity="0.7"/>
</linearGradient>
<linearGradient id="paint3_linear_4251_1115" x1="915.319" y1="357.086" x2="908.242" y2="378.427" gradientUnits="userSpaceOnUse">
<stop stop-color="#084284"/>
<stop offset="1" stop-color="#0669BC"/>
</linearGradient>
<linearGradient id="paint4_linear_4251_1115" x1="917.613" y1="366.99" x2="915.921" y2="367.573" gradientUnits="userSpaceOnUse">
<stop stop-opacity="0.3"/>
<stop offset="0.071" stop-opacity="0.2"/>
<stop offset="0.321" stop-opacity="0.1"/>
<stop offset="0.623" stop-opacity="0.05"/>
<stop offset="1" stop-opacity="0"/>
</linearGradient>
<linearGradient id="paint5_linear_4251_1115" x1="916.678" y1="356.465" x2="924.453" y2="377.609" gradientUnits="userSpaceOnUse">
<stop stop-color="#33D2FF"/>
<stop offset="1" stop-color="#0094FF"/>
</linearGradient>
<clipPath id="clip0_4251_1115">
<rect width="1240" height="449.5" rx="38.75" fill="white"/>
</clipPath>
<clipPath id="clip1_4251_1115">
<rect width="30.0163" height="29.1955" fill="white" transform="translate(779.481 155.3)"/>
</clipPath>
<clipPath id="clip2_4251_1115">
<rect width="33.8223" height="21.139" fill="white" transform="translate(899.812 90.8569)"/>
</clipPath>
<clipPath id="clip3_4251_1115">
<rect width="32.8052" height="23.1566" fill="white" transform="translate(1026.2 158.868)"/>
</clipPath>
</defs>
</svg>
