<svg width="1240" height="450" viewBox="0 0 1240 450" fill="none" xmlns="http://www.w3.org/2000/svg">
<g clip-path="url(#clip0_4251_1026)">
<rect width="1240" height="449.5" rx="38.75" fill="#F9FAFC"/>
<path fill-rule="evenodd" clip-rule="evenodd" d="M918 143.73C896.412 143.73 876.639 151.178 861.001 163.708C857.701 166.353 852.871 166.252 849.962 163.182L799.03 109.446C796.12 106.376 796.24 101.515 799.43 98.7373C831.128 71.1401 872.649 54.374 918 54.374C1017.76 54.374 1098.63 135.243 1098.63 235C1098.63 334.757 1017.76 415.626 918 415.626C872.649 415.626 831.128 398.859 799.43 371.262C796.24 368.485 796.12 363.624 799.03 360.554L849.962 306.818C852.871 303.748 857.701 303.646 861.001 306.291C876.639 318.821 896.412 326.27 918 326.27C968.407 326.27 1009.27 285.407 1009.27 235C1009.27 184.593 968.407 143.73 918 143.73Z" fill="#DCE7FD" fill-opacity="0.3"/>
<circle cx="917.362" cy="235" r="131.799" stroke="url(#paint0_linear_4251_1026)" stroke-opacity="0.5" stroke-width="1.91476" stroke-dasharray="9.57 9.57"/>
<path d="M687.389 249.329C687.196 246.167 687.066 242.987 687.001 239.792L687.958 239.772C687.926 238.186 687.91 236.595 687.91 235C687.91 233.405 687.926 231.815 687.958 230.228L687.001 230.208C687.066 227.013 687.196 223.833 687.389 220.671L688.345 220.729C688.539 217.554 688.798 214.397 689.12 211.258L688.167 211.16C688.493 207.979 688.884 204.816 689.338 201.675L690.285 201.811C690.74 198.661 691.259 195.532 691.841 192.425L690.9 192.248C691.487 189.109 692.138 185.992 692.851 182.899L693.784 183.114C694.498 180.016 695.274 176.942 696.112 173.894L695.189 173.64C696.034 170.563 696.941 167.512 697.909 164.488L698.821 164.78C699.79 161.755 700.819 158.757 701.908 155.787L701.009 155.458C702.108 152.461 703.267 149.494 704.484 146.558L705.369 146.925C706.585 143.99 707.861 141.087 709.195 138.215L708.326 137.812C709.669 134.92 711.07 132.06 712.527 129.234L713.378 129.673C714.834 126.852 716.345 124.064 717.912 121.312L717.08 120.839C718.657 118.069 720.29 115.335 721.977 112.639L722.788 113.147C724.471 110.457 726.208 107.804 727.997 105.19L727.207 104.649C729.007 102.02 730.86 99.4299 732.763 96.8807L733.53 97.4536C735.429 94.9116 737.379 92.4101 739.378 89.9507L738.635 89.3468C740.645 86.8754 742.704 84.4464 744.812 82.0613L745.529 82.6953C747.63 80.3189 749.778 77.9863 751.973 75.6989L751.282 75.036C753.487 72.7389 755.739 70.4872 758.036 68.2826L758.699 68.9733C760.986 66.778 763.319 64.6296 765.695 62.5295L765.061 61.8121C767.446 59.7042 769.875 57.6449 772.347 55.6356L772.951 56.3784C775.41 54.3788 777.911 52.429 780.453 50.5305L779.881 49.7635C782.43 47.8596 785.02 46.0071 787.649 44.2075L788.189 44.9975C790.804 43.2081 793.456 41.4712 796.147 39.7884L795.639 38.9767C798.335 37.2901 801.069 35.6575 803.838 34.0805L804.312 34.9124C807.064 33.3454 809.851 31.8336 812.673 30.3784L812.234 29.5275C815.06 28.07 817.919 26.6691 820.812 25.3262L821.215 26.1945C824.086 24.8612 826.99 23.5854 829.924 22.3686L829.558 21.4843C832.494 20.2666 835.461 19.1076 838.457 18.009L838.787 18.9079C841.756 17.8191 844.754 16.7897 847.78 15.8213L847.488 14.9095C850.512 13.9414 853.563 13.034 856.64 12.1886L856.894 13.1117C859.942 12.2741 863.016 11.4976 866.113 10.7837L865.898 9.85076C868.992 9.13781 872.109 8.48702 875.248 7.89968L875.424 8.84072C878.532 8.25936 881.661 7.7405 884.811 7.28542L884.674 6.33788C887.816 5.88399 890.979 5.49334 894.16 5.16723L894.258 6.11962C897.397 5.79784 900.554 5.5392 903.729 5.34493L903.671 4.38933C906.833 4.19585 910.013 4.06594 913.208 4.00093L913.228 4.95812C914.815 4.92583 916.405 4.9096 918 4.9096C919.595 4.9096 921.185 4.92583 922.772 4.95812L922.792 4.00093C925.987 4.06594 929.167 4.19582 932.329 4.3893L932.271 5.3449C935.446 5.53917 938.603 5.79784 941.742 6.11958L941.84 5.16719C945.021 5.4933 948.184 5.88396 951.326 6.33785L951.189 7.28539C954.339 7.74046 957.468 8.25935 960.576 8.84068L960.752 7.89964C963.891 8.48698 967.008 9.1378 970.102 9.85075L969.886 10.7837C972.984 11.4976 976.058 12.2741 979.106 13.1117L979.36 12.1886C982.437 13.034 985.488 13.9414 988.512 14.9095L988.22 15.8212C991.246 16.7897 994.244 17.819 997.213 18.9078L997.542 18.009C1000.54 19.1076 1003.51 20.2665 1006.44 21.4842L1006.08 22.3686C1009.01 23.5854 1011.91 24.8612 1014.79 26.1945L1015.19 25.3262C1018.08 26.669 1020.94 28.0699 1023.77 29.5274L1023.33 30.3783C1026.15 31.8335 1028.94 33.3454 1031.69 34.9124L1032.16 34.0804C1034.93 35.6574 1037.66 37.29 1040.36 38.9767L1039.85 39.7883C1042.54 41.4711 1045.2 43.208 1047.81 44.9974L1048.35 44.2074C1050.98 46.007 1053.57 47.8595 1056.12 49.7634L1055.55 50.5305C1058.09 52.429 1060.59 54.3788 1063.05 56.3783L1063.65 55.6355C1066.12 57.6448 1068.55 59.7042 1070.94 61.812L1070.3 62.5294C1072.68 64.6295 1075.01 66.778 1077.3 68.9732L1077.96 68.2825C1080.26 70.4871 1082.51 72.7388 1084.72 75.036L1084.03 75.6989C1086.22 77.9862 1088.37 80.3188 1090.47 82.6952L1091.19 82.0612C1093.3 84.4463 1095.36 86.8753 1097.36 89.3467L1096.62 89.9506C1098.62 92.41 1100.57 94.9114 1102.47 97.4535L1103.24 96.8806C1105.14 99.4298 1106.99 102.02 1108.79 104.649L1108 105.189C1109.79 107.804 1111.53 110.456 1113.21 113.147L1114.02 112.639C1115.71 115.335 1117.34 118.069 1118.92 120.838L1118.09 121.312C1119.65 124.064 1121.17 126.851 1122.62 129.673L1123.47 129.234C1124.93 132.06 1126.33 134.919 1127.67 137.812L1126.81 138.215C1128.14 141.086 1129.41 143.99 1130.63 146.924L1131.52 146.558C1132.73 149.494 1133.89 152.461 1134.99 155.457L1134.09 155.787C1135.18 158.756 1136.21 161.754 1137.18 164.78L1138.09 164.488C1139.06 167.512 1139.97 170.563 1140.81 173.64L1139.89 173.894C1140.73 176.942 1141.5 180.016 1142.22 183.113L1143.15 182.898C1143.86 185.992 1144.51 189.109 1145.1 192.248L1144.16 192.424C1144.74 195.532 1145.26 198.661 1145.71 201.811L1146.66 201.674C1147.12 204.816 1147.51 207.979 1147.83 211.16L1146.88 211.258C1147.2 214.397 1147.46 217.554 1147.66 220.729L1148.61 220.671C1148.8 223.833 1148.93 227.013 1149 230.208L1148.04 230.228C1148.07 231.815 1148.09 233.405 1148.09 235C1148.09 236.595 1148.07 238.185 1148.04 239.772L1149 239.792C1148.93 242.987 1148.8 246.167 1148.61 249.329L1147.66 249.271C1147.46 252.446 1147.2 255.603 1146.88 258.742L1147.83 258.84C1147.51 262.021 1147.12 265.184 1146.66 268.326L1145.71 268.189C1145.26 271.339 1144.74 274.468 1144.16 277.576L1145.1 277.752C1144.51 280.891 1143.86 284.008 1143.15 287.102L1142.22 286.887C1141.5 289.984 1140.73 293.058 1139.89 296.106L1140.81 296.36C1139.97 299.437 1139.06 302.488 1138.09 305.512L1137.18 305.22C1136.21 308.246 1135.18 311.244 1134.09 314.213L1134.99 314.542C1133.89 317.539 1132.73 320.506 1131.52 323.442L1130.63 323.076C1129.41 326.01 1128.14 328.914 1126.81 331.785L1127.67 332.188C1126.33 335.081 1124.93 337.94 1123.47 340.766L1122.62 340.327C1121.17 343.149 1119.65 345.936 1118.09 348.688L1118.92 349.162C1117.34 351.931 1115.71 354.665 1114.02 357.361L1113.21 356.853C1111.53 359.544 1109.79 362.196 1108 364.811L1108.79 365.351C1106.99 367.98 1105.14 370.57 1103.24 373.119L1102.47 372.547C1100.57 375.089 1098.62 377.59 1096.62 380.049L1097.36 380.653C1095.36 383.125 1093.3 385.554 1091.19 387.939L1090.47 387.305C1088.37 389.681 1086.22 392.014 1084.03 394.301L1084.72 394.964C1082.51 397.261 1080.26 399.513 1077.96 401.718L1077.3 401.027C1075.01 403.222 1072.68 405.371 1070.3 407.471L1070.94 408.188C1068.55 410.296 1066.12 412.355 1063.65 414.365L1063.05 413.622C1060.59 415.621 1058.09 417.571 1055.55 419.47L1056.12 420.237C1053.57 422.141 1050.98 423.993 1048.35 425.793L1047.81 425.003C1045.2 426.792 1042.54 428.529 1039.85 430.212L1040.36 431.023C1037.66 432.71 1034.93 434.343 1032.16 435.92L1031.69 435.088C1028.94 436.655 1026.15 438.167 1023.33 439.622L1023.77 440.473C1020.94 441.93 1018.08 443.331 1015.19 444.674L1014.79 443.806C1011.91 445.139 1009.01 446.415 1006.08 447.631L1006.44 448.516C1003.51 449.734 1000.54 450.892 997.543 451.991L997.213 451.092C994.244 452.181 991.246 453.21 988.22 454.179L988.512 455.091C985.488 456.059 982.437 456.966 979.36 457.812L979.107 456.888C976.058 457.726 972.984 458.502 969.887 459.216L970.102 460.149C967.008 460.862 963.891 461.513 960.752 462.1L960.576 461.159C957.468 461.741 954.339 462.26 951.189 462.715L951.326 463.662C948.184 464.116 945.022 464.507 941.84 464.833L941.742 463.88C938.604 464.202 935.446 464.461 932.271 464.655L932.329 465.611C929.167 465.804 925.987 465.934 922.792 465.999L922.772 465.042C921.186 465.074 919.595 465.09 918 465.09C916.405 465.09 914.815 465.074 913.228 465.042L913.208 465.999C910.013 465.934 906.833 465.804 903.671 465.611L903.729 464.655C900.554 464.461 897.397 464.202 894.258 463.881L894.16 464.833C890.979 464.507 887.816 464.116 884.675 463.662L884.811 462.715C881.661 462.26 878.532 461.741 875.424 461.159L875.248 462.1C872.109 461.513 868.992 460.862 865.899 460.149L866.114 459.216C863.016 458.502 859.942 457.726 856.894 456.888L856.64 457.812C853.563 456.966 850.512 456.059 847.488 455.091L847.78 454.179C844.755 453.21 841.757 452.181 838.787 451.092L838.458 451.991C835.461 450.893 832.494 449.734 829.558 448.516L829.925 447.632C826.99 446.415 824.087 445.139 821.215 443.806L820.812 444.674C817.92 443.331 815.06 441.93 812.234 440.473L812.673 439.622C809.852 438.167 807.064 436.655 804.312 435.088L803.838 435.92C801.069 434.343 798.335 432.71 795.639 431.023L796.147 430.212C793.457 428.529 790.804 426.792 788.19 425.003L787.649 425.793C785.02 423.993 782.43 422.141 779.881 420.237L780.454 419.47C777.912 417.571 775.41 415.621 772.951 413.622L772.347 414.365C769.875 412.355 767.446 410.296 765.061 408.188L765.695 407.471C763.319 405.371 760.986 403.222 758.699 401.027L758.036 401.718C755.739 399.513 753.487 397.261 751.283 394.964L751.973 394.301C749.778 392.014 747.63 389.681 745.53 387.305L744.812 387.939C742.704 385.554 740.645 383.125 738.636 380.653L739.378 380.049C737.379 377.59 735.429 375.089 733.531 372.547L732.763 373.12C730.86 370.57 729.007 367.98 727.207 365.351L727.997 364.811C726.208 362.197 724.471 359.544 722.788 356.853L721.977 357.361C720.29 354.665 718.657 351.931 717.08 349.162L717.912 348.688C716.345 345.936 714.834 343.149 713.378 340.327L712.528 340.766C711.07 337.94 709.669 335.081 708.326 332.188L709.195 331.785C707.861 328.914 706.585 326.01 705.369 323.076L704.484 323.442C703.267 320.506 702.108 317.539 701.009 314.543L701.908 314.213C700.819 311.244 699.79 308.246 698.821 305.22L697.91 305.512C696.941 302.488 696.034 299.437 695.189 296.36L696.112 296.107C695.274 293.058 694.498 289.984 693.784 286.887L692.851 287.102C692.138 284.008 691.487 280.891 690.9 277.752L691.841 277.576C691.259 274.468 690.741 271.339 690.285 268.189L689.338 268.326C688.884 265.184 688.493 262.022 688.167 258.84L689.12 258.742C688.798 255.604 688.539 252.446 688.345 249.271L687.389 249.329Z" stroke="url(#paint1_linear_4251_1026)" stroke-opacity="0.5" stroke-width="1.91476" stroke-dasharray="9.57 9.57"/>
<circle cx="918" cy="235" r="306.043" transform="rotate(180 918 235)" stroke="url(#paint2_linear_4251_1026)" stroke-opacity="0.5" stroke-width="1.91476" stroke-dasharray="9.57 9.57"/>
<g opacity="0.2" filter="url(#filter0_f_4251_1026)">
<circle cx="918" cy="235" r="53.6133" fill="#B4C7ED"/>
</g>
<circle cx="918" cy="235" r="53.6133" fill="white"/>
<circle cx="918" cy="235" r="53.6133" fill="white"/>
<g filter="url(#filter1_f_4251_1026)">
<rect x="900.129" y="84.3721" width="47.869" height="47.869" rx="12.1268" fill="#B4C7ED"/>
</g>
<rect x="887.364" y="71.6069" width="58.7193" height="58.7193" rx="12.1268" fill="white"/>
<g filter="url(#filter2_f_4251_1026)">
<rect x="900.129" y="349.886" width="47.869" height="47.869" rx="12.1268" fill="#B4C7ED"/>
</g>
<rect x="887.364" y="337.121" width="58.7193" height="58.7193" rx="12.1268" fill="white"/>
<g filter="url(#filter3_f_4251_1026)">
<rect x="1025.23" y="153.304" width="47.869" height="47.869" rx="12.1268" fill="#B4C7ED"/>
</g>
<rect x="1012.46" y="140.539" width="58.7193" height="58.7193" rx="12.1268" fill="white"/>
<g filter="url(#filter4_f_4251_1026)">
<rect x="777.584" y="153.304" width="47.869" height="47.869" rx="12.1268" fill="#B4C7ED"/>
</g>
<rect x="764.819" y="140.539" width="58.7193" height="58.7193" rx="12.1268" fill="white"/>
<path d="M798.484 178.51V179.371C798.484 180.056 798.212 180.713 797.727 181.197C797.243 181.682 796.586 181.954 795.901 181.954H792.456C791.77 181.954 791.113 181.682 790.629 181.197C790.144 180.713 789.872 180.056 789.872 179.371V178.51H798.484Z" fill="#18181B"/>
<path d="M802.791 166.458C802.794 167.761 802.499 169.047 801.929 170.218C801.358 171.39 800.528 172.415 799.501 173.217C799.185 173.457 798.93 173.767 798.753 174.123C798.577 174.478 798.485 174.869 798.485 175.266V176.79H795.04V171.469C795.542 171.291 795.978 170.963 796.286 170.528C796.594 170.093 796.761 169.574 796.762 169.041V167.319C796.762 166.634 796.49 165.977 796.005 165.493C795.521 165.008 794.864 164.736 794.179 164.736C793.493 164.736 792.836 165.008 792.352 165.493C791.867 165.977 791.595 166.634 791.595 167.319V169.041C791.596 169.574 791.763 170.093 792.071 170.528C792.379 170.963 792.815 171.291 793.317 171.469V176.79H789.872V175.266C789.877 174.883 789.793 174.504 789.629 174.158C789.465 173.812 789.224 173.508 788.925 173.268C787.877 172.47 787.029 171.439 786.446 170.257C785.864 169.076 785.562 167.776 785.566 166.458C785.583 164.225 786.459 162.085 788.013 160.481C789.567 158.878 791.68 157.935 793.912 157.848C795.071 157.801 796.228 157.992 797.311 158.41C798.394 158.827 799.38 159.463 800.207 160.276C801.032 161.079 801.686 162.041 802.13 163.103C802.574 164.166 802.799 165.307 802.791 166.458Z" fill="#FFCA20"/>
<path d="M795.041 167.314V169.036C795.041 169.265 794.95 169.484 794.788 169.645C794.627 169.807 794.408 169.898 794.179 169.898C793.951 169.898 793.732 169.807 793.57 169.645C793.409 169.484 793.318 169.265 793.318 169.036V167.314C793.318 167.085 793.409 166.866 793.57 166.705C793.732 166.543 793.951 166.453 794.179 166.453C794.408 166.453 794.627 166.543 794.788 166.705C794.95 166.866 795.041 167.085 795.041 167.314Z" fill="#ED7100"/>
<g filter="url(#filter5_f_4251_1026)">
<rect x="1025.23" y="283.507" width="47.869" height="47.869" rx="12.1268" fill="#B4C7ED"/>
</g>
<rect x="1012.46" y="270.742" width="58.7193" height="58.7193" rx="12.1268" fill="white"/>
<g filter="url(#filter6_f_4251_1026)">
<rect x="777.584" y="283.507" width="47.869" height="47.869" rx="12.1268" fill="#B4C7ED"/>
</g>
<rect x="764.819" y="270.742" width="58.7193" height="58.7193" rx="12.1268" fill="white"/>
<path d="M1051.97 302.894V303.573C1051.99 303.899 1051.94 304.226 1051.82 304.534C1051.7 304.841 1051.51 305.122 1051.27 305.36C1051.03 305.598 1050.75 305.788 1050.42 305.917C1050.1 306.047 1049.76 306.113 1049.41 306.113C1049.06 306.113 1048.71 306.047 1048.39 305.917C1048.07 305.788 1047.78 305.598 1047.54 305.36C1047.3 305.122 1047.12 304.841 1047 304.534C1046.88 304.226 1046.83 303.899 1046.85 303.573V302.925C1046.83 302.599 1046.88 302.271 1047 301.964C1047.12 301.657 1047.3 301.375 1047.54 301.138C1047.78 300.9 1048.07 300.71 1048.39 300.581C1048.71 300.451 1049.06 300.385 1049.41 300.385C1049.76 300.385 1050.1 300.451 1050.42 300.581C1050.75 300.71 1051.03 300.9 1051.27 301.138C1051.51 301.375 1051.7 301.657 1051.82 301.964C1051.94 302.271 1051.99 302.599 1051.97 302.925V302.894ZM1036.85 302.894V303.573C1036.87 303.899 1036.81 304.226 1036.69 304.534C1036.57 304.841 1036.39 305.122 1036.15 305.36C1035.91 305.598 1035.62 305.788 1035.3 305.917C1034.98 306.047 1034.63 306.113 1034.28 306.113C1033.94 306.113 1033.59 306.047 1033.27 305.917C1032.95 305.788 1032.66 305.598 1032.42 305.36C1032.18 305.122 1031.99 304.841 1031.87 304.534C1031.75 304.226 1031.7 303.899 1031.72 303.573V302.925C1031.7 302.599 1031.75 302.271 1031.87 301.964C1031.99 301.657 1032.18 301.375 1032.42 301.138C1032.66 300.9 1032.95 300.71 1033.27 300.581C1033.59 300.451 1033.94 300.385 1034.28 300.385C1034.63 300.385 1034.98 300.451 1035.3 300.581C1035.62 300.71 1035.91 300.9 1036.15 301.138C1036.39 301.375 1036.57 301.657 1036.69 301.964C1036.81 302.271 1036.87 302.599 1036.85 302.925V302.894ZM1044.41 291.656V292.334C1044.41 292.972 1044.14 293.584 1043.66 294.035C1043.18 294.486 1042.53 294.739 1041.85 294.739C1041.17 294.739 1040.51 294.486 1040.03 294.035C1039.55 293.584 1039.28 292.972 1039.28 292.334V291.656C1039.28 291.018 1039.55 290.407 1040.03 289.956C1040.51 289.505 1041.17 289.252 1041.85 289.252C1042.53 289.252 1043.18 289.505 1043.66 289.956C1044.14 290.407 1044.41 291.018 1044.41 291.656Z" fill="#ED7100"/>
<path d="M1049.2 299.721C1049 299.722 1048.8 299.653 1048.65 299.526C1048.5 299.4 1048.4 299.225 1048.38 299.035C1048.35 298.804 1048.31 298.575 1048.25 298.349C1047.96 297.092 1047.25 295.954 1046.23 295.097C1046.15 295.029 1046.08 294.947 1046.04 294.856C1045.99 294.764 1045.96 294.665 1045.96 294.564C1045.95 294.462 1045.97 294.361 1046 294.265C1046.04 294.17 1046.1 294.082 1046.17 294.006C1046.24 293.931 1046.33 293.87 1046.43 293.826C1046.52 293.782 1046.63 293.757 1046.74 293.752C1046.85 293.746 1046.95 293.761 1047.06 293.795C1047.16 293.828 1047.25 293.881 1047.33 293.949C1048.84 295.214 1049.79 296.953 1050.02 298.835C1050.05 299.037 1049.98 299.24 1049.85 299.398C1049.71 299.557 1049.51 299.659 1049.3 299.683L1049.2 299.721ZM1034.49 299.721H1034.4C1034.18 299.698 1033.98 299.596 1033.85 299.437C1033.71 299.278 1033.65 299.076 1033.67 298.873C1033.9 296.988 1034.86 295.247 1036.36 293.979C1036.52 293.878 1036.72 293.835 1036.91 293.856C1037.11 293.878 1037.29 293.964 1037.42 294.099C1037.55 294.233 1037.63 294.407 1037.64 294.59C1037.65 294.773 1037.58 294.953 1037.46 295.097C1036.44 295.953 1035.73 297.092 1035.43 298.349C1035.37 298.575 1035.33 298.804 1035.31 299.035C1035.29 299.223 1035.19 299.397 1035.04 299.524C1034.89 299.65 1034.7 299.72 1034.49 299.721Z" fill="#18181B"/>
<path d="M1038.07 306.078C1039.24 306.642 1040.53 306.935 1041.85 306.934C1043.11 306.946 1044.37 306.683 1045.51 306.163C1045.71 306.072 1045.86 305.91 1045.93 305.714C1046 305.517 1045.99 305.302 1045.89 305.115C1045.8 304.928 1045.62 304.785 1045.41 304.717C1045.2 304.649 1044.97 304.662 1044.77 304.753C1043.85 305.179 1042.83 305.396 1041.8 305.388C1040.76 305.38 1039.75 305.147 1038.83 304.706C1038.63 304.612 1038.41 304.594 1038.2 304.657C1038.1 304.687 1038 304.737 1037.92 304.802C1037.84 304.868 1037.77 304.948 1037.72 305.038C1037.67 305.128 1037.64 305.226 1037.63 305.327C1037.62 305.428 1037.63 305.53 1037.67 305.627C1037.7 305.723 1037.75 305.813 1037.82 305.89C1037.89 305.968 1037.98 306.032 1038.07 306.078Z" fill="#18181B"/>
<path d="M1036.02 306.655H1032.55C1031.96 306.657 1031.4 306.876 1030.98 307.265C1030.57 307.653 1030.33 308.179 1030.33 308.728V310.181C1030.33 310.385 1030.42 310.581 1030.57 310.726C1030.73 310.871 1030.94 310.952 1031.16 310.952H1037.73V310.89C1037.89 310.832 1038.01 310.734 1038.1 310.608C1038.2 310.482 1038.24 310.333 1038.24 310.181V308.728C1038.24 308.178 1038.01 307.651 1037.59 307.262C1037.18 306.873 1036.61 306.655 1036.02 306.655ZM1051.15 306.655H1047.67C1047.08 306.655 1046.52 306.873 1046.1 307.262C1045.69 307.651 1045.45 308.178 1045.45 308.728V310.181C1045.45 310.333 1045.5 310.482 1045.59 310.608C1045.68 310.734 1045.81 310.832 1045.96 310.89V310.952H1052.54C1052.76 310.952 1052.97 310.871 1053.12 310.726C1053.28 310.581 1053.36 310.385 1053.36 310.181V308.728C1053.36 308.179 1053.13 307.653 1052.71 307.265C1052.3 306.876 1051.74 306.657 1051.15 306.655ZM1043.59 295.569H1040.1C1039.52 295.571 1038.96 295.79 1038.54 296.178C1038.13 296.567 1037.89 297.093 1037.89 297.642V298.652C1037.89 298.833 1037.95 299.01 1038.07 299.151C1038.2 299.292 1038.37 299.388 1038.56 299.422H1045.14C1045.33 299.388 1045.5 299.292 1045.62 299.151C1045.74 299.01 1045.81 298.833 1045.8 298.652V297.642C1045.8 297.093 1045.57 296.567 1045.15 296.178C1044.74 295.79 1044.18 295.571 1043.59 295.569Z" fill="#6762FE"/>
<g clip-path="url(#clip1_4251_1026)">
<path d="M914.062 376.507H902.755C902.369 376.507 901.998 376.352 901.725 376.077C901.452 375.802 901.299 375.429 901.299 375.039C901.299 374.65 901.452 374.277 901.725 374.002C901.998 373.726 902.369 373.572 902.755 373.572H914.062C916.121 373.572 918.096 372.747 919.552 371.279C921.008 369.811 921.826 367.821 921.826 365.745C921.826 365.356 921.98 364.982 922.253 364.707C922.526 364.432 922.896 364.277 923.282 364.277C923.668 364.277 924.038 364.432 924.311 364.707C924.584 364.982 924.738 365.356 924.738 365.745C924.738 368.599 923.613 371.336 921.611 373.355C919.609 375.373 916.893 376.507 914.062 376.507Z" fill="#FF5665"/>
<path d="M932.075 374.04L929.164 371.193C928.887 370.926 928.518 370.776 928.135 370.776C927.751 370.776 927.383 370.926 927.106 371.193C926.97 371.323 926.862 371.479 926.789 371.653C926.715 371.826 926.677 372.012 926.677 372.201C926.677 372.389 926.715 372.576 926.789 372.749C926.862 372.923 926.97 373.079 927.106 373.209L927.465 373.571H923.239C922.418 374.903 921.193 375.932 919.745 376.506H927.465L927.067 376.897C926.932 377.027 926.824 377.183 926.75 377.356C926.676 377.53 926.638 377.716 926.638 377.905C926.638 378.093 926.676 378.28 926.75 378.453C926.824 378.627 926.932 378.783 927.067 378.913C927.202 379.048 927.363 379.155 927.54 379.227C927.716 379.299 927.905 379.335 928.096 379.333C928.481 379.336 928.85 379.184 929.125 378.913L932.036 376.066C932.175 375.938 932.286 375.783 932.364 375.61C932.441 375.437 932.483 375.251 932.486 375.061C932.49 374.872 932.455 374.684 932.385 374.508C932.314 374.333 932.209 374.174 932.075 374.04Z" fill="#01A88D"/>
<path d="M911.383 356.274L914.295 353.417C914.573 353.149 914.943 352.999 915.328 352.999C915.714 352.999 916.084 353.149 916.362 353.417C916.495 353.549 916.601 353.705 916.674 353.879C916.746 354.052 916.783 354.237 916.783 354.425C916.783 354.613 916.746 354.799 916.674 354.972C916.601 355.145 916.495 355.302 916.362 355.433L915.993 355.795V357.223V358.73L916.401 359.121C916.534 359.253 916.64 359.409 916.712 359.582C916.785 359.755 916.822 359.941 916.822 360.129C916.822 360.317 916.785 360.503 916.712 360.676C916.64 360.849 916.534 361.006 916.401 361.137C916.123 361.409 915.75 361.56 915.362 361.558C914.978 361.56 914.608 361.408 914.334 361.137L911.422 358.29C911.284 358.163 911.173 358.008 911.095 357.837C911.018 357.665 910.977 357.479 910.973 357.29C910.969 357.102 911.004 356.915 911.074 356.74C911.145 356.565 911.25 356.407 911.383 356.274Z" fill="#FF5665"/>
<path d="M923.282 367.212C922.896 367.212 922.526 367.057 922.253 366.782C921.98 366.507 921.827 366.133 921.827 365.744C921.827 363.885 921.095 362.102 919.792 360.787C918.489 359.472 916.721 358.732 914.877 358.729C914.491 358.729 914.121 358.574 913.848 358.299C913.575 358.024 913.422 357.651 913.422 357.262C913.422 356.872 913.575 356.499 913.848 356.224C914.121 355.949 914.491 355.794 914.877 355.794C917.493 355.799 919.999 356.849 921.848 358.715C923.696 360.58 924.736 363.108 924.738 365.744C924.738 366.133 924.585 366.507 924.312 366.782C924.039 367.057 923.669 367.212 923.282 367.212Z" fill="#FF5665"/>
<path d="M908.296 372.143C907.935 372.131 907.591 371.989 907.326 371.741C906.56 370.941 905.964 369.992 905.572 368.953C905.18 367.914 905.001 366.806 905.045 365.695C905.044 363.159 906.039 360.725 907.811 358.925C908.083 358.647 908.452 358.49 908.839 358.487C909.226 358.484 909.598 358.636 909.873 358.91C910.149 359.184 910.305 359.557 910.308 359.947C910.311 360.336 910.16 360.711 909.888 360.989C908.65 362.238 907.952 363.929 907.947 365.695C907.909 366.408 908.012 367.121 908.25 367.792C908.488 368.464 908.857 369.082 909.335 369.609C909.606 369.887 909.757 370.261 909.757 370.65C909.757 371.04 909.606 371.414 909.335 371.692C909.06 371.974 908.688 372.135 908.296 372.143Z" fill="#ED7100"/>
</g>
<path d="M916.1 103.675C915.564 103.675 915.039 103.517 914.592 103.219C914.146 102.922 913.797 102.499 913.591 102.003C913.385 101.508 913.33 100.962 913.433 100.436C913.537 99.9091 913.794 99.425 914.172 99.0444C914.487 98.7274 914.876 98.4931 915.303 98.3623C915.73 98.2314 916.183 98.208 916.622 98.2941C917.06 98.3802 917.471 98.5732 917.817 98.8559C918.163 99.1387 918.434 99.5025 918.606 99.915C918.777 100.328 918.845 100.776 918.802 101.221C918.758 101.666 918.606 102.093 918.359 102.465C918.111 102.837 917.775 103.142 917.381 103.353C916.987 103.564 916.547 103.675 916.1 103.675Z" fill="#FF5665"/>
<path d="M916.12 111.803C914.191 111.81 912.295 111.303 910.628 110.334C908.96 109.364 907.582 107.968 906.634 106.288C905.686 104.608 905.204 102.706 905.236 100.777C905.269 98.8489 905.815 96.964 906.818 95.3169C907.822 93.6699 909.247 92.3204 910.946 91.4076C912.645 90.4947 914.557 90.0516 916.484 90.1238C918.412 90.196 920.285 90.7811 921.911 91.8185C923.537 92.856 924.856 94.3083 925.734 96.0258C925.844 96.2403 925.865 96.4898 925.791 96.7194C925.717 96.9491 925.555 97.14 925.341 97.2502C925.126 97.3605 924.877 97.381 924.647 97.3073C924.418 97.2336 924.227 97.0716 924.117 96.8572C923.195 95.0487 921.692 93.6031 919.848 92.7534C918.005 91.9036 915.929 91.6992 913.956 92.1731C911.982 92.6469 910.226 93.7714 908.969 95.3654C907.712 96.9593 907.029 98.9299 907.029 100.96C907.029 102.989 907.712 104.96 908.969 106.554C910.226 108.148 911.982 109.272 913.956 109.746C915.929 110.22 918.005 110.016 919.848 109.166C921.692 108.316 923.195 106.871 924.117 105.062C924.227 104.848 924.418 104.686 924.647 104.612C924.877 104.538 925.126 104.559 925.341 104.669C925.555 104.779 925.717 104.97 925.791 105.2C925.865 105.429 925.844 105.679 925.734 105.893C924.828 107.666 923.452 109.155 921.756 110.198C920.06 111.24 918.11 111.795 916.12 111.803Z" fill="#FF5665"/>
<path d="M916.12 107.286C915.065 107.287 914.026 107.024 913.099 106.521C912.171 106.017 911.385 105.29 910.81 104.405C910.236 103.52 909.892 102.506 909.809 101.454C909.727 100.402 909.91 99.3459 910.34 98.3825C910.77 97.419 911.434 96.5785 912.272 95.9374C913.11 95.2962 914.095 94.8749 915.138 94.7118C916.18 94.5487 917.247 94.6489 918.241 95.0033C919.234 95.3578 920.124 95.9552 920.828 96.7412C920.907 96.8296 920.968 96.9328 921.008 97.0449C921.048 97.157 921.065 97.2758 921.059 97.3945C921.052 97.5133 921.023 97.6296 920.971 97.7369C920.92 97.8442 920.848 97.9403 920.76 98.0198C920.671 98.0993 920.568 98.1606 920.456 98.2003C920.344 98.2399 920.225 98.257 920.106 98.2507C919.988 98.2444 919.871 98.2148 919.764 98.1636C919.657 98.1123 919.561 98.0404 919.481 97.952C918.872 97.2692 918.069 96.7877 917.179 96.5712C916.29 96.3547 915.356 96.4134 914.501 96.7397C913.645 97.0659 912.909 97.6443 912.39 98.3981C911.871 99.1519 911.593 100.046 911.593 100.961C911.593 101.876 911.871 102.77 912.39 103.524C912.909 104.278 913.645 104.856 914.501 105.183C915.356 105.509 916.29 105.568 917.179 105.351C918.069 105.135 918.872 104.653 919.481 103.97C919.561 103.882 919.657 103.81 919.764 103.759C919.871 103.707 919.988 103.678 920.106 103.671C920.225 103.665 920.344 103.682 920.456 103.722C920.568 103.762 920.671 103.823 920.76 103.902C920.848 103.982 920.92 104.078 920.971 104.185C921.023 104.293 921.052 104.409 921.059 104.528C921.065 104.646 921.048 104.765 921.008 104.877C920.968 104.989 920.907 105.093 920.828 105.181C920.235 105.843 919.509 106.373 918.698 106.735C917.887 107.098 917.008 107.286 916.12 107.286Z" fill="#ED7100"/>
<path d="M925.156 101.864H916.12C915.88 101.864 915.65 101.769 915.481 101.6C915.311 101.43 915.216 101.2 915.216 100.961C915.216 100.721 915.311 100.491 915.481 100.322C915.65 100.152 915.88 100.057 916.12 100.057H925.156C925.396 100.057 925.625 100.152 925.795 100.322C925.964 100.491 926.06 100.721 926.06 100.961C926.06 101.2 925.964 101.43 925.795 101.6C925.625 101.769 925.396 101.864 925.156 101.864Z" fill="#18181B"/>
<path d="M926.991 103.743C926.874 103.744 926.757 103.721 926.648 103.675C926.54 103.63 926.441 103.562 926.357 103.478L924.528 101.644C924.444 101.558 924.378 101.457 924.333 101.346C924.287 101.234 924.264 101.115 924.264 100.994C924.264 100.873 924.287 100.753 924.333 100.642C924.378 100.53 924.444 100.429 924.528 100.344L926.358 98.5139C926.441 98.4281 926.54 98.36 926.648 98.3135C926.757 98.2671 926.874 98.2432 926.992 98.2432C927.11 98.2432 927.226 98.2671 927.335 98.3135C927.444 98.36 927.543 98.4281 927.626 98.5139C927.792 98.6853 927.885 98.9172 927.885 99.159C927.885 99.4008 927.792 99.6327 927.626 99.8041L926.42 100.994L927.625 102.187C927.748 102.316 927.831 102.479 927.864 102.655C927.897 102.832 927.879 103.015 927.811 103.181C927.744 103.347 927.63 103.488 927.484 103.588C927.338 103.688 927.167 103.742 926.991 103.743Z" fill="#18181B"/>
<path d="M1034.77 173.774V171.707C1034.77 170.708 1035.58 169.899 1036.58 169.899H1041.82M1041.82 169.899V166.023M1041.82 169.899H1047.07C1048.06 169.899 1048.87 170.708 1048.87 171.707V173.774" stroke="#18181B" stroke-width="1.80839" stroke-linecap="round" stroke-linejoin="round"/>
<rect x="1037.12" y="159.048" width="9.4036" height="5.42514" rx="1.80839" fill="#ED7100"/>
<rect x="1030.07" y="175.323" width="9.4036" height="5.42514" rx="1.80839" fill="#E7157B"/>
<rect x="1044.17" y="175.323" width="9.4036" height="5.42514" rx="1.80839" fill="#E7157B"/>
<path d="M797.316 299.681C797.318 299.948 797.284 300.214 797.213 300.472C797.036 301.149 796.64 301.748 796.087 302.175C795.534 302.603 794.854 302.834 794.155 302.834C793.456 302.834 792.776 302.603 792.223 302.175C791.67 301.748 791.274 301.149 791.097 300.472C790.96 299.954 790.96 299.409 791.097 298.891C791.274 298.214 791.67 297.615 792.223 297.188C792.776 296.76 793.456 296.528 794.155 296.528C794.854 296.528 795.534 296.76 796.087 297.188C796.64 297.615 797.036 298.214 797.213 298.891C797.284 299.148 797.318 299.414 797.316 299.681Z" fill="#ED7100"/>
<path d="M789.414 291.775C789.416 292.042 789.382 292.308 789.311 292.566C789.119 293.311 788.661 293.961 788.025 294.393C787.388 294.825 786.616 295.009 785.852 294.912C785.089 294.815 784.388 294.443 783.879 293.866C783.37 293.288 783.09 292.545 783.09 291.775C783.09 291.006 783.37 290.263 783.879 289.685C784.388 289.108 785.089 288.735 785.852 288.638C786.616 288.542 787.388 288.726 788.025 289.158C788.661 289.59 789.119 290.24 789.311 290.985C789.382 291.242 789.416 291.508 789.414 291.775Z" fill="#FF5665"/>
<path d="M803.638 295.73C803.638 296.988 803.138 298.195 802.249 299.084C801.36 299.974 800.154 300.473 798.897 300.473H797.213C797.35 299.955 797.35 299.41 797.213 298.892H798.897C799.735 298.892 800.539 298.559 801.132 297.966C801.724 297.373 802.057 296.569 802.057 295.73C802.057 294.891 801.724 294.087 801.132 293.494C800.539 292.901 799.735 292.568 798.897 292.568H789.311C789.382 292.31 789.416 292.044 789.414 291.777C789.416 291.51 789.382 291.244 789.311 290.987H798.897C800.154 290.987 801.36 291.487 802.249 292.376C803.138 293.266 803.638 294.472 803.638 295.73ZM795.675 307.847V307.847C795.671 308.275 795.328 308.622 794.9 308.622H789.657C788.4 308.622 787.194 308.122 786.304 307.232C785.415 306.343 784.916 305.136 784.916 303.878C784.916 302.62 785.172 301.171 786.061 300.281C786.951 299.392 788.157 298.892 789.414 298.892H791.097C790.96 299.41 790.96 299.955 791.097 300.473H789.414C788.576 300.473 787.772 300.806 787.179 301.399C786.586 301.993 786.496 303.04 786.496 303.878C786.496 304.717 786.829 305.521 787.422 306.114C788.015 306.707 788.819 307.041 789.657 307.041H794.869C795.314 307.041 795.675 307.401 795.675 307.847V307.847Z" fill="#18181B"/>
<path d="M800.591 304.305C801.099 303.806 801.923 303.806 802.431 304.305L805.034 306.858C805.543 307.357 805.543 308.165 805.034 308.663L802.431 311.216C802.177 311.466 801.844 311.59 801.511 311.59C801.178 311.59 800.845 311.466 800.591 311.216C800.082 310.718 800.082 309.91 800.591 309.411L800.972 309.037H797.984C797.279 309.037 796.708 308.466 796.708 307.761C796.708 307.056 797.279 306.484 797.984 306.484H800.972L800.591 306.11C800.082 305.612 800.082 304.804 800.591 304.305Z" fill="#01A88D"/>
<path d="M922.122 226.331C916.642 225.212 912.359 221.039 911.21 215.7C911.142 215.382 910.963 215.097 910.704 214.892C910.445 214.687 910.122 214.576 909.788 214.576C909.454 214.576 909.131 214.687 908.872 214.892C908.613 215.097 908.435 215.383 908.366 215.701C907.217 221.039 902.934 225.212 897.454 226.331C897.127 226.397 896.834 226.571 896.624 226.824C896.414 227.076 896.299 227.391 896.299 227.716C896.299 228.041 896.414 228.356 896.624 228.608C896.834 228.86 897.127 229.034 897.454 229.101C902.934 230.22 907.217 234.393 908.366 239.731C908.434 240.049 908.613 240.335 908.872 240.539C909.131 240.744 909.454 240.856 909.788 240.856C910.121 240.856 910.445 240.744 910.704 240.539C910.963 240.335 911.141 240.049 911.21 239.731C912.359 234.393 916.642 230.22 922.122 229.101C922.449 229.035 922.742 228.861 922.952 228.608C923.162 228.356 923.277 228.041 923.277 227.716C923.277 227.391 923.162 227.076 922.952 226.824C922.742 226.572 922.449 226.398 922.122 226.331ZM922.475 249.711C919.893 249.184 917.875 247.218 917.333 244.703C917.265 244.385 917.086 244.099 916.827 243.894C916.568 243.69 916.245 243.578 915.912 243.578C915.578 243.578 915.255 243.69 914.996 243.894C914.737 244.099 914.558 244.385 914.49 244.703C913.948 247.218 911.93 249.184 909.348 249.711C909.022 249.778 908.729 249.952 908.518 250.204C908.308 250.457 908.194 250.772 908.194 251.096C908.194 251.421 908.308 251.736 908.518 251.989C908.729 252.241 909.022 252.415 909.348 252.482C911.93 253.009 913.948 254.975 914.489 257.49C914.558 257.808 914.736 258.094 914.995 258.299C915.254 258.503 915.578 258.615 915.911 258.615C916.245 258.615 916.568 258.503 916.827 258.299C917.086 258.094 917.265 257.808 917.333 257.49C917.875 254.975 919.893 253.009 922.475 252.482C922.801 252.415 923.094 252.241 923.304 251.989C923.515 251.736 923.629 251.421 923.629 251.097C923.629 250.772 923.515 250.457 923.304 250.204C923.094 249.952 922.801 249.778 922.475 249.711ZM938.546 236.607C935.056 235.894 932.328 233.237 931.596 229.837C931.528 229.519 931.349 229.234 931.09 229.029C930.832 228.824 930.508 228.712 930.175 228.712C929.841 228.712 929.518 228.824 929.259 229.029C929 229.234 928.821 229.519 928.753 229.837C928.021 233.237 925.293 235.894 921.803 236.607C921.477 236.674 921.184 236.848 920.974 237.1C920.763 237.352 920.649 237.667 920.649 237.992C920.649 238.317 920.763 238.632 920.974 238.884C921.184 239.136 921.477 239.31 921.803 239.377C925.293 240.09 928.021 242.747 928.752 246.147C928.821 246.465 929 246.75 929.258 246.955C929.517 247.16 929.841 247.272 930.174 247.272C930.508 247.272 930.831 247.16 931.09 246.955C931.349 246.75 931.528 246.465 931.596 246.147C932.328 242.747 935.056 240.09 938.546 239.377C938.872 239.311 939.165 239.137 939.375 238.884C939.586 238.632 939.701 238.317 939.701 237.992C939.701 237.667 939.586 237.352 939.376 237.1C939.165 236.848 938.872 236.674 938.546 236.607Z" fill="#6762FE"/>
</g>
<defs>
<filter id="filter0_f_4251_1026" x="828.645" y="145.645" width="178.711" height="178.711" filterUnits="userSpaceOnUse" color-interpolation-filters="sRGB">
<feFlood flood-opacity="0" result="BackgroundImageFix"/>
<feBlend mode="normal" in="SourceGraphic" in2="BackgroundImageFix" result="shape"/>
<feGaussianBlur stdDeviation="17.8711" result="effect1_foregroundBlur_4251_1026"/>
</filter>
<filter id="filter1_f_4251_1026" x="864.387" y="48.6299" width="119.354" height="119.354" filterUnits="userSpaceOnUse" color-interpolation-filters="sRGB">
<feFlood flood-opacity="0" result="BackgroundImageFix"/>
<feBlend mode="normal" in="SourceGraphic" in2="BackgroundImageFix" result="shape"/>
<feGaussianBlur stdDeviation="17.8711" result="effect1_foregroundBlur_4251_1026"/>
</filter>
<filter id="filter2_f_4251_1026" x="864.387" y="314.144" width="119.354" height="119.354" filterUnits="userSpaceOnUse" color-interpolation-filters="sRGB">
<feFlood flood-opacity="0" result="BackgroundImageFix"/>
<feBlend mode="normal" in="SourceGraphic" in2="BackgroundImageFix" result="shape"/>
<feGaussianBlur stdDeviation="17.8711" result="effect1_foregroundBlur_4251_1026"/>
</filter>
<filter id="filter3_f_4251_1026" x="989.484" y="117.562" width="119.354" height="119.354" filterUnits="userSpaceOnUse" color-interpolation-filters="sRGB">
<feFlood flood-opacity="0" result="BackgroundImageFix"/>
<feBlend mode="normal" in="SourceGraphic" in2="BackgroundImageFix" result="shape"/>
<feGaussianBlur stdDeviation="17.8711" result="effect1_foregroundBlur_4251_1026"/>
</filter>
<filter id="filter4_f_4251_1026" x="741.842" y="117.562" width="119.354" height="119.354" filterUnits="userSpaceOnUse" color-interpolation-filters="sRGB">
<feFlood flood-opacity="0" result="BackgroundImageFix"/>
<feBlend mode="normal" in="SourceGraphic" in2="BackgroundImageFix" result="shape"/>
<feGaussianBlur stdDeviation="17.8711" result="effect1_foregroundBlur_4251_1026"/>
</filter>
<filter id="filter5_f_4251_1026" x="989.484" y="247.765" width="119.354" height="119.354" filterUnits="userSpaceOnUse" color-interpolation-filters="sRGB">
<feFlood flood-opacity="0" result="BackgroundImageFix"/>
<feBlend mode="normal" in="SourceGraphic" in2="BackgroundImageFix" result="shape"/>
<feGaussianBlur stdDeviation="17.8711" result="effect1_foregroundBlur_4251_1026"/>
</filter>
<filter id="filter6_f_4251_1026" x="741.842" y="247.765" width="119.354" height="119.354" filterUnits="userSpaceOnUse" color-interpolation-filters="sRGB">
<feFlood flood-opacity="0" result="BackgroundImageFix"/>
<feBlend mode="normal" in="SourceGraphic" in2="BackgroundImageFix" result="shape"/>
<feGaussianBlur stdDeviation="17.8711" result="effect1_foregroundBlur_4251_1026"/>
</filter>
<linearGradient id="paint0_linear_4251_1026" x1="784.605" y1="235" x2="1073.73" y2="235" gradientUnits="userSpaceOnUse">
<stop stop-color="#6762FE"/>
<stop offset="1" stop-color="#0055FF" stop-opacity="0.05"/>
</linearGradient>
<linearGradient id="paint1_linear_4251_1026" x1="1149.05" y1="235" x2="686.952" y2="235" gradientUnits="userSpaceOnUse">
<stop stop-color="#6762FE" stop-opacity="0.5"/>
<stop offset="1" stop-color="#CCD0FE" stop-opacity="0.7"/>
</linearGradient>
<linearGradient id="paint2_linear_4251_1026" x1="611" y1="235" x2="1225" y2="235" gradientUnits="userSpaceOnUse">
<stop stop-color="#6762FE" stop-opacity="0.5"/>
<stop offset="1" stop-color="#CCD0FE" stop-opacity="0.7"/>
</linearGradient>
<clipPath id="clip0_4251_1026">
<rect width="1240" height="449.5" rx="38.75" fill="white"/>
</clipPath>
<clipPath id="clip1_4251_1026">
<rect width="31.2035" height="26.328" fill="white" transform="translate(901.299 353.005)"/>
</clipPath>
</defs>
</svg>
