<svg width="101" height="72" viewBox="0 0 101 72" fill="none" xmlns="http://www.w3.org/2000/svg">
<g filter="url(#filter0_d_3115_17837)">
<path d="M81.0676 28.7795L84.8764 9.627C85.1583 8.20926 83.6419 7.11756 82.3869 7.83473L65.5749 17.4415C64.2652 18.19 64.5227 20.1502 65.9814 20.5349L73.1498 22.4255C73.5664 22.5354 73.9251 22.8006 74.1522 23.1667L77.9821 29.3394C78.7884 30.6389 80.7694 30.2794 81.0676 28.7795Z" fill="#B562FE"/>
<path d="M85.703 9.79138L81.8943 28.9439C81.4468 31.1938 78.4754 31.733 77.266 29.7837L73.4361 23.611C73.3225 23.428 73.1432 23.2953 72.9349 23.2404L65.7665 21.3498C63.5785 20.7728 63.1921 17.8325 65.1568 16.7098L81.9687 7.10298C83.8513 6.02723 86.1259 7.66477 85.703 9.79138Z" stroke="white" stroke-width="1.68559" stroke-linecap="square"/>
</g>
<g filter="url(#filter1_d_3115_17837)">
<rect width="66.9694" height="35.7424" rx="17.8712" transform="matrix(-1 0 0 1 73.969 26.9695)" fill="#F8F0FF"/>
<rect x="-0.842795" y="0.842795" width="65.2838" height="34.0568" rx="17.0284" transform="matrix(-1 0 0 1 72.2834 26.9695)" stroke="#D4A4FE" stroke-width="1.68559"/>
<path d="M23.488 51.5817C23.0121 51.5817 22.5454 51.5013 22.0881 51.3406C21.6369 51.1799 21.2259 50.942 20.8551 50.6268L22.3013 48.8839C22.4373 48.9951 22.6042 49.0971 22.8019 49.1898C22.9997 49.2764 23.2284 49.3196 23.488 49.3196C23.8279 49.3196 24.1369 49.2331 24.415 49.06C24.6932 48.8808 24.9157 48.649 25.0825 48.3647C25.2556 48.0742 25.3421 47.759 25.3421 47.4191V38.3616H27.6042V47.4191C27.6042 48.1793 27.4188 48.8746 27.0479 49.505C26.6771 50.1293 26.1796 50.633 25.5553 51.0162C24.9311 51.3932 24.242 51.5817 23.488 51.5817ZM34.0999 51.5817C33.247 51.5817 32.4683 51.3623 31.7637 50.9235C31.0653 50.4846 30.506 49.8975 30.0857 49.162C29.6716 48.4204 29.4646 47.6014 29.4646 46.7053C29.4646 46.0254 29.5851 45.3919 29.8261 44.8048C30.0672 44.2114 30.3978 43.6923 30.8181 43.2473C31.2445 42.7961 31.739 42.4438 32.3014 42.1904C32.8638 41.937 33.4633 41.8103 34.0999 41.8103C34.9528 41.8103 35.7285 42.0297 36.4269 42.4685C37.1315 42.9074 37.6908 43.4976 38.1049 44.2392C38.5252 44.9809 38.7353 45.8029 38.7353 46.7053C38.7353 47.3789 38.6148 48.0094 38.3737 48.5965C38.1327 49.1836 37.799 49.7028 37.3725 50.154C36.9522 50.599 36.4609 50.9482 35.8985 51.2016C35.3422 51.455 34.7427 51.5817 34.0999 51.5817ZM34.0999 49.3196C34.5511 49.3196 34.9559 49.1991 35.3144 48.9581C35.6729 48.717 35.9541 48.3987 36.158 48.0032C36.3682 47.6076 36.4732 47.175 36.4732 46.7053C36.4732 46.2232 36.3651 45.7844 36.1488 45.3888C35.9386 44.9871 35.6512 44.6688 35.2866 44.4339C34.9281 44.1929 34.5326 44.0724 34.0999 44.0724C33.6549 44.0724 33.2532 44.1929 32.8947 44.4339C32.5363 44.675 32.252 44.9964 32.0418 45.3981C31.8317 45.7998 31.7266 46.2355 31.7266 46.7053C31.7266 47.1935 31.8348 47.6354 32.0511 48.031C32.2674 48.4265 32.5548 48.7417 32.9133 48.9766C33.2779 49.2053 33.6735 49.3196 34.0999 49.3196ZM48.7113 45.4815V51.3406H46.4493V46.0749C46.4493 45.7102 46.3597 45.3795 46.1804 45.0829C46.0012 44.78 45.7602 44.5421 45.4573 44.369C45.1607 44.1898 44.83 44.1002 44.4653 44.1002C44.1007 44.1002 43.767 44.1898 43.4641 44.369C43.1674 44.5421 42.9295 44.78 42.7503 45.0829C42.5772 45.3795 42.4907 45.7102 42.4907 46.0749V51.3406H40.2286L40.2193 37.4345H42.4814L42.4907 42.895C42.8059 42.5612 43.1829 42.2986 43.6217 42.107C44.0605 41.9092 44.5333 41.8103 45.0401 41.8103C45.7138 41.8103 46.3288 41.9772 46.885 42.3109C47.4413 42.6385 47.8832 43.0804 48.2107 43.6366C48.5445 44.1867 48.7113 44.8017 48.7113 45.4815ZM59.2358 45.4815V51.3406H56.9738V46.0749C56.9738 45.7102 56.8841 45.3795 56.7049 45.0829C56.5257 44.78 56.2846 44.5421 55.9818 44.369C55.6851 44.1898 55.3545 44.1002 54.9898 44.1002C54.6252 44.1002 54.2914 44.1898 53.9886 44.369C53.6919 44.5421 53.454 44.78 53.2747 45.0829C53.1017 45.3795 53.0151 45.7102 53.0151 46.0749V51.3406H50.7531L50.7438 42.0699H53.0059L53.0151 42.895C53.3303 42.5612 53.7074 42.2986 54.1462 42.107C54.585 41.9092 55.0578 41.8103 55.5646 41.8103C56.2383 41.8103 56.8532 41.9772 57.4095 42.3109C57.9657 42.6385 58.4076 43.0804 58.7352 43.6366C59.0689 44.1867 59.2358 44.8017 59.2358 45.4815Z" fill="#B562FE"/>
</g>
<defs>
<filter id="filter0_d_3115_17837" x="57.0391" y="2.06351" width="35.559" height="37.9056" filterUnits="userSpaceOnUse" color-interpolation-filters="sRGB">
<feFlood flood-opacity="0" result="BackgroundImageFix"/>
<feColorMatrix in="SourceAlpha" type="matrix" values="0 0 0 0 0 0 0 0 0 0 0 0 0 0 0 0 0 0 127 0" result="hardAlpha"/>
<feOffset dy="2.1453"/>
<feGaussianBlur stdDeviation="3"/>
<feColorMatrix type="matrix" values="0 0 0 0 0.835294 0 0 0 0 0.6 0 0 0 0 1 0 0 0 0.5 0"/>
<feBlend mode="normal" in2="BackgroundImageFix" result="effect1_dropShadow_3115_17837"/>
<feBlend mode="normal" in="SourceGraphic" in2="effect1_dropShadow_3115_17837" result="shape"/>
</filter>
<filter id="filter1_d_3115_17837" x="0.257154" y="21.9127" width="80.4542" height="49.2271" filterUnits="userSpaceOnUse" color-interpolation-filters="sRGB">
<feFlood flood-opacity="0" result="BackgroundImageFix"/>
<feColorMatrix in="SourceAlpha" type="matrix" values="0 0 0 0 0 0 0 0 0 0 0 0 0 0 0 0 0 0 127 0" result="hardAlpha"/>
<feOffset dy="1.68559"/>
<feGaussianBlur stdDeviation="3.37118"/>
<feColorMatrix type="matrix" values="0 0 0 0 0 0 0 0 0 0 0 0 0 0 0 0 0 0 0.16 0"/>
<feBlend mode="normal" in2="BackgroundImageFix" result="effect1_dropShadow_3115_17837"/>
<feBlend mode="normal" in="SourceGraphic" in2="effect1_dropShadow_3115_17837" result="shape"/>
</filter>
</defs>
</svg>
