<svg width="116" height="72" viewBox="0 0 116 72" fill="none" xmlns="http://www.w3.org/2000/svg">
<g filter="url(#filter0_d_3115_17831)">
<path d="M19.529 27.7795L15.7203 8.627C15.4384 7.20926 16.9548 6.11756 18.2098 6.83473L35.0217 16.4415C36.3315 17.19 36.0739 19.1502 34.6153 19.5349L27.4469 21.4255C27.0303 21.5354 26.6716 21.8006 26.4444 22.1667L22.6145 28.3394C21.8083 29.6389 19.8273 29.2794 19.529 27.7795Z" fill="#6762FE"/>
<path d="M14.8937 8.79138L18.7024 27.9439C19.1498 30.1938 22.1213 30.733 23.3307 28.7837L27.1606 22.611C27.2742 22.428 27.4535 22.2953 27.6618 22.2404L34.8302 20.3498C37.0182 19.7728 37.4045 16.8325 35.4399 15.7098L18.6279 6.10298C16.7454 5.02723 14.4708 6.66477 14.8937 8.79138Z" stroke="white" stroke-width="1.68559" stroke-linecap="square"/>
</g>
<g filter="url(#filter1_d_3115_17831)">
<rect x="26.9684" y="26.9694" width="81.9694" height="35.7424" rx="17.8712" fill="#EBEBFF"/>
<rect x="27.4684" y="27.4694" width="80.9694" height="34.7424" rx="17.3712" stroke="#B5B3FF"/>
<path d="M41.5656 51.3406V38.3615H49.7053V40.6236H43.8276V43.2565H48.4908V45.5185H43.8276V49.0785H49.7053V51.3406H41.5656ZM51.9271 51.3406V42.0698H54.1891V42.8949C54.5044 42.5612 54.8814 42.2985 55.3202 42.1069C55.759 41.9091 56.2318 41.8103 56.7386 41.8103C57.3814 41.8103 57.9716 41.9617 58.5093 42.2645C59.0532 42.5674 59.4858 42.9722 59.8072 43.479C60.1348 42.9722 60.5674 42.5674 61.1051 42.2645C61.6428 41.9617 62.2331 41.8103 62.8758 41.8103C63.5557 41.8103 64.1706 41.9771 64.7207 42.3109C65.277 42.6384 65.7189 43.0803 66.0464 43.6366C66.3802 44.1867 66.547 44.8016 66.547 45.4815V51.3406H64.285V46.0841C64.285 45.7256 64.1954 45.398 64.0161 45.1014C63.8431 44.7985 63.6082 44.5575 63.3116 44.3782C63.0211 44.1928 62.6935 44.1001 62.3289 44.1001C61.9642 44.1001 61.6336 44.1897 61.3369 44.369C61.0464 44.542 60.8115 44.7769 60.6323 45.0736C60.4531 45.3702 60.3635 45.7071 60.3635 46.0841V51.3406H58.1014V46.0841C58.1014 45.7071 58.0149 45.3702 57.8418 45.0736C57.6688 44.7769 57.4339 44.542 57.1372 44.369C56.8406 44.1897 56.5099 44.1001 56.1453 44.1001C55.7868 44.1001 55.4592 44.1928 55.1626 44.3782C54.8659 44.5575 54.628 44.7985 54.4487 45.1014C54.2757 45.398 54.1891 45.7256 54.1891 46.0841V51.3406H51.9271ZM68.5898 51.3406V42.0698H70.8519V42.8949C71.1671 42.5612 71.5441 42.2985 71.9829 42.1069C72.4217 41.9091 72.8945 41.8103 73.4013 41.8103C74.0441 41.8103 74.6343 41.9617 75.172 42.2645C75.7159 42.5674 76.1485 42.9722 76.4699 43.479C76.7975 42.9722 77.2301 42.5674 77.7678 42.2645C78.3055 41.9617 78.8958 41.8103 79.5385 41.8103C80.2184 41.8103 80.8334 41.9771 81.3834 42.3109C81.9397 42.6384 82.3816 43.0803 82.7091 43.6366C83.0429 44.1867 83.2098 44.8016 83.2098 45.4815V51.3406H80.9477V46.0841C80.9477 45.7256 80.8581 45.398 80.6788 45.1014C80.5058 44.7985 80.2709 44.5575 79.9743 44.3782C79.6838 44.1928 79.3562 44.1001 78.9916 44.1001C78.6269 44.1001 78.2963 44.1897 77.9996 44.369C77.7091 44.542 77.4743 44.7769 77.295 45.0736C77.1158 45.3702 77.0262 45.7071 77.0262 46.0841V51.3406H74.7641V46.0841C74.7641 45.7071 74.6776 45.3702 74.5045 45.0736C74.3315 44.7769 74.0966 44.542 73.8 44.369C73.5033 44.1897 73.1726 44.1001 72.808 44.1001C72.4495 44.1001 72.122 44.1928 71.8253 44.3782C71.5286 44.5575 71.2907 44.7985 71.1114 45.1014C70.9384 45.398 70.8519 45.7256 70.8519 46.0841V51.3406H68.5898ZM92.0616 42.0698H94.3236V51.3406H92.0616L91.9596 50.191C91.7062 50.6051 91.3694 50.9419 90.9491 51.2015C90.535 51.4549 90.0436 51.5816 89.475 51.5816C88.789 51.5816 88.1462 51.4518 87.5467 51.1922C86.9472 50.9327 86.4188 50.5742 85.9614 50.1168C85.5103 49.6595 85.1549 49.131 84.8953 48.5315C84.6419 47.932 84.5152 47.2893 84.5152 46.6032C84.5152 45.9419 84.6357 45.3208 84.8768 44.7398C85.124 44.1588 85.467 43.6489 85.9058 43.2101C86.3446 42.7713 86.8514 42.4283 87.4262 42.1811C88.001 41.9339 88.619 41.8103 89.2804 41.8103C89.8922 41.8103 90.4392 41.9462 90.9213 42.2182C91.4095 42.4901 91.8236 42.8362 92.1636 43.2565L92.0616 42.0698ZM89.4194 49.403C89.9015 49.403 90.328 49.2825 90.6988 49.0414C91.0696 48.8004 91.3601 48.4759 91.5702 48.068C91.7804 47.6539 91.8854 47.1996 91.8854 46.7052C91.8854 46.2046 91.7804 45.7503 91.5702 45.3424C91.3601 44.9283 91.0665 44.6007 90.6895 44.3597C90.3187 44.1187 89.8953 43.9981 89.4194 43.9981C88.9435 43.9981 88.5078 44.1218 88.1122 44.369C87.7229 44.61 87.4108 44.9345 87.1759 45.3424C86.9472 45.7503 86.8329 46.2046 86.8329 46.7052C86.8329 47.2058 86.9503 47.6601 87.1852 48.068C87.42 48.4759 87.7321 48.8004 88.1215 49.0414C88.5171 49.2825 88.9497 49.403 89.4194 49.403Z" fill="#6762FE"/>
</g>
<defs>
<filter id="filter0_d_3115_17831" x="7.56277" y="0.627621" width="36.4307" height="38.7774" filterUnits="userSpaceOnUse" color-interpolation-filters="sRGB">
<feFlood flood-opacity="0" result="BackgroundImageFix"/>
<feColorMatrix in="SourceAlpha" type="matrix" values="0 0 0 0 0 0 0 0 0 0 0 0 0 0 0 0 0 0 127 0" result="hardAlpha"/>
<feOffset dy="2.1453"/>
<feGaussianBlur stdDeviation="3.21794"/>
<feColorMatrix type="matrix" values="0 0 0 0 0.384314 0 0 0 0 0.364706 0 0 0 0 0.960784 0 0 0 0.4 0"/>
<feBlend mode="normal" in2="BackgroundImageFix" result="effect1_dropShadow_3115_17831"/>
<feBlend mode="normal" in="SourceGraphic" in2="effect1_dropShadow_3115_17831" result="shape"/>
</filter>
<filter id="filter1_d_3115_17831" x="20.226" y="21.9127" width="95.4541" height="49.2271" filterUnits="userSpaceOnUse" color-interpolation-filters="sRGB">
<feFlood flood-opacity="0" result="BackgroundImageFix"/>
<feColorMatrix in="SourceAlpha" type="matrix" values="0 0 0 0 0 0 0 0 0 0 0 0 0 0 0 0 0 0 127 0" result="hardAlpha"/>
<feOffset dy="1.68559"/>
<feGaussianBlur stdDeviation="3.37118"/>
<feColorMatrix type="matrix" values="0 0 0 0 0 0 0 0 0 0 0 0 0 0 0 0 0 0 0.16 0"/>
<feBlend mode="normal" in2="BackgroundImageFix" result="effect1_dropShadow_3115_17831"/>
<feBlend mode="normal" in="SourceGraphic" in2="effect1_dropShadow_3115_17831" result="shape"/>
</filter>
</defs>
</svg>
