<svg width="53" height="53" viewBox="0 0 53 53" fill="none" xmlns="http://www.w3.org/2000/svg">
<path fill-rule="evenodd" clip-rule="evenodd" d="M13.4925 21.2444H6.78773C4.46332 21.2444 2.56152 23.2099 2.56152 25.6123C2.56152 28.0147 4.46332 29.9803 6.78773 29.9803H13.4925C15.8169 29.9803 17.7187 28.0147 17.7187 25.6123C17.7187 23.2099 15.8169 21.2444 13.4925 21.2444ZM33.2328 18.3302C32.0738 18.3302 31.0316 18.7816 30.2191 19.6358L27.1612 22.8503C26.7265 23.3072 26.2508 23.6409 25.7271 23.857C25.8786 23.6221 26.0174 23.3788 26.1429 23.1281L32.4894 10.4346C32.7602 9.89281 33.2343 9.59453 33.8243 9.59453H35.2204C35.1021 9.11951 35.0423 8.63091 35.0427 8.14039C35.0427 7.6371 35.1048 7.14867 35.2215 6.68256H33.8243C32.1772 6.68256 30.7424 7.58556 29.9863 9.09794L23.6399 21.7914C22.8892 23.2929 21.5208 24.1541 19.8853 24.1541H19.5133C19.608 24.634 19.6556 25.1225 19.6554 25.6123C19.6554 26.1108 19.6065 26.5977 19.5137 27.0683H19.8853C21.5207 27.0683 22.8891 27.9295 23.6399 29.431L30.8001 43.7522C30.9187 43.9895 31.0983 44.1885 31.319 44.3274C31.5397 44.4664 31.7932 44.5398 32.0516 44.5398H35.2209C35.1022 44.0643 35.0423 43.5752 35.0427 43.0841C35.0427 42.5814 35.1046 42.0935 35.221 41.6279H32.9094L26.143 28.0942C26.0175 27.8435 25.8787 27.6002 25.7272 27.3653C26.2509 27.5814 26.7266 27.9151 27.1612 28.372L30.2192 31.5864C31.0317 32.4407 32.0739 32.8921 33.2329 32.8921H35.2211C35.1047 32.4266 35.0427 31.9388 35.0427 31.4362C35.0427 30.9335 35.1047 30.4457 35.2211 29.9802H33.2329C32.8245 29.9802 32.5147 29.8459 32.2284 29.5449L29.1703 26.3304C28.9252 26.0723 28.6632 25.832 28.386 25.6112C28.6631 25.3904 28.9252 25.1501 29.1704 24.892L32.2284 21.6774C32.5147 21.3764 32.8245 21.2422 33.2329 21.2422H35.2205C35.1022 20.7673 35.0425 20.2788 35.0428 19.7884C35.0428 19.285 35.105 18.7964 35.2217 18.3302L33.2328 18.3302ZM47.8289 5.22852H40.6777C39.1281 5.22852 37.8602 6.5389 37.8602 8.14049C37.8602 9.74207 39.1281 11.0525 40.6777 11.0525H47.8289C49.3785 11.0525 50.6464 9.74207 50.6464 8.14049C50.6464 6.5389 49.3785 5.22852 47.8289 5.22852ZM47.8289 16.8764H40.6777C39.1281 16.8764 37.8602 18.1868 37.8602 19.7884C37.8602 21.39 39.1281 22.7003 40.6777 22.7003H47.8289C49.3785 22.7003 50.6464 21.39 50.6464 19.7884C50.6464 18.1868 49.3785 16.8764 47.8289 16.8764ZM47.8289 28.5243H40.6777C39.1281 28.5243 37.8602 29.8347 37.8602 31.4363C37.8602 33.0378 39.1281 34.3482 40.6777 34.3482H47.8289C49.3785 34.3482 50.6464 33.0378 50.6464 31.4363C50.6464 29.8347 49.3785 28.5243 47.8289 28.5243ZM47.8289 40.1722H40.6777C39.1281 40.1722 37.8602 41.4826 37.8602 43.0841C37.8602 44.6857 39.1281 45.9961 40.6777 45.9961H47.8289C49.3785 45.9961 50.6464 44.6857 50.6464 43.0841C50.6464 41.4826 49.3785 40.1722 47.8289 40.1722Z" fill="white"/>
</svg>
