<svg width="53" height="53" viewBox="0 0 53 53" fill="none" xmlns="http://www.w3.org/2000/svg">
<path d="M27.9346 28.5602C28.263 28.8078 28.6696 28.9547 29.1153 28.9547H45.0433C45.489 28.9547 45.8878 28.8078 46.224 28.568C46.2709 28.5447 46.31 28.5061 46.3491 28.4597C46.7635 28.0961 47.0294 27.5778 47.0294 26.9899V19.9117C47.0294 19.3393 46.7792 18.8365 46.3882 18.4729C46.3476 18.4044 46.2839 18.3524 46.2084 18.3259C45.8799 18.0861 45.4811 17.9391 45.0433 17.9391H29.1153C28.6696 17.9391 28.2708 18.0938 27.9346 18.3336C27.8766 18.3638 27.8259 18.406 27.786 18.4574C27.3872 18.821 27.1292 19.3315 27.1292 19.9117V26.9899C27.1292 27.5933 27.4107 28.1193 27.8329 28.4829C27.8642 28.5138 27.8955 28.5447 27.9346 28.5602ZM46.2318 19.9117V26.9899C46.2318 27.2684 46.1302 27.5236 45.966 27.7248L37.9198 23.4547L45.9738 19.1768C46.138 19.378 46.2318 19.6332 46.2318 19.9117ZM27.9267 19.9117C27.9267 19.6332 28.0284 19.378 28.1848 19.1768L36.2387 23.4547L28.1926 27.7248C28.0214 27.5172 27.9276 27.2577 27.9267 26.9899V19.9117ZM7.87013 28.9238C7.87013 28.9238 7.89359 28.9315 7.90922 28.9315H7.93268C8.02651 28.9393 8.12035 28.9547 8.21418 28.9547H21.4992C21.5931 28.9547 21.6869 28.9393 21.7807 28.9315H21.8042C21.8042 28.9315 21.8276 28.9238 21.8433 28.9238C22.7738 28.7613 23.4853 27.9568 23.4853 26.9899V19.9117C23.4853 18.821 22.5939 17.9391 21.4992 17.9391H8.21418C7.11947 17.9391 6.22807 18.821 6.22807 19.9117V26.9899C6.22807 27.9568 6.93963 28.7613 7.87013 28.9238ZM8.67552 28.1734L12.3037 23.2303C12.3741 23.1375 12.4914 23.0756 12.6165 23.0756C12.7338 23.0601 12.851 23.1298 12.9292 23.2303L15.4392 26.5025L15.4471 26.5103L16.7216 28.1734H8.67552ZM17.7225 28.1734L16.229 26.224L17.6443 24.3907C17.7147 24.2901 17.7929 24.2205 17.9571 24.236C18.0822 24.2437 18.1917 24.2979 18.262 24.3984L21.0379 28.1734H17.7225ZM45.8408 32.2192H38.1075C37.4507 32.2192 36.9112 32.7452 36.9112 33.395V41.0456C36.9112 41.6954 37.4507 42.2214 38.1075 42.2214H45.8408C46.4977 42.2214 47.0294 41.6954 47.0294 41.0456V33.395C47.0294 32.7452 46.4977 32.2192 45.8408 32.2192ZM37.7087 40.8832V33.5652L41.4073 37.2242L37.7087 40.8832ZM46.2318 40.8832L42.5333 37.2242L46.2318 33.5575V40.8832ZM8.19854 36.1102H30.9372C32.0241 36.1102 32.9077 35.2361 32.9077 34.1609C32.9077 33.0856 32.0241 32.2192 30.9372 32.2192H8.19854C7.11165 32.2192 6.22807 33.0933 6.22807 34.1609C6.22807 35.2284 7.11165 36.1102 8.19854 36.1102ZM8.19854 42.2214H30.9372C32.0241 42.2214 32.9077 41.355 32.9077 40.2798C32.9077 39.2045 32.0241 38.3304 30.9372 38.3304H8.19854C7.11165 38.3304 6.22807 39.2045 6.22807 40.2798C6.22807 41.355 7.11165 42.2214 8.19854 42.2214Z" fill="white"/>
<path d="M48.8975 5.229H4.35853C3.27165 5.229 2.38806 6.10314 2.38806 7.1784L2.38853 44.0472C2.38853 45.1225 3.27212 45.9966 4.35901 45.9966H48.898C49.9848 45.9966 50.8684 45.1225 50.8684 44.0472L50.868 7.1784C50.868 6.10314 49.9844 5.229 48.8975 5.229ZM46.2311 10.0948C46.2311 10.7291 45.7072 11.2551 45.0582 11.2551C44.4092 11.2551 43.8853 10.7291 43.8853 10.0948C43.8853 9.46043 44.417 8.9344 45.0582 8.9344C45.6994 8.9344 46.2311 9.45269 46.2311 10.0948ZM39.8583 10.0948C39.8583 10.7291 39.3344 11.2551 38.6854 11.2551C38.0364 11.2551 37.5125 10.7291 37.5125 10.0948C37.5125 9.46043 38.0442 8.9344 38.6854 8.9344C39.3266 8.9344 39.8583 9.45269 39.8583 10.0948ZM50.0709 44.0472C50.0709 44.6893 49.547 45.2076 48.898 45.2076H4.35901C3.71 45.2076 3.1861 44.6893 3.1861 44.0472L3.18563 15.7191H50.0704L50.0709 44.0472Z" fill="white"/>
</svg>
