<svg width="46" height="45" viewBox="0 0 46 45" fill="none" xmlns="http://www.w3.org/2000/svg">
<path d="M11.4309 23.589C11.4309 30.0046 16.6539 35.1497 23.0233 35.1497C29.3928 35.1497 34.6157 29.941 34.6157 23.589C34.6157 17.1735 29.4565 11.9648 23.0233 11.9648C16.5902 11.9648 11.4309 17.1735 11.4309 23.589ZM21.7494 22.9538V16.7924C21.7494 16.0937 22.3227 15.522 23.0233 15.522C23.724 15.522 24.2972 16.1572 24.2972 16.7924V22.5727H27.9915C28.6921 22.5727 29.2654 23.1444 29.2654 23.8431C29.2654 24.5418 28.6285 25.1135 27.9915 25.1135H23.0233C22.3227 25.1135 21.7494 24.5418 21.7494 23.8431V22.9538Z" fill="white"/>
<path d="M41.0998 17.8896C38.8934 11.0144 32.7156 6.09326 25.5081 5.08008C25.5816 4.86297 25.6552 4.64586 25.6552 4.50112C25.6552 3.92216 25.2874 3.41557 24.8462 3.19846C24.2578 2.90898 23.6694 3.05372 23.1546 3.48794L21.6101 4.7906C21.3895 5.00771 21.0953 5.15245 20.9482 5.36956C20.8011 5.58667 20.7276 5.87615 20.7276 6.16563C20.7276 6.81696 21.1689 7.17881 21.5366 7.6854C21.9779 8.19199 22.4192 8.77095 22.934 9.27754C23.743 10.2183 25.4345 9.49465 25.4345 8.33673V8.04725C30.6563 8.84332 35.2897 12.1 37.6432 16.8764C40.2908 22.3041 39.4083 29.1069 35.4368 33.6662C31.4653 38.2979 25.0668 40.3243 19.1096 38.8045C13.2259 37.2847 8.73961 32.5083 7.56288 26.7187C6.01841 19.4817 10.137 12.2447 16.8297 9.20517C17.5651 8.91569 17.7122 7.83014 17.3445 7.25118C16.9032 6.52748 16.0942 6.38274 15.3587 6.74459C8.37188 9.8565 3.88558 17.0935 4.32686 24.6924C4.76813 31.857 9.32798 38.1532 16.0207 40.9032C22.7869 43.6533 30.7298 42.2059 36.0251 37.3571C41.2469 32.3636 43.3062 24.6924 41.0998 17.8896Z" fill="white"/>
</svg>
