<svg width="44" height="43" viewBox="0 0 44 43" fill="none" xmlns="http://www.w3.org/2000/svg">
<path d="M34.3321 2.61426H9.59459C6.6791 2.61426 4.2937 4.99966 4.2937 7.91515V25.5848C4.2937 28.5003 6.6791 30.8857 9.59459 30.8857H18.6414L15.4079 34.1192C15.2441 34.2827 15.1141 34.4768 15.0255 34.6906C14.9368 34.9044 14.8912 35.1335 14.8912 35.3649C14.8912 35.5963 14.9368 35.8255 15.0255 36.0392C15.1141 36.253 15.2441 36.4472 15.4079 36.6106C15.5713 36.7777 15.7665 36.9105 15.9819 37.0012C16.1973 37.0918 16.4287 37.1385 16.6624 37.1385C16.8962 37.1385 17.1276 37.0918 17.343 37.0012C17.5584 36.9105 17.7536 36.7777 17.917 36.6106L22.4404 32.0872L26.9638 36.6106C27.1248 36.7788 27.3182 36.9126 27.5323 37.004C27.7464 37.0954 27.9767 37.1426 28.2095 37.1426C28.4423 37.1426 28.6727 37.0954 28.8868 37.004C29.1009 36.9126 29.2943 36.7788 29.4552 36.6106C29.6191 36.4472 29.749 36.253 29.8377 36.0392C29.9263 35.8255 29.972 35.5963 29.972 35.3649C29.972 35.1335 29.9263 34.9044 29.8377 34.6906C29.749 34.4768 29.6191 34.2827 29.4552 34.1192L26.2217 30.8857H34.3321C37.2476 30.8857 39.633 28.5003 39.633 25.5848V7.91515C39.633 4.99966 37.2476 2.61426 34.3321 2.61426ZM25.4973 11.4491H18.4294C17.4576 11.4491 16.6624 10.6716 16.6624 9.68211C16.6624 8.71028 17.4576 7.91515 18.4294 7.91515H25.4973C26.4691 7.91515 27.2642 8.71028 27.2642 9.68211C27.2642 10.6716 26.4691 11.4491 25.4973 11.4491Z" fill="white"/>
</svg>
