<svg width="44" height="43" viewBox="0 0 44 43" fill="none" xmlns="http://www.w3.org/2000/svg">
<path d="M40.3726 27.4155C41.4033 27.4137 42.2389 26.5558 42.2407 25.4967V22.6664C42.2354 21.61 41.4006 20.7558 40.3726 20.754H35.7529V18.1717C35.752 17.0069 34.8321 16.0626 33.6976 16.0617H22.7764V13.208H27.3961C28.4277 13.2062 29.2633 12.3483 29.2651 11.2892V6.79331C29.2598 5.73694 28.4251 4.88366 27.3961 4.88184H16.529C15.5001 4.8873 14.668 5.74423 14.6662 6.79968V11.2965C14.6716 12.352 15.5063 13.2062 16.5352 13.208H21.1549V16.0617H10.2337C9.0992 16.0617 8.17935 17.0069 8.17846 18.1717V20.754H3.55877C2.52804 20.7558 1.69245 21.6137 1.69067 22.6728V25.504C1.696 26.5595 2.5307 27.4137 3.55877 27.4155H8.17846V30.7458H3.55877C2.52804 30.7476 1.69245 31.6054 1.69067 32.6636V35.4948C1.696 36.5512 2.5307 37.4045 3.55877 37.4063H14.4197C15.4513 37.4045 16.2869 36.5467 16.2886 35.4885V32.6572C16.2833 31.6009 15.4486 30.7476 14.4197 30.7458H9.80085V27.4155H14.4197C15.4513 27.4137 16.2869 26.5558 16.2886 25.4967V22.6664C16.2833 21.61 15.4486 20.7558 14.4197 20.754H9.80085V18.1717C9.80174 17.9267 9.99511 17.7282 10.2337 17.7273H33.6976C33.9362 17.7282 34.1296 17.9267 34.1305 18.1717V20.754H29.5117C28.4801 20.7558 27.6445 21.6137 27.6427 22.6728V25.504C27.648 26.5595 28.4827 27.4137 29.5117 27.4155H34.1305V30.7458H29.5117C28.4801 30.7476 27.6445 31.6054 27.6427 32.6636V35.4948C27.648 36.5512 28.4827 37.4045 29.5117 37.4063H40.3726C41.4033 37.4045 42.2389 36.5467 42.2407 35.4885V32.6572C42.2354 31.6009 41.4006 30.7476 40.3726 30.7458H35.7529V27.4155H40.3726Z" fill="white"/>
</svg>
