<svg width="46" height="45" viewBox="0 0 46 45" fill="none" xmlns="http://www.w3.org/2000/svg">
<path d="M38.4257 27.6448V29.395C38.4257 29.6968 38.1805 29.9986 37.8127 29.9986C37.5061 29.9986 37.1996 29.7572 37.1996 29.395V27.6448C37.1996 26.9809 36.6479 26.4981 36.0348 26.4981H23.5899V29.395C23.5899 29.6968 23.3447 29.9986 22.9769 29.9986C22.609 29.9986 22.3638 29.7572 22.3638 29.395V26.4981H9.91889C9.24453 26.4981 8.75409 27.0412 8.75409 27.6448V29.395C8.75409 29.6968 8.50887 29.9986 8.14104 29.9986C7.83452 29.9986 7.52799 29.7572 7.52799 29.395V27.6448C7.52799 26.3774 8.57018 25.291 9.91889 25.291H22.3638V22.3336C22.3638 22.0319 22.609 21.7301 22.9769 21.7301C23.3447 21.7301 23.5899 21.9715 23.5899 22.3336V25.291H36.0348C37.3222 25.291 38.4257 26.317 38.4257 27.6448ZM29.4752 4.83105H16.4785C14.8233 4.83105 13.5359 6.15884 13.5359 7.72804V17.6261C13.5359 19.2556 14.8846 20.523 16.4785 20.523H29.4752C31.1304 20.523 32.4178 19.1953 32.4178 17.6261V7.78839C32.4178 6.15884 31.0691 4.83105 29.4752 4.83105ZM20.2181 8.27122H25.7356C26.0421 8.27122 26.3486 8.51263 26.3486 8.87476C26.3486 9.17653 26.1034 9.4783 25.7356 9.4783H20.2181C19.9116 9.4783 19.6051 9.23688 19.6051 8.87476C19.6051 8.51263 19.9116 8.27122 20.2181 8.27122ZM25.7356 17.2036H20.2181C19.9116 17.2036 19.6051 16.9622 19.6051 16.6C19.6051 16.2379 19.8503 15.9965 20.2181 15.9965H25.7356C26.0421 15.9965 26.3486 16.2379 26.3486 16.6C26.3486 16.9622 26.0421 17.2036 25.7356 17.2036ZM27.8199 14.6084H18.1338C17.8272 14.6084 17.5207 14.367 17.5207 14.0048C17.5207 13.7031 17.7659 13.4013 18.1338 13.4013H27.7586C28.0652 13.4013 28.3717 13.6427 28.3717 14.0048C28.3717 14.367 28.1265 14.6084 27.8199 14.6084ZM27.8199 12.0132H18.1338C17.8272 12.0132 17.5207 11.7717 17.5207 11.4096C17.5207 11.1078 17.7659 10.8061 18.1338 10.8061H27.7586C28.0652 10.8061 28.3717 11.0475 28.3717 11.4096C28.3717 11.7717 28.1265 12.0132 27.8199 12.0132ZM27.7586 34.0423V37.6032C27.7586 39.2327 26.4099 40.5001 24.816 40.5001H21.199C19.5438 40.5001 18.2564 39.1724 18.2564 37.6032V34.0423C18.2564 32.4127 19.6051 31.1453 21.199 31.1453H24.816C26.4099 31.1453 27.7586 32.4731 27.7586 34.0423ZM12.9228 34.0423V37.6032C12.9228 39.2327 11.5741 40.5001 9.98019 40.5001H6.30189C4.64666 40.5001 3.35925 39.1724 3.35925 37.6032V34.0423C3.35925 32.4731 4.70796 31.1453 6.30189 31.1453H9.91889C11.5741 31.1453 12.9228 32.4731 12.9228 34.0423ZM42.5944 34.0423V37.6032C42.5944 39.2327 41.2457 40.5001 39.6518 40.5001H36.0348C34.3796 40.5001 33.0922 39.1724 33.0922 37.6032V34.0423C33.0922 32.4127 34.4409 31.1453 36.0348 31.1453H39.6518C41.2457 31.1453 42.5944 32.4731 42.5944 34.0423Z" fill="white"/>
</svg>
