<svg width="44" height="43" viewBox="0 0 44 43" fill="none" xmlns="http://www.w3.org/2000/svg">
<path d="M8.06824 16.4087C8.06824 15.8619 7.62499 15.4187 7.07825 15.4187H6.04846C5.50172 15.4187 5.05847 15.8619 5.05847 16.4087C5.05847 16.9554 5.50172 17.3986 6.04846 17.3986H7.07825C7.62499 17.3986 8.06824 16.9554 8.06824 16.4087ZM8.58416 8.4618C9.47515 8.4618 9.91906 7.36284 9.25953 6.74779L8.50641 6.04543C8.10652 5.6726 7.48005 5.69451 7.10722 6.09427C6.73433 6.49416 6.75624 7.12056 7.15606 7.49345C7.76458 7.99017 7.98006 8.4618 8.58416 8.4618ZM7.90918 24.4829L7.15606 25.1852C6.75617 25.5581 6.73433 26.1846 7.10716 26.5844C7.48019 26.9844 8.10652 27.0062 8.50641 26.6333L9.25953 25.931C9.65942 25.5581 9.68126 24.9317 9.30843 24.5319C8.93547 24.132 8.30907 24.1101 7.90918 24.4829ZM37.8601 15.2801H36.8304C36.2836 15.2801 35.8404 15.7234 35.8404 16.2701C35.8404 16.8169 36.2836 17.2601 36.8304 17.2601H37.8601C38.4069 17.2601 38.8501 16.8169 38.8501 16.2701C38.8501 15.7234 38.4069 15.2801 37.8601 15.2801ZM35.9994 24.4829C35.5995 24.1102 34.9731 24.132 34.6002 24.5319C34.2273 24.9317 34.2492 25.5581 34.6491 25.931L35.4022 26.6333C35.8029 27.007 36.4293 26.9835 36.8015 26.5844C37.1743 26.1845 37.1524 25.5581 36.7525 25.1852L35.9994 24.4829ZM35.9994 8.19582L36.7525 7.49352C37.1524 7.12062 37.1743 6.49416 36.8014 6.09433C36.4285 5.69451 35.802 5.67253 35.4022 6.04549L34.6491 6.74779C34.2492 7.12069 34.2273 7.74716 34.6002 8.14698C34.9732 8.54687 35.5997 8.56865 35.9994 8.19582ZM16.3444 31.2882C16.3444 32.5196 17.0984 33.578 18.1688 34.0272H25.7398C26.8102 33.578 27.5643 32.5196 27.5643 31.2882V29.8692H16.3444V31.2882ZM18.3243 37.2612C18.3243 37.8076 18.7679 38.2511 19.3143 38.2511H24.5943C25.1408 38.2511 25.5843 37.8076 25.5843 37.2612V36.0072H18.3243V37.2612ZM33.4084 16.3394C36.2253 13.4638 34.5977 8.61393 30.6557 7.98607C29.6661 4.69594 25.6899 3.38625 22.9443 5.4519V28.2522H25.9143C28.1489 28.2522 30.0557 26.7845 30.6656 24.691C34.5861 24.0587 36.2306 19.2203 33.4084 16.3394ZM24.9243 10.4654C24.9243 9.91867 25.3675 9.47542 25.9143 9.47542C26.461 9.47542 26.9043 9.91867 26.9043 10.4654C26.9043 11.4792 27.2886 11.6649 28.0542 12.0349C28.779 12.3851 29.8742 12.9142 29.8742 14.4254C29.8742 14.9721 29.431 15.4154 28.8842 15.4154C28.3375 15.4154 27.8942 14.9721 27.8942 14.4254C27.8942 14.2082 27.8942 14.1566 27.1928 13.8176C26.3444 13.4077 24.9243 12.7216 24.9243 10.4654ZM30.7963 19.8054C29.6566 21.3847 27.8959 22.0401 27.3946 22.0401C26.9638 22.0401 26.5675 21.7568 26.4432 21.3221C26.2928 20.7964 26.5972 20.2484 27.1228 20.0981C27.9412 19.864 28.681 19.3531 29.1907 18.6467C29.5107 18.2033 30.1295 18.1033 30.5728 18.4232C31.0162 18.7432 31.1163 19.362 30.7963 19.8054ZM20.9643 28.2522V5.4519C18.2188 3.38631 14.2425 4.69581 13.253 7.98607C9.30876 8.61432 7.68459 13.4651 10.5003 16.3394C7.67713 19.2212 9.32447 24.059 13.2431 24.691C13.855 26.7913 15.7657 28.2522 17.9944 28.2522H20.9643ZM15.8544 12.0349C16.62 11.6649 17.0044 11.4793 17.0044 10.4654C17.0044 9.91867 17.4476 9.47542 17.9943 9.47542C18.5411 9.47542 18.9843 9.91867 18.9843 10.4654C18.9843 12.7216 17.5642 13.4077 16.7158 13.8176C16.0144 14.1566 16.0144 14.2082 16.0144 14.4254C16.0144 14.9721 15.5711 15.4154 15.0244 15.4154C14.4776 15.4154 14.0344 14.9721 14.0344 14.4254C14.0344 12.9142 15.1296 12.3851 15.8544 12.0349ZM17.4654 21.3221C17.3411 21.7568 16.9448 22.0401 16.514 22.0401C15.9975 22.0401 14.3519 21.3899 13.256 19.996C12.918 19.5662 12.9925 18.9438 13.4223 18.6059C13.8522 18.2679 14.4745 18.3424 14.8124 18.7722C15.3055 19.3993 16.0002 19.8734 16.7858 20.098C17.3115 20.2484 17.6158 20.7964 17.4654 21.3221Z" fill="white"/>
</svg>
