<svg width="63" height="63" viewBox="0 0 63 63" fill="none" xmlns="http://www.w3.org/2000/svg">
<path d="M46.8081 4.69938L47.6385 6.98448C48.0941 8.23729 48.8225 9.37506 49.7719 10.3168C50.7212 11.2586 51.8682 11.9811 53.1311 12.4331L55.4347 13.2569C55.4803 13.2734 55.5197 13.3034 55.5476 13.3428C55.5755 13.3823 55.5904 13.4293 55.5904 13.4775C55.5904 13.5257 55.5755 13.5727 55.5476 13.6122C55.5197 13.6516 55.4803 13.6816 55.4347 13.6981L53.1311 14.5219C51.8682 14.9739 50.7212 15.6964 49.7719 16.6382C48.8225 17.5799 48.0941 18.7177 47.6385 19.9705L46.8081 22.2556C46.7914 22.3009 46.7612 22.34 46.7214 22.3676C46.6816 22.3953 46.6342 22.4101 46.5857 22.4101C46.5371 22.4101 46.4897 22.3953 46.4499 22.3676C46.4101 22.34 46.3799 22.3009 46.3633 22.2556L45.5328 19.9705C45.0772 18.7177 44.3488 17.5799 43.3994 16.6382C42.4501 15.6964 41.3031 14.9739 40.0402 14.5219L37.7366 13.6981C37.691 13.6816 37.6516 13.6516 37.6237 13.6122C37.5959 13.5727 37.5809 13.5257 37.5809 13.4775C37.5809 13.4293 37.5959 13.3823 37.6237 13.3428C37.6516 13.3034 37.691 13.2734 37.7366 13.2569L40.0402 12.4331C41.3031 11.9811 42.4501 11.2586 43.3994 10.3168C44.3488 9.37506 45.0772 8.23729 45.5328 6.98448L46.3633 4.69938C46.3799 4.65411 46.4101 4.61501 46.4499 4.58738C46.4897 4.55974 46.5371 4.54492 46.5857 4.54492C46.6342 4.54492 46.6816 4.55974 46.7214 4.58738C46.7612 4.61501 46.7914 4.65411 46.8081 4.69938Z" fill="white"/>
<path d="M48.1071 40.8657L47.2767 38.5806C47.2032 38.3742 46.9074 38.3742 46.8319 38.5806L46.0015 40.8657C45.5458 42.1185 44.8174 43.2563 43.8681 44.198C42.9187 45.1398 41.7717 45.8624 40.5088 46.3143L38.2053 47.1381C38.1596 47.1546 38.1202 47.1846 38.0924 47.2241C38.0645 47.2635 38.0496 47.3106 38.0496 47.3587C38.0496 47.4069 38.0645 47.4539 38.0924 47.4934C38.1202 47.5329 38.1596 47.5629 38.2053 47.5793L40.5088 48.4031C41.7717 48.8551 42.9187 49.5777 43.8681 50.5194C44.8174 51.4612 45.5458 52.5989 46.0015 53.8517L46.8319 56.1368C46.8485 56.1821 46.8788 56.2212 46.9185 56.2489C46.9583 56.2765 47.0057 56.2913 47.0543 56.2913C47.1029 56.2913 47.1502 56.2765 47.19 56.2489C47.2298 56.2212 47.2601 56.1821 47.2767 56.1368L48.1071 53.8517C48.5627 52.5989 49.2911 51.4612 50.2405 50.5194C51.1899 49.5777 52.3368 48.8551 53.5997 48.4031L55.9033 47.5793C55.9489 47.5629 55.9884 47.5329 56.0162 47.4934C56.0441 47.4539 56.059 47.4069 56.059 47.3587C56.059 47.3106 56.0441 47.2635 56.0162 47.2241C55.9884 47.1846 55.9489 47.1546 55.9033 47.1381L53.5997 46.3143C52.3368 45.8624 51.1899 45.1398 50.2405 44.198C49.2911 43.2563 48.5627 42.1185 48.1071 40.8657Z" fill="white"/>
<path d="M25.406 17.9904L23.7676 13.4768C23.7356 13.3868 23.6762 13.3088 23.5976 13.2537C23.519 13.1986 23.4252 13.1689 23.3289 13.1689C23.2327 13.1689 23.1388 13.1986 23.0602 13.2537C22.9817 13.3088 22.9223 13.3868 22.8903 13.4768L21.2518 17.9904C20.3528 20.4647 18.9147 22.7119 17.0398 24.5717C15.165 26.4315 12.8997 27.8582 10.4053 28.75L5.85533 30.3752C5.76548 30.4079 5.68792 30.4672 5.63313 30.545C5.57833 30.6228 5.54895 30.7155 5.54895 30.8104C5.54895 30.9053 5.57833 30.998 5.63313 31.0758C5.68792 31.1536 5.76548 31.2129 5.85533 31.2456L10.4053 32.8708C12.8997 33.7626 15.165 35.1893 17.0398 37.0491C18.9147 38.9089 20.3528 41.1561 21.2518 43.6305L22.8903 48.144C22.9232 48.2331 22.9829 48.3101 23.0614 48.3644C23.1398 48.4188 23.2332 48.4479 23.3289 48.4479C23.4246 48.4479 23.518 48.4188 23.5965 48.3644C23.6749 48.3101 23.7347 48.2331 23.7676 48.144L25.406 43.6305C26.305 41.1561 27.7432 38.9089 29.618 37.0491C31.4929 35.1893 33.7582 33.7626 36.2525 32.8708L40.8025 31.2456C40.8924 31.2129 40.9699 31.1536 41.0247 31.0758C41.0795 30.998 41.1089 30.9053 41.1089 30.8104C41.1089 30.7155 41.0795 30.6228 41.0247 30.545C40.9699 30.4672 40.8924 30.4079 40.8025 30.3752L36.2525 28.75C33.7582 27.8582 31.4929 26.4315 29.618 24.5717C27.7432 22.7119 26.305 20.4647 25.406 17.9904Z" fill="white"/>
</svg>
