<svg width="44" height="43" viewBox="0 0 44 43" fill="none" xmlns="http://www.w3.org/2000/svg">
<path fill-rule="evenodd" clip-rule="evenodd" d="M36.4072 8.0445V28.3205C36.4072 29.068 36.1052 29.7849 35.5653 30.3133L28.3205 37.4243C28.0542 37.6864 27.7377 37.8943 27.3893 38.0361C27.0409 38.178 26.6674 38.2509 26.2902 38.2507H12.1979C11.0014 38.2507 9.8525 37.7835 9.00558 36.9539C8.15997 36.1222 7.68483 34.9954 7.68433 33.8205V8.0445C7.68433 6.87009 8.16031 5.74239 9.00558 4.91111C9.85286 4.08112 11.0009 3.61475 12.1979 3.61426H31.8936C33.0902 3.61426 34.2391 4.08145 35.086 4.91111C35.9313 5.74239 36.4072 6.87009 36.4072 8.0445ZM26.1491 35.4315L33.535 28.182H27.7904C27.3551 28.182 26.9376 28.3517 26.6298 28.6538C26.322 28.9559 26.1491 29.3657 26.1491 29.793V35.4315ZM15.4805 12.4747H28.611C28.9375 12.4747 29.2506 12.3475 29.4815 12.1209C29.7123 11.8943 29.842 11.5869 29.842 11.2665C29.842 10.9461 29.7123 10.6387 29.4815 10.4121C29.2506 10.1855 28.9375 10.0583 28.611 10.0583H15.4805C15.1541 10.0583 14.841 10.1855 14.6101 10.4121C14.3793 10.6387 14.2496 10.9461 14.2496 11.2665C14.2496 11.5869 14.3793 11.8943 14.6101 12.1209C14.841 12.3475 15.1541 12.4747 15.4805 12.4747ZM15.4805 31.8067H21.2251C21.5516 31.8067 21.8647 31.6794 22.0956 31.4528C22.3264 31.2262 22.4561 30.9189 22.4561 30.5985C22.4561 30.278 22.3264 29.9707 22.0956 29.7441C21.8647 29.5175 21.5516 29.3902 21.2251 29.3902H15.4805C15.1541 29.3902 14.841 29.5175 14.6101 29.7441C14.3793 29.9707 14.2496 30.278 14.2496 30.5985C14.2496 30.9189 14.3793 31.2262 14.6101 31.4528C14.841 31.6794 15.1541 31.8067 15.4805 31.8067ZM15.4805 25.3627H23.6871C24.0136 25.3627 24.3267 25.2354 24.5575 25.0088C24.7884 24.7823 24.9181 24.4749 24.9181 24.1545C24.9181 23.834 24.7884 23.5267 24.5575 23.3001C24.3267 23.0735 24.0136 22.9462 23.6871 22.9462H15.4805C15.1541 22.9462 14.841 23.0735 14.6101 23.3001C14.3793 23.5267 14.2496 23.834 14.2496 24.1545C14.2496 24.4749 14.3793 24.7823 14.6101 25.0088C14.841 25.2354 15.1541 25.3627 15.4805 25.3627ZM15.4805 18.9187H28.611C28.9375 18.9187 29.2506 18.7914 29.4815 18.5649C29.7123 18.3383 29.842 18.0309 29.842 17.7105C29.842 17.39 29.7123 17.0827 29.4815 16.8561C29.2506 16.6295 28.9375 16.5022 28.611 16.5022H15.4805C15.1541 16.5022 14.841 16.6295 14.6101 16.8561C14.3793 17.0827 14.2496 17.39 14.2496 17.7105C14.2496 18.0309 14.3793 18.3383 14.6101 18.5649C14.841 18.7914 15.1541 18.9187 15.4805 18.9187Z" fill="white"/>
</svg>
