<svg width="218" height="275" viewBox="0 0 218 275" fill="none" xmlns="http://www.w3.org/2000/svg">
<path d="M39.8928 249.635C62.2874 249.635 66.1109 216.862 90.4174 216.862" stroke="#323434" stroke-width="1.63864" stroke-linecap="round" stroke-linejoin="round" stroke-dasharray="3.27 3.27"/>
<path d="M129.198 216.862C151.593 216.862 154.598 257.008 178.903 257.008" stroke="#323434" stroke-width="1.63864" stroke-linecap="round" stroke-linejoin="round" stroke-dasharray="3.27 3.27"/>
<path d="M20.2294 267.659C30.9385 267.659 39.62 258.977 39.62 248.268C39.62 237.559 30.9385 228.878 20.2294 228.878C9.52032 228.878 0.838867 237.559 0.838867 248.268C0.838867 258.977 9.52032 267.659 20.2294 267.659Z" fill="#F5DC4E"/>
<path d="M109.808 235.98C120.517 235.98 129.199 227.299 129.199 216.59C129.199 205.881 120.517 197.199 109.808 197.199C99.0989 197.199 90.4175 205.881 90.4175 216.59C90.4175 227.299 99.0989 235.98 109.808 235.98Z" fill="#F5DC4E"/>
<path d="M198.295 274.761C209.004 274.761 217.685 266.079 217.685 255.37C217.685 244.661 209.004 235.979 198.295 235.979C187.586 235.979 178.904 244.661 178.904 255.37C178.904 266.079 187.586 274.761 198.295 274.761Z" fill="#F5DC4E"/>
<path d="M15.4677 243.626C15.4677 245.37 14.0538 246.784 12.3096 246.784C10.5654 246.784 9.15141 245.37 9.15141 243.626C9.15141 241.881 10.5654 240.467 12.3096 240.467C14.0538 240.467 15.4677 241.881 15.4677 243.626Z" fill="#F5DC4E"/>
<path d="M15.4677 243.626C15.4677 245.37 14.0538 246.784 12.3096 246.784C10.5654 246.784 9.15141 245.37 9.15141 243.626C9.15141 241.881 10.5654 240.467 12.3096 240.467C14.0538 240.467 15.4677 241.881 15.4677 243.626Z" fill="black" fill-opacity="0.2"/>
<path d="M15.4677 243.626C15.4677 245.37 14.0538 246.784 12.3096 246.784C10.5654 246.784 9.15141 245.37 9.15141 243.626C9.15141 241.881 10.5654 240.467 12.3096 240.467C14.0538 240.467 15.4677 241.881 15.4677 243.626Z" stroke="#F5DC4E" stroke-width="1.33065"/>
<path d="M15.4677 243.626C15.4677 245.37 14.0538 246.784 12.3096 246.784C10.5654 246.784 9.15141 245.37 9.15141 243.626C9.15141 241.881 10.5654 240.467 12.3096 240.467C14.0538 240.467 15.4677 241.881 15.4677 243.626Z" stroke="black" stroke-opacity="0.2" stroke-width="1.33065"/>
<path d="M30.7614 243.626C30.7614 245.37 29.3475 246.784 27.6033 246.784C25.8591 246.784 24.4451 245.37 24.4451 243.626C24.4451 241.881 25.8591 240.467 27.6033 240.467C29.3475 240.467 30.7614 241.881 30.7614 243.626Z" fill="#F5DC4E"/>
<path d="M30.7614 243.626C30.7614 245.37 29.3475 246.784 27.6033 246.784C25.8591 246.784 24.4451 245.37 24.4451 243.626C24.4451 241.881 25.8591 240.467 27.6033 240.467C29.3475 240.467 30.7614 241.881 30.7614 243.626Z" fill="black" fill-opacity="0.2"/>
<path d="M30.7614 243.626C30.7614 245.37 29.3475 246.784 27.6033 246.784C25.8591 246.784 24.4451 245.37 24.4451 243.626C24.4451 241.881 25.8591 240.467 27.6033 240.467C29.3475 240.467 30.7614 241.881 30.7614 243.626Z" stroke="#F5DC4E" stroke-width="1.33065"/>
<path d="M30.7614 243.626C30.7614 245.37 29.3475 246.784 27.6033 246.784C25.8591 246.784 24.4451 245.37 24.4451 243.626C24.4451 241.881 25.8591 240.467 27.6033 240.467C29.3475 240.467 30.7614 241.881 30.7614 243.626Z" stroke="black" stroke-opacity="0.2" stroke-width="1.33065"/>
<path d="M105.046 211.946C105.046 213.69 103.632 215.104 101.888 215.104C100.144 215.104 98.73 213.69 98.73 211.946C98.73 210.201 100.144 208.788 101.888 208.788C103.632 208.788 105.046 210.201 105.046 211.946Z" fill="#F5DC4E"/>
<path d="M105.046 211.946C105.046 213.69 103.632 215.104 101.888 215.104C100.144 215.104 98.73 213.69 98.73 211.946C98.73 210.201 100.144 208.788 101.888 208.788C103.632 208.788 105.046 210.201 105.046 211.946Z" fill="black" fill-opacity="0.2"/>
<path d="M105.046 211.946C105.046 213.69 103.632 215.104 101.888 215.104C100.144 215.104 98.73 213.69 98.73 211.946C98.73 210.201 100.144 208.788 101.888 208.788C103.632 208.788 105.046 210.201 105.046 211.946Z" stroke="#F5DC4E" stroke-width="1.33065"/>
<path d="M105.046 211.946C105.046 213.69 103.632 215.104 101.888 215.104C100.144 215.104 98.73 213.69 98.73 211.946C98.73 210.201 100.144 208.788 101.888 208.788C103.632 208.788 105.046 210.201 105.046 211.946Z" stroke="black" stroke-opacity="0.2" stroke-width="1.33065"/>
<path d="M120.34 211.946C120.34 213.69 118.926 215.104 117.182 215.104C115.438 215.104 114.024 213.69 114.024 211.946C114.024 210.201 115.438 208.788 117.182 208.788C118.926 208.788 120.34 210.201 120.34 211.946Z" fill="#F5DC4E"/>
<path d="M120.34 211.946C120.34 213.69 118.926 215.104 117.182 215.104C115.438 215.104 114.024 213.69 114.024 211.946C114.024 210.201 115.438 208.788 117.182 208.788C118.926 208.788 120.34 210.201 120.34 211.946Z" fill="black" fill-opacity="0.2"/>
<path d="M120.34 211.946C120.34 213.69 118.926 215.104 117.182 215.104C115.438 215.104 114.024 213.69 114.024 211.946C114.024 210.201 115.438 208.788 117.182 208.788C118.926 208.788 120.34 210.201 120.34 211.946Z" stroke="#F5DC4E" stroke-width="1.33065"/>
<path d="M120.34 211.946C120.34 213.69 118.926 215.104 117.182 215.104C115.438 215.104 114.024 213.69 114.024 211.946C114.024 210.201 115.438 208.788 117.182 208.788C118.926 208.788 120.34 210.201 120.34 211.946Z" stroke="black" stroke-opacity="0.2" stroke-width="1.33065"/>
<path d="M193.533 250.726C193.533 252.47 192.119 253.884 190.375 253.884C188.631 253.884 187.217 252.47 187.217 250.726C187.217 248.982 188.631 247.568 190.375 247.568C192.119 247.568 193.533 248.982 193.533 250.726Z" fill="#F5DC4E"/>
<path d="M193.533 250.726C193.533 252.47 192.119 253.884 190.375 253.884C188.631 253.884 187.217 252.47 187.217 250.726C187.217 248.982 188.631 247.568 190.375 247.568C192.119 247.568 193.533 248.982 193.533 250.726Z" fill="black" fill-opacity="0.2"/>
<path d="M193.533 250.726C193.533 252.47 192.119 253.884 190.375 253.884C188.631 253.884 187.217 252.47 187.217 250.726C187.217 248.982 188.631 247.568 190.375 247.568C192.119 247.568 193.533 248.982 193.533 250.726Z" stroke="#F5DC4E" stroke-width="1.33065"/>
<path d="M193.533 250.726C193.533 252.47 192.119 253.884 190.375 253.884C188.631 253.884 187.217 252.47 187.217 250.726C187.217 248.982 188.631 247.568 190.375 247.568C192.119 247.568 193.533 248.982 193.533 250.726Z" stroke="black" stroke-opacity="0.2" stroke-width="1.33065"/>
<path d="M208.826 250.726C208.826 252.47 207.412 253.884 205.668 253.884C203.924 253.884 202.51 252.47 202.51 250.726C202.51 248.982 203.924 247.568 205.668 247.568C207.412 247.568 208.826 248.982 208.826 250.726Z" fill="#F5DC4E"/>
<path d="M208.826 250.726C208.826 252.47 207.412 253.884 205.668 253.884C203.924 253.884 202.51 252.47 202.51 250.726C202.51 248.982 203.924 247.568 205.668 247.568C207.412 247.568 208.826 248.982 208.826 250.726Z" fill="black" fill-opacity="0.2"/>
<path d="M208.826 250.726C208.826 252.47 207.412 253.884 205.668 253.884C203.924 253.884 202.51 252.47 202.51 250.726C202.51 248.982 203.924 247.568 205.668 247.568C207.412 247.568 208.826 248.982 208.826 250.726Z" stroke="#F5DC4E" stroke-width="1.33065"/>
<path d="M208.826 250.726C208.826 252.47 207.412 253.884 205.668 253.884C203.924 253.884 202.51 252.47 202.51 250.726C202.51 248.982 203.924 247.568 205.668 247.568C207.412 247.568 208.826 248.982 208.826 250.726Z" stroke="black" stroke-opacity="0.2" stroke-width="1.33065"/>
<path d="M15.0403 255.643C15.0403 255.643 17.4983 257.282 20.3658 257.282C23.6433 257.282 25.9372 255.643 25.9372 255.643" fill="#F5DC4E"/>
<path d="M15.0403 255.643C15.0403 255.643 17.4983 257.282 20.3658 257.282C23.6433 257.282 25.9372 255.643 25.9372 255.643" fill="black" fill-opacity="0.2"/>
<path d="M15.0403 255.643C15.0403 255.643 17.4983 257.282 20.3658 257.282C23.6433 257.282 25.9372 255.643 25.9372 255.643" stroke="#F5DC4E" stroke-width="3.44113" stroke-linecap="round" stroke-linejoin="round"/>
<path d="M15.0403 255.643C15.0403 255.643 17.4983 257.282 20.3658 257.282C23.6433 257.282 25.9372 255.643 25.9372 255.643" stroke="black" stroke-opacity="0.2" stroke-width="3.44113" stroke-linecap="round" stroke-linejoin="round"/>
<path d="M104.619 223.963C104.619 223.963 107.077 225.601 109.945 225.601C113.222 225.601 115.516 223.963 115.516 223.963" fill="#F5DC4E"/>
<path d="M104.619 223.963C104.619 223.963 107.077 225.601 109.945 225.601C113.222 225.601 115.516 223.963 115.516 223.963" fill="black" fill-opacity="0.2"/>
<path d="M104.619 223.963C104.619 223.963 107.077 225.601 109.945 225.601C113.222 225.601 115.516 223.963 115.516 223.963" stroke="#F5DC4E" stroke-width="3.44113" stroke-linecap="round" stroke-linejoin="round"/>
<path d="M104.619 223.963C104.619 223.963 107.077 225.601 109.945 225.601C113.222 225.601 115.516 223.963 115.516 223.963" stroke="black" stroke-opacity="0.2" stroke-width="3.44113" stroke-linecap="round" stroke-linejoin="round"/>
<path d="M193.105 262.744C193.105 262.744 195.563 264.382 198.431 264.382C201.708 264.382 204.002 262.744 204.002 262.744" fill="#F5DC4E"/>
<path d="M193.105 262.744C193.105 262.744 195.563 264.382 198.431 264.382C201.708 264.382 204.002 262.744 204.002 262.744" fill="black" fill-opacity="0.2"/>
<path d="M193.105 262.744C193.105 262.744 195.563 264.382 198.431 264.382C201.708 264.382 204.002 262.744 204.002 262.744" stroke="#F5DC4E" stroke-width="3.44113" stroke-linecap="round" stroke-linejoin="round"/>
<path d="M193.105 262.744C193.105 262.744 195.563 264.382 198.431 264.382C201.708 264.382 204.002 262.744 204.002 262.744" stroke="black" stroke-opacity="0.2" stroke-width="3.44113" stroke-linecap="round" stroke-linejoin="round"/>
<path d="M164.31 118.435H28.7255C26.1764 118.435 24.1099 120.501 24.1099 123.05V176.13C24.1099 178.679 26.1764 180.746 28.7255 180.746H164.31C166.859 180.746 168.925 178.679 168.925 176.13V123.05C168.925 120.501 166.859 118.435 164.31 118.435Z" fill="#6ABF6C"/>
<path d="M164.31 118.435H28.7255C26.1764 118.435 24.1099 120.501 24.1099 123.05V176.13C24.1099 178.679 26.1764 180.746 28.7255 180.746H164.31C166.859 180.746 168.925 178.679 168.925 176.13V123.05C168.925 120.501 166.859 118.435 164.31 118.435Z" fill="black" fill-opacity="0.2"/>
<path d="M77.0002 33.2585C104.196 33.2585 104.836 73.8927 129.153 73.8927" stroke="#323434" stroke-width="1.91972" stroke-linecap="round" stroke-linejoin="round"/>
<path d="M164.31 116.127H28.7255C26.1764 116.127 24.1099 118.193 24.1099 120.743V173.822C24.1099 176.371 26.1764 178.438 28.7255 178.438H164.31C166.859 178.438 168.925 176.371 168.925 173.822V120.743C168.925 118.193 166.859 116.127 164.31 116.127Z" fill="#6ABF6C"/>
<path d="M61.6117 157.091H36.8026C34.2535 157.091 32.187 159.158 32.187 161.707V168.053C32.187 170.602 34.2535 172.669 36.8026 172.669H61.6117C64.1608 172.669 66.2273 170.602 66.2273 168.053V161.707C66.2273 159.158 64.1608 157.091 61.6117 157.091Z" fill="#6ABF6C"/>
<path d="M61.6117 157.091H36.8026C34.2535 157.091 32.187 159.158 32.187 161.707V168.053C32.187 170.602 34.2535 172.669 36.8026 172.669H61.6117C64.1608 172.669 66.2273 170.602 66.2273 168.053V161.707C66.2273 159.158 64.1608 157.091 61.6117 157.091Z" fill="black" fill-opacity="0.2"/>
<path d="M144.405 121.897H33.6294C32.8328 121.897 32.187 122.543 32.187 123.339V123.339C32.187 124.136 32.8328 124.782 33.6294 124.782H144.405C145.201 124.782 145.847 124.136 145.847 123.339C145.847 122.543 145.201 121.897 144.405 121.897Z" fill="#6ABF6C"/>
<path d="M144.405 121.897H33.6294C32.8328 121.897 32.187 122.543 32.187 123.339V123.339C32.187 124.136 32.8328 124.782 33.6294 124.782H144.405C145.201 124.782 145.847 124.136 145.847 123.339C145.847 122.543 145.201 121.897 144.405 121.897Z" fill="black" fill-opacity="0.2"/>
<path d="M83.2475 128.82H33.6294C32.8328 128.82 32.187 129.466 32.187 130.262V130.262C32.187 131.059 32.8328 131.705 33.6294 131.705H83.2475C84.0441 131.705 84.6899 131.059 84.6899 130.262C84.6899 129.466 84.0441 128.82 83.2475 128.82Z" fill="#6ABF6C"/>
<path d="M83.2475 128.82H33.6294C32.8328 128.82 32.187 129.466 32.187 130.262V130.262C32.187 131.059 32.8328 131.705 33.6294 131.705H83.2475C84.0441 131.705 84.6899 131.059 84.6899 130.262C84.6899 129.466 84.0441 128.82 83.2475 128.82Z" fill="black" fill-opacity="0.2"/>
<path d="M71.8809 0.943542H13.0092C10.1819 0.943542 7.88989 3.23552 7.88989 6.06281V64.9345C7.88989 67.7618 10.1819 70.0538 13.0092 70.0538H71.8809C74.7082 70.0538 77.0001 67.7618 77.0001 64.9345V6.06281C77.0001 3.23552 74.7082 0.943542 71.8809 0.943542Z" fill="#BA96FF"/>
<path d="M193.464 38.058H134.592C131.765 38.058 129.473 40.35 129.473 43.1773V102.049C129.473 104.876 131.765 107.168 134.592 107.168H193.464C196.291 107.168 198.583 104.876 198.583 102.049V43.1773C198.583 40.35 196.291 38.058 193.464 38.058Z" fill="#F1668F"/>
<path d="M61.0027 7.98236H15.5691C14.5089 7.98236 13.6494 8.84185 13.6494 9.90208V9.9021C13.6494 10.9623 14.5089 11.8218 15.5691 11.8218H61.0027C62.0629 11.8218 62.9224 10.9623 62.9224 9.90208C62.9224 8.84185 62.0629 7.98236 61.0027 7.98236Z" fill="#BA96FF"/>
<path d="M61.0027 7.98236H15.5691C14.5089 7.98236 13.6494 8.84185 13.6494 9.90208V9.9021C13.6494 10.9623 14.5089 11.8218 15.5691 11.8218H61.0027C62.0629 11.8218 62.9224 10.9623 62.9224 9.90208C62.9224 8.84185 62.0629 7.98236 61.0027 7.98236Z" fill="black" fill-opacity="0.2"/>
<path d="M182.585 45.0975H137.151C136.091 45.0975 135.232 45.957 135.232 47.0173V47.0173C135.232 48.0775 136.091 48.937 137.151 48.937H182.585C183.645 48.937 184.505 48.0775 184.505 47.0173C184.505 45.957 183.645 45.0975 182.585 45.0975Z" fill="#F1668F"/>
<path d="M182.585 45.0975H137.151C136.091 45.0975 135.232 45.957 135.232 47.0173V47.0173C135.232 48.0775 136.091 48.937 137.151 48.937H182.585C183.645 48.937 184.505 48.0775 184.505 47.0173C184.505 45.957 183.645 45.0975 182.585 45.0975Z" fill="black" fill-opacity="0.2"/>
<path d="M34.7665 14.3812H15.5691C14.5089 14.3812 13.6494 15.2407 13.6494 16.3009V16.3009C13.6494 17.3611 14.5089 18.2206 15.5691 18.2206H34.7665C35.8267 18.2206 36.6862 17.3611 36.6862 16.3009C36.6862 15.2407 35.8267 14.3812 34.7665 14.3812Z" fill="#BA96FF"/>
<path d="M34.7665 14.3812H15.5691C14.5089 14.3812 13.6494 15.2407 13.6494 16.3009V16.3009C13.6494 17.3611 14.5089 18.2206 15.5691 18.2206H34.7665C35.8267 18.2206 36.6862 17.3611 36.6862 16.3009C36.6862 15.2407 35.8267 14.3812 34.7665 14.3812Z" fill="black" fill-opacity="0.2"/>
<path d="M156.349 51.496H137.151C136.091 51.496 135.232 52.3555 135.232 53.4158V53.4158C135.232 54.476 136.091 55.3355 137.151 55.3355H156.349C157.409 55.3355 158.268 54.476 158.268 53.4158V53.4158C158.268 52.3555 157.409 51.496 156.349 51.496Z" fill="#F1668F"/>
<path d="M156.349 51.496H137.151C136.091 51.496 135.232 52.3555 135.232 53.4158V53.4158C135.232 54.476 136.091 55.3355 137.151 55.3355H156.349C157.409 55.3355 158.268 54.476 158.268 53.4158V53.4158C158.268 52.3555 157.409 51.496 156.349 51.496Z" fill="black" fill-opacity="0.2"/>
<path d="M45.6449 20.7805H15.5691C14.5089 20.7805 13.6494 21.6399 13.6494 22.7002V22.7002C13.6494 23.7604 14.5089 24.6199 15.5691 24.6199H45.6449C46.7051 24.6199 47.5646 23.7604 47.5646 22.7002C47.5646 21.6399 46.7051 20.7805 45.6449 20.7805Z" fill="#BA96FF"/>
<path d="M45.6449 20.7805H15.5691C14.5089 20.7805 13.6494 21.6399 13.6494 22.7002V22.7002C13.6494 23.7604 14.5089 24.6199 15.5691 24.6199H45.6449C46.7051 24.6199 47.5646 23.7604 47.5646 22.7002C47.5646 21.6399 46.7051 20.7805 45.6449 20.7805Z" fill="black" fill-opacity="0.2"/>
<path d="M167.227 57.8956H137.151C136.091 57.8956 135.232 58.7551 135.232 59.8153V59.8153C135.232 60.8755 136.091 61.735 137.151 61.735H167.227C168.287 61.735 169.147 60.8755 169.147 59.8153C169.147 58.7551 168.287 57.8956 167.227 57.8956Z" fill="#F1668F"/>
<path d="M167.227 57.8956H137.151C136.091 57.8956 135.232 58.7551 135.232 59.8153V59.8153C135.232 60.8755 136.091 61.735 137.151 61.735H167.227C168.287 61.735 169.147 60.8755 169.147 59.8153C169.147 58.7551 168.287 57.8956 167.227 57.8956Z" fill="black" fill-opacity="0.2"/>
<path d="M39.8857 27.1796H15.5691C14.5089 27.1796 13.6494 28.0391 13.6494 29.0993V29.0994C13.6494 30.1596 14.5089 31.0191 15.5691 31.0191H39.8857C40.946 31.0191 41.8055 30.1596 41.8055 29.0993C41.8055 28.0391 40.946 27.1796 39.8857 27.1796Z" fill="#BA96FF"/>
<path d="M39.8857 27.1796H15.5691C14.5089 27.1796 13.6494 28.0391 13.6494 29.0993V29.0994C13.6494 30.1596 14.5089 31.0191 15.5691 31.0191H39.8857C40.946 31.0191 41.8055 30.1596 41.8055 29.0993C41.8055 28.0391 40.946 27.1796 39.8857 27.1796Z" fill="black" fill-opacity="0.2"/>
<path d="M161.468 64.2941H137.151C136.091 64.2941 135.232 65.1536 135.232 66.2138V66.2138C135.232 67.274 136.091 68.1335 137.151 68.1335H161.468C162.528 68.1335 163.388 67.274 163.388 66.2138C163.388 65.1536 162.528 64.2941 161.468 64.2941Z" fill="#F1668F"/>
<path d="M161.468 64.2941H137.151C136.091 64.2941 135.232 65.1536 135.232 66.2138V66.2138C135.232 67.274 136.091 68.1335 137.151 68.1335H161.468C162.528 68.1335 163.388 67.274 163.388 66.2138C163.388 65.1536 162.528 64.2941 161.468 64.2941Z" fill="black" fill-opacity="0.2"/>
</svg>
