<svg width="321" height="60" viewBox="0 0 321 60" fill="none" xmlns="http://www.w3.org/2000/svg">
<g clip-path="url(#clip0_3778_301)">
<path d="M21.8364 49.589C15.6582 55.7673 5.19449 55.7427 2.27227 47.5084C1.70014 45.8963 1.2427 44.2386 0.906259 42.5472C-0.467437 35.641 0.237594 28.4828 2.9322 21.9774C5.6268 15.4721 10.1899 9.91192 16.0446 5.99996C21.8993 2.088 28.7826 -3.01624e-07 35.8239 0C42.8652 3.01624e-07 49.7484 2.088 55.603 5.99996C61.4578 9.91192 66.0209 15.4721 68.7155 21.9776C71.4101 28.4828 72.115 35.641 70.7414 42.5472C70.405 44.2386 69.9475 45.8963 69.3753 47.5084C66.4531 55.7427 55.9895 55.7673 49.8111 49.589L40.274 40.0519C39.3629 39.1407 39.457 37.638 39.7084 36.3743C39.8611 35.6061 39.7826 34.8097 39.4829 34.086C39.1831 33.3623 38.6755 32.7437 38.0242 32.3086C37.3729 31.8734 36.6072 31.6411 35.8239 31.6411C35.0406 31.6411 34.2749 31.8734 33.6235 32.3086C32.972 32.7437 32.4645 33.3623 32.1647 34.086C31.8649 34.8097 31.7865 35.6061 31.9394 36.3743C32.1908 37.638 32.2847 39.1407 31.3735 40.0519L21.8364 49.589Z" fill="url(#paint0_linear_3778_301)"/>
<path d="M100.39 41.0414H109.96V46.6808H93.0846V16.6899H100.39V41.0414Z" fill="#3A3B7B"/>
<path d="M123.014 47.0227C120.679 47.0227 118.571 46.5242 116.691 45.5274C114.84 44.5306 113.373 43.1065 112.291 41.2552C111.237 39.4039 110.71 37.2393 110.71 34.7613C110.71 32.3121 111.251 30.1616 112.333 28.3103C113.416 26.4307 114.897 24.9923 116.776 23.9955C118.656 22.9987 120.764 22.5002 123.099 22.5002C125.435 22.5002 127.543 22.9987 129.422 23.9955C131.302 24.9923 132.783 26.4307 133.865 28.3103C134.948 30.1616 135.489 32.3121 135.489 34.7613C135.489 37.2108 134.933 39.3753 133.823 41.2552C132.74 43.1065 131.245 44.5306 129.337 45.5274C127.457 46.5242 125.349 47.0227 123.014 47.0227ZM123.014 40.6997C124.41 40.6997 125.592 40.1872 126.56 39.1618C127.557 38.1364 128.055 36.6698 128.055 34.7613C128.055 32.8531 127.571 31.3865 126.603 30.3611C125.663 29.3357 124.495 28.823 123.099 28.823C121.675 28.823 120.493 29.3357 119.553 30.3611C118.614 31.3579 118.144 32.8246 118.144 34.7613C118.144 36.6698 118.599 38.1364 119.511 39.1618C120.451 40.1872 121.618 40.6997 123.014 40.6997Z" fill="#3A3B7B"/>
<path d="M147.14 22.5002C148.82 22.5002 150.287 22.842 151.54 23.5256C152.822 24.209 153.805 25.1063 154.488 26.2169V22.842H161.794V46.638C161.794 48.8311 161.352 50.8107 160.469 52.5764C159.615 54.3708 158.29 55.7949 156.496 56.8486C154.73 57.9025 152.523 58.4295 149.874 58.4295C146.343 58.4295 143.48 57.5893 141.287 55.9089C139.094 54.2568 137.841 52.0068 137.527 49.1587H144.748C144.975 50.07 145.517 50.7822 146.371 51.2949C147.225 51.8359 148.279 52.1065 149.532 52.1065C151.042 52.1065 152.238 51.665 153.121 50.7822C154.032 49.9277 154.488 48.5464 154.488 46.638V43.2631C153.776 44.3738 152.794 45.2853 151.54 45.9973C150.287 46.6809 148.82 47.0227 147.14 47.0227C145.175 47.0227 143.395 46.5242 141.8 45.5274C140.205 44.502 138.937 43.0637 137.998 41.2124C137.086 39.3327 136.63 37.1682 136.63 34.7187C136.63 32.2693 137.086 30.119 137.998 28.2677C138.937 26.4164 140.205 24.9923 141.8 23.9955C143.395 22.9987 145.175 22.5002 147.14 22.5002ZM154.488 34.7613C154.488 32.9386 153.976 31.5002 152.95 30.4465C151.953 29.3928 150.729 28.8658 149.276 28.8658C147.823 28.8658 146.585 29.3928 145.559 30.4465C144.562 31.4719 144.064 32.896 144.064 34.7187C144.064 36.5415 144.562 37.9941 145.559 39.0764C146.585 40.1301 147.823 40.6571 149.276 40.6571C150.729 40.6571 151.953 40.1301 152.95 39.0764C153.976 38.0225 154.488 36.5843 154.488 34.7613Z" fill="#3A3B7B"/>
<path d="M176.648 47.0227C174.313 47.0227 172.205 46.5242 170.326 45.5274C168.474 44.5306 167.007 43.1065 165.925 41.2552C164.871 39.4039 164.344 37.2393 164.344 34.7613C164.344 32.3121 164.886 30.1616 165.968 28.3103C167.05 26.4307 168.531 24.9923 170.411 23.9955C172.291 22.9987 174.398 22.5002 176.734 22.5002C179.069 22.5002 181.177 22.9987 183.057 23.9955C184.936 24.9923 186.417 26.4307 187.5 28.3103C188.582 30.1616 189.123 32.3121 189.123 34.7613C189.123 37.2108 188.568 39.3753 187.457 41.2552C186.375 43.1065 184.88 44.5306 182.971 45.5274C181.092 46.5242 178.984 47.0227 176.648 47.0227ZM176.648 40.6997C178.044 40.6997 179.226 40.1872 180.194 39.1618C181.191 38.1364 181.69 36.6698 181.69 34.7613C181.69 32.8531 181.205 31.3865 180.237 30.3611C179.297 29.3357 178.129 28.823 176.734 28.823C175.31 28.823 174.128 29.3357 173.188 30.3611C172.248 31.3579 171.778 32.8246 171.778 34.7613C171.778 36.6698 172.234 38.1364 173.145 39.1618C174.085 40.1872 175.253 40.6997 176.648 40.6997Z" fill="#3A3B7B"/>
<path d="M195.391 20.364C194.11 20.364 193.056 19.9938 192.23 19.2533C191.433 18.4843 191.034 17.5444 191.034 16.4336C191.034 15.2944 191.433 14.3545 192.23 13.6139C193.056 12.8449 194.11 12.4604 195.391 12.4604C196.645 12.4604 197.67 12.8449 198.467 13.6139C199.293 14.3545 199.706 15.2944 199.706 16.4336C199.706 17.5444 199.293 18.4843 198.467 19.2533C197.67 19.9938 196.645 20.364 195.391 20.364ZM199.023 22.8419V46.6808H191.717V22.8419H199.023Z" fill="#3A3B7B"/>
<path d="M210.34 26.2169C211.052 25.1063 212.035 24.209 213.288 23.5256C214.542 22.842 216.009 22.5002 217.689 22.5002C219.655 22.5002 221.434 22.9987 223.029 23.9955C224.624 24.9923 225.878 26.4164 226.788 28.2677C227.728 30.119 228.199 32.2693 228.199 34.7187C228.199 37.1682 227.728 39.3327 226.788 41.2124C225.878 43.0637 224.624 44.502 223.029 45.5274C221.434 46.5242 219.655 47.0227 217.689 47.0227C216.036 47.0227 214.571 46.6809 213.288 45.9973C212.035 45.3137 211.052 44.4309 210.34 43.3486V58.0449H203.035V22.842H210.34V26.2169ZM220.766 34.7187C220.766 32.896 220.252 31.4719 219.226 30.4465C218.229 29.3928 216.992 28.8658 215.51 28.8658C214.058 28.8658 212.819 29.3928 211.792 30.4465C210.797 31.5002 210.299 32.9386 210.299 34.7613C210.299 36.5843 210.797 38.0225 211.792 39.0764C212.819 40.1301 214.058 40.6571 215.51 40.6571C216.963 40.6571 218.202 40.1301 219.226 39.0764C220.252 37.9941 220.766 36.5415 220.766 34.7187Z" fill="#3A3B7B"/>
<path d="M240.448 47.0227C238.368 47.0227 236.517 46.6666 234.892 45.9547C233.27 45.2425 231.988 44.2742 231.048 43.0494C230.109 41.7962 229.581 40.4007 229.468 38.8627H236.688C236.773 39.6886 237.158 40.3579 237.841 40.8706C238.526 41.3833 239.366 41.6396 240.363 41.6396C241.273 41.6396 241.97 41.4687 242.455 41.1269C242.968 40.7568 243.224 40.2867 243.224 39.7171C243.224 39.0336 242.868 38.5351 242.157 38.2219C241.445 37.8801 240.29 37.51 238.695 37.1111C236.986 36.7124 235.563 36.2994 234.423 35.8722C233.285 35.4166 232.302 34.7187 231.477 33.7788C230.649 32.8105 230.237 31.5145 230.237 29.8912C230.237 28.524 230.608 27.2851 231.348 26.1743C232.116 25.0351 233.227 24.1378 234.679 23.4828C236.161 22.8278 237.913 22.5002 239.935 22.5002C242.924 22.5002 245.275 23.2407 246.984 24.7217C248.721 26.2029 249.719 28.168 249.975 30.6174H243.224C243.11 29.7915 242.74 29.1365 242.113 28.6521C241.515 28.168 240.719 27.9259 239.721 27.9259C238.867 27.9259 238.211 28.0968 237.756 28.4386C237.301 28.7518 237.073 29.1933 237.073 29.7629C237.073 30.4465 237.429 30.9592 238.141 31.301C238.881 31.6428 240.019 31.9846 241.559 32.3262C243.324 32.782 244.761 33.2378 245.872 33.6933C246.984 34.1206 247.952 34.8325 248.777 35.8296C249.632 36.7978 250.075 38.1079 250.104 39.76C250.104 41.1555 249.704 42.4087 248.906 43.5195C248.138 44.6018 247.012 45.4562 245.531 46.0827C244.079 46.7094 242.384 47.0227 240.448 47.0227Z" fill="#3A3B7B"/>
<path d="M276.83 22.842V46.6809H269.525V43.434C268.784 44.4878 267.773 45.3422 266.492 45.9973C265.238 46.624 263.844 46.9372 262.304 46.9372C260.481 46.9372 258.872 46.5385 257.477 45.7409C256.081 44.915 254.999 43.733 254.231 42.1951C253.462 40.6571 253.077 38.8486 253.077 36.7693V22.842H260.339V35.7867C260.339 37.3817 260.753 38.6206 261.578 39.5036C262.404 40.3865 263.515 40.828 264.911 40.828C266.335 40.828 267.46 40.3865 268.286 39.5036C269.111 38.6206 269.525 37.3817 269.525 35.7867V22.842H276.83Z" fill="#3A3B7B"/>
<path d="M311.215 22.5857C314.175 22.5857 316.526 23.4828 318.264 25.2772C320.028 27.0714 320.912 29.5635 320.912 32.7534V46.6809H313.65V33.7362C313.65 32.1981 313.236 31.0161 312.41 30.1902C311.612 29.3357 310.503 28.9085 309.077 28.9085C307.654 28.9085 306.528 29.3357 305.703 30.1902C304.906 31.0161 304.507 32.1981 304.507 33.7362V46.6809H297.243V33.7362C297.243 32.1981 296.831 31.0161 296.006 30.1902C295.207 29.3357 294.096 28.9085 292.673 28.9085C291.249 28.9085 290.124 29.3357 289.298 30.1902C288.499 31.0161 288.102 32.1981 288.102 33.7362V46.6809H280.797V22.842H288.102V25.8325C288.843 24.8357 289.811 24.0524 291.007 23.4828C292.203 22.8847 293.556 22.5857 295.064 22.5857C296.86 22.5857 298.455 22.9701 299.85 23.7391C301.273 24.5082 302.384 25.6047 303.183 27.0288C304.008 25.7185 305.134 24.6505 306.557 23.8246C307.981 22.9987 309.535 22.5857 311.215 22.5857Z" fill="#3A3B7B"/>
</g>
<defs>
<linearGradient id="paint0_linear_3778_301" x1="68.1848" y1="17.8008" x2="4.9919" y2="17.8008" gradientUnits="userSpaceOnUse">
<stop stop-color="#64C2DB"/>
<stop offset="0.510417" stop-color="#7476ED"/>
<stop offset="1" stop-color="#E56F8C"/>
</linearGradient>
<clipPath id="clip0_3778_301">
<rect width="320.69" height="60" fill="white" transform="translate(0.222168)"/>
</clipPath>
</defs>
</svg>
