<svg width="234" height="239" viewBox="0 0 234 239" fill="none" xmlns="http://www.w3.org/2000/svg">
<path d="M135.431 2.23334H5.1878C2.73907 2.23334 0.754028 4.21842 0.754028 6.66715V57.6559C0.754028 60.1046 2.73907 62.0897 5.1878 62.0897H135.431C137.879 62.0897 139.865 60.1046 139.865 57.6559V6.66715C139.865 4.21842 137.879 2.23334 135.431 2.23334Z" fill="#BA96FF"/>
<path d="M135.431 2.23334H5.1878C2.73907 2.23334 0.754028 4.21842 0.754028 6.66715V57.6559C0.754028 60.1046 2.73907 62.0897 5.1878 62.0897H135.431C137.879 62.0897 139.865 60.1046 139.865 57.6559V6.66715C139.865 4.21842 137.879 2.23334 135.431 2.23334Z" fill="black" fill-opacity="0.2"/>
<path d="M135.431 0.0161133H5.1878C2.73907 0.0161133 0.754028 2.0012 0.754028 4.44992V55.4387C0.754028 57.8874 2.73907 59.8725 5.1878 59.8725H135.431C137.879 59.8725 139.865 57.8874 139.865 55.4387V4.44992C139.865 2.0012 137.879 0.0161133 135.431 0.0161133Z" fill="#BA96FF"/>
<path d="M36.7785 39.3665H12.9468C10.4981 39.3665 8.51294 41.3515 8.51294 43.8003V49.8967C8.51294 52.3454 10.4981 54.3305 12.9468 54.3305H36.7785C39.2272 54.3305 41.2123 52.3454 41.2123 49.8967V43.8003C41.2123 41.3515 39.2272 39.3665 36.7785 39.3665Z" fill="#BA96FF"/>
<path d="M36.7785 39.3665H12.9468C10.4981 39.3665 8.51294 41.3515 8.51294 43.8003V49.8967C8.51294 52.3454 10.4981 54.3305 12.9468 54.3305H36.7785C39.2272 54.3305 41.2123 52.3454 41.2123 49.8967V43.8003C41.2123 41.3515 39.2272 39.3665 36.7785 39.3665Z" fill="black" fill-opacity="0.2"/>
<path d="M116.31 5.55878H9.89852C9.13329 5.55878 8.51294 6.17911 8.51294 6.94433V6.94435C8.51294 7.70957 9.13329 8.32991 9.89852 8.32991H116.31C117.075 8.32991 117.695 7.70957 117.695 6.94433C117.695 6.17911 117.075 5.55878 116.31 5.55878Z" fill="#BA96FF"/>
<path d="M116.31 5.55878H9.89852C9.13329 5.55878 8.51294 6.17911 8.51294 6.94433V6.94435C8.51294 7.70957 9.13329 8.32991 9.89852 8.32991H116.31C117.075 8.32991 117.695 7.70957 117.695 6.94433C117.695 6.17911 117.075 5.55878 116.31 5.55878Z" fill="black" fill-opacity="0.2"/>
<path d="M57.562 12.2091H9.89852C9.13329 12.2091 8.51294 12.8294 8.51294 13.5947V13.5947C8.51294 14.3599 9.13329 14.9802 9.89852 14.9802H57.562C58.3272 14.9802 58.9475 14.3599 58.9475 13.5947C58.9475 12.8294 58.3272 12.2091 57.562 12.2091Z" fill="#BA96FF"/>
<path d="M57.562 12.2091H9.89852C9.13329 12.2091 8.51294 12.8294 8.51294 13.5947V13.5947C8.51294 14.3599 9.13329 14.9802 9.89852 14.9802H57.562C58.3272 14.9802 58.9475 14.3599 58.9475 13.5947C58.9475 12.8294 58.3272 12.2091 57.562 12.2091Z" fill="black" fill-opacity="0.2"/>
<path d="M135.431 178.34H5.1878C2.73907 178.34 0.754028 180.325 0.754028 182.773V233.762C0.754028 236.211 2.73907 238.196 5.1878 238.196H135.431C137.879 238.196 139.865 236.211 139.865 233.762V182.773C139.865 180.325 137.879 178.34 135.431 178.34Z" fill="#6ABF6C"/>
<path d="M135.431 178.34H5.1878C2.73907 178.34 0.754028 180.325 0.754028 182.773V233.762C0.754028 236.211 2.73907 238.196 5.1878 238.196H135.431C137.879 238.196 139.865 236.211 139.865 233.762V182.773C139.865 180.325 137.879 178.34 135.431 178.34Z" fill="black" fill-opacity="0.2"/>
<path d="M135.431 176.122H5.1878C2.73907 176.122 0.754028 178.107 0.754028 180.556V231.544C0.754028 233.993 2.73907 235.978 5.1878 235.978H135.431C137.879 235.978 139.865 233.993 139.865 231.544V180.556C139.865 178.107 137.879 176.122 135.431 176.122Z" fill="#6ABF6C"/>
<path d="M36.7785 215.472H12.9468C10.4981 215.472 8.51294 217.457 8.51294 219.906V226.002C8.51294 228.451 10.4981 230.436 12.9468 230.436H36.7785C39.2272 230.436 41.2123 228.451 41.2123 226.002V219.906C41.2123 217.457 39.2272 215.472 36.7785 215.472Z" fill="#6ABF6C"/>
<path d="M36.7785 215.472H12.9468C10.4981 215.472 8.51294 217.457 8.51294 219.906V226.002C8.51294 228.451 10.4981 230.436 12.9468 230.436H36.7785C39.2272 230.436 41.2123 228.451 41.2123 226.002V219.906C41.2123 217.457 39.2272 215.472 36.7785 215.472Z" fill="black" fill-opacity="0.2"/>
<path d="M116.31 181.664H9.89852C9.13329 181.664 8.51294 182.285 8.51294 183.05C8.51294 183.815 9.13329 184.435 9.89852 184.435H116.31C117.075 184.435 117.695 183.815 117.695 183.05C117.695 182.285 117.075 181.664 116.31 181.664Z" fill="#6ABF6C"/>
<path d="M116.31 181.664H9.89852C9.13329 181.664 8.51294 182.285 8.51294 183.05C8.51294 183.815 9.13329 184.435 9.89852 184.435H116.31C117.075 184.435 117.695 183.815 117.695 183.05C117.695 182.285 117.075 181.664 116.31 181.664Z" fill="black" fill-opacity="0.2"/>
<path d="M57.562 188.315H9.89852C9.13329 188.315 8.51294 188.935 8.51294 189.701C8.51294 190.466 9.13329 191.086 9.89852 191.086H57.562C58.3272 191.086 58.9475 190.466 58.9475 189.701C58.9475 188.935 58.3272 188.315 57.562 188.315Z" fill="#6ABF6C"/>
<path d="M57.562 188.315H9.89852C9.13329 188.315 8.51294 188.935 8.51294 189.701C8.51294 190.466 9.13329 191.086 9.89852 191.086H57.562C58.3272 191.086 58.9475 190.466 58.9475 189.701C58.9475 188.935 58.3272 188.315 57.562 188.315Z" fill="black" fill-opacity="0.2"/>
<path d="M229.129 90.2864H98.8857C96.4369 90.2864 94.4519 92.2715 94.4519 94.7202V145.709C94.4519 148.158 96.4369 150.143 98.8857 150.143H229.129C231.577 150.143 233.562 148.158 233.562 145.709V94.7202C233.562 92.2715 231.577 90.2864 229.129 90.2864Z" fill="#F1668F"/>
<path d="M229.129 90.2864H98.8857C96.4369 90.2864 94.4519 92.2715 94.4519 94.7202V145.709C94.4519 148.158 96.4369 150.143 98.8857 150.143H229.129C231.577 150.143 233.562 148.158 233.562 145.709V94.7202C233.562 92.2715 231.577 90.2864 229.129 90.2864Z" fill="black" fill-opacity="0.2"/>
<path d="M229.129 88.0689H98.8857C96.4369 88.0689 94.4519 90.054 94.4519 92.5027V143.491C94.4519 145.94 96.4369 147.925 98.8857 147.925H229.129C231.577 147.925 233.562 145.94 233.562 143.491V92.5027C233.562 90.054 231.577 88.0689 229.129 88.0689Z" fill="#F1668F"/>
<path d="M130.476 127.419H106.644C104.196 127.419 102.211 129.404 102.211 131.853V137.949C102.211 140.398 104.196 142.383 106.644 142.383H130.476C132.925 142.383 134.91 140.398 134.91 137.949V131.853C134.91 129.404 132.925 127.419 130.476 127.419Z" fill="#F1668F"/>
<path d="M130.476 127.419H106.644C104.196 127.419 102.211 129.404 102.211 131.853V137.949C102.211 140.398 104.196 142.383 106.644 142.383H130.476C132.925 142.383 134.91 140.398 134.91 137.949V131.853C134.91 129.404 132.925 127.419 130.476 127.419Z" fill="black" fill-opacity="0.2"/>
<path d="M210.008 93.6118H103.596C102.831 93.6118 102.211 94.2322 102.211 94.9974V94.9974C102.211 95.7626 102.831 96.3829 103.596 96.3829H210.008C210.773 96.3829 211.393 95.7626 211.393 94.9974C211.393 94.2322 210.773 93.6118 210.008 93.6118Z" fill="#F1668F"/>
<path d="M210.008 93.6118H103.596C102.831 93.6118 102.211 94.2322 102.211 94.9974V94.9974C102.211 95.7626 102.831 96.3829 103.596 96.3829H210.008C210.773 96.3829 211.393 95.7626 211.393 94.9974C211.393 94.2322 210.773 93.6118 210.008 93.6118Z" fill="black" fill-opacity="0.2"/>
<path d="M151.26 100.262H103.596C102.831 100.262 102.211 100.883 102.211 101.648V101.648C102.211 102.413 102.831 103.033 103.596 103.033H151.26C152.025 103.033 152.645 102.413 152.645 101.648C152.645 100.883 152.025 100.262 151.26 100.262Z" fill="#F1668F"/>
<path d="M151.26 100.262H103.596C102.831 100.262 102.211 100.883 102.211 101.648V101.648C102.211 102.413 102.831 103.033 103.596 103.033H151.26C152.025 103.033 152.645 102.413 152.645 101.648C152.645 100.883 152.025 100.262 151.26 100.262Z" fill="black" fill-opacity="0.2"/>
</svg>
