<svg width="18" height="18" viewBox="0 0 18 18" fill="none" xmlns="http://www.w3.org/2000/svg">
<path d="M16.8126 7.01591C16.748 6.8173 16.6298 6.6404 16.4709 6.5048C16.3121 6.36919 16.1188 6.28016 15.9126 6.24754L11.8699 5.6271L10.0581 1.78298C9.96977 1.58731 9.82692 1.42125 9.64664 1.30472C9.46636 1.18819 9.25629 1.12613 9.04163 1.12598C8.604 1.12598 8.21419 1.37798 8.02519 1.78185L6.21281 5.62766L2.17013 6.2481C1.96391 6.2809 1.77075 6.37 1.61195 6.50558C1.45315 6.64116 1.33486 6.81796 1.27013 7.01648C1.2001 7.22152 1.1881 7.44192 1.23545 7.65335C1.28279 7.86478 1.38765 8.05901 1.53844 8.2146L4.48031 11.242L3.78506 15.5237C3.71194 15.9749 3.89419 16.4147 4.2615 16.6729C4.43126 16.7927 4.63142 16.8622 4.83891 16.8732C5.0464 16.8842 5.25279 16.8365 5.43431 16.7354L9.03206 14.7284L12.6495 16.7354C12.8307 16.8371 13.0371 16.8852 13.2447 16.8742C13.4522 16.8631 13.6523 16.7933 13.8218 16.6729C14.0018 16.5462 14.1422 16.371 14.2265 16.1677C14.3109 15.9643 14.3357 15.7412 14.2982 15.5243L13.6029 11.2425L16.5448 8.21517C16.6956 8.05958 16.8005 7.86534 16.8478 7.65391C16.8952 7.44248 16.8832 7.22208 16.8131 7.01704L16.8126 7.01591Z" fill="#FFCB2B"/>
</svg>
