<svg width="258" height="172" viewBox="0 0 258 172" fill="none" xmlns="http://www.w3.org/2000/svg">
<path d="M97.2096 1.46295H6.5985C3.80232 1.46295 1.53564 3.71152 1.53564 6.48527V27.5786C1.53564 30.3523 3.80232 32.6009 6.5985 32.6009H97.2096C100.006 32.6009 102.273 30.3523 102.273 27.5786V6.48527C102.273 3.71152 100.006 1.46295 97.2096 1.46295Z" fill="#6ABF6C"/>
<path d="M97.2096 1.46295H6.5985C3.80232 1.46295 1.53564 3.71152 1.53564 6.48527V27.5786C1.53564 30.3523 3.80232 32.6009 6.5985 32.6009H97.2096C100.006 32.6009 102.273 30.3523 102.273 27.5786V6.48527C102.273 3.71152 100.006 1.46295 97.2096 1.46295Z" stroke="#6ABF6C" stroke-width="2.62963"/>
<path d="M97.2096 1.46295H6.5985C3.80232 1.46295 1.53564 3.71152 1.53564 6.48527V27.5786C1.53564 30.3523 3.80232 32.6009 6.5985 32.6009H97.2096C100.006 32.6009 102.273 30.3523 102.273 27.5786V6.48527C102.273 3.71152 100.006 1.46295 97.2096 1.46295Z" stroke="black" stroke-opacity="0.2" stroke-width="2.62963"/>
<path d="M97.3882 138.621H6.77706C3.98088 138.621 1.71411 140.87 1.71411 143.644V164.737C1.71411 167.511 3.98088 169.759 6.77706 169.759H97.3882C100.184 169.759 102.451 167.511 102.451 164.737V143.644C102.451 140.87 100.184 138.621 97.3882 138.621Z" fill="#F1668F"/>
<path d="M97.3882 138.621H6.77706C3.98088 138.621 1.71411 140.87 1.71411 143.644V164.737C1.71411 167.511 3.98088 169.759 6.77706 169.759H97.3882C100.184 169.759 102.451 167.511 102.451 164.737V143.644C102.451 140.87 100.184 138.621 97.3882 138.621Z" stroke="#F1668F" stroke-width="2.62963"/>
<path d="M97.3882 138.621H6.77706C3.98088 138.621 1.71411 140.87 1.71411 143.644V164.737C1.71411 167.511 3.98088 169.759 6.77706 169.759H97.3882C100.184 169.759 102.451 167.511 102.451 164.737V143.644C102.451 140.87 100.184 138.621 97.3882 138.621Z" stroke="black" stroke-opacity="0.2" stroke-width="2.62963"/>
<path d="M251.368 1.46295H160.757C157.961 1.46295 155.694 3.71152 155.694 6.48527V27.5786C155.694 30.3523 157.961 32.6009 160.757 32.6009H251.368C254.164 32.6009 256.431 30.3523 256.431 27.5786V6.48527C256.431 3.71152 254.164 1.46295 251.368 1.46295Z" fill="#6ABF6C"/>
<path d="M251.368 1.46295H160.757C157.961 1.46295 155.694 3.71152 155.694 6.48527V27.5786C155.694 30.3523 157.961 32.6009 160.757 32.6009H251.368C254.164 32.6009 256.431 30.3523 256.431 27.5786V6.48527C256.431 3.71152 254.164 1.46295 251.368 1.46295Z" stroke="#6ABF6C" stroke-width="2.62963"/>
<path d="M251.368 1.46295H160.757C157.961 1.46295 155.694 3.71152 155.694 6.48527V27.5786C155.694 30.3523 157.961 32.6009 160.757 32.6009H251.368C254.164 32.6009 256.431 30.3523 256.431 27.5786V6.48527C256.431 3.71152 254.164 1.46295 251.368 1.46295Z" stroke="black" stroke-opacity="0.2" stroke-width="2.62963"/>
<path d="M147.314 58.6123H106.462C104.727 58.6123 103.32 60.0079 103.32 61.7295C103.32 63.4511 104.727 64.8468 106.462 64.8468H147.314C149.049 64.8468 150.456 63.4511 150.456 61.7295C150.456 60.0079 149.049 58.6123 147.314 58.6123Z" fill="#BA96FF"/>
<path d="M147.314 58.6123H106.462C104.727 58.6123 103.32 60.0079 103.32 61.7295C103.32 63.4511 104.727 64.8468 106.462 64.8468H147.314C149.049 64.8468 150.456 63.4511 150.456 61.7295C150.456 60.0079 149.049 58.6123 147.314 58.6123Z" stroke="#BA96FF" stroke-width="2.62963"/>
<path d="M147.314 58.6123H106.462C104.727 58.6123 103.32 60.0079 103.32 61.7295C103.32 63.4511 104.727 64.8468 106.462 64.8468H147.314C149.049 64.8468 150.456 63.4511 150.456 61.7295C150.456 60.0079 149.049 58.6123 147.314 58.6123Z" stroke="black" stroke-opacity="0.2" stroke-width="2.62963"/>
<path d="M111.7 102.254H152.551C154.287 102.254 155.694 103.649 155.694 105.371C155.694 107.093 154.287 108.488 152.551 108.488H111.7C109.964 108.488 108.557 107.093 108.557 105.371C108.557 103.649 109.964 102.254 111.7 102.254Z" fill="#BA96FF"/>
<path d="M111.7 102.254H152.551C154.287 102.254 155.694 103.649 155.694 105.371C155.694 107.093 154.287 108.488 152.551 108.488H111.7C109.964 108.488 108.557 107.093 108.557 105.371C108.557 103.649 109.964 102.254 111.7 102.254Z" stroke="#BA96FF" stroke-width="2.62963"/>
<path d="M111.7 102.254H152.551C154.287 102.254 155.694 103.649 155.694 105.371C155.694 107.093 154.287 108.488 152.551 108.488H111.7C109.964 108.488 108.557 107.093 108.557 105.371C108.557 103.649 109.964 102.254 111.7 102.254Z" stroke="black" stroke-opacity="0.2" stroke-width="2.62963"/>
<path d="M251.547 138.621H160.936C158.139 138.621 155.873 140.87 155.873 143.644V164.737C155.873 167.511 158.139 169.759 160.936 169.759H251.547C254.343 169.759 256.61 167.511 256.61 164.737V143.644C256.61 140.87 254.343 138.621 251.547 138.621Z" fill="#F1668F"/>
<path d="M251.547 138.621H160.936C158.139 138.621 155.873 140.87 155.873 143.644V164.737C155.873 167.511 158.139 169.759 160.936 169.759H251.547C254.343 169.759 256.61 167.511 256.61 164.737V143.644C256.61 140.87 254.343 138.621 251.547 138.621Z" stroke="#F1668F" stroke-width="2.62963"/>
<path d="M251.547 138.621H160.936C158.139 138.621 155.873 140.87 155.873 143.644V164.737C155.873 167.511 158.139 169.759 160.936 169.759H251.547C254.343 169.759 256.61 167.511 256.61 164.737V143.644C256.61 140.87 254.343 138.621 251.547 138.621Z" stroke="black" stroke-opacity="0.2" stroke-width="2.62963"/>
<path d="M51.9937 33.1553V138.101" stroke="#323434" stroke-width="0.940742"/>
<path d="M100.701 61.7288H52.5178" stroke="#323434" stroke-width="0.940742"/>
<path d="M158.312 105.37H206.496" stroke="#323434" stroke-width="0.940742"/>
<path d="M206.496 61.7291L201.259 58.7295V64.7286L206.496 61.7291ZM201.782 61.2095H155.17V62.2486H201.782V61.2095Z" fill="#323434"/>
<path d="M52.5178 105.369L57.7546 102.37V108.37L52.5178 105.369ZM57.2304 104.851H103.844V105.889H57.2304V104.851Z" fill="#323434"/>
<path d="M207.02 33.1553V138.101" stroke="#323434" stroke-width="0.940742"/>
</svg>
