<svg width="1418" height="422" viewBox="0 0 1418 422" fill="none" xmlns="http://www.w3.org/2000/svg">
<path d="M221.406 394.262C423.472 394.262 424.249 227.988 625.537 227.988L673.405 228.096" stroke="url(#paint0_linear_4_961)" stroke-width="2"/>
<path d="M435.029 297.686C437.588 297.686 439.659 299.758 439.659 302.317C439.659 304.876 437.588 306.947 435.029 306.947C432.47 306.947 430.398 304.876 430.398 302.317C430.398 299.758 432.47 297.686 435.029 297.686Z" fill="url(#paint1_linear_4_961)"/>
<path d="M178.039 282.58C178.039 282.58 178.039 282.58 221.406 282.58C423.472 282.58 423.883 214.629 625.539 214.629L692.622 214.268" stroke="url(#paint2_linear_4_961)" stroke-width="2"/>
<path d="M178.039 135.717C178.039 135.717 178.039 135.717 221.406 135.717C423.472 135.717 423.883 203.668 625.539 203.668L678.562 203.776" stroke="url(#paint3_linear_4_961)" stroke-width="2"/>
<path d="M221.406 24.2197C423.472 24.2197 424.249 190.493 625.538 190.493L679.499 190.601" stroke="url(#paint4_linear_4_961)" stroke-width="2"/>
<g style="mix-blend-mode:plus-darker">
<path d="M1197.58 394.261C995.515 394.261 994.737 227.987 793.449 227.987L733.864 227.626" stroke="#EAE9FF" stroke-width="2"/>
</g>
<g style="mix-blend-mode:plus-darker">
<path d="M1240.95 282.58C1240.95 282.58 1240.95 282.58 1197.58 282.58C995.516 282.58 995.104 214.628 793.449 214.628L732.927 214.268" stroke="#EAE9FF" stroke-width="2"/>
</g>
<g style="mix-blend-mode:plus-darker">
<path d="M1240.95 135.717C1240.95 135.717 1240.95 135.717 1197.58 135.717C995.515 135.717 995.104 203.668 793.448 203.668L729.177 203.308" stroke="#EAE9FF" stroke-width="2"/>
</g>
<g style="mix-blend-mode:plus-darker">
<path d="M1197.58 24.2191C995.515 24.2191 994.738 190.493 793.449 190.493L728.24 190.132" stroke="#EAE9FF" stroke-width="2"/>
</g>
<path d="M500.024 220.099C502.583 220.099 504.655 222.17 504.655 224.729C504.655 227.288 502.583 229.36 500.024 229.36C497.465 229.36 495.394 227.288 495.394 224.729C495.394 222.17 497.465 220.099 500.024 220.099Z" fill="url(#paint5_linear_4_961)"/>
<path d="M314.774 136.393C317.333 136.393 319.404 138.465 319.404 141.024C319.404 143.583 317.333 145.654 314.774 145.654C312.215 145.654 310.143 143.583 310.143 141.024C310.143 138.465 312.215 136.393 314.774 136.393Z" fill="url(#paint6_linear_4_961)"/>
<path d="M430.175 107.733C432.734 107.733 434.805 109.805 434.805 112.364C434.805 114.923 432.734 116.994 430.175 116.994C427.616 116.994 425.544 114.923 425.544 112.364C425.544 109.805 427.616 107.733 430.175 107.733Z" fill="url(#paint7_linear_4_961)"/>
<g filter="url(#filter0_b_4_961)">
<path d="M704.5 103.951C707.594 102.165 711.406 102.165 714.5 103.951L798.464 152.428C801.558 154.214 803.464 157.515 803.464 161.088V258.041C803.464 261.614 801.558 264.915 798.464 266.701L714.5 315.178C711.406 316.964 707.594 316.964 704.5 315.178L620.536 266.701C617.442 264.915 615.536 261.614 615.536 258.041V161.088C615.536 157.515 617.442 154.214 620.536 152.428L704.5 103.951Z" fill="white"/>
</g>
<g filter="url(#filter1_i_4_961)">
<path d="M707 135.508C708.547 134.615 710.453 134.615 712 135.508L772.385 170.371C773.932 171.264 774.885 172.915 774.885 174.701V244.428C774.885 246.214 773.932 247.865 772.385 248.758L712 283.621C710.453 284.514 708.547 284.514 707 283.621L646.615 248.758C645.068 247.865 644.115 246.214 644.115 244.428V174.701C644.115 172.915 645.068 171.264 646.615 170.371L707 135.508Z" fill="url(#paint8_linear_4_961)"/>
</g>
<path d="M707.479 136.338C708.73 135.616 710.27 135.616 711.521 136.338L771.906 171.201C773.156 171.923 773.927 173.257 773.927 174.701V244.428C773.927 245.872 773.156 247.206 771.906 247.928L711.521 282.791C710.27 283.513 708.73 283.513 707.479 282.791L647.094 247.928C645.844 247.206 645.074 245.872 645.074 244.428V174.701C645.074 173.257 645.844 171.923 647.094 171.201L707.479 136.338Z" stroke="url(#paint9_linear_4_961)" stroke-opacity="0.11" stroke-width="1.91667"/>
<g filter="url(#filter2_f_4_961)">
<g filter="url(#filter3_i_4_961)">
<path fill-rule="evenodd" clip-rule="evenodd" d="M711.839 257.665C735.571 256.244 752.638 236.543 751.982 213.767C750.993 189.138 730.544 171.622 707.577 172.611C683.621 173.699 665.573 193.958 666.994 217.93C668.307 241.03 688.648 259.086 711.839 257.665ZM727.918 220.776C727.918 220.779 727.918 220.782 727.917 220.784C725.765 231.342 719.685 238.825 709.795 243.541C709.684 243.594 709.719 243.796 709.837 243.83C709.92 243.855 709.995 243.872 710.086 243.872C726.821 243.872 740.166 228.549 737.981 211.69C736.227 198.004 724.968 187.277 711.623 186.512C696.201 185.64 683.189 196.143 680.995 211.69C680.231 217.166 681.103 222.309 684.934 226.464C689.745 231.715 695.761 233.577 702.649 231.391C709.646 229.206 713.584 224.054 714.465 216.833C714.573 215.304 715.122 215.188 716.326 215.188H723.323C727.111 215.188 728.642 217.048 727.919 220.768C727.918 220.77 727.918 220.773 727.918 220.776Z" fill="url(#paint10_linear_4_961)"/>
</g>
<path d="M711.782 256.709L711.781 256.709C689.117 258.097 669.233 240.444 667.951 217.876L667.951 217.873C666.561 194.428 684.204 174.633 707.619 173.568C730.069 172.602 750.054 189.72 751.024 213.8C751.663 236.071 734.98 255.32 711.782 256.709ZM708.783 243.84C708.828 244.13 709.035 244.594 709.565 244.749C709.694 244.788 709.867 244.83 710.086 244.83C727.411 244.83 741.189 228.988 738.931 211.567C737.121 197.444 725.503 186.348 711.678 185.556L711.677 185.556C695.761 184.655 682.31 195.513 680.046 211.556L680.046 211.557C679.256 217.218 680.145 222.683 684.228 227.113C686.731 229.844 689.584 231.732 692.749 232.638C695.918 233.544 699.337 233.447 702.937 232.305C706.596 231.162 709.498 229.227 711.599 226.599C713.698 223.973 714.958 220.704 715.416 216.949L715.419 216.925L715.421 216.901C715.455 216.419 715.531 216.252 715.557 216.209C715.575 216.202 715.615 216.189 715.69 216.177C715.833 216.155 716.028 216.146 716.326 216.146H723.323C725.094 216.146 726.072 216.584 726.573 217.192C727.074 217.8 727.317 218.845 726.978 220.585L726.978 220.585C726.975 220.601 726.972 220.617 726.97 220.633C724.874 230.859 719.003 238.088 709.383 242.676C708.795 242.957 708.738 243.552 708.783 243.84ZM715.566 216.196C715.566 216.196 715.565 216.198 715.562 216.2C715.565 216.197 715.566 216.196 715.566 216.196ZM726.978 220.593L726.978 220.593L726.978 220.593Z" stroke="url(#paint11_linear_4_961)" stroke-opacity="0.11" stroke-width="1.91667" style="mix-blend-mode:plus-lighter"/>
</g>
<path fill-rule="evenodd" clip-rule="evenodd" d="M711.839 251.29C735.571 249.869 752.638 230.167 751.982 207.392C750.993 182.763 730.544 165.247 707.577 166.235C683.621 167.324 665.573 187.582 666.994 211.555C668.307 234.655 688.648 252.711 711.839 251.29ZM727.918 214.4C727.918 214.403 727.918 214.406 727.917 214.409C725.765 224.967 719.685 232.449 709.795 237.166C709.684 237.219 709.719 237.421 709.837 237.455C709.92 237.48 709.995 237.496 710.086 237.496C726.821 237.496 740.166 222.174 737.981 205.314C736.227 191.629 724.968 180.901 711.623 180.137C696.201 179.264 683.189 189.767 680.995 205.314C680.231 210.79 681.103 215.934 684.934 220.088C689.745 225.34 695.761 227.201 702.649 225.016C709.646 222.83 713.584 217.679 714.465 210.458C714.573 208.929 715.122 208.812 716.326 208.812H723.323C727.111 208.812 728.642 210.672 727.919 214.392C727.918 214.395 727.918 214.398 727.918 214.4Z" fill="url(#paint12_linear_4_961)"/>
<rect x="29.23" y="0.303711" width="196.005" height="50.2582" rx="25.1291" fill="#6762FE" fill-opacity="0.14"/>
<path d="M57.6578 32.9329V17.5329H62.3878C64.1771 17.5329 65.6584 17.8482 66.8318 18.4789C68.0051 19.1095 68.8704 20.0042 69.4278 21.1629C69.9998 22.3069 70.2858 23.6709 70.2858 25.2549C70.2858 26.8389 69.9998 28.2029 69.4278 29.3469C68.8704 30.4909 68.0051 31.3782 66.8318 32.0089C65.6731 32.6249 64.1918 32.9329 62.3878 32.9329H57.6578ZM59.8578 31.0849H62.2998C63.7224 31.0849 64.8518 30.8502 65.6878 30.3809C66.5238 29.9115 67.1178 29.2442 67.4698 28.3789C67.8364 27.4989 68.0198 26.4575 68.0198 25.2549C68.0198 24.0375 67.8364 22.9889 67.4698 22.1089C67.1178 21.2289 66.5238 20.5542 65.6878 20.0849C64.8518 19.6155 63.7224 19.3809 62.2998 19.3809H59.8578V31.0849ZM72.9771 32.9329V21.8449H75.1771V32.9329H72.9771ZM74.0991 19.7549C73.6738 19.7549 73.3218 19.6229 73.0431 19.3589C72.7791 19.0949 72.6471 18.7575 72.6471 18.3469C72.6471 17.9509 72.7791 17.6282 73.0431 17.3789C73.3218 17.1149 73.6738 16.9829 74.0991 16.9829C74.5098 16.9829 74.8545 17.1149 75.1331 17.3789C75.4118 17.6282 75.5511 17.9509 75.5511 18.3469C75.5511 18.7575 75.4118 19.0949 75.1331 19.3589C74.8545 19.6229 74.5098 19.7549 74.0991 19.7549ZM82.6131 33.1969C81.6745 33.1969 80.8531 33.0429 80.1491 32.7349C79.4451 32.4269 78.8878 31.9942 78.4771 31.4369C78.0665 30.8795 77.8171 30.2269 77.7291 29.4789H79.9731C80.0465 29.8309 80.1858 30.1535 80.3911 30.4469C80.6111 30.7402 80.9045 30.9749 81.2711 31.1509C81.6525 31.3269 82.0998 31.4149 82.6131 31.4149C83.0971 31.4149 83.4931 31.3489 83.8011 31.2169C84.1238 31.0702 84.3585 30.8795 84.5051 30.6449C84.6518 30.3955 84.7251 30.1315 84.7251 29.8529C84.7251 29.4422 84.6225 29.1342 84.4171 28.9289C84.2265 28.7089 83.9331 28.5402 83.5371 28.4229C83.1558 28.2909 82.6938 28.1735 82.1511 28.0709C81.6378 27.9829 81.1391 27.8655 80.6551 27.7189C80.1858 27.5575 79.7605 27.3595 79.3791 27.1249C79.0125 26.8902 78.7191 26.5969 78.4991 26.2449C78.2791 25.8782 78.1691 25.4309 78.1691 24.9029C78.1691 24.2722 78.3378 23.7075 78.6751 23.2089C79.0125 22.6955 79.4891 22.2995 80.1051 22.0209C80.7358 21.7275 81.4765 21.5809 82.3271 21.5809C83.5591 21.5809 84.5491 21.8742 85.2971 22.4609C86.0451 23.0475 86.4851 23.8762 86.6171 24.9469H84.4831C84.4245 24.4482 84.2045 24.0669 83.8231 23.8029C83.4418 23.5242 82.9358 23.3849 82.3051 23.3849C81.6745 23.3849 81.1905 23.5095 80.8531 23.7589C80.5158 24.0082 80.3471 24.3382 80.3471 24.7489C80.3471 25.0129 80.4425 25.2475 80.6331 25.4529C80.8238 25.6582 81.1025 25.8342 81.4691 25.9809C81.8505 26.1129 82.3125 26.2375 82.8551 26.3549C83.6325 26.5015 84.3291 26.6849 84.9451 26.9049C85.5611 27.1249 86.0525 27.4475 86.4191 27.8729C86.7858 28.2982 86.9691 28.9069 86.9691 29.6989C86.9838 30.3882 86.8078 30.9969 86.4411 31.5249C86.0891 32.0529 85.5831 32.4635 84.9231 32.7569C84.2778 33.0502 83.5078 33.1969 82.6131 33.1969ZM94.6855 33.1969C93.6148 33.1969 92.6615 32.9549 91.8255 32.4709C90.9895 31.9722 90.3295 31.2902 89.8455 30.4249C89.3761 29.5595 89.1415 28.5549 89.1415 27.4109C89.1415 26.2522 89.3761 25.2402 89.8455 24.3749C90.3295 23.4949 90.9895 22.8129 91.8255 22.3289C92.6615 21.8302 93.6148 21.5809 94.6855 21.5809C96.0348 21.5809 97.1641 21.9329 98.0735 22.6369C98.9828 23.3409 99.5621 24.2942 99.8115 25.4969H97.5235C97.3768 24.8515 97.0395 24.3529 96.5115 24.0009C95.9981 23.6489 95.3821 23.4729 94.6635 23.4729C94.0768 23.4729 93.5341 23.6269 93.0355 23.9349C92.5368 24.2282 92.1335 24.6682 91.8255 25.2549C91.5321 25.8269 91.3855 26.5382 91.3855 27.3889C91.3855 28.0195 91.4735 28.5842 91.6495 29.0829C91.8255 29.5669 92.0601 29.9775 92.3535 30.3149C92.6615 30.6522 93.0135 30.9089 93.4095 31.0849C93.8055 31.2462 94.2235 31.3269 94.6635 31.3269C95.1475 31.3269 95.5801 31.2535 95.9615 31.1069C96.3575 30.9455 96.6875 30.7109 96.9515 30.4029C97.2301 30.0949 97.4208 29.7282 97.5235 29.3029H99.8115C99.5621 30.4762 98.9828 31.4222 98.0735 32.1409C97.1641 32.8449 96.0348 33.1969 94.6855 33.1969ZM107.446 33.1969C106.404 33.1969 105.466 32.9549 104.63 32.4709C103.808 31.9869 103.156 31.3122 102.672 30.4469C102.202 29.5669 101.968 28.5549 101.968 27.4109C101.968 26.2375 102.21 25.2182 102.694 24.3529C103.178 23.4729 103.838 22.7909 104.674 22.3069C105.51 21.8229 106.448 21.5809 107.49 21.5809C108.546 21.5809 109.484 21.8229 110.306 22.3069C111.127 22.7909 111.772 23.4655 112.242 24.3309C112.726 25.1962 112.968 26.2155 112.968 27.3889C112.968 28.5622 112.726 29.5815 112.242 30.4469C111.772 31.3122 111.12 31.9869 110.284 32.4709C109.448 32.9549 108.502 33.1969 107.446 33.1969ZM107.446 31.3049C108.047 31.3049 108.59 31.1582 109.074 30.8649C109.572 30.5715 109.968 30.1389 110.262 29.5669C110.57 28.9802 110.724 28.2542 110.724 27.3889C110.724 26.5235 110.577 25.8049 110.284 25.2329C109.99 24.6462 109.594 24.2062 109.096 23.9129C108.612 23.6195 108.076 23.4729 107.49 23.4729C106.903 23.4729 106.36 23.6195 105.862 23.9129C105.363 24.2062 104.96 24.6462 104.652 25.2329C104.358 25.8049 104.212 26.5235 104.212 27.3889C104.212 28.2542 104.358 28.9802 104.652 29.5669C104.96 30.1389 105.356 30.5715 105.84 30.8649C106.338 31.1582 106.874 31.3049 107.446 31.3049ZM118.164 32.9329L114.006 21.8449H116.316L119.462 30.8209L122.63 21.8449H124.896L120.76 32.9329H118.164ZM131.357 33.1969C130.301 33.1969 129.362 32.9549 128.541 32.4709C127.719 31.9869 127.074 31.3122 126.605 30.4469C126.15 29.5815 125.923 28.5769 125.923 27.4329C125.923 26.2595 126.15 25.2402 126.605 24.3749C127.074 23.4949 127.719 22.8129 128.541 22.3289C129.362 21.8302 130.315 21.5809 131.401 21.5809C132.486 21.5809 133.417 21.8229 134.195 22.3069C134.972 22.7909 135.573 23.4362 135.999 24.2429C136.424 25.0349 136.637 25.9149 136.637 26.8829C136.637 27.0295 136.629 27.1909 136.615 27.3669C136.615 27.5282 136.607 27.7115 136.593 27.9169H127.529V26.3549H134.437C134.393 25.4309 134.085 24.7122 133.513 24.1989C132.941 23.6709 132.229 23.4069 131.379 23.4069C130.777 23.4069 130.227 23.5462 129.729 23.8249C129.23 24.0889 128.827 24.4849 128.519 25.0129C128.225 25.5262 128.079 26.1789 128.079 26.9709V27.5869C128.079 28.4082 128.225 29.1049 128.519 29.6769C128.827 30.2342 129.23 30.6595 129.729 30.9529C130.227 31.2315 130.77 31.3709 131.357 31.3709C132.061 31.3709 132.64 31.2169 133.095 30.9089C133.549 30.6009 133.887 30.1829 134.107 29.6549H136.307C136.116 30.3295 135.793 30.9382 135.339 31.4809C134.884 32.0089 134.319 32.4269 133.645 32.7349C132.985 33.0429 132.222 33.1969 131.357 33.1969ZM139.081 32.9329V21.8449H141.061L141.259 23.9349C141.508 23.4362 141.831 23.0182 142.227 22.6809C142.623 22.3289 143.085 22.0575 143.613 21.8669C144.156 21.6762 144.772 21.5809 145.461 21.5809V23.9129H144.669C144.214 23.9129 143.782 23.9715 143.371 24.0889C142.96 24.1915 142.594 24.3749 142.271 24.6389C141.963 24.9029 141.721 25.2622 141.545 25.7169C141.369 26.1715 141.281 26.7362 141.281 27.4109V32.9329H139.081ZM148.757 37.7729L151.463 31.7009H150.825L146.447 21.8449H148.823L152.299 29.8969L155.797 21.8449H158.107L151.067 37.7729H148.757Z" fill="#6762FE"/>
<path d="M196.813 33.7461L193.72 30.653C192.879 31.8773 191.819 32.9366 190.595 33.7783L193.688 36.8714C194.103 37.2845 194.665 37.5165 195.251 37.5165C195.836 37.5165 196.398 37.2845 196.813 36.8714C197.232 36.4525 197.458 35.8967 197.458 35.3087C197.458 34.7207 197.224 34.1649 196.813 33.7461ZM183.764 17.3785C180.212 17.3785 177.321 20.2702 177.321 23.8225C177.321 27.3747 180.212 30.2664 183.764 30.2664C187.317 30.2664 190.208 27.3747 190.208 23.8225C190.208 20.2702 187.317 17.3785 183.764 17.3785ZM186.745 22.8881L183.676 25.9087C183.523 26.0617 183.313 26.1423 183.112 26.1423C182.911 26.1423 182.701 26.0617 182.548 25.9087L180.784 24.1769C180.632 24.0273 180.546 23.8237 180.545 23.6107C180.543 23.3977 180.627 23.1928 180.776 23.0411C180.926 22.8895 181.129 22.8034 181.342 22.8019C181.555 22.8004 181.76 22.8835 181.912 23.0331L183.112 24.2091L185.617 21.7443C185.692 21.6701 185.781 21.6115 185.879 21.5718C185.977 21.5321 186.081 21.512 186.187 21.5127C186.292 21.5135 186.396 21.535 186.494 21.5762C186.591 21.6173 186.679 21.6771 186.753 21.7523C187.067 22.0665 187.059 22.582 186.745 22.8881Z" fill="#6762FE"/>
<path d="M194.233 23.8257C194.233 18.0504 189.537 13.3544 183.762 13.3544C177.986 13.3544 173.29 18.0504 173.29 23.8257C173.29 29.6011 177.986 34.2971 183.762 34.2971C189.537 34.2971 194.233 29.6011 194.233 23.8257ZM183.762 31.8806C179.324 31.8806 175.707 28.264 175.707 23.8257C175.707 19.3875 179.324 15.7708 183.762 15.7708C188.2 15.7708 191.817 19.3875 191.817 23.8257C191.817 28.264 188.2 31.8806 183.762 31.8806Z" fill="#6762FE"/>
<rect x="1197.1" y="0.303711" width="197.005" height="50.2582" rx="25.1291" fill="#6762FE" fill-opacity="0.14"/>
<path fill-rule="evenodd" clip-rule="evenodd" d="M1236.48 14.2906C1236.68 14.1339 1236.93 14.0488 1237.18 14.0488C1237.44 14.0488 1237.68 14.1339 1237.88 14.2906L1239.77 15.7676L1242.15 15.434C1242.4 15.3986 1242.66 15.4484 1242.88 15.5753C1243.1 15.7022 1243.27 15.899 1243.36 16.1343L1244.26 18.3585L1246.48 19.2571C1246.72 19.3522 1246.92 19.5233 1247.04 19.7433C1247.17 19.9633 1247.22 20.2195 1247.19 20.4711L1246.85 22.8467L1248.33 24.7372C1248.48 24.9373 1248.57 25.1838 1248.57 25.4376C1248.57 25.6914 1248.48 25.9379 1248.33 26.138L1246.85 28.0285L1247.19 30.4041C1247.22 30.6557 1247.17 30.9119 1247.04 31.1319C1246.92 31.3519 1246.72 31.523 1246.48 31.6181L1244.26 32.5167L1243.36 34.7409C1243.27 34.9765 1243.1 35.1735 1242.88 35.3006C1242.66 35.4277 1242.4 35.4776 1242.15 35.4424L1239.77 35.1076L1237.88 36.5847C1237.68 36.7407 1237.44 36.8255 1237.18 36.8255C1236.93 36.8255 1236.68 36.7407 1236.48 36.5847L1234.59 35.1076L1232.21 35.4424C1231.96 35.4776 1231.71 35.4277 1231.49 35.3006C1231.27 35.1735 1231.1 34.9765 1231 34.7409L1230.1 32.5167L1227.88 31.6181C1227.64 31.5228 1227.45 31.3516 1227.32 31.1316C1227.19 30.9117 1227.14 30.6556 1227.18 30.4041L1227.51 28.0285L1226.03 26.138C1225.88 25.9379 1225.79 25.6914 1225.79 25.4376C1225.79 25.1838 1225.88 24.9373 1226.03 24.7372L1227.51 22.8467L1227.18 20.4711C1227.14 20.2196 1227.19 19.9635 1227.32 19.7436C1227.45 19.5236 1227.64 19.3524 1227.88 19.2571L1230.1 18.3585L1231 16.1343C1231.1 15.899 1231.27 15.7022 1231.49 15.5753C1231.71 15.4484 1231.96 15.3986 1232.21 15.434L1234.59 15.7676L1236.48 14.2906ZM1241.4 23.9651C1241.61 23.7503 1241.73 23.4626 1241.72 23.164C1241.72 22.8654 1241.6 22.5798 1241.39 22.3686C1241.18 22.1575 1240.89 22.0377 1240.59 22.0351C1240.3 22.0325 1240.01 22.1473 1239.79 22.3547L1236.04 26.105L1234.57 24.6324C1234.36 24.425 1234.07 24.3102 1233.77 24.3128C1233.47 24.3154 1233.18 24.4352 1232.97 24.6463C1232.76 24.8575 1232.64 25.1431 1232.64 25.4417C1232.64 25.7403 1232.75 26.028 1232.96 26.2428L1235.24 28.5205C1235.45 28.734 1235.74 28.8539 1236.04 28.8539C1236.34 28.8539 1236.63 28.734 1236.85 28.5205L1241.4 23.9651Z" fill="#6762FE"/>
<path d="M1270.13 32.9329L1264.41 17.5329H1266.79L1271.45 30.6449L1276.16 17.5329H1278.49L1272.77 32.9329H1270.13ZM1282.81 33.1969C1281.9 33.1969 1281.14 33.0429 1280.54 32.7349C1279.94 32.4269 1279.49 32.0162 1279.2 31.5029C1278.91 30.9749 1278.76 30.4102 1278.76 29.8089C1278.76 29.0755 1278.95 28.4522 1279.33 27.9389C1279.71 27.4109 1280.25 27.0075 1280.96 26.7289C1281.66 26.4502 1282.51 26.3109 1283.49 26.3109H1286.37C1286.37 25.6655 1286.28 25.1302 1286.08 24.7049C1285.89 24.2795 1285.61 23.9642 1285.23 23.7589C1284.86 23.5389 1284.39 23.4289 1283.82 23.4289C1283.16 23.4289 1282.59 23.5902 1282.12 23.9129C1281.66 24.2209 1281.36 24.6829 1281.24 25.2989H1279.04C1279.13 24.5215 1279.4 23.8615 1279.84 23.3189C1280.29 22.7615 1280.87 22.3362 1281.57 22.0429C1282.28 21.7349 1283.03 21.5809 1283.82 21.5809C1284.86 21.5809 1285.73 21.7642 1286.44 22.1309C1287.14 22.4975 1287.67 23.0182 1288.02 23.6929C1288.39 24.3529 1288.57 25.1449 1288.57 26.0689V32.9329H1286.66L1286.48 31.0629C1286.32 31.3562 1286.13 31.6349 1285.91 31.8989C1285.69 32.1629 1285.42 32.3902 1285.12 32.5809C1284.82 32.7715 1284.48 32.9182 1284.08 33.0209C1283.7 33.1382 1283.28 33.1969 1282.81 33.1969ZM1283.22 31.4149C1283.69 31.4149 1284.12 31.3195 1284.5 31.1289C1284.88 30.9382 1285.2 30.6815 1285.47 30.3589C1285.75 30.0215 1285.95 29.6475 1286.08 29.2369C1286.23 28.8115 1286.31 28.3789 1286.33 27.9389V27.8729H1283.71C1283.08 27.8729 1282.56 27.9535 1282.17 28.1149C1281.79 28.2615 1281.51 28.4669 1281.33 28.7309C1281.16 28.9949 1281.07 29.3029 1281.07 29.6549C1281.07 30.0215 1281.15 30.3369 1281.31 30.6009C1281.49 30.8502 1281.74 31.0482 1282.06 31.1949C1282.38 31.3415 1282.77 31.4149 1283.22 31.4149ZM1291.38 32.9329V17.0929H1293.58V32.9329H1291.38ZM1296.75 32.9329V21.8449H1298.95V32.9329H1296.75ZM1297.88 19.7549C1297.45 19.7549 1297.1 19.6229 1296.82 19.3589C1296.56 19.0949 1296.42 18.7575 1296.42 18.3469C1296.42 17.9509 1296.56 17.6282 1296.82 17.3789C1297.1 17.1149 1297.45 16.9829 1297.88 16.9829C1298.29 16.9829 1298.63 17.1149 1298.91 17.3789C1299.19 17.6282 1299.33 17.9509 1299.33 18.3469C1299.33 18.7575 1299.19 19.0949 1298.91 19.3589C1298.63 19.6229 1298.29 19.7549 1297.88 19.7549ZM1307.03 33.1969C1305.97 33.1969 1305.04 32.9475 1304.23 32.4489C1303.43 31.9355 1302.8 31.2462 1302.34 30.3809C1301.9 29.5009 1301.68 28.5035 1301.68 27.3889C1301.68 26.2595 1301.9 25.2622 1302.34 24.3969C1302.8 23.5315 1303.43 22.8495 1304.23 22.3509C1305.05 21.8375 1305.99 21.5809 1307.05 21.5809C1307.91 21.5809 1308.68 21.7569 1309.34 22.1089C1310 22.4462 1310.51 22.9302 1310.88 23.5609V17.0929H1313.08V32.9329H1311.1L1310.88 31.2169C1310.66 31.5542 1310.37 31.8769 1310.02 32.1849C1309.67 32.4782 1309.24 32.7202 1308.74 32.9109C1308.24 33.1015 1307.67 33.1969 1307.03 33.1969ZM1307.38 31.2829C1308.07 31.2829 1308.68 31.1215 1309.21 30.7989C1309.73 30.4762 1310.14 30.0215 1310.42 29.4349C1310.71 28.8482 1310.86 28.1662 1310.86 27.3889C1310.86 26.6115 1310.71 25.9369 1310.42 25.3649C1310.14 24.7782 1309.73 24.3235 1309.21 24.0009C1308.68 23.6635 1308.07 23.4949 1307.38 23.4949C1306.72 23.4949 1306.13 23.6635 1305.6 24.0009C1305.07 24.3235 1304.66 24.7782 1304.37 25.3649C1304.07 25.9369 1303.93 26.6115 1303.93 27.3889C1303.93 28.1662 1304.07 28.8482 1304.37 29.4349C1304.66 30.0215 1305.07 30.4762 1305.6 30.7989C1306.13 31.1215 1306.72 31.2829 1307.38 31.2829ZM1319.76 33.1969C1318.85 33.1969 1318.1 33.0429 1317.49 32.7349C1316.89 32.4269 1316.45 32.0162 1316.15 31.5029C1315.86 30.9749 1315.71 30.4102 1315.71 29.8089C1315.71 29.0755 1315.9 28.4522 1316.28 27.9389C1316.67 27.4109 1317.21 27.0075 1317.91 26.7289C1318.62 26.4502 1319.46 26.3109 1320.44 26.3109H1323.32C1323.32 25.6655 1323.23 25.1302 1323.04 24.7049C1322.85 24.2795 1322.56 23.9642 1322.18 23.7589C1321.81 23.5389 1321.34 23.4289 1320.77 23.4289C1320.11 23.4289 1319.55 23.5902 1319.08 23.9129C1318.61 24.2209 1318.32 24.6829 1318.2 25.2989H1316C1316.09 24.5215 1316.35 23.8615 1316.79 23.3189C1317.24 22.7615 1317.82 22.3362 1318.53 22.0429C1319.23 21.7349 1319.98 21.5809 1320.77 21.5809C1321.81 21.5809 1322.69 21.7642 1323.39 22.1309C1324.09 22.4975 1324.62 23.0182 1324.97 23.6929C1325.34 24.3529 1325.52 25.1449 1325.52 26.0689V32.9329H1323.61L1323.43 31.0629C1323.27 31.3562 1323.08 31.6349 1322.86 31.8989C1322.64 32.1629 1322.38 32.3902 1322.07 32.5809C1321.78 32.7715 1321.43 32.9182 1321.04 33.0209C1320.65 33.1382 1320.23 33.1969 1319.76 33.1969ZM1320.18 31.4149C1320.65 31.4149 1321.07 31.3195 1321.45 31.1289C1321.84 30.9382 1322.16 30.6815 1322.42 30.3589C1322.7 30.0215 1322.91 29.6475 1323.04 29.2369C1323.18 28.8115 1323.27 28.3789 1323.28 27.9389V27.8729H1320.66C1320.03 27.8729 1319.52 27.9535 1319.12 28.1149C1318.74 28.2615 1318.46 28.4669 1318.29 28.7309C1318.11 28.9949 1318.02 29.3029 1318.02 29.6549C1318.02 30.0215 1318.1 30.3369 1318.26 30.6009C1318.44 30.8502 1318.69 31.0482 1319.01 31.1949C1319.33 31.3415 1319.72 31.4149 1320.18 31.4149ZM1332.67 32.9329C1331.97 32.9329 1331.36 32.8229 1330.85 32.6029C1330.33 32.3829 1329.94 32.0162 1329.66 31.5029C1329.38 30.9895 1329.24 30.2929 1329.24 29.4129V23.7149H1327.33V21.8449H1329.24L1329.5 19.0729H1331.44V21.8449H1334.59V23.7149H1331.44V29.4349C1331.44 30.0655 1331.57 30.4982 1331.84 30.7329C1332.1 30.9529 1332.55 31.0629 1333.2 31.0629H1334.48V32.9329H1332.67ZM1337.17 32.9329V21.8449H1339.37V32.9329H1337.17ZM1338.29 19.7549C1337.86 19.7549 1337.51 19.6229 1337.23 19.3589C1336.97 19.0949 1336.84 18.7575 1336.84 18.3469C1336.84 17.9509 1336.97 17.6282 1337.23 17.3789C1337.51 17.1149 1337.86 16.9829 1338.29 16.9829C1338.7 16.9829 1339.04 17.1149 1339.32 17.3789C1339.6 17.6282 1339.74 17.9509 1339.74 18.3469C1339.74 18.7575 1339.6 19.0949 1339.32 19.3589C1339.04 19.6229 1338.7 19.7549 1338.29 19.7549ZM1347.57 33.1969C1346.53 33.1969 1345.59 32.9549 1344.76 32.4709C1343.93 31.9869 1343.28 31.3122 1342.8 30.4469C1342.33 29.5669 1342.09 28.5549 1342.09 27.4109C1342.09 26.2375 1342.34 25.2182 1342.82 24.3529C1343.3 23.4729 1343.96 22.7909 1344.8 22.3069C1345.64 21.8229 1346.57 21.5809 1347.62 21.5809C1348.67 21.5809 1349.61 21.8229 1350.43 22.3069C1351.25 22.7909 1351.9 23.4655 1352.37 24.3309C1352.85 25.1962 1353.09 26.2155 1353.09 27.3889C1353.09 28.5622 1352.85 29.5815 1352.37 30.4469C1351.9 31.3122 1351.25 31.9869 1350.41 32.4709C1349.57 32.9549 1348.63 33.1969 1347.57 33.1969ZM1347.57 31.3049C1348.17 31.3049 1348.72 31.1582 1349.2 30.8649C1349.7 30.5715 1350.09 30.1389 1350.39 29.5669C1350.7 28.9802 1350.85 28.2542 1350.85 27.3889C1350.85 26.5235 1350.7 25.8049 1350.41 25.2329C1350.12 24.6462 1349.72 24.2062 1349.22 23.9129C1348.74 23.6195 1348.2 23.4729 1347.62 23.4729C1347.03 23.4729 1346.49 23.6195 1345.99 23.9129C1345.49 24.2062 1345.09 24.6462 1344.78 25.2329C1344.48 25.8049 1344.34 26.5235 1344.34 27.3889C1344.34 28.2542 1344.48 28.9802 1344.78 29.5669C1345.09 30.1389 1345.48 30.5715 1345.97 30.8649C1346.46 31.1582 1347 31.3049 1347.57 31.3049ZM1355.68 32.9329V21.8449H1357.66L1357.79 23.7369C1358.15 23.0769 1358.64 22.5562 1359.29 22.1749C1359.93 21.7789 1360.68 21.5809 1361.51 21.5809C1362.39 21.5809 1363.15 21.7569 1363.78 22.1089C1364.41 22.4609 1364.9 22.9962 1365.25 23.7149C1365.6 24.4189 1365.78 25.3062 1365.78 26.3769V32.9329H1363.58V26.5969C1363.58 25.5702 1363.35 24.7929 1362.9 24.2649C1362.44 23.7369 1361.78 23.4729 1360.92 23.4729C1360.35 23.4729 1359.83 23.6122 1359.38 23.8909C1358.92 24.1549 1358.56 24.5509 1358.28 25.0789C1358.01 25.6069 1357.88 26.2522 1357.88 27.0149V32.9329H1355.68Z" fill="#6762FE"/>
<rect x="1240.95" y="111.909" width="177.005" height="50.2582" rx="25.1291" fill="#6762FE" fill-opacity="0.14"/>
<g clip-path="url(#clip0_4_961)">
<path d="M1276.1 137.395C1276.11 137.112 1276.03 136.832 1275.88 136.592C1275.73 136.352 1275.51 136.162 1275.25 136.045C1274.99 135.929 1274.7 135.892 1274.42 135.938C1274.14 135.985 1273.88 136.113 1273.68 136.307L1271.25 138.596C1270.98 138.858 1270.81 139.219 1270.8 139.601C1270.79 139.982 1270.93 140.353 1271.19 140.631C1271.46 140.908 1271.82 141.071 1272.2 141.082C1272.58 141.093 1272.95 140.952 1273.23 140.69L1275.65 138.401C1275.79 138.271 1275.9 138.116 1275.98 137.943C1276.05 137.771 1276.1 137.584 1276.1 137.395ZM1287.15 125.161C1286.21 125.132 1285.27 125.29 1284.39 125.624C1283.51 125.959 1282.71 126.464 1282.03 127.11C1271.78 136.791 1281.69 127.427 1277.18 131.69C1276.99 131.867 1276.88 132.109 1276.88 132.365C1276.85 133.409 1278.69 134.227 1279.84 133.131L1283.32 129.846C1283.46 129.72 1283.62 129.622 1283.79 129.556C1283.96 129.491 1284.14 129.46 1284.32 129.465C1284.51 129.471 1284.69 129.512 1284.86 129.587C1285.02 129.662 1285.18 129.77 1285.3 129.903L1292.18 137.192C1296.31 132.755 1293.35 125.343 1287.15 125.161ZM1281.33 142.939C1281.34 142.656 1281.26 142.376 1281.11 142.136C1280.96 141.896 1280.74 141.706 1280.48 141.589C1280.22 141.473 1279.93 141.436 1279.65 141.482C1279.37 141.529 1279.11 141.657 1278.91 141.851L1276.48 144.14C1276.35 144.269 1276.24 144.425 1276.16 144.597C1276.08 144.77 1276.04 144.956 1276.03 145.145C1276.03 145.334 1276.06 145.522 1276.13 145.698C1276.19 145.875 1276.29 146.037 1276.42 146.174C1276.55 146.312 1276.71 146.422 1276.88 146.5C1277.05 146.577 1277.24 146.62 1277.43 146.625C1277.62 146.631 1277.81 146.599 1277.98 146.532C1278.16 146.464 1278.32 146.363 1278.46 146.233L1280.88 143.944C1281.02 143.815 1281.13 143.659 1281.21 143.487C1281.28 143.314 1281.33 143.128 1281.33 142.939Z" fill="#6762FE"/>
<path d="M1291.83 138.186C1291.79 138.153 1291.93 138.292 1284.62 130.544C1284.58 130.499 1284.53 130.463 1284.47 130.438C1284.42 130.413 1284.36 130.399 1284.3 130.398C1284.23 130.396 1284.17 130.406 1284.12 130.428C1284.06 130.45 1284.01 130.483 1283.96 130.525L1280.48 133.809C1280.21 134.066 1279.89 134.267 1279.54 134.4C1279.19 134.533 1278.82 134.596 1278.45 134.585C1278.07 134.574 1277.7 134.49 1277.36 134.336C1277.02 134.183 1276.72 133.964 1276.46 133.691C1276.29 133.511 1276.15 133.298 1276.07 133.066C1275.98 132.833 1275.93 132.585 1275.94 132.337C1275.95 132.088 1276 131.843 1276.11 131.616C1276.21 131.389 1276.35 131.184 1276.53 131.013L1280.35 127.407C1279.71 126.718 1278.94 126.162 1278.08 125.771C1277.22 125.381 1276.29 125.165 1275.35 125.134C1274.41 125.104 1273.47 125.26 1272.58 125.594C1271.7 125.928 1270.9 126.433 1270.21 127.08C1269.52 127.727 1268.97 128.503 1268.59 129.364C1268.2 130.225 1267.99 131.153 1267.96 132.096C1267.94 133.039 1268.1 133.977 1268.44 134.857C1268.78 135.738 1269.29 136.542 1269.94 137.225L1270.6 137.924C1270.64 137.877 1270.6 137.919 1273.03 135.627C1273.4 135.285 1273.86 135.066 1274.35 135.002C1274.85 134.938 1275.35 135.031 1275.79 135.27C1276.23 135.509 1276.58 135.88 1276.79 136.33C1277.01 136.781 1277.08 137.287 1276.99 137.778C1277.35 137.73 1277.73 137.769 1278.08 137.894C1278.43 138.018 1278.75 138.224 1279 138.495C1279.26 138.765 1279.44 139.092 1279.55 139.45C1279.65 139.807 1279.67 140.184 1279.6 140.549C1279.97 140.501 1280.35 140.54 1280.7 140.665C1281.05 140.79 1281.36 140.996 1281.62 141.267C1281.87 141.538 1282.06 141.865 1282.16 142.223C1282.27 142.58 1282.29 142.957 1282.22 143.322C1282.58 143.274 1282.94 143.311 1283.29 143.428C1283.63 143.546 1283.94 143.741 1284.19 144C1284.45 144.258 1284.64 144.572 1284.75 144.917C1284.87 145.262 1284.9 145.628 1284.85 145.987C1285.14 146.161 1285.5 146.221 1285.84 146.157C1286.17 146.092 1286.48 145.908 1286.69 145.637C1286.91 145.366 1287.02 145.027 1287 144.682C1286.99 144.337 1286.85 144.008 1286.61 143.757L1280.4 137.176C1280.36 137.131 1280.33 137.079 1280.3 137.022C1280.28 136.965 1280.27 136.904 1280.27 136.842C1280.28 136.781 1280.29 136.721 1280.31 136.665C1280.34 136.609 1280.38 136.559 1280.42 136.517C1280.51 136.432 1280.63 136.386 1280.75 136.39C1280.81 136.392 1280.87 136.405 1280.93 136.431C1280.99 136.456 1281.04 136.491 1281.08 136.536L1287.29 143.119C1287.55 143.397 1287.91 143.559 1288.3 143.57C1288.68 143.581 1289.05 143.44 1289.33 143.178C1289.6 142.915 1289.77 142.554 1289.78 142.172C1289.79 141.791 1289.65 141.42 1289.38 141.143L1283.17 134.56C1283.09 134.47 1283.04 134.351 1283.05 134.228C1283.05 134.105 1283.11 133.99 1283.2 133.905C1283.28 133.821 1283.4 133.776 1283.53 133.778C1283.65 133.781 1283.76 133.832 1283.85 133.921L1290.06 140.503C1290.26 140.71 1290.51 140.854 1290.79 140.918C1291.07 140.981 1291.36 140.96 1291.62 140.859C1291.89 140.757 1292.12 140.579 1292.28 140.347C1292.45 140.114 1292.54 139.838 1292.55 139.554C1292.54 139.287 1292.47 139.026 1292.34 138.789C1292.22 138.553 1292.05 138.347 1291.83 138.186Z" fill="#6762FE"/>
<path d="M1282.55 144.249C1282.36 144.243 1282.17 144.275 1281.99 144.342C1281.82 144.41 1281.65 144.512 1281.52 144.642L1279.09 146.942C1278.82 147.205 1278.65 147.568 1278.64 147.951C1278.63 148.335 1278.77 148.707 1279.03 148.985C1279.3 149.264 1279.66 149.427 1280.04 149.438C1280.42 149.449 1280.79 149.308 1281.07 149.045L1283.49 146.746C1283.7 146.549 1283.84 146.295 1283.91 146.017C1283.97 145.739 1283.95 145.448 1283.85 145.181C1283.75 144.914 1283.57 144.683 1283.34 144.517C1283.11 144.352 1282.83 144.258 1282.55 144.249ZM1278.71 140.168C1278.72 139.883 1278.64 139.602 1278.49 139.361C1278.34 139.12 1278.12 138.929 1277.86 138.812C1277.6 138.695 1277.32 138.658 1277.04 138.705C1276.76 138.751 1276.5 138.88 1276.29 139.075L1273.86 141.374C1273.59 141.638 1273.43 142 1273.42 142.38C1273.41 142.761 1273.56 143.13 1273.82 143.407C1274.08 143.684 1274.43 143.847 1274.81 143.86C1275.19 143.873 1275.56 143.735 1275.84 143.477L1278.26 141.177C1278.4 141.047 1278.51 140.891 1278.59 140.718C1278.67 140.544 1278.71 140.358 1278.71 140.168Z" fill="#6762FE"/>
</g>
<path d="M1309.1 144.538V129.138H1313.83C1315.62 129.138 1317.1 129.454 1318.28 130.084C1319.45 130.715 1320.32 131.61 1320.87 132.768C1321.44 133.912 1321.73 135.276 1321.73 136.86C1321.73 138.444 1321.44 139.808 1320.87 140.952C1320.32 142.096 1319.45 142.984 1318.28 143.614C1317.12 144.23 1315.64 144.538 1313.83 144.538H1309.1ZM1311.3 142.69H1313.74C1315.17 142.69 1316.3 142.456 1317.13 141.986C1317.97 141.517 1318.56 140.85 1318.91 139.984C1319.28 139.104 1319.46 138.063 1319.46 136.86C1319.46 135.643 1319.28 134.594 1318.91 133.714C1318.56 132.834 1317.97 132.16 1317.13 131.69C1316.3 131.221 1315.17 130.986 1313.74 130.986H1311.3V142.69ZM1329.28 144.802C1328.23 144.802 1327.29 144.56 1326.47 144.076C1325.65 143.592 1325 142.918 1324.53 142.052C1324.08 141.187 1323.85 140.182 1323.85 139.038C1323.85 137.865 1324.08 136.846 1324.53 135.98C1325 135.1 1325.65 134.418 1326.47 133.934C1327.29 133.436 1328.24 133.186 1329.33 133.186C1330.41 133.186 1331.34 133.428 1332.12 133.912C1332.9 134.396 1333.5 135.042 1333.93 135.848C1334.35 136.64 1334.56 137.52 1334.56 138.488C1334.56 138.635 1334.56 138.796 1334.54 138.972C1334.54 139.134 1334.53 139.317 1334.52 139.522H1325.46V137.96H1332.36C1332.32 137.036 1332.01 136.318 1331.44 135.804C1330.87 135.276 1330.16 135.012 1329.31 135.012C1328.7 135.012 1328.15 135.152 1327.66 135.43C1327.16 135.694 1326.75 136.09 1326.45 136.618C1326.15 137.132 1326.01 137.784 1326.01 138.576V139.192C1326.01 140.014 1326.15 140.71 1326.45 141.282C1326.75 141.84 1327.16 142.265 1327.66 142.558C1328.15 142.837 1328.7 142.976 1329.28 142.976C1329.99 142.976 1330.57 142.822 1331.02 142.514C1331.48 142.206 1331.81 141.788 1332.03 141.26H1334.23C1334.04 141.935 1333.72 142.544 1333.27 143.086C1332.81 143.614 1332.25 144.032 1331.57 144.34C1330.91 144.648 1330.15 144.802 1329.28 144.802ZM1337.01 144.538V128.698H1339.21V144.538H1337.01ZM1342.38 144.538V133.45H1344.58V144.538H1342.38ZM1343.5 131.36C1343.08 131.36 1342.73 131.228 1342.45 130.964C1342.18 130.7 1342.05 130.363 1342.05 129.952C1342.05 129.556 1342.18 129.234 1342.45 128.984C1342.73 128.72 1343.08 128.588 1343.5 128.588C1343.92 128.588 1344.26 128.72 1344.54 128.984C1344.82 129.234 1344.96 129.556 1344.96 129.952C1344.96 130.363 1344.82 130.7 1344.54 130.964C1344.26 131.228 1343.92 131.36 1343.5 131.36ZM1350.87 144.538L1346.72 133.45H1349.03L1352.17 142.426L1355.34 133.45H1357.61L1353.47 144.538H1350.87ZM1364.07 144.802C1363.01 144.802 1362.07 144.56 1361.25 144.076C1360.43 143.592 1359.78 142.918 1359.32 142.052C1358.86 141.187 1358.63 140.182 1358.63 139.038C1358.63 137.865 1358.86 136.846 1359.32 135.98C1359.78 135.1 1360.43 134.418 1361.25 133.934C1362.07 133.436 1363.03 133.186 1364.11 133.186C1365.2 133.186 1366.13 133.428 1366.91 133.912C1367.68 134.396 1368.28 135.042 1368.71 135.848C1369.13 136.64 1369.35 137.52 1369.35 138.488C1369.35 138.635 1369.34 138.796 1369.33 138.972C1369.33 139.134 1369.32 139.317 1369.3 139.522H1360.24V137.96H1367.15C1367.1 137.036 1366.8 136.318 1366.22 135.804C1365.65 135.276 1364.94 135.012 1364.09 135.012C1363.49 135.012 1362.94 135.152 1362.44 135.43C1361.94 135.694 1361.54 136.09 1361.23 136.618C1360.94 137.132 1360.79 137.784 1360.79 138.576V139.192C1360.79 140.014 1360.94 140.71 1361.23 141.282C1361.54 141.84 1361.94 142.265 1362.44 142.558C1362.94 142.837 1363.48 142.976 1364.07 142.976C1364.77 142.976 1365.35 142.822 1365.81 142.514C1366.26 142.206 1366.6 141.788 1366.82 141.26H1369.02C1368.83 141.935 1368.5 142.544 1368.05 143.086C1367.59 143.614 1367.03 144.032 1366.36 144.34C1365.7 144.648 1364.93 144.802 1364.07 144.802ZM1371.79 144.538V133.45H1373.77L1373.97 135.54C1374.22 135.042 1374.54 134.624 1374.94 134.286C1375.33 133.934 1375.8 133.663 1376.32 133.472C1376.87 133.282 1377.48 133.186 1378.17 133.186V135.518H1377.38C1376.92 135.518 1376.49 135.577 1376.08 135.694C1375.67 135.797 1375.3 135.98 1374.98 136.244C1374.67 136.508 1374.43 136.868 1374.26 137.322C1374.08 137.777 1373.99 138.342 1373.99 139.016V144.538H1371.79ZM1381.47 149.378L1384.17 143.306H1383.54L1379.16 133.45H1381.53L1385.01 141.502L1388.51 133.45H1390.82L1383.78 149.378H1381.47Z" fill="#6762FE"/>
<rect x="2.65723" y="111.909" width="178.005" height="50.2582" rx="25.1291" fill="#6762FE" fill-opacity="0.14"/>
<path d="M31.0118 144.538V129.138H33.2118V144.538H31.0118ZM41.2438 144.802C40.1878 144.802 39.2565 144.553 38.4498 144.054C37.6432 143.541 37.0125 142.852 36.5578 141.986C36.1178 141.106 35.8978 140.109 35.8978 138.994C35.8978 137.865 36.1178 136.868 36.5578 136.002C37.0125 135.137 37.6432 134.455 38.4498 133.956C39.2712 133.443 40.2098 133.186 41.2658 133.186C42.1312 133.186 42.8938 133.362 43.5538 133.714C44.2138 134.052 44.7272 134.536 45.0938 135.166V128.698H47.2938V144.538H45.3138L45.0938 142.822C44.8738 143.16 44.5878 143.482 44.2358 143.79C43.8838 144.084 43.4585 144.326 42.9598 144.516C42.4612 144.707 41.8892 144.802 41.2438 144.802ZM41.5958 142.888C42.2852 142.888 42.8938 142.727 43.4218 142.404C43.9498 142.082 44.3532 141.627 44.6318 141.04C44.9252 140.454 45.0718 139.772 45.0718 138.994C45.0718 138.217 44.9252 137.542 44.6318 136.97C44.3532 136.384 43.9498 135.929 43.4218 135.606C42.8938 135.269 42.2852 135.1 41.5958 135.1C40.9358 135.1 40.3418 135.269 39.8138 135.606C39.2858 135.929 38.8752 136.384 38.5818 136.97C38.2885 137.542 38.1418 138.217 38.1418 138.994C38.1418 139.772 38.2885 140.454 38.5818 141.04C38.8752 141.627 39.2858 142.082 39.8138 142.404C40.3418 142.727 40.9358 142.888 41.5958 142.888ZM55.3182 144.802C54.2622 144.802 53.3235 144.56 52.5022 144.076C51.6808 143.592 51.0355 142.918 50.5662 142.052C50.1115 141.187 49.8842 140.182 49.8842 139.038C49.8842 137.865 50.1115 136.846 50.5662 135.98C51.0355 135.1 51.6808 134.418 52.5022 133.934C53.3235 133.436 54.2768 133.186 55.3622 133.186C56.4475 133.186 57.3788 133.428 58.1562 133.912C58.9335 134.396 59.5348 135.042 59.9602 135.848C60.3855 136.64 60.5982 137.52 60.5982 138.488C60.5982 138.635 60.5908 138.796 60.5762 138.972C60.5762 139.134 60.5688 139.317 60.5542 139.522H51.4902V137.96H58.3982C58.3542 137.036 58.0462 136.318 57.4742 135.804C56.9022 135.276 56.1908 135.012 55.3402 135.012C54.7388 135.012 54.1888 135.152 53.6902 135.43C53.1915 135.694 52.7882 136.09 52.4802 136.618C52.1868 137.132 52.0402 137.784 52.0402 138.576V139.192C52.0402 140.014 52.1868 140.71 52.4802 141.282C52.7882 141.84 53.1915 142.265 53.6902 142.558C54.1888 142.837 54.7315 142.976 55.3182 142.976C56.0222 142.976 56.6015 142.822 57.0562 142.514C57.5108 142.206 57.8482 141.788 58.0682 141.26H60.2682C60.0775 141.935 59.7548 142.544 59.3002 143.086C58.8455 143.614 58.2808 144.032 57.6062 144.34C56.9462 144.648 56.1835 144.802 55.3182 144.802ZM66.7164 144.802C65.8071 144.802 65.0517 144.648 64.4504 144.34C63.8491 144.032 63.4017 143.622 63.1084 143.108C62.8151 142.58 62.6684 142.016 62.6684 141.414C62.6684 140.681 62.8591 140.058 63.2404 139.544C63.6217 139.016 64.1644 138.613 64.8684 138.334C65.5724 138.056 66.4157 137.916 67.3984 137.916H70.2804C70.2804 137.271 70.1851 136.736 69.9944 136.31C69.8037 135.885 69.5177 135.57 69.1364 135.364C68.7697 135.144 68.3004 135.034 67.7284 135.034C67.0684 135.034 66.5037 135.196 66.0344 135.518C65.5651 135.826 65.2717 136.288 65.1544 136.904H62.9544C63.0424 136.127 63.3064 135.467 63.7464 134.924C64.2011 134.367 64.7804 133.942 65.4844 133.648C66.1884 133.34 66.9364 133.186 67.7284 133.186C68.7697 133.186 69.6424 133.37 70.3464 133.736C71.0504 134.103 71.5784 134.624 71.9304 135.298C72.2971 135.958 72.4804 136.75 72.4804 137.674V144.538H70.5664L70.3904 142.668C70.2291 142.962 70.0384 143.24 69.8184 143.504C69.5984 143.768 69.3344 143.996 69.0264 144.186C68.7331 144.377 68.3884 144.524 67.9924 144.626C67.6111 144.744 67.1857 144.802 66.7164 144.802ZM67.1344 143.02C67.6037 143.02 68.0291 142.925 68.4104 142.734C68.7917 142.544 69.1144 142.287 69.3784 141.964C69.6571 141.627 69.8624 141.253 69.9944 140.842C70.1411 140.417 70.2217 139.984 70.2364 139.544V139.478H67.6184C66.9877 139.478 66.4744 139.559 66.0784 139.72C65.6971 139.867 65.4184 140.072 65.2424 140.336C65.0664 140.6 64.9784 140.908 64.9784 141.26C64.9784 141.627 65.0591 141.942 65.2204 142.206C65.3964 142.456 65.6457 142.654 65.9684 142.8C66.2911 142.947 66.6797 143.02 67.1344 143.02ZM79.6282 144.538C78.9242 144.538 78.3155 144.428 77.8022 144.208C77.2888 143.988 76.8928 143.622 76.6142 143.108C76.3355 142.595 76.1962 141.898 76.1962 141.018V135.32H74.2822V133.45H76.1962L76.4602 130.678H78.3962V133.45H81.5422V135.32H78.3962V141.04C78.3962 141.671 78.5282 142.104 78.7922 142.338C79.0562 142.558 79.5108 142.668 80.1562 142.668H81.4322V144.538H79.6282ZM84.1222 144.538V133.45H86.3222V144.538H84.1222ZM85.2442 131.36C84.8188 131.36 84.4668 131.228 84.1882 130.964C83.9242 130.7 83.7922 130.363 83.7922 129.952C83.7922 129.556 83.9242 129.234 84.1882 128.984C84.4668 128.72 84.8188 128.588 85.2442 128.588C85.6548 128.588 85.9995 128.72 86.2782 128.984C86.5568 129.234 86.6962 129.556 86.6962 129.952C86.6962 130.363 86.5568 130.7 86.2782 130.964C85.9995 131.228 85.6548 131.36 85.2442 131.36ZM94.5282 144.802C93.4868 144.802 92.5482 144.56 91.7122 144.076C90.8908 143.592 90.2382 142.918 89.7542 142.052C89.2848 141.172 89.0502 140.16 89.0502 139.016C89.0502 137.843 89.2922 136.824 89.7762 135.958C90.2602 135.078 90.9202 134.396 91.7562 133.912C92.5922 133.428 93.5308 133.186 94.5722 133.186C95.6282 133.186 96.5668 133.428 97.3882 133.912C98.2095 134.396 98.8548 135.071 99.3242 135.936C99.8082 136.802 100.05 137.821 100.05 138.994C100.05 140.168 99.8082 141.187 99.3242 142.052C98.8548 142.918 98.2022 143.592 97.3662 144.076C96.5302 144.56 95.5842 144.802 94.5282 144.802ZM94.5282 142.91C95.1295 142.91 95.6722 142.764 96.1562 142.47C96.6548 142.177 97.0508 141.744 97.3442 141.172C97.6522 140.586 97.8062 139.86 97.8062 138.994C97.8062 138.129 97.6595 137.41 97.3662 136.838C97.0728 136.252 96.6768 135.812 96.1782 135.518C95.6942 135.225 95.1588 135.078 94.5722 135.078C93.9855 135.078 93.4428 135.225 92.9442 135.518C92.4455 135.812 92.0422 136.252 91.7342 136.838C91.4408 137.41 91.2942 138.129 91.2942 138.994C91.2942 139.86 91.4408 140.586 91.7342 141.172C92.0422 141.744 92.4382 142.177 92.9222 142.47C93.4208 142.764 93.9562 142.91 94.5282 142.91ZM102.638 144.538V133.45H104.618L104.75 135.342C105.102 134.682 105.601 134.162 106.246 133.78C106.891 133.384 107.632 133.186 108.468 133.186C109.348 133.186 110.103 133.362 110.734 133.714C111.365 134.066 111.856 134.602 112.208 135.32C112.56 136.024 112.736 136.912 112.736 137.982V144.538H110.536V138.202C110.536 137.176 110.309 136.398 109.854 135.87C109.399 135.342 108.739 135.078 107.874 135.078C107.302 135.078 106.789 135.218 106.334 135.496C105.879 135.76 105.513 136.156 105.234 136.684C104.97 137.212 104.838 137.858 104.838 138.62V144.538H102.638Z" fill="#6762FE"/>
<path d="M140.803 127.58C140.583 127.58 140.371 127.492 140.216 127.336C140.06 127.181 139.972 126.969 139.972 126.749V124.582C139.972 124.362 140.06 124.151 140.216 123.995C140.371 123.84 140.583 123.752 140.803 123.752C141.023 123.752 141.234 123.84 141.39 123.995C141.546 124.151 141.633 124.362 141.633 124.582V126.749C141.633 126.969 141.546 127.181 141.39 127.336C141.234 127.492 141.023 127.58 140.803 127.58ZM148.078 130.593C147.914 130.594 147.753 130.545 147.616 130.454C147.48 130.362 147.373 130.232 147.31 130.081C147.248 129.929 147.231 129.762 147.263 129.6C147.296 129.439 147.375 129.291 147.491 129.175L149.024 127.643C149.101 127.566 149.192 127.504 149.293 127.463C149.394 127.421 149.502 127.399 149.611 127.399C149.72 127.399 149.828 127.421 149.929 127.463C150.03 127.504 150.121 127.566 150.198 127.643C150.276 127.72 150.337 127.811 150.379 127.912C150.42 128.013 150.442 128.121 150.442 128.23C150.442 128.339 150.42 128.447 150.379 128.548C150.337 128.649 150.276 128.74 150.198 128.818L148.666 130.35C148.51 130.506 148.299 130.593 148.078 130.593ZM153.259 137.869H151.092C150.872 137.869 150.661 137.781 150.505 137.626C150.349 137.47 150.262 137.259 150.262 137.038C150.262 136.818 150.349 136.607 150.505 136.451C150.661 136.296 150.872 136.208 151.092 136.208H153.259C153.479 136.208 153.69 136.296 153.846 136.451C154.002 136.607 154.089 136.818 154.089 137.038C154.089 137.259 154.002 137.47 153.846 137.626C153.69 137.781 153.479 137.869 153.259 137.869ZM149.611 146.677C149.501 146.677 149.393 146.656 149.293 146.614C149.192 146.572 149.101 146.51 149.024 146.433L147.491 144.901C147.414 144.824 147.353 144.732 147.311 144.631C147.27 144.53 147.248 144.422 147.248 144.313C147.248 144.204 147.27 144.096 147.311 143.995C147.353 143.895 147.414 143.803 147.491 143.726C147.568 143.649 147.66 143.588 147.761 143.546C147.862 143.504 147.97 143.483 148.079 143.483C148.188 143.483 148.296 143.504 148.397 143.546C148.497 143.588 148.589 143.649 148.666 143.726L150.198 145.258C150.315 145.374 150.394 145.523 150.426 145.684C150.459 145.845 150.442 146.012 150.379 146.164C150.316 146.316 150.209 146.446 150.073 146.537C149.936 146.628 149.775 146.677 149.611 146.677ZM131.995 146.677C131.831 146.677 131.67 146.628 131.533 146.537C131.397 146.445 131.29 146.316 131.227 146.164C131.164 146.012 131.148 145.845 131.18 145.684C131.212 145.522 131.292 145.374 131.408 145.258L132.941 143.726C133.018 143.649 133.109 143.588 133.21 143.546C133.311 143.504 133.419 143.483 133.528 143.483C133.637 143.483 133.745 143.504 133.846 143.546C133.947 143.588 134.038 143.649 134.115 143.726C134.192 143.803 134.254 143.895 134.295 143.995C134.337 144.096 134.359 144.204 134.359 144.313C134.359 144.422 134.337 144.53 134.295 144.631C134.254 144.732 134.192 144.824 134.115 144.901L132.583 146.433C132.506 146.51 132.414 146.572 132.313 146.614C132.212 146.655 132.104 146.677 131.995 146.677ZM130.514 137.869H128.347C128.127 137.869 127.915 137.781 127.76 137.626C127.604 137.47 127.516 137.259 127.516 137.038C127.516 136.818 127.604 136.607 127.76 136.451C127.915 136.296 128.127 136.208 128.347 136.208H130.514C130.734 136.208 130.945 136.296 131.101 136.451C131.256 136.607 131.344 136.818 131.344 137.038C131.344 137.259 131.256 137.47 131.101 137.626C130.945 137.781 130.734 137.869 130.514 137.869ZM133.527 130.593C133.418 130.594 133.31 130.572 133.21 130.531C133.109 130.489 133.017 130.427 132.941 130.35L131.408 128.818C131.331 128.74 131.27 128.649 131.228 128.548C131.186 128.447 131.165 128.339 131.165 128.23C131.165 128.121 131.186 128.013 131.228 127.912C131.27 127.811 131.331 127.72 131.408 127.643C131.485 127.566 131.577 127.504 131.678 127.463C131.778 127.421 131.886 127.399 131.996 127.399C132.105 127.399 132.213 127.421 132.313 127.463C132.414 127.504 132.506 127.566 132.583 127.643L134.115 129.175C134.232 129.291 134.311 129.439 134.343 129.601C134.375 129.762 134.359 129.929 134.296 130.081C134.233 130.233 134.126 130.363 133.989 130.454C133.853 130.545 133.692 130.594 133.527 130.593ZM144.124 147.003V148.387C144.124 149.45 143.25 150.325 142.187 150.325H139.419C138.489 150.325 137.481 149.616 137.481 148.066V147.003H144.124ZM145.686 131.015C144.78 130.284 143.722 129.765 142.59 129.497C141.457 129.228 140.279 129.218 139.142 129.465C136.208 130.074 133.827 132.466 133.218 135.4C132.598 138.411 133.728 141.401 136.141 143.228C136.795 143.715 137.249 144.468 137.404 145.342V145.354C137.426 145.342 137.459 145.342 137.481 145.342H144.124C144.147 145.342 144.158 145.342 144.18 145.354V145.342C144.335 144.501 144.833 143.726 145.597 143.128C146.519 142.404 147.265 141.479 147.777 140.424C148.289 139.369 148.554 138.211 148.553 137.038C148.553 134.691 147.512 132.499 145.686 131.015ZM144.955 137.592C144.501 137.592 144.124 137.216 144.124 136.762C144.124 135.079 142.763 133.717 141.08 133.717C140.626 133.717 140.249 133.34 140.249 132.886C140.249 132.433 140.626 132.056 141.08 132.056C142.327 132.059 143.522 132.556 144.404 133.438C145.286 134.319 145.782 135.515 145.785 136.762C145.785 137.216 145.409 137.592 144.955 137.592Z" fill="#6762FE"/>
<path d="M137.408 145.342H137.486C137.464 145.342 137.431 145.342 137.408 145.353V145.342ZM144.185 145.342V145.353C144.162 145.342 144.151 145.342 144.129 145.342H144.185Z" fill="#6762FE"/>
<rect y="258.06" width="181.005" height="50.2582" rx="25.1291" fill="#6762FE" fill-opacity="0.14"/>
<path d="M28.5547 290.689V275.289H33.8127C35.0447 275.289 36.0567 275.494 36.8487 275.905C37.6407 276.315 38.2274 276.865 38.6087 277.555C38.9901 278.244 39.1807 279.029 39.1807 279.909C39.1807 280.745 38.9901 281.515 38.6087 282.219C38.2421 282.908 37.6627 283.465 36.8707 283.891C36.0787 284.301 35.0594 284.507 33.8127 284.507H30.7547V290.689H28.5547ZM30.7547 282.681H33.7247C34.8834 282.681 35.7047 282.431 36.1887 281.933C36.6874 281.419 36.9367 280.745 36.9367 279.909C36.9367 279.014 36.6874 278.325 36.1887 277.841C35.7047 277.357 34.8834 277.115 33.7247 277.115H30.7547V282.681ZM41.4428 290.689V274.849H43.6428V290.689H41.4428ZM50.3375 290.953C49.4281 290.953 48.6728 290.799 48.0715 290.491C47.4701 290.183 47.0228 289.772 46.7295 289.259C46.4361 288.731 46.2895 288.166 46.2895 287.565C46.2895 286.831 46.4801 286.208 46.8615 285.695C47.2428 285.167 47.7855 284.763 48.4895 284.485C49.1935 284.206 50.0368 284.067 51.0195 284.067H53.9015C53.9015 283.421 53.8061 282.886 53.6155 282.461C53.4248 282.035 53.1388 281.72 52.7575 281.515C52.3908 281.295 51.9215 281.185 51.3495 281.185C50.6895 281.185 50.1248 281.346 49.6555 281.669C49.1861 281.977 48.8928 282.439 48.7755 283.055H46.5755C46.6635 282.277 46.9275 281.617 47.3675 281.075C47.8221 280.517 48.4015 280.092 49.1055 279.799C49.8095 279.491 50.5575 279.337 51.3495 279.337C52.3908 279.337 53.2635 279.52 53.9675 279.887C54.6715 280.253 55.1995 280.774 55.5515 281.449C55.9181 282.109 56.1015 282.901 56.1015 283.825V290.689H54.1875L54.0115 288.819C53.8501 289.112 53.6595 289.391 53.4395 289.655C53.2195 289.919 52.9555 290.146 52.6475 290.337C52.3541 290.527 52.0095 290.674 51.6135 290.777C51.2321 290.894 50.8068 290.953 50.3375 290.953ZM50.7555 289.171C51.2248 289.171 51.6501 289.075 52.0315 288.885C52.4128 288.694 52.7355 288.437 52.9995 288.115C53.2781 287.777 53.4835 287.403 53.6155 286.993C53.7621 286.567 53.8428 286.135 53.8575 285.695V285.629H51.2395C50.6088 285.629 50.0955 285.709 49.6995 285.871C49.3181 286.017 49.0395 286.223 48.8635 286.487C48.6875 286.751 48.5995 287.059 48.5995 287.411C48.5995 287.777 48.6801 288.093 48.8415 288.357C49.0175 288.606 49.2668 288.804 49.5895 288.951C49.9121 289.097 50.3008 289.171 50.7555 289.171ZM58.9096 290.689V279.601H60.8896L61.0216 281.493C61.3736 280.833 61.8722 280.312 62.5176 279.931C63.1629 279.535 63.9036 279.337 64.7396 279.337C65.6196 279.337 66.3749 279.513 67.0056 279.865C67.6362 280.217 68.1276 280.752 68.4796 281.471C68.8316 282.175 69.0076 283.062 69.0076 284.133V290.689H66.8076V284.353C66.8076 283.326 66.5802 282.549 66.1256 282.021C65.6709 281.493 65.0109 281.229 64.1456 281.229C63.5736 281.229 63.0602 281.368 62.6056 281.647C62.1509 281.911 61.7842 282.307 61.5056 282.835C61.2416 283.363 61.1096 284.008 61.1096 284.771V290.689H58.9096ZM71.8217 290.689V279.601H73.8017L73.9337 281.493C74.2857 280.833 74.7844 280.312 75.4297 279.931C76.075 279.535 76.8157 279.337 77.6517 279.337C78.5317 279.337 79.287 279.513 79.9177 279.865C80.5484 280.217 81.0397 280.752 81.3917 281.471C81.7437 282.175 81.9197 283.062 81.9197 284.133V290.689H79.7197V284.353C79.7197 283.326 79.4924 282.549 79.0377 282.021C78.583 281.493 77.923 281.229 77.0577 281.229C76.4857 281.229 75.9724 281.368 75.5177 281.647C75.063 281.911 74.6964 282.307 74.4177 282.835C74.1537 283.363 74.0217 284.008 74.0217 284.771V290.689H71.8217ZM84.8878 290.689V279.601H87.0878V290.689H84.8878ZM86.0098 277.511C85.5845 277.511 85.2325 277.379 84.9538 277.115C84.6898 276.851 84.5578 276.513 84.5578 276.103C84.5578 275.707 84.6898 275.384 84.9538 275.135C85.2325 274.871 85.5845 274.739 86.0098 274.739C86.4205 274.739 86.7651 274.871 87.0438 275.135C87.3225 275.384 87.4618 275.707 87.4618 276.103C87.4618 276.513 87.3225 276.851 87.0438 277.115C86.7651 277.379 86.4205 277.511 86.0098 277.511ZM90.2338 290.689V279.601H92.2138L92.3458 281.493C92.6978 280.833 93.1965 280.312 93.8418 279.931C94.4871 279.535 95.2278 279.337 96.0638 279.337C96.9438 279.337 97.6991 279.513 98.3298 279.865C98.9605 280.217 99.4518 280.752 99.8038 281.471C100.156 282.175 100.332 283.062 100.332 284.133V290.689H98.1318V284.353C98.1318 283.326 97.9045 282.549 97.4498 282.021C96.9951 281.493 96.3351 281.229 95.4698 281.229C94.8978 281.229 94.3845 281.368 93.9298 281.647C93.4751 281.911 93.1085 282.307 92.8298 282.835C92.5658 283.363 92.4338 284.008 92.4338 284.771V290.689H90.2338ZM107.656 295.793C106.644 295.793 105.749 295.661 104.972 295.397C104.195 295.147 103.593 294.759 103.168 294.231C102.743 293.703 102.53 293.057 102.53 292.295C102.53 291.899 102.618 291.495 102.794 291.085C102.97 290.689 103.256 290.307 103.652 289.941C104.048 289.574 104.583 289.244 105.258 288.951L106.49 289.941C105.742 290.219 105.236 290.549 104.972 290.931C104.723 291.327 104.598 291.708 104.598 292.075C104.598 292.515 104.73 292.881 104.994 293.175C105.258 293.468 105.617 293.688 106.072 293.835C106.541 293.981 107.069 294.055 107.656 294.055C108.228 294.055 108.727 293.974 109.152 293.813C109.577 293.651 109.907 293.424 110.142 293.131C110.377 292.837 110.494 292.493 110.494 292.097C110.494 291.627 110.318 291.231 109.966 290.909C109.614 290.601 108.939 290.417 107.942 290.359C107.106 290.3 106.395 290.219 105.808 290.117C105.236 290.014 104.745 289.889 104.334 289.743C103.938 289.596 103.601 289.435 103.322 289.259C103.058 289.083 102.831 288.899 102.64 288.709V288.203L104.84 285.937L106.622 286.553L104.224 288.775L104.686 287.785C104.847 287.887 105.001 287.99 105.148 288.093C105.295 288.181 105.493 288.261 105.742 288.335C105.991 288.408 106.329 288.474 106.754 288.533C107.179 288.591 107.737 288.65 108.426 288.709C109.423 288.782 110.223 288.958 110.824 289.237C111.44 289.515 111.887 289.889 112.166 290.359C112.445 290.828 112.584 291.385 112.584 292.031C112.584 292.661 112.408 293.263 112.056 293.835C111.719 294.407 111.183 294.876 110.45 295.243C109.731 295.609 108.8 295.793 107.656 295.793ZM107.656 287.279C106.717 287.279 105.918 287.103 105.258 286.751C104.613 286.399 104.114 285.922 103.762 285.321C103.425 284.719 103.256 284.052 103.256 283.319C103.256 282.571 103.425 281.903 103.762 281.317C104.114 280.715 104.62 280.239 105.28 279.887C105.94 279.52 106.732 279.337 107.656 279.337C108.58 279.337 109.365 279.52 110.01 279.887C110.67 280.239 111.169 280.715 111.506 281.317C111.858 281.903 112.034 282.571 112.034 283.319C112.034 284.052 111.858 284.719 111.506 285.321C111.169 285.922 110.67 286.399 110.01 286.751C109.365 287.103 108.58 287.279 107.656 287.279ZM107.656 285.519C108.375 285.519 108.947 285.335 109.372 284.969C109.797 284.587 110.01 284.037 110.01 283.319C110.01 282.6 109.797 282.057 109.372 281.691C108.947 281.309 108.375 281.119 107.656 281.119C106.937 281.119 106.358 281.309 105.918 281.691C105.478 282.057 105.258 282.6 105.258 283.319C105.258 284.037 105.478 284.587 105.918 284.969C106.358 285.335 106.937 285.519 107.656 285.519ZM109.46 281.339L108.932 279.601H113.486V281.119L109.46 281.339Z" fill="#6762FE"/>
<g clip-path="url(#clip1_4_961)">
<path d="M151.125 288.374L154.431 285.067L151.125 281.76L151.657 281.227C152.579 280.306 152.579 278.806 151.658 277.884C151.211 277.438 150.617 277.192 149.986 277.192C149.354 277.192 148.76 277.438 148.314 277.884L147.781 278.417L144.474 275.11L143.499 276.086V277.628C145.225 278.04 146.512 279.595 146.512 281.445C146.512 283.295 145.225 284.851 143.499 285.262V290.044H140.636L140.065 290.615L144.474 295.024L147.781 291.717L148.241 292.177C149.162 293.098 150.662 293.098 151.584 292.177C152.506 291.255 152.506 289.755 151.584 288.833L151.125 288.374Z" fill="#6762FE"/>
<path d="M141.941 288.486V283.809H142.591C143.894 283.809 144.955 282.749 144.955 281.445C144.955 280.141 143.894 279.081 142.591 279.081H141.941V274.404H137.265V273.651C137.265 272.347 136.204 271.287 134.9 271.287C133.597 271.287 132.536 272.347 132.536 273.651V274.404H127.86V279.081H128.509C129.653 279.081 130.61 279.897 130.827 280.978C130.925 281.114 130.978 281.278 130.978 281.445C130.978 281.613 130.925 281.776 130.827 281.912C130.61 282.993 129.653 283.809 128.509 283.809H127.86V288.486H132.536V287.732C132.536 286.429 133.597 285.368 134.9 285.368C136.204 285.368 137.265 286.429 137.265 287.732V288.486H141.941Z" fill="#6762FE"/>
</g>
<rect x="1239.37" y="258.06" width="165.005" height="50.2582" rx="25.1291" fill="#6762FE" fill-opacity="0.14"/>
<g clip-path="url(#clip2_4_961)">
<path fill-rule="evenodd" clip-rule="evenodd" d="M1286.86 285.723H1281.04C1281.52 284.281 1281.78 283.068 1281.82 282.034C1281.92 279.594 1280.77 278.629 1279.79 278.248C1279.74 278.231 1279.7 278.22 1279.66 278.213C1278.9 278.093 1278.62 278.452 1278.44 278.857L1278.42 278.91C1278.39 278.968 1278.38 279.03 1278.37 279.094C1278.13 281.175 1277.24 283.128 1275.83 284.679V296.307C1275.98 296.365 1276.15 296.413 1276.31 296.451C1276.35 296.461 1276.4 296.467 1276.44 296.467C1276.93 296.472 1277.51 296.475 1278.18 296.475C1278.85 296.475 1279.61 296.472 1280.45 296.467H1285.93C1286.25 296.467 1286.56 296.382 1286.84 296.221C1287.12 296.059 1287.35 295.827 1287.5 295.548C1287.66 295.268 1287.74 294.952 1287.74 294.632C1287.73 294.311 1287.64 293.998 1287.48 293.723C1287.84 293.446 1288.09 293.04 1288.17 292.587C1288.25 292.135 1288.15 291.67 1287.9 291.287C1288.25 290.985 1288.48 290.559 1288.52 290.096C1288.57 289.633 1288.44 289.169 1288.16 288.801C1288.41 288.546 1288.58 288.224 1288.64 287.874C1288.71 287.523 1288.67 287.161 1288.53 286.832C1288.4 286.503 1288.16 286.223 1287.87 286.025C1287.57 285.828 1287.22 285.723 1286.86 285.723V285.723ZM1274.61 275.284C1274.57 275.17 1274.51 275.069 1274.41 274.994C1274.32 274.918 1274.21 274.871 1274.09 274.857L1272.39 274.661L1271.68 273.106C1271.63 272.997 1271.55 272.905 1271.45 272.84C1271.35 272.775 1271.23 272.741 1271.11 272.741C1270.99 272.741 1270.88 272.775 1270.78 272.84C1270.67 272.905 1270.59 272.997 1270.55 273.106L1269.83 274.661L1268.13 274.857C1268.02 274.87 1267.9 274.918 1267.81 274.993C1267.72 275.069 1267.65 275.17 1267.61 275.283C1267.58 275.397 1267.57 275.518 1267.6 275.634C1267.63 275.749 1267.7 275.854 1267.78 275.934L1269.04 277.092L1268.71 278.769C1268.68 278.886 1268.69 279.007 1268.74 279.118C1268.78 279.229 1268.85 279.326 1268.95 279.396C1269.05 279.466 1269.16 279.507 1269.28 279.514C1269.4 279.521 1269.52 279.494 1269.62 279.435L1271.11 278.594L1272.6 279.435C1272.71 279.494 1272.82 279.521 1272.94 279.515C1273.06 279.508 1273.18 279.467 1273.27 279.397C1273.37 279.326 1273.45 279.23 1273.49 279.119C1273.53 279.007 1273.54 278.886 1273.52 278.769L1273.18 277.092L1274.44 275.934C1274.53 275.854 1274.59 275.75 1274.62 275.634C1274.65 275.519 1274.65 275.397 1274.61 275.284L1274.61 275.284ZM1290.84 275.284C1290.87 275.397 1290.88 275.519 1290.85 275.634C1290.82 275.749 1290.75 275.854 1290.67 275.934L1289.41 277.092L1289.74 278.769C1289.77 278.886 1289.76 279.007 1289.71 279.119C1289.67 279.23 1289.6 279.326 1289.5 279.396C1289.4 279.467 1289.29 279.508 1289.17 279.514C1289.05 279.521 1288.93 279.494 1288.83 279.435L1287.34 278.594L1285.85 279.435C1285.74 279.494 1285.63 279.521 1285.51 279.514C1285.39 279.508 1285.27 279.467 1285.18 279.396C1285.08 279.326 1285 279.23 1284.96 279.119C1284.92 279.007 1284.91 278.886 1284.93 278.769L1285.27 277.092L1284.01 275.934C1283.92 275.854 1283.86 275.749 1283.83 275.634C1283.8 275.518 1283.8 275.397 1283.84 275.283C1283.88 275.17 1283.94 275.069 1284.04 274.993C1284.13 274.918 1284.24 274.87 1284.36 274.857L1286.06 274.661L1286.77 273.106C1286.82 272.997 1286.9 272.905 1287 272.84C1287.1 272.775 1287.22 272.741 1287.34 272.741C1287.46 272.741 1287.57 272.775 1287.67 272.84C1287.78 272.905 1287.85 272.997 1287.9 273.106L1288.62 274.661L1290.32 274.857C1290.43 274.871 1290.55 274.918 1290.64 274.994C1290.73 275.069 1290.8 275.17 1290.84 275.284H1290.84ZM1283.42 272.949C1283.38 272.835 1283.31 272.735 1283.22 272.659C1283.13 272.583 1283.01 272.535 1282.9 272.521L1280.71 272.271L1279.79 270.265C1279.74 270.157 1279.66 270.066 1279.56 270.001C1279.46 269.937 1279.34 269.903 1279.22 269.903C1279.11 269.903 1278.99 269.937 1278.89 270.001C1278.79 270.066 1278.71 270.157 1278.66 270.265L1277.74 272.271L1275.55 272.52C1275.44 272.534 1275.32 272.582 1275.23 272.658C1275.14 272.733 1275.07 272.834 1275.03 272.947C1275 273.061 1274.99 273.183 1275.02 273.298C1275.05 273.414 1275.12 273.518 1275.2 273.599L1276.83 275.089L1276.39 277.248C1276.37 277.365 1276.38 277.487 1276.42 277.598C1276.46 277.709 1276.54 277.806 1276.63 277.876C1276.73 277.946 1276.85 277.987 1276.96 277.994C1277.08 278 1277.2 277.973 1277.31 277.914L1279.22 276.832L1281.14 277.914C1281.25 277.973 1281.37 278 1281.49 277.994C1281.6 277.987 1281.72 277.946 1281.82 277.876C1281.91 277.806 1281.99 277.709 1282.03 277.598C1282.07 277.487 1282.08 277.366 1282.06 277.249L1281.62 275.09L1283.25 273.599C1283.33 273.518 1283.4 273.414 1283.43 273.299C1283.46 273.184 1283.45 273.062 1283.42 272.949L1283.42 272.949ZM1274.58 285.835C1274.47 285.661 1274.32 285.517 1274.14 285.418C1273.96 285.318 1273.76 285.266 1273.55 285.266H1269.25C1268.93 285.266 1268.62 285.394 1268.39 285.623C1268.16 285.851 1268.03 286.161 1268.03 286.484V295.256C1268.03 295.579 1268.16 295.889 1268.39 296.118C1268.62 296.346 1268.93 296.475 1269.25 296.475H1273.55C1273.76 296.475 1273.96 296.423 1274.14 296.323C1274.32 296.224 1274.47 296.08 1274.58 295.906V285.835ZM1269.61 287.553C1269.61 287.388 1269.67 287.23 1269.79 287.113C1269.91 286.996 1270.07 286.93 1270.23 286.93H1270.69C1270.85 286.93 1271.01 286.996 1271.13 287.113C1271.25 287.23 1271.31 287.388 1271.31 287.553C1271.31 287.718 1271.25 287.877 1271.13 287.994C1271.01 288.11 1270.85 288.176 1270.69 288.176H1270.23C1270.15 288.176 1270.07 288.16 1269.99 288.129C1269.92 288.097 1269.85 288.051 1269.79 287.994C1269.73 287.936 1269.69 287.867 1269.66 287.792C1269.62 287.716 1269.61 287.635 1269.61 287.553Z" fill="#6762FE"/>
</g>
<path d="M1307.48 290.689V275.289H1312.7C1313.91 275.289 1314.91 275.494 1315.69 275.905C1316.47 276.315 1317.04 276.865 1317.4 277.555C1317.79 278.229 1317.98 278.999 1317.98 279.865C1317.98 280.686 1317.79 281.449 1317.4 282.153C1317.04 282.842 1316.46 283.399 1315.67 283.825C1314.87 284.235 1313.86 284.441 1312.63 284.441H1309.68V290.689H1307.48ZM1315.58 290.689L1312.26 283.847H1314.68L1318.13 290.689H1315.58ZM1309.68 282.769H1312.54C1313.63 282.769 1314.43 282.505 1314.94 281.977C1315.45 281.434 1315.71 280.745 1315.71 279.909C1315.71 279.058 1315.46 278.383 1314.96 277.885C1314.46 277.386 1313.66 277.137 1312.54 277.137H1309.68V282.769ZM1325.06 290.953C1324.01 290.953 1323.07 290.711 1322.25 290.227C1321.43 289.743 1320.78 289.068 1320.31 288.203C1319.86 287.337 1319.63 286.333 1319.63 285.189C1319.63 284.015 1319.86 282.996 1320.31 282.131C1320.78 281.251 1321.43 280.569 1322.25 280.085C1323.07 279.586 1324.02 279.337 1325.11 279.337C1326.19 279.337 1327.12 279.579 1327.9 280.063C1328.68 280.547 1329.28 281.192 1329.71 281.999C1330.13 282.791 1330.34 283.671 1330.34 284.639C1330.34 284.785 1330.34 284.947 1330.32 285.123C1330.32 285.284 1330.31 285.467 1330.3 285.673H1321.24V284.111H1328.14C1328.1 283.187 1327.79 282.468 1327.22 281.955C1326.65 281.427 1325.94 281.163 1325.09 281.163C1324.48 281.163 1323.93 281.302 1323.44 281.581C1322.94 281.845 1322.53 282.241 1322.23 282.769C1321.93 283.282 1321.79 283.935 1321.79 284.727V285.343C1321.79 286.164 1321.93 286.861 1322.23 287.433C1322.53 287.99 1322.94 288.415 1323.44 288.709C1323.93 288.987 1324.48 289.127 1325.06 289.127C1325.77 289.127 1326.35 288.973 1326.8 288.665C1327.26 288.357 1327.59 287.939 1327.81 287.411H1330.01C1329.82 288.085 1329.5 288.694 1329.05 289.237C1328.59 289.765 1328.03 290.183 1327.35 290.491C1326.69 290.799 1325.93 290.953 1325.06 290.953ZM1335.5 290.689L1331.35 279.601H1333.66L1336.8 288.577L1339.97 279.601H1342.24L1338.1 290.689H1335.5ZM1344.37 290.689V279.601H1346.57V290.689H1344.37ZM1345.49 277.511C1345.07 277.511 1344.72 277.379 1344.44 277.115C1344.17 276.851 1344.04 276.513 1344.04 276.103C1344.04 275.707 1344.17 275.384 1344.44 275.135C1344.72 274.871 1345.07 274.739 1345.49 274.739C1345.9 274.739 1346.25 274.871 1346.53 275.135C1346.81 275.384 1346.95 275.707 1346.95 276.103C1346.95 276.513 1346.81 276.851 1346.53 277.115C1346.25 277.379 1345.9 277.511 1345.49 277.511ZM1354.73 290.953C1353.68 290.953 1352.74 290.711 1351.92 290.227C1351.1 289.743 1350.45 289.068 1349.98 288.203C1349.53 287.337 1349.3 286.333 1349.3 285.189C1349.3 284.015 1349.53 282.996 1349.98 282.131C1350.45 281.251 1351.1 280.569 1351.92 280.085C1352.74 279.586 1353.69 279.337 1354.78 279.337C1355.86 279.337 1356.79 279.579 1357.57 280.063C1358.35 280.547 1358.95 281.192 1359.38 281.999C1359.8 282.791 1360.01 283.671 1360.01 284.639C1360.01 284.785 1360.01 284.947 1359.99 285.123C1359.99 285.284 1359.98 285.467 1359.97 285.673H1350.91V284.111H1357.81C1357.77 283.187 1357.46 282.468 1356.89 281.955C1356.32 281.427 1355.61 281.163 1354.76 281.163C1354.15 281.163 1353.6 281.302 1353.11 281.581C1352.61 281.845 1352.2 282.241 1351.9 282.769C1351.6 283.282 1351.46 283.935 1351.46 284.727V285.343C1351.46 286.164 1351.6 286.861 1351.9 287.433C1352.2 287.99 1352.61 288.415 1353.11 288.709C1353.6 288.987 1354.15 289.127 1354.73 289.127C1355.44 289.127 1356.02 288.973 1356.47 288.665C1356.93 288.357 1357.26 287.939 1357.48 287.411H1359.68C1359.49 288.085 1359.17 288.694 1358.72 289.237C1358.26 289.765 1357.7 290.183 1357.02 290.491C1356.36 290.799 1355.6 290.953 1354.73 290.953ZM1364.27 290.689L1361.02 279.601H1363.19L1365.61 288.841L1365.2 288.819L1367.88 279.601H1370.34L1373.03 288.819L1372.61 288.841L1375.01 279.601H1377.23L1373.97 290.689H1371.71L1368.89 281.075H1369.33L1366.52 290.689H1364.27Z" fill="#6762FE"/>
<rect x="59.7888" y="370.994" width="164.005" height="50.2582" rx="25.1291" fill="#6762FE" fill-opacity="0.14"/>
<path d="M88.3621 403.623V388.223H93.0921C94.8814 388.223 96.3628 388.538 97.5361 389.169C98.7094 389.8 99.5748 390.694 100.132 391.853C100.704 392.997 100.99 394.361 100.99 395.945C100.99 397.529 100.704 398.893 100.132 400.037C99.5748 401.181 98.7094 402.068 97.5361 402.699C96.3774 403.315 94.8961 403.623 93.0921 403.623H88.3621ZM90.5621 401.775H93.0041C94.4268 401.775 95.5561 401.54 96.3921 401.071C97.2281 400.602 97.8221 399.934 98.1741 399.069C98.5408 398.189 98.7241 397.148 98.7241 395.945C98.7241 394.728 98.5408 393.679 98.1741 392.799C97.8221 391.919 97.2281 391.244 96.3921 390.775C95.5561 390.306 94.4268 390.071 93.0041 390.071H90.5621V401.775ZM108.543 403.887C107.487 403.887 106.549 403.645 105.727 403.161C104.906 402.677 104.261 402.002 103.791 401.137C103.337 400.272 103.109 399.267 103.109 398.123C103.109 396.95 103.337 395.93 103.791 395.065C104.261 394.185 104.906 393.503 105.727 393.019C106.549 392.52 107.502 392.271 108.587 392.271C109.673 392.271 110.604 392.513 111.381 392.997C112.159 393.481 112.76 394.126 113.185 394.933C113.611 395.725 113.823 396.605 113.823 397.573C113.823 397.72 113.816 397.881 113.801 398.057C113.801 398.218 113.794 398.402 113.779 398.607H104.715V397.045H111.623C111.579 396.121 111.271 395.402 110.699 394.889C110.127 394.361 109.416 394.097 108.565 394.097C107.964 394.097 107.414 394.236 106.915 394.515C106.417 394.779 106.013 395.175 105.705 395.703C105.412 396.216 105.265 396.869 105.265 397.661V398.277C105.265 399.098 105.412 399.795 105.705 400.367C106.013 400.924 106.417 401.35 106.915 401.643C107.414 401.922 107.957 402.061 108.543 402.061C109.247 402.061 109.827 401.907 110.281 401.599C110.736 401.291 111.073 400.873 111.293 400.345H113.493C113.303 401.02 112.98 401.628 112.525 402.171C112.071 402.699 111.506 403.117 110.831 403.425C110.171 403.733 109.409 403.887 108.543 403.887ZM120.558 403.887C119.619 403.887 118.798 403.733 118.094 403.425C117.39 403.117 116.832 402.684 116.422 402.127C116.011 401.57 115.762 400.917 115.674 400.169H117.918C117.991 400.521 118.13 400.844 118.336 401.137C118.556 401.43 118.849 401.665 119.216 401.841C119.597 402.017 120.044 402.105 120.558 402.105C121.042 402.105 121.438 402.039 121.746 401.907C122.068 401.76 122.303 401.57 122.45 401.335C122.596 401.086 122.67 400.822 122.67 400.543C122.67 400.132 122.567 399.824 122.362 399.619C122.171 399.399 121.878 399.23 121.482 399.113C121.1 398.981 120.638 398.864 120.096 398.761C119.582 398.673 119.084 398.556 118.6 398.409C118.13 398.248 117.705 398.05 117.324 397.815C116.957 397.58 116.664 397.287 116.444 396.935C116.224 396.568 116.114 396.121 116.114 395.593C116.114 394.962 116.282 394.398 116.62 393.899C116.957 393.386 117.434 392.99 118.05 392.711C118.68 392.418 119.421 392.271 120.272 392.271C121.504 392.271 122.494 392.564 123.242 393.151C123.99 393.738 124.43 394.566 124.562 395.637H122.428C122.369 395.138 122.149 394.757 121.768 394.493C121.386 394.214 120.88 394.075 120.25 394.075C119.619 394.075 119.135 394.2 118.798 394.449C118.46 394.698 118.292 395.028 118.292 395.439C118.292 395.703 118.387 395.938 118.578 396.143C118.768 396.348 119.047 396.524 119.414 396.671C119.795 396.803 120.257 396.928 120.8 397.045C121.577 397.192 122.274 397.375 122.89 397.595C123.506 397.815 123.997 398.138 124.364 398.563C124.73 398.988 124.914 399.597 124.914 400.389C124.928 401.078 124.752 401.687 124.386 402.215C124.034 402.743 123.528 403.154 122.868 403.447C122.222 403.74 121.452 403.887 120.558 403.887ZM127.658 403.623V392.535H129.858V403.623H127.658ZM128.78 390.445C128.355 390.445 128.003 390.313 127.724 390.049C127.46 389.785 127.328 389.448 127.328 389.037C127.328 388.641 127.46 388.318 127.724 388.069C128.003 387.805 128.355 387.673 128.78 387.673C129.191 387.673 129.535 387.805 129.814 388.069C130.093 388.318 130.232 388.641 130.232 389.037C130.232 389.448 130.093 389.785 129.814 390.049C129.535 390.313 129.191 390.445 128.78 390.445ZM137.514 408.727C136.502 408.727 135.607 408.595 134.83 408.331C134.053 408.082 133.451 407.693 133.026 407.165C132.601 406.637 132.388 405.992 132.388 405.229C132.388 404.833 132.476 404.43 132.652 404.019C132.828 403.623 133.114 403.242 133.51 402.875C133.906 402.508 134.441 402.178 135.116 401.885L136.348 402.875C135.6 403.154 135.094 403.484 134.83 403.865C134.581 404.261 134.456 404.642 134.456 405.009C134.456 405.449 134.588 405.816 134.852 406.109C135.116 406.402 135.475 406.622 135.93 406.769C136.399 406.916 136.927 406.989 137.514 406.989C138.086 406.989 138.585 406.908 139.01 406.747C139.435 406.586 139.765 406.358 140 406.065C140.235 405.772 140.352 405.427 140.352 405.031C140.352 404.562 140.176 404.166 139.824 403.843C139.472 403.535 138.797 403.352 137.8 403.293C136.964 403.234 136.253 403.154 135.666 403.051C135.094 402.948 134.603 402.824 134.192 402.677C133.796 402.53 133.459 402.369 133.18 402.193C132.916 402.017 132.689 401.834 132.498 401.643V401.137L134.698 398.871L136.48 399.487L134.082 401.709L134.544 400.719C134.705 400.822 134.859 400.924 135.006 401.027C135.153 401.115 135.351 401.196 135.6 401.269C135.849 401.342 136.187 401.408 136.612 401.467C137.037 401.526 137.595 401.584 138.284 401.643C139.281 401.716 140.081 401.892 140.682 402.171C141.298 402.45 141.745 402.824 142.024 403.293C142.303 403.762 142.442 404.32 142.442 404.965C142.442 405.596 142.266 406.197 141.914 406.769C141.577 407.341 141.041 407.81 140.308 408.177C139.589 408.544 138.658 408.727 137.514 408.727ZM137.514 400.213C136.575 400.213 135.776 400.037 135.116 399.685C134.471 399.333 133.972 398.856 133.62 398.255C133.283 397.654 133.114 396.986 133.114 396.253C133.114 395.505 133.283 394.838 133.62 394.251C133.972 393.65 134.478 393.173 135.138 392.821C135.798 392.454 136.59 392.271 137.514 392.271C138.438 392.271 139.223 392.454 139.868 392.821C140.528 393.173 141.027 393.65 141.364 394.251C141.716 394.838 141.892 395.505 141.892 396.253C141.892 396.986 141.716 397.654 141.364 398.255C141.027 398.856 140.528 399.333 139.868 399.685C139.223 400.037 138.438 400.213 137.514 400.213ZM137.514 398.453C138.233 398.453 138.805 398.27 139.23 397.903C139.655 397.522 139.868 396.972 139.868 396.253C139.868 395.534 139.655 394.992 139.23 394.625C138.805 394.244 138.233 394.053 137.514 394.053C136.795 394.053 136.216 394.244 135.776 394.625C135.336 394.992 135.116 395.534 135.116 396.253C135.116 396.972 135.336 397.522 135.776 397.903C136.216 398.27 136.795 398.453 137.514 398.453ZM139.318 394.273L138.79 392.535H143.344V394.053L139.318 394.273ZM145.551 403.623V392.535H147.531L147.663 394.427C148.015 393.767 148.514 393.246 149.159 392.865C149.804 392.469 150.545 392.271 151.381 392.271C152.261 392.271 153.016 392.447 153.647 392.799C154.278 393.151 154.769 393.686 155.121 394.405C155.473 395.109 155.649 395.996 155.649 397.067V403.623H153.449V397.287C153.449 396.26 153.222 395.483 152.767 394.955C152.312 394.427 151.652 394.163 150.787 394.163C150.215 394.163 149.702 394.302 149.247 394.581C148.792 394.845 148.426 395.241 148.147 395.769C147.883 396.297 147.751 396.942 147.751 397.705V403.623H145.551Z" fill="#6762FE"/>
<path d="M196.442 382.837H193.276C192.846 382.837 192.498 383.185 192.498 383.615V384.394H186.126C185.804 383.489 184.948 382.837 183.934 382.837C182.921 382.837 182.065 383.489 181.742 384.394H175.371V383.615C175.371 383.185 175.023 382.837 174.592 382.837H171.426C170.996 382.837 170.648 383.185 170.648 383.615V386.729C170.648 387.159 170.996 387.508 171.426 387.508H174.592C175.023 387.508 175.371 387.159 175.371 386.729V385.94H178.568C175.866 387.628 174.085 390.593 173.872 393.913C172.938 394.219 172.257 395.088 172.257 396.123C172.257 397.411 173.305 398.459 174.592 398.459C175.88 398.459 176.928 397.411 176.928 396.123C176.928 395.13 176.302 394.285 175.426 393.948C175.691 390.246 178.274 387.126 181.867 386.236C182.256 386.987 183.032 387.508 183.934 387.508C184.837 387.508 185.613 386.987 186.001 386.236C189.594 387.126 192.177 390.246 192.443 393.948C191.567 394.285 190.941 395.13 190.941 396.123C190.941 397.411 191.989 398.459 193.276 398.459C194.564 398.459 195.612 397.411 195.612 396.123C195.612 395.088 194.931 394.219 193.997 393.913C193.784 390.593 192.002 387.639 189.301 385.951H192.498V386.729C192.498 387.159 192.846 387.508 193.276 387.508H196.442C196.873 387.508 197.221 387.159 197.221 386.729V383.615C197.221 383.185 196.873 382.837 196.442 382.837ZM189.231 408.444C188.824 407.198 187.65 406.244 186.27 406.244H181.599C180.218 406.244 179.045 407.198 178.638 408.444C178.481 408.924 178.89 409.409 179.395 409.409H188.474C188.979 409.409 189.388 408.924 189.231 408.444Z" fill="#6762FE"/>
<path d="M190.807 398.806L184.71 389.66V397.045C185.614 397.368 186.267 398.224 186.267 399.237C186.267 400.525 185.219 401.573 183.932 401.573C182.644 401.573 181.596 400.525 181.596 399.237C181.596 398.224 182.249 397.368 183.153 397.045V389.66L177.056 398.806C176.85 399.114 176.891 399.525 177.153 399.788C178.582 401.217 179.496 403.058 179.848 405.033C180.389 404.814 180.977 404.687 181.596 404.687H186.267C186.886 404.687 187.474 404.814 188.015 405.033C188.367 403.058 189.281 401.217 190.71 399.788C190.972 399.525 191.013 399.114 190.807 398.806Z" fill="#6762FE"/>
<path d="M183.933 398.459C183.503 398.459 183.154 398.809 183.154 399.24C183.154 399.672 183.503 400.022 183.933 400.022C184.362 400.022 184.711 399.672 184.711 399.24C184.711 398.809 184.362 398.459 183.933 398.459Z" fill="#6762FE"/>
<rect x="1194.14" y="370.994" width="181.005" height="50.2582" rx="25.1291" fill="#6762FE" fill-opacity="0.14"/>
<g clip-path="url(#clip3_4_961)">
<path d="M1242.56 401.583L1239.39 401.583C1238.59 402.839 1237.51 403.903 1236.25 404.698H1242.56V407.033L1247.28 403.141L1242.56 399.248V401.583ZM1230.94 404.695C1235.64 404.663 1239.44 400.844 1239.44 396.134C1239.44 391.668 1236.02 388.004 1231.66 387.61V385.235L1226.99 389.128L1231.66 393.02V390.764C1234.29 391.145 1236.33 393.396 1236.33 396.134C1236.33 399.139 1233.88 401.584 1230.88 401.584H1220.71V404.698H1230.94C1230.94 404.697 1230.94 404.696 1230.94 404.695Z" fill="#6762FE"/>
<path d="M1227.07 400.062C1226.06 399.067 1225.43 397.684 1225.43 396.152C1225.43 394.335 1226.32 392.733 1227.68 391.737L1225.24 389.69C1223.45 391.266 1222.31 393.574 1222.31 396.152C1222.31 397.565 1222.67 398.886 1223.27 400.062H1227.07Z" fill="#6762FE"/>
</g>
<path d="M1262.34 403.623V388.223H1264.54V403.623H1262.34ZM1272.22 403.623C1271.51 403.623 1270.9 403.513 1270.39 403.293C1269.88 403.073 1269.48 402.706 1269.2 402.193C1268.92 401.68 1268.78 400.983 1268.78 400.103V394.405H1266.87V392.535H1268.78L1269.05 389.763H1270.98V392.535H1274.13V394.405H1270.98V400.125C1270.98 400.756 1271.12 401.188 1271.38 401.423C1271.64 401.643 1272.1 401.753 1272.74 401.753H1274.02V403.623H1272.22ZM1281.27 403.887C1280.21 403.887 1279.28 403.645 1278.45 403.161C1277.63 402.677 1276.99 402.002 1276.52 401.137C1276.06 400.272 1275.84 399.267 1275.84 398.123C1275.84 396.95 1276.06 395.93 1276.52 395.065C1276.99 394.185 1277.63 393.503 1278.45 393.019C1279.28 392.52 1280.23 392.271 1281.31 392.271C1282.4 392.271 1283.33 392.513 1284.11 392.997C1284.89 393.481 1285.49 394.126 1285.91 394.933C1286.34 395.725 1286.55 396.605 1286.55 397.573C1286.55 397.72 1286.54 397.881 1286.53 398.057C1286.53 398.218 1286.52 398.402 1286.51 398.607H1277.44V397.045H1284.35C1284.31 396.121 1284 395.402 1283.43 394.889C1282.85 394.361 1282.14 394.097 1281.29 394.097C1280.69 394.097 1280.14 394.236 1279.64 394.515C1279.14 394.779 1278.74 395.175 1278.43 395.703C1278.14 396.216 1277.99 396.869 1277.99 397.661V398.277C1277.99 399.098 1278.14 399.795 1278.43 400.367C1278.74 400.924 1279.14 401.35 1279.64 401.643C1280.14 401.922 1280.68 402.061 1281.27 402.061C1281.97 402.061 1282.55 401.907 1283.01 401.599C1283.46 401.291 1283.8 400.873 1284.02 400.345H1286.22C1286.03 401.02 1285.71 401.628 1285.25 402.171C1284.8 402.699 1284.23 403.117 1283.56 403.425C1282.9 403.733 1282.14 403.887 1281.27 403.887ZM1288.99 403.623V392.535H1290.97L1291.17 394.625C1291.42 394.126 1291.74 393.708 1292.14 393.371C1292.54 393.019 1293 392.748 1293.53 392.557C1294.07 392.366 1294.69 392.271 1295.37 392.271V394.603H1294.58C1294.13 394.603 1293.7 394.662 1293.28 394.779C1292.87 394.882 1292.51 395.065 1292.18 395.329C1291.88 395.593 1291.63 395.952 1291.46 396.407C1291.28 396.862 1291.19 397.426 1291.19 398.101V403.623H1288.99ZM1301.07 403.887C1300.16 403.887 1299.4 403.733 1298.8 403.425C1298.2 403.117 1297.75 402.706 1297.46 402.193C1297.17 401.665 1297.02 401.1 1297.02 400.499C1297.02 399.766 1297.21 399.142 1297.59 398.629C1297.97 398.101 1298.52 397.698 1299.22 397.419C1299.93 397.14 1300.77 397.001 1301.75 397.001H1304.63C1304.63 396.356 1304.54 395.82 1304.35 395.395C1304.16 394.97 1303.87 394.654 1303.49 394.449C1303.12 394.229 1302.65 394.119 1302.08 394.119C1301.42 394.119 1300.86 394.28 1300.39 394.603C1299.92 394.911 1299.62 395.373 1299.51 395.989H1297.31C1297.4 395.212 1297.66 394.552 1298.1 394.009C1298.55 393.452 1299.13 393.026 1299.84 392.733C1300.54 392.425 1301.29 392.271 1302.08 392.271C1303.12 392.271 1304 392.454 1304.7 392.821C1305.4 393.188 1305.93 393.708 1306.28 394.383C1306.65 395.043 1306.83 395.835 1306.83 396.759V403.623H1304.92L1304.74 401.753C1304.58 402.046 1304.39 402.325 1304.17 402.589C1303.95 402.853 1303.69 403.08 1303.38 403.271C1303.09 403.462 1302.74 403.608 1302.35 403.711C1301.96 403.828 1301.54 403.887 1301.07 403.887ZM1301.49 402.105C1301.96 402.105 1302.38 402.01 1302.76 401.819C1303.14 401.628 1303.47 401.372 1303.73 401.049C1304.01 400.712 1304.22 400.338 1304.35 399.927C1304.49 399.502 1304.57 399.069 1304.59 398.629V398.563H1301.97C1301.34 398.563 1300.83 398.644 1300.43 398.805C1300.05 398.952 1299.77 399.157 1299.6 399.421C1299.42 399.685 1299.33 399.993 1299.33 400.345C1299.33 400.712 1299.41 401.027 1299.57 401.291C1299.75 401.54 1300 401.738 1300.32 401.885C1300.64 402.032 1301.03 402.105 1301.49 402.105ZM1313.98 403.623C1313.28 403.623 1312.67 403.513 1312.15 403.293C1311.64 403.073 1311.25 402.706 1310.97 402.193C1310.69 401.68 1310.55 400.983 1310.55 400.103V394.405H1308.63V392.535H1310.55L1310.81 389.763H1312.75V392.535H1315.89V394.405H1312.75V400.125C1312.75 400.756 1312.88 401.188 1313.14 401.423C1313.41 401.643 1313.86 401.753 1314.51 401.753H1315.78V403.623H1313.98ZM1318.47 403.623V392.535H1320.67V403.623H1318.47ZM1319.6 390.445C1319.17 390.445 1318.82 390.313 1318.54 390.049C1318.28 389.785 1318.14 389.448 1318.14 389.037C1318.14 388.641 1318.28 388.318 1318.54 388.069C1318.82 387.805 1319.17 387.673 1319.6 387.673C1320.01 387.673 1320.35 387.805 1320.63 388.069C1320.91 388.318 1321.05 388.641 1321.05 389.037C1321.05 389.448 1320.91 389.785 1320.63 390.049C1320.35 390.313 1320.01 390.445 1319.6 390.445ZM1328.88 403.887C1327.84 403.887 1326.9 403.645 1326.06 403.161C1325.24 402.677 1324.59 402.002 1324.11 401.137C1323.64 400.257 1323.4 399.245 1323.4 398.101C1323.4 396.928 1323.64 395.908 1324.13 395.043C1324.61 394.163 1325.27 393.481 1326.11 392.997C1326.94 392.513 1327.88 392.271 1328.92 392.271C1329.98 392.271 1330.92 392.513 1331.74 392.997C1332.56 393.481 1333.21 394.156 1333.68 395.021C1334.16 395.886 1334.4 396.906 1334.4 398.079C1334.4 399.252 1334.16 400.272 1333.68 401.137C1333.21 402.002 1332.55 402.677 1331.72 403.161C1330.88 403.645 1329.94 403.887 1328.88 403.887ZM1328.88 401.995C1329.48 401.995 1330.02 401.848 1330.51 401.555C1331.01 401.262 1331.4 400.829 1331.7 400.257C1332 399.67 1332.16 398.944 1332.16 398.079C1332.16 397.214 1332.01 396.495 1331.72 395.923C1331.43 395.336 1331.03 394.896 1330.53 394.603C1330.05 394.31 1329.51 394.163 1328.92 394.163C1328.34 394.163 1327.8 394.31 1327.3 394.603C1326.8 394.896 1326.39 395.336 1326.09 395.923C1325.79 396.495 1325.65 397.214 1325.65 398.079C1325.65 398.944 1325.79 399.67 1326.09 400.257C1326.39 400.829 1326.79 401.262 1327.27 401.555C1327.77 401.848 1328.31 401.995 1328.88 401.995ZM1336.99 403.623V392.535H1338.97L1339.1 394.427C1339.45 393.767 1339.95 393.246 1340.6 392.865C1341.24 392.469 1341.98 392.271 1342.82 392.271C1343.7 392.271 1344.46 392.447 1345.09 392.799C1345.72 393.151 1346.21 393.686 1346.56 394.405C1346.91 395.109 1347.09 395.996 1347.09 397.067V403.623H1344.89V397.287C1344.89 396.26 1344.66 395.483 1344.21 394.955C1343.75 394.427 1343.09 394.163 1342.23 394.163C1341.65 394.163 1341.14 394.302 1340.69 394.581C1340.23 394.845 1339.87 395.241 1339.59 395.769C1339.32 396.297 1339.19 396.942 1339.19 397.705V403.623H1336.99Z" fill="#6762FE"/>
<defs>
<filter id="filter0_b_4_961" x="553.736" y="40.8115" width="311.527" height="337.506" filterUnits="userSpaceOnUse" color-interpolation-filters="sRGB">
<feFlood flood-opacity="0" result="BackgroundImageFix"/>
<feGaussianBlur in="BackgroundImageFix" stdDeviation="30.9"/>
<feComposite in2="SourceAlpha" operator="in" result="effect1_backgroundBlur_4_961"/>
<feBlend mode="normal" in="SourceGraphic" in2="effect1_backgroundBlur_4_961" result="shape"/>
</filter>
<filter id="filter1_i_4_961" x="644.115" y="134.838" width="130.77" height="153.286" filterUnits="userSpaceOnUse" color-interpolation-filters="sRGB">
<feFlood flood-opacity="0" result="BackgroundImageFix"/>
<feBlend mode="normal" in="SourceGraphic" in2="BackgroundImageFix" result="shape"/>
<feColorMatrix in="SourceAlpha" type="matrix" values="0 0 0 0 0 0 0 0 0 0 0 0 0 0 0 0 0 0 127 0" result="hardAlpha"/>
<feOffset dy="3.83333"/>
<feGaussianBlur stdDeviation="4.07292"/>
<feComposite in2="hardAlpha" operator="arithmetic" k2="-1" k3="1"/>
<feColorMatrix type="matrix" values="0 0 0 0 1 0 0 0 0 1 0 0 0 0 1 0 0 0 0.22 0"/>
<feBlend mode="plus-lighter" in2="shape" result="effect1_innerShadow_4_961"/>
</filter>
<filter id="filter2_f_4_961" x="635.415" y="141.071" width="148.085" height="148.173" filterUnits="userSpaceOnUse" color-interpolation-filters="sRGB">
<feFlood flood-opacity="0" result="BackgroundImageFix"/>
<feBlend mode="normal" in="SourceGraphic" in2="BackgroundImageFix" result="shape"/>
<feGaussianBlur stdDeviation="15.75" result="effect1_foregroundBlur_4_961"/>
</filter>
<filter id="filter3_i_4_961" x="666.915" y="172.571" width="85.0846" height="89.0061" filterUnits="userSpaceOnUse" color-interpolation-filters="sRGB">
<feFlood flood-opacity="0" result="BackgroundImageFix"/>
<feBlend mode="normal" in="SourceGraphic" in2="BackgroundImageFix" result="shape"/>
<feColorMatrix in="SourceAlpha" type="matrix" values="0 0 0 0 0 0 0 0 0 0 0 0 0 0 0 0 0 0 127 0" result="hardAlpha"/>
<feOffset dy="3.83333"/>
<feGaussianBlur stdDeviation="2.5"/>
<feComposite in2="hardAlpha" operator="arithmetic" k2="-1" k3="1"/>
<feColorMatrix type="matrix" values="0 0 0 0 1 0 0 0 0 1 0 0 0 0 1 0 0 0 0.27 0"/>
<feBlend mode="plus-lighter" in2="shape" result="effect1_innerShadow_4_961"/>
</filter>
<linearGradient id="paint0_linear_4_961" x1="173" y1="408.064" x2="588.5" y2="228.064" gradientUnits="userSpaceOnUse">
<stop offset="0.01" stop-color="#00D0FE"/>
<stop offset="0.51" stop-color="#CC16F0"/>
<stop offset="1" stop-color="#2C3EE2"/>
</linearGradient>
<linearGradient id="paint1_linear_4_961" x1="415" y1="315.064" x2="444.479" y2="316.839" gradientUnits="userSpaceOnUse">
<stop offset="0.01" stop-color="#00D0FE"/>
<stop offset="0.51" stop-color="#CC16F0"/>
<stop offset="1" stop-color="#2C3EE2"/>
</linearGradient>
<linearGradient id="paint2_linear_4_961" x1="122.931" y1="288.251" x2="353.077" y2="11.9719" gradientUnits="userSpaceOnUse">
<stop offset="0.01" stop-color="#00D0FE"/>
<stop offset="0.51" stop-color="#CC16F0"/>
<stop offset="1" stop-color="#2C3EE2"/>
</linearGradient>
<linearGradient id="paint3_linear_4_961" x1="124.437" y1="209.426" x2="354.662" y2="-60.3964" gradientUnits="userSpaceOnUse">
<stop offset="0.01" stop-color="#00D0FE"/>
<stop offset="0.51" stop-color="#CC16F0"/>
<stop offset="1" stop-color="#2C3EE2"/>
</linearGradient>
<linearGradient id="paint4_linear_4_961" x1="172.347" y1="204.413" x2="591.738" y2="20.3975" gradientUnits="userSpaceOnUse">
<stop offset="0.01" stop-color="#00D0FE"/>
<stop offset="0.51" stop-color="#CC16F0"/>
<stop offset="1" stop-color="#2C3EE2"/>
</linearGradient>
<linearGradient id="paint5_linear_4_961" x1="479.995" y1="237.477" x2="509.474" y2="239.251" gradientUnits="userSpaceOnUse">
<stop offset="0.01" stop-color="#00D0FE"/>
<stop offset="0.51" stop-color="#CC16F0"/>
<stop offset="1" stop-color="#2C3EE2"/>
</linearGradient>
<linearGradient id="paint6_linear_4_961" x1="294.745" y1="153.771" x2="324.224" y2="155.546" gradientUnits="userSpaceOnUse">
<stop offset="0.01" stop-color="#00D0FE"/>
<stop offset="0.51" stop-color="#CC16F0"/>
<stop offset="1" stop-color="#2C3EE2"/>
</linearGradient>
<linearGradient id="paint7_linear_4_961" x1="410.146" y1="125.112" x2="439.625" y2="126.886" gradientUnits="userSpaceOnUse">
<stop offset="0.01" stop-color="#00D0FE"/>
<stop offset="0.51" stop-color="#CC16F0"/>
<stop offset="1" stop-color="#2C3EE2"/>
</linearGradient>
<linearGradient id="paint8_linear_4_961" x1="621.417" y1="125.676" x2="802.692" y2="247.398" gradientUnits="userSpaceOnUse">
<stop stop-color="#EE28FF"/>
<stop offset="0.525" stop-color="#8962FF"/>
<stop offset="1" stop-color="#1F79FF"/>
</linearGradient>
<linearGradient id="paint9_linear_4_961" x1="778.92" y1="285.064" x2="625.369" y2="272.08" gradientUnits="userSpaceOnUse">
<stop stop-color="white"/>
<stop offset="1" stop-color="#999999"/>
</linearGradient>
<linearGradient id="paint10_linear_4_961" x1="739.646" y1="244.301" x2="677" y2="188.61" gradientUnits="userSpaceOnUse">
<stop stop-color="#7630FF"/>
<stop offset="1" stop-color="#3EDDFA"/>
</linearGradient>
<linearGradient id="paint11_linear_4_961" x1="748.574" y1="257.744" x2="662.051" y2="250.435" gradientUnits="userSpaceOnUse">
<stop stop-color="white" stop-opacity="0"/>
<stop offset="1" stop-color="#999999"/>
</linearGradient>
<linearGradient id="paint12_linear_4_961" x1="712.5" y1="209.064" x2="736.5" y2="243.064" gradientUnits="userSpaceOnUse">
<stop stop-color="white"/>
<stop offset="1" stop-color="white" stop-opacity="0.34"/>
</linearGradient>
<clipPath id="clip0_4_961">
<rect width="26.5728" height="26.5728" fill="white" transform="translate(1267.52 123.752)"/>
</clipPath>
<clipPath id="clip1_4_961">
<rect width="26.5728" height="26.5728" fill="white" transform="translate(127.859 269.902)"/>
</clipPath>
<clipPath id="clip2_4_961">
<rect width="26.5728" height="26.5728" fill="white" transform="translate(1265.94 269.902)"/>
</clipPath>
<clipPath id="clip3_4_961">
<rect width="26.5728" height="26.5728" fill="white" transform="translate(1220.71 382.837)"/>
</clipPath>
</defs>
</svg>
