<svg width="48" height="48" viewBox="0 0 48 48" fill="none" xmlns="http://www.w3.org/2000/svg">
<path d="M40.2302 7.76964C35.204 2.7434 27.0261 2.74348 21.9998 7.76972C18.5666 11.2029 17.3741 16.2624 18.8607 20.8526L4.34336 35.37C4.23448 35.4788 4.14812 35.608 4.0892 35.7501C4.03028 35.8923 3.99997 36.0447 4 36.1986V42.8281C4 43.4759 4.52414 44 5.17187 44H11.8014C12.1126 44 12.4102 43.8764 12.6299 43.6566L14.287 41.9984C14.4119 41.8734 14.507 41.7218 14.565 41.555C14.6231 41.3881 14.6427 41.2103 14.6223 41.0348L14.4163 39.2541L16.8837 39.0217C17.1553 38.9964 17.4095 38.877 17.6024 38.6841C17.7953 38.4912 17.9147 38.237 17.94 37.9654L18.1723 35.4981L19.953 35.7052C20.2837 35.7498 20.6168 35.6388 20.8674 35.4168C20.9907 35.3067 21.0894 35.1718 21.1571 35.021C21.2247 34.8701 21.2598 34.7067 21.2599 34.5413V32.3594H23.4022C23.7135 32.3594 24.0111 32.2358 24.2308 32.016L27.236 29.0506C31.8251 30.5383 36.797 29.4356 40.2302 26.0001C45.2564 20.9739 45.2564 12.7959 40.2302 7.76964ZM36.915 16.0564C35.544 17.4274 33.3147 17.4274 31.9436 16.0564C30.5726 14.6853 30.5726 12.456 31.9436 11.085C33.3147 9.71402 35.544 9.71402 36.915 11.085C38.286 12.456 38.2859 14.6853 36.915 16.0564Z" fill="#EF1C79"/>
</svg>
