<svg width="48" height="48" viewBox="0 0 48 48" fill="none" xmlns="http://www.w3.org/2000/svg">
<path d="M16 17C16 16.7348 15.8946 16.4804 15.7071 16.2929C15.5196 16.1054 15.2652 16 15 16H9C8.73478 16 8.48043 16.1054 8.29289 16.2929C8.10536 16.4804 8 16.7348 8 17V22C8 22.2652 8.10536 22.5196 8.29289 22.7071C8.48043 22.8946 8.73478 23 9 23H15C15.2652 23 15.5196 22.8946 15.7071 22.7071C15.8946 22.5196 16 22.2652 16 22V17ZM21 23H27C27.2652 23 27.5196 22.8946 27.7071 22.7071C27.8946 22.5196 28 22.2652 28 22V13C28 12.7348 27.8946 12.4804 27.7071 12.2929C27.5196 12.1054 27.2652 12 27 12H21C20.7348 12 20.4804 12.1054 20.2929 12.2929C20.1054 12.4804 20 12.7348 20 13V22C20 22.2652 20.1054 22.5196 20.2929 22.7071C20.4804 22.8946 20.7348 23 21 23ZM33 23H39C39.2652 23 39.5196 22.8946 39.7071 22.7071C39.8946 22.5196 40 22.2652 40 22V9C40 8.73479 39.8946 8.48043 39.7071 8.2929C39.5196 8.10536 39.2652 8 39 8H33C32.7348 8 32.4804 8.10536 32.2929 8.2929C32.1054 8.48043 32 8.73479 32 9V22C32 22.2652 32.1054 22.5196 32.2929 22.7071C32.4804 22.8946 32.7348 23 33 23ZM7.001 15C7.19819 14.9999 7.39094 14.9414 7.555 14.832L17.13 8.448L17.052 8.684C17.0047 8.80991 16.9832 8.94408 16.9889 9.07847C16.9946 9.21287 17.0274 9.34473 17.0852 9.46616C17.1431 9.5876 17.2249 9.69611 17.3257 9.78521C17.4264 9.8743 17.5442 9.94215 17.6718 9.98469C17.7994 10.0272 17.9343 10.0436 18.0684 10.0328C18.2024 10.022 18.333 9.98421 18.4521 9.92178C18.5713 9.85935 18.6766 9.77353 18.7618 9.66944C18.847 9.56535 18.9103 9.44514 18.948 9.316L19.948 6.316C19.953 6.301 19.95 6.286 19.954 6.27C19.982 6.172 19.994 6.07 19.991 5.967C19.99 5.924 19.981 5.884 19.975 5.842C19.968 5.798 19.97 5.754 19.957 5.71C19.947 5.677 19.926 5.651 19.913 5.62C19.8654 5.50603 19.7965 5.40218 19.71 5.314C19.683 5.286 19.66 5.256 19.63 5.231C19.4532 5.08316 19.2305 5.00149 19 5H16C15.7564 4.99926 15.521 5.08744 15.3378 5.24799C15.1546 5.40854 15.0363 5.63043 15.0052 5.872C14.974 6.11357 15.032 6.35821 15.1684 6.56001C15.3049 6.76181 15.5102 6.90688 15.746 6.968L6.446 13.168C6.26749 13.287 6.132 13.4603 6.05954 13.6623C5.98707 13.8642 5.98148 14.0841 6.04358 14.2895C6.10569 14.4948 6.23219 14.6748 6.40442 14.8027C6.57664 14.9307 6.78645 14.9998 7.001 15ZM16.67 34.79H16.66C15.55 36.14 13.88 37 12 37C10.12 37 8.45 36.14 7.34 34.79C6.60391 35.4437 6.01476 36.2461 5.61141 37.1441C5.20807 38.0422 4.99968 39.0155 5 40V42C5 42.55 5.45 43 6 43H15.18C15.06 42.69 15 42.35 15 42V40C15 38.06 15.62 36.26 16.67 34.79ZM28.66 34.79C27.55 36.14 25.88 37 24 37C22.12 37 20.45 36.14 19.34 34.79C18.82 35.25 18.36 35.79 18 36.4C17.36 37.45 17 38.68 17 40V42C17 42.55 17.45 43 18 43H30C30.55 43 31 42.55 31 42V40C31 38.68 30.64 37.45 30 36.4C29.64 35.79 29.18 35.25 28.66 34.79ZM40.66 34.79C39.55 36.14 37.88 37 36 37C34.12 37 32.45 36.14 31.34 34.79H31.33C32.4175 36.3094 33.0015 38.1315 33 40V42C33 42.35 32.94 42.69 32.82 43H42C42.55 43 43 42.55 43 42V40C43 37.93 42.09 36.06 40.66 34.79Z" fill="#20D8F8"/>
<path d="M21.03 33.67C21.75 34.49 22.82 35 24 35C25.18 35 26.25 34.49 26.97 33.67C27.42 33.17 27.74 32.56 27.9 31.89C27.97 31.61 28 31.31 28 31C28 28.79 26.21 27 24 27C21.79 27 20 28.79 20 31C20 31.31 20.03 31.61 20.1 31.89C20.26 32.56 20.58 33.17 21.03 33.67ZM36 35C37.18 35 38.25 34.49 38.97 33.67C39.61 32.96 40 32.02 40 31C40 28.79 38.21 27 36 27C33.79 27 32 28.79 32 31C32 32.02 32.39 32.96 33.03 33.67C33.75 34.49 34.82 35 36 35ZM12 27C9.79 27 8 28.79 8 31C8 32.02 8.39 32.96 9.03 33.67C9.75 34.49 10.82 35 12 35C13.18 35 14.25 34.49 14.97 33.67C15.61 32.96 16 32.02 16 31C16 28.79 14.21 27 12 27Z" fill="#20D8F8"/>
</svg>
