<svg width="48" height="48" viewBox="0 0 48 48" fill="none" xmlns="http://www.w3.org/2000/svg">
<path d="M21.0225 27.9143V20.1647C18.0494 17.3438 14.0344 15.6104 9.62209 15.6104H8.96875V20.0113H9.62209C14.8327 20.0113 19.2887 23.3023 21.0225 27.9143ZM21.7967 26.1572C22.7348 23.5859 24.2552 21.2921 26.1974 19.4365V10.3184H21.7967V26.1572Z" fill="#8035E8"/>
<path d="M39.0286 20.2989V15.323H38.3751C29.0766 15.323 21.5121 22.8876 21.5121 32.1857V44.1652C21.5121 45.537 22.6282 46.653 24 46.653C25.3717 46.653 26.4877 45.537 26.4877 44.1652V32.1857C26.4877 25.6313 31.8204 20.2989 38.3751 20.2989H39.0286ZM47.4986 16.8521L40.7385 11.4108C40.4416 11.1716 40.2447 11.1359 40.154 11.1359C39.8282 11.1359 39.8028 11.689 39.8028 11.8586V23.7627C39.8028 23.9323 39.8282 24.4856 40.154 24.4856C40.2448 24.4856 40.4416 24.4499 40.7384 24.2108L47.4987 18.7692C47.8219 18.5091 48 18.1687 48 17.8106C48 17.4529 47.822 17.1125 47.4986 16.8521ZM8.19712 11.8586C8.19712 11.689 8.172 11.1359 7.84613 11.1359C7.75528 11.1359 7.55869 11.1716 7.26169 11.4108L0.501375 16.8521C0.177938 17.1125 0 17.4529 0 17.8106C0 18.1686 0.177938 18.509 0.501375 18.7692L7.2615 24.2108C7.55841 24.4499 7.75528 24.4856 7.84622 24.4856C7.94044 24.4856 8.00494 24.4501 8.06213 24.367C8.14931 24.2402 8.19703 24.0258 8.19703 23.7627L8.19712 11.8586ZM29.9518 9.54424C30.3127 9.54424 30.5811 9.45236 30.6519 9.30433C30.7228 9.15621 30.6262 8.88958 30.3999 8.60833L24.9584 1.84811C24.6982 1.52514 24.3578 1.34692 24 1.34692C23.642 1.34692 23.3015 1.52505 23.0412 1.8483L17.5999 8.60833C17.3736 8.88958 17.2769 9.15639 17.3479 9.30433C17.4188 9.45227 17.687 9.54424 18.0479 9.54424H29.9518Z" fill="#8035E8"/>
</svg>
