<svg width="48" height="48" viewBox="0 0 48 48" fill="none" xmlns="http://www.w3.org/2000/svg">
<path d="M36.5938 31.8903C36.5068 31.7563 36.4901 31.6226 36.5406 31.4708C37.8862 27.4658 36.8728 23.0334 33.8998 19.8096C34.1346 18.9328 34.2531 18.029 34.2523 17.1213C34.2523 11.4505 29.6398 6.83685 23.9704 6.83685C18.301 6.83685 13.6859 11.4504 13.6859 17.1213C13.6859 18.1456 13.8343 19.1445 14.1197 20.0955C12.0382 22.5041 10.9188 25.5683 10.9612 28.7691C11.0053 32.1053 12.3067 35.2451 14.6276 37.6122C14.7238 37.7096 14.7649 37.8108 14.7649 37.9506V45.519C14.7649 46.5111 15.572 47.3182 16.564 47.3182H31.0366C32.0302 47.3182 32.8385 46.5111 32.8385 45.519V44.6608C32.8386 44.5318 32.8899 44.4082 32.9811 44.317C33.0722 44.2258 33.1958 44.1745 33.3248 44.1744C35.3928 44.1744 36.9523 42.7325 36.9523 40.8207V39.8082C36.9523 39.5385 37.1703 39.3192 37.4385 39.3192H38.0844C38.4081 39.3196 38.726 39.2327 39.0046 39.0677C39.2831 38.9027 39.512 38.6656 39.6672 38.3815C39.8218 38.0974 39.897 37.7769 39.8848 37.4537C39.8726 37.1305 39.7735 36.8165 39.598 36.5449L36.594 31.8902L36.5938 31.8903ZM20.5103 32.6038C19.9578 32.6038 19.5084 32.1555 19.5084 31.6046C19.5084 31.0536 19.9578 30.6028 20.5103 30.6028H27.4303C27.9813 30.6028 28.4294 31.0521 28.4294 31.6046C28.4294 32.157 27.9813 32.6038 27.4303 32.6038H20.5103ZM26.7486 33.9166C26.7578 34.3515 26.6202 34.7801 26.3464 35.1402C25.9708 35.6343 25.4022 35.9176 24.786 35.9176H23.1517C22.5365 35.9176 21.9686 35.6348 21.5937 35.1417C21.3198 34.7813 21.1822 34.3522 21.1917 33.9167H26.7485L26.7486 33.9166ZM27.5632 29.2899H20.3747C19.8223 29.2899 19.3728 28.8404 19.3728 28.288C19.3728 27.7355 19.8223 27.2888 20.3747 27.2888H27.5632C28.1157 27.2888 28.5651 27.737 28.5651 28.288C28.5651 28.8389 28.1157 29.2899 27.5632 29.2899ZM23.9703 8.14954C28.9158 8.14954 32.9393 12.1742 32.9393 17.1212C32.9393 18.0255 32.8068 18.9074 32.5519 19.7459C32.5402 19.7759 32.5307 19.8066 32.5235 19.8379C32.0788 21.2453 31.2866 22.5274 30.1887 23.5838C29.1383 24.5921 28.5205 25.32 28.1206 26.0442C27.9383 25.9989 27.7511 25.976 27.5632 25.9759H20.3747C20.1825 25.9759 19.9959 25.9998 19.8173 26.0442C19.4173 25.3199 18.7997 24.5921 17.7498 23.5843C16.7212 22.5947 15.9611 21.407 15.5035 20.1041C15.4928 20.0558 15.4767 20.0089 15.4555 19.9643C15.155 19.061 14.9986 18.1044 14.9986 17.1212C14.9986 12.1742 19.0234 8.14954 23.9703 8.14954ZM23.3139 4.5035V1.66279C23.3139 1.48869 23.383 1.32172 23.5061 1.19861C23.6292 1.07551 23.7962 1.00635 23.9703 1.00635C24.1444 1.00635 24.3114 1.07551 24.4345 1.19861C24.5576 1.32172 24.6268 1.48869 24.6268 1.66279V4.5036C24.6268 4.6777 24.5576 4.84466 24.4345 4.96777C24.3114 5.09088 24.1444 5.16004 23.9703 5.16004C23.7962 5.16004 23.6292 5.09088 23.5061 4.96777C23.383 4.84466 23.3139 4.6776 23.3139 4.5035ZM12.2092 6.8226C12.0861 6.6995 12.017 6.53254 12.017 6.35846C12.017 6.18437 12.0861 6.01742 12.2092 5.89433C12.3323 5.77124 12.4993 5.7021 12.6734 5.70211C12.8475 5.70211 13.0144 5.77128 13.1375 5.89438L15.1333 7.89013C15.2563 8.01323 15.3255 8.18019 15.3255 8.35427C15.3255 8.52836 15.2563 8.69531 15.1332 8.8184C15.0101 8.94148 14.8431 9.01063 14.6691 9.01062C14.495 9.01061 14.328 8.94145 14.2049 8.81835L12.2092 6.8226ZM35.8997 17.6554C35.8997 17.5692 35.9167 17.4839 35.9497 17.4042C35.9827 17.3246 36.031 17.2522 36.092 17.1913C36.153 17.1303 36.2253 17.082 36.305 17.049C36.3846 17.016 36.47 16.9991 36.5562 16.9991H39.2773C39.3645 16.9976 39.451 17.0135 39.5319 17.0458C39.6129 17.0781 39.6865 17.1262 39.7487 17.1873C39.8108 17.2484 39.8602 17.3213 39.8938 17.4016C39.9275 17.482 39.9449 17.5683 39.9449 17.6554C39.9449 17.7425 39.9275 17.8288 39.8938 17.9092C39.8602 17.9895 39.8108 18.0624 39.7487 18.1235C39.6865 18.1846 39.6129 18.2327 39.5319 18.265C39.451 18.2973 39.3645 18.3132 39.2773 18.3118H36.5562C36.3821 18.3118 36.2151 18.2426 36.092 18.1195C35.9689 17.9964 35.8997 17.8295 35.8997 17.6554ZM23.9703 23.9005C27.6512 23.9005 30.6459 20.9058 30.6459 17.2249C30.6459 13.544 27.6512 10.5493 23.9703 10.5493C20.2894 10.5493 17.292 13.5439 17.292 17.2249C17.292 20.9059 20.2879 23.9005 23.9703 23.9005ZM20.6095 16.5694C20.7326 16.4463 20.8995 16.3772 21.0736 16.3772C21.2477 16.3772 21.4147 16.4463 21.5378 16.5694L23.0809 18.1125L26.4118 14.9447C26.5382 14.826 26.7065 14.7622 26.8798 14.7671C27.0531 14.772 27.2174 14.8452 27.3369 14.9709C27.4564 15.0965 27.5213 15.2643 27.5175 15.4377C27.5137 15.611 27.4414 15.7758 27.3165 15.8961L23.5216 19.505C23.3997 19.6212 23.2378 19.6859 23.0694 19.6858C22.9831 19.6859 22.8977 19.669 22.8181 19.636C22.7384 19.603 22.666 19.5545 22.6051 19.4935L20.6094 17.4977C20.5484 17.4368 20.5001 17.3644 20.4671 17.2848C20.4341 17.2052 20.4171 17.1198 20.4171 17.0336C20.4171 16.9474 20.4341 16.8621 20.4671 16.7824C20.5001 16.7028 20.5484 16.6305 20.6094 16.5695L20.6095 16.5694ZM32.8046 8.81835C32.7436 8.7574 32.6953 8.68505 32.6623 8.60541C32.6293 8.52578 32.6123 8.44043 32.6123 8.35424C32.6123 8.26805 32.6293 8.1827 32.6623 8.10306C32.6953 8.02343 32.7436 7.95108 32.8046 7.89013L34.8137 5.88107C34.9373 5.76058 35.1035 5.69363 35.2761 5.69474C35.4487 5.69584 35.614 5.7649 35.736 5.88697C35.8581 6.00903 35.9272 6.17427 35.9283 6.3469C35.9294 6.51952 35.8625 6.68565 35.742 6.80929L33.7329 8.81835C33.6047 8.9465 33.4367 9.01063 33.2687 9.01063C33.1007 9.01063 32.9327 8.9466 32.8046 8.81835ZM11.5306 18.3118H8.81206C8.72494 18.3133 8.63839 18.2974 8.55747 18.2651C8.47655 18.2328 8.40287 18.1847 8.34074 18.1236C8.2786 18.0625 8.22925 17.9896 8.19557 17.9093C8.16188 17.8289 8.14453 17.7426 8.14453 17.6555C8.14453 17.5684 8.16188 17.4821 8.19557 17.4017C8.22925 17.3214 8.2786 17.2485 8.34074 17.1874C8.40287 17.1263 8.47655 17.0782 8.55747 17.0459C8.63839 17.0136 8.72494 16.9977 8.81206 16.9992H11.5306C11.6178 16.9977 11.7043 17.0136 11.7852 17.0459C11.8661 17.0782 11.9398 17.1263 12.002 17.1874C12.0641 17.2485 12.1134 17.3214 12.1471 17.4017C12.1808 17.4821 12.1982 17.5684 12.1982 17.6555C12.1982 17.7426 12.1808 17.8289 12.1471 17.9093C12.1134 17.9896 12.0641 18.0625 12.002 18.1236C11.9398 18.1847 11.8661 18.2328 11.7852 18.2651C11.7043 18.2974 11.6178 18.3133 11.5306 18.3118Z" fill="#75BB0B"/>
</svg>
