<svg width="48" height="48" viewBox="0 0 48 48" fill="none" xmlns="http://www.w3.org/2000/svg">
<path d="M43.2112 7.45215H28.3087C27.8973 7.45215 27.5028 7.61556 27.212 7.90643C26.9211 8.19729 26.7577 8.5918 26.7577 9.00315V18.6361C26.7577 19.0475 26.9211 19.442 27.212 19.7329C27.5028 20.0237 27.8973 20.1871 28.3087 20.1871H37.9087C37.9768 20.1869 38.0442 20.2002 38.1072 20.2261C38.1701 20.252 38.2274 20.2901 38.2756 20.3382C38.3238 20.3863 38.3621 20.4434 38.3882 20.5063C38.4143 20.5691 38.4277 20.6366 38.4277 20.7046V22.9516C38.4279 22.9992 38.4421 23.0456 38.4686 23.0851C38.495 23.1245 38.5325 23.1553 38.5764 23.1736C38.6203 23.1919 38.6686 23.1968 38.7152 23.1877C38.7619 23.1786 38.8048 23.156 38.8387 23.1226L41.6377 20.3386C41.8507 20.0746 42.9187 20.2231 43.2127 20.1886C43.4164 20.1884 43.618 20.1481 43.8061 20.07C43.9942 19.9919 44.1651 19.8775 44.309 19.7333C44.4529 19.5891 44.5669 19.4181 44.6447 19.2298C44.7225 19.0416 44.7624 18.8398 44.7622 18.6361V9.00315C44.7622 8.5918 44.5988 8.19729 44.3079 7.90643C44.017 7.61556 43.6225 7.45215 43.2112 7.45215ZM31.4572 15.3196C31.0594 15.3196 30.6778 15.1616 30.3965 14.8803C30.1152 14.599 29.9572 14.2175 29.9572 13.8196C29.9572 13.4218 30.1152 13.0403 30.3965 12.759C30.6778 12.4777 31.0594 12.3196 31.4572 12.3196C31.855 12.3196 32.2365 12.4777 32.5178 12.759C32.7992 13.0403 32.9572 13.4218 32.9572 13.8196C32.9572 14.2175 32.7992 14.599 32.5178 14.8803C32.2365 15.1616 31.855 15.3196 31.4572 15.3196ZM35.7607 15.3196C35.3629 15.3196 34.9813 15.1616 34.7 14.8803C34.4187 14.599 34.2607 14.2175 34.2607 13.8196C34.2607 13.4218 34.4187 13.0403 34.7 12.759C34.9813 12.4777 35.3629 12.3196 35.7607 12.3196C36.1585 12.3196 36.54 12.4777 36.8213 12.759C37.1027 13.0403 37.2607 13.4218 37.2607 13.8196C37.2607 14.2175 37.1027 14.599 36.8213 14.8803C36.54 15.1616 36.1585 15.3196 35.7607 15.3196ZM40.0627 15.3196C39.6649 15.3196 39.2833 15.1616 39.002 14.8803C38.7207 14.599 38.5627 14.2175 38.5627 13.8196C38.5627 13.4218 38.7207 13.0403 39.002 12.759C39.2833 12.4777 39.6649 12.3196 40.0627 12.3196C40.4605 12.3196 40.842 12.4777 41.1233 12.759C41.4047 13.0403 41.5627 13.4218 41.5627 13.8196C41.5627 14.2175 41.4047 14.599 41.1233 14.8803C40.842 15.1616 40.4605 15.3196 40.0627 15.3196ZM28.3072 23.1946C27.1008 23.1895 25.9455 22.7069 25.0938 21.8525C24.2421 20.998 23.7634 19.8411 23.7622 18.6346V15.0946H5.74719C5.08319 15.0958 4.44672 15.3601 3.9772 15.8297C3.50768 16.2992 3.24338 16.9356 3.24219 17.5996V33.1396C3.2416 33.4688 3.30599 33.7948 3.43167 34.099C3.55734 34.4032 3.74184 34.6795 3.97457 34.9123C4.2073 35.145 4.48368 35.3295 4.78787 35.4552C5.09206 35.5809 5.41806 35.6452 5.74719 35.6446C6.21069 35.6971 7.98369 35.4946 8.20719 35.8246L12.8272 40.4446C12.879 40.4946 12.9441 40.5284 13.0147 40.5421C13.0853 40.5557 13.1583 40.5487 13.225 40.5217C13.2916 40.4947 13.349 40.449 13.3903 40.3901C13.4315 40.3311 13.4547 40.2615 13.4572 40.1896V36.2446C13.4576 36.0856 13.5209 35.9333 13.6334 35.8208C13.7458 35.7084 13.8982 35.645 14.0572 35.6446H29.7922C30.1217 35.6466 30.4483 35.5832 30.7532 35.458C31.058 35.3328 31.3349 35.1484 31.5679 34.9154C31.8009 34.6824 31.9854 34.4054 32.1106 34.1006C32.2357 33.7958 32.2992 33.4692 32.2972 33.1396V23.1946H28.3072ZM12.9622 26.8726C12.5644 26.8726 12.1828 26.7146 11.9015 26.4333C11.6202 26.152 11.4622 25.7705 11.4622 25.3726C11.4622 24.9748 11.6202 24.5933 11.9015 24.312C12.1828 24.0307 12.5644 23.8726 12.9622 23.8726C13.36 23.8726 13.7415 24.0307 14.0229 24.312C14.3042 24.5933 14.4622 24.9748 14.4622 25.3726C14.4622 25.7705 14.3042 26.152 14.0229 26.4333C13.7415 26.7146 13.36 26.8726 12.9622 26.8726ZM17.7712 26.8726C17.3734 26.8726 16.9918 26.7146 16.7105 26.4333C16.4292 26.152 16.2712 25.7705 16.2712 25.3726C16.2712 24.9748 16.4292 24.5933 16.7105 24.312C16.9918 24.0307 17.3734 23.8726 17.7712 23.8726C18.169 23.8726 18.5505 24.0307 18.8319 24.312C19.1132 24.5933 19.2712 24.9748 19.2712 25.3726C19.2712 25.7705 19.1132 26.152 18.8319 26.4333C18.5505 26.7146 18.169 26.8726 17.7712 26.8726ZM22.5787 26.8726C22.1809 26.8726 21.7993 26.7146 21.518 26.4333C21.2367 26.152 21.0787 25.7705 21.0787 25.3726C21.0787 24.9748 21.2367 24.5933 21.518 24.312C21.7993 24.0307 22.1809 23.8726 22.5787 23.8726C22.9765 23.8726 23.358 24.0307 23.6394 24.312C23.9207 24.5933 24.0787 24.9748 24.0787 25.3726C24.0787 25.7705 23.9207 26.152 23.6394 26.4333C23.358 26.7146 22.9765 26.8726 22.5787 26.8726Z" fill="#F99811"/>
</svg>
