<svg xmlns="http://www.w3.org/2000/svg" width="818" height="509" fill="none"><path fill="#F5F5F5" d="M0 8.238A8.24 8.24 0 0 1 8.238 0h801.524A8.24 8.24 0 0 1 818 8.238v492.524a8.24 8.24 0 0 1-8.238 8.238H8.238A8.24 8.24 0 0 1 0 500.762z"/><g filter="url(#a)"><rect width="173.1" height="32.951" x="20.5" y="20.011" fill="#fff" rx="6.865"/><rect width="172.413" height="32.264" x="20.843" y="20.355" stroke="#EEE" stroke-width=".686" rx="6.521"/><path fill="#6762FE" fill-rule="evenodd" d="M35.438 46.08c5.356-.321 9.208-4.767 9.06-9.907a9.6 9.6 0 0 0-10.021-9.288c-5.407.246-9.48 4.817-9.159 10.227.296 5.213 4.887 9.288 10.12 8.968m3.629-8.324c-.493 2.42-1.901 4.125-4.197 5.186.058 0 .09.008.117.015q.026.01.056.01c3.776 0 6.788-3.458 6.295-7.263-.396-3.088-2.937-5.51-5.948-5.682-3.48-.197-6.417 2.174-6.912 5.682-.173 1.236.024 2.396.888 3.334 1.086 1.185 2.444 1.605 3.999 1.112 1.578-.493 2.467-1.656 2.666-3.285.024-.345.148-.372.42-.372h1.579q1.282 0 1.037 1.26z" clip-rule="evenodd"/><path stroke="#282828" stroke-linecap="round" stroke-linejoin="round" stroke-width="1.03" d="m52.079 34.427 3.633 3.633c.229.23.343.344.485.344.143 0 .257-.115.486-.344l3.633-3.633"/><path stroke="#EEE" stroke-width=".686" d="M70.269 24.13v24.713"/><rect width="73.59" height="29.984" x="75.418" y="21.495" fill="#fff" rx="5.492"/><path fill="#000" d="M81.798 39.986v-8.073h.968v8.073zm4.628 0V32.71h-2.41v-.796h5.789v.796h-2.41v7.277z"/><rect width="24.713" height="24.713" x="106.418" y="24.13" fill="#fff" rx="5.492"/><path stroke="#18181B" stroke-linecap="round" stroke-linejoin="round" stroke-width="1.03" d="M113.739 32.083h10.068M113.739 36.489h10.068M113.739 40.892h10.068"/><rect width="24.112" height="24.112" x="131.431" y="24.43" fill="#fff" stroke="#fff" stroke-width=".601" rx="5.191"/><g clip-path="url(#b)"><path stroke="#282828" stroke-width="1.138" d="M143.797 30.56a.231.231 0 0 1 .406 0l1.608 2.949c.197.36.546.614.95.69l3.301.618a.23.23 0 0 1 .125.386l-2.307 2.44a1.37 1.37 0 0 0-.363 1.117l.432 3.33a.23.23 0 0 1-.328.24l-3.034-1.441a1.37 1.37 0 0 0-1.174 0l.244.514-.244-.514-3.034 1.44a.23.23 0 0 1-.328-.238l.432-3.331a1.37 1.37 0 0 0-.363-1.116l-2.307-2.441a.23.23 0 0 1 .125-.386l3.301-.618a1.37 1.37 0 0 0 .95-.69z"/></g><path stroke="#EEE" stroke-width=".686" d="M160.306 24.13v24.713"/><rect width="24.112" height="24.112" x="164.382" y="24.43" fill="#fff" stroke="#fff" stroke-width=".601" rx="5.191"/><g fill="#282828" clip-path="url(#c)"><path d="M178.591 36.393a.58.58 0 0 1 0 .821l-2.324 2.323a.58.58 0 0 1-.821 0l-1.162-1.161a.58.58 0 1 1 .822-.822l.751.751 1.912-1.913a.58.58 0 0 1 .822 0"/><path fill-rule="evenodd" d="M173.568 33.328a4.647 4.647 0 0 1 8.656 2.767 3.484 3.484 0 0 1-1.721 6.517h-8.132a3.485 3.485 0 0 1-1.715-6.52 3.196 3.196 0 0 1 2.912-2.764m4.031-1.172c-1.39 0-2.591.814-3.151 1.994a.58.58 0 0 1-.546.331l-.078-.001c-1.11 0-2.013.89-2.033 1.995a.58.58 0 0 1-.348.521 2.324 2.324 0 0 0 .928 4.454h8.132a2.323 2.323 0 0 0 .868-4.48.58.58 0 0 1-.352-.65q.065-.33.065-.678a3.485 3.485 0 0 0-3.485-3.486" clip-rule="evenodd"/></g></g><g filter="url(#d)"><rect width="134.551" height="32.951" x="523.183" y="20.011" fill="#fff" rx="6.865"/><rect width="133.865" height="32.264" x="523.526" y="20.355" stroke="#EEE" stroke-width=".686" rx="6.521"/><g clip-path="url(#e)"><path stroke="#282828" stroke-width="1.098" d="M547.347 36.487c0-3.86-3.142-7.002-7.002-7.002a7.01 7.01 0 0 0-7.002 7.002v7.002h7.002c3.86 0 7.002-3.142 7.002-7.002Z"/><path fill="#282828" d="M539.402 36.488a.95.95 0 0 0 .277.667.95.95 0 0 0 .668.276.94.94 0 0 0 .667-.276.945.945 0 1 0-1.612-.668m-3.146 0a.93.93 0 0 0 .277.667.94.94 0 0 0 1.335 0 .95.95 0 0 0 .276-.668.944.944 0 1 0-1.888 0m6.293 0a.93.93 0 0 0 .276.667.946.946 0 0 0 1.612-.668.945.945 0 0 0-1.888 0"/></g><path stroke="#282828" stroke-linecap="round" stroke-linejoin="round" stroke-miterlimit="16" stroke-width="1.03" d="m566.09 32.368-4.463 10.984 10.984-4.12m-6.521-6.864s2.316.257 4.462 2.403 2.059 4.462 2.059 4.462m-6.521-6.865s-.269 2.134 2.059 4.462c2.327 2.328 4.462 2.403 4.462 2.403m-.686-6.178.686-1.373 2.059.686.687-2.06m-1.373 5.15h1.373"/><path fill="#282828" d="M570.035 31.338a.858.858 0 1 0 0-1.716.858.858 0 0 0 0 1.716"/><circle cx="598.008" cy="36.486" r="9.782" fill="#FF5E3C" stroke="#fff" stroke-width="1.03"/><path fill="#fff" d="M593.413 38.376v-4.748h1.172v4.748zm-1.74-1.836v-1.076h4.652v1.076zm5.803 2.768v-1.345q0-.442.134-.77.144-.326.461-.576.327-.26.856-.49l1.191-.529q.442-.2.673-.49.24-.297.24-.759 0-.51-.307-.807-.298-.308-.855-.308-.558 0-.865.308-.298.307-.298.855h-1.317q0-.654.279-1.172.279-.529.826-.827.548-.308 1.375-.308t1.374.298q.548.3.826.798.279.49.279 1.096v.125q0 .788-.442 1.316-.442.52-1.297.904l-1.192.528q-.336.144-.471.308-.135.153-.135.423v.615l-.326-.356h3.892v1.163z"/><circle cx="612.426" cy="36.486" r="9.782" fill="#F9BD64" stroke="#fff" stroke-width="1.03"/><path fill="#fff" d="m609.166 39.308 2.393-7.016h2.229l2.461 7.016h-1.403l-2.086-6.083.49.211h-1.201l.5-.211-2.019 6.083zm1.672-1.864.432-1.154h2.845l.423 1.154z"/><circle cx="626.156" cy="36.486" r="9.782" fill="#B793FF" stroke="#fff" stroke-width="1.03"/><path fill="#fff" d="M626.064 39.49q-.95 0-1.633-.336a3.24 3.24 0 0 1-1.115-.874 3.7 3.7 0 0 1-.625-1.173 4 4 0 0 1-.202-1.22v-.212q0-.653.202-1.287.212-.635.644-1.154a3.1 3.1 0 0 1 1.096-.826q.673-.318 1.585-.318.952 0 1.653.346.712.337 1.134.962.423.615.51 1.441h-1.374a1.66 1.66 0 0 0-.346-.807 1.56 1.56 0 0 0-.664-.5 2.3 2.3 0 0 0-.913-.173q-.519 0-.922.183a1.75 1.75 0 0 0-.673.5 2.3 2.3 0 0 0-.413.768q-.135.443-.135.98 0 .52.135.962.144.442.423.778.278.327.682.51.413.182.951.182.789 0 1.327-.384.548-.394.663-1.096h1.374a3.2 3.2 0 0 1-.509 1.374 3 3 0 0 1-1.134 1q-.721.375-1.721.375"/><path stroke="#18181B" stroke-linecap="round" stroke-linejoin="round" stroke-width="1.03" d="m643.814 34.943 2.604 2.603c.229.23.343.344.485.344s.257-.115.485-.344l2.604-2.603"/></g><g filter="url(#f)"><rect width="131.528" height="32.951" x="665.972" y="20.011" fill="#fff" rx="6.865"/><rect width="130.842" height="32.264" x="666.315" y="20.355" stroke="#EEE" stroke-width=".686" rx="6.521"/><rect width="62.026" height="21.281" x="671.12" y="25.847" fill="#fff" rx="5.149"/><rect width="62.026" height="21.281" x="671.12" y="25.847" stroke="#6762FE" stroke-width=".686" rx="5.149"/><g stroke="#6762FE" stroke-width="1.03" clip-path="url(#g)"><path d="M682.447 41.636a5.148 5.148 0 1 0 0-10.297 5.148 5.148 0 0 0 0 10.297Z"/><path stroke-linejoin="round" d="M680.902 37.727v-2.48c0-.439.553-.708.983-.478l2.315 1.24c.409.22.409.737 0 .956l-2.315 1.24c-.43.23-.983-.039-.983-.478Z"/></g><path fill="#6762FE" d="M692.16 37.046v-.827h1.566q.5 0 .827-.192.327-.202.49-.538.173-.336.173-.75a1.64 1.64 0 0 0-.173-.76 1.2 1.2 0 0 0-.49-.528q-.327-.192-.827-.192h-1.566v-.826h1.393q.866 0 1.442.278.587.27.884.77.298.498.298 1.181v.154q0 .673-.298 1.182a2 2 0 0 1-.884.779q-.576.269-1.442.269zm-.75 2.44v-7.053h.942v7.054zm6.032 0v-5.131h.73v2.114h-.038q0-1.124.49-1.643.5-.53 1.49-.529h.173v.827h-.327q-.77 0-1.182.413-.413.404-.413 1.172v2.778zm6.067.174q-.672 0-1.163-.23a2.25 2.25 0 0 1-.797-.606 2.7 2.7 0 0 1-.462-.856 3.3 3.3 0 0 1-.144-.96v-.174q0-.5.144-.97a2.6 2.6 0 0 1 .462-.846q.307-.384.778-.606.48-.23 1.124-.23.837 0 1.375.365.548.356.807.923.269.567.269 1.21v.414h-4.555v-.692h3.882l-.211.375q0-.549-.173-.942a1.35 1.35 0 0 0-.519-.625q-.346-.22-.875-.22-.547 0-.913.249a1.55 1.55 0 0 0-.538.682 2.7 2.7 0 0 0-.173 1q0 .547.173.99.183.432.558.692.375.25.951.25.606 0 .98-.27.385-.269.462-.624h.865a2.05 2.05 0 0 1-.423.913 2.05 2.05 0 0 1-.798.586 2.8 2.8 0 0 1-1.086.202m5.385-.02q-1.01 0-1.567-.432-.548-.432-.567-1.182h.865q.02.298.298.567.288.26.971.26.615 0 .942-.24.327-.251.327-.606a.57.57 0 0 0-.241-.49q-.24-.183-.778-.24l-.558-.058q-.73-.078-1.191-.433-.462-.365-.462-1.019 0-.49.25-.836a1.54 1.54 0 0 1 .692-.538 2.5 2.5 0 0 1 1.019-.192q.865 0 1.403.384.538.385.558 1.144h-.865q-.01-.308-.289-.519-.268-.22-.807-.22-.538 0-.817.22a.68.68 0 0 0-.279.557q0 .289.193.462.201.173.653.22l.557.059q.827.086 1.327.46.5.366.5 1.039 0 .48-.279.855-.27.366-.75.577-.48.201-1.105.202m5.652.02q-.672 0-1.163-.23a2.26 2.26 0 0 1-.797-.606 2.7 2.7 0 0 1-.462-.856 3.3 3.3 0 0 1-.144-.96v-.174q0-.5.144-.97.154-.471.462-.846.307-.384.778-.606.48-.23 1.125-.23.835 0 1.374.365.547.356.807.923.27.567.269 1.21v.414h-4.555v-.692h3.883l-.212.375q0-.549-.173-.942a1.35 1.35 0 0 0-.519-.625q-.345-.22-.874-.22-.549 0-.913.249a1.55 1.55 0 0 0-.539.682 2.7 2.7 0 0 0-.173 1q0 .547.173.99.183.432.558.692.375.25.951.25.606 0 .981-.27.384-.269.461-.624h.865a2.05 2.05 0 0 1-.423.913 2.03 2.03 0 0 1-.798.586 2.8 2.8 0 0 1-1.086.202m3.703-.173v-5.132h.731v2.2h-.116q0-.759.202-1.278.212-.528.634-.797.423-.279 1.067-.279h.039q.97 0 1.432.605.471.606.471 1.75v2.93h-.923v-3.123q0-.596-.336-.951-.337-.365-.923-.365-.606 0-.98.375-.375.375-.375.999v3.066zm8.147.057a2.8 2.8 0 0 1-1-.163 1.27 1.27 0 0 1-.644-.557q-.22-.404-.221-1.086v-4.94h.884v5.055q0 .414.221.644.231.22.644.221h.904v.826zm-2.749-4.497v-.692h3.537v.692z"/><rect width="53.026" height="21.281" x="739.325" y="25.847" fill="#6762FE" rx="5.149"/><rect width="53.026" height="21.281" x="739.325" y="25.847" stroke="#6762FE" stroke-width=".686" rx="5.149"/><path fill="#fff" d="M755.286 39.319a.515.515 0 1 0 0-1.03zm-2.78-1.03a.515.515 0 0 0 0 1.03zm.875 1.905a.515.515 0 0 0 1.03 0zm1.03-2.78a.515.515 0 1 0-1.03 0zm-2.782 3.606a.515.515 0 1 0-.146-1.02zm-.515-3.193a.515.515 0 1 0 .107-1.025zm-.976 2.264c-1.209 0-2.16-.195-2.788-.482-.657-.299-.816-.617-.816-.805h-1.03c0 .807.644 1.39 1.419 1.743.803.366 1.912.574 3.215.574zm-3.604-1.287c0 .048-.025-.012.167-.162.173-.136.447-.283.81-.417.722-.268 1.691-.45 2.627-.45v-1.03c-1.054 0-2.145.203-2.985.514-.418.155-.8.347-1.088.573-.27.211-.561.537-.561.972zm4.634-4.863c0 .515-.461 1.001-1.03 1.001v1.03c1.136 0 2.059-.945 2.059-2.031zm-1.03 1.001c-.57 0-1.03-.486-1.03-1.001h-1.03c0 1.086.923 2.031 2.06 2.031zm-1.03-1.001c0-.54.484-1.058 1.03-1.058v-1.03c-1.16 0-2.06 1.027-2.06 2.088zm1.03-1.058c.546 0 1.03.519 1.03 1.058h1.029c0-1.061-.899-2.088-2.059-2.088zm5.148 5.406h-1.39v1.03h1.39zm-1.39 0h-1.39v1.03h1.39zm.515 1.905v-1.39h-1.03v1.39zm0-1.39v-1.39h-1.03v1.39zM751.483 40q-.609.089-1.345.09v1.03c.534 0 1.034-.035 1.491-.101zm-1.345-2.227c.313 0 .644.018.976.053l.107-1.025a11 11 0 0 0-1.083-.058zM761.963 39.66q-.874 0-1.489-.288a2.2 2.2 0 0 1-.942-.798 2.1 2.1 0 0 1-.327-1.154h.942q0 .318.163.635.174.317.567.528.404.212 1.086.212.635 0 1.038-.183.404-.192.596-.49a1.23 1.23 0 0 0 .192-.663q0-.432-.375-.711-.374-.288-1.095-.356l-.779-.067q-.932-.077-1.489-.577-.558-.5-.558-1.316 0-.645.308-1.125.317-.48.874-.75.558-.278 1.298-.278.73 0 1.288.269.557.269.865.76.317.48.317 1.153h-.942q0-.337-.163-.635a1.2 1.2 0 0 0-.491-.49q-.336-.192-.874-.192-.519 0-.865.182a1.27 1.27 0 0 0-.509.48q-.164.289-.164.626 0 .384.298.682t.884.346l.779.067q.72.058 1.24.308.528.24.807.653.288.405.288.971 0 .644-.346 1.144a2.27 2.27 0 0 1-.971.778q-.624.279-1.451.279m4.214-.173V32.47h.923v4.19h-.231q0-.76.192-1.307.203-.557.615-.855.414-.298 1.057-.298h.039q.923 0 1.393.615.471.605.471 1.74v2.93h-.922v-3.123q0-.624-.356-.97-.346-.346-.903-.346-.615 0-.99.413-.365.405-.365 1.067v2.96zm9.252 0v-1.538h-.154v-1.778q0-.528-.279-.797-.269-.27-.797-.27-.298 0-.616.01l-.605.02a9 9 0 0 0-.5.028v-.807q.212-.02.442-.03.241-.018.49-.018.25-.01.481-.01.788 0 1.288.192.5.183.74.606t.24 1.143v3.249zm-1.682.134a2.4 2.4 0 0 1-1-.192 1.53 1.53 0 0 1-.644-.577q-.22-.374-.221-.903 0-.548.241-.913a1.5 1.5 0 0 1 .72-.548q.47-.192 1.135-.192h1.393v.692h-1.432q-.558 0-.855.27a.89.89 0 0 0-.298.691q0 .423.298.683.297.258.855.259.327 0 .625-.115a1.1 1.1 0 0 0 .49-.404q.201-.288.221-.788l.25.365q-.048.548-.269.923-.212.365-.596.557-.375.192-.913.192m4.105-.134v-5.132h.731v2.114h-.039q0-1.124.491-1.643.5-.53 1.489-.529h.173v.827h-.327q-.768 0-1.182.413-.413.404-.413 1.172v2.778zm6.068.173q-.674 0-1.163-.23a2.25 2.25 0 0 1-.798-.606 2.7 2.7 0 0 1-.461-.856 3.3 3.3 0 0 1-.144-.96v-.174q0-.5.144-.97.153-.471.461-.846a2.15 2.15 0 0 1 .779-.606q.48-.23 1.124-.23.836 0 1.374.365.548.356.808.923.269.567.269 1.21v.414h-4.556v-.692h3.883l-.212.375q0-.549-.173-.942a1.35 1.35 0 0 0-.518-.625q-.347-.22-.875-.22-.548 0-.913.249a1.54 1.54 0 0 0-.538.682 2.7 2.7 0 0 0-.173 1q0 .547.173.99.182.432.557.692.375.25.952.25.605 0 .98-.27.384-.269.461-.624h.865q-.105.528-.423.913a2.04 2.04 0 0 1-.797.586 2.8 2.8 0 0 1-1.086.202"/></g><g filter="url(#h)"><rect width="29.103" height="386.807" x="20.765" y="87.276" fill="#fff" stroke="#EEE" stroke-width=".529" rx="5.027"/><rect width="21.166" height="21.166" x="24.735" y="92.938" fill="url(#i)" fill-opacity=".16" rx="4.233"/><path fill="url(#j)" d="M36.388 100.561c-1.575-.323-2.805-1.526-3.135-3.066a.4.4 0 0 0-.145-.233.42.42 0 0 0-.527 0 .4.4 0 0 0-.145.233c-.33 1.54-1.56 2.743-3.135 3.066a.42.42 0 0 0-.238.142.4.4 0 0 0 0 .514c.06.073.144.123.238.143 1.574.322 2.805 1.525 3.135 3.065.02.092.07.174.145.233a.42.42 0 0 0 .526 0 .4.4 0 0 0 .146-.233c.33-1.54 1.56-2.743 3.135-3.065a.42.42 0 0 0 .238-.143.4.4 0 0 0 0-.514.42.42 0 0 0-.238-.142m-.69 6.742a1.89 1.89 0 0 1-1.477-1.444.41.41 0 0 0-.409-.325.411.411 0 0 0-.409.325 1.89 1.89 0 0 1-1.476 1.444.42.42 0 0 0-.239.142.404.404 0 0 0 .239.657 1.89 1.89 0 0 1 1.477 1.444c.02.092.07.174.145.233a.42.42 0 0 0 .526 0 .4.4 0 0 0 .146-.233 1.89 1.89 0 0 1 1.477-1.444.43.43 0 0 0 .238-.142.404.404 0 0 0-.238-.657m5.639-3.779a2.55 2.55 0 0 1-1.996-1.952.4.4 0 0 0-.146-.233.424.424 0 0 0-.526 0 .4.4 0 0 0-.145.233 2.55 2.55 0 0 1-1.997 1.952.42.42 0 0 0-.238.142.404.404 0 0 0 .238.657 2.55 2.55 0 0 1 1.996 1.952c.02.092.071.174.146.233a.42.42 0 0 0 .526 0 .4.4 0 0 0 .145-.233c.21-.98.994-1.747 1.997-1.952a.42.42 0 0 0 .238-.142.404.404 0 0 0-.238-.657"/><rect width="21.166" height="21.166" x="24.735" y="120.453" fill="#fff" rx="4.233"/><g stroke="#18181B" stroke-linecap="round" stroke-width=".794" clip-path="url(#k)"><path d="M32.673 125.773v10.583M37.966 125.773v10.583M40.61 128.418H30.029M40.61 133.71H30.029"/></g><rect width="21.166" height="21.166" x="24.735" y="147.969" fill="#6762FE" rx="4.233"/><path fill="#6762FE" d="M28.97 152.202h12.7v12.7h-12.7z"/><path stroke="#fff" stroke-width=".794" d="M36.394 159.658h4.346v4.346h-4.346zM40.743 155.538a2.383 2.383 0 0 1-2.38 2.38 2.383 2.383 0 0 1-2.38-2.38 2.384 2.384 0 0 1 2.38-2.381 2.384 2.384 0 0 1 2.38 2.381ZM30.179 157.622l2.304-4.058 2.305 4.058zM31.173 164.005l-1.218-2.109 1.218-2.11h2.436l1.218 2.11-1.218 2.109z"/><rect width="21.166" height="21.166" x="24.735" y="175.484" fill="#fff" rx="4.233"/><g stroke="#18181B" stroke-width=".794" clip-path="url(#l)"><path stroke-linejoin="round" d="m37.752 190.699-1.294.343c-1.197.317-1.796.475-2.265.216-.47-.26-.626-.836-.938-1.989l-.774-2.853c-.312-1.153-.469-1.729-.194-2.185.275-.457.874-.616 2.071-.933l2.117-.56c1.197-.317 1.796-.475 2.265-.216.47.26.626.836.938 1.989l.777 2.864c.133.49.2.735.126.966m-2.83 2.358c.399-.105.402-.107.711-.372l1.452-1.246c.396-.34.594-.51.667-.74m-2.83 2.358s.312-2.43 1.008-2.751c.79-.363 1.822.393 1.822.393"/><path d="M37.965 182.393c-.034-.568-.128-.926-.398-1.182-.412-.393-1.074-.395-2.398-.399l-2.34-.007c-1.324-.003-1.986-.005-2.396.385s-.408 1.02-.404 2.28l.01 3.119c.003 1.26.005 1.89.417 2.282.413.393 1.075.395 2.399.399l.36.001"/></g><g clip-path="url(#m)"><path stroke="#18181B" stroke-linecap="round" stroke-linejoin="round" stroke-width=".794" d="M39.552 216.757v-6.35m-7.408 7.408h6.35m0-8.466h-6.35m-1.058 1.058v6.35"/><path fill="#18181B" d="m36.856 211.641.09-.387zm-3.074 0 .09.386zm-.43.163.27.291zm-.547.602a.397.397 0 0 0 .794 0zm.46-.491-.345-.197zm4.02-.111.27-.291zm-.246.602a.397.397 0 0 0 .793 0zm.334-.491-.344.197zm-2.451 3.784a.396.396 0 0 0 .794 0zm1.102.396a.396.396 0 1 0 0-.793zm-1.41-.793a.396.396 0 1 0 0 .793zm.705-3.44c.5 0 .985.058 1.447.165l.18-.773a7.2 7.2 0 0 0-1.627-.186zm-1.447.165a6.4 6.4 0 0 1 1.447-.165v-.794a7.2 7.2 0 0 0-1.627.186zm-.18-.773c-.19.044-.424.087-.61.259l.54.582v.001l.026-.011c.043-.015.103-.03.224-.058zm-.093 1.152c0-.135 0-.208.006-.261.004-.043.01-.043.004-.033l-.69-.394a.9.9 0 0 0-.104.348c-.01.102-.01.22-.01.34zm-.517-.893a1 1 0 0 0-.162.205l.689.394.001-.002.005-.007.006-.006.002-.002zm3.684.514a2 2 0 0 1 .25.069l-.001-.001.54-.582c-.185-.172-.42-.215-.61-.259zm1.066.379c0-.12 0-.238-.01-.34a.85.85 0 0 0-.104-.348l-.69.394c-.005-.01 0-.01.005.033.005.053.005.126.005.261zm-.817-.311.002.002.005.006.006.007v.002l.69-.394a1 1 0 0 0-.163-.205zm-2.093-.63v4.234h.794v-4.234zm1.102 3.837h-1.41v.793h1.41z"/><rect width="2.117" height="2.117" x="38.494" y="208.291" stroke="#18181B" stroke-width=".794" rx=".529"/><rect width="2.117" height="2.117" x="30.027" y="208.291" stroke="#18181B" stroke-width=".794" rx=".529"/><rect width="2.117" height="2.117" x="38.494" y="216.757" stroke="#18181B" stroke-width=".794" rx=".529"/><rect width="2.117" height="2.117" x="30.027" y="216.757" stroke="#18181B" stroke-width=".794" rx=".529"/></g><g stroke="#18181B" stroke-width=".794" clip-path="url(#n)"><path d="M33.731 241.1c0-.749 0-1.123-.271-1.355-.271-.233-.708-.233-1.58-.233-.874 0-1.31 0-1.582.233-.27.232-.27.606-.27 1.355 0 .748 0 1.122.27 1.355.272.232.708.232 1.581.232s1.31 0 1.581-.232c.271-.233.271-.607.271-1.355ZM40.61 237.396c0-.749 0-1.123-.217-1.355-.217-.233-.566-.233-1.264-.233h-.741c-.698 0-1.048 0-1.265.233-.217.232-.217.606-.217 1.355 0 .748 0 1.122.217 1.355s.567.232 1.265.232h.74c.7 0 1.048 0 1.265-.232.217-.233.217-.607.217-1.355ZM40.61 244.804c0-.749 0-1.123-.217-1.355-.217-.233-.566-.233-1.264-.233h-.741c-.698 0-1.048 0-1.265.233-.217.232-.217.606-.217 1.355 0 .748 0 1.122.217 1.355s.567.232 1.265.232h.74c.7 0 1.048 0 1.265-.232.217-.233.217-.607.217-1.355Z"/><path stroke-linecap="round" stroke-linejoin="round" d="M35.319 241.099v2.142c0 .991.485 1.437 1.587 1.563m-1.587-3.705v-2.141c0-.936.412-1.426 1.587-1.562m-1.587 3.703H33.73"/></g><g stroke="#18181B" stroke-width=".794" clip-path="url(#o)"><path d="M30.292 268.643c0-2.37 0-3.554.736-4.291.736-.736 1.92-.736 4.29-.736s3.555 0 4.291.736c.736.737.736 1.921.736 4.291s0 3.555-.736 4.291-1.92.736-4.29.736-3.555 0-4.291-.736-.736-1.921-.736-4.291Z"/><path d="M37.701 267.056a.794.794 0 1 0 0-1.588.794.794 0 0 0 0 1.588Z"/><path stroke-linejoin="round" d="M37.434 273.934c-.328-1.177-1.093-2.232-2.182-2.998-1.174-.826-2.648-1.263-4.16-1.233a7 7 0 0 0-.537.017"/><path stroke-linejoin="round" d="M35.849 271.818c.9-.702 1.87-1.063 2.85-1.059q.836.001 1.648.35"/></g><g stroke="#18181B" stroke-linejoin="round" stroke-width=".794" clip-path="url(#p)"><path d="M37.936 291.488c.31-.31.466-.466.638-.54a.98.98 0 0 1 .777 0c.172.074.328.23.639.54.31.311.466.467.54.639a.98.98 0 0 1 0 .777c-.074.172-.23.327-.54.638l-2.657 2.657c-.655.655-.983.982-1.392 1.176-.41.194-.871.24-1.793.33l-.417.042.042-.417c.09-.922.136-1.383.33-1.792s.521-.738 1.176-1.392z"/><path stroke-linecap="round" d="M32.144 297.747h-1.19a.926.926 0 1 0 0 1.852h5.027a.926.926 0 1 1 0 1.852h-1.19"/></g><g stroke="#18181B" stroke-width=".794" clip-path="url(#q)"><path stroke-linecap="round" stroke-linejoin="round" d="M31.028 327.966c-.736-.737-.736-1.921-.736-4.291s0-3.555.736-4.291 1.92-.736 4.29-.736 3.555 0 4.291.736.736 1.921.736 4.291 0 3.554-.736 4.291c-.736.736-1.92.736-4.29.736s-3.555 0-4.291-.736"/><path d="M30.292 322.088h10.053M30.292 325.262h10.053M37.435 328.702v-10.054M33.204 328.702v-10.054"/></g><path stroke="#18181B" stroke-linecap="round" stroke-width=".794" d="M34.26 351.841q.111.184.266.345a1.884 1.884 0 0 0 2.743 0l1.714-1.783a2.08 2.08 0 0 0 0-2.855 1.887 1.887 0 0 0-2.743 0l-.377.393"/><path stroke="#18181B" stroke-linecap="round" stroke-width=".794" d="m34.775 354.439-.378.393a1.885 1.885 0 0 1-2.743 0 2.077 2.077 0 0 1 0-2.854l1.715-1.784a1.886 1.886 0 0 1 2.742 0q.154.161.267.346"/><path stroke="#18181B" stroke-linecap="round" stroke-linejoin="round" stroke-width=".794" d="M40.081 353.307h-1.1m-1.546 2.645v-1.1M30.555 349.074h1.1m1.546-2.646v1.1M35.849 373.679v.265c0 1.496 0 2.245.465 2.71s1.213.465 2.71.465h.264m.265.876v1.769c0 1.996 0 2.994-.62 3.614s-1.618.619-3.613.619c-1.996 0-2.994 0-3.614-.619-.62-.62-.62-1.618-.62-3.614v-2.404c0-1.717 0-2.576.47-3.157q.142-.177.319-.32c.581-.468 1.44-.468 3.157-.468.373 0 .56 0 .73.06q.054.019.105.043c.164.078.296.21.56.474l2.506 2.507c.306.306.459.458.54.653.08.194.08.411.08.843"/><path stroke="#18181B" stroke-linecap="round" stroke-linejoin="round" stroke-width=".794" d="M34.791 381.88c-.321-.312-1.587-1.142-1.587-1.587s1.266-1.275 1.587-1.587m-1.058 1.587h3.704"/><g stroke="#18181B" stroke-linecap="round" stroke-linejoin="round" stroke-width=".794" clip-path="url(#r)"><path d="M40.613 407.868v-4.704c0-.554 0-.831-.173-1.004-.172-.172-1.037-.172-1.591-.172-.555 0-1.42 0-1.592.172-.172.173-.172.45-.172 1.004v4.704c0 .554 0 .831.172 1.003.172.173 1.037.173 1.592.173.554 0 1.42 0 1.591-.173.172-.172.172-.449.172-1.003"/><path d="M37.086 410.219v-7.055c0-.555 0-.832-.172-1.004-.173-.172-1.038-.172-1.592-.172s-1.42 0-1.592.172-.172.449-.172 1.004v7.055c0 .554 0 .831.172 1.004.173.172 1.038.172 1.592.172s1.42 0 1.591-.172c.173-.173.173-.45.173-1.004M33.556 408.456v-5.292c0-.554 0-.831-.172-1.004-.172-.172-1.038-.172-1.592-.172s-1.42 0-1.591.172c-.173.173-.173.45-.173 1.004v5.292c0 .554 0 .831.173 1.003.172.173 1.037.173 1.591.173s1.42 0 1.592-.173c.172-.172.172-.449.172-1.003M32.146 403.576h-1.058M35.85 403.576H34.79M39.553 403.576h-1.058"/></g><g stroke="#282828" stroke-width=".794" clip-path="url(#s)"><path d="M40.61 433.737a5.292 5.292 0 1 1-10.582 0 5.292 5.292 0 0 1 10.583 0Z"/><path stroke-linecap="round" stroke-linejoin="round" d="M36.376 432.15H34.74a.264.264 0 0 0-.26.213l-.222 1.11c.367-.087.718-.189 1.096-.189a1.02 1.02 0 0 1 0 2.041c-.437 0-.957.009-1.079-.529"/></g><rect width="17.991" height="17.991" x="26.322" y="450.641" fill="#6762FE" rx="4.233"/><g stroke-width=".794" clip-path="url(#t)"><path fill="#fff" stroke="#fff" d="M31.046 459.661c0-2.014 0-3.021.625-3.647.626-.626 1.633-.626 3.648-.626 2.014 0 3.02 0 3.647.626.625.626.625 1.633.625 3.647s0 3.021-.625 3.647c-.626.626-1.633.626-3.648.626-2.014 0-3.02 0-3.647-.626-.625-.626-.625-1.633-.625-3.647Z"/><path stroke="#6762FE" stroke-linecap="round" stroke-linejoin="round" d="M35.316 457.862v3.598m1.799-1.799h-3.598"/></g></g><g filter="url(#u)"><rect width="68.591" height="32.951" x="476.5" y="456.011" fill="#fff" rx="8.07"/><rect width="67.919" height="32.278" x="476.836" y="456.347" stroke="#EEE" stroke-width=".672" rx="7.733"/><rect width="24.209" height="24.209" x="481.208" y="460.382" fill="#fff" rx="3.362"/><path fill="#fff" d="M485.243 464.417h16.139v16.139h-16.139z"/><path fill="#282828" fill-rule="evenodd" d="M493.075 475.849c0 .297.241.538.538.538h2.69a3.23 3.23 0 0 0 3.228-3.228v-.103a3.23 3.23 0 0 0-3.228-3.228h-6.783l1.648-1.67a.537.537 0 1 0-.766-.756l-2.552 2.586a.54.54 0 0 0 0 .756l2.552 2.586a.538.538 0 1 0 .766-.755l-1.648-1.671h6.783c1.188 0 2.152.964 2.152 2.152v.103a2.15 2.15 0 0 1-2.152 2.152h-2.69a.54.54 0 0 0-.538.538" clip-rule="evenodd"/><path stroke="#EEE" stroke-width=".672" d="M511.132 459.037v26.899"/><path fill="#848382" fill-opacity=".5" fill-rule="evenodd" d="M529.116 475.849c0 .297-.24.538-.538.538h-2.689a3.23 3.23 0 0 1-3.228-3.228v-.103a3.23 3.23 0 0 1 3.228-3.228h6.783l-1.649-1.67a.54.54 0 0 1 .766-.756l2.552 2.586a.54.54 0 0 1 0 .756l-2.552 2.586a.538.538 0 1 1-.766-.755l1.649-1.671h-6.783a2.15 2.15 0 0 0-2.152 2.152v.103c0 1.189.963 2.152 2.152 2.152h2.689c.298 0 .538.241.538.538" clip-rule="evenodd"/></g><g filter="url(#v)"><rect width="244.104" height="32.951" x="553.161" y="456.011" fill="#fff" rx="8.07"/><rect width="243.431" height="32.278" x="553.497" y="456.347" stroke="#EEE" stroke-width=".672" rx="7.733"/><path stroke="#282828" stroke-linecap="round" stroke-linejoin="round" stroke-width=".967" d="M576.696 472.545v-1.919c0-1.307 0-1.961-.394-2.367s-1.028-.406-2.296-.406h-1.398c-.617 0-.622-.001-1.177-.279l-2.24-1.124c-.935-.469-1.403-.704-1.901-.687-.499.016-.951.28-1.856.81l-.825.483c-.665.389-.997.583-1.18.907-.182.323-.182.717-.182 1.505v5.538c0 1.035 0 1.552.23 1.841.153.191.368.32.605.363.356.064.793-.191 1.666-.703.593-.346 1.164-.707 1.873-.609.594.082 1.146.458 1.678.724"/><path stroke="#282828" stroke-linejoin="round" stroke-width=".967" d="M567.282 465.762v10.109"/><path stroke="#282828" stroke-linecap="round" stroke-linejoin="round" stroke-width=".967" d="M571.989 467.785v4.044"/><path stroke="#282828" stroke-linejoin="round" stroke-width=".967" d="M573.667 473.503c1.301 0 2.356 1.033 2.356 2.307 0 1.44-1.424 2.149-2.103 3.229-.145.23-.35.23-.505 0-.701-1.039-2.104-1.819-2.104-3.229 0-1.274 1.055-2.307 2.356-2.307Z"/><path stroke="#282828" stroke-linecap="round" stroke-linejoin="round" stroke-width="1.289" d="M573.667 475.854h.006"/><path stroke="#EEE" stroke-width=".672" d="M587.792 459.71v25.554"/><path stroke="#282828" stroke-linecap="round" stroke-linejoin="round" stroke-width="1.009" d="m609.934 470.739.001 2.966c0 1.381.001 2.072-.214 2.625a3.28 3.28 0 0 1-1.856 1.859c-.559.22-1.261.232-2.665.255-.736.013-1.104.019-1.446-.05a3.2 3.2 0 0 1-1.414-.672c-.266-.22-.487-.506-.929-1.079l-1.947-2.521a1.06 1.06 0 0 1 .02-1.317 1.11 1.11 0 0 1 1.626-.116l1.051 1.016-.002-5.06c0-.527.435-.961.972-.97a.944.944 0 0 1 .972.937m0 0-.001-1.271c0-.526.435-.96.972-.969a.944.944 0 0 1 .972.937v1.271m-1.943.032.001 2.86m1.942-2.892c0-.527.435-.961.972-.97a.945.945 0 0 1 .972.938v1.271m-1.944-1.239.001 2.86m1.943-1.621c0-.527.435-.961.972-.97a.944.944 0 0 1 .972.937l.001 1.589m-1.945-1.556.001 1.588"/><path stroke="#282828" stroke-linecap="round" stroke-width="1.009" d="M632.378 466.031h-2.869c-.792 0-1.434.643-1.434 1.435v2.869m4.303 8.608h-2.869a1.435 1.435 0 0 1-1.434-1.435v-2.869m8.607-8.608h2.869c.793 0 1.435.643 1.435 1.435v2.869m0 4.304v2.869c0 .792-.642 1.435-1.435 1.435h-2.869m.269-6.456a2.421 2.421 0 1 1-4.842 0 2.421 2.421 0 0 1 4.842 0Z"/><path stroke="#EEE" stroke-width=".672" d="M652.348 459.71v25.554"/><path stroke="#282828" stroke-linecap="round" stroke-linejoin="round" stroke-width="1.009" d="m673.194 476.185 3.026 3.026"/><path stroke="#282828" stroke-linejoin="round" stroke-width="1.009" d="M674.876 471.814a6.052 6.052 0 1 0-12.104 0 6.052 6.052 0 0 0 12.104 0Z"/><path stroke="#282828" stroke-linecap="round" stroke-linejoin="round" stroke-width="1.009" d="M666.469 471.814h4.707"/><rect width="40.348" height="23.536" x="-.336" y=".336" fill="#F7F7F7" stroke="#EEE" stroke-width=".672" rx="5.043" transform="matrix(-1 0 0 1 727.328 460.382)"/><path fill="#282828" d="M697.643 476.443v-6.42l.414.32h-1.939v-.772h2.429v6.872zm5.535.17q-.772 0-1.318-.264a2.44 2.44 0 0 1-.876-.734 3.1 3.1 0 0 1-.48-1.064 5.4 5.4 0 0 1-.151-1.29v-.508q0-.95.292-1.714.302-.762.923-1.205.63-.451 1.61-.451.979 0 1.6.451.621.443.913 1.205.302.763.302 1.714v.508q0 .678-.151 1.29-.15.602-.49 1.064a2.35 2.35 0 0 1-.866.734q-.536.264-1.308.264m0-.829q.978 0 1.431-.659.46-.668.461-2.109 0-1.506-.471-2.155-.46-.65-1.421-.65-.97 0-1.441.65-.46.65-.461 2.137 0 1.449.461 2.118.462.668 1.441.668m6.996.829q-.772 0-1.318-.264a2.44 2.44 0 0 1-.875-.734 3.1 3.1 0 0 1-.481-1.064q-.15-.612-.15-1.29v-.508q0-.95.292-1.714.301-.762.922-1.205.631-.451 1.61-.451t1.601.451q.62.443.913 1.205.301.763.301 1.714v.508q0 .678-.151 1.29a3 3 0 0 1-.489 1.064q-.33.46-.866.734-.537.264-1.309.264m0-.829q.98 0 1.431-.659.462-.668.462-2.109 0-1.506-.471-2.155-.462-.65-1.422-.65-.969 0-1.44.65-.462.65-.462 2.137 0 1.449.462 2.118.46.668 1.44.668m5.858.659 2.598-6.872h.715l-2.598 6.872zm-.509-3.182q-.536 0-.875-.245a1.45 1.45 0 0 1-.49-.649q-.15-.405-.151-.876v-.244q0-.509.16-.904.16-.405.499-.631.34-.235.857-.235.527 0 .857.235.339.226.499.631.16.395.16.904v.244q0 .471-.16.876a1.4 1.4 0 0 1-.48.649q-.33.245-.876.245m0-.621q.433 0 .64-.311.217-.32.217-.951 0-.667-.217-.969-.216-.31-.64-.311-.423 0-.64.311-.216.302-.217.96 0 .63.208.951.216.32.649.32m4.293 3.898q-.536 0-.875-.245a1.46 1.46 0 0 1-.49-.65q-.15-.405-.151-.875v-.245q0-.508.16-.904.161-.405.499-.631.34-.235.857-.235.527 0 .857.235.339.226.499.631.16.396.16.904v.245q0 .47-.16.875-.151.405-.48.65-.33.245-.876.245m0-.622q.433 0 .64-.311.217-.32.217-.95 0-.669-.217-.97-.216-.31-.64-.311-.424 0-.64.311-.216.302-.217.96 0 .631.208.951.216.32.649.32"/><path stroke="#282828" stroke-linecap="round" stroke-linejoin="round" stroke-width="1.009" d="m749.184 476.185 3.026 3.026"/><path stroke="#282828" stroke-linejoin="round" stroke-width="1.009" d="M750.866 471.814a6.052 6.052 0 1 0-12.104 0 6.052 6.052 0 0 0 12.104 0Z"/><path stroke="#282828" stroke-linecap="round" stroke-linejoin="round" stroke-width="1.009" d="M742.458 471.814h4.708m-2.354-2.354v4.708"/><path stroke="#EEE" stroke-width=".672" d="M763.305 459.71v25.554"/><rect width="23.536" height="23.536" x="768.685" y="460.719" fill="url(#w)" stroke="#fff" stroke-width=".672" rx="5.043"/><g stroke="#282828" clip-path="url(#x)"><circle cx="780.602" cy="472.15" r="6.725" stroke-width="1.009"/><path stroke-linecap="round" stroke-width="1.009" d="M779.257 470.133a1.345 1.345 0 1 1 2.477.727c-.402.624-1.132 1.22-1.132 1.963v.336"/><path stroke-linecap="round" stroke-linejoin="round" stroke-width="1.345" d="M780.596 475.513h.006"/></g></g><path fill="#FFD084" d="M268 69h283.631v28H268z"/><path fill="#000" d="M312.301 87.209q-1.122 0-1.892-.429a2.9 2.9 0 0 1-1.177-1.199q-.396-.781-.396-1.826V78.97h1.562v4.873q0 .572.22 1.012.22.43.638.671.429.231 1.045.231.605 0 1.023-.231a1.52 1.52 0 0 0 .638-.671q.22-.429.22-1.012V78.97h1.562v4.785q0 1.045-.396 1.826a2.77 2.77 0 0 1-1.155 1.199q-.77.429-1.892.429m5.272-.209v-8.03h2.134l2.013 4.796h.198l2.002-4.796h2.167V87h-1.551v-6.853l.198.022-2.167 5.192h-1.595l-2.178-5.192.209-.022V87zm10.495 0v-8.03h1.562V87zm1.342 0v-1.375h3.465V87zm9.851.209q-1.066 0-1.804-.341-.726-.34-1.111-.935a2.5 2.5 0 0 1-.385-1.364h1.529q0 .32.176.627.177.297.561.484.396.187 1.034.187.573 0 .957-.165.386-.165.572-.429.187-.275.187-.616a.79.79 0 0 0-.363-.682q-.363-.264-1.122-.33l-.704-.055q-1.155-.099-1.848-.715-.682-.627-.682-1.65 0-.77.363-1.32a2.33 2.33 0 0 1 1.012-.858q.66-.308 1.54-.308.913 0 1.573.319t1.023.902q.363.572.363 1.353h-1.529q0-.33-.165-.605a1.1 1.1 0 0 0-.473-.451q-.307-.176-.792-.176-.462 0-.77.154a1.08 1.08 0 0 0-.616.99q0 .375.275.66.275.275.869.319l.704.066q.858.066 1.507.363.65.297 1.001.803.363.505.363 1.221 0 .759-.396 1.342-.396.571-1.133.891-.726.32-1.716.319m8.171-.209v-1.771h-.253V83.26q0-.517-.253-.77-.252-.253-.781-.253-.274 0-.66.011-.385.01-.781.033-.384.01-.693.033v-1.298q.254-.023.572-.044.32-.022.649-.022.342-.01.638-.011.924 0 1.529.242.617.242.924.759.32.518.319 1.353V87zm-1.925.154a2.7 2.7 0 0 1-1.144-.231 1.8 1.8 0 0 1-.759-.66q-.264-.428-.264-1.034 0-.66.319-1.078.33-.419.913-.627.594-.21 1.386-.209h1.386v.913h-1.408q-.528 0-.814.264a.86.86 0 0 0-.275.66q0 .406.275.66.286.253.814.253a1.5 1.5 0 0 0 .583-.11q.276-.12.451-.396.188-.285.209-.77l.374.429q-.054.627-.308 1.056a1.64 1.64 0 0 1-.682.66q-.429.22-1.056.22M350.28 87v-5.973h1.21v2.563h-.11q0-.902.231-1.507.23-.616.682-.924.462-.32 1.144-.319h.066q.693 0 1.144.319.462.307.682.924.231.605.231 1.507h-.385q0-.902.231-1.507.242-.616.693-.924.462-.32 1.144-.319h.066q.693 0 1.155.319.462.307.693.924.242.605.242 1.507V87h-1.529v-3.553q0-.561-.286-.891-.286-.34-.814-.341-.528 0-.847.352-.32.34-.319.924V87h-1.529v-3.553q0-.561-.286-.891-.286-.34-.814-.341-.528 0-.847.352-.32.34-.319.924V87zm10.753 2.2v-8.173h1.21v2.574l-.187-.011q.044-.913.374-1.529.34-.615.902-.913a2.56 2.56 0 0 1 1.254-.308q.638 0 1.144.231.517.23.88.649.374.418.572.979.198.55.198 1.188v.231q0 .65-.198 1.21a2.9 2.9 0 0 1-.561.979 2.6 2.6 0 0 1-.88.66q-.518.231-1.155.231-.67 0-1.232-.275a2.2 2.2 0 0 1-.891-.869q-.341-.594-.385-1.529l.484.737V89.2zm3.168-3.289q.495 0 .858-.242.374-.242.583-.671.209-.44.209-.99 0-.572-.209-.99a1.57 1.57 0 0 0-.583-.649 1.5 1.5 0 0 0-.858-.242q-.451 0-.836.198a1.6 1.6 0 0 0-.616.583q-.231.385-.231.924v.44q0 .517.242.88.241.363.627.561.385.198.814.198m4.6 1.089v-8.03h1.529V87zm-.748-6.886V78.97h2.277v1.144zm6.696 7.095q-.77 0-1.353-.264-.571-.263-.957-.704-.374-.45-.572-1.001a3.5 3.5 0 0 1-.187-1.122v-.209q0-.594.187-1.144.198-.561.572-.99.385-.44.946-.693.561-.264 1.298-.264.968 0 1.617.429.66.418.99 1.111.33.682.33 1.474v.55h-5.291v-.935h4.334l-.473.462q0-.572-.165-.979a1.3 1.3 0 0 0-.506-.627q-.33-.22-.836-.22-.505 0-.858.231a1.46 1.46 0 0 0-.539.671q-.176.428-.176 1.034 0 .561.176 1.001.176.429.539.682.363.242.924.242.56 0 .913-.22.352-.231.451-.561h1.408q-.132.615-.506 1.078a2.5 2.5 0 0 1-.957.715 3.2 3.2 0 0 1-1.309.253m3.84-2.629v-1.342h4.455v1.342zm7.347-.044v-1.353h1.562q.472 0 .792-.187.33-.187.495-.517.176-.33.176-.759t-.176-.759a1.14 1.14 0 0 0-.495-.506q-.32-.187-.792-.187h-1.562v-1.353h1.43q1.011 0 1.716.33.714.33 1.089.946.374.605.374 1.441v.176q0 .836-.374 1.452-.375.605-1.089.946-.705.33-1.716.33zM384.594 87v-8.085h1.562V87zm7.162 0v-5.973h1.21v2.53h-.033q0-1.287.55-1.947.549-.66 1.617-.66h.22v1.331h-.418q-.77 0-1.199.418-.418.407-.418 1.188V87zm7.415.209q-.792 0-1.397-.253a3 3 0 0 1-1.023-.682 3.1 3.1 0 0 1-.638-.99 3.2 3.2 0 0 1-.209-1.144v-.231q0-.616.22-1.166.23-.561.649-.99.428-.44 1.034-.682a3.5 3.5 0 0 1 1.364-.253q.758 0 1.364.253.605.242 1.023.682.429.429.649.99.22.55.22 1.166v.231q0 .594-.22 1.144-.21.55-.627.99-.418.429-1.023.682a3.6 3.6 0 0 1-1.386.253m0-1.309q.56 0 .946-.242a1.6 1.6 0 0 0 .583-.671q.198-.43.198-.968 0-.55-.209-.968a1.5 1.5 0 0 0-.594-.671q-.385-.253-.924-.253-.54 0-.935.253a1.6 1.6 0 0 0-.594.671q-.21.418-.209.968 0 .54.198.968.209.418.594.671.385.242.946.242m7.245 1.309q-.78 0-1.353-.264a2.9 2.9 0 0 1-.946-.704 3 3 0 0 1-.561-.99 3.5 3.5 0 0 1-.187-1.122v-.209q0-.605.187-1.155.198-.561.583-.99.385-.44.946-.693.573-.264 1.32-.264.782 0 1.397.308.616.297.979.836.375.54.418 1.254h-1.485a1.2 1.2 0 0 0-.396-.77q-.33-.308-.913-.308-.505 0-.847.242-.33.242-.495.671-.165.418-.165.968 0 .528.154.957.165.43.495.671.341.242.869.242.397 0 .682-.143.286-.142.451-.396.177-.254.22-.572h1.485a2.43 2.43 0 0 1-.429 1.276 2.57 2.57 0 0 1-1.001.847q-.615.308-1.408.308m6.736 0q-.77 0-1.353-.264-.572-.263-.957-.704-.374-.45-.572-1.001a3.5 3.5 0 0 1-.187-1.122v-.209q0-.594.187-1.144.198-.561.572-.99.385-.44.946-.693.561-.264 1.298-.264.969 0 1.617.429.66.418.99 1.111.33.682.33 1.474v.55h-5.291v-.935h4.334l-.473.462q0-.572-.165-.979a1.3 1.3 0 0 0-.506-.627q-.33-.22-.836-.22-.505 0-.858.231a1.46 1.46 0 0 0-.539.671q-.176.428-.176 1.034 0 .561.176 1.001.176.429.539.682.363.242.924.242t.913-.22q.352-.231.451-.561h1.408a2.5 2.5 0 0 1-.506 1.078 2.5 2.5 0 0 1-.957.715 3.2 3.2 0 0 1-1.309.253m6.316-.022q-1.233 0-1.936-.517-.693-.528-.726-1.452h1.375q.032.307.341.561.308.253.968.253.55 0 .869-.198.33-.198.33-.539a.55.55 0 0 0-.253-.473q-.242-.175-.836-.231l-.528-.055q-1.002-.11-1.54-.572-.54-.462-.539-1.232 0-.615.308-1.034.307-.418.847-.627a3.4 3.4 0 0 1 1.254-.22q1.1 0 1.782.484t.715 1.419h-1.375q-.023-.307-.308-.528-.287-.22-.825-.22-.484 0-.748.187a.57.57 0 0 0-.264.484q0 .285.209.44.22.154.704.209l.528.055q1.056.11 1.65.583.605.472.605 1.276 0 .593-.33 1.034-.32.43-.902.671t-1.375.242m6.037 0q-1.233 0-1.936-.517-.693-.528-.726-1.452h1.375q.032.307.341.561.308.253.968.253.55 0 .869-.198.33-.198.33-.539a.55.55 0 0 0-.253-.473q-.242-.175-.836-.231l-.528-.055q-1.002-.11-1.54-.572-.54-.462-.539-1.232 0-.615.308-1.034.307-.418.847-.627a3.4 3.4 0 0 1 1.254-.22q1.1 0 1.782.484t.715 1.419h-1.375q-.023-.307-.308-.528-.286-.22-.825-.22-.484 0-.748.187a.57.57 0 0 0-.264.484q0 .285.209.44.22.154.704.209l.528.055q1.056.11 1.65.583.605.472.605 1.276 0 .593-.33 1.034-.32.43-.902.671t-1.375.242m3.562-2.607v-1.342h4.455v1.342zm6.004 2.42v-8.03h1.562V87zm1.342-3.344v-1.32l3.212-.011v1.32zm0-3.366v-1.32h3.366v1.32zm4.834 6.71v-8.03h1.529V87zm-.748-6.886V78.97h2.277v1.144zm6.893 7.095q-.791 0-1.397-.253a3.1 3.1 0 0 1-1.023-.682 3.1 3.1 0 0 1-.638-.99 3.2 3.2 0 0 1-.209-1.144v-.231q0-.616.22-1.166.231-.561.649-.99.43-.44 1.034-.682a3.5 3.5 0 0 1 1.364-.253q.76 0 1.364.253.606.242 1.023.682.43.429.649.99.22.55.22 1.166v.231q0 .594-.22 1.144a2.9 2.9 0 0 1-.627.99 3 3 0 0 1-1.023.682q-.605.253-1.386.253m0-1.309q.562 0 .946-.242.385-.253.583-.671.198-.43.198-.968 0-.55-.209-.968a1.5 1.5 0 0 0-.594-.671q-.384-.253-.924-.253a1.7 1.7 0 0 0-.935.253 1.6 1.6 0 0 0-.594.671 2.14 2.14 0 0 0-.209.968q0 .54.198.968.21.418.594.671.385.242.946.242m6.512 1.1 1.133-5.775h1.76L458.106 87h-1.21l-1.331-5.742h.638L455.026 87zm-.451 0-.011-1.254h1.221V87zm-.616 0-1.628-5.973h1.485L454.245 87zm4.444 0v-1.254h1.221L458.491 87zm.484 0 1.375-5.973h1.386L459.085 87zm7.802.044v-1.452h1.661q.627 0 1.111-.187a2.4 2.4 0 0 0 .836-.55q.342-.353.517-.825a2.9 2.9 0 0 0 .187-1.067q0-.605-.187-1.078a2.2 2.2 0 0 0-.517-.825 2.2 2.2 0 0 0-.836-.517 3.2 3.2 0 0 0-1.111-.176h-1.661v-1.452h1.562q1.09 0 1.903.319.815.32 1.353.88.54.55.803 1.265.275.704.275 1.463v.242q0 .725-.275 1.43-.263.705-.803 1.276-.538.572-1.353.913-.813.34-1.903.341zm-1.342 0v-8.129h1.562v8.129zm8.802-.044v-5.973h1.529V87zm-.836-4.829v-1.144h2.365v1.144zm1.397-1.859q-.451 0-.671-.231a.88.88 0 0 1-.209-.594q0-.374.209-.605.22-.231.671-.231t.66.231.209.605q0 .353-.209.594-.209.231-.66.231M479.937 87v-1.771h-.253V83.26q0-.517-.253-.77-.252-.253-.781-.253-.274 0-.66.011-.384.01-.781.033-.384.01-.693.033v-1.298q.254-.023.572-.044.32-.022.649-.022.341-.01.638-.011.924 0 1.529.242.616.242.924.759.32.518.319 1.353V87zm-1.925.154a2.7 2.7 0 0 1-1.144-.231 1.8 1.8 0 0 1-.759-.66q-.264-.428-.264-1.034 0-.66.319-1.078.33-.419.913-.627.594-.21 1.386-.209h1.386v.913h-1.408q-.528 0-.814.264a.86.86 0 0 0-.275.66q0 .406.275.66.286.253.814.253a1.5 1.5 0 0 0 .583-.11q.276-.12.451-.396.188-.285.209-.77l.374.429q-.054.627-.308 1.056a1.64 1.64 0 0 1-.682.66q-.429.22-1.056.22m7.105 2.2a12 12 0 0 1-1.705-.121v-1.276q.396.045.847.077.451.045.847.044.736 0 1.188-.176.462-.175.671-.561.22-.374.22-.957v-1.177l.33-.748q-.033.825-.341 1.408a2.2 2.2 0 0 1-.836.88 2.45 2.45 0 0 1-1.221.297q-.617 0-1.122-.231a2.6 2.6 0 0 1-.858-.638 3 3 0 0 1-.55-.957 3.5 3.5 0 0 1-.198-1.177v-.231q0-.627.198-1.166.209-.55.583-.957.373-.407.891-.627.517-.22 1.144-.22.737 0 1.276.319.55.319.858.924t.341 1.485l-.264.044v-2.585h1.21v5.269q0 1.09-.374 1.76-.373.671-1.155.979-.77.32-1.98.319m.44-3.619q.44 0 .803-.198t.583-.572.22-.902v-.385q0-.506-.231-.858a1.4 1.4 0 0 0-.583-.528 1.7 1.7 0 0 0-.792-.187q-.484 0-.858.231a1.53 1.53 0 0 0-.572.627q-.209.407-.209.968 0 .55.209.957t.572.627q.374.22.858.22M490.294 87v-5.973h1.21v2.53h-.033q0-1.287.55-1.947.549-.66 1.617-.66h.22v1.331h-.418q-.77 0-1.199.418-.418.407-.418 1.188V87zm8.173 0v-1.771h-.253V83.26q0-.517-.253-.77t-.781-.253q-.275 0-.66.011t-.781.033q-.384.01-.693.033v-1.298q.254-.023.572-.044.32-.022.649-.022.342-.01.638-.011.924 0 1.529.242.617.242.924.759.32.518.319 1.353V87zm-1.925.154a2.7 2.7 0 0 1-1.144-.231 1.8 1.8 0 0 1-.759-.66q-.264-.428-.264-1.034 0-.66.319-1.078.33-.419.913-.627.594-.21 1.386-.209h1.386v.913h-1.408q-.528 0-.814.264a.86.86 0 0 0-.275.66q0 .406.275.66.286.253.814.253a1.5 1.5 0 0 0 .583-.11q.276-.12.451-.396.188-.285.209-.77l.374.429q-.054.627-.308 1.056a1.64 1.64 0 0 1-.682.66q-.429.22-1.056.22m4.773-.154v-5.973h1.21v2.563h-.11q0-.902.231-1.507.232-.616.682-.924.462-.32 1.144-.319h.066q.693 0 1.144.319.462.307.682.924.231.605.231 1.507h-.385q0-.902.231-1.507.243-.616.693-.924.462-.32 1.144-.319h.066q.693 0 1.155.319.462.307.693.924.243.605.242 1.507V87h-1.529v-3.553q0-.561-.286-.891-.286-.34-.814-.341-.528 0-.847.352-.319.34-.319.924V87h-1.529v-3.553q0-.561-.286-.891-.286-.34-.814-.341-.528 0-.847.352-.319.34-.319.924V87z"/><path fill="#6E7E91" d="m303.166 187.6-4.377-2.527v5.054zm-48.149.438h44.21v-.875h-44.21zm152.326-.438-4.378-2.527v5.054zm-48.587.438h44.647v-.875h-44.647zm2.147 126.501-4.377-2.527v5.054zm-47.282.437h43.343v-.875h-43.343zm-10.016 101.741-4.378-2.527v5.054zm-15.577.438h11.637v-.875h-11.637zm-6.972-7.848v-60.885h-.875v60.885zm6.972 6.973a6.973 6.973 0 0 1-6.972-6.973h-.875a7.85 7.85 0 0 0 7.847 7.848zm123.255-.437-4.378-2.527v5.054zm-28.452.438h24.513v-.875h-24.513zm122.779-.438-4.378-2.527v5.055zm-22.105.439h18.165v-.876h-18.165zm-8.316-101.743-4.378-2.527v5.054zm-34.297.437h30.357v-.875h-30.357zM510.206 187.6l-4.378-2.527v5.054zm-50.138.438h46.198v-.875h-46.198zm-116.194-26.919 2.527-4.378h-5.055zm204.851-6.412v-35.86h-.876l.001 35.86zM540.877 111H351.283v.876h189.594zm-197.442 7.848v38.332h.876v-38.332zm7.848-7.848a7.85 7.85 0 0 0-7.848 7.848h.876a6.98 6.98 0 0 1 4.304-6.441 7 7 0 0 1 2.668-.531zm197.442 7.847a7.85 7.85 0 0 0-7.848-7.847v.876a6.97 6.97 0 0 1 6.972 6.971zm-268.32 157.324-2.527-4.377h5.054zm268.525-52.157v18.494h-.876v-18.494zm-7.848 26.341H287.815v-.875h253.267zm-260.239 6.973v14.904h-.875v-14.904zm6.972-6.973a6.97 6.97 0 0 0-6.972 6.973h-.875a7.847 7.847 0 0 1 7.847-7.848zm261.115-7.847a7.847 7.847 0 0 1-7.848 7.847v-.875a6.973 6.973 0 0 0 6.972-6.972zM342.312 391.254l-2.528-4.377h5.055zm171.463-42.033v8.893h-.876v-8.893zm-7.848 16.74H349.721v-.875h156.206zm-163.178 6.972v14.382h-.875v-14.382zm6.972-6.972a6.97 6.97 0 0 0-6.972 6.972h-.875a7.847 7.847 0 0 1 7.847-7.847zm164.054-7.847a7.85 7.85 0 0 1-7.848 7.847v-.875a6.975 6.975 0 0 0 6.972-6.972z"/><path stroke="#6E7E91" stroke-width=".875" d="M409.531 111.438h206.853a7.41 7.41 0 0 1 7.41 7.409v188.281a7.41 7.41 0 0 1-7.41 7.411H551.13"/><path fill="#FBDAEB" stroke="#EC4899" stroke-width="1.5" d="m276.055 277.942-31.81 31.811a6.44 6.44 0 0 0 0 9.108l31.811 31.81a6.44 6.44 0 0 0 9.108-.001l31.809-31.81a6.44 6.44 0 0 0 0-9.108l-31.811-31.81a6.44 6.44 0 0 0-9.107 0ZM508.772 278.38l-31.81 31.811a6.44 6.44 0 0 0 .001 9.108l31.81 31.81a6.44 6.44 0 0 0 9.108-.001l31.81-31.81a6.44 6.44 0 0 0 0-9.108l-31.811-31.81a6.44 6.44 0 0 0-9.108 0ZM543.928 151.005l-31.809 31.811a6.44 6.44 0 0 0 0 9.108l31.811 31.81a6.44 6.44 0 0 0 9.107-.001l31.81-31.81a6.44 6.44 0 0 0 0-9.108l-31.811-31.81a6.44 6.44 0 0 0-9.108 0Z"/><path fill="#F4F8FE" d="M344.736 307.538h-14.857a2.2 2.2 0 0 0-2.199 2.199v9.604c0 1.215.984 2.199 2.199 2.199h14.857a2.2 2.2 0 0 0 2.199-2.199v-9.604a2.2 2.2 0 0 0-2.199-2.199"/><path stroke="#DEE9FE" stroke-width=".879" d="M344.736 307.538h-14.857a2.2 2.2 0 0 0-2.199 2.199v9.604c0 1.215.984 2.199 2.199 2.199h14.857a2.2 2.2 0 0 0 2.199-2.199v-9.604a2.2 2.2 0 0 0-2.199-2.199Z"/><path fill="#F4F8FE" d="M440.595 242.317h-14.856a2.2 2.2 0 0 0-2.199 2.2v9.604c0 1.214.984 2.199 2.199 2.199h14.856a2.2 2.2 0 0 0 2.2-2.199v-9.604a2.2 2.2 0 0 0-2.2-2.2"/><path stroke="#DEE9FE" stroke-width=".879" d="M440.595 242.317h-14.856a2.2 2.2 0 0 0-2.199 2.2v9.604c0 1.214.984 2.199 2.199 2.199h14.856a2.2 2.2 0 0 0 2.2-2.199v-9.604a2.2 2.2 0 0 0-2.2-2.2Z"/><path fill="#F4F8FE" d="M440.595 358.947h-14.856a2.2 2.2 0 0 0-2.199 2.2v9.603a2.2 2.2 0 0 0 2.199 2.2h14.856a2.2 2.2 0 0 0 2.2-2.2v-9.603a2.2 2.2 0 0 0-2.2-2.2"/><path stroke="#DEE9FE" stroke-width=".879" d="M440.595 358.947h-14.856a2.2 2.2 0 0 0-2.199 2.2v9.603a2.2 2.2 0 0 0 2.199 2.2h14.856a2.2 2.2 0 0 0 2.2-2.2v-9.603a2.2 2.2 0 0 0-2.2-2.2Z"/><path fill="#FF9DFD" stroke="#FF6BFD" stroke-width=".781" d="M309.294 162.166h67.895a5.74 5.74 0 0 1 5.737 5.737v39.449a5.74 5.74 0 0 1-5.737 5.737h-67.895a5.737 5.737 0 0 1-5.737-5.737v-39.449a5.737 5.737 0 0 1 5.737-5.737Z"/><path fill="#E8DEFD" stroke="#9469F7" stroke-width="1.5" d="M377.189 161.463h-67.895a6.44 6.44 0 0 0-6.44 6.441v39.447a6.44 6.44 0 0 0 6.44 6.441h67.895a6.44 6.44 0 0 0 6.44-6.441v-39.447a6.44 6.44 0 0 0-6.44-6.441ZM434.918 288.402h-67.846a6.88 6.88 0 0 0-6.878 6.878v38.957a6.88 6.88 0 0 0 6.878 6.878h67.846a6.88 6.88 0 0 0 6.878-6.878V295.28a6.88 6.88 0 0 0-6.878-6.878Z"/><path stroke="#000" stroke-linecap="square" stroke-miterlimit="10" stroke-opacity=".12" stroke-width=".875" d="M434.919 289.589h-67.847a5.69 5.69 0 0 0-5.69 5.69v38.957a5.69 5.69 0 0 0 5.69 5.69h67.847a5.69 5.69 0 0 0 5.69-5.69v-38.957a5.69 5.69 0 0 0-5.69-5.69Z"/><path fill="#FF9DFD" d="M377.578 391.14h-67.846a6.13 6.13 0 0 0-6.128 6.128v39.395a6.13 6.13 0 0 0 6.128 6.128h67.846a6.13 6.13 0 0 0 6.128-6.128v-39.395a6.13 6.13 0 0 0-6.128-6.128"/><path fill="#E8DEFD" stroke="#9469F7" stroke-width="1.5" d="M377.578 390.827h-67.846a6.44 6.44 0 0 0-6.44 6.44v39.395a6.44 6.44 0 0 0 6.44 6.441h67.846a6.44 6.44 0 0 0 6.441-6.441v-39.395a6.44 6.44 0 0 0-6.441-6.44Z"/><path fill="#FF9DFD" stroke="#E05EDF" stroke-width=".781" d="M413.47 162.166h67.895a5.737 5.737 0 0 1 5.737 5.737v39.449a5.737 5.737 0 0 1-5.737 5.737H413.47a5.737 5.737 0 0 1-5.737-5.737v-39.449a5.737 5.737 0 0 1 5.737-5.737Z"/><path fill="#E8DEFD" stroke="#9469F7" stroke-width="1.5" d="M481.366 161.463H413.47a6.44 6.44 0 0 0-6.44 6.441v39.447a6.44 6.44 0 0 0 6.44 6.441h67.896a6.44 6.44 0 0 0 6.44-6.441v-39.447a6.44 6.44 0 0 0-6.44-6.441Z"/><path fill="#FF9DFD" d="M477.378 391.216H417.41a6.13 6.13 0 0 0-6.128 6.128v38.957a6.13 6.13 0 0 0 6.128 6.128h59.968a6.13 6.13 0 0 0 6.128-6.128v-38.957a6.13 6.13 0 0 0-6.128-6.128"/><path fill="#E8DEFD" stroke="#9469F7" stroke-width="1.5" d="M477.377 390.827h-59.968a6.44 6.44 0 0 0-6.44 6.44v38.957a6.44 6.44 0 0 0 6.44 6.44h59.968a6.44 6.44 0 0 0 6.44-6.44v-38.957a6.44 6.44 0 0 0-6.44-6.44Z"/><path fill="#FBDAEB" stroke="#EC4899" stroke-width="1.5" d="M256.659 161.323h-36.313c-14.413 0-26.096 11.683-26.096 26.095s11.683 26.095 26.096 26.095h36.313c14.412 0 26.096-11.683 26.096-26.095s-11.684-26.095-26.096-26.095ZM566.659 390.25h-36.313c-14.413 0-26.096 11.683-26.096 26.095s11.683 26.095 26.096 26.095h36.313c14.412 0 26.096-11.683 26.096-26.095s-11.684-26.095-26.096-26.095Z"/><path fill="#000" d="m493.191 317 1.992-5.84h1.856l2.048 5.84h-1.168l-1.736-5.064.408.176h-1l.416-.176-1.68 5.064zm1.392-1.552.36-.96h2.368l.352.96zm5.283 3.152v-5.944h.88v1.872l-.136-.008q.033-.664.272-1.112.248-.448.656-.664.408-.224.912-.224.465 0 .832.168.376.168.64.472.273.304.416.712.144.4.144.864v.168q0 .472-.144.88-.135.4-.408.712a1.9 1.9 0 0 1-.64.48q-.375.168-.84.168-.488 0-.896-.2a1.6 1.6 0 0 1-.648-.632q-.247-.432-.28-1.112l.352.536v2.864zm2.304-2.392q.36 0 .624-.176.273-.176.424-.488.152-.32.152-.72 0-.416-.152-.72a1.13 1.13 0 0 0-.424-.472 1.1 1.1 0 0 0-.624-.176q-.327 0-.608.144a1.2 1.2 0 0 0-.448.424 1.3 1.3 0 0 0-.168.672v.32q0 .376.176.64.177.264.456.408.28.144.592.144m3.29 2.392v-5.944h.88v1.872l-.136-.008q.032-.664.272-1.112.248-.448.656-.664.408-.224.912-.224.464 0 .832.168.376.168.64.472.272.304.416.712.144.4.144.864v.168q0 .472-.144.88a2.1 2.1 0 0 1-.408.712 1.9 1.9 0 0 1-.64.48 2 2 0 0 1-.84.168q-.488 0-.896-.2a1.6 1.6 0 0 1-.648-.632q-.248-.432-.28-1.112l.352.536v2.864zm2.304-2.392q.36 0 .624-.176.272-.176.424-.488a1.7 1.7 0 0 0 .152-.72q0-.416-.152-.72a1.14 1.14 0 0 0-.424-.472 1.1 1.1 0 0 0-.624-.176 1.3 1.3 0 0 0-.608.144 1.2 1.2 0 0 0-.448.424 1.3 1.3 0 0 0-.168.672v.32a1.13 1.13 0 0 0 .632 1.048q.28.144.592.144m3.29.792v-4.344h.88v1.84h-.024q0-.936.4-1.416t1.176-.48h.16v.968h-.304q-.56 0-.872.304-.304.296-.304.864V317zm5.393.152q-.576 0-1.016-.184a2.2 2.2 0 0 1-.744-.496 2.2 2.2 0 0 1-.464-.72 2.3 2.3 0 0 1-.152-.832v-.168q0-.448.16-.848.168-.408.472-.72.311-.32.752-.496.44-.184.992-.184t.992.184q.44.176.744.496.312.312.472.72.16.4.16.848v.168q0 .432-.16.832a2.2 2.2 0 0 1-.456.72 2.2 2.2 0 0 1-.744.496q-.441.184-1.008.184m0-.952q.408 0 .688-.176a1.2 1.2 0 0 0 .424-.488q.144-.312.144-.704 0-.4-.152-.704a1.1 1.1 0 0 0-.432-.488 1.2 1.2 0 0 0-.672-.184q-.393 0-.68.184-.28.176-.432.488a1.55 1.55 0 0 0-.152.704q0 .392.144.704.151.304.432.488.28.176.688.176m4.12.8-1.36-4.344h1.144l1.304 4.344zm.328 0v-.912h1.176V317zm.44 0 1.12-4.344h1.072L522.351 317zm4.882.152a2.4 2.4 0 0 1-.984-.192 2.05 2.05 0 0 1-.696-.512 2.4 2.4 0 0 1-.416-.728 2.5 2.5 0 0 1-.136-.816v-.152q0-.432.136-.832.144-.408.416-.72.28-.32.688-.504.408-.192.944-.192.704 0 1.176.312.48.304.72.808.24.496.24 1.072v.4h-3.848v-.68h3.152l-.344.336q0-.416-.12-.712a.96.96 0 0 0-.368-.456q-.24-.16-.608-.16a1.1 1.1 0 0 0-.624.168 1.06 1.06 0 0 0-.392.488 2 2 0 0 0-.128.752q0 .408.128.728.128.312.392.496.264.176.672.176t.664-.16a.75.75 0 0 0 .328-.408h1.024a1.84 1.84 0 0 1-.368.784 1.8 1.8 0 0 1-.696.52 2.3 2.3 0 0 1-.952.184m3.755-2.04v-1.424h.68q.48 0 .704-.248a.9.9 0 0 0 .232-.624.94.94 0 0 0-.104-.456.7.7 0 0 0-.304-.304 1 1 0 0 0-.464-.104 1 1 0 0 0-.496.12.86.86 0 0 0-.312.32.94.94 0 0 0-.112.464h-1.064q0-.512.232-.936.233-.425.68-.672.448-.256 1.096-.256.593 0 1.016.232.433.224.664.616t.232.888v.096q0 .488-.232.872a1.6 1.6 0 0 1-.688.608q-.447.216-1.096.232l.456-.416-.016.992zm-.088 1.888v-1.184h1.28V317zM529.191 189l1.992-5.84h1.856l2.048 5.84h-1.168l-1.736-5.064.408.176h-1l.416-.176-1.68 5.064zm1.392-1.552.36-.96h2.368l.352.96zm5.283 3.152v-5.944h.88v1.872l-.136-.008q.032-.664.272-1.112.249-.448.656-.664.408-.224.912-.224.465 0 .832.168.376.168.64.472.273.304.416.712.144.4.144.864v.168q0 .472-.144.88-.135.4-.408.712a1.9 1.9 0 0 1-.64.48q-.375.168-.84.168-.488 0-.896-.2a1.6 1.6 0 0 1-.648-.632q-.247-.432-.28-1.112l.352.536v2.864zm2.304-2.392q.36 0 .624-.176.273-.176.424-.488.153-.32.152-.72 0-.416-.152-.72a1.13 1.13 0 0 0-.424-.472 1.1 1.1 0 0 0-.624-.176q-.327 0-.608.144a1.2 1.2 0 0 0-.448.424 1.3 1.3 0 0 0-.168.672v.32q0 .376.176.64.177.264.456.408.28.144.592.144m3.29 2.392v-5.944h.88v1.872l-.136-.008q.032-.664.272-1.112.248-.448.656-.664.408-.224.912-.224.464 0 .832.168.376.168.64.472.272.304.416.712.144.4.144.864v.168q0 .472-.144.88a2.1 2.1 0 0 1-.408.712 1.9 1.9 0 0 1-.64.48 2 2 0 0 1-.84.168q-.488 0-.896-.2a1.6 1.6 0 0 1-.648-.632q-.248-.432-.28-1.112l.352.536v2.864zm2.304-2.392q.36 0 .624-.176.272-.176.424-.488a1.7 1.7 0 0 0 .152-.72q0-.416-.152-.72a1.14 1.14 0 0 0-.424-.472 1.1 1.1 0 0 0-.624-.176 1.3 1.3 0 0 0-.608.144 1.2 1.2 0 0 0-.448.424 1.3 1.3 0 0 0-.168.672v.32a1.13 1.13 0 0 0 .632 1.048q.28.144.592.144m3.29.792v-4.344h.88v1.84h-.024q0-.936.4-1.416t1.176-.48h.16v.968h-.304q-.56 0-.872.304-.304.296-.304.864V189zm5.393.152q-.576 0-1.016-.184a2.2 2.2 0 0 1-.744-.496 2.2 2.2 0 0 1-.464-.72 2.3 2.3 0 0 1-.152-.832v-.168q0-.448.16-.848.168-.408.472-.72.311-.32.752-.496.44-.184.992-.184t.992.184q.44.176.744.496.312.312.472.72.16.4.16.848v.168q0 .432-.16.832a2.2 2.2 0 0 1-.456.72 2.2 2.2 0 0 1-.744.496q-.441.184-1.008.184m0-.952q.408 0 .688-.176a1.2 1.2 0 0 0 .424-.488q.144-.312.144-.704 0-.4-.152-.704a1.1 1.1 0 0 0-.432-.488 1.2 1.2 0 0 0-.672-.184q-.393 0-.68.184-.28.176-.432.488a1.55 1.55 0 0 0-.152.704q0 .392.144.704.151.304.432.488.28.176.688.176m4.12.8-1.36-4.344h1.144l1.304 4.344zm.328 0v-.912h1.176V189zm.44 0 1.12-4.344h1.072L558.351 189zm4.882.152a2.4 2.4 0 0 1-.984-.192 2.05 2.05 0 0 1-.696-.512 2.4 2.4 0 0 1-.416-.728 2.5 2.5 0 0 1-.136-.816v-.152q0-.432.136-.832.144-.408.416-.72.28-.32.688-.504.408-.192.944-.192.704 0 1.176.312.48.304.72.808.24.496.24 1.072v.4h-3.848v-.68h3.152l-.344.336q0-.416-.12-.712a.96.96 0 0 0-.368-.456q-.24-.16-.608-.16a1.1 1.1 0 0 0-.624.168 1.06 1.06 0 0 0-.392.488 2 2 0 0 0-.128.752q0 .408.128.728.128.312.392.496.264.176.672.176t.664-.16a.75.75 0 0 0 .328-.408h1.024a1.84 1.84 0 0 1-.368.784 1.8 1.8 0 0 1-.696.52 2.3 2.3 0 0 1-.952.184m3.755-2.04v-1.424h.68q.48 0 .704-.248a.9.9 0 0 0 .232-.624.94.94 0 0 0-.104-.456.7.7 0 0 0-.304-.304 1 1 0 0 0-.464-.104 1 1 0 0 0-.496.12.86.86 0 0 0-.312.32.94.94 0 0 0-.112.464h-1.064q0-.511.232-.936.233-.424.68-.672.448-.256 1.096-.256.593 0 1.016.232.433.224.664.616.232.391.232.888v.096q0 .488-.232.872a1.6 1.6 0 0 1-.688.608q-.447.216-1.096.232l.456-.416-.016.992zm-.088 1.888v-1.184h1.28V189zM264.054 305l1.992-5.84h1.856l2.048 5.84h-1.168l-1.736-5.064.408.176h-1l.416-.176-1.68 5.064zm1.392-1.552.36-.96h2.368l.352.96zM270.73 305v-4.344h.88v1.864h-.08q0-.656.168-1.096.168-.448.496-.672.336-.232.832-.232h.048q.504 0 .832.232.336.224.496.672.168.44.168 1.096h-.28q0-.656.168-1.096.175-.448.504-.672.336-.232.832-.232h.048q.504 0 .84.232.336.224.504.672.176.44.176 1.096V305h-1.112v-2.584q0-.408-.208-.648-.208-.248-.592-.248a.79.79 0 0 0-.616.256q-.232.248-.232.672V305h-1.112v-2.584q0-.408-.208-.648-.208-.248-.592-.248a.79.79 0 0 0-.616.256q-.232.248-.232.672V305zm9.908.152q-.576 0-1.016-.184a2.2 2.2 0 0 1-.744-.496 2.25 2.25 0 0 1-.464-.72 2.3 2.3 0 0 1-.152-.832v-.168q0-.448.16-.848.168-.408.472-.72.312-.32.752-.496.44-.184.992-.184t.992.184q.44.176.744.496.312.312.472.72.16.4.16.848v.168q0 .432-.16.832a2.1 2.1 0 0 1-.456.72 2.2 2.2 0 0 1-.744.496 2.6 2.6 0 0 1-1.008.184m0-.952q.408 0 .688-.176.28-.184.424-.488.144-.312.144-.704 0-.4-.152-.704a1.1 1.1 0 0 0-.432-.488 1.2 1.2 0 0 0-.672-.184q-.392 0-.68.184-.28.176-.432.488a1.56 1.56 0 0 0-.152.704q0 .392.144.704.151.304.432.488.28.176.688.176m4.822.936q-.753 0-1.168-.496-.408-.496-.408-1.472v-2.52h1.112v2.616q0 .4.224.64.224.232.608.232a.83.83 0 0 0 .624-.248q.248-.248.248-.672v-2.568h1.112V305h-.88v-1.848h.088q0 .656-.168 1.096t-.504.664-.84.224zm3.629-.136v-4.344h.88v1.864h-.08q0-.664.176-1.104.176-.448.52-.672.352-.224.872-.224h.048q.775 0 1.176.504.4.496.4 1.488V305h-1.112v-2.584q0-.4-.232-.648-.224-.248-.624-.248a.9.9 0 0 0-.664.256q-.248.248-.248.672V305zm7.076.056q-.6 0-.992-.152a1.12 1.12 0 0 1-.576-.528q-.192-.376-.192-1.008l.008-3.936h1.04l-.008 4.008q0 .32.168.496.175.168.496.168h.68v.952zm-2.448-3.584v-.816h3.072v.816zm-27.801 13.68q-.56 0-.984-.192a2.1 2.1 0 0 1-.696-.512 2.4 2.4 0 0 1-.416-.728 2.5 2.5 0 0 1-.136-.816v-.152q0-.432.136-.832.144-.408.416-.72.28-.32.688-.504.408-.192.944-.192.704 0 1.176.312.48.304.72.808.24.496.24 1.072v.4h-3.848v-.68h3.152l-.344.336q0-.416-.12-.712a.96.96 0 0 0-.368-.456q-.24-.16-.608-.16-.367 0-.624.168a1.06 1.06 0 0 0-.392.488 2 2 0 0 0-.128.752q0 .408.128.728.128.312.392.496.264.176.672.176t.664-.16a.75.75 0 0 0 .328-.408h1.024a1.84 1.84 0 0 1-.368.784 1.8 1.8 0 0 1-.696.52 2.3 2.3 0 0 1-.952.184m2.497-.152 1.416-2.32-.024.184-1.336-2.208h1.208l.872 1.528h.12l.824-1.528h1.136l-1.264 2.2.024-.16 1.496 2.304h-1.208l-1.032-1.64h-.12l-.976 1.64zm7.018.152q-.569 0-.984-.192a2.1 2.1 0 0 1-.688-.512 2.2 2.2 0 0 1-.408-.72 2.5 2.5 0 0 1-.136-.816v-.152q0-.44.136-.84a2.1 2.1 0 0 1 .424-.72q.28-.32.688-.504.416-.192.96-.192.568 0 1.016.224.448.216.712.608.272.392.304.912h-1.08a.87.87 0 0 0-.288-.56q-.24-.224-.664-.224a1.04 1.04 0 0 0-.616.176q-.24.176-.36.488-.12.304-.12.704 0 .384.112.696.12.312.36.488.248.176.632.176.288 0 .496-.104a.8.8 0 0 0 .328-.288.94.94 0 0 0 .16-.416h1.08a1.77 1.77 0 0 1-.312.928 1.87 1.87 0 0 1-.728.616q-.448.224-1.024.224m4.899 0q-.56 0-.984-.192a2.1 2.1 0 0 1-.696-.512 2.4 2.4 0 0 1-.416-.728 2.5 2.5 0 0 1-.136-.816v-.152q0-.432.136-.832.144-.408.416-.72.28-.32.688-.504.408-.192.944-.192.704 0 1.176.312.48.304.72.808.24.496.24 1.072v.4h-3.848v-.68h3.152l-.344.336q0-.416-.12-.712a.96.96 0 0 0-.368-.456q-.24-.16-.608-.16-.367 0-.624.168a1.06 1.06 0 0 0-.392.488 2 2 0 0 0-.128.752q0 .408.128.728.128.312.392.496.264.176.672.176t.664-.16a.75.75 0 0 0 .328-.408h1.024a1.84 1.84 0 0 1-.368.784 1.8 1.8 0 0 1-.696.52 2.3 2.3 0 0 1-.952.184m4.961 0q-.56 0-.984-.192a2.1 2.1 0 0 1-.696-.512 2.4 2.4 0 0 1-.416-.728 2.5 2.5 0 0 1-.136-.816v-.152q0-.432.136-.832.144-.408.416-.72.28-.32.688-.504.408-.192.944-.192.704 0 1.176.312.48.304.72.808.24.496.24 1.072v.4h-3.848v-.68h3.152l-.344.336q0-.416-.12-.712a.96.96 0 0 0-.368-.456q-.24-.16-.608-.16-.367 0-.624.168a1.06 1.06 0 0 0-.392.488 2 2 0 0 0-.128.752q0 .408.128.728.128.312.392.496.264.176.672.176t.664-.16a.75.75 0 0 0 .328-.408h1.024a1.84 1.84 0 0 1-.368.784 1.8 1.8 0 0 1-.696.52 2.3 2.3 0 0 1-.952.184m4.817-.008q-.456 0-.84-.168a1.95 1.95 0 0 1-.664-.472 2.2 2.2 0 0 1-.432-.704 2.5 2.5 0 0 1-.152-.88v-.168q0-.464.144-.872.152-.408.416-.712.272-.304.648-.472.383-.176.848-.176.512 0 .896.224.392.216.624.656t.256 1.104l-.328-.384v-2.96h1.112V315h-.88v-1.848h.192q-.024.664-.272 1.112a1.7 1.7 0 0 1-.656.664 1.9 1.9 0 0 1-.912.216m.248-.936q.327 0 .6-.144a1.1 1.1 0 0 0 .432-.432 1.3 1.3 0 0 0 .168-.672v-.32q0-.384-.168-.64a1.1 1.1 0 0 0-.44-.4 1.25 1.25 0 0 0-.592-.144q-.36 0-.64.176a1.17 1.17 0 0 0-.432.48 1.6 1.6 0 0 0-.152.728q0 .416.16.728.159.304.432.472.28.168.632.168m5.122.928q-.897 0-1.408-.376-.504-.384-.528-1.056h1q.024.224.248.408t.704.184q.4 0 .632-.144.24-.144.24-.392a.4.4 0 0 0-.184-.344q-.177-.127-.608-.168l-.384-.04q-.729-.08-1.12-.416t-.392-.896q0-.448.224-.752a1.34 1.34 0 0 1 .616-.456q.399-.16.912-.16.8 0 1.296.352.495.352.52 1.032h-1a.53.53 0 0 0-.224-.384q-.209-.16-.6-.16-.352 0-.544.136a.42.42 0 0 0-.192.352q0 .208.152.32.16.112.512.152l.384.04q.768.08 1.2.424.44.344.44.928 0 .432-.24.752a1.5 1.5 0 0 1-.656.488 2.6 2.6 0 0 1-1 .176m-29.835 9.888q-.751 0-1.264-.224a1.75 1.75 0 0 1-.768-.648 1.9 1.9 0 0 1-.256-1h1.024a.94.94 0 0 0 .128.472.97.97 0 0 0 .4.368q.28.136.736.136.6 0 .912-.232t.312-.576a.63.63 0 0 0-.272-.52q-.263-.208-.824-.256l-.448-.04q-.823-.08-1.312-.496-.488-.425-.488-1.2 0-.536.24-.904.248-.367.704-.552.465-.192 1.096-.192.656 0 1.112.216.464.216.704.624.249.4.248.976h-1.024a.9.9 0 0 0-.12-.456.83.83 0 0 0-.344-.336 1.15 1.15 0 0 0-.576-.128q-.32 0-.544.096a.8.8 0 0 0-.344.264.71.71 0 0 0 .08.888q.208.216.664.256l.448.04q.92.08 1.472.512.56.432.56 1.208 0 .536-.272.92-.264.376-.768.584-.504.2-1.216.2m-.488 1.008v-1.168h.928v1.168zm-.032-6.48v-1.168h.928v1.168zm4.595 5.448v-5.136l.352.272h-1.544v-.976h2.32V325zm4.951.152q-.688 0-1.168-.224a2.2 2.2 0 0 1-.784-.624 2.7 2.7 0 0 1-.448-.912 4.3 4.3 0 0 1-.136-1.088v-.448q0-.808.272-1.456.271-.648.832-1.024.56-.384 1.432-.384.864 0 1.424.384.56.376.824 1.024.272.648.272 1.456v.448q0 .568-.144 1.088a2.6 2.6 0 0 1-.44.912 2.1 2.1 0 0 1-.776.624q-.48.224-1.16.224m0-1.04q.712 0 1.048-.488.336-.496.336-1.536 0-1.104-.344-1.576-.345-.48-1.04-.48-.705 0-1.056.48-.345.473-.344 1.56 0 1.048.344 1.544t1.056.496m3.983 2.216-.864-.328.816-2.32.928.344zm4.212-1.176q-.688 0-1.168-.224a2.2 2.2 0 0 1-.784-.624 2.7 2.7 0 0 1-.448-.912 4.3 4.3 0 0 1-.136-1.088v-.448q0-.808.272-1.456t.832-1.024q.56-.384 1.432-.384.864 0 1.424.384.56.376.824 1.024.272.648.272 1.456v.448q0 .568-.144 1.088a2.6 2.6 0 0 1-.44.912 2.1 2.1 0 0 1-.776.624q-.48.224-1.16.224m0-1.04q.712 0 1.048-.488.336-.496.336-1.536 0-1.104-.344-1.576-.344-.48-1.04-.48-.704 0-1.056.48-.344.473-.344 1.56 0 1.048.344 1.544t1.056.496m6.047 1.04q-.688 0-1.168-.224a2.2 2.2 0 0 1-.784-.624 2.7 2.7 0 0 1-.448-.912 4.3 4.3 0 0 1-.136-1.088v-.448q0-.808.272-1.456t.832-1.024q.56-.384 1.432-.384.864 0 1.424.384.56.376.824 1.024.272.648.272 1.456v.448q0 .568-.144 1.088a2.6 2.6 0 0 1-.44.912 2.1 2.1 0 0 1-.776.624q-.48.224-1.16.224m0-1.04q.712 0 1.048-.488.336-.496.336-1.536 0-1.104-.344-1.576-.344-.48-1.04-.48-.704 0-1.056.48-.344.473-.344 1.56 0 1.048.344 1.544t1.056.496m6.047 1.04q-.688 0-1.168-.224a2.2 2.2 0 0 1-.784-.624 2.7 2.7 0 0 1-.448-.912 4.3 4.3 0 0 1-.136-1.088v-.448q0-.808.272-1.456.271-.648.832-1.024.56-.384 1.432-.384.863 0 1.424.384.56.376.824 1.024.272.648.272 1.456v.448q0 .568-.144 1.088a2.6 2.6 0 0 1-.44.912 2.1 2.1 0 0 1-.776.624q-.48.224-1.16.224m0-1.04q.712 0 1.048-.488.336-.496.336-1.536 0-1.104-.344-1.576-.345-.48-1.04-.48-.705 0-1.056.48-.345.473-.344 1.56 0 1.048.344 1.544t1.056.496M332.004 314.728l-1.856-3.568h.816l1.568 3.056-.304-.088h.944l-.32.088 1.472-3.056h.768l-1.744 3.568zm.288 2.272v-2.432h.768V317zm5.053.144q-.56 0-.968-.192a1.9 1.9 0 0 1-.664-.504 2.2 2.2 0 0 1-.384-.712 2.7 2.7 0 0 1-.12-.8v-.144q0-.416.12-.808.127-.392.384-.704.257-.32.648-.504.4-.192.936-.192.696 0 1.144.304.456.296.672.768.224.473.224 1.008v.344h-3.792v-.576h3.232l-.176.312q0-.456-.144-.784a1.13 1.13 0 0 0-.432-.52q-.288-.184-.728-.184-.456 0-.76.208a1.3 1.3 0 0 0-.448.568q-.144.36-.144.832 0 .456.144.824.152.36.464.576.312.208.792.208.504 0 .816-.224.32-.224.384-.52h.72a1.7 1.7 0 0 1-.352.76 1.7 1.7 0 0 1-.664.488 2.3 2.3 0 0 1-.904.168m4.482-.016q-.84 0-1.304-.36-.456-.36-.472-.984h.72q.017.248.248.472.24.216.808.216.513 0 .784-.2.272-.209.272-.504a.47.47 0 0 0-.2-.408q-.2-.152-.648-.2l-.464-.048q-.608-.065-.992-.36-.384-.304-.384-.848 0-.408.208-.696.209-.296.576-.448.368-.16.848-.16.72 0 1.168.32.449.32.464.952h-.72a.55.55 0 0 0-.24-.432q-.223-.184-.672-.184-.447 0-.68.184a.57.57 0 0 0-.232.464q0 .24.16.384.169.144.544.184l.464.048q.689.072 1.104.384.416.304.416.864 0 .4-.232.712a1.5 1.5 0 0 1-.624.48 2.4 2.4 0 0 1-.92.168M428.004 249.728l-1.856-3.568h.816l1.568 3.056-.304-.088h.944l-.32.088 1.472-3.056h.768l-1.744 3.568zm.288 2.272v-2.432h.768V252zm5.053.144q-.56 0-.968-.192a1.9 1.9 0 0 1-.664-.504 2.2 2.2 0 0 1-.384-.712 2.7 2.7 0 0 1-.12-.8v-.144q0-.416.12-.808.128-.392.384-.704.257-.32.648-.504.4-.192.936-.192.696 0 1.144.304.456.295.672.768.224.473.224 1.008v.344h-3.792v-.576h3.232l-.176.312q0-.456-.144-.784a1.13 1.13 0 0 0-.432-.52q-.288-.184-.728-.184-.456 0-.76.208a1.3 1.3 0 0 0-.448.568q-.144.36-.144.832 0 .456.144.824.152.36.464.576.312.208.792.208.504 0 .816-.224.32-.224.384-.52h.72a1.7 1.7 0 0 1-.352.76 1.7 1.7 0 0 1-.664.488 2.3 2.3 0 0 1-.904.168m4.482-.016q-.84 0-1.304-.36-.456-.36-.472-.984h.72q.017.248.248.472.24.216.808.216.513 0 .784-.2.272-.209.272-.504a.47.47 0 0 0-.2-.408q-.2-.152-.648-.2l-.464-.048q-.608-.064-.992-.36-.384-.304-.384-.848 0-.408.208-.696.209-.296.576-.448.368-.16.848-.16.72 0 1.168.32.449.32.464.952h-.72a.55.55 0 0 0-.24-.432q-.223-.184-.672-.184-.447 0-.68.184a.57.57 0 0 0-.232.464q0 .24.16.384.169.144.544.184l.464.048q.689.072 1.104.384.416.305.416.864 0 .4-.232.712a1.5 1.5 0 0 1-.624.48 2.4 2.4 0 0 1-.92.168M428.004 366.728l-1.856-3.568h.816l1.568 3.056-.304-.088h.944l-.32.088 1.472-3.056h.768l-1.744 3.568zm.288 2.272v-2.432h.768V369zm5.053.144q-.56 0-.968-.192a1.9 1.9 0 0 1-.664-.504 2.2 2.2 0 0 1-.384-.712 2.7 2.7 0 0 1-.12-.8v-.144q0-.416.12-.808.128-.392.384-.704.257-.32.648-.504.4-.192.936-.192.696 0 1.144.304.456.296.672.768.224.473.224 1.008v.344h-3.792v-.576h3.232l-.176.312q0-.456-.144-.784a1.13 1.13 0 0 0-.432-.52q-.288-.184-.728-.184-.456 0-.76.208a1.3 1.3 0 0 0-.448.568q-.144.36-.144.832 0 .456.144.824.152.36.464.576.312.208.792.208.504 0 .816-.224.32-.224.384-.52h.72a1.7 1.7 0 0 1-.352.76 1.7 1.7 0 0 1-.664.488 2.3 2.3 0 0 1-.904.168m4.482-.016q-.84 0-1.304-.36-.456-.36-.472-.984h.72q.017.248.248.472.24.216.808.216.513 0 .784-.2.272-.209.272-.504a.47.47 0 0 0-.2-.408q-.2-.152-.648-.2l-.464-.048q-.608-.065-.992-.36-.384-.304-.384-.848 0-.408.208-.696.209-.296.576-.448.368-.16.848-.16.72 0 1.168.32.449.32.464.952h-.72a.55.55 0 0 0-.24-.432q-.223-.184-.672-.184-.447 0-.68.184a.57.57 0 0 0-.232.464q0 .24.16.384.169.144.544.184l.464.048q.689.072 1.104.384.416.304.416.864 0 .4-.232.712a1.5 1.5 0 0 1-.624.48 2.4 2.4 0 0 1-.92.168M331.481 187.152q-.792 0-1.36-.28a2.7 2.7 0 0 1-.928-.728 3.1 3.1 0 0 1-.52-.976 3.4 3.4 0 0 1-.168-1.016v-.176q0-.544.168-1.072.176-.528.536-.96t.912-.688q.56-.264 1.32-.264.792 0 1.376.288.592.28.944.8.352.512.424 1.2h-1.144a1.4 1.4 0 0 0-.288-.672 1.3 1.3 0 0 0-.552-.416 1.9 1.9 0 0 0-.76-.144 1.85 1.85 0 0 0-.768.152 1.46 1.46 0 0 0-.56.416 2 2 0 0 0-.344.64 2.8 2.8 0 0 0-.112.816q0 .432.112.8.12.368.352.648.232.272.568.424.344.152.792.152.655 0 1.104-.32.456-.329.552-.912h1.144a2.66 2.66 0 0 1-.424 1.144 2.47 2.47 0 0 1-.944.832q-.6.312-1.432.312m3.671-.152v-4.344h.88v1.84h-.024q0-.936.4-1.416.399-.48 1.176-.48h.16v.968h-.304q-.56 0-.872.304-.304.296-.304.864V187zm5.248.152q-.56 0-.984-.192a2.1 2.1 0 0 1-.696-.512 2.4 2.4 0 0 1-.416-.728 2.5 2.5 0 0 1-.136-.816v-.152q0-.432.136-.832.144-.408.416-.72.28-.32.688-.504.408-.192.944-.192.705 0 1.176.312.48.304.72.808.24.496.24 1.072v.4h-3.848v-.68h3.152l-.344.336q0-.416-.12-.712a.95.95 0 0 0-.368-.456q-.24-.16-.608-.16-.367 0-.624.168-.255.168-.392.488a2 2 0 0 0-.128.752q0 .408.128.728.129.312.392.496.264.176.672.176t.664-.16a.75.75 0 0 0 .328-.408h1.024q-.095.448-.368.784a1.8 1.8 0 0 1-.696.52 2.3 2.3 0 0 1-.952.184m5.649-.152v-1.288h-.184v-1.432q0-.376-.184-.56t-.568-.184a19 19 0 0 0-1.048.032q-.28.008-.504.024v-.944q.184-.016.416-.032t.472-.016q.248-.008.464-.008.672 0 1.112.176.448.175.672.552.232.377.232.984V187zm-1.4.112q-.472 0-.832-.168a1.3 1.3 0 0 1-.552-.48 1.4 1.4 0 0 1-.192-.752q0-.48.232-.784.24-.304.664-.456a3 3 0 0 1 1.008-.152h1.008v.664h-1.024q-.384 0-.592.192a.62.62 0 0 0-.2.48q0 .296.2.48.208.184.592.184.232 0 .424-.08a.74.74 0 0 0 .328-.288q.136-.208.152-.56l.272.312q-.04.456-.224.768a1.2 1.2 0 0 1-.496.48q-.312.16-.768.16m5.359-.056q-.6 0-.992-.152a1.12 1.12 0 0 1-.576-.528q-.192-.376-.192-1.008l.008-3.936h1.04l-.008 4.008q0 .32.168.496.177.168.496.168h.68v.952zm-2.448-3.584v-.816h3.072v.816zm5.926 3.68q-.56 0-.984-.192a2.1 2.1 0 0 1-.696-.512 2.4 2.4 0 0 1-.416-.728 2.5 2.5 0 0 1-.136-.816v-.152q0-.432.136-.832.144-.408.416-.72.28-.32.688-.504.408-.192.944-.192.703 0 1.176.312.48.304.72.808.24.496.24 1.072v.4h-3.848v-.68h3.152l-.344.336q0-.416-.12-.712a.96.96 0 0 0-.368-.456q-.24-.16-.608-.16t-.624.168a1.06 1.06 0 0 0-.392.488 2 2 0 0 0-.128.752q0 .408.128.728.128.312.392.496.264.176.672.176t.664-.16a.75.75 0 0 0 .328-.408h1.024a1.84 1.84 0 0 1-.368.784 1.8 1.8 0 0 1-.696.52 2.3 2.3 0 0 1-.952.184M318.919 197v-5.88h1.136V197zm3.568 0-1.792-2.544h1.272l1.848 2.544zm-2.768-1.952v-.92h1.488q.312 0 .536-.128a.9.9 0 0 0 .36-.36 1.1 1.1 0 0 0 .128-.528q0-.304-.128-.536a.9.9 0 0 0-.36-.36 1.07 1.07 0 0 0-.536-.128h-1.488v-.968h1.368q.705 0 1.216.208.52.208.8.632t.28 1.064v.128q0 .648-.288 1.064a1.7 1.7 0 0 1-.792.624q-.511.208-1.216.208zm6.736 2.104q-.56 0-.984-.192a2.1 2.1 0 0 1-.696-.512 2.4 2.4 0 0 1-.416-.728 2.5 2.5 0 0 1-.136-.816v-.152q0-.432.136-.832.144-.408.416-.72.28-.32.688-.504.408-.192.944-.192.704 0 1.176.312.48.304.72.808.24.496.24 1.072v.4h-3.848v-.68h3.152l-.344.336q0-.416-.12-.712a.96.96 0 0 0-.368-.456q-.24-.16-.608-.16-.367 0-.624.168a1.06 1.06 0 0 0-.392.488 2 2 0 0 0-.128.752q0 .408.128.728.128.312.392.496.264.176.672.176t.664-.16a.75.75 0 0 0 .328-.408h1.024a1.84 1.84 0 0 1-.368.784 1.8 1.8 0 0 1-.696.52 2.3 2.3 0 0 1-.952.184m6.233 1.448v-2.888l.328-.512q-.024.624-.256 1.064a1.6 1.6 0 0 1-.624.656 1.8 1.8 0 0 1-.904.224 2 2 0 0 1-.84-.168 2 2 0 0 1-.648-.48 2.4 2.4 0 0 1-.416-.712 2.6 2.6 0 0 1-.144-.88v-.168q0-.464.152-.864.152-.408.424-.704.28-.304.656-.472.384-.176.856-.176.544 0 .944.232t.624.68q.232.44.256 1.08h-.176v-1.856h.88v5.944zm-1.168-2.408q.328 0 .6-.144a1.1 1.1 0 0 0 .432-.432 1.3 1.3 0 0 0 .168-.672v-.32q0-.384-.168-.64a1.1 1.1 0 0 0-.44-.4 1.25 1.25 0 0 0-.592-.144q-.36 0-.64.176a1.2 1.2 0 0 0-.432.488 1.6 1.6 0 0 0-.152.72q0 .408.16.72.16.304.432.48.28.168.632.168m5.026.944q-.753 0-1.168-.496-.408-.496-.408-1.472v-2.52h1.112v2.616q0 .4.224.64.224.232.608.232a.83.83 0 0 0 .624-.248q.248-.248.248-.672v-2.568h1.112V197h-.88v-1.848h.088q0 .656-.168 1.096t-.504.664-.84.224zm3.837-.136v-4.344h1.112V197zm-.608-3.512v-.832h1.72v.832zm1.016-1.352q-.328 0-.488-.168a.64.64 0 0 1-.152-.432q0-.272.152-.44.16-.168.488-.168.329 0 .48.168a.63.63 0 0 1 .152.44.64.64 0 0 1-.152.432q-.151.168-.48.168m3.562 5q-.897 0-1.408-.376-.504-.384-.528-1.056h1q.024.224.248.408t.704.184q.4 0 .632-.144.24-.144.24-.392a.4.4 0 0 0-.184-.344q-.177-.127-.608-.168l-.384-.04q-.729-.08-1.12-.416t-.392-.896q0-.448.224-.752a1.34 1.34 0 0 1 .616-.456q.399-.16.912-.16.8 0 1.296.352.495.352.52 1.032h-1a.53.53 0 0 0-.224-.384q-.209-.16-.6-.16-.352 0-.544.136a.42.42 0 0 0-.192.352q0 .208.152.32.16.112.512.152l.384.04q.768.08 1.2.424.44.344.44.928 0 .432-.24.752a1.5 1.5 0 0 1-.656.488 2.6 2.6 0 0 1-1 .176m3.022-.136v-4.344h1.112V197zm-.608-3.512v-.832h1.72v.832zm1.016-1.352q-.328 0-.488-.168a.64.64 0 0 1-.152-.432q0-.272.152-.44.16-.168.488-.168.329 0 .48.168a.63.63 0 0 1 .152.44.64.64 0 0 1-.152.432q-.151.168-.48.168m3.874 4.92q-.6 0-.992-.152a1.12 1.12 0 0 1-.576-.528q-.192-.376-.192-1.008l.008-3.936h1.04l-.008 4.008q0 .32.168.496.175.168.496.168h.68v.952zm-2.448-3.584v-.816h3.072v.816zm4.213 3.528v-4.344h1.112V197zm-.608-3.512v-.832h1.72v.832zm1.016-1.352q-.328 0-.488-.168a.64.64 0 0 1-.152-.432q0-.272.152-.44.16-.168.488-.168.329 0 .48.168a.63.63 0 0 1 .152.44.64.64 0 0 1-.152.432q-.151.168-.48.168m4.074 5.016q-.576 0-1.016-.184a2.2 2.2 0 0 1-.744-.496 2.2 2.2 0 0 1-.464-.72 2.3 2.3 0 0 1-.152-.832v-.168q0-.448.16-.848.168-.408.472-.72.312-.32.752-.496.44-.184.992-.184t.992.184q.44.176.744.496.312.312.472.72.16.4.16.848v.168q0 .432-.16.832a2.2 2.2 0 0 1-.456.72 2.2 2.2 0 0 1-.744.496q-.441.184-1.008.184m0-.952q.408 0 .688-.176a1.2 1.2 0 0 0 .424-.488q.144-.312.144-.704 0-.4-.152-.704a1.1 1.1 0 0 0-.432-.488 1.2 1.2 0 0 0-.672-.184q-.392 0-.68.184-.28.176-.432.488a1.55 1.55 0 0 0-.152.704q0 .392.144.704.151.304.432.488.28.176.688.176m3.341.8v-4.344h.88v1.864h-.08q0-.665.176-1.104.177-.449.52-.672.353-.224.872-.224h.048q.777 0 1.176.504.4.496.4 1.488V197h-1.112v-2.584q0-.4-.232-.648-.224-.248-.624-.248a.9.9 0 0 0-.664.256q-.248.248-.248.672V197zM231.013 190.152q-.777 0-1.312-.248a1.9 1.9 0 0 1-.808-.68 1.8 1.8 0 0 1-.28-.992h1.112a.9.9 0 0 0 .128.456.92.92 0 0 0 .408.352q.288.136.752.136.415 0 .696-.12a.96.96 0 0 0 .416-.312.8.8 0 0 0 .136-.448.57.57 0 0 0-.264-.496q-.264-.192-.816-.24l-.512-.04q-.84-.072-1.344-.52-.496-.456-.496-1.2 0-.56.264-.96a1.7 1.7 0 0 1 .736-.624q.48-.224 1.12-.224.663 0 1.144.232t.744.656q.264.415.264.984h-1.112q0-.24-.12-.44a.8.8 0 0 0-.344-.328 1.16 1.16 0 0 0-.576-.128q-.336 0-.56.112a.77.77 0 0 0-.336.304.8.8 0 0 0-.112.416.67.67 0 0 0 .2.48q.2.2.632.232l.512.048q.624.048 1.096.264.471.216.728.584.264.367.264.888 0 .552-.288.976a1.9 1.9 0 0 1-.824.648q-.528.232-1.248.232m5.198-.096q-.6 0-.992-.152a1.12 1.12 0 0 1-.576-.528q-.192-.376-.192-1.008l.008-3.936h1.04l-.008 4.008q0 .32.168.496.177.168.496.168h.68v.952zm-2.448-3.584v-.816h3.072v.816zm6.622 3.528v-1.288h-.184v-1.432q0-.376-.184-.56t-.568-.184a19 19 0 0 0-1.048.032q-.28.008-.504.024v-.944q.184-.016.416-.032t.472-.016q.248-.008.464-.008.672 0 1.112.176.448.175.672.552.232.377.232.984V190zm-1.4.112q-.472 0-.832-.168a1.3 1.3 0 0 1-.552-.48 1.4 1.4 0 0 1-.192-.752q0-.48.232-.784.24-.304.664-.456a3 3 0 0 1 1.008-.152h1.008v.664h-1.024q-.384 0-.592.192a.62.62 0 0 0-.2.48q0 .296.2.48.208.184.592.184.232 0 .424-.08a.74.74 0 0 0 .328-.288q.136-.208.152-.56l.272.312q-.04.456-.224.768a1.2 1.2 0 0 1-.496.48q-.312.16-.768.16m3.471-.112v-4.344h.88v1.84h-.024q0-.936.4-1.416t1.176-.48h.16v.968h-.304q-.56 0-.872.304-.303.296-.304.864V190zm5.318.056q-.6 0-.992-.152a1.12 1.12 0 0 1-.576-.528q-.192-.376-.192-1.008l.008-3.936h1.04l-.008 4.008q0 .32.168.496.176.168.496.168h.68v.952zm-2.448-3.584v-.816h3.072v.816zM537.025 419v-5.84h1.136V419zm.976-2.432v-.96l2.336-.008v.96zm0-2.448v-.96h2.448v.96zm3.566 4.88v-4.344h1.112V419zm-.608-3.512v-.832h1.72v.832zm1.016-1.352q-.329 0-.488-.168a.63.63 0 0 1-.152-.432q0-.272.152-.44.16-.168.488-.168t.48.168a.63.63 0 0 1 .152.44.64.64 0 0 1-.152.432q-.153.168-.48.168M543.96 419v-4.344h.88v1.864h-.08q0-.664.176-1.104.176-.448.52-.672.352-.224.872-.224h.048q.775 0 1.176.504.4.496.4 1.488V419h-1.112v-2.584q0-.4-.232-.648-.223-.248-.624-.248a.9.9 0 0 0-.664.256q-.248.248-.248.672V419zm5.396 0v-4.344h1.112V419zm-.608-3.512v-.832h1.72v.832zm1.016-1.352q-.329 0-.488-.168a.63.63 0 0 1-.152-.432q0-.272.152-.44.16-.168.488-.168t.48.168a.63.63 0 0 1 .152.44.64.64 0 0 1-.152.432q-.153.168-.48.168m3.561 5q-.895 0-1.408-.376-.504-.384-.528-1.056h1q.024.224.248.408.225.184.704.184.4 0 .632-.144.24-.144.24-.392a.4.4 0 0 0-.184-.344q-.176-.128-.608-.168l-.384-.04q-.727-.08-1.12-.416-.392-.336-.392-.896 0-.448.224-.752a1.35 1.35 0 0 1 .616-.456q.4-.16.912-.16.801 0 1.296.352.496.352.52 1.032h-1a.52.52 0 0 0-.224-.384q-.207-.16-.6-.16-.351 0-.544.136a.42.42 0 0 0-.192.352q0 .208.152.32.16.112.512.152l.384.04q.768.08 1.2.424.44.344.44.928 0 .432-.24.752a1.5 1.5 0 0 1-.656.488 2.6 2.6 0 0 1-1 .176m2.815-.136v-5.84h1.112v3.408h-.192q0-.656.168-1.112t.496-.696q.336-.24.848-.24h.048q.744 0 1.128.512t.384 1.488V419h-1.112v-2.584q0-.416-.24-.656-.232-.24-.616-.24a.87.87 0 0 0-.664.272q-.249.264-.248.696V419zM396.485 313l-1.864-5.84h1.176l1.544 5.056-.336-.16h.864l-.344.16 1.424-5.056h1.136l-1.728 5.84zm5.492-1.792v-.984h1.136q.345 0 .576-.136a.88.88 0 0 0 .36-.376q.129-.24.128-.552 0-.312-.128-.552a.83.83 0 0 0-.36-.368 1.1 1.1 0 0 0-.576-.136h-1.136v-.984h1.04q.736 0 1.248.24.52.24.792.688.273.44.272 1.048v.128q0 .608-.272 1.056a1.8 1.8 0 0 1-.792.688q-.512.24-1.248.24zm-.976 1.792v-5.88h1.136V313zm-19.744 8 1.992-5.84h1.856l2.048 5.84h-1.168l-1.736-5.064.408.176h-1l.416-.176-1.68 5.064zm1.392-1.552.36-.96h2.368l.352.96zm5.284 3.152v-5.944h.88v1.872l-.136-.008q.032-.664.272-1.112.248-.448.656-.664.408-.224.912-.224.463 0 .832.168.375.168.64.472.272.304.416.712.144.4.144.864v.168q0 .472-.144.88a2.1 2.1 0 0 1-.408.712q-.264.304-.64.48a2 2 0 0 1-.84.168 2 2 0 0 1-.896-.2 1.6 1.6 0 0 1-.648-.632q-.249-.432-.28-1.112l.352.536v2.864zm2.304-2.392q.36 0 .624-.176a1.2 1.2 0 0 0 .424-.488 1.7 1.7 0 0 0 .152-.72q0-.416-.152-.72a1.14 1.14 0 0 0-.424-.472 1.1 1.1 0 0 0-.624-.176q-.329 0-.608.144a1.17 1.17 0 0 0-.448.424 1.3 1.3 0 0 0-.168.672v.32a1.12 1.12 0 0 0 .632 1.048q.28.144.592.144m3.29 2.392v-5.944h.88v1.872l-.136-.008q.032-.664.272-1.112.248-.448.656-.664.408-.224.912-.224.463 0 .832.168.375.168.64.472.272.304.416.712.144.4.144.864v.168q0 .472-.144.88a2.1 2.1 0 0 1-.408.712q-.264.304-.64.48a2 2 0 0 1-.84.168 2 2 0 0 1-.896-.2 1.6 1.6 0 0 1-.648-.632q-.249-.432-.28-1.112l.352.536v2.864zm2.304-2.392q.36 0 .624-.176a1.2 1.2 0 0 0 .424-.488 1.7 1.7 0 0 0 .152-.72q0-.416-.152-.72a1.14 1.14 0 0 0-.424-.472 1.1 1.1 0 0 0-.624-.176q-.329 0-.608.144a1.17 1.17 0 0 0-.448.424 1.3 1.3 0 0 0-.168.672v.32a1.12 1.12 0 0 0 .632 1.048q.28.144.592.144m3.289.792v-4.344h.88v1.84h-.024q0-.936.4-1.416t1.176-.48h.16v.968h-.304q-.56 0-.872.304-.303.296-.304.864V321zm5.393.152q-.576 0-1.016-.184a2.2 2.2 0 0 1-.744-.496 2.25 2.25 0 0 1-.464-.72 2.3 2.3 0 0 1-.152-.832v-.168q0-.448.16-.848.168-.408.472-.72.312-.32.752-.496.44-.184.992-.184t.992.184q.44.176.744.496.312.312.472.72.16.4.16.848v.168q0 .432-.16.832a2.1 2.1 0 0 1-.456.72 2.2 2.2 0 0 1-.744.496 2.6 2.6 0 0 1-1.008.184m0-.952q.408 0 .688-.176.28-.184.424-.488.144-.312.144-.704 0-.4-.152-.704a1.1 1.1 0 0 0-.432-.488 1.2 1.2 0 0 0-.672-.184q-.392 0-.68.184-.28.176-.432.488a1.56 1.56 0 0 0-.152.704q0 .392.144.704.151.304.432.488.28.176.688.176m4.12.8-1.36-4.344h1.144l1.304 4.344zm.328 0v-.912h1.176V321zm.44 0 1.12-4.344h1.072L410.417 321zm5.609 0v-1.288h-.184v-1.432q0-.376-.184-.56t-.568-.184a19 19 0 0 0-1.048.032q-.28.007-.504.024v-.944q.184-.016.416-.032t.472-.016q.248-.008.464-.008.672 0 1.112.176.449.175.672.552.232.377.232.984V321zm-1.4.112q-.472 0-.832-.168a1.3 1.3 0 0 1-.552-.48 1.4 1.4 0 0 1-.192-.752q0-.48.232-.784.24-.304.664-.456a3 3 0 0 1 1.008-.152h1.008v.664h-1.024q-.384 0-.592.192a.62.62 0 0 0-.2.48q0 .296.2.48.208.184.592.184.232 0 .424-.08a.74.74 0 0 0 .328-.288q.136-.208.152-.56l.272.312q-.04.456-.224.768a1.2 1.2 0 0 1-.496.48q-.312.16-.768.16m3.527-.112v-5.84h1.112V321zm-.544-5.008v-.832h1.656v.832zM428.728 186v-5.84h1.552l1.464 3.488h.144l1.456-3.488h1.576V186h-1.128v-4.984l.144.016-1.576 3.776h-1.16l-1.584-3.776.152-.016V186zm10.177 0v-1.288h-.184v-1.432q0-.376-.184-.56t-.568-.184a19 19 0 0 0-1.048.032q-.28.008-.504.024v-.944q.183-.016.416-.032.231-.016.472-.016.248-.008.464-.008.671 0 1.112.176.447.175.672.552.231.377.232.984V186zm-1.4.112q-.472 0-.832-.168a1.3 1.3 0 0 1-.552-.48 1.4 1.4 0 0 1-.192-.752q0-.48.232-.784.24-.304.664-.456a3 3 0 0 1 1.008-.152h1.008v.664h-1.024q-.385 0-.592.192a.62.62 0 0 0-.2.48.62.62 0 0 0 .2.48q.207.184.592.184a1.1 1.1 0 0 0 .424-.08.75.75 0 0 0 .328-.288q.135-.208.152-.56l.272.312q-.04.456-.224.768a1.2 1.2 0 0 1-.496.48q-.312.16-.768.16m3.471-.112v-4.344h.88v1.864h-.08q0-.665.176-1.104.175-.449.52-.672.351-.224.872-.224h.048q.775 0 1.176.504.4.496.4 1.488V186h-1.112v-2.584q0-.4-.232-.648-.225-.248-.624-.248-.409 0-.664.256-.248.248-.248.672V186zm7.819 0v-1.288h-.184v-1.432q0-.376-.184-.56t-.568-.184a19 19 0 0 0-1.048.032q-.279.008-.504.024v-.944q.185-.016.416-.032.232-.016.472-.016.249-.008.464-.008.672 0 1.112.176.449.175.672.552.232.377.232.984V186zm-1.4.112a1.95 1.95 0 0 1-.832-.168 1.3 1.3 0 0 1-.552-.48 1.4 1.4 0 0 1-.192-.752q0-.48.232-.784.24-.304.664-.456a3 3 0 0 1 1.008-.152h1.008v.664h-1.024q-.384 0-.592.192a.62.62 0 0 0-.2.48q0 .296.2.48.208.184.592.184.232 0 .424-.08a.74.74 0 0 0 .328-.288q.137-.208.152-.56l.272.312q-.04.456-.224.768a1.2 1.2 0 0 1-.496.48q-.312.16-.768.16m5.167 1.6a9 9 0 0 1-1.24-.088v-.928q.288.032.616.056.328.032.616.032.537 0 .864-.128a.9.9 0 0 0 .488-.408q.16-.272.16-.696v-.856l.24-.544q-.024.6-.248 1.024a1.6 1.6 0 0 1-.608.64 1.8 1.8 0 0 1-.888.216q-.447 0-.816-.168a1.9 1.9 0 0 1-.624-.464 2.2 2.2 0 0 1-.4-.696 2.5 2.5 0 0 1-.144-.856v-.168q0-.456.144-.848a2.2 2.2 0 0 1 .424-.696q.273-.295.648-.456a2.1 2.1 0 0 1 .832-.16q.537 0 .928.232.4.233.624.672.225.44.248 1.08l-.192.032v-1.88h.88v3.832q0 .792-.272 1.28a1.6 1.6 0 0 1-.84.712q-.56.232-1.44.232m.32-2.632q.32 0 .584-.144t.424-.416.16-.656v-.28q0-.368-.168-.624a1 1 0 0 0-.424-.384 1.24 1.24 0 0 0-.576-.136q-.351 0-.624.168a1.1 1.1 0 0 0-.416.456 1.5 1.5 0 0 0-.152.704q0 .4.152.696.153.296.416.456.273.16.624.16m5.389 1.072q-.56 0-.984-.192a2.1 2.1 0 0 1-.696-.512 2.4 2.4 0 0 1-.416-.728 2.5 2.5 0 0 1-.136-.816v-.152q0-.432.136-.832.144-.408.416-.72.28-.32.688-.504.408-.192.944-.192.705 0 1.176.312.48.304.72.808.24.496.24 1.072v.4h-3.848v-.68h3.152l-.344.336q0-.416-.12-.712a.95.95 0 0 0-.368-.456q-.24-.16-.608-.16-.367 0-.624.168-.255.168-.392.488a2 2 0 0 0-.128.752q0 .408.128.728.129.312.392.496.264.176.672.176t.664-.16a.75.75 0 0 0 .328-.408h1.024q-.096.448-.368.784a1.8 1.8 0 0 1-.696.52 2.3 2.3 0 0 1-.952.184m3.017-.152v-4.344h.88v1.84h-.024q0-.936.4-1.416t1.176-.48h.16v.968h-.304q-.56 0-.872.304-.303.296-.304.864V186zm-34.031 8 1.992-5.84h1.856l2.048 5.84h-1.168l-1.736-5.064.408.176h-1l.416-.176-1.68 5.064zm1.392-1.552.36-.96h2.368l.352.96zm5.284 3.152v-5.944h.88v1.872l-.136-.008q.032-.664.272-1.112.248-.448.656-.664.408-.224.912-.224.463 0 .832.168.375.168.64.472.272.304.416.712.144.4.144.864v.168q0 .472-.144.88a2.1 2.1 0 0 1-.408.712q-.264.304-.64.48a2 2 0 0 1-.84.168 2 2 0 0 1-.896-.2 1.6 1.6 0 0 1-.648-.632q-.249-.432-.28-1.112l.352.536v2.864zm2.304-2.392q.36 0 .624-.176a1.2 1.2 0 0 0 .424-.488 1.7 1.7 0 0 0 .152-.72q0-.416-.152-.72a1.14 1.14 0 0 0-.424-.472 1.1 1.1 0 0 0-.624-.176q-.329 0-.608.144a1.17 1.17 0 0 0-.448.424 1.3 1.3 0 0 0-.168.672v.32a1.12 1.12 0 0 0 .632 1.048q.28.144.592.144m3.29 2.392v-5.944h.88v1.872l-.136-.008q.032-.664.272-1.112.248-.448.656-.664.408-.224.912-.224.463 0 .832.168.375.168.64.472.272.304.416.712.144.4.144.864v.168q0 .472-.144.88a2.1 2.1 0 0 1-.408.712q-.264.304-.64.48a2 2 0 0 1-.84.168 2 2 0 0 1-.896-.2 1.6 1.6 0 0 1-.648-.632q-.249-.432-.28-1.112l.352.536v2.864zm2.304-2.392q.36 0 .624-.176a1.2 1.2 0 0 0 .424-.488 1.7 1.7 0 0 0 .152-.72q0-.416-.152-.72a1.14 1.14 0 0 0-.424-.472 1.1 1.1 0 0 0-.624-.176q-.329 0-.608.144a1.17 1.17 0 0 0-.448.424 1.3 1.3 0 0 0-.168.672v.32a1.12 1.12 0 0 0 .632 1.048q.28.144.592.144m3.289.792v-4.344h.88v1.84h-.024q0-.936.4-1.416t1.176-.48h.16v.968h-.304q-.56 0-.872.304-.303.296-.304.864V194zm5.393.152q-.576 0-1.016-.184a2.2 2.2 0 0 1-.744-.496 2.25 2.25 0 0 1-.464-.72 2.3 2.3 0 0 1-.152-.832v-.168q0-.448.16-.848.168-.408.472-.72.312-.32.752-.496.44-.184.992-.184t.992.184q.44.176.744.496.312.312.472.72.16.4.16.848v.168q0 .432-.16.832a2.1 2.1 0 0 1-.456.72 2.2 2.2 0 0 1-.744.496 2.6 2.6 0 0 1-1.008.184m0-.952q.408 0 .688-.176.28-.184.424-.488.144-.312.144-.704 0-.4-.152-.704a1.1 1.1 0 0 0-.432-.488 1.2 1.2 0 0 0-.672-.184q-.392 0-.68.184-.28.176-.432.488a1.56 1.56 0 0 0-.152.704q0 .392.144.704.151.304.432.488.28.176.688.176m4.12.8-1.36-4.344h1.144l1.304 4.344zm.328 0v-.912h1.176V194zm.44 0 1.12-4.344h1.072L456.417 194zm5.609 0v-1.288h-.184v-1.432q0-.376-.184-.56t-.568-.184a19 19 0 0 0-1.048.032q-.28.008-.504.024v-.944q.184-.016.416-.032t.472-.016q.248-.008.464-.008.672 0 1.112.176.449.175.672.552.232.377.232.984V194zm-1.4.112q-.472 0-.832-.168a1.3 1.3 0 0 1-.552-.48 1.4 1.4 0 0 1-.192-.752q0-.48.232-.784.24-.304.664-.456a3 3 0 0 1 1.008-.152h1.008v.664h-1.024q-.384 0-.592.192a.62.62 0 0 0-.2.48q0 .296.2.48.208.184.592.184.232 0 .424-.08a.74.74 0 0 0 .328-.288q.136-.208.152-.56l.272.312q-.04.456-.224.768a1.2 1.2 0 0 1-.496.48q-.312.16-.768.16m3.527-.112v-5.84h1.112V194zm-.544-5.008v-.832h1.656v.832zM434.447 415v-5.84h1.136V415zm4.081.136q-.895 0-1.408-.376-.504-.384-.528-1.056h1q.024.224.248.408t.704.184q.4 0 .632-.144.24-.144.24-.392a.4.4 0 0 0-.184-.344q-.176-.128-.608-.168l-.384-.04q-.727-.08-1.12-.416-.392-.336-.392-.896 0-.448.224-.752a1.35 1.35 0 0 1 .616-.456q.4-.16.912-.16.801 0 1.296.352.496.352.52 1.032h-1a.52.52 0 0 0-.224-.384q-.207-.16-.6-.16-.351 0-.544.136a.42.42 0 0 0-.192.352q0 .208.152.32.16.112.512.152l.384.04q.768.08 1.2.424.44.344.44.928 0 .432-.24.752a1.5 1.5 0 0 1-.656.488 2.6 2.6 0 0 1-1 .176m4.391 0q-.896 0-1.408-.376-.504-.384-.528-1.056h1q.024.224.248.408t.704.184q.4 0 .632-.144.24-.144.24-.392a.4.4 0 0 0-.184-.344q-.176-.128-.608-.168l-.384-.04q-.728-.08-1.12-.416t-.392-.896q0-.448.224-.752t.616-.456q.4-.16.912-.16.8 0 1.296.352t.52 1.032h-1a.52.52 0 0 0-.224-.384q-.209-.16-.6-.16-.352 0-.544.136a.42.42 0 0 0-.192.352q0 .208.152.32.16.112.512.152l.384.04q.768.08 1.2.424.44.344.44.928 0 .432-.24.752a1.5 1.5 0 0 1-.656.488 2.6 2.6 0 0 1-1 .176m4.295 0q-.753 0-1.168-.496-.408-.496-.408-1.472v-2.52h1.112v2.616q0 .4.224.64.224.232.608.232a.83.83 0 0 0 .624-.248q.248-.248.248-.672v-2.568h1.112V415h-.88v-1.848h.088q0 .656-.168 1.096t-.504.664-.84.224zm5.573.016q-.56 0-.984-.192a2.1 2.1 0 0 1-.696-.512 2.4 2.4 0 0 1-.416-.728 2.5 2.5 0 0 1-.136-.816v-.152q0-.432.136-.832.144-.408.416-.72.28-.32.688-.504.408-.192.944-.192.703 0 1.176.312.48.304.72.808.24.496.24 1.072v.4h-3.848v-.68h3.152l-.344.336q0-.416-.12-.712a.96.96 0 0 0-.368-.456q-.24-.16-.608-.16t-.624.168a1.06 1.06 0 0 0-.392.488 2 2 0 0 0-.128.752q0 .408.128.728.128.312.392.496.264.176.672.176t.664-.16a.75.75 0 0 0 .328-.408h1.024a1.84 1.84 0 0 1-.368.784 1.8 1.8 0 0 1-.696.52 2.3 2.3 0 0 1-.952.184m4.593-.016q-.896 0-1.408-.376-.504-.384-.528-1.056h1q.024.224.248.408t.704.184q.4 0 .632-.144.24-.144.24-.392a.4.4 0 0 0-.184-.344q-.176-.128-.608-.168l-.384-.04q-.728-.08-1.12-.416t-.392-.896q0-.448.224-.752t.616-.456q.4-.16.912-.16.8 0 1.296.352t.52 1.032h-1a.52.52 0 0 0-.224-.384q-.208-.16-.6-.16-.352 0-.544.136a.42.42 0 0 0-.192.352q0 .208.152.32.16.112.512.152l.384.04q.768.08 1.2.424.44.344.44.928 0 .432-.24.752a1.5 1.5 0 0 1-.656.488 2.6 2.6 0 0 1-1 .176M433.127 425v-5.84h1.136V425zm2.505 0v-4.344h.88v1.864h-.08q0-.664.176-1.104.176-.448.52-.672.352-.224.872-.224h.048q.776 0 1.176.504.4.496.4 1.488V425h-1.112v-2.584q0-.4-.232-.648-.224-.248-.624-.248a.9.9 0 0 0-.664.256q-.248.248-.248.672V425zm6.028 0-1.36-4.344h1.144l1.304 4.344zm.328 0v-.912h1.176V425zm.44 0 1.12-4.344h1.072L443.444 425zm5.026.152q-.575 0-1.016-.184a2.2 2.2 0 0 1-.744-.496 2.3 2.3 0 0 1-.464-.72 2.3 2.3 0 0 1-.152-.832v-.168q0-.448.16-.848a2.3 2.3 0 0 1 .472-.72q.312-.32.752-.496.44-.184.992-.184t.992.184q.441.176.744.496.312.312.472.72.16.4.16.848v.168q0 .432-.16.832a2.1 2.1 0 0 1-.456.72 2.2 2.2 0 0 1-.744.496 2.6 2.6 0 0 1-1.008.184m0-.952q.408 0 .688-.176.28-.184.424-.488.144-.312.144-.704 0-.4-.152-.704a1.1 1.1 0 0 0-.432-.488 1.2 1.2 0 0 0-.672-.184q-.392 0-.68.184-.279.176-.432.488a1.56 1.56 0 0 0-.152.704q0 .392.144.704.153.304.432.488.28.176.688.176m3.55.8v-4.344h1.112V425zm-.608-3.512v-.832h1.72v.832zm1.016-1.352q-.328 0-.488-.168a.64.64 0 0 1-.152-.432q0-.272.152-.44.16-.168.488-.168.329 0 .48.168a.63.63 0 0 1 .152.44.64.64 0 0 1-.152.432q-.151.168-.48.168m3.914 5.016q-.569 0-.984-.192a2.1 2.1 0 0 1-.688-.512 2.2 2.2 0 0 1-.408-.72 2.5 2.5 0 0 1-.136-.816v-.152q0-.44.136-.84a2.1 2.1 0 0 1 .424-.72q.28-.32.688-.504.416-.192.96-.192.567 0 1.016.224a1.77 1.77 0 0 1 1.016 1.52h-1.08a.87.87 0 0 0-.288-.56q-.24-.224-.664-.224-.369 0-.616.176-.24.176-.36.488-.12.304-.12.704 0 .384.112.696.12.312.36.488.248.176.632.176.288 0 .496-.104a.8.8 0 0 0 .328-.288.96.96 0 0 0 .16-.416h1.08a1.8 1.8 0 0 1-.312.928 1.9 1.9 0 0 1-.728.616q-.448.224-1.024.224m4.898 0q-.56 0-.984-.192a2.1 2.1 0 0 1-.696-.512 2.4 2.4 0 0 1-.416-.728 2.5 2.5 0 0 1-.136-.816v-.152q0-.432.136-.832.144-.408.416-.72.28-.32.688-.504.408-.192.944-.192.705 0 1.176.312.48.304.72.808.24.496.24 1.072v.4h-3.848v-.68h3.152l-.344.336q0-.416-.12-.712a.95.95 0 0 0-.368-.456q-.24-.16-.608-.16-.367 0-.624.168-.255.168-.392.488a2 2 0 0 0-.128.752q0 .408.128.728.128.312.392.496.264.176.672.176t.664-.16a.75.75 0 0 0 .328-.408h1.024q-.096.448-.368.784a1.8 1.8 0 0 1-.696.52 2.3 2.3 0 0 1-.952.184M328.747 415v-5.84h1.136V415zm.976-2.432v-.96l2.336-.008v.96zm0-2.448v-.96h2.448v.96zm3.566 4.88v-4.344h1.112V415zm-.608-3.512v-.832h1.72v.832zm1.016-1.352q-.327 0-.488-.168a.64.64 0 0 1-.152-.432q0-.272.152-.44.16-.168.488-.168.329 0 .48.168a.63.63 0 0 1 .152.44q0 .256-.152.432-.151.168-.48.168m1.986 4.864v-4.344h.88v1.864h-.08q0-.664.176-1.104.175-.448.52-.672.351-.224.872-.224h.048q.776 0 1.176.504.4.496.4 1.488V415h-1.112v-2.584q0-.4-.232-.648-.225-.248-.624-.248-.409 0-.664.256-.249.248-.248.672V415zm7.819 0v-1.288h-.184v-1.432q0-.376-.184-.56t-.568-.184a19 19 0 0 0-1.048.032q-.279.008-.504.024v-.944q.185-.016.416-.032.232-.016.472-.016.248-.008.464-.008.672 0 1.112.176.448.175.672.552.232.377.232.984V415zm-1.4.112a1.95 1.95 0 0 1-.832-.168 1.3 1.3 0 0 1-.552-.48 1.4 1.4 0 0 1-.192-.752q0-.48.232-.784.24-.304.664-.456a3 3 0 0 1 1.008-.152h1.008v.664h-1.024q-.384 0-.592.192a.62.62 0 0 0-.2.48q0 .296.2.48.208.184.592.184.232 0 .424-.08a.74.74 0 0 0 .328-.288q.137-.208.152-.56l.272.312q-.04.456-.224.768a1.2 1.2 0 0 1-.496.48q-.312.16-.768.16m3.471-.112v-4.344h.88v1.864h-.08q0-.664.176-1.104.177-.448.52-.672.353-.224.872-.224h.048q.777 0 1.176.504.4.496.4 1.488V415h-1.112v-2.584q0-.4-.232-.648-.224-.248-.624-.248a.9.9 0 0 0-.664.256q-.248.248-.248.672V415zm7.116.152q-.569 0-.984-.192a2.1 2.1 0 0 1-.688-.512 2.2 2.2 0 0 1-.408-.72 2.5 2.5 0 0 1-.136-.816v-.152q0-.44.136-.84a2.1 2.1 0 0 1 .424-.72q.28-.32.688-.504.415-.192.96-.192.568 0 1.016.224.448.216.712.608.272.392.304.912h-1.08a.87.87 0 0 0-.288-.56q-.24-.224-.664-.224a1.04 1.04 0 0 0-.616.176q-.24.176-.36.488-.12.304-.12.704 0 .384.112.696.12.312.36.488.248.176.632.176.288 0 .496-.104a.8.8 0 0 0 .328-.288.94.94 0 0 0 .16-.416h1.08a1.77 1.77 0 0 1-.312.928 1.87 1.87 0 0 1-.728.616q-.448.224-1.024.224m4.899 0a2.4 2.4 0 0 1-.984-.192 2.05 2.05 0 0 1-.696-.512 2.4 2.4 0 0 1-.416-.728 2.5 2.5 0 0 1-.136-.816v-.152q0-.432.136-.832.143-.408.416-.72.28-.32.688-.504.408-.192.944-.192.704 0 1.176.312.48.304.72.808.24.496.24 1.072v.4h-3.848v-.68h3.152l-.344.336q0-.416-.12-.712a.96.96 0 0 0-.368-.456q-.24-.16-.608-.16a1.1 1.1 0 0 0-.624.168 1.06 1.06 0 0 0-.392.488 2 2 0 0 0-.128.752q0 .408.128.728.128.312.392.496.264.176.672.176t.664-.16a.75.75 0 0 0 .328-.408h1.024a1.84 1.84 0 0 1-.368.784 1.8 1.8 0 0 1-.696.52 2.3 2.3 0 0 1-.952.184M329.732 425v-5.88h1.136V425zm3.568 0-1.792-2.544h1.272l1.848 2.544zm-2.768-1.952v-.92h1.488q.312 0 .536-.128a.9.9 0 0 0 .36-.36 1.1 1.1 0 0 0 .128-.528q0-.304-.128-.536a.9.9 0 0 0-.36-.36 1.07 1.07 0 0 0-.536-.128h-1.488v-.968h1.368q.703 0 1.216.208.52.208.8.632t.28 1.064v.128q0 .648-.288 1.064a1.7 1.7 0 0 1-.792.624q-.513.208-1.216.208zm6.735 2.104q-.56 0-.984-.192a2.1 2.1 0 0 1-.696-.512 2.4 2.4 0 0 1-.416-.728 2.5 2.5 0 0 1-.136-.816v-.152q0-.432.136-.832.144-.408.416-.72.28-.32.688-.504.408-.192.944-.192.705 0 1.176.312.48.304.72.808.24.496.24 1.072v.4h-3.848v-.68h3.152l-.344.336q0-.416-.12-.712a.95.95 0 0 0-.368-.456q-.24-.16-.608-.16t-.624.168-.392.488a2 2 0 0 0-.128.752q0 .408.128.728.129.312.392.496.264.176.672.176t.664-.16a.75.75 0 0 0 .328-.408h1.024q-.096.448-.368.784a1.8 1.8 0 0 1-.696.52 2.3 2.3 0 0 1-.952.184m3.85-.152-1.36-4.344h1.144l1.304 4.344zm.328 0v-.912h1.176V425zm.44 0 1.12-4.344h1.072L342.901 425zm3.24 0v-4.344h1.112V425zm-.608-3.512v-.832h1.72v.832zm1.016-1.352q-.328 0-.488-.168a.64.64 0 0 1-.152-.432q0-.272.152-.44.16-.168.488-.168.329 0 .48.168a.63.63 0 0 1 .152.44.64.64 0 0 1-.152.432q-.151.168-.48.168m3.93 5.016a2.4 2.4 0 0 1-.984-.192 2.05 2.05 0 0 1-.696-.512 2.4 2.4 0 0 1-.416-.728 2.5 2.5 0 0 1-.136-.816v-.152q0-.432.136-.832.143-.408.416-.72.28-.32.688-.504.408-.192.944-.192.704 0 1.176.312.48.304.72.808.24.496.24 1.072v.4h-3.848v-.68h3.152l-.344.336q0-.416-.12-.712a.96.96 0 0 0-.368-.456q-.24-.16-.608-.16a1.1 1.1 0 0 0-.624.168 1.06 1.06 0 0 0-.392.488 2 2 0 0 0-.128.752q0 .408.128.728.128.312.392.496.264.176.672.176t.664-.16a.75.75 0 0 0 .328-.408h1.024a1.84 1.84 0 0 1-.368.784 1.8 1.8 0 0 1-.696.52 2.3 2.3 0 0 1-.952.184m4.466-.152.824-4.2h1.28l.952 4.2h-.88l-.968-4.176h.464l-.856 4.176zm-.328 0-.008-.912h.888V425zm-.448 0-1.184-4.344h1.08l1.128 4.344zm3.232 0v-.912h.888l-.008.912zm.352 0 1-4.344h1.008L357.697 425z"/><path fill="#FFE09D" d="M597.15 270.533h70.07v70.07h-70.07z"/><rect width="50.516" height="2.444" x="602.038" y="276.238" fill="#A46F49" fill-opacity=".5" rx="1.222"/><rect width="31.776" height="2.444" x="602.038" y="281.125" fill="#A46F49" fill-opacity=".5" rx="1.222"/><rect width="47.257" height="2.444" x="602.038" y="290.903" fill="#A46F49" fill-opacity=".5" rx="1.222"/><rect width="43.183" height="2.444" x="602.039" y="286.016" fill="#A46F49" fill-opacity=".5" rx="1.222"/><path fill="#FF36A2" d="M230.542 334.007c1.162-.387 2.267.718 1.88 1.879l-5.862 17.586c-.436 1.307-2.262 1.369-2.784.094l-2.042-4.981a7.88 7.88 0 0 0-3.928-3.927l-4.927-2.008c-1.278-.52-1.218-2.349.091-2.785z"/><path fill="#fff" d="M211.629 363.629c0-7.409-6.006-13.415-13.415-13.415H153.5c-7.408 0-13.414 6.006-13.414 13.415s6.006 13.414 13.414 13.414h44.714c7.409 0 13.415-6.006 13.415-13.414"/><path fill="#FF36A2" fill-opacity=".2" d="M211.629 363.629c0-7.409-6.006-13.415-13.415-13.415H153.5c-7.408 0-13.414 6.006-13.414 13.415s6.006 13.414 13.414 13.414h44.714c7.409 0 13.415-6.006 13.415-13.414"/><path stroke="#FF36A2" stroke-width="1.486" d="M211.629 363.629c0-7.409-6.006-13.415-13.415-13.415H153.5c-7.408 0-13.414 6.006-13.414 13.415s6.006 13.414 13.414 13.414h44.714c7.409 0 13.415-6.006 13.415-13.414Z"/><path fill="#000" d="M167.423 368.354q-.94 0-1.652-.368a2.6 2.6 0 0 1-1.106-1.082q-.392-.713-.392-1.747v-.38h1.676v.523q0 .689.404 1.093.405.392 1.058.392.665 0 1.058-.392.404-.404.404-1.093v-4.6h1.688v4.457q0 1.034-.393 1.747a2.6 2.6 0 0 1-1.093 1.082q-.7.368-1.652.368m-2.092-7.416v-1.486h5.23v1.486zm9.979 7.416q-.832 0-1.462-.285a3.1 3.1 0 0 1-1.034-.761 3.6 3.6 0 0 1-.618-1.081 3.8 3.8 0 0 1-.202-1.213v-.225q0-.642.202-1.237.215-.606.618-1.069a2.95 2.95 0 0 1 1.022-.749q.607-.285 1.403-.285 1.046 0 1.747.463a2.84 2.84 0 0 1 1.07 1.201q.356.737.356 1.592v.595h-5.717v-1.011h4.683l-.511.5q0-.619-.178-1.058a1.4 1.4 0 0 0-.547-.678q-.356-.238-.903-.238-.548 0-.927.25a1.57 1.57 0 0 0-.583.725q-.19.464-.19 1.117 0 .607.19 1.082.19.464.583.737.392.261.998.261t.987-.237q.38-.25.487-.606h1.521a2.7 2.7 0 0 1-.546 1.164q-.405.5-1.034.773-.618.273-1.415.273m4.625-.226v-6.679q0-1.106.606-1.629.619-.534 1.819-.535h.606v1.272h-.725q-.369 0-.57.202-.19.19-.191.547v6.822zm4.208 0v-6.608q0-1.106.606-1.628.618-.535 1.818-.535h.785v1.272h-.903q-.369 0-.571.202-.19.19-.19.546v6.751zm-5.004-5.134v-1.213h8.32v1.213z"/><path fill="#059669" d="M609.886 156.993c-1.161.388-2.266-.717-1.879-1.879l5.862-17.586c.435-1.307 2.261-1.368 2.784-.093l2.042 4.98a7.87 7.87 0 0 0 3.927 3.928l4.928 2.007c1.277.521 1.217 2.35-.091 2.786z"/><path fill="#fff" d="M628.8 127.371c0 7.409 6.006 13.415 13.414 13.415h61.714c7.409 0 13.415-6.006 13.415-13.415s-6.006-13.414-13.415-13.414h-61.714c-7.408 0-13.414 6.006-13.414 13.414"/><path fill="#059669" fill-opacity=".2" d="M628.8 127.371c0 7.409 6.006 13.415 13.414 13.415h61.714c7.409 0 13.415-6.006 13.415-13.415s-6.006-13.414-13.415-13.414h-61.714c-7.408 0-13.414 6.006-13.414 13.414"/><path stroke="#059669" stroke-width="1.486" d="M628.8 127.371c0 7.409 6.006 13.415 13.414 13.415h61.714c7.409 0 13.415-6.006 13.415-13.415s-6.006-13.414-13.415-13.414h-61.714c-7.408 0-13.414 6.006-13.414 13.414Z"/><path fill="#000" d="M656.137 132.097q-.94 0-1.652-.368a2.6 2.6 0 0 1-1.105-1.082q-.393-.712-.393-1.747v-.38h1.676v.523q0 .689.404 1.093.404.392 1.058.392.666 0 1.058-.392.404-.404.404-1.093v-4.6h1.688v4.457q0 1.035-.392 1.747a2.6 2.6 0 0 1-1.094 1.082q-.7.369-1.652.368m-2.092-7.416v-1.486h5.23v1.486zm11.002 7.191v-1.914h-.274v-2.128q0-.558-.273-.832-.274-.273-.844-.273-.297 0-.713.012-.417.012-.844.036-.416.011-.749.035v-1.402q.273-.024.618-.048t.701-.024q.369-.01.69-.011.998 0 1.652.261.665.261.998.82.345.56.345 1.462v4.006zm-2.08.166q-.702 0-1.237-.25a1.95 1.95 0 0 1-.82-.713q-.285-.463-.285-1.117 0-.713.345-1.165.356-.452.986-.677.642-.226 1.498-.226h1.497v.986h-1.521q-.57 0-.879.286a.92.92 0 0 0-.298.713q0 .44.298.713.309.273.879.273.345 0 .63-.119.298-.13.487-.427.202-.31.226-.832l.404.463q-.059.678-.332 1.141-.262.464-.737.713-.464.238-1.141.238m5.157-.166v-6.454h1.307v2.769h-.119q0-.975.25-1.628.25-.666.737-.999.5-.344 1.236-.344h.071q.748 0 1.236.344.5.333.737.999.25.653.25 1.628h-.416q0-.975.249-1.628.262-.666.749-.999.5-.344 1.236-.344h.072q.748 0 1.248.344.498.333.748.999.262.653.262 1.628v3.685h-1.652v-3.84q0-.606-.309-.962-.309-.369-.88-.369-.57 0-.915.381-.345.368-.345.998v3.792h-1.652v-3.84q0-.606-.309-.962-.309-.369-.879-.369t-.916.381q-.344.368-.344.998v3.792zm14.507.225q-.832 0-1.462-.285a3.05 3.05 0 0 1-1.034-.761 3.6 3.6 0 0 1-.618-1.081 3.7 3.7 0 0 1-.202-1.212v-.226q0-.642.202-1.236.213-.607.618-1.07a2.94 2.94 0 0 1 1.022-.749q.606-.285 1.402-.285 1.046 0 1.748.463.713.452 1.069 1.201.357.737.357 1.592v.595h-5.717v-1.011h4.683l-.511.5q0-.618-.179-1.058a1.4 1.4 0 0 0-.546-.678q-.357-.237-.904-.237-.546 0-.927.249a1.6 1.6 0 0 0-.582.725q-.19.464-.19 1.118 0 .606.19 1.081.19.464.582.737.393.262.999.262t.986-.238q.38-.25.487-.606h1.522a2.7 2.7 0 0 1-.547 1.164 2.7 2.7 0 0 1-1.034.773q-.618.273-1.414.273m6.823-.023q-1.33 0-2.091-.559-.75-.57-.785-1.569h1.486q.036.333.368.606.333.274 1.046.274.594 0 .939-.214.357-.214.357-.583a.59.59 0 0 0-.274-.511q-.261-.19-.903-.249l-.57-.06q-1.082-.118-1.664-.618-.583-.499-.583-1.331 0-.666.333-1.117a2 2 0 0 1 .915-.678 3.6 3.6 0 0 1 1.355-.238q1.189 0 1.926.523t.772 1.534h-1.486q-.023-.333-.332-.571t-.892-.238q-.523 0-.808.203a.61.61 0 0 0-.285.522q0 .31.226.476.237.166.76.226l.571.059q1.14.118 1.783.63.653.511.653 1.379 0 .642-.356 1.117-.345.464-.975.725-.63.262-1.486.262"/><defs><clipPath id="b"><path fill="#fff" d="M135.594 28.249h16.475v16.475h-16.475z"/></clipPath><clipPath id="c"><path fill="#fff" d="M168.2 28.249h16.475v16.475H168.2z"/></clipPath><clipPath id="e"><path fill="#fff" d="M548.582 28.249h-16.475v16.475h16.475z"/></clipPath><clipPath id="g"><path fill="#fff" d="M676.269 30.309h12.357v12.357h-12.357z"/></clipPath><clipPath id="k"><path fill="#fff" d="M28.97 124.686h12.7v12.7h-12.7z"/></clipPath><clipPath id="l"><path fill="#fff" d="M28.97 179.717h12.7v12.7h-12.7z"/></clipPath><clipPath id="m"><path fill="#fff" d="M28.969 207.232h12.7v12.7h-12.7z"/></clipPath><clipPath id="n"><path fill="#fff" d="M28.969 234.75h12.7v12.7h-12.7z"/></clipPath><clipPath id="o"><path fill="#fff" d="M28.97 262.264h12.7v12.7h-12.7z"/></clipPath><clipPath id="p"><path fill="#fff" d="M28.97 289.78h12.7v12.7h-12.7z"/></clipPath><clipPath id="q"><path fill="#fff" d="M28.97 317.296h12.7v12.7h-12.7z"/></clipPath><clipPath id="r"><path fill="#fff" d="M28.97 399.843h12.7v12.7h-12.7z"/></clipPath><clipPath id="s"><path fill="#fff" d="M28.97 427.359h12.7v12.7h-12.7z"/></clipPath><clipPath id="t"><path fill="#fff" d="M29.92 454.239h10.794v10.795H29.92z"/></clipPath><clipPath id="x"><path fill="#fff" d="M772.384 464.081h16.139v16.139h-16.139z"/></clipPath><filter id="a" width="184.083" height="43.934" x="15.008" y="15.892" color-interpolation-filters="sRGB" filterUnits="userSpaceOnUse"><feFlood flood-opacity="0" result="BackgroundImageFix"/><feColorMatrix in="SourceAlpha" result="hardAlpha" values="0 0 0 0 0 0 0 0 0 0 0 0 0 0 0 0 0 0 127 0"/><feOffset dy="1.373"/><feGaussianBlur stdDeviation="2.746"/><feComposite in2="hardAlpha" operator="out"/><feColorMatrix values="0 0 0 0 0.0117647 0 0 0 0 0.0431373 0 0 0 0 0.0862745 0 0 0 0.05 0"/><feBlend in2="BackgroundImageFix" result="effect1_dropShadow_311_12910"/><feBlend in="SourceGraphic" in2="effect1_dropShadow_311_12910" result="shape"/></filter><filter id="d" width="145.535" height="43.934" x="517.691" y="15.892" color-interpolation-filters="sRGB" filterUnits="userSpaceOnUse"><feFlood flood-opacity="0" result="BackgroundImageFix"/><feColorMatrix in="SourceAlpha" result="hardAlpha" values="0 0 0 0 0 0 0 0 0 0 0 0 0 0 0 0 0 0 127 0"/><feOffset dy="1.373"/><feGaussianBlur stdDeviation="2.746"/><feComposite in2="hardAlpha" operator="out"/><feColorMatrix values="0 0 0 0 0.0117647 0 0 0 0 0.0431373 0 0 0 0 0.0862745 0 0 0 0.05 0"/><feBlend in2="BackgroundImageFix" result="effect1_dropShadow_311_12910"/><feBlend in="SourceGraphic" in2="effect1_dropShadow_311_12910" result="shape"/></filter><filter id="f" width="142.512" height="43.934" x="660.48" y="15.892" color-interpolation-filters="sRGB" filterUnits="userSpaceOnUse"><feFlood flood-opacity="0" result="BackgroundImageFix"/><feColorMatrix in="SourceAlpha" result="hardAlpha" values="0 0 0 0 0 0 0 0 0 0 0 0 0 0 0 0 0 0 127 0"/><feOffset dy="1.373"/><feGaussianBlur stdDeviation="2.746"/><feComposite in2="hardAlpha" operator="out"/><feColorMatrix values="0 0 0 0 0.0117647 0 0 0 0 0.0431373 0 0 0 0 0.0862745 0 0 0 0.05 0"/><feBlend in2="BackgroundImageFix" result="effect1_dropShadow_311_12910"/><feBlend in="SourceGraphic" in2="effect1_dropShadow_311_12910" result="shape"/></filter><filter id="h" width="38.099" height="395.802" x="16.267" y="83.836" color-interpolation-filters="sRGB" filterUnits="userSpaceOnUse"><feFlood flood-opacity="0" result="BackgroundImageFix"/><feColorMatrix in="SourceAlpha" result="hardAlpha" values="0 0 0 0 0 0 0 0 0 0 0 0 0 0 0 0 0 0 127 0"/><feOffset dy="1.058"/><feGaussianBlur stdDeviation="2.117"/><feComposite in2="hardAlpha" operator="out"/><feColorMatrix values="0 0 0 0 0.0117647 0 0 0 0 0.0431373 0 0 0 0 0.0862745 0 0 0 0.05 0"/><feBlend in2="BackgroundImageFix" result="effect1_dropShadow_311_12910"/><feBlend in="SourceGraphic" in2="effect1_dropShadow_311_12910" result="shape"/></filter><filter id="u" width="79.351" height="43.71" x="471.12" y="451.976" color-interpolation-filters="sRGB" filterUnits="userSpaceOnUse"><feFlood flood-opacity="0" result="BackgroundImageFix"/><feColorMatrix in="SourceAlpha" result="hardAlpha" values="0 0 0 0 0 0 0 0 0 0 0 0 0 0 0 0 0 0 127 0"/><feOffset dy="1.345"/><feGaussianBlur stdDeviation="2.69"/><feComposite in2="hardAlpha" operator="out"/><feColorMatrix values="0 0 0 0 0.0117647 0 0 0 0 0.0431373 0 0 0 0 0.0862745 0 0 0 0.05 0"/><feBlend in2="BackgroundImageFix" result="effect1_dropShadow_311_12910"/><feBlend in="SourceGraphic" in2="effect1_dropShadow_311_12910" result="shape"/></filter><filter id="v" width="254.863" height="43.71" x="547.781" y="451.976" color-interpolation-filters="sRGB" filterUnits="userSpaceOnUse"><feFlood flood-opacity="0" result="BackgroundImageFix"/><feColorMatrix in="SourceAlpha" result="hardAlpha" values="0 0 0 0 0 0 0 0 0 0 0 0 0 0 0 0 0 0 127 0"/><feOffset dy="1.345"/><feGaussianBlur stdDeviation="2.69"/><feComposite in2="hardAlpha" operator="out"/><feColorMatrix values="0 0 0 0 0.0117647 0 0 0 0 0.0431373 0 0 0 0 0.0862745 0 0 0 0.05 0"/><feBlend in2="BackgroundImageFix" result="effect1_dropShadow_311_12910"/><feBlend in="SourceGraphic" in2="effect1_dropShadow_311_12910" result="shape"/></filter><linearGradient id="i" x1="24.993" x2="26.504" y1="92.742" y2="112.141" gradientUnits="userSpaceOnUse"><stop stop-color="#D461F0"/><stop offset=".525" stop-color="#A587FF"/><stop offset="1" stop-color="#618CFF"/></linearGradient><linearGradient id="j" x1="29.124" x2="30.031" y1="97.054" y2="108.693" gradientUnits="userSpaceOnUse"><stop stop-color="#D461F0"/><stop offset=".525" stop-color="#A587FF"/><stop offset="1" stop-color="#618CFF"/></linearGradient><linearGradient id="w" x1="768.349" x2="787.258" y1="475.86" y2="486.172" gradientUnits="userSpaceOnUse"><stop stop-color="#FFFCFC" stop-opacity=".7"/><stop offset="1" stop-color="#FFFEFE" stop-opacity=".5"/></linearGradient></defs></svg>