<svg width="17" height="17" viewBox="0 0 17 17" fill="none" xmlns="http://www.w3.org/2000/svg">
<path d="M8.48542 1.76875C10.6825 1.76875 10.9428 1.77714 11.8105 1.81673C12.6127 1.85332 13.0484 1.98737 13.3384 2.10005C13.7225 2.24932 13.9966 2.42763 14.2845 2.71556C14.5725 3.00352 14.7508 3.27763 14.9 3.66172C15.0127 3.95167 15.1468 4.38736 15.1834 5.18964C15.223 6.0573 15.2314 6.31757 15.2314 8.51466C15.2314 10.7118 15.223 10.972 15.1834 11.8397C15.1468 12.642 15.0127 13.0777 14.9 13.3676C14.7508 13.7517 14.5725 14.0258 14.2845 14.3138C13.9966 14.6017 13.7225 14.78 13.3384 14.9293C13.0484 15.042 12.6127 15.176 11.8105 15.2126C10.9429 15.2522 10.6827 15.2606 8.48542 15.2606C6.28813 15.2606 6.02793 15.2522 5.16036 15.2126C4.35808 15.176 3.92238 15.042 3.63243 14.9293C3.24834 14.78 2.97423 14.6017 2.6863 14.3138C2.39838 14.0258 2.22003 13.7517 2.07076 13.3676C1.95807 13.0777 1.82402 12.642 1.78744 11.8397C1.74785 10.972 1.73946 10.7118 1.73946 8.51466C1.73946 6.31757 1.74785 6.0573 1.78744 5.18964C1.82402 4.38736 1.95807 3.95167 2.07076 3.66172C2.22003 3.27763 2.39834 3.00352 2.6863 2.71559C2.97423 2.42763 3.24834 2.24932 3.63243 2.10005C3.92238 1.98737 4.35808 1.85332 5.16036 1.81673C6.02803 1.77714 6.28829 1.76875 8.48542 1.76875ZM8.48542 0.286133C6.25066 0.286133 5.97044 0.295605 5.09278 0.33565C4.21694 0.375597 3.61878 0.51471 3.09538 0.718104C2.55428 0.92839 2.09539 1.20975 1.63791 1.6672C1.18046 2.12468 0.899096 2.58357 0.688842 3.12467C0.485414 3.64806 0.346301 4.24623 0.306354 5.12206C0.266308 5.99972 0.256836 6.27994 0.256836 8.51466C0.256836 10.7494 0.266308 11.0296 0.306354 11.9073C0.346301 12.7831 0.485414 13.3813 0.688842 13.9047C0.899096 14.4458 1.18046 14.9047 1.63791 15.3622C2.09539 15.8196 2.55428 16.101 3.09538 16.3112C3.61878 16.5146 4.21694 16.6538 5.09278 16.6937C5.97044 16.7337 6.25066 16.7432 8.48542 16.7432C10.7202 16.7432 11.0004 16.7337 11.878 16.6937C12.7539 16.6538 13.352 16.5146 13.8754 16.3112C14.4165 16.101 14.8754 15.8196 15.3329 15.3622C15.7904 14.9047 16.0717 14.4458 16.282 13.9047C16.4854 13.3813 16.6245 12.7831 16.6645 11.9073C16.7045 11.0296 16.714 10.7494 16.714 8.51466C16.714 6.27994 16.7045 5.99972 16.6645 5.12206C16.6245 4.24623 16.4854 3.64806 16.282 3.12467C16.0717 2.58357 15.7904 2.12468 15.3329 1.6672C14.8754 1.20975 14.4165 0.92839 13.8754 0.718104C13.352 0.51471 12.7539 0.375597 11.878 0.33565C11.0004 0.295605 10.7202 0.286133 8.48542 0.286133Z" fill="white"/>
<path d="M8.48917 4.29248C6.15547 4.29248 4.26367 6.18427 4.26367 8.51793C4.26367 10.8516 6.15547 12.7434 8.48917 12.7434C10.8228 12.7434 12.7146 10.8516 12.7146 8.51793C12.7146 6.18427 10.8228 4.29248 8.48917 4.29248ZM8.48917 11.2608C6.97431 11.2608 5.74629 10.0328 5.74629 8.51793C5.74629 7.00311 6.97431 5.7751 8.48917 5.7751C10.004 5.7751 11.232 7.00311 11.232 8.51793C11.232 10.0328 10.004 11.2608 8.48917 11.2608Z" fill="white"/>
<path d="M13.8694 4.12294C13.8694 4.66826 13.4273 5.11036 12.8819 5.11036C12.3366 5.11036 11.8945 4.66826 11.8945 4.12294C11.8945 3.5776 12.3366 3.1355 12.8819 3.1355C13.4273 3.1355 13.8694 3.5776 13.8694 4.12294Z" fill="white"/>
</svg>
