<svg width="17" height="16" viewBox="0 0 17 16" fill="none" xmlns="http://www.w3.org/2000/svg">
<g clip-path="url(#clip0_170_2345)">
<path d="M16.0439 15.714L16.0477 15.7133V10.0549C16.0477 7.28676 15.4518 5.1544 12.2156 5.1544C10.6599 5.1544 9.61593 6.00811 9.18971 6.81747H9.14471V5.41283H6.07635V15.7133H9.27135V10.6129C9.27135 9.26997 9.52593 7.9714 11.189 7.9714C12.8276 7.9714 12.8521 9.50397 12.8521 10.699V15.714H16.0439ZM0.873712 5.41347H4.07257V15.714H0.873712V5.41347ZM2.47185 0.2854C1.44907 0.2854 0.619141 1.11533 0.619141 2.13811C0.619141 3.1609 1.44907 4.00819 2.47185 4.00819C3.49464 4.00819 4.32457 3.1609 4.32457 2.13811C4.32423 1.64685 4.12892 1.1758 3.78155 0.828424C3.43417 0.481046 2.96312 0.285741 2.47185 0.2854Z" fill="white"/>
</g>
<defs>
<clipPath id="clip0_170_2345">
<rect width="15.4286" height="15.4286" fill="white" transform="translate(0.619141 0.2854)"/>
</clipPath>
</defs>
</svg>
