<svg width="18" height="12" viewBox="0 0 18 12" fill="none" xmlns="http://www.w3.org/2000/svg">
<path d="M16.7688 1.33415C16.1748 0.630002 15.078 0.342773 12.9833 0.342773H5.37988C3.23732 0.342773 2.12195 0.64853 1.53013 1.3982C0.953125 2.12914 0.953125 3.20611 0.953125 4.69668V7.53768C0.953125 10.4254 1.63774 11.8915 5.37988 11.8915H12.9834C14.7998 11.8915 15.8064 11.6381 16.4576 11.0167C17.1253 10.3794 17.4103 9.33897 17.4103 7.53768V4.69668C17.4103 3.12475 17.3656 2.04142 16.7688 1.33415ZM11.5187 6.5094L8.06596 8.30874C7.98877 8.34897 7.90436 8.36893 7.82005 8.36893C7.7246 8.36893 7.62936 8.3433 7.54501 8.29238C7.38617 8.19641 7.28918 8.02474 7.28918 7.83957V4.25244C7.28918 4.06759 7.3859 3.89608 7.54442 3.80005C7.703 3.70403 7.90022 3.69746 8.06474 3.78269L11.5174 5.57043C11.6931 5.66137 11.8034 5.8422 11.8037 6.03949C11.8039 6.23694 11.6941 6.41804 11.5187 6.5094Z" fill="white"/>
</svg>
