<svg width="187" height="79" viewBox="0 0 187 79" fill="none" xmlns="http://www.w3.org/2000/svg">
<g filter="url(#filter0_f_1_4338)">
<rect x="16" y="25" width="155" height="38" rx="19" fill="url(#paint0_linear_1_4338)" fill-opacity="0.57"/>
</g>
<g filter="url(#filter1_di_1_4338)">
<rect x="19" y="18" width="149" height="42" rx="21" fill="url(#paint1_linear_1_4338)" shape-rendering="crispEdges"/>
<rect x="20" y="19" width="147" height="40" rx="20" stroke="url(#paint2_linear_1_4338)" stroke-opacity="0.11" stroke-width="2" shape-rendering="crispEdges"/>
<path d="M56.7051 45.8294C55.485 45.8294 54.4418 45.622 53.5755 45.2072C52.7214 44.7801 52.0259 44.225 51.4891 43.5417C50.9644 42.8462 50.574 42.1019 50.3177 41.3089C50.0737 40.5036 49.9517 39.7288 49.9517 38.9845V38.5819C49.9517 37.7644 50.0798 36.953 50.336 36.1477C50.5923 35.3424 50.9827 34.6103 51.5074 33.9515C52.0442 33.2926 52.7336 32.7618 53.5755 32.3592C54.4296 31.9566 55.4362 31.7552 56.5953 31.7552C57.8032 31.7552 58.8464 31.9688 59.7249 32.3958C60.6034 32.8229 61.2989 33.4207 61.8114 34.1894C62.336 34.9459 62.6472 35.8427 62.7448 36.8798H60.5302C60.4326 36.1965 60.2008 35.6291 59.8348 35.1777C59.4809 34.7141 59.0234 34.3663 58.4621 34.1345C57.913 33.9027 57.2908 33.7868 56.5953 33.7868C55.8754 33.7868 55.2349 33.9149 54.6736 34.1711C54.1245 34.4273 53.667 34.7812 53.301 35.2326C52.9349 35.6841 52.6543 36.2148 52.4591 36.8249C52.276 37.4227 52.1845 38.0816 52.1845 38.8015C52.1845 39.4848 52.276 40.1314 52.4591 40.7415C52.6543 41.3394 52.941 41.8701 53.3193 42.3338C53.6975 42.7974 54.1672 43.1574 54.7285 43.4136C55.302 43.6698 55.9608 43.7979 56.7051 43.7979C57.7788 43.7979 58.6817 43.5356 59.4138 43.0109C60.1459 42.4741 60.5912 41.7115 60.7499 40.7232H62.9827C62.8607 41.6627 62.5434 42.5229 62.031 43.3038C61.5185 44.0724 60.817 44.6886 59.9263 45.1523C59.0356 45.6037 57.9619 45.8294 56.7051 45.8294ZM65.2681 45.5V32.1396H67.4278V45.5H65.2681ZM63.9687 33.7868V32.1396H67.4278V33.7868H63.9687ZM75.2042 45.8294C74.3379 45.8294 73.5754 45.6891 72.9165 45.4085C72.2576 45.1157 71.7025 44.7313 71.251 44.2555C70.7996 43.7796 70.4579 43.2428 70.2261 42.6449C69.9943 42.0348 69.8784 41.4065 69.8784 40.7598V40.3938C69.8784 39.7471 69.9943 39.1187 70.2261 38.5087C70.4701 37.8986 70.8179 37.3556 71.2693 36.8798C71.733 36.3917 72.2942 36.0074 72.9531 35.7268C73.612 35.4461 74.3624 35.3058 75.2042 35.3058C76.0461 35.3058 76.7904 35.4461 77.4371 35.7268C78.0959 36.0074 78.6572 36.3917 79.1209 36.8798C79.5845 37.3556 79.9322 37.8986 80.1641 38.5087C80.4081 39.1187 80.5301 39.7471 80.5301 40.3938V40.7598C80.5301 41.4065 80.4142 42.0348 80.1824 42.6449C79.9505 43.2428 79.6089 43.7796 79.1575 44.2555C78.706 44.7313 78.1509 45.1157 77.492 45.4085C76.8331 45.6891 76.0705 45.8294 75.2042 45.8294ZM75.2042 43.9626C75.8753 43.9626 76.4488 43.8162 76.9246 43.5234C77.4005 43.2184 77.7604 42.8096 78.0044 42.2972C78.2607 41.7847 78.3888 41.2112 78.3888 40.5768C78.3888 39.9301 78.2607 39.3505 78.0044 38.8381C77.7482 38.3256 77.3822 37.923 76.9063 37.6302C76.4305 37.3251 75.8631 37.1726 75.2042 37.1726C74.5454 37.1726 73.978 37.3251 73.5022 37.6302C73.0263 37.923 72.6603 38.3256 72.404 38.8381C72.1478 39.3505 72.0197 39.9301 72.0197 40.5768C72.0197 41.2112 72.1417 41.7847 72.3857 42.2972C72.642 42.8096 73.008 43.2184 73.4839 43.5234C73.9597 43.8162 74.5332 43.9626 75.2042 43.9626ZM86.3636 45.7928C85.2044 45.7928 84.3137 45.4207 83.6915 44.6764C83.0692 43.9199 82.7581 42.8096 82.7581 41.3455V35.6353H84.8994V41.6383C84.8994 42.3216 85.0885 42.8645 85.4668 43.2672C85.845 43.6576 86.3575 43.8528 87.0041 43.8528C87.663 43.8528 88.1999 43.6454 88.6147 43.2306C89.0418 42.8035 89.2553 42.224 89.2553 41.4919V35.6353H91.3966V45.5H89.6945V41.2906H89.9141C89.9141 42.2789 89.7799 43.1085 89.5115 43.7796C89.2553 44.4385 88.8709 44.9387 88.3585 45.2804C87.8582 45.622 87.2238 45.7928 86.4551 45.7928H86.3636ZM98.6769 45.8294C97.9692 45.8294 97.3226 45.7013 96.7369 45.4451C96.1634 45.1889 95.6571 44.8289 95.2178 44.3653C94.7908 43.9016 94.4614 43.3648 94.2295 42.7547C93.9977 42.1446 93.8818 41.4797 93.8818 40.7598V40.4121C93.8818 39.7044 93.9916 39.0455 94.2112 38.4354C94.4431 37.8132 94.7664 37.2702 95.1812 36.8066C95.5961 36.3429 96.0902 35.983 96.6637 35.7268C97.2494 35.4583 97.896 35.3241 98.6037 35.3241C99.3602 35.3241 100.037 35.4888 100.635 35.8183C101.245 36.1355 101.733 36.6297 102.099 37.3007C102.478 37.9596 102.685 38.8015 102.722 39.8264L101.99 38.8198V32.1396H104.131V45.5H102.429V41.2173H102.905C102.868 42.2789 102.648 43.1513 102.246 43.8345C101.855 44.5178 101.349 45.0241 100.727 45.3536C100.104 45.6708 99.4212 45.8294 98.6769 45.8294ZM99.0796 43.9809C99.6286 43.9809 100.123 43.8589 100.562 43.6149C101.013 43.3709 101.373 43.017 101.642 42.5534C101.922 42.0775 102.063 41.5224 102.063 40.8879V40.1009C102.063 39.4787 101.922 38.9479 101.642 38.5087C101.361 38.0694 100.995 37.7339 100.544 37.502C100.092 37.2702 99.5981 37.1543 99.0613 37.1543C98.4634 37.1543 97.9326 37.3007 97.469 37.5936C97.0175 37.8742 96.6637 38.2707 96.4075 38.7832C96.1512 39.2956 96.0231 39.8935 96.0231 40.5768C96.0231 41.2723 96.1512 41.8762 96.4075 42.3887C96.6759 42.9011 97.0419 43.2977 97.5056 43.5783C97.9692 43.8467 98.4939 43.9809 99.0796 43.9809ZM113.233 45.5V42.5534H112.885V39.2224C112.885 38.6124 112.727 38.1487 112.41 37.8315C112.092 37.5143 111.623 37.3556 111 37.3556C110.659 37.3556 110.28 37.3617 109.866 37.3739C109.451 37.3861 109.042 37.4044 108.639 37.4288C108.249 37.441 107.901 37.4593 107.596 37.4837V35.6353C107.865 35.6108 108.157 35.5925 108.475 35.5803C108.804 35.5559 109.14 35.5376 109.481 35.5254C109.835 35.5132 110.171 35.5071 110.488 35.5071C111.488 35.5071 112.318 35.6353 112.977 35.8915C113.636 36.1477 114.124 36.5564 114.441 37.1177C114.77 37.6668 114.935 38.4049 114.935 39.3322V45.5H113.233ZM110.03 45.7562C109.31 45.7562 108.682 45.6342 108.145 45.3902C107.608 45.134 107.193 44.7679 106.901 44.2921C106.608 43.804 106.461 43.2245 106.461 42.5534C106.461 41.8457 106.626 41.26 106.956 40.7964C107.297 40.3328 107.779 39.985 108.401 39.7532C109.024 39.5214 109.768 39.4055 110.634 39.4055H113.105V40.8147H110.579C109.933 40.8147 109.439 40.9733 109.097 41.2906C108.755 41.5956 108.584 41.9982 108.584 42.4985C108.584 42.9987 108.755 43.4014 109.097 43.7064C109.439 43.9992 109.933 44.1457 110.579 44.1457C110.958 44.1457 111.318 44.0785 111.659 43.9443C112.001 43.7979 112.281 43.56 112.501 43.2306C112.733 42.9011 112.861 42.4375 112.885 41.8396L113.434 42.5534C113.373 43.2489 113.203 43.8345 112.922 44.3104C112.654 44.774 112.275 45.134 111.787 45.3902C111.311 45.6342 110.726 45.7562 110.03 45.7562ZM118.395 45.5V35.6353H120.537V45.5H118.395ZM116.949 37.2824V35.6353H120.537V37.2824H116.949ZM119.091 34.2626C118.651 34.2626 118.322 34.1467 118.102 33.9149C117.895 33.683 117.791 33.3841 117.791 33.0181C117.791 32.6642 117.895 32.3714 118.102 32.1396C118.322 31.8956 118.651 31.7735 119.091 31.7735C119.542 31.7735 119.872 31.8956 120.079 32.1396C120.299 32.3714 120.408 32.6642 120.408 33.0181C120.408 33.3841 120.299 33.683 120.079 33.9149C119.872 34.1467 119.542 34.2626 119.091 34.2626ZM123.728 45.5V35.6353H125.43V39.7532H125.357C125.357 38.3378 125.668 37.2824 126.29 36.587C126.913 35.8793 127.834 35.5254 129.054 35.5254H129.402V37.4105L128.743 37.4105C127.816 37.4105 127.102 37.6607 126.602 38.1609C126.113 38.649 125.869 39.3505 125.869 40.2656V45.5H123.728ZM131.152 49.3617V47.4766H132.781C133.159 47.4766 133.483 47.4278 133.751 47.3302C134.019 47.2448 134.239 47.0862 134.41 46.8543C134.581 46.6347 134.721 46.3358 134.831 45.9575L137.704 35.6353H139.772L136.661 46.47C136.466 47.1533 136.191 47.7084 135.837 48.1355C135.496 48.5625 135.057 48.8737 134.52 49.0689C133.995 49.2641 133.361 49.3617 132.616 49.3617H131.152ZM134.19 45.2804V43.5417H136.313V45.2804H134.19ZM133.66 45.2804L130.31 35.6353H132.488L135.691 45.2804H133.66Z" fill="white"/>
</g>
<g filter="url(#filter2_di_1_4338)">
<path d="M5 3L30 11.6667L18.8889 17.4444L13.3333 29L5 3Z" fill="url(#paint3_linear_1_4338)"/>
</g>
<defs>
<filter id="filter0_f_1_4338" x="0.4" y="9.4" width="186.2" height="69.2" filterUnits="userSpaceOnUse" color-interpolation-filters="sRGB">
<feFlood flood-opacity="0" result="BackgroundImageFix"/>
<feBlend mode="normal" in="SourceGraphic" in2="BackgroundImageFix" result="shape"/>
<feGaussianBlur stdDeviation="7.8" result="effect1_foregroundBlur_1_4338"/>
</filter>
<filter id="filter1_di_1_4338" x="14" y="15" width="159" height="52" filterUnits="userSpaceOnUse" color-interpolation-filters="sRGB">
<feFlood flood-opacity="0" result="BackgroundImageFix"/>
<feColorMatrix in="SourceAlpha" type="matrix" values="0 0 0 0 0 0 0 0 0 0 0 0 0 0 0 0 0 0 127 0" result="hardAlpha"/>
<feOffset dy="2"/>
<feGaussianBlur stdDeviation="2.5"/>
<feComposite in2="hardAlpha" operator="out"/>
<feColorMatrix type="matrix" values="0 0 0 0 0.725167 0 0 0 0 0.595833 0 0 0 0 1 0 0 0 0.46 0"/>
<feBlend mode="normal" in2="BackgroundImageFix" result="effect1_dropShadow_1_4338"/>
<feBlend mode="normal" in="SourceGraphic" in2="effect1_dropShadow_1_4338" result="shape"/>
<feColorMatrix in="SourceAlpha" type="matrix" values="0 0 0 0 0 0 0 0 0 0 0 0 0 0 0 0 0 0 127 0" result="hardAlpha"/>
<feOffset dy="4"/>
<feGaussianBlur stdDeviation="4.25"/>
<feComposite in2="hardAlpha" operator="arithmetic" k2="-1" k3="1"/>
<feColorMatrix type="matrix" values="0 0 0 0 1 0 0 0 0 1 0 0 0 0 1 0 0 0 0.25 0"/>
<feBlend mode="plus-lighter" in2="shape" result="effect2_innerShadow_1_4338"/>
</filter>
<filter id="filter2_di_1_4338" x="0" y="0" width="35" height="36" filterUnits="userSpaceOnUse" color-interpolation-filters="sRGB">
<feFlood flood-opacity="0" result="BackgroundImageFix"/>
<feColorMatrix in="SourceAlpha" type="matrix" values="0 0 0 0 0 0 0 0 0 0 0 0 0 0 0 0 0 0 127 0" result="hardAlpha"/>
<feOffset dy="2"/>
<feGaussianBlur stdDeviation="2.5"/>
<feComposite in2="hardAlpha" operator="out"/>
<feColorMatrix type="matrix" values="0 0 0 0 0.725167 0 0 0 0 0.595833 0 0 0 0 1 0 0 0 0.46 0"/>
<feBlend mode="normal" in2="BackgroundImageFix" result="effect1_dropShadow_1_4338"/>
<feBlend mode="normal" in="SourceGraphic" in2="effect1_dropShadow_1_4338" result="shape"/>
<feColorMatrix in="SourceAlpha" type="matrix" values="0 0 0 0 0 0 0 0 0 0 0 0 0 0 0 0 0 0 127 0" result="hardAlpha"/>
<feOffset dy="4"/>
<feGaussianBlur stdDeviation="4.25"/>
<feComposite in2="hardAlpha" operator="arithmetic" k2="-1" k3="1"/>
<feColorMatrix type="matrix" values="0 0 0 0 1 0 0 0 0 1 0 0 0 0 1 0 0 0 0.25 0"/>
<feBlend mode="plus-lighter" in2="shape" result="effect2_innerShadow_1_4338"/>
</filter>
<linearGradient id="paint0_linear_1_4338" x1="3.08333" y1="22.8889" x2="34.8389" y2="109.865" gradientUnits="userSpaceOnUse">
<stop stop-color="#D461F0"/>
<stop offset="0.525" stop-color="#A587FF"/>
<stop offset="1" stop-color="#618CFF"/>
</linearGradient>
<linearGradient id="paint1_linear_1_4338" x1="6.58333" y1="15.6667" x2="45.4658" y2="108.29" gradientUnits="userSpaceOnUse">
<stop stop-color="#D461F0"/>
<stop offset="0.525" stop-color="#A587FF"/>
<stop offset="1" stop-color="#618CFF"/>
</linearGradient>
<linearGradient id="paint2_linear_1_4338" x1="162" y1="60" x2="22" y2="18" gradientUnits="userSpaceOnUse">
<stop stop-color="white"/>
<stop offset="1" stop-color="#999999"/>
</linearGradient>
<linearGradient id="paint3_linear_1_4338" x1="2.91667" y1="1.55556" x2="33.6496" y2="21.3983" gradientUnits="userSpaceOnUse">
<stop stop-color="#D461F0"/>
<stop offset="0.525" stop-color="#A587FF"/>
<stop offset="1" stop-color="#618CFF"/>
</linearGradient>
</defs>
</svg>
