<svg width="98" height="50" viewBox="0 0 98 50" fill="none" xmlns="http://www.w3.org/2000/svg">
<path fill-rule="evenodd" clip-rule="evenodd" d="M10.2826 11.7622V9.72201C10.2826 7.14192 12.3818 5.04036 14.9642 5.04036C15.9061 5.04036 16.7838 5.32002 17.5188 5.80055C18.3763 4.70539 19.7103 4 21.2064 4C23.0105 4 24.5791 5.02597 25.3605 6.52428C25.9419 6.23985 26.5909 6.08073 27.2752 6.08073C29.033 6.08073 30.5586 7.13111 31.3018 8.65838C31.9296 8.34064 32.6392 8.16146 33.39 8.16146C35.9466 8.16146 38.0256 10.2397 38.0256 12.7911V29.2521C38.0256 34.6409 33.6352 39.0256 28.239 39.0256H16.8314C14.3446 39.0256 11.5138 37.5954 9.06429 35.0998C5.08998 31.0481 2.8812 25.1428 3.00493 18.8938C3.08529 14.962 6.32207 11.7622 10.2243 11.7622H10.2826Z" fill="white"/>
<path fill-rule="evenodd" clip-rule="evenodd" d="M10.2826 11.7622V9.72201C10.2826 7.14192 12.3818 5.04036 14.9642 5.04036C15.9061 5.04036 16.7838 5.32002 17.5188 5.80055C18.3763 4.70539 19.7103 4 21.2064 4C23.0105 4 24.5791 5.02597 25.3605 6.52428C25.9419 6.23985 26.5909 6.08073 27.2752 6.08073C29.033 6.08073 30.5586 7.13111 31.3018 8.65838C31.9296 8.34064 32.6392 8.16146 33.39 8.16146C35.9466 8.16146 38.0256 10.2397 38.0256 12.7911V29.2521C38.0256 34.6409 33.6352 39.0256 28.239 39.0256H16.8314C14.3446 39.0256 11.5138 37.5954 9.06429 35.0998C5.08998 31.0481 2.8812 25.1428 3.00493 18.8938C3.08529 14.962 6.32207 11.7622 10.2243 11.7622H10.2826ZM22.7669 17.0046C22.7669 17.866 23.466 18.5651 24.3275 18.5651C25.1889 18.5651 25.888 17.866 25.888 17.0046V10.1622C26.1148 9.59912 26.6507 9.20182 27.2752 9.20182C28.1047 9.20182 28.7779 9.90285 28.7779 10.7624V12.3227C28.7623 12.4767 28.7544 12.633 28.7544 12.7911C28.7544 12.8831 28.7624 12.9732 28.7779 13.0608V17.0046C28.7779 17.866 29.4512 18.5651 30.2807 18.5651C31.1102 18.5651 31.7834 17.866 31.7834 17.0046V13.2228C31.8234 13.0858 31.8448 12.9409 31.8448 12.7911C31.8448 11.9415 32.537 11.2479 33.39 11.2479C34.2429 11.2479 34.9352 11.9415 34.9352 12.7911V29.2521C34.9352 32.9391 31.9312 35.9045 28.239 35.9045H16.8314C15.1957 35.9045 13.1167 34.818 11.2727 32.9391C9.666 31.3013 5.94294 26.6592 6.09761 18.9537C6.14288 16.6514 7.95367 14.8486 10.2243 14.8486H10.2826V19.0853C10.2826 19.9467 10.9817 20.6458 11.8431 20.6458C12.7045 20.6458 13.4036 19.9467 13.4036 19.0853V9.72201C13.4036 8.86287 14.1028 8.16146 14.9642 8.16146C15.8256 8.16146 16.5247 8.86287 16.5247 9.72201V17.0047C16.5247 17.8661 17.2239 18.5652 18.0853 18.5652C18.9467 18.5652 19.6458 17.8661 19.6458 17.0047V9.72201C19.6458 9.49772 19.63 9.27706 19.5993 9.06108C19.6297 8.93957 19.6458 8.81244 19.6458 8.68156C19.6458 7.82243 20.345 7.12104 21.2064 7.12104C22.0678 7.12104 22.7669 7.82243 22.7669 8.68156V17.0046Z" fill="url(#paint0_linear_180_1012)"/>
<defs>
<linearGradient id="paint0_linear_180_1012" x1="10.7834" y1="6.04316" x2="36.2423" y2="33.1013" gradientUnits="userSpaceOnUse">
<stop stop-color="#D461F0"/>
<stop offset="0.525" stop-color="#A587FF"/>
<stop offset="1" stop-color="#618CFF"/>
</linearGradient>
</defs>
</svg>
