<svg width="165" height="57" viewBox="0 0 165 57" fill="none" xmlns="http://www.w3.org/2000/svg">
<rect x="16" y="15" width="149" height="42" rx="21" fill="#6762FE"/>
<path d="M53.7051 42.8294C48.8185 42.8294 46.9517 38.986 46.9517 35.9845V35.5819C46.9517 32.3241 48.9283 28.7552 53.5953 28.7552C57.2008 28.7552 59.4153 30.8051 59.7448 33.8798H57.5302C57.2374 31.83 55.6634 30.7868 53.5953 30.7868C50.7036 30.7868 49.1845 32.9464 49.1845 35.8015C49.1845 38.5468 50.7219 40.7979 53.7051 40.7979C55.8464 40.7979 57.4387 39.6998 57.7499 37.7232H59.9827C59.6166 40.5417 57.4753 42.8294 53.7051 42.8294ZM64.4278 42.5H62.2681V30.7868H60.9687V29.1396L64.4278 29.1396V42.5ZM72.2042 42.8294C68.7635 42.8294 66.8784 40.3221 66.8784 37.7598V37.3938C66.8784 34.7766 68.855 32.3058 72.2042 32.3058C75.5535 32.3058 77.5301 34.7766 77.5301 37.3938V37.7598C77.5301 40.3221 75.645 42.8294 72.2042 42.8294ZM72.2042 40.9626C74.2358 40.9626 75.3888 39.4985 75.3888 37.5768C75.3888 35.6185 74.1809 34.1726 72.2042 34.1726C70.2276 34.1726 69.0197 35.6185 69.0197 37.5768C69.0197 39.4985 70.1727 40.9626 72.2042 40.9626ZM83.4551 42.7928H83.3636C81.0392 42.7928 79.7581 41.2738 79.7581 38.3455V32.6353H81.8994V38.6383C81.8994 40.0109 82.723 40.8528 84.0041 40.8528C85.3219 40.8528 86.2553 39.9377 86.2553 38.4919V32.6353H88.3966V42.5H86.6945V40.2489C86.2553 41.9143 85.1755 42.7928 83.4551 42.7928ZM95.6769 42.8294C92.8767 42.8294 90.8818 40.6149 90.8818 37.7598V37.4121C90.8818 34.5753 92.7852 32.3241 95.6037 32.3241C97.0496 32.3241 98.2575 32.8915 98.9896 34.0994V29.1396H101.131V42.5H99.4288V40.4685C98.715 42.0974 97.2875 42.8294 95.6769 42.8294ZM96.0796 40.9809C97.7267 40.9809 99.0628 39.8096 99.0628 37.8879V37.1009C99.0628 35.2341 97.6535 34.1543 96.0613 34.1543C94.2494 34.1543 93.0231 35.527 93.0231 37.5768C93.0231 39.6632 94.3043 40.9809 96.0796 40.9809ZM107.03 42.7562C104.834 42.7562 103.461 41.5849 103.461 39.5534C103.461 37.4487 105.035 36.4055 107.634 36.4055H109.885V36.2224C109.885 34.9962 109.245 34.3556 108 34.3556C106.975 34.3556 105.493 34.4288 104.596 34.4837V32.6353C105.401 32.562 106.554 32.5071 107.488 32.5071C110.508 32.5071 111.935 33.587 111.935 36.3322V42.5H110.233V40.6149C109.794 42.0241 108.714 42.7562 107.03 42.7562ZM107.579 41.1457C108.714 41.1457 109.812 40.6149 109.885 38.8396V37.8147H107.579C106.298 37.8147 105.584 38.5102 105.584 39.4985C105.584 40.4868 106.298 41.1457 107.579 41.1457ZM116.091 31.2626C115.212 31.2626 114.791 30.7501 114.791 30.0181C114.791 29.3043 115.212 28.7735 116.091 28.7735C116.988 28.7735 117.408 29.3043 117.408 30.0181C117.408 30.7501 116.988 31.2626 116.091 31.2626ZM117.537 42.5H115.395V34.2824H113.949V32.6353H117.537V42.5ZM122.869 42.5H120.728V32.6353H122.43V35.6368C122.723 33.5503 123.949 32.5254 126.054 32.5254H126.402V34.4105L125.743 34.4105C123.894 34.4105 122.869 35.4354 122.869 37.2656V42.5ZM129.616 46.3617H128.152V44.4766H129.781C130.916 44.4766 131.501 44.0923 131.831 42.9575L132.014 42.2804H130.66L127.31 32.6353H129.488L132.105 40.5417H132.508L134.704 32.6353H136.772L133.661 43.47C133.075 45.5381 131.831 46.3617 129.616 46.3617Z" fill="white"/>
<path d="M0 0L25 8.66667L13.8889 14.4444L8.33333 26L0 0Z" fill="#6762FE"/>
</svg>
