<svg width="153" height="168" viewBox="0 0 153 168" fill="none" xmlns="http://www.w3.org/2000/svg">
<g style="mix-blend-mode:multiply" opacity="0.52">
<g style="mix-blend-mode:multiply" filter="url(#filter0_f_1_4328)">
<path d="M76.0704 12L141.5 152C141.5 152 118.67 148.544 88.5003 145.5C73.122 145.5 75.1643 145.5 62.0003 145.5C14.6712 145.5 11.5 156 11.5 156L76.0704 12Z" fill="url(#paint0_linear_1_4328)"/>
</g>
</g>
<rect x="6" y="8" width="138.108" height="137.545" rx="11.7991" fill="url(#paint1_linear_1_4328)"/>
<path d="M20.9997 63.9388C20.9997 62.3384 22.2971 61.041 23.8974 61.041H102.812C104.413 61.041 105.71 62.3384 105.71 63.9388C105.71 65.5392 104.413 66.8365 102.812 66.8365H23.8975C22.2971 66.8365 20.9997 65.5392 20.9997 63.9388Z" fill="url(#paint2_linear_1_4328)" fill-opacity="0.65"/>
<path d="M20.9995 78.5451C20.9995 76.9447 22.2969 75.6473 23.8973 75.6473H102.812C104.413 75.6473 105.71 76.9447 105.71 78.5451C105.71 80.1454 104.413 81.4428 102.812 81.4428H23.8973C22.2969 81.4428 20.9995 80.1454 20.9995 78.5451Z" fill="url(#paint3_linear_1_4328)" fill-opacity="0.65"/>
<path d="M20.9995 93.2112C20.9995 91.6108 22.2969 90.3135 23.8973 90.3135H102.812C104.413 90.3135 105.71 91.6108 105.71 93.2112C105.71 94.8116 104.413 96.109 102.812 96.109H23.8973C22.2969 96.109 20.9995 94.8116 20.9995 93.2112Z" fill="url(#paint4_linear_1_4328)" fill-opacity="0.65"/>
<path d="M20.9995 107.877C20.9995 106.277 22.2969 104.98 23.8973 104.98H76.5228C78.1232 104.98 79.4206 106.277 79.4206 107.877C79.4206 109.478 78.1232 110.775 76.5228 110.775H23.8973C22.2969 110.775 20.9995 109.478 20.9995 107.877Z" fill="url(#paint5_linear_1_4328)" fill-opacity="0.65"/>
<path d="M23.9006 41.8145V25.9636H29.7415L35.7127 38.9266H36.451L36.0167 39.3174V25.9636H39.3606V41.8145H33.4763L27.5051 28.8515H26.7668L27.2011 28.4607V41.8145H23.9006ZM48.5232 42.227C47.4809 42.227 46.5545 42.0678 45.7438 41.7493C44.9332 41.4164 44.2456 40.9676 43.6811 40.4031C43.131 39.8385 42.7112 39.1944 42.4217 38.4706C42.1322 37.7323 41.9874 36.9579 41.9874 36.1472V35.6478C41.9874 34.8227 42.1322 34.041 42.4217 33.3028C42.7257 32.55 43.1599 31.8914 43.7245 31.3269C44.3035 30.7623 44.9983 30.3208 45.809 30.0023C46.6196 29.6694 47.5243 29.5029 48.5232 29.5029C49.5509 29.5029 50.4629 29.6694 51.2591 30.0023C52.0697 30.3208 52.7573 30.7623 53.3218 31.3269C53.8864 31.8914 54.3207 32.55 54.6246 33.3028C54.9286 34.041 55.0806 34.8227 55.0806 35.6478V36.1472C55.0806 36.9579 54.9359 37.7323 54.6464 38.4706C54.3568 39.1944 53.9298 39.8385 53.3653 40.4031C52.8152 40.9676 52.1348 41.4164 51.3242 41.7493C50.5136 42.0678 49.5799 42.227 48.5232 42.227ZM48.5232 39.2957C49.2035 39.2957 49.7681 39.1509 50.2168 38.8614C50.6656 38.5719 51.0057 38.1666 51.2373 37.6455C51.4834 37.1243 51.6065 36.5453 51.6065 35.9084C51.6065 35.228 51.4834 34.6345 51.2373 34.1279C50.9913 33.6068 50.6366 33.1942 50.1734 32.8902C49.7246 32.5862 49.1746 32.4342 48.5232 32.4342C47.8862 32.4342 47.3362 32.5862 46.8729 32.8902C46.4097 33.1942 46.0551 33.6068 45.809 34.1279C45.5774 34.6345 45.4616 35.228 45.4616 35.9084C45.4616 36.5453 45.5774 37.1243 45.809 37.6455C46.0406 38.1666 46.388 38.5719 46.8512 38.8614C47.3144 39.1509 47.8718 39.2957 48.5232 39.2957ZM62.9119 41.9664C61.7104 41.9664 60.7405 41.8217 60.0023 41.5322C59.264 41.2282 58.7212 40.7288 58.3738 40.034C58.0408 39.3246 57.8744 38.3693 57.8744 37.1678V26.7019H61.1097V37.2981C61.1097 37.8626 61.2544 38.2969 61.5439 38.6009C61.8479 38.8904 62.275 39.0351 62.825 39.0351H64.5838V41.9664H62.9119ZM56.0721 32.456V29.9155H64.5838V32.456H56.0721ZM72.3277 42.227C71.3144 42.227 70.4169 42.0533 69.6352 41.7059C68.868 41.3585 68.2239 40.8953 67.7027 40.3162C67.1961 39.7227 66.8053 39.0641 66.5302 38.3403C66.2697 37.602 66.1394 36.8493 66.1394 36.0821V35.6478C66.1394 34.8517 66.2697 34.0917 66.5302 33.3679C66.8053 32.6297 67.1961 31.971 67.7027 31.392C68.2094 30.813 68.8391 30.357 69.5918 30.0241C70.359 29.6766 71.2276 29.5029 72.1974 29.5029C73.4713 29.5029 74.5425 29.7924 75.411 30.3715C76.294 30.936 76.9672 31.6815 77.4304 32.608C77.8936 33.5199 78.1252 34.5187 78.1252 35.6044V36.7769H67.5942V34.801H76.019L74.8899 35.713C74.8899 35.0037 74.7886 34.3957 74.5859 33.889C74.3833 33.3824 74.0793 32.9988 73.6739 32.7382C73.2831 32.4632 72.7909 32.3257 72.1974 32.3257C71.5895 32.3257 71.0756 32.4632 70.6558 32.7382C70.236 33.0133 69.9175 33.4186 69.7004 33.9542C69.4833 34.4753 69.3747 35.1195 69.3747 35.8867C69.3747 36.596 69.476 37.2184 69.6787 37.754C69.8813 38.2752 70.1998 38.6805 70.6341 38.97C71.0683 39.2595 71.6329 39.4043 72.3277 39.4043C72.9646 39.4043 73.4858 39.2812 73.8911 39.0351C74.2964 38.789 74.5714 38.4851 74.7162 38.1232H77.9081C77.7344 38.9193 77.3942 39.6286 76.8875 40.2511C76.3809 40.8735 75.744 41.3585 74.9768 41.7059C74.2095 42.0533 73.3265 42.227 72.3277 42.227ZM84.9437 42.1836C83.2501 42.1836 81.9256 41.8362 80.9702 41.1413C80.0148 40.4465 79.5081 39.4694 79.4502 38.21H82.5335C82.5914 38.5864 82.8158 38.9266 83.2067 39.2306C83.612 39.5201 84.2127 39.6648 85.0089 39.6648C85.6169 39.6648 86.1163 39.5635 86.5071 39.3608C86.9124 39.1437 87.1151 38.8397 87.1151 38.4489C87.1151 38.1015 86.9631 37.8264 86.6591 37.6238C86.3551 37.4066 85.8123 37.2546 85.0306 37.1678L84.0969 37.0809C82.6638 36.9362 81.5854 36.5381 80.8616 35.8867C80.1523 35.2353 79.7977 34.4029 79.7977 33.3896C79.7977 32.55 80.0075 31.848 80.4273 31.2834C80.8471 30.7189 81.4262 30.2918 82.1644 30.0023C82.9171 29.7128 83.7712 29.5681 84.7266 29.5681C86.261 29.5681 87.4987 29.9082 88.4396 30.5886C89.3805 31.2545 89.8727 32.2243 89.9161 33.4982H86.8328C86.7749 33.1074 86.5722 32.7817 86.2248 32.5211C85.8774 32.2461 85.3635 32.1085 84.6832 32.1085C84.1476 32.1085 83.7205 32.2099 83.4021 32.4125C83.0836 32.6152 82.9244 32.8902 82.9244 33.2376C82.9244 33.5706 83.0619 33.8239 83.3369 33.9976C83.612 34.1713 84.0607 34.2944 84.6832 34.3667L85.6169 34.4536C87.0789 34.6128 88.2152 35.0181 89.0259 35.6695C89.8365 36.321 90.2418 37.1967 90.2418 38.2969C90.2418 39.093 90.0247 39.7879 89.5904 40.3814C89.1561 40.9604 88.5409 41.4091 87.7448 41.7276C86.9486 42.0316 86.0149 42.1836 84.9437 42.1836Z" fill="#EB9B00"/>
<defs>
<filter id="filter0_f_1_4328" x="0.2" y="0.7" width="152.6" height="166.6" filterUnits="userSpaceOnUse" color-interpolation-filters="sRGB">
<feFlood flood-opacity="0" result="BackgroundImageFix"/>
<feBlend mode="normal" in="SourceGraphic" in2="BackgroundImageFix" result="shape"/>
<feGaussianBlur stdDeviation="5.65" result="effect1_foregroundBlur_1_4328"/>
</filter>
<linearGradient id="paint0_linear_1_4328" x1="61.0649" y1="332.347" x2="65.1838" y2="42.5994" gradientUnits="userSpaceOnUse">
<stop stop-color="#3A3A3A"/>
<stop offset="1" stop-color="#FFDB6B"/>
</linearGradient>
<linearGradient id="paint1_linear_1_4328" x1="24" y1="25.5" x2="121.5" y2="138" gradientUnits="userSpaceOnUse">
<stop stop-color="#FFF0B1"/>
<stop offset="1" stop-color="#FFD966"/>
</linearGradient>
<linearGradient id="paint2_linear_1_4328" x1="24" y1="62.5" x2="93.5" y2="112" gradientUnits="userSpaceOnUse">
<stop stop-color="#FFDB6C"/>
<stop offset="1" stop-color="#F5B900"/>
</linearGradient>
<linearGradient id="paint3_linear_1_4328" x1="24" y1="62.5" x2="93.5" y2="112" gradientUnits="userSpaceOnUse">
<stop stop-color="#FFDB6C"/>
<stop offset="1" stop-color="#F5B900"/>
</linearGradient>
<linearGradient id="paint4_linear_1_4328" x1="24" y1="62.5" x2="93.5" y2="112" gradientUnits="userSpaceOnUse">
<stop stop-color="#FFDB6C"/>
<stop offset="1" stop-color="#F5B900"/>
</linearGradient>
<linearGradient id="paint5_linear_1_4328" x1="24" y1="62.5" x2="93.5" y2="112" gradientUnits="userSpaceOnUse">
<stop stop-color="#FFDB6C"/>
<stop offset="1" stop-color="#F5B900"/>
</linearGradient>
</defs>
</svg>
