<svg width="156" height="58" viewBox="0 0 156 58" fill="none" xmlns="http://www.w3.org/2000/svg">
<rect y="15.5859" width="136" height="42" rx="21" fill="#A587FF"/>
<path d="M28.4936 43.9154C27.5785 43.9154 26.761 43.7324 26.0411 43.3663C25.3213 42.9881 24.76 42.439 24.3574 41.7191C23.9547 40.9993 23.7534 40.1025 23.7534 39.0288V38.498H25.9313V39.3033C25.9313 40.1086 26.1693 40.743 26.6451 41.2067C27.121 41.6581 27.7371 41.8839 28.4936 41.8839C29.2379 41.8839 29.8479 41.6581 30.3238 41.2067C30.7997 40.743 31.0376 40.1086 31.0376 39.3033V31.7995H33.2338V39.0288C33.2338 40.1025 33.0325 40.9993 32.6298 41.7191C32.2272 42.439 31.6659 42.9881 30.9461 43.3663C30.2384 43.7324 29.4209 43.9154 28.4936 43.9154ZM25.4372 32.1655V30.2255H33.2338V32.1655H25.4372ZM41.0053 43.9154C40.139 43.9154 39.3764 43.7751 38.7175 43.4944C38.0587 43.2016 37.5035 42.8173 37.0521 42.3414C36.6006 41.8656 36.259 41.3287 36.0271 40.7308C35.7953 40.1208 35.6794 39.4924 35.6794 38.8457V38.4797C35.6794 37.833 35.7953 37.2047 36.0271 36.5946C36.2712 35.9845 36.6189 35.4416 37.0704 34.9657C37.534 34.4777 38.0953 34.0933 38.7541 33.8127C39.413 33.5321 40.1634 33.3918 41.0053 33.3918C41.8472 33.3918 42.5914 33.5321 43.2381 33.8127C43.897 34.0933 44.4582 34.4777 44.9219 34.9657C45.3855 35.4416 45.7333 35.9845 45.9651 36.5946C46.2091 37.2047 46.3311 37.833 46.3311 38.4797V38.8457C46.3311 39.4924 46.2152 40.1208 45.9834 40.7308C45.7516 41.3287 45.4099 41.8656 44.9585 42.3414C44.507 42.8173 43.9519 43.2016 43.293 43.4944C42.6341 43.7751 41.8716 43.9154 41.0053 43.9154ZM41.0053 42.0486C41.6763 42.0486 42.2498 41.9022 42.7257 41.6093C43.2015 41.3043 43.5614 40.8956 43.8055 40.3831C44.0617 39.8706 44.1898 39.2972 44.1898 38.6627C44.1898 38.016 44.0617 37.4365 43.8055 36.924C43.5492 36.4116 43.1832 36.0089 42.7074 35.7161C42.2315 35.4111 41.6641 35.2586 41.0053 35.2586C40.3464 35.2586 39.779 35.4111 39.3032 35.7161C38.8273 36.0089 38.4613 36.4116 38.2051 36.924C37.9488 37.4365 37.8207 38.016 37.8207 38.6627C37.8207 39.2972 37.9427 39.8706 38.1868 40.3831C38.443 40.8956 38.809 41.3043 39.2849 41.6093C39.7607 41.9022 40.3342 42.0486 41.0053 42.0486ZM48.7787 43.5859V30.2255H50.9201V38.1137H50.4808C50.4808 37.1376 50.6028 36.3018 50.8469 35.6063C51.1031 34.8986 51.4874 34.3618 51.9999 33.9957C52.5245 33.6175 53.1834 33.4284 53.9765 33.4284H54.068C55.2271 33.4284 56.0995 33.8188 56.6852 34.5997C57.283 35.3806 57.582 36.5031 57.582 37.9672V43.5859H55.4406V37.6561C55.4406 36.9484 55.2332 36.3933 54.8184 35.9906C54.4157 35.5758 53.8911 35.3684 53.2444 35.3684C52.5489 35.3684 51.9877 35.6002 51.5606 36.0638C51.1336 36.5275 50.9201 37.1376 50.9201 37.894V43.5859H48.7787ZM60.557 43.5859V33.7212H62.2591V37.9489H62.0578C62.0578 36.9728 62.1859 36.1492 62.4421 35.4782C62.7106 34.8071 63.1132 34.3007 63.6501 33.9591C64.1869 33.6053 64.8519 33.4284 65.645 33.4284H65.7365C66.9566 33.4284 67.8656 33.8127 68.4635 34.5814C69.0613 35.3501 69.3603 36.4726 69.3603 37.9489V43.5859H67.219V37.6561C67.219 36.9728 67.0237 36.4238 66.6333 36.0089C66.2428 35.5819 65.706 35.3684 65.0227 35.3684C64.3272 35.3684 63.766 35.588 63.3389 36.0272C62.9119 36.4543 62.6984 37.0277 62.6984 37.7476V43.5859H60.557ZM78.4423 43.6591V41.6276H81.4988C82.243 41.6276 82.908 41.5117 83.4937 41.2799C84.0793 41.0359 84.5796 40.7003 84.9944 40.2733C85.4093 39.8462 85.7204 39.346 85.9278 38.7725C86.1475 38.1869 86.2573 37.5585 86.2573 36.8874C86.2573 36.1675 86.1475 35.5209 85.9278 34.9474C85.7204 34.374 85.4093 33.8798 84.9944 33.465C84.5796 33.0501 84.0793 32.7329 83.4937 32.5133C82.908 32.2814 82.243 32.1655 81.4988 32.1655H78.4423V30.134H81.3157C82.5237 30.134 83.573 30.317 84.4637 30.6831C85.3666 31.0491 86.1169 31.5433 86.7148 32.1655C87.3127 32.7878 87.758 33.4894 88.0509 34.2702C88.3437 35.0511 88.4901 35.8564 88.4901 36.6861V37.0887C88.4901 37.8696 88.3437 38.6566 88.0509 39.4497C87.758 40.2306 87.3127 40.9383 86.7148 41.5727C86.1169 42.195 85.3666 42.7013 84.4637 43.0918C83.573 43.47 82.5237 43.6591 81.3157 43.6591H78.4423ZM76.6121 43.6591V30.134H78.8084V43.6591H76.6121ZM95.4464 43.9154C94.5801 43.9154 93.8175 43.7751 93.1587 43.4944C92.4998 43.2016 91.9446 42.8173 91.4932 42.3414C91.0417 41.8656 90.7001 41.3287 90.4683 40.7308C90.2365 40.1208 90.1205 39.4924 90.1205 38.8457V38.4797C90.1205 37.833 90.2365 37.2047 90.4683 36.5946C90.7123 35.9845 91.06 35.4416 91.5115 34.9657C91.9751 34.4777 92.5364 34.0933 93.1953 33.8127C93.8541 33.5321 94.6045 33.3918 95.4464 33.3918C96.2883 33.3918 97.0326 33.5321 97.6792 33.8127C98.3381 34.0933 98.8994 34.4777 99.363 34.9657C99.8267 35.4416 100.174 35.9845 100.406 36.5946C100.65 37.2047 100.772 37.833 100.772 38.4797V38.8457C100.772 39.4924 100.656 40.1208 100.425 40.7308C100.193 41.3287 99.8511 41.8656 99.3996 42.3414C98.9482 42.8173 98.393 43.2016 97.7342 43.4944C97.0753 43.7751 96.3127 43.9154 95.4464 43.9154ZM95.4464 42.0486C96.1175 42.0486 96.6909 41.9022 97.1668 41.6093C97.6426 41.3043 98.0026 40.8956 98.2466 40.3831C98.5028 39.8706 98.6309 39.2972 98.6309 38.6627C98.6309 38.016 98.5028 37.4365 98.2466 36.924C97.9904 36.4116 97.6243 36.0089 97.1485 35.7161C96.6726 35.4111 96.1053 35.2586 95.4464 35.2586C94.7875 35.2586 94.2202 35.4111 93.7443 35.7161C93.2685 36.0089 92.9024 36.4116 92.6462 36.924C92.39 37.4365 92.2619 38.016 92.2619 38.6627C92.2619 39.2972 92.3839 39.8706 92.6279 40.3831C92.8841 40.8956 93.2502 41.3043 93.726 41.6093C94.2019 41.9022 94.7753 42.0486 95.4464 42.0486ZM107.521 43.9154C106.667 43.9154 105.922 43.769 105.288 43.4761C104.654 43.1833 104.135 42.799 103.732 42.3231C103.33 41.8351 103.025 41.2921 102.817 40.6942C102.622 40.0842 102.524 39.4619 102.524 38.8274V38.4797C102.524 37.833 102.622 37.2108 102.817 36.6129C103.025 36.0028 103.33 35.4599 103.732 34.984C104.135 34.496 104.641 34.1116 105.251 33.831C105.874 33.5382 106.594 33.3918 107.411 33.3918C108.473 33.3918 109.357 33.6236 110.065 34.0872C110.772 34.5509 111.303 35.1548 111.657 35.8991C112.011 36.6312 112.188 37.4243 112.188 38.2784V39.1386H103.44V37.6927L110.742 37.6927L110.156 38.4248C110.156 37.7659 110.053 37.1986 109.845 36.7227C109.638 36.2347 109.333 35.8625 108.93 35.6063C108.527 35.3379 108.021 35.2036 107.411 35.2036C106.777 35.2036 106.246 35.3501 105.819 35.6429C105.392 35.9357 105.074 36.3384 104.867 36.8508C104.66 37.3633 104.556 37.9672 104.556 38.6627C104.556 39.3216 104.66 39.9133 104.867 40.438C105.074 40.9505 105.398 41.3592 105.837 41.6642C106.276 41.9571 106.838 42.1035 107.521 42.1035C108.204 42.1035 108.765 41.9571 109.205 41.6642C109.644 41.3592 109.912 41.0054 110.01 40.6027H112.005C111.871 41.2738 111.596 41.8595 111.181 42.3597C110.779 42.86 110.266 43.2443 109.644 43.5127C109.022 43.7812 108.314 43.9154 107.521 43.9154Z" fill="white"/>
<path d="M152.688 3.13097C153.676 2.90962 154.493 3.91137 154.077 4.83469L145.213 24.5164C144.764 25.5146 143.332 25.471 142.944 24.4473L139.628 15.6983C139.534 15.4497 139.361 15.2383 139.137 15.096L131.235 10.0862C130.31 9.50002 130.556 8.08854 131.624 7.84924L152.688 3.13097Z" fill="#A587FF"/>
</svg>
