<svg width="176" height="49" viewBox="0 0 176 49" fill="none" xmlns="http://www.w3.org/2000/svg">
<rect width="158" height="42" rx="21" transform="matrix(-1 0 0 1 158 0)" fill="#FCBF49"/>
<path d="M27.9171 27.8294C27.002 27.8294 26.1845 27.6464 25.4647 27.2804C24.7448 26.9021 24.1835 26.3531 23.7809 25.6332C23.3782 24.9133 23.1769 24.0165 23.1769 22.9428V22.4121H25.3549V23.2173C25.3549 24.0226 25.5928 24.6571 26.0686 25.1207C26.5445 25.5722 27.1607 25.7979 27.9171 25.7979C28.6614 25.7979 29.2715 25.5722 29.7473 25.1207C30.2232 24.6571 30.4611 24.0226 30.4611 23.2173V15.7135H32.6573V22.9428C32.6573 24.0165 32.456 24.9133 32.0534 25.6332C31.6507 26.3531 31.0895 26.9021 30.3696 27.2804C29.6619 27.6464 28.8444 27.8294 27.9171 27.8294ZM24.8607 16.0796V14.1396H32.6573V16.0796H24.8607ZM40.4288 27.8294C39.5625 27.8294 38.7999 27.6891 38.1411 27.4085C37.4822 27.1157 36.927 26.7313 36.4756 26.2555C36.0241 25.7796 35.6825 25.2428 35.4507 24.6449C35.2188 24.0348 35.1029 23.4065 35.1029 22.7598V22.3938C35.1029 21.7471 35.2188 21.1187 35.4507 20.5087C35.6947 19.8986 36.0424 19.3556 36.4939 18.8798C36.9575 18.3917 37.5188 18.0074 38.1777 17.7268C38.8365 17.4461 39.5869 17.3058 40.4288 17.3058C41.2707 17.3058 42.015 17.4461 42.6616 17.7268C43.3205 18.0074 43.8818 18.3917 44.3454 18.8798C44.8091 19.3556 45.1568 19.8986 45.3886 20.5087C45.6327 21.1187 45.7547 21.7471 45.7547 22.3938V22.7598C45.7547 23.4065 45.6388 24.0348 45.4069 24.6449C45.1751 25.2428 44.8335 25.7796 44.382 26.2555C43.9306 26.7313 43.3754 27.1157 42.7165 27.4085C42.0577 27.6891 41.2951 27.8294 40.4288 27.8294ZM40.4288 25.9626C41.0999 25.9626 41.6733 25.8162 42.1492 25.5234C42.625 25.2184 42.985 24.8096 43.229 24.2972C43.4852 23.7847 43.6133 23.2112 43.6133 22.5768C43.6133 21.9301 43.4852 21.3505 43.229 20.8381C42.9728 20.3256 42.6067 19.923 42.1309 19.6302C41.655 19.3251 41.0877 19.1726 40.4288 19.1726C39.7699 19.1726 39.2026 19.3251 38.7267 19.6302C38.2509 19.923 37.8848 20.3256 37.6286 20.8381C37.3724 21.3505 37.2443 21.9301 37.2443 22.5768C37.2443 23.2112 37.3663 23.7847 37.6103 24.2972C37.8665 24.8096 38.2326 25.2184 38.7084 25.5234C39.1843 25.8162 39.7577 25.9626 40.4288 25.9626ZM48.3121 27.5V14.1396H50.4717V27.5H48.3121ZM47.0126 15.7868V14.1396H50.4717V15.7868H47.0126ZM54.0936 27.5V17.6353H56.235V27.5H54.0936ZM52.6478 19.2824V17.6353H56.235V19.2824H52.6478ZM54.7891 16.2626C54.3499 16.2626 54.0204 16.1467 53.8008 15.9149C53.5934 15.683 53.4897 15.3841 53.4897 15.0181C53.4897 14.6642 53.5934 14.3714 53.8008 14.1396C54.0204 13.8956 54.3499 13.7735 54.7891 13.7735C55.2406 13.7735 55.57 13.8956 55.7774 14.1396C55.997 14.3714 56.1068 14.6642 56.1068 15.0181C56.1068 15.3841 55.997 15.683 55.7774 15.9149C55.57 16.1467 55.2406 16.2626 54.7891 16.2626ZM62.8307 27.7928C61.5007 27.7928 60.4636 27.5122 59.7193 26.9509C58.9873 26.3897 58.6029 25.6149 58.5663 24.6266L60.5429 24.6266C60.5673 24.9926 60.7564 25.3282 61.1103 25.6332C61.4641 25.9382 62.0437 26.0907 62.849 26.0907C63.5322 26.0907 64.0691 25.9565 64.4595 25.6881C64.85 25.4197 65.0452 25.0841 65.0452 24.6815C65.0452 24.3155 64.8988 24.0287 64.606 23.8213C64.3253 23.6017 63.8434 23.4553 63.1601 23.3821L62.1901 23.2906C61.1774 23.1807 60.3721 22.8818 59.7742 22.3938C59.1886 21.9057 58.8958 21.2468 58.8958 20.4171C58.8958 19.7583 59.0605 19.2031 59.3899 18.7517C59.7193 18.3002 60.1708 17.9525 60.7442 17.7085C61.3299 17.4644 62.001 17.3424 62.7575 17.3424C63.9288 17.3424 64.8744 17.6047 65.5943 18.1294C66.3141 18.6419 66.6863 19.3983 66.7107 20.3988H64.7524C64.728 20.0206 64.5511 19.7034 64.2216 19.4471C63.8922 19.1909 63.4041 19.0628 62.7575 19.0628C62.1474 19.0628 61.6776 19.1848 61.3482 19.4288C61.031 19.6729 60.8724 19.984 60.8724 20.3622C60.8724 20.7039 60.9944 20.9723 61.2384 21.1675C61.4824 21.3627 61.879 21.4909 62.428 21.5519L63.398 21.6434C64.5083 21.7654 65.3868 22.0765 66.0335 22.5768C66.6924 23.0648 67.0218 23.7481 67.0218 24.6266C67.0218 25.2611 66.8449 25.8162 66.4911 26.2921C66.1372 26.7679 65.6431 27.1401 65.0086 27.4085C64.3863 27.6647 63.6604 27.7928 62.8307 27.7928ZM69.3639 27.5V14.1396L71.5052 14.1396V22.0277H71.066C71.066 21.0516 71.188 20.2158 71.432 19.5204C71.6882 18.8127 72.0726 18.2758 72.585 17.9098C73.1097 17.5315 73.7686 17.3424 74.5616 17.3424H74.6532C75.8123 17.3424 76.6847 17.7329 77.2703 18.5137C77.8682 19.2946 78.1671 20.4171 78.1671 21.8813V27.5H76.0258V21.5702C76.0258 20.8625 75.8184 20.3073 75.4035 19.9047C75.0009 19.4898 74.4762 19.2824 73.8296 19.2824C73.1341 19.2824 72.5728 19.5143 72.1458 19.9779C71.7187 20.4415 71.5052 21.0516 71.5052 21.8081V27.5H69.3639ZM85.419 27.5V14.0481H87.6152V27.5H85.419ZM93.6183 27.5L89.3722 21.6251H91.8613L96.2354 27.5L93.6183 27.5ZM86.9014 22.8513V21.0028H90.3788C90.9035 21.0028 91.3549 20.8991 91.7332 20.6917C92.1114 20.4721 92.3981 20.1731 92.5934 19.7949C92.8008 19.4166 92.9045 18.9774 92.9045 18.4771C92.9045 17.9891 92.8008 17.5559 92.5934 17.1777C92.3981 16.7995 92.1114 16.5005 91.7332 16.2809C91.3549 16.0613 90.9035 15.9515 90.3788 15.9515H86.9014V14.0481H90.086C91.1109 14.0481 92.0016 14.2067 92.7581 14.5239C93.5145 14.829 94.1002 15.2926 94.5151 15.9149C94.9299 16.5371 95.1373 17.3363 95.1373 18.3124V18.6053C95.1373 19.5814 94.9238 20.3805 94.4968 21.0028C94.0819 21.6251 93.4962 22.0887 92.7398 22.3938C91.9955 22.6988 91.1109 22.8513 90.086 22.8513H86.9014ZM102.645 27.8294C101.778 27.8294 101.016 27.6891 100.357 27.4085C99.6981 27.1157 99.1429 26.7313 98.6915 26.2555C98.24 25.7796 97.8984 25.2428 97.6666 24.6449C97.4347 24.0348 97.3188 23.4065 97.3188 22.7598V22.3938C97.3188 21.7471 97.4347 21.1187 97.6666 20.5087C97.9106 19.8986 98.2583 19.3556 98.7098 18.8798C99.1734 18.3917 99.7347 18.0074 100.394 17.7268C101.052 17.4461 101.803 17.3058 102.645 17.3058C103.487 17.3058 104.231 17.4461 104.878 17.7268C105.536 18.0074 106.098 18.3917 106.561 18.8798C107.025 19.3556 107.373 19.8986 107.605 20.5087C107.849 21.1187 107.971 21.7471 107.971 22.3938V22.7598C107.971 23.4065 107.855 24.0348 107.623 24.6449C107.391 25.2428 107.049 25.7796 106.598 26.2555C106.146 26.7313 105.591 27.1157 104.932 27.4085C104.274 27.6891 103.511 27.8294 102.645 27.8294ZM102.645 25.9626C103.316 25.9626 103.889 25.8162 104.365 25.5234C104.841 25.2184 105.201 24.8096 105.445 24.2972C105.701 23.7847 105.829 23.2112 105.829 22.5768C105.829 21.9301 105.701 21.3505 105.445 20.8381C105.189 20.3256 104.823 19.923 104.347 19.6302C103.871 19.3251 103.304 19.1726 102.645 19.1726C101.986 19.1726 101.418 19.3251 100.943 19.6302C100.467 19.923 100.101 20.3256 99.8445 20.8381C99.5883 21.3505 99.4602 21.9301 99.4602 22.5768C99.4602 23.2112 99.5822 23.7847 99.8262 24.2972C100.082 24.8096 100.448 25.2184 100.924 25.5234C101.4 25.8162 101.974 25.9626 102.645 25.9626ZM110.656 27.5V17.2875C110.656 16.1772 110.955 15.3597 111.553 14.8351C112.163 14.2982 113.048 14.0298 114.207 14.0298H115.451V15.7318H113.969C113.566 15.7318 113.249 15.8478 113.017 16.0796C112.797 16.3114 112.688 16.6286 112.688 17.0313V27.5H110.656ZM109.357 19.3739V17.7817H115.616V19.3739H109.357ZM121.618 27.8294C120.764 27.8294 120.02 27.683 119.385 27.3902C118.751 27.0974 118.232 26.713 117.83 26.2372C117.427 25.7491 117.122 25.2062 116.914 24.6083C116.719 23.9982 116.622 23.376 116.622 22.7415V22.3938C116.622 21.7471 116.719 21.1248 116.914 20.527C117.122 19.9169 117.427 19.3739 117.83 18.8981C118.232 18.41 118.739 18.0257 119.349 17.7451C119.971 17.4522 120.691 17.3058 121.508 17.3058C122.57 17.3058 123.454 17.5376 124.162 18.0013C124.87 18.4649 125.4 19.0689 125.754 19.8132C126.108 20.5453 126.285 21.3383 126.285 22.1924V23.0526H117.537V21.6068H124.839L124.254 22.3389C124.254 21.68 124.15 21.1126 123.942 20.6368C123.735 20.1487 123.43 19.7766 123.027 19.5204C122.625 19.2519 122.118 19.1177 121.508 19.1177C120.874 19.1177 120.343 19.2641 119.916 19.557C119.489 19.8498 119.172 20.2524 118.964 20.7649C118.757 21.2773 118.653 21.8813 118.653 22.5768C118.653 23.2356 118.757 23.8274 118.964 24.3521C119.172 24.8645 119.495 25.2733 119.934 25.5783C120.374 25.8711 120.935 26.0175 121.618 26.0175C122.301 26.0175 122.863 25.8711 123.302 25.5783C123.741 25.2733 124.01 24.9194 124.107 24.5168H126.102C125.968 25.1879 125.693 25.7735 125.278 26.2738C124.876 26.774 124.363 27.1584 123.741 27.4268C123.119 27.6952 122.411 27.8294 121.618 27.8294ZM128.595 27.5V17.6353H130.297V21.7532H130.224C130.224 20.3378 130.535 19.2824 131.157 18.587C131.78 17.8793 132.701 17.5254 133.921 17.5254H134.269V19.4105H133.61C132.682 19.4105 131.969 19.6607 131.468 20.1609C130.98 20.649 130.736 21.3505 130.736 22.2656V27.5H128.595Z" fill="white"/>
<path d="M173.164 43.0564C174.175 43.117 174.821 41.9977 174.263 41.1526L165.104 27.2801C164.5 26.3665 163.094 26.6383 162.874 27.7108L161.467 34.5855C161.414 34.846 161.278 35.0822 161.079 35.2586L155.829 39.9143C155.009 40.6406 155.477 41.9948 156.57 42.0604L173.164 43.0564Z" fill="#FCBF49"/>
</svg>
