<svg width="45" height="34" viewBox="0 0 45 34" fill="none" xmlns="http://www.w3.org/2000/svg">
<g clip-path="url(#clip0_1_4357)">
<path d="M45 9.5V24.5C45 29.74 40.75 34 35.5 34C32.99 34 30.71 33.03 29.01 31.42C27.31 33.02 25.03 34 22.5 34C19.97 34 17.71 33.03 16.01 31.42C14.31 33.02 12.03 34 9.5 34C6.97 34 4.51 32.94 2.79 31.22C1.07 29.5 0 27.12 0 24.5V9.5C0 4.25 4.26 0 9.5 0C12.03 0 14.31 0.98 16.01 2.58C17.71 0.97 19.99 0 22.5 0C25.01 0 27.31 0.98 29.01 2.58C30.71 0.97 32.99 0 35.5 0C40.75 0 45 4.25 45 9.5Z" fill="#C49BFF"/>
</g>
<defs>
<clipPath id="clip0_1_4357">
<rect width="45" height="34" fill="white"/>
</clipPath>
</defs>
</svg>
