<svg width="60" height="60" viewBox="0 0 60 60" fill="none" xmlns="http://www.w3.org/2000/svg">
<path d="M60 30C60 33.105 58.74 35.9175 56.7075 37.95C54.6675 39.99 51.8625 41.25 48.75 41.25H41.25V48.75C41.25 54.96 36.2175 60 30 60C26.895 60 24.0825 58.74 22.0425 56.7C20.01 54.6675 18.75 51.855 18.75 48.75V41.25H11.25C5.04 41.25 0 36.21 0 30C0 26.895 1.26 24.075 3.2925 22.0425C5.3325 20.01 8.145 18.75 11.25 18.75H18.75V11.25C18.75 5.0325 23.79 0 30 0C33.1125 0 35.9175 1.26 37.9575 3.2925C39.99 5.325 41.25 8.145 41.25 11.25V18.75H48.75C54.9675 18.75 60 23.7825 60 30Z" fill="#FFDF5C"/>
</svg>
