<svg width="181" height="204" viewBox="0 0 181 204" fill="none" xmlns="http://www.w3.org/2000/svg">
<g filter="url(#filter0_d_1_4282)">
<path d="M143.312 15.1248C141.075 14.114 138.471 14.502 136.069 15.0109L73.3544 28.3015C70.9506 28.812 68.6906 30.2051 67.3248 32.248C66.7915 33.0457 66.3666 33.9303 66.0301 34.836C58.7193 54.3622 42.8909 92.0153 38.6364 103.495C26.3354 138.59 19.1534 152.965 26.5055 162.146C31.9711 170.345 51.8519 163.584 89.8775 154.429C97.5256 199.406 118.617 152.59 131.992 134.756C148.296 113.018 170.416 80.1388 128.142 88.248C130.355 84.2765 143.981 56.1793 152.177 39.2589C153.274 37.023 153.89 34.5816 153.984 32.0926C154.079 29.6035 153.651 27.1222 152.726 24.809C151.802 22.4959 150.403 20.4024 148.619 18.6641C146.836 16.9257 145.647 15.9886 143.312 15.1248Z" fill="white"/>
<path d="M61.6004 63.6919L134.092 48.3295C134.949 48.1535 135.838 48.2269 136.654 48.541C137.47 48.8552 138.179 49.3968 138.697 50.1018C139.215 50.8067 139.52 51.6455 139.576 52.5185C139.632 53.3915 139.437 54.2622 139.013 55.0274L115.203 97.7256L138.482 92.7924C139.61 92.536 140.786 92.5943 141.884 92.9608C142.981 93.3273 143.956 93.9881 144.704 94.871C145.452 95.7539 145.943 96.8251 146.124 97.9679C146.305 99.1107 146.169 100.281 145.731 101.352L105.314 161.133C105.011 161.913 104.465 162.573 103.756 163.017C103.047 163.46 102.214 163.663 101.381 163.594C100.548 163.526 99.7594 163.19 99.1325 162.637C98.5057 162.083 98.0742 161.342 97.9024 160.524L95.3189 146.474L37.8716 158.649C36.715 158.894 35.5139 158.829 34.3904 158.46C33.2669 158.091 32.2611 157.431 31.4753 156.547C30.6895 155.663 30.1518 154.586 29.9166 153.427C29.6815 152.268 29.7575 151.067 30.1368 149.946L58.2261 66.7275C58.4757 65.9714 58.9183 65.2937 59.5101 64.7613C60.1019 64.2289 60.8224 63.8603 61.6004 63.6919Z" fill="#FCCC05"/>
<mask id="mask0_1_4282" style="mask-type:luminance" maskUnits="userSpaceOnUse" x="29" y="48" width="118" height="116">
<path d="M139.041 55.0567C139.465 54.2915 139.661 53.4208 139.605 52.5478C139.549 51.6748 139.244 50.8361 138.726 50.1311C138.208 49.4261 137.499 48.8845 136.683 48.5703C135.866 48.2562 134.977 48.1828 134.121 48.3588L84.3549 58.9052C84.4064 58.0931 84.3485 57.2778 84.1826 56.4812C82.9661 50.7409 76.4836 47.2461 69.6985 48.684C62.9134 50.1219 58.4057 55.9457 59.6221 61.686C59.8041 62.537 60.1077 63.3574 60.5235 64.1219C59.4524 64.6632 58.6365 65.6032 58.2511 66.74L30.1618 149.959C29.7825 151.079 29.7066 152.28 29.9417 153.44C30.1768 154.599 30.7146 155.675 31.5004 156.559C32.2862 157.443 33.292 158.104 34.4154 158.473C35.5389 158.842 36.74 158.907 37.8967 158.661L95.3272 146.491L97.9107 160.54C98.0825 161.358 98.5139 162.099 99.1408 162.653C99.7677 163.206 100.556 163.542 101.39 163.61C102.223 163.679 103.056 163.476 103.764 163.033C104.473 162.59 105.019 161.929 105.322 161.15L145.728 101.353C146.146 100.29 146.269 99.1339 146.083 98.0067C145.897 96.8795 145.409 95.8237 144.671 94.9516C143.933 94.0796 142.973 93.4238 141.892 93.054C140.812 92.6843 139.651 92.6143 138.534 92.8517L130.551 94.5434L126.836 77.0123L139.041 55.0567Z" fill="white"/>
</mask>
<g mask="url(#mask0_1_4282)">
<path d="M80.2107 139.536L75.514 139.335C67.7995 139.005 60.5317 135.622 55.3092 129.932C50.0867 124.242 47.3375 116.709 47.6662 108.992L47.9215 103.001C48.0968 98.8864 49.899 95.0098 52.9318 92.2244C55.9645 89.4391 59.9792 87.9732 64.0929 88.1493L95.9606 89.513C100.074 89.6891 103.95 91.4926 106.734 94.5269C109.519 97.5612 110.985 101.578 110.81 105.693L110.555 111.683C110.226 119.401 106.846 126.671 101.159 131.894C95.4714 137.118 87.9423 139.867 80.2278 139.536L80.2107 139.536Z" fill="#FF592F"/>
<path d="M124.805 79.1896C124.164 78.5985 123.413 78.1395 122.594 77.839C121.776 77.5384 120.906 77.4022 120.035 77.4379C119.164 77.4737 118.308 77.6809 117.517 78.0476C116.726 78.4143 116.015 78.9333 115.425 79.575L96.3054 100.334L106.091 109.337L125.209 88.5697C125.798 87.9274 126.255 87.1753 126.554 86.3562C126.852 85.5372 126.987 84.6674 126.949 83.7963C126.912 82.9253 126.703 82.0702 126.335 81.2797C125.967 80.4893 125.447 79.7791 124.805 79.1896Z" fill="#FF592F"/>
<path d="M72.3755 183.837L114.894 162.717L95.602 126.657L61.6011 133.862L72.3755 183.837Z" fill="#FF592F"/>
<path d="M71.6761 51.6537L72.2381 51.7138C74.3201 51.9364 76.2287 52.9772 77.5438 54.6073C78.859 56.2375 79.473 58.3233 79.2509 60.4061L75.5343 95.2512L59.28 93.5137L62.9966 58.6686C63.2188 56.5858 64.2589 54.6767 65.8882 53.3614C67.5175 52.046 69.6026 51.4321 71.6846 51.6546L71.6761 51.6537Z" fill="#FF592F"/>
<path d="M99.8006 82.6484L98.7533 82.415C97.3198 82.087 95.815 82.3334 94.561 83.1016C93.307 83.8698 92.4037 85.0986 92.0443 86.525L88.9744 98.6377C88.8061 99.3737 88.7843 100.136 88.9104 100.88C89.0365 101.624 89.308 102.337 89.7093 102.976C90.1106 103.616 90.6339 104.17 91.2493 104.607C91.8647 105.044 92.5601 105.356 93.2959 105.524C94.0321 105.693 94.7945 105.715 95.5392 105.589C96.284 105.463 96.9965 105.191 97.6358 104.789C98.2751 104.386 98.8287 103.862 99.2648 103.245C99.7009 102.628 100.011 101.931 100.177 101.194L103.392 88.5248C103.548 87.9029 103.579 87.256 103.482 86.622C103.386 85.988 103.164 85.3796 102.83 84.8324C102.495 84.2852 102.055 83.8102 101.535 83.4352C101.015 83.0602 100.425 82.7927 99.8006 82.6484Z" fill="#FF592F"/>
<path d="M89.5099 92.4281C89.3415 93.1641 88.7842 100.139 88.9103 100.884C89.0364 101.628 89.3079 102.34 89.7092 102.98C90.1105 103.619 90.6338 104.174 91.2492 104.611C91.8646 105.048 92.56 105.359 93.2958 105.528C94.032 105.697 94.7944 105.719 95.5391 105.593C96.2839 105.467 96.9964 105.195 97.6357 104.792C98.275 104.39 98.8286 103.865 99.2647 103.248C99.7008 102.631 100.011 101.934 100.177 101.197L103.392 88.5286" stroke="#102D86" stroke-width="1.04616" stroke-miterlimit="10"/>
<path d="M87.8993 75.7938L86.6566 75.5055C84.9494 75.1185 83.1587 75.413 81.6654 76.3264C80.172 77.2397 79.0938 78.6998 78.6601 80.3962L73.7606 98.5795C73.3585 100.35 73.6752 102.207 74.6409 103.745C75.6067 105.282 77.1427 106.373 78.9117 106.778C79.7908 106.983 80.7016 107.011 81.5916 106.862C82.4816 106.713 83.3334 106.389 84.098 105.91C84.8627 105.431 85.5251 104.805 86.0471 104.068C86.5692 103.332 86.9407 102.5 87.1403 101.62L92.1967 82.7726C92.3828 82.0318 92.4187 81.2612 92.3023 80.5062C92.186 79.7512 91.9197 79.0272 91.5192 78.3768C91.1186 77.7263 90.592 77.1627 89.9703 76.7191C89.3486 76.2755 88.6445 75.9609 87.8993 75.7938Z" fill="#FF592F"/>
<path d="M78.6589 80.3993L73.7595 98.5827C73.3574 100.353 73.674 102.211 74.6398 103.748C75.6056 105.285 77.1416 106.376 78.9106 106.782C79.7897 106.986 80.7004 107.014 81.5905 106.865C82.4805 106.716 83.3323 106.392 84.0969 105.913C84.8615 105.434 85.5239 104.808 86.046 104.072C86.5681 103.335 86.9396 102.503 87.1392 101.623L92.1956 82.7758" stroke="#102D86" stroke-width="1.04616" stroke-miterlimit="10"/>
<path d="M52.8724 97.1579C53.1702 95.3126 54.1876 93.661 55.7014 92.5654C57.2151 91.4698 59.1016 91.0196 60.947 91.3137L75.6505 93.6618C77.7927 94.0116 79.7085 95.1983 80.9766 96.9608C82.2446 98.7232 82.7611 100.917 82.4125 103.06C82.0662 105.202 80.884 107.117 79.1258 108.386C77.3677 109.656 75.1775 110.174 73.037 109.828L60.5712 107.838C59.3639 107.644 58.2066 107.214 57.1657 106.572C56.1249 105.93 55.2209 105.089 54.5056 104.096C53.7904 103.104 53.2779 101.981 52.9977 100.79C52.7174 99.5993 52.6748 98.365 52.8724 97.1579Z" fill="#FF592F"/>
<path d="M60.9473 91.3132L75.6508 93.6612C77.7931 94.0111 79.7089 95.1977 80.977 96.9602C82.245 98.7227 82.7615 100.917 82.4129 103.06C82.0666 105.201 80.8844 107.117 79.1262 108.386C77.3681 109.655 75.1779 110.174 73.0373 109.828L64.3219 108.724C64.8607 110.782 64.9701 112.928 64.643 115.03" stroke="#102D86" stroke-width="1.04616" stroke-miterlimit="10"/>
<path d="M103.752 130.194C103.752 130.194 99.2562 135.91 92.4729 136.201" stroke="#102D86" stroke-width="1.04616" stroke-miterlimit="10"/>
<path d="M73.0995 137.266C73.0995 137.266 57.9005 139.147 51.752 125.416" stroke="#102D86" stroke-width="1.04616" stroke-miterlimit="10"/>
</g>
<path d="M93.4576 40.198C91.3264 40.6497 90.0669 39.2262 89.7178 37.5787C89.5379 36.7887 89.596 35.9632 89.8847 35.2063C89.9792 35.4178 90.1394 35.5931 90.3416 35.7061C90.5437 35.8191 90.7769 35.8637 91.0065 35.8333C91.124 35.8236 91.2379 35.788 91.3401 35.729C91.4422 35.6701 91.5301 35.5893 91.5974 35.4924C91.6647 35.3955 91.7097 35.2849 91.7292 35.1686C91.7488 35.0522 91.7424 34.933 91.7104 34.8194C91.6759 34.6865 91.6142 34.5621 91.5291 34.4543C91.444 34.3465 91.3374 34.2576 91.2161 34.1932C91.0948 34.1288 90.9615 34.0904 90.8245 34.0803C90.6876 34.0702 90.5501 34.0887 90.4207 34.1346C89.7798 34.2704 87.1618 35.1446 88.3199 40.6091C89.1098 44.3366 91.6637 44.5199 92.8561 44.2672C93.7957 44.0632 94.6296 43.5256 95.2034 42.7538C95.7771 41.982 96.0518 41.0283 95.9766 40.0693C96.962 41.0632 97.6222 42.3333 97.8696 43.711C98.1114 44.7346 98.1464 45.7961 97.9724 46.8333C97.7985 47.8704 97.4191 48.8623 96.8566 49.7507C96.2941 50.6391 95.5599 51.4061 94.6969 52.0067C93.834 52.6072 92.8597 53.0292 91.8315 53.2479C86.615 54.3533 82.6103 49.7491 81.4917 44.471C80.2579 38.6486 82.7207 31.3106 88.511 30.0835C93.7274 28.9781 95.9156 32.6897 96.4069 35.0082C96.835 37.0285 95.8647 39.688 93.4576 40.198Z" fill="#102D86"/>
<path d="M107.949 49.8068C102.092 51.0481 99.7298 45.7452 98.9225 41.9357C97.9746 37.4627 99.3928 32.4337 104.363 31.3804C109.334 30.327 112.314 34.7979 113.167 38.8236C113.897 42.2678 113.769 48.5735 107.949 49.8068ZM105.118 35.7151C103.539 36.0499 103.915 39.6625 104.206 41.0343C104.496 42.406 105.378 45.0623 106.966 44.7259C108.553 44.3895 108.381 41.7775 108.09 40.4057C107.8 39.034 106.795 35.3598 105.118 35.7151Z" fill="#102D86"/>
<path d="M123.315 46.5529C117.458 47.7942 115.096 42.4913 114.289 38.6818C113.341 34.2088 114.759 29.1798 119.73 28.1265C124.7 27.0731 127.68 31.544 128.533 35.5697C129.263 39.0139 129.135 45.3196 123.315 46.5529ZM120.485 32.4612C118.898 32.7976 119.281 36.4086 119.572 37.7803C119.863 39.1521 120.745 41.8084 122.332 41.472C123.919 41.1356 123.747 38.5236 123.457 37.1518C123.166 35.7801 122.162 32.1059 120.485 32.4612Z" fill="#102D86"/>
<path d="M136.047 42.9002C134.386 43.2572 132.755 43.7409 131.168 44.3471C131.849 41.8658 129.765 32.1806 129.579 31.3009C129.579 31.3009 127.645 22.4719 126.518 21.0828C127.919 21.0344 129.314 20.8666 130.686 20.5811C131.461 20.4262 132.223 20.2127 132.965 19.9424C133.187 23.2821 133.679 26.5983 134.436 29.8588C135.444 34.6151 136.847 39.7316 138.294 42.5175C138.292 42.51 137.418 42.6097 136.047 42.9002Z" fill="#102D86"/>
</g>
<defs>
<filter id="filter0_d_1_4282" x="1.24126" y="0.193653" width="175.056" height="203.5" filterUnits="userSpaceOnUse" color-interpolation-filters="sRGB">
<feFlood flood-opacity="0" result="BackgroundImageFix"/>
<feColorMatrix in="SourceAlpha" type="matrix" values="0 0 0 0 0 0 0 0 0 0 0 0 0 0 0 0 0 0 127 0" result="hardAlpha"/>
<feOffset dy="8"/>
<feGaussianBlur stdDeviation="11.15"/>
<feComposite in2="hardAlpha" operator="out"/>
<feColorMatrix type="matrix" values="0 0 0 0 0.0627451 0 0 0 0 0.176471 0 0 0 0 0.52549 0 0 0 0.12 0"/>
<feBlend mode="normal" in2="BackgroundImageFix" result="effect1_dropShadow_1_4282"/>
<feBlend mode="normal" in="SourceGraphic" in2="effect1_dropShadow_1_4282" result="shape"/>
</filter>
</defs>
</svg>
