<svg width="113" height="120" viewBox="0 0 113 120" fill="none" xmlns="http://www.w3.org/2000/svg">
<path d="M64.8171 11.2769L64.7094 11.2549C64.4822 11.2218 64.2507 11.2733 64.0589 11.3995C63.8671 11.5258 63.7283 11.718 63.6689 11.9398L61.2424 20.9954L24.1147 11.047C23.8745 10.9827 23.6186 11.0164 23.4033 11.1407C23.1879 11.265 23.0308 11.4698 22.9665 11.7099L0.643314 95.021C0.578961 95.2612 0.61265 95.5171 0.736971 95.7324C0.86129 95.9478 1.06606 96.1049 1.30623 96.1692L64.6951 113.154C64.9353 113.219 65.1911 113.185 65.4064 113.06L92.9632 97.1506C93.1785 97.0263 93.3357 96.8216 93.4001 96.5814L109.9 35.0036L109.922 34.896C109.955 34.6688 109.903 34.4373 109.777 34.2455C109.651 34.0537 109.459 33.9149 109.237 33.8554L72.1091 23.9071L74.5355 14.8515C74.5999 14.6114 74.5662 14.3555 74.4419 14.1401C74.3176 13.9248 74.1128 13.7677 73.8726 13.7033L64.8171 11.2769Z" fill="#2EAFF0"/>
<path d="M92.7372 95.4331C93.5087 95.6399 93.6724 96.6407 93.0524 97.0928L92.9632 97.1505L65.4064 113.06C64.715 113.46 63.8915 112.868 64.01 112.111L64.0322 112.006L69.8556 90.2726C69.9151 90.0508 70.0539 89.8586 70.2457 89.7323C70.4375 89.606 70.6689 89.5546 70.8962 89.5877L71.0038 89.6097L92.7372 95.4331ZM73.8726 13.7033C74.0944 13.7627 74.2867 13.9015 74.4129 14.0933C74.5392 14.2851 74.5906 14.5166 74.5576 14.7438L74.5355 14.8514L69.1974 34.7737C69.1379 34.9955 68.9991 35.1877 68.8073 35.314C68.6155 35.4402 68.3841 35.4917 68.1568 35.4586L68.0492 35.4366L58.9936 33.0102C58.7718 32.9507 58.5796 32.8119 58.4533 32.6201C58.3271 32.4283 58.2756 32.1968 58.3087 31.9696L58.3307 31.862L63.6689 11.9397C63.7283 11.7179 63.8671 11.5257 64.0589 11.3994C64.2507 11.2732 64.4822 11.2217 64.7094 11.2548L64.8171 11.2768L73.8726 13.7033Z" fill="#A5E1FF"/>
</svg>
