<svg width="100" height="100" viewBox="0 0 100 100" fill="none" xmlns="http://www.w3.org/2000/svg">
<g clip-path="url(#clip0_173_934)">
<rect x="8.58887" y="42.2021" width="91.411" height="25.7669" rx="12.8834" fill="url(#paint0_linear_173_934)"/>
<rect x="9.20236" y="42.8156" width="90.184" height="24.5399" rx="12.2699" stroke="url(#paint1_linear_173_934)" stroke-opacity="0.11" stroke-width="1.22699"/>
<path d="M31.1302 59.6069C30.3816 59.6069 29.7416 59.4796 29.2101 59.2251C28.6862 58.9631 28.2595 58.6226 27.9301 58.2034C27.6083 57.7767 27.3687 57.3201 27.2115 56.8335C27.0618 56.3395 26.987 55.8642 26.987 55.4075V55.1605C26.987 54.659 27.0656 54.1612 27.2228 53.6672C27.38 53.1731 27.6195 52.724 27.9414 52.3198C28.2707 51.9156 28.6937 51.59 29.2101 51.3429C29.7341 51.0959 30.3517 50.9724 31.0628 50.9724C31.8039 50.9724 32.4439 51.1034 32.9828 51.3654C33.5218 51.6274 33.9484 51.9942 34.2628 52.4658C34.5847 52.9299 34.7756 53.48 34.8355 54.1163H33.4769C33.417 53.6971 33.2748 53.349 33.0502 53.0721C32.8331 52.7876 32.5524 52.5743 32.2081 52.4321C31.8712 52.2899 31.4895 52.2187 31.0628 52.2187C30.6212 52.2187 30.2282 52.2973 29.8838 52.4545C29.547 52.6117 29.2663 52.8288 29.0417 53.1058C28.8172 53.3827 28.645 53.7083 28.5252 54.0826C28.4129 54.4494 28.3568 54.8536 28.3568 55.2953C28.3568 55.7145 28.4129 56.1112 28.5252 56.4855C28.645 56.8522 28.8209 57.1779 29.053 57.4623C29.285 57.7468 29.5732 57.9676 29.9175 58.1248C30.2693 58.282 30.6736 58.3606 31.1302 58.3606C31.7889 58.3606 32.3428 58.1996 32.7919 57.8778C33.2411 57.5484 33.5143 57.0805 33.6116 56.4742H34.9814C34.9066 57.0506 34.712 57.5783 34.3976 58.0574C34.0832 58.529 33.6528 58.907 33.1063 59.1914C32.5599 59.4684 31.9012 59.6069 31.1302 59.6069ZM36.3836 59.4048V51.2082H37.7085V59.4048H36.3836ZM35.5864 52.2187V51.2082H37.7085V52.2187H35.5864ZM42.4793 59.6069C41.9479 59.6069 41.48 59.5208 41.0758 59.3486C40.6716 59.169 40.331 58.9332 40.054 58.6413C39.7771 58.3493 39.5675 58.02 39.4253 57.6532C39.283 57.2789 39.2119 56.8934 39.2119 56.4967V56.2721C39.2119 55.8754 39.283 55.4899 39.4253 55.1156C39.575 54.7413 39.7883 54.4082 40.0653 54.1163C40.3497 53.8169 40.694 53.5811 41.0983 53.4089C41.5025 53.2368 41.9628 53.1507 42.4793 53.1507C42.9958 53.1507 43.4524 53.2368 43.8492 53.4089C44.2534 53.5811 44.5977 53.8169 44.8822 54.1163C45.1666 54.4082 45.3799 54.7413 45.5222 55.1156C45.6719 55.4899 45.7467 55.8754 45.7467 56.2721V56.4967C45.7467 56.8934 45.6756 57.2789 45.5334 57.6532C45.3912 58.02 45.1816 58.3493 44.9046 58.6413C44.6277 58.9332 44.2871 59.169 43.8828 59.3486C43.4786 59.5208 43.0108 59.6069 42.4793 59.6069ZM42.4793 58.4616C42.891 58.4616 43.2428 58.3718 43.5348 58.1921C43.8267 58.005 44.0475 57.7542 44.1972 57.4399C44.3544 57.1255 44.433 56.7736 44.433 56.3844C44.433 55.9877 44.3544 55.6321 44.1972 55.3177C44.04 55.0033 43.8155 54.7563 43.5235 54.5767C43.2316 54.3895 42.8835 54.296 42.4793 54.296C42.0751 54.296 41.727 54.3895 41.4351 54.5767C41.1432 54.7563 40.9186 55.0033 40.7614 55.3177C40.6042 55.6321 40.5256 55.9877 40.5256 56.3844C40.5256 56.7736 40.6005 57.1255 40.7502 57.4399C40.9074 57.7542 41.1319 58.005 41.4239 58.1921C41.7158 58.3718 42.0676 58.4616 42.4793 58.4616ZM49.3255 59.5844C48.6144 59.5844 48.068 59.3561 47.6862 58.8995C47.3045 58.4354 47.1136 57.7542 47.1136 56.856V53.3528H48.4273V57.0356C48.4273 57.4548 48.5433 57.7879 48.7754 58.0349C49.0074 58.2745 49.3218 58.3942 49.7185 58.3942C50.1227 58.3942 50.4521 58.267 50.7066 58.0125C50.9686 57.7505 51.0996 57.3949 51.0996 56.9458V53.3528H52.4133V59.4048H51.3691V56.8223H51.5038C51.5038 57.4286 51.4215 57.9376 51.2568 58.3493C51.0996 58.7536 50.8638 59.0605 50.5494 59.27C50.2425 59.4796 49.8533 59.5844 49.3817 59.5844H49.3255ZM56.8797 59.6069C56.4456 59.6069 56.0489 59.5283 55.6896 59.3711C55.3377 59.2139 55.0271 58.9931 54.7576 58.7086C54.4956 58.4242 54.2935 58.0948 54.1513 57.7206C54.0091 57.3463 53.938 56.9383 53.938 56.4967V56.2833C53.938 55.8492 54.0053 55.445 54.1401 55.0707C54.2823 54.6889 54.4806 54.3558 54.7352 54.0714C54.9897 53.7869 55.2928 53.5661 55.6446 53.4089C56.0039 53.2443 56.4007 53.1619 56.8348 53.1619C57.2989 53.1619 57.7144 53.263 58.0812 53.4651C58.4554 53.6597 58.7548 53.9629 58.9794 54.3746C59.2115 54.7788 59.3387 55.2953 59.3612 55.924L58.912 55.3065V51.2082H60.2257V59.4048H59.1815V56.7774H59.4735C59.451 57.4286 59.3163 57.9638 59.0692 58.383C58.8297 58.8022 58.5191 59.1129 58.1373 59.315C57.7555 59.5096 57.3364 59.6069 56.8797 59.6069ZM57.1268 58.4728C57.4636 58.4728 57.7668 58.398 58.0362 58.2483C58.3132 58.0986 58.534 57.8815 58.6987 57.597C58.8709 57.3051 58.957 56.9645 58.957 56.5753V56.0925C58.957 55.7107 58.8709 55.3851 58.6987 55.1156C58.5265 54.8461 58.302 54.6403 58.025 54.4981C57.7481 54.3558 57.4449 54.2847 57.1155 54.2847C56.7487 54.2847 56.4231 54.3746 56.1387 54.5542C55.8617 54.7264 55.6446 54.9697 55.4874 55.284C55.3302 55.5984 55.2517 55.9652 55.2517 56.3844C55.2517 56.8111 55.3302 57.1816 55.4874 57.496C55.6521 57.8104 55.8767 58.0537 56.1611 58.2258C56.4456 58.3905 56.7675 58.4728 57.1268 58.4728ZM65.8099 59.4048V57.597H65.5966V55.5535C65.5966 55.1792 65.4993 54.8948 65.3047 54.7002C65.11 54.5056 64.8218 54.4082 64.4401 54.4082C64.2305 54.4082 63.9984 54.412 63.7439 54.4195C63.4894 54.427 63.2387 54.4382 62.9916 54.4532C62.7521 54.4606 62.5388 54.4719 62.3516 54.4868V53.3528C62.5163 53.3378 62.696 53.3266 62.8906 53.3191C63.0927 53.3041 63.2986 53.2929 63.5081 53.2854C63.7252 53.2779 63.9311 53.2742 64.1257 53.2742C64.7395 53.2742 65.2485 53.3528 65.6527 53.51C66.0569 53.6672 66.3564 53.9179 66.551 54.2623C66.7531 54.5991 66.8541 55.052 66.8541 55.6209V59.4048H65.8099ZM63.845 59.562C63.4033 59.562 63.0178 59.4871 62.6885 59.3374C62.3591 59.1802 62.1046 58.9557 61.925 58.6637C61.7453 58.3643 61.6555 58.0087 61.6555 57.597C61.6555 57.1629 61.7565 56.8036 61.9587 56.5191C62.1682 56.2347 62.4639 56.0214 62.8457 55.8791C63.2274 55.7369 63.6841 55.6658 64.2155 55.6658H65.7313V56.5304H64.1818C63.7851 56.5304 63.4819 56.6277 63.2724 56.8223C63.0628 57.0094 62.958 57.2565 62.958 57.5634C62.958 57.8703 63.0628 58.1173 63.2724 58.3044C63.4819 58.4841 63.7851 58.5739 64.1818 58.5739C64.4139 58.5739 64.6347 58.5327 64.8443 58.4504C65.0539 58.3606 65.2261 58.2146 65.3608 58.0125C65.503 57.8104 65.5816 57.5259 65.5966 57.1591L65.9334 57.597C65.896 58.0237 65.7912 58.383 65.619 58.675C65.4544 58.9594 65.2223 59.1802 64.9229 59.3374C64.631 59.4871 64.2717 59.562 63.845 59.562ZM68.9769 59.4048V53.3528H70.2906V59.4048H68.9769ZM68.0899 54.3633V53.3528H70.2906V54.3633H68.0899ZM69.4036 52.5107C69.1341 52.5107 68.932 52.4396 68.7972 52.2973C68.67 52.1551 68.6064 51.9717 68.6064 51.7472C68.6064 51.5301 68.67 51.3504 68.7972 51.2082C68.932 51.0585 69.1341 50.9836 69.4036 50.9836C69.6805 50.9836 69.8826 51.0585 70.0099 51.2082C70.1446 51.3504 70.212 51.5301 70.212 51.7472C70.212 51.9717 70.1446 52.1551 70.0099 52.2973C69.8826 52.4396 69.6805 52.5107 69.4036 52.5107ZM72.2486 59.4048V53.3528H73.2928V55.8791H73.2479C73.2479 55.0108 73.4388 54.3633 73.8205 53.9367C74.2023 53.5025 74.7674 53.2854 75.516 53.2854H75.7293V54.4419H75.3251C74.7562 54.4419 74.3183 54.5954 74.0114 54.9023C73.712 55.2017 73.5623 55.6321 73.5623 56.1935V59.4048H72.2486ZM76.8032 61.7739V60.6174H77.8025C78.0346 60.6174 78.2329 60.5875 78.3976 60.5276C78.5623 60.4752 78.697 60.3779 78.8018 60.2357C78.9066 60.1009 78.9927 59.9175 79.0601 59.6855L80.8229 53.3528H82.0917L80.1829 59.9999C80.0631 60.4191 79.8947 60.7597 79.6776 61.0216C79.468 61.2836 79.1985 61.4745 78.8692 61.5943C78.5473 61.714 78.1581 61.7739 77.7015 61.7739H76.8032ZM78.6671 59.27V58.2034H79.9695V59.27H78.6671ZM78.3415 59.27L76.2867 53.3528H77.6229L79.5878 59.27H78.3415Z" fill="white"/>
<path d="M0 33L15.3374 38.317L8.52079 41.8616L5.11247 48.9509L0 33Z" fill="url(#paint2_linear_173_934)"/>
</g>
<defs>
<linearGradient id="paint0_linear_173_934" x1="0.97128" y1="40.7707" x2="24.8256" y2="97.5949" gradientUnits="userSpaceOnUse">
<stop stop-color="#D461F0"/>
<stop offset="0.525" stop-color="#A587FF"/>
<stop offset="1" stop-color="#618CFF"/>
</linearGradient>
<linearGradient id="paint1_linear_173_934" x1="96.3189" y1="67.969" x2="10.4294" y2="42.2022" gradientUnits="userSpaceOnUse">
<stop stop-color="white"/>
<stop offset="1" stop-color="#999999"/>
</linearGradient>
<linearGradient id="paint2_linear_173_934" x1="-1.27812" y1="32.1138" x2="17.5765" y2="44.2873" gradientUnits="userSpaceOnUse">
<stop stop-color="#D461F0"/>
<stop offset="0.525" stop-color="#A587FF"/>
<stop offset="1" stop-color="#618CFF"/>
</linearGradient>
<clipPath id="clip0_173_934">
<rect width="100" height="100" fill="white"/>
</clipPath>
</defs>
</svg>
