<svg width="98" height="50" viewBox="0 0 98 50" fill="none" xmlns="http://www.w3.org/2000/svg">
<path fill-rule="evenodd" clip-rule="evenodd" d="M15.0501 19.5312L10.5206 16.6932C10.4896 16.6749 10.4602 16.658 10.4275 16.6408C9.6874 16.198 8.82644 15.9608 7.92976 15.9625C5.21164 15.9611 2.99858 18.1594 3 20.8594C3.0017 21.8053 3.26486 22.7101 3.76368 23.476L13.2758 38.7922C13.7108 39.4953 14.2207 40.1336 14.7907 40.6998C16.7142 42.6105 19.3252 43.7026 22.1301 43.695L34.2131 43.6953C36.9917 43.6981 39.6057 42.6215 41.5695 40.6708C43.5333 38.7201 44.6157 36.1216 44.6146 33.3633L44.6143 14.1924C44.6146 11.4941 42.4029 9.29723 39.6862 9.29723C39.1115 9.29729 38.5593 9.39569 38.0459 9.57637L38.0459 9.2473C38.0476 6.63042 35.7464 4.35071 33.1178 4.35212C32.5398 4.35212 31.9846 4.45162 31.4687 4.63428C31.3215 2.13038 29.0939 -0.00299135 26.5467 3.1486e-06C24.6322 0.000201743 22.9687 1.0913 22.1531 2.68008C21.4968 2.35773 20.7585 2.17659 19.9785 2.17708C17.2606 2.17539 15.0476 4.37368 15.049 7.07367L15.0501 19.5312Z" fill="url(#paint0_linear_180_1018)"/>
<path fill-rule="evenodd" clip-rule="evenodd" d="M15.0501 19.5312L10.5206 16.6932C10.4896 16.6749 10.4602 16.658 10.4275 16.6408C9.68739 16.198 8.82644 15.9608 7.92976 15.9625C5.21164 15.9611 2.99858 18.1594 3 20.8594C3.0017 21.8053 3.26486 22.7101 3.76368 23.476L13.2758 38.7922C13.7108 39.4953 14.2207 40.1336 14.7907 40.6998C16.7142 42.6105 19.3252 43.7026 22.1301 43.695L34.2131 43.6953C36.9917 43.6981 39.6057 42.6215 41.5695 40.6708C43.5333 38.7201 44.6157 36.1216 44.6146 33.3633L44.6143 14.1924C44.6146 11.4941 42.4029 9.29723 39.6862 9.29723C39.1115 9.29729 38.5593 9.39569 38.0459 9.57637L38.0459 9.2473C38.0476 6.63042 35.7464 4.35071 33.1178 4.35212C32.5398 4.35212 31.9846 4.45162 31.4687 4.63428C31.3215 2.13038 29.0939 -0.00299135 26.5467 3.1486e-06C24.6322 0.000201743 22.9687 1.0913 22.1531 2.68008C21.4968 2.35773 20.7585 2.17659 19.9785 2.17708C17.2606 2.17539 15.0476 4.37368 15.049 7.07367L15.0501 19.5312ZM28.19 24.4773C28.1883 24.928 28.3726 25.3359 28.6701 25.6314C28.9673 25.9266 29.3794 26.1083 29.8317 26.108C30.7391 26.108 31.4747 25.3773 31.4747 24.4759L31.4759 10.9095C31.476 10.9032 31.4761 10.8969 31.4762 10.8905C31.4762 10.8864 31.4762 10.8822 31.4762 10.878L31.4765 9.2473C31.4762 8.349 32.2135 7.61661 33.1195 7.61802C33.9944 7.61661 34.7612 8.37829 34.7612 9.24871L34.7608 14.0336C34.759 14.0864 34.7582 14.1393 34.7582 14.1924C34.7582 14.2232 34.759 14.2538 34.7607 14.2842L34.7598 24.4776C34.7581 24.9283 34.9424 25.3357 35.2399 25.6311C35.5374 25.9266 35.9491 26.108 36.4014 26.1083C37.3089 26.1083 38.0445 25.3776 38.0448 24.4759L38.0455 14.1311C38.0597 13.7183 38.2296 13.3317 38.5247 13.0386C38.8344 12.731 39.2464 12.5617 39.6862 12.562C40.5645 12.5634 41.3296 13.3234 41.3293 14.1941L41.3296 33.3649C41.3296 35.2539 40.5892 37.0294 39.245 38.3646C37.9005 39.7001 36.1134 40.4353 34.2117 40.4353H22.1284C19.6425 40.4336 17.3784 39.1751 16.0699 37.0753L6.54192 21.7315L6.53843 21.7257C6.53027 21.7122 6.52211 21.6987 6.51243 21.6836C6.36695 21.4529 6.28641 21.1605 6.28641 20.8563C6.28641 19.9549 7.02372 19.2225 7.93118 19.2225C8.23319 19.2239 8.52897 19.3025 8.75668 19.4487C8.76483 19.4533 8.77278 19.458 8.78064 19.4626C8.80096 19.4745 8.8207 19.4861 8.84176 19.496L15.7258 23.811C15.9965 24.007 16.3293 24.1223 16.6906 24.1236C17.4585 24.1236 18.1034 23.6004 18.2836 22.8932C18.3236 22.7384 18.34 22.58 18.3337 22.4234L18.3323 7.07367C18.3323 6.17226 19.0696 5.43987 19.9753 5.44156C20.8625 5.43853 21.5867 6.1438 21.6177 7.01798L21.6169 8.69967C21.6169 8.72516 21.6175 8.75051 21.6187 8.77571V24.4761C21.6187 25.3775 22.3543 26.1082 23.262 26.1085C24.1695 26.1085 24.9051 25.3778 24.9054 24.4761L24.9068 7.06916C24.9067 7.01188 24.9057 6.95482 24.9036 6.898V4.89349C24.9022 4.45829 25.074 4.04758 25.3837 3.73998C25.6934 3.43238 26.1054 3.26308 26.5453 3.2628C27.4232 3.26449 28.1883 4.02449 28.1886 4.89518L28.19 24.4773Z" fill="white"/>
<defs>
<linearGradient id="paint0_linear_180_1018" x1="12.2477" y1="2.54889" x2="44.0649" y2="34.7545" gradientUnits="userSpaceOnUse">
<stop stop-color="#D461F0"/>
<stop offset="0.525" stop-color="#A587FF"/>
<stop offset="1" stop-color="#618CFF"/>
</linearGradient>
</defs>
</svg>
