<svg width="385" height="233" viewBox="0 0 385 233" fill="none" xmlns="http://www.w3.org/2000/svg">
<rect x="0.595703" y="44.6198" width="61.5832" height="61.5832" rx="7.69791" fill="#BA96FF"/>
<path fill-rule="evenodd" clip-rule="evenodd" d="M35.2538 78.5043H51.4916L51.4916 73.0917H35.2538V78.5043ZM52.2648 71.5453H34.4806C34.053 71.5453 33.7073 71.8917 33.7073 72.3185V79.2775C33.7073 79.7044 34.053 80.0508 34.4806 80.0508H52.2648C52.6924 80.0508 53.038 79.7044 53.038 79.2775L53.038 72.3185C53.038 71.8917 52.6924 71.5453 52.2648 71.5453ZM34.094 92.809C34.094 94.3013 32.88 95.5153 31.3877 95.5153C29.8953 95.5153 28.6814 94.3013 28.6814 92.809C28.6814 91.3167 29.8953 90.1027 31.3877 90.1027C32.88 90.1027 34.094 91.3167 34.094 92.809ZM11.2838 80.824H25.2018V77.7311H11.2838V80.824ZM11.2838 73.0917H25.2018L25.2018 69.9988H11.2838V73.0917ZM28.6814 58.0138C28.6814 56.5215 29.8953 55.3075 31.3877 55.3075C32.88 55.3075 34.094 56.5215 34.094 58.0138C34.094 59.5061 32.88 60.7201 31.3877 60.7201C29.8953 60.7201 28.6814 59.5061 28.6814 58.0138ZM43.7593 85.4634H19.016V82.3705H25.9751C26.4027 82.3705 26.7483 82.024 26.7483 81.5972V76.9579C26.7483 76.531 26.4027 76.1846 25.9751 76.1846H19.016V74.6382H25.9751C26.4027 74.6382 26.7483 74.2918 26.7483 73.865V69.2256C26.7483 68.7988 26.4027 68.4524 25.9751 68.4524H19.016V66.1327H43.7593V69.2256H45.3058V65.3595C45.3058 64.9326 44.9601 64.5862 44.5325 64.5862H32.1609V62.1923C34.1373 61.8274 35.6404 60.0946 35.6404 58.0138C35.6404 55.6686 33.7321 53.761 31.3877 53.761C29.0432 53.761 27.1349 55.6686 27.1349 58.0138C27.1349 60.0946 28.6381 61.8274 30.6144 62.1923V64.5862H18.2428C17.8152 64.5862 17.4696 64.9326 17.4696 65.3595L17.4696 68.4524H10.5105C10.0829 68.4524 9.7373 68.7988 9.7373 69.2256L9.7373 73.865C9.7373 74.2918 10.0829 74.6382 10.5105 74.6382H17.4696V76.1846H10.5105C10.0829 76.1846 9.7373 76.531 9.7373 76.9579L9.7373 81.5972C9.7373 82.024 10.0829 82.3705 10.5105 82.3705H17.4696L17.4696 86.2366C17.4696 86.6634 17.8152 87.0098 18.2428 87.0098H30.6144V88.6305C28.6381 88.9955 27.1349 90.7283 27.1349 92.809C27.1349 95.1542 29.0432 97.0618 31.3877 97.0618C33.7321 97.0618 35.6404 95.1542 35.6404 92.809C35.6404 90.7283 34.1373 88.9955 32.1609 88.6305V87.0098H44.5325C44.9601 87.0098 45.3058 86.6634 45.3058 86.2366V82.3913H43.7593V85.4634Z" fill="white"/>
<g clip-path="url(#clip0_98_2975)">
<rect x="265.272" y="44.6198" width="61.5832" height="61.5832" rx="7.69791" fill="#F1668F"/>
<path fill-rule="evenodd" clip-rule="evenodd" d="M287.302 94.1752H278.231L288.264 73.2044L292.81 82.5632L287.302 94.1752ZM288.918 71.2003C288.795 70.9483 288.539 70.7883 288.259 70.7883H288.257C287.975 70.789 287.719 70.9505 287.598 71.204L276.409 94.5909C276.301 94.8173 276.316 95.0833 276.451 95.2959C276.584 95.5077 276.819 95.6363 277.07 95.6363H287.766C288.049 95.6363 288.306 95.4734 288.428 95.2184L294.284 82.8715C294.378 82.6713 294.378 82.4397 294.28 82.241L288.918 71.2003ZM314.325 94.1752H305.312L290.852 63.9069C290.732 63.6526 290.474 63.4904 290.191 63.4904H284.294L284.301 56.1846H295.859L310.252 86.4521C310.373 86.7064 310.631 86.8693 310.913 86.8693H314.325V94.1752ZM315.057 85.4081H311.377L296.984 55.1406C296.863 54.8863 296.605 54.7234 296.322 54.7234H283.569C283.166 54.7234 282.837 55.05 282.837 55.4532L282.829 64.2203C282.829 64.4146 282.905 64.6002 283.043 64.7376C283.18 64.8749 283.366 64.9516 283.561 64.9516H289.729L304.189 95.2199C304.311 95.4741 304.567 95.6363 304.85 95.6363H315.057C315.462 95.6363 315.79 95.309 315.79 94.9057V86.1387C315.79 85.7354 315.462 85.4081 315.057 85.4081Z" fill="white"/>
</g>
<rect x="127.693" y="44.6198" width="61.5832" height="61.5832" rx="7.69791" fill="#6ABF6C"/>
<path fill-rule="evenodd" clip-rule="evenodd" d="M148.766 78.5742L151.341 76.0306C151.502 75.8711 151.593 75.6545 151.594 75.4285C151.595 75.2026 151.505 74.9851 151.344 74.8248L148.769 72.2522L147.553 73.4545L148.657 74.5588H144.728V76.2642H148.671L147.556 77.3651L148.766 78.5742ZM168.415 78.6518L171.848 76.092C172.063 75.9308 172.191 75.6784 172.191 75.4106C172.191 75.142 172.063 74.8888 171.847 74.7276L168.414 72.1712L167.385 73.5355L168.758 74.5588H165.325V76.2642H168.757L167.384 77.2875L168.415 78.6518ZM154.333 75.4115C154.333 77.2218 154.02 78.9289 153.435 80.4144C154.978 79.8209 156.72 79.5241 158.459 79.5241C160.199 79.5241 161.94 79.8209 163.483 80.4144C162.899 78.9289 162.586 77.2218 162.586 75.4115C162.586 73.6012 162.899 71.8949 163.483 70.4086C160.396 71.5947 156.522 71.5947 153.435 70.4086C154.02 71.8949 154.333 73.6012 154.333 75.4115ZM150.129 83.6888C149.961 83.5225 149.877 83.3042 149.877 83.0859C149.877 82.8676 149.961 82.6493 150.129 82.4831C151.686 80.9354 152.617 78.2911 152.617 75.4115C152.617 72.5319 151.686 69.8876 150.129 68.3399C149.961 68.1736 149.877 67.9553 149.877 67.737C149.877 67.5188 149.961 67.3005 150.129 67.1342C150.464 66.8008 151.007 66.8008 151.342 67.1342C154.668 70.4384 162.251 70.4384 165.576 67.1342C165.912 66.8008 166.454 66.8008 166.79 67.1342C166.957 67.3005 167.041 67.5188 167.041 67.737C167.041 67.9553 166.957 68.1736 166.79 68.3399C165.232 69.8876 164.302 72.5319 164.302 75.4115C164.302 78.2911 165.232 80.9354 166.79 82.4831C166.957 82.6493 167.041 82.8676 167.041 83.0859C167.041 83.3042 166.957 83.5225 166.79 83.6888C166.623 83.8551 166.403 83.9387 166.183 83.9387C165.963 83.9387 165.744 83.8551 165.576 83.6888C162.251 80.3845 154.668 80.3845 151.342 83.6888C151.007 84.0222 150.464 84.0222 150.129 83.6888ZM180.742 75.4158C180.742 74.621 180.431 73.874 179.865 73.3121C179.282 72.7314 178.515 72.4423 177.748 72.4423C176.982 72.4423 176.215 72.7314 175.631 73.3121C174.463 74.4718 174.463 76.3589 175.631 77.5194C176.798 78.6791 178.697 78.68 179.865 77.5194C180.431 76.9575 180.742 76.2105 180.742 75.4158ZM181.079 78.7251C180.161 79.6376 178.955 80.0938 177.748 80.0938C176.542 80.0938 175.336 79.6376 174.418 78.7251C172.58 76.9003 172.58 73.9312 174.418 72.1064C176.255 70.2798 179.243 70.2816 181.079 72.1064C182.916 73.9312 182.916 76.9003 181.079 78.7251ZM142.13 75.4354C142.13 74.6406 141.819 73.8937 141.253 73.3317C140.688 72.7698 139.936 72.4602 139.136 72.4602C138.337 72.4602 137.585 72.7698 137.019 73.3317C136.453 73.8937 136.143 74.6406 136.143 75.4354C136.143 76.2292 136.453 76.9762 137.019 77.539C138.151 78.662 140.122 78.662 141.253 77.539C141.819 76.9762 142.13 76.2292 142.13 75.4354ZM142.467 78.7448C141.549 79.6572 140.343 80.1134 139.136 80.1134C137.93 80.1134 136.725 79.6572 135.805 78.7448C133.97 76.9199 133.97 73.9508 135.805 72.126C137.643 70.3012 140.63 70.3012 142.467 72.126C144.303 73.9508 144.303 76.9199 142.467 78.7448ZM171.218 88.1528C167.792 91.5577 163.236 93.4319 158.391 93.4319C153.544 93.4319 148.988 91.5577 145.562 88.1528C143.213 85.8189 141.919 83.0297 141.248 81.1017L139.626 81.6593C140.357 83.757 141.768 86.7953 144.349 89.3585C148.099 93.0857 153.085 95.1374 158.391 95.1374C163.695 95.1374 168.681 93.0857 172.432 89.3585C174.599 87.2071 176.324 84.4716 177.293 81.6568L175.67 81.1042C174.784 83.6777 173.203 86.1813 171.218 88.1528ZM141.247 69.7222L139.627 69.1628C140.665 66.1919 142.344 63.4564 144.354 61.4602C148.103 57.7364 153.087 55.6856 158.391 55.6856C163.694 55.6856 168.679 57.7364 172.427 61.4602C174.542 63.5621 176.316 66.3693 177.292 69.1628L175.671 69.7222C174.776 67.164 173.152 64.5922 171.213 62.6659C167.79 59.2636 163.235 57.391 158.391 57.391C153.545 57.391 148.992 59.2636 145.567 62.6659C143.738 64.4848 142.203 66.9909 141.247 69.7222Z" fill="white"/>
<path d="M64.8708 75.5434C64.5451 75.5442 64.2817 75.8087 64.2824 76.1344C64.2832 76.46 64.5477 76.7234 64.8734 76.7227L64.8708 75.5434ZM124.999 76L119.096 72.6088L119.111 79.4173L124.999 76ZM64.8734 76.7227L119.694 76.6014L119.691 75.4221L64.8708 75.5434L64.8734 76.7227Z" fill="black"/>
<path d="M192.548 75.5434C192.222 75.5441 191.959 75.8085 191.959 76.1342C191.96 76.4598 192.224 76.7233 192.55 76.7227L192.548 75.5434ZM261.999 76L256.096 72.6071L256.109 79.4155L261.999 76ZM192.55 76.7227L256.694 76.5998L256.691 75.4205L192.548 75.5434L192.55 76.7227Z" fill="black"/>
<path d="M329.878 74.2361C329.552 74.2348 329.287 74.4977 329.286 74.8233C329.284 75.149 329.547 75.414 329.873 75.4154L329.878 74.2361ZM28.7781 109.901L25.3999 115.812L32.2082 115.782L28.7781 109.901ZM28.9828 156.377L28.3932 156.38L28.3958 156.965L28.9804 156.967L28.9828 156.377ZM366.206 157.751L366.204 158.34L366.798 158.343L366.796 157.748L366.206 157.751ZM365.863 74.9722L366.453 74.9698L366.451 74.385L365.866 74.3826L365.863 74.9722ZM29.5724 156.375L29.3911 115.205L28.2118 115.21L28.3932 156.38L29.5724 156.375ZM366.208 157.161L28.9852 155.788L28.9804 156.967L366.204 158.34L366.208 157.161ZM329.873 75.4154L365.861 75.5619L365.866 74.3826L329.878 74.2361L329.873 75.4154ZM365.274 74.9747L365.616 157.753L366.796 157.748L366.453 74.9698L365.274 74.9747Z" fill="black"/>
<defs>
<clipPath id="clip0_98_2975">
<rect width="61.5832" height="61.5832" fill="white" transform="translate(265.272 44.6198)"/>
</clipPath>
</defs>
</svg>
