<svg width="386" height="130" viewBox="0 0 386 130" fill="none" xmlns="http://www.w3.org/2000/svg">
<rect x="18" width="35" height="36" rx="4.43556" fill="#BA96FF"/>
<g clip-path="url(#clip0_98_2995)">
<path d="M46.662 32.6034C47.3016 32.6034 47.9151 32.3493 48.3674 31.897C48.8197 31.4447 49.0738 30.8312 49.0738 30.1916C49.091 30.0981 49.091 30.0023 49.0738 29.9088C48.1091 22.3074 43.8011 16.1198 35.4844 16.1198C27.1677 16.1198 22.7432 21.3593 21.8949 29.9254C21.8604 30.2446 21.8896 30.5675 21.9807 30.8754C22.0718 31.1833 22.223 31.47 22.4256 31.7191C22.6283 31.9681 22.8783 32.1745 23.1612 32.3263C23.4441 32.4781 23.7543 32.5723 24.0739 32.6034H46.662Z" fill="#BA96FF"/>
<path d="M46.662 32.6034C47.3016 32.6034 47.9151 32.3493 48.3674 31.897C48.8197 31.4447 49.0738 30.8312 49.0738 30.1916C49.091 30.0981 49.091 30.0023 49.0738 29.9088C48.1091 22.3074 43.8011 16.1198 35.4844 16.1198C27.1677 16.1198 22.7432 21.3593 21.8949 29.9254C21.8604 30.2446 21.8896 30.5675 21.9807 30.8754C22.0718 31.1833 22.223 31.47 22.4256 31.7191C22.6283 31.9681 22.8783 32.1745 23.1612 32.3263C23.4441 32.4781 23.7543 32.5723 24.0739 32.6034H46.662Z" fill="black" fill-opacity="0.2"/>
<path opacity="0.8" d="M35.4844 17.9161C34.0215 17.915 32.5897 17.4935 31.3594 16.7019L35.4844 27.3805L39.543 16.7684C38.327 17.5296 36.919 17.9277 35.4844 17.9161Z" fill="white"/>
<path d="M35.5009 17.8995C39.7082 17.8995 43.119 14.4888 43.119 10.2814C43.119 6.07406 39.7082 2.66333 35.5009 2.66333C31.2935 2.66333 27.8828 6.07406 27.8828 10.2814C27.8828 14.4888 31.2935 17.8995 35.5009 17.8995Z" fill="#BA96FF"/>
<path d="M35.5009 17.8995C39.7082 17.8995 43.119 14.4888 43.119 10.2814C43.119 6.07406 39.7082 2.66333 35.5009 2.66333C31.2935 2.66333 27.8828 6.07406 27.8828 10.2814C27.8828 14.4888 31.2935 17.8995 35.5009 17.8995Z" fill="black" fill-opacity="0.2"/>
</g>
<rect y="24" width="35" height="37" rx="4.43556" fill="#BA96FF"/>
<g clip-path="url(#clip1_98_2995)">
<path d="M28.9198 56.9613C29.5595 56.9613 30.1729 56.7072 30.6252 56.2549C31.0775 55.8026 31.3316 55.1891 31.3316 54.5495C31.3488 54.456 31.3488 54.3602 31.3316 54.2667C30.3669 46.6653 26.0589 40.4777 17.7422 40.4777C9.42551 40.4777 5.00103 45.7172 4.15273 54.2833C4.11823 54.6026 4.14737 54.9254 4.23847 55.2333C4.32957 55.5412 4.48081 55.8279 4.68345 56.077C4.88608 56.326 5.1361 56.5324 5.41902 56.6842C5.70193 56.836 6.01215 56.9302 6.3317 56.9613H28.9198Z" fill="#BA96FF"/>
<path d="M28.9198 56.9613C29.5595 56.9613 30.1729 56.7072 30.6252 56.2549C31.0775 55.8026 31.3316 55.1891 31.3316 54.5495C31.3488 54.456 31.3488 54.3602 31.3316 54.2667C30.3669 46.6653 26.0589 40.4777 17.7422 40.4777C9.42551 40.4777 5.00103 45.7172 4.15273 54.2833C4.11823 54.6026 4.14737 54.9254 4.23847 55.2333C4.32957 55.5412 4.48081 55.8279 4.68345 56.077C4.88608 56.326 5.1361 56.5324 5.41902 56.6842C5.70193 56.836 6.01215 56.9302 6.3317 56.9613H28.9198Z" fill="black" fill-opacity="0.2"/>
<path opacity="0.8" d="M17.7423 42.2741C16.2793 42.2729 14.8475 41.8514 13.6172 41.0598L17.7423 51.7384L21.8008 41.1263C20.5848 41.8875 19.1768 42.2856 17.7423 42.2741Z" fill="white"/>
<path d="M17.7587 42.2575C21.9661 42.2575 25.3768 38.8468 25.3768 34.6394C25.3768 30.4321 21.9661 27.0214 17.7587 27.0214C13.5514 27.0214 10.1406 30.4321 10.1406 34.6394C10.1406 38.8468 13.5514 42.2575 17.7587 42.2575Z" fill="#BA96FF"/>
<path d="M17.7587 42.2575C21.9661 42.2575 25.3768 38.8468 25.3768 34.6394C25.3768 30.4321 21.9661 27.0214 17.7587 27.0214C13.5514 27.0214 10.1406 30.4321 10.1406 34.6394C10.1406 38.8468 13.5514 42.2575 17.7587 42.2575Z" fill="black" fill-opacity="0.2"/>
</g>
<rect x="35" y="24" width="36" height="37" rx="4.43556" fill="#BA96FF"/>
<g clip-path="url(#clip2_98_2995)">
<path d="M64.4042 56.9613C65.0438 56.9613 65.6573 56.7072 66.1096 56.2549C66.5619 55.8026 66.816 55.1891 66.816 54.5495C66.8332 54.456 66.8332 54.3602 66.816 54.2667C65.8513 46.6653 61.5432 40.4777 53.2266 40.4777C44.9099 40.4777 40.4854 45.7172 39.6371 54.2833C39.6026 54.6026 39.6317 54.9254 39.7228 55.2333C39.8139 55.5412 39.9652 55.8279 40.1678 56.077C40.3705 56.326 40.6205 56.5324 40.9034 56.6842C41.1863 56.836 41.4965 56.9302 41.8161 56.9613H64.4042Z" fill="#BA96FF"/>
<path d="M64.4042 56.9613C65.0438 56.9613 65.6573 56.7072 66.1096 56.2549C66.5619 55.8026 66.816 55.1891 66.816 54.5495C66.8332 54.456 66.8332 54.3602 66.816 54.2667C65.8513 46.6653 61.5432 40.4777 53.2266 40.4777C44.9099 40.4777 40.4854 45.7172 39.6371 54.2833C39.6026 54.6026 39.6317 54.9254 39.7228 55.2333C39.8139 55.5412 39.9652 55.8279 40.1678 56.077C40.3705 56.326 40.6205 56.5324 40.9034 56.6842C41.1863 56.836 41.4965 56.9302 41.8161 56.9613H64.4042Z" fill="black" fill-opacity="0.2"/>
<path opacity="0.8" d="M53.2266 42.2741C51.7637 42.2729 50.3319 41.8514 49.1016 41.0598L53.2266 51.7384L57.2852 41.1263C56.0692 41.8875 54.6612 42.2856 53.2266 42.2741Z" fill="white"/>
<path d="M53.2431 42.2575C57.4504 42.2575 60.8612 38.8468 60.8612 34.6394C60.8612 30.4321 57.4504 27.0214 53.2431 27.0214C49.0357 27.0214 45.625 30.4321 45.625 34.6394C45.625 38.8468 49.0357 42.2575 53.2431 42.2575Z" fill="#BA96FF"/>
<path d="M53.2431 42.2575C57.4504 42.2575 60.8612 38.8468 60.8612 34.6394C60.8612 30.4321 57.4504 27.0214 53.2431 27.0214C49.0357 27.0214 45.625 30.4321 45.625 34.6394C45.625 38.8468 49.0357 42.2575 53.2431 42.2575Z" fill="black" fill-opacity="0.2"/>
</g>
<rect x="246" y="14.4058" width="38.4917" height="36.0859" rx="4.81146" fill="#F1668F"/>
<path d="M281.477 33.8099C281.421 32.0805 280.754 30.4269 279.595 29.1422C278.435 27.8575 276.859 27.0247 275.144 26.7912C275.036 24.3758 273.982 22.0999 272.21 20.4556C270.437 18.8113 268.088 17.9307 265.672 18.0043C263.716 17.9681 261.797 18.5408 260.181 19.6431C258.564 20.7454 257.331 22.3227 256.65 24.1569C254.584 24.4064 252.676 25.3883 251.273 26.9244C249.869 28.4605 249.063 30.4489 249 32.5288C249.089 34.8678 250.102 37.0758 251.817 38.6689C253.532 40.2619 255.809 41.11 258.148 41.0271H258.942H273.755C273.887 41.0371 274.02 41.0371 274.152 41.0271C276.07 41.0089 277.907 40.2461 279.274 38.8995C280.641 37.5529 281.431 35.728 281.477 33.8099Z" fill="#F1668F"/>
<path d="M281.477 33.8099C281.421 32.0805 280.754 30.4269 279.595 29.1422C278.435 27.8575 276.859 27.0247 275.144 26.7912C275.036 24.3758 273.982 22.0999 272.21 20.4556C270.437 18.8113 268.088 17.9307 265.672 18.0043C263.716 17.9681 261.797 18.5408 260.181 19.6431C258.564 20.7454 257.331 22.3227 256.65 24.1569C254.584 24.4064 252.676 25.3883 251.273 26.9244C249.869 28.4605 249.063 30.4489 249 32.5288C249.089 34.8678 250.102 37.0758 251.817 38.6689C253.532 40.2619 255.809 41.11 258.148 41.0271H258.942H273.755C273.887 41.0371 274.02 41.0371 274.152 41.0271C276.07 41.0089 277.907 40.2461 279.274 38.8995C280.641 37.5529 281.431 35.728 281.477 33.8099Z" fill="black" fill-opacity="0.2"/>
<path d="M274.784 35.7045C274.779 35.5066 274.697 35.3185 274.556 35.1803C274.414 35.042 274.224 34.9647 274.026 34.9647H256.452C256.254 34.9647 256.064 35.042 255.923 35.1803C255.781 35.3185 255.699 35.5066 255.694 35.7045V44.726C255.699 44.9238 255.781 45.112 255.923 45.2502C256.064 45.3884 256.254 45.4658 256.452 45.4657H274.026C274.224 45.4658 274.414 45.3884 274.556 45.2502C274.697 45.112 274.779 44.9238 274.784 44.726V35.7045Z" fill="white"/>
<path d="M261.937 36.0112H256.759V38.3027H261.937V36.0112Z" fill="#F1668F"/>
<path d="M261.937 36.0112H256.759V38.3027H261.937V36.0112Z" fill="black" fill-opacity="0.2"/>
<path d="M267.891 36.0112H262.713V38.3027H267.891V36.0112Z" fill="#F1668F"/>
<path d="M267.891 36.0112H262.713V38.3027H267.891V36.0112Z" fill="black" fill-opacity="0.2"/>
<path d="M273.845 36.0112H268.667V38.3027H273.845V36.0112Z" fill="#F1668F"/>
<path d="M273.845 36.0112H268.667V38.3027H273.845V36.0112Z" fill="black" fill-opacity="0.2"/>
<path d="M258.906 39.0784H256.759V41.3698H258.906V39.0784Z" fill="#F1668F"/>
<path d="M258.906 39.0784H256.759V41.3698H258.906V39.0784Z" fill="black" fill-opacity="0.2"/>
<path d="M273.845 39.0784H271.698V41.3698H273.845V39.0784Z" fill="#F1668F"/>
<path d="M273.845 39.0784H271.698V41.3698H273.845V39.0784Z" fill="black" fill-opacity="0.2"/>
<path d="M264.86 39.0784H259.682V41.3698H264.86V39.0784Z" fill="#F1668F"/>
<path d="M264.86 39.0784H259.682V41.3698H264.86V39.0784Z" fill="black" fill-opacity="0.2"/>
<path d="M270.832 39.0784H265.653V41.3698H270.832V39.0784Z" fill="#F1668F"/>
<path d="M270.832 39.0784H265.653V41.3698H270.832V39.0784Z" fill="black" fill-opacity="0.2"/>
<path d="M261.937 42.1459H256.759V44.4373H261.937V42.1459Z" fill="#F1668F"/>
<path d="M261.937 42.1459H256.759V44.4373H261.937V42.1459Z" fill="black" fill-opacity="0.2"/>
<path d="M267.891 42.1459H262.713V44.4373H267.891V42.1459Z" fill="#F1668F"/>
<path d="M267.891 42.1459H262.713V44.4373H267.891V42.1459Z" fill="black" fill-opacity="0.2"/>
<path d="M273.845 42.1459H268.667V44.4373H273.845V42.1459Z" fill="#F1668F"/>
<path d="M273.845 42.1459H268.667V44.4373H273.845V42.1459Z" fill="black" fill-opacity="0.2"/>
<rect x="246" y="90.9142" width="38.4917" height="38.49" rx="4.81146" fill="#F1668F"/>
<path d="M274.743 122.404C271.527 124.898 267.452 126.011 263.416 125.5C259.379 124.989 255.71 122.896 253.217 119.68C250.724 116.464 249.611 112.39 250.121 108.353C250.632 104.316 252.726 100.648 255.942 98.1547L256.104 98.0464C259.338 95.6323 263.394 94.5903 267.391 95.1463C271.388 95.7023 275.005 97.8116 277.458 101.017C279.91 104.222 281.001 108.265 280.492 112.268C279.984 116.272 277.918 119.914 274.743 122.404Z" fill="#F1668F"/>
<path d="M274.743 122.404C271.527 124.898 267.452 126.011 263.416 125.5C259.379 124.989 255.71 122.896 253.217 119.68C250.724 116.464 249.611 112.39 250.121 108.353C250.632 104.316 252.726 100.648 255.942 98.1547L256.104 98.0464C259.338 95.6323 263.394 94.5903 267.391 95.1463C271.388 95.7023 275.005 97.8116 277.458 101.017C279.91 104.222 281.001 108.265 280.492 112.268C279.984 116.272 277.918 119.914 274.743 122.404Z" fill="black" fill-opacity="0.1"/>
<path d="M265.342 96.4044C262.598 96.4044 259.915 97.2182 257.633 98.7428C255.352 100.267 253.573 102.434 252.523 104.97C251.473 107.505 251.198 110.295 251.733 112.986C252.269 115.678 253.59 118.15 255.531 120.091C257.471 122.031 259.943 123.353 262.635 123.888C265.326 124.423 268.116 124.148 270.652 123.098C273.187 122.048 275.354 120.27 276.879 117.988C278.403 115.706 279.217 113.024 279.217 110.279C279.212 106.601 277.749 103.075 275.148 100.474C272.547 97.8726 269.02 96.4092 265.342 96.4044ZM274.634 101.078C273.424 101.758 272.115 102.245 270.755 102.521C270.284 100.781 269.521 99.134 268.499 97.6494C270.82 98.2068 272.943 99.3929 274.634 101.078ZM265.342 97.1803C266.001 97.1798 266.659 97.2341 267.309 97.3427C268.628 98.9137 269.572 100.765 270.069 102.756C266.818 103.351 263.486 103.351 260.236 102.756C260.731 100.804 261.663 98.9904 262.96 97.4509C263.744 97.2889 264.541 97.1983 265.342 97.1803ZM261.733 97.6494C260.699 99.1186 259.924 100.754 259.442 102.485C258.223 102.237 257.061 101.766 256.014 101.096C257.595 99.4778 259.564 98.2915 261.733 97.6494ZM255.815 119.301C256.792 118.65 257.881 118.185 259.027 117.93C259.474 119.722 260.305 121.397 261.463 122.837C259.306 122.166 257.361 120.947 255.815 119.301ZM267.381 123.27C266.705 123.361 266.023 123.397 265.342 123.379C264.469 123.381 263.598 123.29 262.744 123.108C261.233 121.636 260.186 119.754 259.73 117.695C263.231 116.982 266.839 116.982 270.34 117.695C269.874 119.759 268.814 121.64 267.29 123.108L267.381 123.27ZM268.698 122.982C269.891 121.502 270.741 119.777 271.188 117.93C272.464 118.229 273.683 118.735 274.796 119.427C273.126 121.131 271.014 122.337 268.698 122.91V122.982ZM271.368 117.172C271.513 116.522 271.639 115.855 271.729 115.151L270.899 115.35C270.809 115.909 270.719 116.468 270.592 116.991C266.967 116.252 263.23 116.252 259.604 116.991C259.478 116.504 259.388 115.981 259.297 115.44C259.289 115.386 259.289 115.331 259.297 115.277L258.467 115.043C258.457 115.211 258.457 115.38 258.467 115.548C258.467 116.125 258.666 116.667 258.774 117.19C257.487 117.473 256.263 117.993 255.166 118.724C253.175 116.335 252.101 113.316 252.138 110.207C252.174 107.098 253.318 104.104 255.364 101.763C256.512 102.502 257.783 103.027 259.117 103.315C258.991 103.748 258.882 104.217 258.792 104.686C258.702 105.155 258.792 105.137 258.648 105.354L259.496 105.155V104.849C259.604 104.379 259.712 103.928 259.839 103.495C261.653 103.828 263.497 103.973 265.342 103.928C267.025 103.928 268.704 103.771 270.358 103.459C270.484 103.946 270.61 104.47 270.719 104.993L271.549 105.191C271.416 104.542 271.272 103.94 271.116 103.387C272.578 103.066 273.979 102.512 275.265 101.745C277.349 104.104 278.508 107.139 278.528 110.286C278.548 113.434 277.427 116.482 275.374 118.868C274.146 118.065 272.792 117.473 271.368 117.118V117.172Z" fill="white"/>
<path d="M265.342 96.4044C262.598 96.4044 259.915 97.2182 257.633 98.7428C255.352 100.267 253.573 102.434 252.523 104.97C251.473 107.505 251.198 110.295 251.733 112.986C252.269 115.678 253.59 118.15 255.531 120.091C257.471 122.031 259.943 123.353 262.635 123.888C265.326 124.423 268.116 124.148 270.652 123.098C273.187 122.048 275.354 120.27 276.879 117.988C278.403 115.706 279.217 113.024 279.217 110.279C279.212 106.601 277.749 103.075 275.148 100.474C272.547 97.8726 269.02 96.4092 265.342 96.4044ZM274.634 101.078C273.424 101.758 272.115 102.245 270.755 102.521C270.284 100.781 269.521 99.134 268.499 97.6494C270.82 98.2068 272.943 99.3929 274.634 101.078ZM265.342 97.1803C266.001 97.1798 266.659 97.2341 267.309 97.3427C268.628 98.9137 269.572 100.765 270.069 102.756C266.818 103.351 263.486 103.351 260.236 102.756C260.731 100.804 261.663 98.9904 262.96 97.4509C263.744 97.2889 264.541 97.1983 265.342 97.1803ZM261.733 97.6494C260.699 99.1186 259.924 100.754 259.442 102.485C258.223 102.237 257.061 101.766 256.014 101.096C257.595 99.4778 259.564 98.2915 261.733 97.6494ZM255.815 119.301C256.792 118.65 257.881 118.185 259.027 117.93C259.474 119.722 260.305 121.397 261.463 122.837C259.306 122.166 257.361 120.947 255.815 119.301ZM267.381 123.27C266.705 123.361 266.023 123.397 265.342 123.379C264.469 123.381 263.598 123.29 262.744 123.108C261.233 121.636 260.186 119.754 259.73 117.695C263.231 116.982 266.839 116.982 270.34 117.695C269.874 119.759 268.814 121.64 267.29 123.108L267.381 123.27ZM268.698 122.982C269.891 121.502 270.741 119.777 271.188 117.93C272.464 118.229 273.683 118.735 274.796 119.427C273.126 121.131 271.014 122.337 268.698 122.91V122.982ZM271.368 117.172C271.513 116.522 271.639 115.855 271.729 115.151L270.899 115.35C270.809 115.909 270.719 116.468 270.592 116.991C266.967 116.252 263.23 116.252 259.604 116.991C259.478 116.504 259.388 115.981 259.297 115.44C259.289 115.386 259.289 115.331 259.297 115.277L258.467 115.043C258.457 115.211 258.457 115.38 258.467 115.548C258.467 116.125 258.666 116.667 258.774 117.19C257.487 117.473 256.263 117.993 255.166 118.724C253.175 116.335 252.101 113.316 252.138 110.207C252.174 107.098 253.318 104.104 255.364 101.763C256.512 102.502 257.783 103.027 259.117 103.315C258.991 103.748 258.882 104.217 258.792 104.686C258.702 105.155 258.792 105.137 258.648 105.354L259.496 105.155V104.849C259.604 104.379 259.712 103.928 259.839 103.495C261.653 103.828 263.497 103.973 265.342 103.928C267.025 103.928 268.704 103.771 270.358 103.459C270.484 103.946 270.61 104.47 270.719 104.993L271.549 105.191C271.416 104.542 271.272 103.94 271.116 103.387C272.578 103.066 273.979 102.512 275.265 101.745C277.349 104.104 278.508 107.139 278.528 110.286C278.548 113.434 277.427 116.482 275.374 118.868C274.146 118.065 272.792 117.473 271.368 117.118V117.172Z" fill="#F1668F"/>
<path d="M255.761 106.671C256.454 106.571 257.154 106.523 257.854 106.526C258.964 106.438 260.067 106.773 260.94 107.465C261.286 107.809 261.559 108.22 261.742 108.673C261.925 109.125 262.014 109.611 262.004 110.099C262.032 110.641 261.948 111.183 261.759 111.692C261.57 112.201 261.279 112.666 260.903 113.058C259.971 113.848 258.767 114.243 257.547 114.159C256.945 114.161 256.343 114.131 255.743 114.068L255.761 106.671ZM256.754 113.401C257.084 113.424 257.416 113.424 257.746 113.401C258.185 113.451 258.63 113.4 259.047 113.253C259.464 113.106 259.842 112.866 260.153 112.552C260.464 112.237 260.7 111.857 260.842 111.438C260.985 111.019 261.03 110.574 260.976 110.135C261.013 109.728 260.957 109.317 260.812 108.935C260.668 108.552 260.439 108.207 260.142 107.926C259.845 107.644 259.488 107.434 259.098 107.31C258.708 107.187 258.295 107.153 257.89 107.212C257.512 107.174 257.132 107.174 256.754 107.212V113.401Z" fill="white"/>
<path d="M263.285 114.087V106.49H264.35L266.785 110.28C267.295 111.073 267.753 111.899 268.157 112.751C268.067 111.741 268.048 110.821 268.048 109.63V106.49H268.951V114.087H267.958L265.577 110.28C265.053 109.431 264.548 108.475 264.151 107.753C264.151 108.71 264.151 109.558 264.151 110.893V114.141L263.285 114.087Z" fill="white"/>
<path d="M270.556 112.896C271.105 113.214 271.727 113.382 272.361 113.383C273.371 113.383 273.948 112.86 273.948 112.084C273.948 111.308 273.551 110.965 272.523 110.586C271.495 110.207 270.502 109.504 270.502 108.421C270.52 108.12 270.599 107.826 270.735 107.557C270.87 107.287 271.06 107.049 271.292 106.856C271.524 106.663 271.792 106.52 272.082 106.435C272.371 106.351 272.675 106.327 272.974 106.364C273.554 106.348 274.13 106.471 274.652 106.725L274.363 107.537C273.921 107.295 273.424 107.171 272.92 107.176C271.873 107.176 271.477 107.789 271.477 108.313C271.477 108.836 271.946 109.377 272.992 109.774C274.039 110.171 274.941 110.893 274.941 112.012C274.941 113.13 274.075 114.195 272.27 114.195C271.596 114.202 270.93 114.034 270.34 113.708L270.556 112.896Z" fill="white"/>
<rect x="347" y="12" width="38" height="38" rx="4.81146" fill="#F5DC4E"/>
<path d="M381.178 16.3788H350.866C350.268 16.3788 349.783 16.8635 349.783 17.4614V36.9478C349.783 37.5457 350.268 38.0303 350.866 38.0303H381.178C381.776 38.0303 382.261 37.5457 382.261 36.9478V17.4614C382.261 16.8635 381.776 16.3788 381.178 16.3788Z" fill="#F5DC4E"/>
<path d="M381.178 16.3788H350.866C350.268 16.3788 349.783 16.8635 349.783 17.4614V36.9478C349.783 37.5457 350.268 38.0303 350.866 38.0303H381.178C381.776 38.0303 382.261 37.5457 382.261 36.9478V17.4614C382.261 16.8635 381.776 16.3788 381.178 16.3788Z" fill="black" fill-opacity="0.15"/>
<path d="M370.214 24.7598V29.6354L366.022 32.0942V27.2046L370.214 24.7598Z" fill="#F5DC4E"/>
<path d="M370.213 24.7598L366.022 27.2186L361.831 24.7598L366.022 22.3149L370.213 24.7598Z" fill="#F5E589"/>
<path d="M366.022 27.2186V32.0942L361.831 29.6354V24.7598L366.022 27.2186Z" fill="#F0EAC6"/>
<path d="M361.831 29.6356L366.022 27.2047V32.0944L361.831 29.6356Z" fill="#F5E589"/>
<path d="M370.214 29.6356L366.022 27.2047V32.0944L370.214 29.6356Z" fill="#F0EAC6"/>
<path d="M372.535 44.58C369.324 44.0748 369.197 41.7653 369.197 38.0304H362.828C362.828 41.7653 362.72 44.0748 359.508 44.58C359.065 44.629 358.655 44.8406 358.359 45.1738C358.062 45.507 357.9 45.9382 357.902 46.3843H374.141C374.144 45.9382 373.981 45.507 373.685 45.1738C373.388 44.8406 372.979 44.629 372.535 44.58Z" fill="white"/>
<path opacity="0.8" d="M367.647 19.0221C367.583 19.0061 367.517 19.0029 367.452 19.0125C367.387 19.0221 367.324 19.0444 367.268 19.0782C367.212 19.1119 367.162 19.1565 367.123 19.2092C367.084 19.262 367.056 19.322 367.04 19.3857C367.024 19.4494 367.02 19.5157 367.03 19.5807C367.04 19.6457 367.062 19.7082 367.096 19.7646C367.129 19.8209 367.174 19.8701 367.227 19.9093C367.28 19.9485 367.339 19.9768 367.403 19.9928C368.92 20.3683 370.28 21.2139 371.288 22.4088C372.296 23.6036 372.9 25.0865 373.014 26.6454C373.128 28.2042 372.746 29.7592 371.923 31.088C371.1 32.4168 369.878 33.4514 368.431 34.0437C366.985 34.636 365.388 34.7558 363.87 34.3859C362.351 34.016 360.988 33.1753 359.976 31.9842C358.964 30.7931 358.354 29.3124 358.235 27.754C358.115 26.1955 358.491 24.6391 359.309 23.3073L359.509 23.4463L360.915 24.426C360.928 24.4267 360.941 24.4245 360.953 24.4195C360.965 24.4145 360.976 24.4069 360.984 24.3972C360.993 24.3875 360.999 24.376 361.003 24.3635C361.007 24.3509 361.007 24.3378 361.005 24.325L360.675 20.4926C360.671 20.4702 360.658 20.4503 360.64 20.4371C360.621 20.4239 360.598 20.4186 360.576 20.4223L356.985 21.586C356.972 21.5887 356.96 21.5941 356.95 21.602C356.94 21.6099 356.931 21.6201 356.925 21.6317C356.919 21.6433 356.916 21.6561 356.916 21.6691C356.916 21.6822 356.918 21.6951 356.924 21.7069L358.405 22.683L358.488 22.739C357.556 24.2426 357.124 26.0024 357.253 27.7666C357.382 29.5309 358.066 31.2091 359.206 32.5613C360.347 33.9135 361.885 34.8703 363.603 35.2949C365.32 35.7195 367.127 35.5902 368.767 34.9253C370.406 34.2604 371.793 33.0942 372.729 31.5933C373.665 30.0925 374.103 28.334 373.979 26.5694C373.856 24.8048 373.177 23.1245 372.041 21.7689C370.904 20.4133 369.368 19.4519 367.652 19.0221H367.647Z" fill="white"/>
<rect x="144.645" y="10.4055" width="38.4917" height="38.49" rx="4.81146" fill="#6ABF6C"/>
<g clip-path="url(#clip3_98_2995)">
<path d="M173.08 41.9666C169.872 44.4558 165.808 45.5733 161.779 45.0745C157.749 44.5758 154.08 42.5015 151.576 39.3053C149.071 36.1091 147.935 32.0511 148.414 28.019C148.894 23.9868 150.95 20.3087 154.135 17.789L154.315 17.6085C157.548 15.1601 161.618 14.0883 165.638 14.6265C169.657 15.1648 173.301 17.2695 175.776 20.4823C178.251 23.6951 179.357 27.7556 178.852 31.7796C178.347 35.8037 176.272 39.4651 173.08 41.9666Z" fill="#6ABF6C"/>
<path d="M173.08 41.9666C169.872 44.4558 165.808 45.5733 161.779 45.0745C157.749 44.5758 154.08 42.5015 151.576 39.3053C149.071 36.1091 147.935 32.0511 148.414 28.019C148.894 23.9868 150.95 20.3087 154.135 17.789L154.315 17.6085C157.548 15.1601 161.618 14.0883 165.638 14.6265C169.657 15.1648 173.301 17.2695 175.776 20.4823C178.251 23.6951 179.357 27.7556 178.852 31.7796C178.347 35.8037 176.272 39.4651 173.08 41.9666Z" fill="black" fill-opacity="0.2"/>
<path d="M151.789 32.9451C151.226 34.4823 150.744 36.0482 150.346 37.6362L151.428 39.2601L152.511 40.3427C152.898 38.1609 153.565 36.0383 154.496 34.0276C153.499 33.9724 152.549 33.5921 151.789 32.9451Z" fill="#6ABF6C"/>
<path d="M153.593 24.6453C152.983 22.9525 152.559 21.1979 152.33 19.4128C151.572 20.1736 150.905 21.0215 150.346 21.9389C150.535 23.4198 150.899 24.8732 151.428 26.2692C151.984 25.5363 152.734 24.9738 153.593 24.6453Z" fill="#6ABF6C"/>
<path d="M155.217 34.208C157.908 34.208 160.089 32.027 160.089 29.3364C160.089 26.6459 157.908 24.4648 155.217 24.4648C152.527 24.4648 150.346 26.6459 150.346 29.3364C150.346 32.027 152.527 34.208 155.217 34.208Z" fill="url(#paint0_linear_98_2995)"/>
<path d="M162.434 38.358C162.46 37.4964 162.778 36.6693 163.336 36.0124C161.647 35.1366 160.122 33.977 158.826 32.5842C158.098 33.339 157.151 33.8443 156.119 34.0277C156.976 34.9173 157.879 35.7605 158.826 36.5537C159.919 37.4442 161.134 38.1733 162.434 38.7188V38.358Z" fill="#6ABF6C"/>
<path d="M173.802 38.7188C172.103 38.7172 170.41 38.5358 168.75 38.1775V38.3579C168.753 38.761 168.675 39.1606 168.52 39.5327C168.365 39.9048 168.136 40.2417 167.848 40.5231C169.868 40.9126 171.93 41.0339 173.982 40.8839C174.704 40.1622 175.426 39.2601 176.147 38.5384C175.376 38.6951 174.588 38.7557 173.802 38.7188Z" fill="white"/>
<path d="M164.78 22.841C168.09 21.2007 171.731 20.3368 175.425 20.315C174.658 19.3396 173.745 18.4877 172.719 17.7889C169.805 17.9987 166.943 18.6686 164.239 19.7737C163.62 20.0377 163.017 20.339 162.434 20.6758C161.07 19.049 159.862 17.297 158.826 15.4434C158.247 15.4836 157.689 15.6698 157.202 15.9846C158.297 17.9576 159.565 19.8294 160.991 21.578C159.529 22.4074 158.193 23.4401 157.021 24.6453C157.987 25.0523 158.806 25.7448 159.367 26.63C160.382 25.5769 161.535 24.6665 162.795 23.9236C164.803 26.0865 167.041 28.0226 169.471 29.6973C169.652 29.0047 170.028 28.3786 170.554 27.893C168.503 26.3584 166.573 24.6694 164.78 22.841Z" fill="#6ABF6C"/>
<path d="M172.9 33.8473C174.793 33.8473 176.328 32.3125 176.328 30.4191C176.328 28.5258 174.793 26.991 172.9 26.991C171.007 26.991 169.472 28.5258 169.472 30.4191C169.472 32.3125 171.007 33.8473 172.9 33.8473Z" fill="white"/>
<path d="M178.673 32.7647C178.493 32.5843 178.312 32.5843 178.132 32.4039C177.951 32.2234 177.771 32.2234 177.59 32.043H177.41L176.869 31.6821H176.688L176.147 31.3213C176.008 31.9815 175.62 32.563 175.064 32.9452C175.245 33.1256 175.425 33.1256 175.786 33.306H175.967C176.147 33.4864 176.327 33.4864 176.508 33.6669C177.049 34.0277 177.59 34.2082 178.132 34.569C178.312 34.0277 178.493 33.306 178.673 32.7647Z" fill="#6ABF6C"/>
<path d="M155.217 34.208C157.908 34.208 160.089 32.027 160.089 29.3364C160.089 26.6459 157.908 24.4648 155.217 24.4648C152.527 24.4648 150.346 26.6459 150.346 29.3364C150.346 32.027 152.527 34.208 155.217 34.208Z" fill="white"/>
<path d="M165.682 41.6057C167.476 41.6057 168.93 40.1516 168.93 38.358C168.93 36.5643 167.476 35.1102 165.682 35.1102C163.889 35.1102 162.435 36.5643 162.435 38.358C162.435 40.1516 163.889 41.6057 165.682 41.6057Z" fill="#F2F2F2"/>
<path d="M157.382 32.9451H179.214C179.575 32.9451 180.116 33.3059 180.116 33.6668V45.2143C180.101 45.4485 180.001 45.6692 179.835 45.8352C179.669 46.0012 179.448 46.1012 179.214 46.1164H157.382C157.168 46.0902 156.972 45.981 156.837 45.8124C156.702 45.6438 156.639 45.4291 156.66 45.2143V33.8472C156.639 33.6324 156.702 33.4177 156.837 33.2491C156.972 33.0805 157.168 32.9713 157.382 32.9451Z" fill="white"/>
<path d="M164.058 34.3885H157.562V37.2754H164.058V34.3885Z" fill="#6ABF6C"/>
<path d="M164.058 34.3885H157.562V37.2754H164.058V34.3885Z" fill="black" fill-opacity="0.2"/>
<path d="M171.636 34.3885H165.141V37.2754H171.636V34.3885Z" fill="#6ABF6C"/>
<path d="M171.636 34.3885H165.141V37.2754H171.636V34.3885Z" fill="black" fill-opacity="0.2"/>
<path d="M179.034 34.3885H172.538V37.2754H179.034V34.3885Z" fill="#6ABF6C"/>
<path d="M179.034 34.3885H172.538V37.2754H179.034V34.3885Z" fill="black" fill-opacity="0.2"/>
<path d="M160.269 38.1775H157.562V41.0644H160.269V38.1775Z" fill="#6ABF6C"/>
<path d="M160.269 38.1775H157.562V41.0644H160.269V38.1775Z" fill="black" fill-opacity="0.2"/>
<path d="M179.034 38.1775H176.327V41.0644H179.034V38.1775Z" fill="#6ABF6C"/>
<path d="M179.034 38.1775H176.327V41.0644H179.034V38.1775Z" fill="black" fill-opacity="0.2"/>
<path d="M167.847 38.1775H161.352V41.0644H167.847V38.1775Z" fill="#6ABF6C"/>
<path d="M167.847 38.1775H161.352V41.0644H167.847V38.1775Z" fill="black" fill-opacity="0.2"/>
<path d="M175.244 38.1775H168.749V41.0644H175.244V38.1775Z" fill="#6ABF6C"/>
<path d="M175.244 38.1775H168.749V41.0644H175.244V38.1775Z" fill="black" fill-opacity="0.2"/>
<path d="M164.058 41.9666H157.562V44.8534H164.058V41.9666Z" fill="#6ABF6C"/>
<path d="M164.058 41.9666H157.562V44.8534H164.058V41.9666Z" fill="black" fill-opacity="0.2"/>
<path d="M171.636 41.9666H165.141V44.8534H171.636V41.9666Z" fill="#6ABF6C"/>
<path d="M171.636 41.9666H165.141V44.8534H171.636V41.9666Z" fill="black" fill-opacity="0.2"/>
<path d="M179.034 41.9666H172.538V44.8534H179.034V41.9666Z" fill="#6ABF6C"/>
<path d="M179.034 41.9666H172.538V44.8534H179.034V41.9666Z" fill="black" fill-opacity="0.2"/>
</g>
<path d="M131.863 31L126.863 28.1132V33.8868L131.863 31ZM127.363 30.5H74.2764V31.5H127.363V30.5Z" fill="black"/>
<path d="M243.129 31L238.129 28.1132V33.8868L243.129 31ZM238.629 30.5H185.542V31.5H238.629V30.5Z" fill="black"/>
<path d="M344.169 31L339.169 28.1132V33.8868L344.169 31ZM339.669 30.5H286.582V31.5H339.669V30.5Z" fill="black"/>
<path d="M265 86.4033L267.887 81.4033L262.113 81.4033L265 86.4033ZM265.5 81.9033L265.5 52.7231L264.5 52.7231L264.5 81.9033L265.5 81.9033Z" fill="black"/>
<defs>
<linearGradient id="paint0_linear_98_2995" x1="155.257" y1="34.3831" x2="155.201" y2="27.2399" gradientUnits="userSpaceOnUse">
<stop stop-color="#CCCCCC"/>
<stop offset="0.123" stop-color="#D7D7D7"/>
<stop offset="0.421" stop-color="#EBEBEB"/>
<stop offset="0.716" stop-color="#F8F8F8"/>
<stop offset="1" stop-color="#FCFCFC"/>
</linearGradient>
<clipPath id="clip0_98_2995">
<rect width="29.94" height="29.94" fill="white" transform="translate(20.5146 2.66333)"/>
</clipPath>
<clipPath id="clip1_98_2995">
<rect width="29.94" height="29.94" fill="white" transform="translate(2.77246 27.0214)"/>
</clipPath>
<clipPath id="clip2_98_2995">
<rect width="29.94" height="29.94" fill="white" transform="translate(38.2568 27.0214)"/>
</clipPath>
<clipPath id="clip3_98_2995">
<rect width="32.4773" height="32.4773" fill="white" transform="translate(148 14)"/>
</clipPath>
</defs>
</svg>
