<svg width="347" height="174" viewBox="0 0 347 174" fill="none" xmlns="http://www.w3.org/2000/svg">
<path d="M214.014 64.6861C214.731 63.786 215.569 62.865 215.913 61.8184C219.776 49.9776 223.548 38.1019 227.369 26.2472C227.904 24.5866 228.818 23.0515 225.624 23.7214C214.316 26.1007 202.973 28.2916 191.659 30.6291C189.984 30.9779 187.662 31.3129 187.141 32.834C186.283 35.3668 184.228 36.6157 182.631 38.3113C177.903 43.3281 174.075 49.0147 169.965 54.492C158.313 70.0239 146.773 85.6325 134.959 101.039C128.676 109.23 122.709 117.771 114.012 124.225C115.574 124.225 116.847 124.434 118.022 124.19C126.347 122.46 134.868 121.797 143.093 119.543C144.648 119.117 146.105 119.703 145.943 121.566C145.753 123.785 145.422 126.074 144.669 128.153C143.037 132.675 141.039 137.056 139.09 141.459C136.395 147.537 134.403 153.914 131.842 160.898C139.005 157.207 144.684 152.651 149.694 147.313C164.428 131.635 176.65 113.982 189.478 96.8243C197.548 86.0232 205.633 75.25 214.021 64.6931L214.014 64.6861Z" fill="#F1668F"/>
<path d="M229.402 19.1581C231.316 18.7883 233.223 18.9697 232.477 21.663C230.774 27.8521 228.966 34.0132 227.045 40.1394C225.539 44.9329 223.808 49.6567 221.894 55.2177C223.083 54.3664 223.576 54.0873 223.977 53.7106C229.289 48.7845 235.228 45.1492 242.37 43.1397C251.496 40.579 260.383 40.7953 269.299 43.5863C272.768 44.6747 275.899 46.5587 279.143 48.0937C286.735 51.6801 295.348 52.4058 303.468 54.5828C308.428 55.9085 313.614 56.2783 318.519 57.9598C320.151 58.518 320.439 57.7505 319.954 56.1178C316.576 44.8003 313.375 33.4271 309.92 22.1375C309.449 20.6095 309.519 18.6348 307.844 17.5812C302.574 14.253 297.557 10.3386 291.703 8.18258C282.583 4.82642 273.401 1.80517 263.494 0.842282C253.227 -0.155496 243.341 0.702732 233.448 3.04716C224.315 5.21018 215.843 9.06174 207.962 13.9739C202.734 17.2324 197.928 21.2304 193.017 26.1217C199.434 25.5844 204.922 24.0633 210.474 22.9399C216.779 21.6631 223.083 20.3722 229.402 19.1581Z" fill="#BA96FF"/>
<path d="M23.6148 53.5291C22.6015 57.1923 23.467 57.9389 27.2104 57.1923C37.8284 55.0711 48.2353 51.9383 59.001 50.48C59.775 50.3753 60.5631 49.9846 61.2456 49.5659C71.4203 43.3699 82.2002 40.0277 94.3099 42.1558C98.8695 42.9583 103.457 44.0258 107.489 45.9865C111.669 48.0169 115.743 50.6544 119.184 53.9896C119.528 54.3246 119.789 55.4968 120.725 54.6874C121.259 54.2269 121.062 53.7315 120.809 53.1454C118.276 47.2075 116.756 40.9348 114.709 34.8435C113.203 30.3709 111.62 25.9332 110.705 21.7816C110.388 18.8092 112.049 19.0325 113.611 19.3535C124.229 21.5584 134.84 23.8121 145.458 26.0309C146.358 26.2193 147.414 26.5193 148.075 25.6402C148.976 24.447 147.569 24.0423 147.048 23.4911C143.523 19.7582 139.259 16.9323 134.973 14.1622C121.738 5.59391 107.165 1.19811 91.4249 0.151487C81.7639 -0.49044 72.2717 0.967851 63.1525 3.38903C54.2655 5.74742 45.8429 9.85715 38.1732 15.181C35.239 17.2184 33.114 19.3953 32.2766 23.1353C31.2634 27.6776 29.7716 32.1362 28.6177 36.6785C27.1752 42.3512 25.1839 47.8844 23.6218 53.5291H23.6148Z" fill="#BA96FF"/>
<path d="M340.473 67.1841C336.335 51.3871 329.151 37.2298 316.985 25.8984C316.394 25.3471 315.979 24.161 314.712 25.0262C316.014 28.2707 317.182 31.6408 317.956 34.9133C319.56 41.6814 321.833 48.2332 323.522 54.9456C324.078 57.1574 326.259 59.6135 324.62 61.6091C322.713 63.9326 319.553 62.0765 317.442 61.4904C307.887 58.846 298.057 57.4226 287.439 54.3316C288.966 56.1038 289.874 57.1156 290.732 58.1622C296.375 65.0699 300.154 72.8009 300.576 81.7949C301.005 90.9702 299.711 99.713 295.925 108.4C290.915 119.92 288.502 132.423 283.97 144.18C283.485 145.436 283.78 146.316 285.356 146.009C289.606 145.185 293.807 144.027 298.092 143.49C305.635 142.555 312.629 139.115 320.355 139.038C324.148 139.003 326.716 136.987 328.764 133.672C333.478 126.039 336.976 117.938 339.734 109.44C342.098 102.155 342.605 94.438 343.027 87.0838C343.393 80.6994 342.183 73.6871 340.48 67.1701L340.473 67.1841Z" fill="#F5DC4E"/>
<path d="M58.4169 145.953C56.6648 141.829 55.8627 137.643 54.6313 133.589C53.1607 128.76 51.1553 124.099 50.0576 119.124C49.0162 114.428 47.5949 109.733 45.6598 105.33C39.7 91.7517 40.4247 78.5433 46.9686 65.4257C48.8474 61.6648 51.7041 58.5808 54.3217 55.1967C53.7588 55.0223 53.5195 54.8548 53.3225 54.8967C42.8523 57.2202 32.375 59.5228 21.9189 61.923C18.647 62.6696 16.8949 61.6509 17.9926 59.1111C19.7446 55.0502 20.4835 50.7311 21.8556 46.5865C24.4028 38.8764 26.5981 31.0477 29.0327 22.9608C28.2095 23.2469 27.6325 23.2608 27.3862 23.5539C22.6437 29.1429 17.8378 34.6132 13.6863 40.7394C5.39734 52.9639 1.56248 66.5281 0.338141 80.811C-1.41393 101.297 4.22225 120.01 16.0013 136.91C16.726 137.95 17.6759 138.34 18.9566 138.438C26.4926 139.024 33.6346 141.578 41.0158 142.897C46.7435 143.922 52.3093 145.883 58.4099 145.953H58.4169Z" fill="#F5DC4E"/>
<path d="M317.85 143.322C310.849 144.571 303.806 145.66 296.889 147.285C292.111 148.409 287.298 149.316 282.478 150.174C280.775 150.481 278.073 150.488 279.066 148.018C280.388 144.725 281.057 141.285 282.309 137.991C284.371 132.57 286.067 127.009 287.861 121.49C288.023 121.001 288.03 120.178 287.727 119.878C287.038 119.187 286.44 119.899 286.025 120.408C283.414 123.583 279.621 125.202 276.251 127.176C267.807 132.13 258.21 133.4 248.802 131.914C238.395 130.267 228.009 128.425 217.567 126.96C212.304 126.22 207.111 124.588 201.503 125.264C202.819 131.872 206.597 137.168 208.272 143.336C209.933 149.455 212.888 155.219 214.907 161.261C215.646 163.473 216.8 164.61 218.806 165.524C233.54 172.258 248.802 174.972 265.042 172.725C271.797 171.79 278.482 170.862 284.828 168.406C297.853 163.361 309.681 156.482 318.885 145.771C319.42 145.15 320.792 144.753 320.13 143.622C319.687 142.862 318.582 143.183 317.857 143.315L317.85 143.322Z" fill="#F1668F"/>
<path d="M139.794 124.497C132.462 125.481 125.158 127.058 117.861 127.693C109.615 128.411 101.649 130.288 93.5856 131.642C78.8935 134.119 66.7767 129.821 56.2924 119.843C55.7647 119.341 55.2933 118.789 54.5193 119.292C53.8156 119.745 53.7945 120.352 54.1463 121.106C56.4895 126.144 57.559 131.593 59.3181 136.826C60.4862 140.301 62.5126 143.448 63.2233 147.083C63.737 149.714 62.7237 150.795 60.0499 150.251C58.7059 149.979 57.4394 149.33 56.0954 149.072C45.8363 147.111 35.5701 145.192 25.2969 143.322C24.3822 143.155 23.2704 142.617 22.3135 143.769C23.4323 145.353 24.3189 147.16 25.698 148.465C30.2576 152.784 34.9931 156.998 40.5801 159.963C45.6533 162.657 50.4944 165.699 56.0251 167.708C62.7167 170.144 69.6898 171.393 76.4941 172.886C82.3976 174.184 88.8219 174.365 95.211 173.339C103.704 171.972 112.155 170.688 120.148 167.464C123.87 165.964 127.67 164.289 128.613 159.67C128.887 158.324 129.267 156.984 129.76 155.7C133.665 145.422 137.613 135.166 141.701 124.497C140.512 124.497 140.16 124.455 139.815 124.497H139.794Z" fill="#6ABF6C"/>
<path d="M117.065 23.6097C115.327 23.2329 114.933 23.6097 115.004 25.3192C115.644 27.3357 116.313 29.5266 117.023 31.7105C119.338 38.7927 121.787 45.826 123.961 52.9499C125.411 57.6946 126.607 62.4672 129.822 66.4723C133.714 71.3286 137.527 76.2477 141.222 81.2575C142.741 83.3229 144.057 83.0647 145.359 81.3482C149.799 75.5011 153.965 69.4377 158.609 63.7511C162.078 59.5088 164.618 54.5408 168.84 50.8986C169.712 50.145 170.022 49.5589 168.959 48.3867C166.102 45.2398 163.611 41.772 160.818 38.5694C158.573 35.9947 156.927 32.4222 153.732 31.243C149.426 29.6522 144.712 29.1358 140.159 28.2288C132.461 26.6868 124.735 25.2843 117.065 23.6167V23.6097Z" fill="#6ABF6C"/>
<path d="M197.014 123.499C196.064 121.064 197.147 120.15 198.899 120.541C203.839 121.643 208.891 121.901 213.852 122.836C218.594 123.729 223.45 125.097 228.748 124.281C226.904 122.613 225.237 121.238 223.731 119.703C216.596 112.426 210.742 104.095 204.289 96.2591C202.643 94.2566 201.721 90.5376 199.315 90.6074C197.042 90.6771 195.951 94.2915 194.354 96.3359C187.873 104.646 181.604 113.117 175.208 121.497C174.04 123.032 173.484 124.483 174.842 126.137C182.125 135.005 189.168 144.09 197.682 151.89C201.496 155.379 205.535 158.526 210.179 160.857C210.728 159.984 210.531 159.412 210.263 158.707C205.837 146.971 201.559 135.186 197.007 123.499H197.014Z" fill="#6ABF6C"/>
<path d="M65.9678 95.4922V77.8826H71.8545C73.9005 77.8826 75.586 78.2516 76.9109 78.9895C78.2526 79.7107 79.2421 80.7337 79.8794 82.0586C80.5335 83.3668 80.8605 84.9097 80.8605 86.6874C80.8605 88.4652 80.5335 90.0165 79.8794 91.3414C79.2421 92.6495 78.261 93.6726 76.9361 94.4105C75.6112 95.1317 73.9173 95.4922 71.8545 95.4922H65.9678ZM69.3639 92.5741H71.6784C73.1207 92.5741 74.2527 92.3393 75.0745 91.8697C75.9131 91.4001 76.5084 90.7293 76.8606 89.8572C77.2128 88.9683 77.3889 87.9117 77.3889 86.6874C77.3889 85.4464 77.2128 84.3898 76.8606 83.5177C76.5084 82.6288 75.9131 81.9496 75.0745 81.48C74.2527 81.0104 73.1207 80.7756 71.6784 80.7756H69.3639V92.5741ZM89.7668 95.7941C88.4922 95.7941 87.3601 95.5258 86.3706 94.9891C85.3979 94.4357 84.6348 93.6726 84.0814 92.6999C83.5447 91.7104 83.2763 90.5699 83.2763 89.2786C83.2763 87.9536 83.5447 86.7881 84.0814 85.7818C84.6348 84.7588 85.3979 83.9621 86.3706 83.3919C87.3433 82.8049 88.4754 82.5114 89.7668 82.5114C91.0246 82.5114 92.1231 82.7882 93.0623 83.3416C94.0015 83.895 94.731 84.6414 95.2509 85.5805C95.7708 86.5197 96.0308 87.5847 96.0308 88.7754C96.0308 88.9431 96.0308 89.136 96.0308 89.354C96.0308 89.5553 96.014 89.7649 95.9804 89.9829H85.6914V87.9201H92.6095C92.5591 87.0983 92.2656 86.4526 91.729 85.983C91.2091 85.5135 90.555 85.2787 89.7668 85.2787C89.1965 85.2787 88.6682 85.4128 88.1819 85.6812C87.6955 85.9327 87.3098 86.3269 87.0247 86.8635C86.7563 87.4002 86.6222 88.0794 86.6222 88.9012V89.6308C86.6222 90.3184 86.748 90.9221 86.9995 91.442C87.2679 91.9452 87.6368 92.3393 88.1064 92.6244C88.576 92.8927 89.1211 93.0269 89.7416 93.0269C90.3621 93.0269 90.8736 92.8927 91.2762 92.6244C91.6954 92.3561 92.0057 92.0122 92.2069 91.593H95.6786C95.4438 92.3812 95.0496 93.094 94.4962 93.7313C93.9428 94.3686 93.2635 94.8717 92.4585 95.2407C91.6535 95.6096 90.7562 95.7941 89.7668 95.7941ZM101.717 95.4922L97.063 82.8133H100.635L103.78 92.2974L106.924 82.8133H110.471L105.843 95.4922H101.717Z" fill="black"/>
<path d="M238.668 95.7942C236.957 95.7942 235.448 95.4085 234.14 94.637C232.832 93.8655 231.809 92.8006 231.071 91.4421C230.333 90.0669 229.964 88.482 229.964 86.6875C229.964 84.893 230.333 83.3165 231.071 81.958C231.809 80.5828 232.832 79.5095 234.14 78.738C235.448 77.9665 236.957 77.5808 238.668 77.5808C240.395 77.5808 241.913 77.9665 243.221 78.738C244.529 79.5095 245.544 80.5828 246.265 81.958C247.003 83.3165 247.372 84.893 247.372 86.6875C247.372 88.482 247.003 90.0669 246.265 91.4421C245.544 92.8006 244.529 93.8655 243.221 94.637C241.913 95.4085 240.395 95.7942 238.668 95.7942ZM238.668 92.7502C239.741 92.7502 240.664 92.5071 241.435 92.0207C242.223 91.5176 242.836 90.8132 243.272 89.9075C243.708 89.0019 243.926 87.9286 243.926 86.6875C243.926 85.4297 243.708 84.3563 243.272 83.4674C242.836 82.5618 242.223 81.8658 241.435 81.3794C240.664 80.8931 239.741 80.6499 238.668 80.6499C237.611 80.6499 236.689 80.8931 235.901 81.3794C235.112 81.8658 234.5 82.5618 234.064 83.4674C233.628 84.3563 233.41 85.4297 233.41 86.6875C233.41 87.9286 233.628 89.0019 234.064 89.9075C234.5 90.8132 235.112 91.5176 235.901 92.0207C236.689 92.5071 237.611 92.7502 238.668 92.7502ZM250.194 101.027V82.8134H253.213L253.59 84.5743C253.859 84.2054 254.177 83.8699 254.546 83.5681C254.915 83.2494 255.351 82.9979 255.854 82.8134C256.374 82.6121 256.978 82.5115 257.666 82.5115C258.856 82.5115 259.905 82.805 260.81 83.392C261.716 83.979 262.429 84.7756 262.949 85.7819C263.485 86.7713 263.754 87.9034 263.754 89.178C263.754 90.4526 263.485 91.593 262.949 92.5993C262.412 93.5888 261.691 94.3686 260.785 94.9389C259.879 95.5091 258.848 95.7942 257.691 95.7942C256.752 95.7942 255.938 95.6265 255.251 95.2911C254.58 94.9389 254.026 94.4609 253.59 93.8571V101.027H250.194ZM256.886 92.8257C257.557 92.8257 258.144 92.6748 258.647 92.3729C259.167 92.071 259.569 91.6433 259.854 91.0899C260.139 90.5365 260.282 89.8992 260.282 89.178C260.282 88.4568 260.139 87.8195 259.854 87.2661C259.569 86.6959 259.167 86.2598 258.647 85.9579C258.144 85.6393 257.557 85.48 256.886 85.48C256.232 85.48 255.645 85.6393 255.125 85.9579C254.622 86.2598 254.219 86.6875 253.917 87.2409C253.632 87.7944 253.49 88.4317 253.49 89.1528C253.49 89.874 253.632 90.5197 253.917 91.0899C254.219 91.6433 254.622 92.071 255.125 92.3729C255.645 92.6748 256.232 92.8257 256.886 92.8257ZM271.861 95.7942C270.704 95.7942 269.697 95.6097 268.842 95.2407C267.987 94.8718 267.316 94.3603 266.83 93.7062C266.343 93.0521 266.067 92.3142 265.999 91.4924H269.37C269.454 91.8111 269.597 92.1046 269.798 92.3729C269.999 92.6245 270.268 92.8257 270.603 92.9766C270.939 93.1276 271.341 93.2031 271.811 93.2031C272.263 93.2031 272.632 93.1444 272.917 93.027C273.203 92.8928 273.412 92.7167 273.546 92.4987C273.697 92.2806 273.773 92.0542 273.773 91.8194C273.773 91.4672 273.672 91.1989 273.471 91.0144C273.27 90.8132 272.976 90.6539 272.59 90.5365C272.205 90.4191 271.735 90.3017 271.182 90.1843C270.578 90.0669 269.983 89.9243 269.396 89.7566C268.825 89.5721 268.314 89.3457 267.861 89.0774C267.408 88.809 267.048 88.4652 266.779 88.0459C266.511 87.6267 266.377 87.1068 266.377 86.4862C266.377 85.7315 266.578 85.0607 266.981 84.4737C267.383 83.8699 267.97 83.392 268.741 83.0398C269.513 82.6876 270.444 82.5115 271.534 82.5115C273.06 82.5115 274.268 82.8553 275.156 83.5429C276.045 84.2305 276.574 85.1781 276.741 86.3856H273.546C273.446 85.9999 273.219 85.698 272.867 85.48C272.532 85.2452 272.079 85.1278 271.509 85.1278C270.905 85.1278 270.444 85.2368 270.125 85.4548C269.806 85.6728 269.647 85.9579 269.647 86.3101C269.647 86.5449 269.748 86.7546 269.949 86.9391C270.167 87.1235 270.469 87.2829 270.855 87.417C271.24 87.5344 271.71 87.6518 272.263 87.7692C273.236 87.9705 274.091 88.2053 274.829 88.4736C275.567 88.7252 276.146 89.0941 276.565 89.5805C276.984 90.0501 277.194 90.7377 277.194 91.6433C277.194 92.4484 276.976 93.1695 276.54 93.8068C276.104 94.4273 275.483 94.9137 274.678 95.2659C273.89 95.6181 272.951 95.7942 271.861 95.7942Z" fill="black"/>
<path d="M63.4286 27.8806C62.5565 27.8806 61.8018 27.692 61.1645 27.3146C60.5356 26.9289 60.0492 26.3964 59.7054 25.7172C59.37 25.0296 59.2023 24.2371 59.2023 23.3399C59.2023 22.4342 59.37 21.6418 59.7054 20.9626C60.0492 20.275 60.5356 19.7383 61.1645 19.3525C61.8018 18.9668 62.5565 18.7739 63.4286 18.7739C64.4768 18.7739 65.3321 19.0339 65.9946 19.5538C66.657 20.0653 67.0763 20.7907 67.2524 21.7299H65.592C65.4747 21.2351 65.2357 20.8452 64.8751 20.5601C64.5145 20.275 64.0281 20.1324 63.416 20.1324C62.8626 20.1324 62.3846 20.2624 61.9821 20.5223C61.588 20.7739 61.2819 21.1429 61.0639 21.6292C60.8542 22.1072 60.7494 22.6774 60.7494 23.3399C60.7494 24.0023 60.8542 24.5725 61.0639 25.0505C61.2819 25.5201 61.588 25.8849 61.9821 26.1448C62.3846 26.3964 62.8626 26.5222 63.416 26.5222C64.0281 26.5222 64.5145 26.3922 64.8751 26.1323C65.2357 25.8639 65.4747 25.495 65.592 25.0254H67.2524C67.0847 25.9142 66.6654 26.6144 65.9946 27.1259C65.3321 27.6291 64.4768 27.8806 63.4286 27.8806ZM71.6349 27.8806C71.0312 27.8806 70.4861 27.7423 69.9998 27.4656C69.5218 27.1805 69.1444 26.7905 68.8677 26.2958C68.5994 25.7926 68.4652 25.2182 68.4652 24.5725C68.4652 23.9101 68.6036 23.3315 68.8803 22.8367C69.157 22.3336 69.5344 21.9437 70.0123 21.667C70.4987 21.3819 71.0438 21.2393 71.6475 21.2393C72.2513 21.2393 72.7921 21.3819 73.2701 21.667C73.7565 21.9437 74.1338 22.3294 74.4022 22.8242C74.6789 23.3189 74.8173 23.8975 74.8173 24.56C74.8173 25.2224 74.6789 25.801 74.4022 26.2958C74.1255 26.7905 73.7439 27.1805 73.2575 27.4656C72.7796 27.7423 72.2387 27.8806 71.6349 27.8806ZM71.6349 26.5851C71.9368 26.5851 72.2094 26.5096 72.4525 26.3587C72.7041 26.2077 72.9054 25.9813 73.0563 25.6794C73.2072 25.3776 73.2827 25.0044 73.2827 24.56C73.2827 24.1155 73.2072 23.7466 73.0563 23.4531C72.9137 23.1512 72.7167 22.9248 72.4651 22.7739C72.2219 22.6229 71.9494 22.5474 71.6475 22.5474C71.354 22.5474 71.0815 22.6229 70.8299 22.7739C70.5784 22.9248 70.3771 23.1512 70.2262 23.4531C70.0752 23.7466 69.9998 24.1155 69.9998 24.56C69.9998 25.0044 70.0752 25.3776 70.2262 25.6794C70.3771 25.9813 70.5742 26.2077 70.8174 26.3587C71.0689 26.5096 71.3415 26.5851 71.6349 26.5851ZM79.1124 27.8806C78.5254 27.8806 78.0013 27.7381 77.5401 27.453C77.0789 27.1679 76.7183 26.7738 76.4583 26.2706C76.2068 25.7675 76.081 25.1973 76.081 24.56C76.081 23.9227 76.211 23.3566 76.4709 22.8619C76.7309 22.3588 77.0914 21.9646 77.5526 21.6795C78.0222 21.386 78.5505 21.2393 79.1375 21.2393C79.6155 21.2393 80.0306 21.3315 80.3828 21.516C80.7433 21.6921 81.0285 21.9437 81.2381 22.2707V18.6733H82.7475V27.7297H81.389L81.2381 26.8115C81.1039 26.996 80.9404 27.1721 80.7475 27.3398C80.5547 27.4991 80.3241 27.6291 80.0557 27.7297C79.7874 27.8303 79.4729 27.8806 79.1124 27.8806ZM79.4268 26.5725C79.7874 26.5725 80.106 26.4886 80.3828 26.3209C80.6595 26.1448 80.8733 25.9059 81.0243 25.604C81.1752 25.3021 81.2507 24.9541 81.2507 24.56C81.2507 24.1659 81.1752 23.8179 81.0243 23.516C80.8733 23.2141 80.6595 22.9793 80.3828 22.8116C80.106 22.6439 79.7874 22.56 79.4268 22.56C79.083 22.56 78.7727 22.6439 78.496 22.8116C78.2193 22.9793 78.0013 23.2141 77.8419 23.516C77.691 23.8179 77.6155 24.1659 77.6155 24.56C77.6155 24.9541 77.691 25.3021 77.8419 25.604C78.0013 25.9059 78.2193 26.1448 78.496 26.3209C78.7727 26.4886 79.083 26.5725 79.4268 26.5725ZM87.395 27.8806C86.7661 27.8806 86.2126 27.7465 85.7346 27.4781C85.2567 27.2014 84.8835 26.8157 84.6152 26.3209C84.3468 25.8262 84.2127 25.256 84.2127 24.6103C84.2127 23.9394 84.3426 23.3525 84.6026 22.8493C84.8709 22.3462 85.2441 21.9521 85.7221 21.667C86.2084 21.3819 86.7703 21.2393 87.4076 21.2393C88.0281 21.2393 88.569 21.3777 89.0302 21.6544C89.4914 21.9311 89.8478 22.3043 90.0993 22.7739C90.3509 23.2351 90.4767 23.755 90.4767 24.3336C90.4767 24.4174 90.4767 24.5097 90.4767 24.6103C90.4767 24.7109 90.4683 24.8157 90.4515 24.9247H85.2944V23.9562H88.9547C88.9379 23.495 88.7828 23.1344 88.4893 22.8745C88.1958 22.6061 87.831 22.472 87.395 22.472C87.0847 22.472 86.7996 22.5432 86.5397 22.6858C86.2797 22.8284 86.0743 23.0422 85.9233 23.3273C85.7724 23.604 85.6969 23.9562 85.6969 24.3839V24.7486C85.6969 25.1428 85.7682 25.4824 85.9107 25.7675C86.0617 26.0526 86.2629 26.2706 86.5145 26.4216C86.7745 26.5641 87.0638 26.6354 87.3824 26.6354C87.7346 26.6354 88.0239 26.5599 88.2503 26.409C88.4851 26.258 88.657 26.0568 88.766 25.8052H90.3006C90.1832 26.1993 89.9903 26.5557 89.722 26.8744C89.4536 27.1846 89.1224 27.432 88.7283 27.6165C88.3342 27.7926 87.8897 27.8806 87.395 27.8806Z" fill="black"/>
<path d="M7.60267 100.326V91.5214H11.0491C11.6697 91.5214 12.1854 91.6178 12.5963 91.8107C13.0155 92.0035 13.33 92.2719 13.5396 92.6157C13.7493 92.9511 13.8541 93.341 13.8541 93.7854C13.8541 94.2299 13.7577 94.603 13.5648 94.9049C13.3719 95.2068 13.1162 95.4374 12.7975 95.5967C12.4873 95.7561 12.1476 95.8525 11.7787 95.886L11.9673 95.7477C12.3615 95.7561 12.7137 95.8609 13.0239 96.0621C13.3426 96.2634 13.5941 96.5275 13.7786 96.8546C13.9631 97.1732 14.0554 97.5296 14.0554 97.9237C14.0554 98.3849 13.9421 98.8 13.7157 99.169C13.4977 99.5295 13.1749 99.8147 12.7472 100.024C12.3195 100.226 11.7954 100.326 11.1749 100.326H7.60267ZM9.11207 99.0935H10.9485C11.4433 99.0935 11.829 98.9761 12.1057 98.7413C12.3824 98.5065 12.5208 98.1795 12.5208 97.7602C12.5208 97.3409 12.3782 97.0097 12.0931 96.7665C11.808 96.5149 11.4181 96.3892 10.9233 96.3892H9.11207V99.0935ZM9.11207 95.2445H10.8353C11.3217 95.2445 11.6906 95.1355 11.9422 94.9175C12.1938 94.6911 12.3195 94.3808 12.3195 93.9867C12.3195 93.601 12.1938 93.2991 11.9422 93.0811C11.6906 92.8547 11.3175 92.7414 10.8227 92.7414H9.11207V95.2445ZM17.8028 100.477C17.2913 100.477 16.851 100.376 16.4821 100.175C16.1215 99.9656 15.8448 99.6553 15.6519 99.2444C15.459 98.8252 15.3626 98.3094 15.3626 97.6973V93.9867H16.872V97.5464C16.872 98.0914 16.9852 98.5065 17.2116 98.7916C17.4464 99.0683 17.7986 99.2067 18.2682 99.2067C18.5701 99.2067 18.8384 99.1354 19.0732 98.9929C19.3164 98.8503 19.5051 98.6449 19.6392 98.3765C19.7818 98.0998 19.8531 97.7644 19.8531 97.3703V93.9867H21.3625V100.326H20.0292L19.916 99.2696C19.7231 99.6386 19.4422 99.9321 19.0732 100.15C18.7126 100.368 18.2892 100.477 17.8028 100.477ZM23.1048 100.326V93.9867H24.6142V100.326H23.1048ZM23.8595 92.9804C23.5827 92.9804 23.3521 92.8966 23.1676 92.7289C22.9916 92.5528 22.9035 92.3389 22.9035 92.0874C22.9035 91.8274 22.9916 91.6178 23.1676 91.4585C23.3521 91.2908 23.5827 91.2069 23.8595 91.2069C24.1362 91.2069 24.3626 91.2908 24.5387 91.4585C24.7232 91.6178 24.8154 91.8274 24.8154 92.0874C24.8154 92.3389 24.7232 92.5528 24.5387 92.7289C24.3626 92.8966 24.1362 92.9804 23.8595 92.9804ZM26.3584 100.326V91.2698H27.8678V100.326H26.3584ZM32.3697 100.477C31.7827 100.477 31.2586 100.335 30.7974 100.049C30.3362 99.7643 29.9756 99.3702 29.7156 98.8671C29.4641 98.364 29.3383 97.7937 29.3383 97.1564C29.3383 96.5191 29.4683 95.9531 29.7282 95.4584C29.9882 94.9552 30.3488 94.5611 30.81 94.276C31.2795 93.9825 31.8078 93.8358 32.3948 93.8358C32.8728 93.8358 33.2879 93.928 33.6401 94.1125C34.0007 94.2886 34.2858 94.5401 34.4954 94.8672V91.2698H36.0048V100.326H34.6463L34.4954 99.408C34.3612 99.5924 34.1977 99.7685 34.0048 99.9362C33.812 100.096 33.5814 100.226 33.313 100.326C33.0447 100.427 32.7302 100.477 32.3697 100.477ZM32.6841 99.169C33.0447 99.169 33.3634 99.0851 33.6401 98.9174C33.9168 98.7413 34.1306 98.5023 34.2816 98.2004C34.4325 97.8986 34.508 97.5506 34.508 97.1564C34.508 96.7623 34.4325 96.4143 34.2816 96.1124C34.1306 95.8106 33.9168 95.5758 33.6401 95.4081C33.3634 95.2403 33.0447 95.1565 32.6841 95.1565C32.3403 95.1565 32.0301 95.2403 31.7533 95.4081C31.4766 95.5758 31.2586 95.8106 31.0993 96.1124C30.9483 96.4143 30.8728 96.7623 30.8728 97.1564C30.8728 97.5506 30.9483 97.8986 31.0993 98.2004C31.2586 98.5023 31.4766 98.7413 31.7533 98.9174C32.0301 99.0851 32.3403 99.169 32.6841 99.169Z" fill="black"/>
<path d="M81.0079 156.089V148.504H78.4168V147.284H85.0959V148.504H82.5048V156.089H81.0079ZM88.1282 156.24C87.4992 156.24 86.9458 156.105 86.4678 155.837C85.9898 155.56 85.6167 155.175 85.3483 154.68C85.08 154.185 84.9458 153.615 84.9458 152.969C84.9458 152.298 85.0758 151.711 85.3358 151.208C85.6041 150.705 85.9773 150.311 86.4552 150.026C86.9416 149.741 87.5034 149.598 88.1407 149.598C88.7613 149.598 89.3021 149.737 89.7633 150.013C90.2245 150.29 90.5809 150.663 90.8325 151.133C91.0841 151.594 91.2098 152.114 91.2098 152.693C91.2098 152.776 91.2098 152.869 91.2098 152.969C91.2098 153.07 91.2015 153.175 91.1847 153.284H86.0276V152.315H89.6879C89.6711 151.854 89.516 151.493 89.2225 151.233C88.929 150.965 88.5642 150.831 88.1282 150.831C87.8179 150.831 87.5328 150.902 87.2728 151.045C87.0129 151.187 86.8074 151.401 86.6565 151.686C86.5056 151.963 86.4301 152.315 86.4301 152.743V153.108C86.4301 153.502 86.5014 153.841 86.6439 154.126C86.7949 154.412 86.9961 154.63 87.2477 154.781C87.5076 154.923 87.7969 154.994 88.1156 154.994C88.4678 154.994 88.7571 154.919 88.9835 154.768C89.2183 154.617 89.3902 154.416 89.4992 154.164H91.0337C90.9163 154.558 90.7235 154.915 90.4551 155.233C90.1868 155.544 89.8556 155.791 89.4615 155.975C89.0673 156.152 88.6229 156.24 88.1282 156.24ZM95.1317 156.24C94.5699 156.24 94.0793 156.152 93.6601 155.975C93.2492 155.791 92.9221 155.539 92.6789 155.221C92.4442 154.894 92.3058 154.521 92.2639 154.101H93.7733C93.8152 154.277 93.8907 154.441 93.9997 154.592C94.1087 154.734 94.2554 154.848 94.4399 154.931C94.6328 155.015 94.8592 155.057 95.1191 155.057C95.3707 155.057 95.5762 155.024 95.7355 154.957C95.8948 154.881 96.0122 154.785 96.0877 154.667C96.1631 154.55 96.2009 154.424 96.2009 154.29C96.2009 154.089 96.1464 153.934 96.0374 153.825C95.9283 153.716 95.769 153.632 95.5594 153.573C95.3581 153.506 95.1149 153.443 94.8298 153.384C94.528 153.326 94.2345 153.254 93.9494 153.171C93.6726 153.078 93.4211 152.965 93.1947 152.831C92.9766 152.697 92.8005 152.525 92.6664 152.315C92.5406 152.106 92.4777 151.85 92.4777 151.548C92.4777 151.179 92.5741 150.848 92.767 150.554C92.9682 150.261 93.2534 150.03 93.6223 149.862C93.9997 149.686 94.4483 149.598 94.9682 149.598C95.7061 149.598 96.2931 149.77 96.7292 150.114C97.1736 150.449 97.4336 150.923 97.509 151.535H96.0751C96.0332 151.301 95.9158 151.12 95.7229 150.994C95.53 150.86 95.2743 150.793 94.9556 150.793C94.6286 150.793 94.377 150.856 94.2009 150.982C94.0332 151.099 93.9494 151.259 93.9494 151.46C93.9494 151.586 93.9997 151.703 94.1003 151.812C94.2093 151.913 94.3644 152.001 94.5657 152.076C94.7669 152.143 95.0143 152.21 95.3078 152.277C95.7774 152.37 96.1925 152.479 96.5531 152.604C96.9136 152.73 97.1988 152.915 97.4084 153.158C97.618 153.401 97.7229 153.745 97.7229 154.189C97.7312 154.592 97.6264 154.948 97.4084 155.259C97.1988 155.569 96.9011 155.812 96.5153 155.988C96.1296 156.156 95.6684 156.24 95.1317 156.24ZM101.721 156.089C101.293 156.089 100.92 156.022 100.602 155.887C100.291 155.753 100.048 155.531 99.872 155.221C99.6959 154.911 99.6078 154.491 99.6078 153.963V151.02H98.5261V149.749H99.6078L99.7839 148.076H101.117V149.749H102.84V151.02H101.117V153.963C101.117 154.282 101.184 154.504 101.318 154.63C101.461 154.747 101.696 154.806 102.023 154.806H102.803V156.089H101.721Z" fill="black"/>
<path d="M152.079 86.6486V77.8437H155.236C155.932 77.8437 156.506 77.9653 156.959 78.2085C157.42 78.4433 157.76 78.762 157.978 79.1645C158.204 79.5586 158.318 80.0072 158.318 80.5103C158.318 80.9799 158.209 81.416 157.991 81.8185C157.773 82.221 157.433 82.5438 156.972 82.787C156.511 83.0302 155.919 83.1518 155.198 83.1518H153.588V86.6486H152.079ZM156.67 86.6486L154.821 82.7619H156.456L158.393 86.6486H156.67ZM153.588 82.0323H155.135C155.697 82.0323 156.108 81.8981 156.368 81.6298C156.636 81.3531 156.771 80.9925 156.771 80.5481C156.771 80.112 156.641 79.764 156.381 79.5041C156.121 79.2357 155.706 79.1016 155.135 79.1016H153.588V82.0323ZM162.416 86.7995C161.787 86.7995 161.234 86.6653 160.756 86.397C160.278 86.1203 159.905 85.7345 159.636 85.2398C159.368 84.745 159.234 84.1748 159.234 83.5291C159.234 82.8583 159.364 82.2713 159.624 81.7682C159.892 81.265 160.265 80.8709 160.743 80.5858C161.23 80.3007 161.792 80.1581 162.429 80.1581C163.049 80.1581 163.59 80.2965 164.051 80.5732C164.513 80.85 164.869 81.2231 165.121 81.6927C165.372 82.1539 165.498 82.6738 165.498 83.2524C165.498 83.3363 165.498 83.4285 165.498 83.5291C165.498 83.6298 165.49 83.7346 165.473 83.8436H160.316V82.8751H163.976C163.959 82.4139 163.804 82.0533 163.511 81.7933C163.217 81.525 162.852 81.3908 162.416 81.3908C162.106 81.3908 161.821 81.4621 161.561 81.6047C161.301 81.7472 161.096 81.961 160.945 82.2461C160.794 82.5229 160.718 82.8751 160.718 83.3027V83.6675C160.718 84.0616 160.789 84.4012 160.932 84.6863C161.083 84.9715 161.284 85.1895 161.536 85.3404C161.796 85.483 162.085 85.5542 162.404 85.5542C162.756 85.5542 163.045 85.4788 163.272 85.3278C163.506 85.1769 163.678 84.9756 163.787 84.7241H165.322C165.204 85.1182 165.012 85.4746 164.743 85.7932C164.475 86.1035 164.144 86.3509 163.75 86.5354C163.355 86.7115 162.911 86.7995 162.416 86.7995ZM166.892 86.6486V77.5922H168.401V86.6486H166.892ZM173.054 86.7995C172.425 86.7995 171.871 86.6653 171.393 86.397C170.915 86.1203 170.542 85.7345 170.274 85.2398C170.006 84.745 169.871 84.1748 169.871 83.5291C169.871 82.8583 170.001 82.2713 170.261 81.7682C170.53 81.265 170.903 80.8709 171.381 80.5858C171.867 80.3007 172.429 80.1581 173.066 80.1581C173.687 80.1581 174.228 80.2965 174.689 80.5732C175.15 80.85 175.507 81.2231 175.758 81.6927C176.01 82.1539 176.135 82.6738 176.135 83.2524C176.135 83.3363 176.135 83.4285 176.135 83.5291C176.135 83.6298 176.127 83.7346 176.11 83.8436H170.953V82.8751H174.613C174.597 82.4139 174.442 82.0533 174.148 81.7933C173.855 81.525 173.49 81.3908 173.054 81.3908C172.744 81.3908 172.458 81.4621 172.198 81.6047C171.938 81.7472 171.733 81.961 171.582 82.2461C171.431 82.5229 171.356 82.8751 171.356 83.3027V83.6675C171.356 84.0616 171.427 84.4012 171.57 84.6863C171.72 84.9715 171.922 85.1895 172.173 85.3404C172.433 85.483 172.723 85.5542 173.041 85.5542C173.393 85.5542 173.683 85.4788 173.909 85.3278C174.144 85.1769 174.316 84.9756 174.425 84.7241H175.959C175.842 85.1182 175.649 85.4746 175.381 85.7932C175.112 86.1035 174.781 86.3509 174.387 86.5354C173.993 86.7115 173.549 86.7995 173.054 86.7995ZM179.642 86.7995C179.122 86.7995 178.69 86.7115 178.347 86.5354C178.003 86.3593 177.747 86.1245 177.579 85.831C177.412 85.5375 177.328 85.2188 177.328 84.875C177.328 84.4725 177.428 84.1245 177.63 83.831C177.839 83.5375 178.145 83.3111 178.548 83.1518C178.95 82.9841 179.445 82.9002 180.032 82.9002H181.63C181.63 82.5648 181.584 82.2881 181.491 82.0701C181.399 81.8436 181.256 81.6759 181.064 81.5669C180.871 81.4579 180.623 81.4034 180.321 81.4034C179.978 81.4034 179.684 81.4831 179.441 81.6424C179.198 81.7933 179.047 82.0281 178.988 82.3468H177.504C177.554 81.894 177.705 81.5082 177.957 81.1896C178.208 80.8625 178.54 80.611 178.95 80.4349C179.37 80.2504 179.827 80.1581 180.321 80.1581C180.917 80.1581 181.424 80.263 181.843 80.4726C182.263 80.6739 182.581 80.9674 182.799 81.3531C183.026 81.7304 183.139 82.1875 183.139 82.7241V86.6486H181.856L181.705 85.6297C181.621 85.7974 181.512 85.9526 181.378 86.0951C181.252 86.2377 181.106 86.3635 180.938 86.4725C180.77 86.5731 180.577 86.6528 180.359 86.7115C180.15 86.7701 179.911 86.7995 179.642 86.7995ZM179.982 85.6046C180.225 85.6046 180.439 85.5626 180.623 85.4788C180.816 85.3865 180.98 85.2608 181.114 85.1014C181.256 84.9337 181.365 84.7492 181.441 84.548C181.516 84.3467 181.567 84.1329 181.592 83.9065V83.8813H180.196C179.902 83.8813 179.659 83.9191 179.466 83.9945C179.273 84.0616 179.135 84.1622 179.051 84.2964C178.967 84.4306 178.925 84.5857 178.925 84.7618C178.925 84.9379 178.967 85.0888 179.051 85.2146C179.135 85.3404 179.257 85.4368 179.416 85.5039C179.575 85.571 179.764 85.6046 179.982 85.6046ZM187.28 86.7995C186.718 86.7995 186.228 86.7115 185.808 86.5354C185.397 86.3509 185.07 86.0993 184.827 85.7807C184.592 85.4536 184.454 85.0805 184.412 84.6612H185.922C185.964 84.8373 186.039 85.0008 186.148 85.1517C186.257 85.2943 186.404 85.4075 186.588 85.4914C186.781 85.5752 187.008 85.6171 187.267 85.6171C187.519 85.6171 187.724 85.5836 187.884 85.5165C188.043 85.441 188.161 85.3446 188.236 85.2272C188.311 85.1098 188.349 84.984 188.349 84.8499C188.349 84.6486 188.295 84.4935 188.186 84.3845C188.077 84.2755 187.917 84.1916 187.708 84.1329C187.506 84.0658 187.263 84.0029 186.978 83.9442C186.676 83.8855 186.383 83.8142 186.098 83.7304C185.821 83.6381 185.569 83.5249 185.343 83.3908C185.125 83.2566 184.949 83.0847 184.815 82.8751C184.689 82.6654 184.626 82.4097 184.626 82.1078C184.626 81.7388 184.722 81.4076 184.915 81.1141C185.117 80.8206 185.402 80.59 185.771 80.4223C186.148 80.2462 186.597 80.1581 187.117 80.1581C187.854 80.1581 188.441 80.3301 188.877 80.6739C189.322 81.0093 189.582 81.4831 189.657 82.0952H188.223C188.181 81.8604 188.064 81.6801 187.871 81.5543C187.678 81.4202 187.423 81.3531 187.104 81.3531C186.777 81.3531 186.525 81.416 186.349 81.5418C186.182 81.6592 186.098 81.8185 186.098 82.0197C186.098 82.1455 186.148 82.2629 186.249 82.3719C186.358 82.4726 186.513 82.5606 186.714 82.6361C186.915 82.7032 187.163 82.7702 187.456 82.8373C187.926 82.9296 188.341 83.0386 188.701 83.1644C189.062 83.2901 189.347 83.4746 189.557 83.7178C189.766 83.961 189.871 84.3048 189.871 84.7492C189.88 85.1517 189.775 85.5081 189.557 85.8184C189.347 86.1287 189.049 86.3718 188.664 86.5479C188.278 86.7156 187.817 86.7995 187.28 86.7995ZM194.304 86.7995C193.675 86.7995 193.122 86.6653 192.644 86.397C192.166 86.1203 191.793 85.7345 191.524 85.2398C191.256 84.745 191.122 84.1748 191.122 83.5291C191.122 82.8583 191.252 82.2713 191.512 81.7682C191.78 81.265 192.153 80.8709 192.631 80.5858C193.118 80.3007 193.68 80.1581 194.317 80.1581C194.937 80.1581 195.478 80.2965 195.939 80.5732C196.401 80.85 196.757 81.2231 197.009 81.6927C197.26 82.1539 197.386 82.6738 197.386 83.2524C197.386 83.3363 197.386 83.4285 197.386 83.5291C197.386 83.6298 197.378 83.7346 197.361 83.8436H192.204V82.8751H195.864C195.847 82.4139 195.692 82.0533 195.399 81.7933C195.105 81.525 194.74 81.3908 194.304 81.3908C193.994 81.3908 193.709 81.4621 193.449 81.6047C193.189 81.7472 192.984 81.961 192.833 82.2461C192.682 82.5229 192.606 82.8751 192.606 83.3027V83.6675C192.606 84.0616 192.677 84.4012 192.82 84.6863C192.971 84.9715 193.172 85.1895 193.424 85.3404C193.684 85.483 193.973 85.5542 194.292 85.5542C194.644 85.5542 194.933 85.4788 195.16 85.3278C195.394 85.1769 195.566 84.9756 195.675 84.7241H197.21C197.092 85.1182 196.9 85.4746 196.631 85.7932C196.363 86.1035 196.032 86.3509 195.638 86.5354C195.243 86.7115 194.799 86.7995 194.304 86.7995Z" fill="black"/>
<path d="M131.886 57.1891V48.3843H135.055C135.76 48.3843 136.343 48.5059 136.804 48.7491C137.265 48.9839 137.609 49.3025 137.835 49.7051C138.062 50.1076 138.175 50.5688 138.175 51.0887C138.175 51.575 138.066 52.0237 137.848 52.4345C137.63 52.8371 137.29 53.1641 136.829 53.4157C136.368 53.6588 135.777 53.7804 135.055 53.7804H133.395V57.1891H131.886ZM133.395 52.5478H134.967C135.563 52.5478 135.99 52.4178 136.25 52.1578C136.51 51.8895 136.64 51.5331 136.64 51.0887C136.64 50.6275 136.51 50.2669 136.25 50.0069C135.99 49.747 135.563 49.617 134.967 49.617H133.395V52.5478ZM139.427 57.1891V48.1328H140.936V57.1891H139.427ZM144.733 57.3401C144.213 57.3401 143.782 57.252 143.438 57.0759C143.094 56.8998 142.838 56.6651 142.671 56.3716C142.503 56.0781 142.419 55.7594 142.419 55.4156C142.419 55.0131 142.52 54.6651 142.721 54.3716C142.93 54.0781 143.237 53.8517 143.639 53.6924C144.042 53.5247 144.536 53.4408 145.123 53.4408H146.721C146.721 53.1054 146.675 52.8287 146.582 52.6106C146.49 52.3842 146.348 52.2165 146.155 52.1075C145.962 51.9985 145.714 51.944 145.413 51.944C145.069 51.944 144.775 52.0237 144.532 52.183C144.289 52.3339 144.138 52.5687 144.079 52.8874H142.595C142.645 52.4345 142.796 52.0488 143.048 51.7302C143.299 51.4031 143.631 51.1516 144.042 50.9755C144.461 50.791 144.918 50.6987 145.413 50.6987C146.008 50.6987 146.515 50.8036 146.935 51.0132C147.354 51.2144 147.673 51.5079 147.891 51.8937C148.117 52.271 148.23 52.728 148.23 53.2647V57.1891H146.947L146.796 56.1703C146.712 56.338 146.603 56.4931 146.469 56.6357C146.343 56.7783 146.197 56.904 146.029 57.0131C145.861 57.1137 145.668 57.1933 145.45 57.252C145.241 57.3107 145.002 57.3401 144.733 57.3401ZM145.073 56.1451C145.316 56.1451 145.53 56.1032 145.714 56.0194C145.907 55.9271 146.071 55.8013 146.205 55.642C146.348 55.4743 146.457 55.2898 146.532 55.0886C146.608 54.8873 146.658 54.6735 146.683 54.4471V54.4219H145.287C144.993 54.4219 144.75 54.4597 144.557 54.5351C144.364 54.6022 144.226 54.7028 144.142 54.837C144.058 54.9712 144.016 55.1263 144.016 55.3024C144.016 55.4785 144.058 55.6294 144.142 55.7552C144.226 55.881 144.348 55.9774 144.507 56.0445C144.666 56.1116 144.855 56.1451 145.073 56.1451ZM149.843 57.1891V50.8497H151.176L151.289 51.9063C151.482 51.5373 151.759 51.2438 152.12 51.0258C152.48 50.8078 152.908 50.6987 153.403 50.6987C153.914 50.6987 154.35 50.8078 154.711 51.0258C155.071 51.2354 155.348 51.5457 155.541 51.9566C155.742 52.3675 155.843 52.879 155.843 53.4911V57.1891H154.333V53.6295C154.333 53.1012 154.216 52.6945 153.981 52.4094C153.746 52.1243 153.398 51.9817 152.937 51.9817C152.635 51.9817 152.363 52.053 152.12 52.1956C151.885 52.3381 151.696 52.5478 151.554 52.8245C151.419 53.0928 151.352 53.4198 151.352 53.8056V57.1891H149.843Z" fill="black"/>
<path d="M247.788 26.6776V17.8727H250.631C251.654 17.8727 252.497 18.053 253.159 18.4136C253.83 18.7742 254.325 19.2857 254.643 19.9482C254.97 20.6022 255.134 21.3821 255.134 22.2877C255.134 23.1766 254.97 23.9522 254.643 24.6147C254.325 25.2688 253.83 25.7761 253.159 26.1367C252.497 26.4973 251.654 26.6776 250.631 26.6776H247.788ZM249.297 25.3946H250.555C251.318 25.3946 251.918 25.273 252.354 25.0298C252.798 24.7782 253.113 24.4218 253.297 23.9606C253.49 23.491 253.587 22.9334 253.587 22.2877C253.587 21.6336 253.49 21.076 253.297 20.6148C253.113 20.1452 252.798 19.7846 252.354 19.5331C251.918 19.2731 251.318 19.1431 250.555 19.1431H249.297V25.3946ZM259.526 26.8285C258.897 26.8285 258.343 26.6943 257.865 26.426C257.387 26.1493 257.014 25.7635 256.746 25.2688C256.478 24.774 256.343 24.2038 256.343 23.5581C256.343 22.8873 256.473 22.3003 256.733 21.7972C257.002 21.294 257.375 20.8999 257.853 20.6148C258.339 20.3297 258.901 20.1871 259.538 20.1871C260.159 20.1871 260.7 20.3255 261.161 20.6022C261.622 20.8789 261.979 21.2521 262.23 21.7217C262.482 22.1829 262.607 22.7028 262.607 23.2814C262.607 23.3653 262.607 23.4575 262.607 23.5581C262.607 23.6588 262.599 23.7636 262.582 23.8726H257.425V22.9041H261.085C261.069 22.4429 260.914 22.0823 260.62 21.8223C260.327 21.554 259.962 21.4198 259.526 21.4198C259.216 21.4198 258.93 21.4911 258.67 21.6336C258.41 21.7762 258.205 21.99 258.054 22.2751C257.903 22.5519 257.828 22.9041 257.828 23.3317V23.6965C257.828 24.0906 257.899 24.4302 258.042 24.7153C258.192 25.0004 258.394 25.2185 258.645 25.3694C258.905 25.512 259.195 25.5832 259.513 25.5832C259.865 25.5832 260.155 25.5078 260.381 25.3568C260.616 25.2059 260.788 25.0046 260.897 24.7531H262.431C262.314 25.1472 262.121 25.5036 261.853 25.8222C261.584 26.1325 261.253 26.3799 260.859 26.5643C260.465 26.7404 260.021 26.8285 259.526 26.8285ZM264.001 29.4448V20.3381H265.347L265.51 21.2563C265.645 21.0718 265.804 20.8999 265.988 20.7406C266.181 20.5729 266.412 20.4387 266.68 20.3381C266.957 20.2375 267.271 20.1871 267.624 20.1871C268.219 20.1871 268.743 20.3339 269.196 20.6274C269.657 20.9209 270.018 21.3192 270.278 21.8223C270.538 22.3171 270.668 22.8831 270.668 23.5204C270.668 24.1577 270.533 24.7279 270.265 25.231C270.005 25.7258 269.645 26.1157 269.183 26.4008C268.731 26.6859 268.211 26.8285 267.624 26.8285C267.146 26.8285 266.726 26.7404 266.366 26.5643C266.014 26.3799 265.729 26.1199 265.51 25.7845V29.4448H264.001ZM267.309 25.5203C267.661 25.5203 267.976 25.4365 268.253 25.2688C268.529 25.1011 268.743 24.8663 268.894 24.5644C269.053 24.2625 269.133 23.9145 269.133 23.5204C269.133 23.1179 269.053 22.7657 268.894 22.4638C268.743 22.1619 268.529 21.9271 268.253 21.7594C267.976 21.5917 267.661 21.5079 267.309 21.5079C266.949 21.5079 266.63 21.5917 266.353 21.7594C266.085 21.9271 265.871 22.1619 265.712 22.4638C265.561 22.7657 265.485 23.1137 265.485 23.5078C265.485 23.9103 265.561 24.2625 265.712 24.5644C265.871 24.8579 266.085 25.0927 266.353 25.2688C266.63 25.4365 266.949 25.5203 267.309 25.5203ZM272.133 26.6776V17.6212H273.642V26.6776H272.133ZM278.282 26.8285C277.679 26.8285 277.134 26.6901 276.647 26.4134C276.169 26.1283 275.792 25.7384 275.515 25.2436C275.247 24.7405 275.113 24.1661 275.113 23.5204C275.113 22.8579 275.251 22.2793 275.528 21.7846C275.804 21.2815 276.182 20.8915 276.66 20.6148C277.146 20.3297 277.691 20.1871 278.295 20.1871C278.899 20.1871 279.44 20.3297 279.918 20.6148C280.404 20.8915 280.781 21.2773 281.05 21.772C281.326 22.2668 281.465 22.8454 281.465 23.5078C281.465 24.1703 281.326 24.7489 281.05 25.2436C280.773 25.7384 280.391 26.1283 279.905 26.4134C279.427 26.6901 278.886 26.8285 278.282 26.8285ZM278.282 25.5329C278.584 25.5329 278.857 25.4575 279.1 25.3065C279.352 25.1556 279.553 24.9292 279.704 24.6273C279.855 24.3254 279.93 23.9522 279.93 23.5078C279.93 23.0634 279.855 22.6944 279.704 22.4009C279.561 22.099 279.364 21.8726 279.113 21.7217C278.869 21.5708 278.597 21.4953 278.295 21.4953C278.001 21.4953 277.729 21.5708 277.477 21.7217C277.226 21.8726 277.025 22.099 276.874 22.4009C276.723 22.6944 276.647 23.0634 276.647 23.5078C276.647 23.9522 276.723 24.3254 276.874 24.6273C277.025 24.9292 277.222 25.1556 277.465 25.3065C277.716 25.4575 277.989 25.5329 278.282 25.5329ZM283.157 29.4448L284.704 25.9732H284.327L281.798 20.3381H283.446L285.333 24.6399L287.119 20.3381H288.716L284.754 29.4448H283.157Z" fill="black"/>
<path d="M301.366 100.477C300.519 100.477 299.768 100.288 299.114 99.9111C298.468 99.5254 297.961 98.9929 297.592 98.3136C297.223 97.626 297.039 96.8294 297.039 95.9238C297.039 95.0265 297.223 94.2383 297.592 93.559C297.961 92.8714 298.468 92.3348 299.114 91.949C299.768 91.5633 300.519 91.3704 301.366 91.3704C302.229 91.3704 302.988 91.5633 303.642 91.949C304.296 92.3348 304.804 92.8714 305.164 93.559C305.525 94.2383 305.705 95.0265 305.705 95.9238C305.705 96.8294 305.525 97.626 305.164 98.3136C304.804 98.9929 304.296 99.5254 303.642 99.9111C302.988 100.288 302.229 100.477 301.366 100.477ZM301.378 99.1187C301.94 99.1187 302.43 98.9929 302.85 98.7413C303.269 98.4814 303.592 98.1124 303.818 97.6344C304.045 97.1564 304.158 96.5862 304.158 95.9238C304.158 95.2613 304.045 94.6911 303.818 94.2131C303.592 93.7351 303.269 93.3704 302.85 93.1188C302.43 92.8588 301.94 92.7289 301.378 92.7289C300.816 92.7289 300.326 92.8588 299.906 93.1188C299.487 93.3704 299.16 93.7351 298.925 94.2131C298.699 94.6911 298.586 95.2613 298.586 95.9238C298.586 96.5862 298.699 97.1564 298.925 97.6344C299.16 98.1124 299.487 98.4814 299.906 98.7413C300.326 98.9929 300.816 99.1187 301.378 99.1187ZM307.13 103.093V93.9867H308.475L308.639 94.9049C308.773 94.7204 308.932 94.5485 309.117 94.3892C309.31 94.2215 309.54 94.0873 309.809 93.9867C310.085 93.8861 310.4 93.8358 310.752 93.8358C311.347 93.8358 311.872 93.9825 312.324 94.276C312.786 94.5695 313.146 94.9678 313.406 95.4709C313.666 95.9657 313.796 96.5317 313.796 97.169C313.796 97.8063 313.662 98.3765 313.394 98.8797C313.134 99.3744 312.773 99.7643 312.312 100.049C311.859 100.335 311.339 100.477 310.752 100.477C310.274 100.477 309.855 100.389 309.494 100.213C309.142 100.028 308.857 99.7685 308.639 99.4331V103.093H307.13ZM310.438 99.169C310.79 99.169 311.104 99.0851 311.381 98.9174C311.658 98.7497 311.872 98.5149 312.023 98.213C312.182 97.9111 312.261 97.5631 312.261 97.169C312.261 96.7665 312.182 96.4143 312.023 96.1124C311.872 95.8106 311.658 95.5758 311.381 95.4081C311.104 95.2403 310.79 95.1565 310.438 95.1565C310.077 95.1565 309.758 95.2403 309.482 95.4081C309.213 95.5758 309 95.8106 308.84 96.1124C308.689 96.4143 308.614 96.7623 308.614 97.1564C308.614 97.5589 308.689 97.9111 308.84 98.213C309 98.5065 309.213 98.7413 309.482 98.9174C309.758 99.0851 310.077 99.169 310.438 99.169ZM318.23 100.477C317.601 100.477 317.047 100.343 316.569 100.075C316.091 99.7979 315.718 99.4121 315.45 98.9174C315.182 98.4227 315.047 97.8524 315.047 97.2068C315.047 96.5359 315.177 95.9489 315.437 95.4458C315.706 94.9427 316.079 94.5485 316.557 94.2634C317.043 93.9783 317.605 93.8358 318.242 93.8358C318.863 93.8358 319.404 93.9741 319.865 94.2508C320.326 94.5276 320.682 94.9007 320.934 95.3703C321.186 95.8315 321.311 96.3514 321.311 96.93C321.311 97.0139 321.311 97.1061 321.311 97.2068C321.311 97.3074 321.303 97.4122 321.286 97.5212H316.129V96.5527H319.789C319.773 96.0915 319.618 95.7309 319.324 95.4709C319.031 95.2026 318.666 95.0684 318.23 95.0684C317.919 95.0684 317.634 95.1397 317.374 95.2823C317.114 95.4248 316.909 95.6387 316.758 95.9238C316.607 96.2005 316.532 96.5527 316.532 96.9803V97.3451C316.532 97.7392 316.603 98.0788 316.745 98.364C316.896 98.6491 317.098 98.8671 317.349 99.018C317.609 99.1606 317.898 99.2319 318.217 99.2319C318.569 99.2319 318.859 99.1564 319.085 99.0054C319.32 98.8545 319.492 98.6533 319.601 98.4017H321.135C321.018 98.7958 320.825 99.1522 320.557 99.4708C320.288 99.7811 319.957 100.028 319.563 100.213C319.169 100.389 318.724 100.477 318.23 100.477ZM322.705 100.326V93.9867H324.051L324.189 95.1691C324.34 94.8923 324.529 94.6575 324.755 94.4647C324.982 94.2634 325.246 94.1083 325.548 93.9993C325.858 93.8903 326.198 93.8358 326.567 93.8358V95.4332H326.038C325.787 95.4332 325.548 95.4668 325.321 95.5338C325.095 95.5925 324.898 95.6932 324.73 95.8357C324.571 95.9699 324.445 96.1586 324.353 96.4017C324.261 96.6365 324.214 96.9342 324.214 97.2948V100.326H322.705ZM329.818 100.477C329.298 100.477 328.866 100.389 328.522 100.213C328.178 100.037 327.922 99.8021 327.755 99.5086C327.587 99.2151 327.503 98.8964 327.503 98.5526C327.503 98.1501 327.604 97.8021 327.805 97.5086C328.015 97.2151 328.321 96.9887 328.723 96.8294C329.126 96.6617 329.621 96.5778 330.208 96.5778H331.805C331.805 96.2424 331.759 95.9657 331.667 95.7477C331.574 95.5213 331.432 95.3535 331.239 95.2445C331.046 95.1355 330.799 95.081 330.497 95.081C330.153 95.081 329.86 95.1607 329.616 95.32C329.373 95.4709 329.222 95.7057 329.164 96.0244H327.679C327.73 95.5716 327.881 95.1858 328.132 94.8672C328.384 94.5401 328.715 94.2886 329.126 94.1125C329.545 93.928 330.002 93.8358 330.497 93.8358C331.092 93.8358 331.6 93.9406 332.019 94.1502C332.438 94.3515 332.757 94.645 332.975 95.0307C333.201 95.4081 333.314 95.8651 333.314 96.4017V100.326H332.031L331.88 99.3073C331.797 99.475 331.688 99.6302 331.553 99.7727C331.428 99.9153 331.281 100.041 331.113 100.15C330.945 100.251 330.753 100.33 330.535 100.389C330.325 100.448 330.086 100.477 329.818 100.477ZM330.157 99.2822C330.4 99.2822 330.614 99.2402 330.799 99.1564C330.992 99.0641 331.155 98.9384 331.289 98.779C331.432 98.6113 331.541 98.4268 331.616 98.2256C331.692 98.0243 331.742 97.8105 331.767 97.5841V97.5589H330.371C330.078 97.5589 329.834 97.5967 329.641 97.6721C329.449 97.7392 329.31 97.8399 329.226 97.974C329.143 98.1082 329.101 98.2633 329.101 98.4394C329.101 98.6155 329.143 98.7665 329.226 98.8922C329.31 99.018 329.432 99.1145 329.591 99.1815C329.75 99.2486 329.939 99.2822 330.157 99.2822ZM337.584 100.326C337.156 100.326 336.783 100.259 336.464 100.125C336.154 99.9908 335.911 99.7685 335.734 99.4583C335.558 99.148 335.47 98.7287 335.47 98.2004V95.2571H334.389V93.9867H335.47L335.646 92.3138H336.98V93.9867H338.703V95.2571H336.98V98.2004C336.98 98.5191 337.047 98.7413 337.181 98.8671C337.324 98.9845 337.558 99.0432 337.885 99.0432H338.665V100.326H337.584ZM342.932 100.477C342.303 100.477 341.749 100.343 341.272 100.075C340.794 99.7979 340.42 99.4121 340.152 98.9174C339.884 98.4227 339.75 97.8524 339.75 97.2068C339.75 96.5359 339.88 95.9489 340.139 95.4458C340.408 94.9427 340.781 94.5485 341.259 94.2634C341.745 93.9783 342.307 93.8358 342.944 93.8358C343.565 93.8358 344.106 93.9741 344.567 94.2508C345.028 94.5276 345.385 94.9007 345.636 95.3703C345.888 95.8315 346.014 96.3514 346.014 96.93C346.014 97.0139 346.014 97.1061 346.014 97.2068C346.014 97.3074 346.005 97.4122 345.988 97.5212H340.831V96.5527H344.492C344.475 96.0915 344.32 95.7309 344.026 95.4709C343.733 95.2026 343.368 95.0684 342.932 95.0684C342.622 95.0684 342.336 95.1397 342.077 95.2823C341.817 95.4248 341.611 95.6387 341.46 95.9238C341.309 96.2005 341.234 96.5527 341.234 96.9803V97.3451C341.234 97.7392 341.305 98.0788 341.448 98.364C341.599 98.6491 341.8 98.8671 342.051 99.018C342.311 99.1606 342.601 99.2319 342.919 99.2319C343.271 99.2319 343.561 99.1564 343.787 99.0054C344.022 98.8545 344.194 98.6533 344.303 98.4017H345.837C345.72 98.7958 345.527 99.1522 345.259 99.4708C344.99 99.7811 344.659 100.028 344.265 100.213C343.871 100.389 343.427 100.477 342.932 100.477Z" fill="black"/>
<path d="M229.812 157.141V148.336H231.598L234.415 154.021L237.208 148.336H239.006V157.141H237.497V150.927L235.006 155.908H233.824L231.321 150.94V157.141H229.812ZM243.699 157.292C243.095 157.292 242.55 157.153 242.064 156.877C241.586 156.592 241.208 156.202 240.931 155.707C240.663 155.204 240.529 154.629 240.529 153.984C240.529 153.321 240.667 152.743 240.944 152.248C241.221 151.745 241.598 151.355 242.076 151.078C242.562 150.793 243.108 150.65 243.711 150.65C244.315 150.65 244.856 150.793 245.334 151.078C245.82 151.355 246.198 151.741 246.466 152.235C246.743 152.73 246.881 153.309 246.881 153.971C246.881 154.634 246.743 155.212 246.466 155.707C246.189 156.202 245.808 156.592 245.321 156.877C244.843 157.153 244.302 157.292 243.699 157.292ZM243.699 155.996C244.001 155.996 244.273 155.921 244.516 155.77C244.768 155.619 244.969 155.392 245.12 155.091C245.271 154.789 245.346 154.416 245.346 153.971C245.346 153.527 245.271 153.158 245.12 152.864C244.977 152.562 244.78 152.336 244.529 152.185C244.286 152.034 244.013 151.959 243.711 151.959C243.418 151.959 243.145 152.034 242.894 152.185C242.642 152.336 242.441 152.562 242.29 152.864C242.139 153.158 242.064 153.527 242.064 153.971C242.064 154.416 242.139 154.789 242.29 155.091C242.441 155.392 242.638 155.619 242.881 155.77C243.133 155.921 243.405 155.996 243.699 155.996ZM248.359 157.141V150.801H249.692L249.805 151.858C249.998 151.489 250.275 151.196 250.635 150.977C250.996 150.759 251.423 150.65 251.918 150.65C252.43 150.65 252.866 150.759 253.226 150.977C253.587 151.187 253.864 151.497 254.057 151.908C254.258 152.319 254.358 152.831 254.358 153.443V157.141H252.849V153.581C252.849 153.053 252.732 152.646 252.497 152.361C252.262 152.076 251.914 151.933 251.453 151.933C251.151 151.933 250.878 152.005 250.635 152.147C250.4 152.29 250.212 152.499 250.069 152.776C249.935 153.045 249.868 153.372 249.868 153.757V157.141H248.359ZM256.013 157.141V150.801H257.522V157.141H256.013ZM256.767 149.795C256.491 149.795 256.26 149.711 256.076 149.544C255.899 149.367 255.811 149.154 255.811 148.902C255.811 148.642 255.899 148.432 256.076 148.273C256.26 148.105 256.491 148.022 256.767 148.022C257.044 148.022 257.27 148.105 257.447 148.273C257.631 148.432 257.723 148.642 257.723 148.902C257.723 149.154 257.631 149.367 257.447 149.544C257.27 149.711 257.044 149.795 256.767 149.795ZM262.021 157.141C261.593 157.141 261.22 157.074 260.902 156.94C260.591 156.805 260.348 156.583 260.172 156.273C259.996 155.963 259.908 155.543 259.908 155.015V152.072H258.826V150.801H259.908L260.084 149.128H261.417V150.801H263.14V152.072H261.417V155.015C261.417 155.334 261.484 155.556 261.618 155.682C261.761 155.799 261.996 155.858 262.323 155.858H263.103V157.141H262.021ZM267.357 157.292C266.753 157.292 266.208 157.153 265.722 156.877C265.244 156.592 264.866 156.202 264.59 155.707C264.321 155.204 264.187 154.629 264.187 153.984C264.187 153.321 264.325 152.743 264.602 152.248C264.879 151.745 265.256 151.355 265.734 151.078C266.22 150.793 266.766 150.65 267.369 150.65C267.973 150.65 268.514 150.793 268.992 151.078C269.478 151.355 269.856 151.741 270.124 152.235C270.401 152.73 270.539 153.309 270.539 153.971C270.539 154.634 270.401 155.212 270.124 155.707C269.847 156.202 269.466 156.592 268.979 156.877C268.501 157.153 267.96 157.292 267.357 157.292ZM267.357 155.996C267.659 155.996 267.931 155.921 268.174 155.77C268.426 155.619 268.627 155.392 268.778 155.091C268.929 154.789 269.004 154.416 269.004 153.971C269.004 153.527 268.929 153.158 268.778 152.864C268.636 152.562 268.438 152.336 268.187 152.185C267.944 152.034 267.671 151.959 267.369 151.959C267.076 151.959 266.803 152.034 266.552 152.185C266.3 152.336 266.099 152.562 265.948 152.864C265.797 153.158 265.722 153.527 265.722 153.971C265.722 154.416 265.797 154.789 265.948 155.091C266.099 155.392 266.296 155.619 266.539 155.77C266.791 155.921 267.063 155.996 267.357 155.996ZM272.017 157.141V150.801H273.362L273.501 151.984C273.652 151.707 273.84 151.472 274.067 151.279C274.293 151.078 274.557 150.923 274.859 150.814C275.17 150.705 275.509 150.65 275.878 150.65V152.248H275.35C275.098 152.248 274.859 152.281 274.633 152.349C274.406 152.407 274.209 152.508 274.042 152.65C273.882 152.785 273.757 152.973 273.664 153.216C273.572 153.451 273.526 153.749 273.526 154.109V157.141H272.017Z" fill="black"/>
</svg>
