<svg width="317" height="185" viewBox="0 0 317 185" fill="none" xmlns="http://www.w3.org/2000/svg">
<path d="M0.207031 92.5H316.207" stroke="black"/>
<path d="M50.207 92V52" stroke="black"/>
<path d="M158.207 92V52" stroke="black"/>
<path d="M266.207 92V52" stroke="black"/>
<path d="M102.207 133V93" stroke="black"/>
<path d="M215.207 133V93" stroke="black"/>
<path d="M31.0977 43.2387V35.9775H69.6082V43.2387H31.0977Z" fill="#9578CC" stroke="white" stroke-width="1.11178" stroke-miterlimit="10" stroke-linejoin="round"/>
<path d="M76.5719 29.6152V36.8939L69.6082 43.2365V35.9753H31.0977L76.5719 29.6152Z" fill="#9578CC" stroke="white" stroke-width="1.11178" stroke-miterlimit="10" stroke-linejoin="round"/>
<path d="M69.6082 35.9762V7.3601H31.0977V35.9762H69.6082ZM69.6082 35.9762L76.5719 29.6161V1H37.589L31.0977 7.3601H69.6082V35.9762ZM69.6082 7.3601L76.5719 1L69.6082 7.3601Z" fill="#9578CC"/>
<path d="M69.6082 35.9762V7.3601M69.6082 35.9762H31.0977V7.3601M69.6082 35.9762L76.5719 29.6161V1M69.6082 7.3601H31.0977M69.6082 7.3601L76.5719 1M31.0977 7.3601L37.589 1H76.5719" stroke="white" stroke-width="1.11178" stroke-miterlimit="10" stroke-linejoin="round"/>
<path d="M67.7627 48.2418V44.1563H23.207L28.3161 39.1522H72.8718V43.2377L67.7627 48.2418ZM67.7627 44.1563V48.2418H23.207V44.1563H67.7627ZM67.7627 44.1563L72.8718 39.1522L67.7627 44.1563Z" fill="#9578CC"/>
<path d="M67.7627 48.2418V44.1563M67.7627 48.2418L72.8718 43.2377V39.1522M67.7627 48.2418H23.207V44.1563M67.7627 44.1563H23.207M67.7627 44.1563L72.8718 39.1522M23.207 44.1563L28.3161 39.1522H72.8718" stroke="white" stroke-width="1.11178" stroke-miterlimit="10" stroke-linejoin="round"/>
<path d="M66.363 32.8018V10.5371H34.3438V32.8018H66.363Z" stroke="white" stroke-width="1.11178" stroke-miterlimit="10"/>
<path d="M81.0977 179.239V171.978H119.608V179.239H81.0977Z" fill="#9578CC" stroke="white" stroke-width="1.11178" stroke-miterlimit="10" stroke-linejoin="round"/>
<path d="M126.572 165.615V172.894L119.608 179.237V171.975H81.0977L126.572 165.615Z" fill="#9578CC" stroke="white" stroke-width="1.11178" stroke-miterlimit="10" stroke-linejoin="round"/>
<path d="M119.608 171.976V143.36H81.0977V171.976H119.608ZM119.608 171.976L126.572 165.616V137H87.589L81.0977 143.36H119.608V171.976ZM119.608 143.36L126.572 137L119.608 143.36Z" fill="#9578CC"/>
<path d="M119.608 171.976V143.36M119.608 171.976H81.0977V143.36M119.608 171.976L126.572 165.616V137M119.608 143.36H81.0977M119.608 143.36L126.572 137M81.0977 143.36L87.589 137H126.572" stroke="white" stroke-width="1.11178" stroke-miterlimit="10" stroke-linejoin="round"/>
<path d="M117.763 184.242V180.156H73.207L78.3161 175.152H122.872V179.238L117.763 184.242ZM117.763 180.156V184.242H73.207V180.156H117.763ZM117.763 180.156L122.872 175.152L117.763 180.156Z" fill="#9578CC"/>
<path d="M117.763 184.242V180.156M117.763 184.242L122.872 179.238V175.152M117.763 184.242H73.207V180.156M117.763 180.156H73.207M117.763 180.156L122.872 175.152M73.207 180.156L78.3161 175.152H122.872" stroke="white" stroke-width="1.11178" stroke-miterlimit="10" stroke-linejoin="round"/>
<path d="M116.363 168.802V146.537H84.3438V168.802H116.363Z" fill="#9578CC" stroke="white" stroke-width="1.11178" stroke-miterlimit="10"/>
<path d="M196.098 179.239V171.978H234.608V179.239H196.098Z" fill="#DCC646" stroke="white" stroke-width="1.11178" stroke-miterlimit="10" stroke-linejoin="round"/>
<path d="M241.572 165.615V172.894L234.608 179.237V171.975H196.098L241.572 165.615Z" fill="#DCC646" stroke="white" stroke-width="1.11178" stroke-miterlimit="10" stroke-linejoin="round"/>
<path d="M234.608 171.976V143.36H196.098V171.976H234.608ZM234.608 171.976L241.572 165.616V137H202.589L196.098 143.36H234.608V171.976ZM234.608 143.36L241.572 137L234.608 143.36Z" fill="#DCC646"/>
<path d="M234.608 171.976V143.36M234.608 171.976H196.098V143.36M234.608 171.976L241.572 165.616V137M234.608 143.36H196.098M234.608 143.36L241.572 137M196.098 143.36L202.589 137H241.572" stroke="white" stroke-width="1.11178" stroke-miterlimit="10" stroke-linejoin="round"/>
<path d="M232.763 184.242V180.156H188.207L193.316 175.152H237.872V179.238L232.763 184.242ZM232.763 180.156V184.242H188.207V180.156H232.763ZM232.763 180.156L237.872 175.152L232.763 180.156Z" fill="#DCC646"/>
<path d="M232.763 184.242V180.156M232.763 184.242L237.872 179.238V175.152M232.763 184.242H188.207V180.156M232.763 180.156H188.207M232.763 180.156L237.872 175.152M188.207 180.156L193.316 175.152H237.872" stroke="white" stroke-width="1.11178" stroke-miterlimit="10" stroke-linejoin="round"/>
<path d="M231.363 168.802V146.537H199.344V168.802H231.363Z" stroke="white" stroke-width="1.11178" stroke-miterlimit="10"/>
<path d="M143.098 43.2387V35.9775H181.608V43.2387H143.098Z" fill="#6ABF6C" stroke="white" stroke-width="1.11178" stroke-miterlimit="10" stroke-linejoin="round"/>
<path d="M188.572 29.6152V36.8939L181.608 43.2365V35.9753H143.098L188.572 29.6152Z" fill="#6ABF6C" stroke="white" stroke-width="1.11178" stroke-miterlimit="10" stroke-linejoin="round"/>
<path d="M181.608 35.9762V7.3601H143.098V35.9762H181.608ZM181.608 35.9762L188.572 29.6161V1H149.589L143.098 7.3601H181.608V35.9762ZM181.608 7.3601L188.572 1L181.608 7.3601Z" fill="#6ABF6C"/>
<path d="M181.608 35.9762V7.3601M181.608 35.9762H143.098V7.3601M181.608 35.9762L188.572 29.6161V1M181.608 7.3601H143.098M181.608 7.3601L188.572 1M143.098 7.3601L149.589 1H188.572" stroke="white" stroke-width="1.11178" stroke-miterlimit="10" stroke-linejoin="round"/>
<path d="M179.763 48.2418V44.1563H135.207L140.316 39.1522H184.872V43.2377L179.763 48.2418ZM179.763 44.1563V48.2418H135.207V44.1563H179.763ZM179.763 44.1563L184.872 39.1522L179.763 44.1563Z" fill="#6ABF6C"/>
<path d="M179.763 48.2418V44.1563M179.763 48.2418L184.872 43.2377V39.1522M179.763 48.2418H135.207V44.1563M179.763 44.1563H135.207M179.763 44.1563L184.872 39.1522M135.207 44.1563L140.316 39.1522H184.872" stroke="white" stroke-width="1.11178" stroke-miterlimit="10" stroke-linejoin="round"/>
<path d="M178.363 32.8018V10.5371H146.344V32.8018H178.363Z" stroke="white" stroke-width="1.11178" stroke-miterlimit="10"/>
<path d="M247.098 43.2387V35.9775H285.608V43.2387H247.098Z" fill="#F1668F" stroke="white" stroke-width="1.11178" stroke-miterlimit="10" stroke-linejoin="round"/>
<path d="M292.572 29.6152V36.8939L285.608 43.2365V35.9753H247.098L292.572 29.6152Z" fill="#F1668F" stroke="white" stroke-width="1.11178" stroke-miterlimit="10" stroke-linejoin="round"/>
<path d="M285.608 35.9762V7.3601H247.098V35.9762H285.608ZM285.608 35.9762L292.572 29.6161V1H253.589L247.098 7.3601H285.608V35.9762ZM285.608 7.3601L292.572 1L285.608 7.3601Z" fill="#F1668F"/>
<path d="M285.608 35.9762V7.3601M285.608 35.9762H247.098V7.3601M285.608 35.9762L292.572 29.6161V1M285.608 7.3601H247.098M285.608 7.3601L292.572 1M247.098 7.3601L253.589 1H292.572" stroke="white" stroke-width="1.11178" stroke-miterlimit="10" stroke-linejoin="round"/>
<path d="M283.763 48.2418V44.1563H239.207L244.316 39.1522H288.872V43.2377L283.763 48.2418ZM283.763 44.1563V48.2418H239.207V44.1563H283.763ZM283.763 44.1563L288.872 39.1522L283.763 44.1563Z" fill="#F1668F"/>
<path d="M283.763 48.2418V44.1563M283.763 48.2418L288.872 43.2377V39.1522M283.763 48.2418H239.207V44.1563M283.763 44.1563H239.207M283.763 44.1563L288.872 39.1522M239.207 44.1563L244.316 39.1522H288.872" stroke="white" stroke-width="1.11178" stroke-miterlimit="10" stroke-linejoin="round"/>
<path d="M282.363 32.8018V10.5371H250.344V32.8018H282.363Z" stroke="white" stroke-width="1.11178" stroke-miterlimit="10"/>
</svg>
