<svg width="253" height="300" viewBox="0 0 253 300" fill="none" xmlns="http://www.w3.org/2000/svg">
<path d="M75.4092 92.8545L76.1344 93.243L75.4092 92.8545C74.633 94.3034 75.6827 96.0566 77.3264 96.0566H152.554C153.356 96.0566 154.093 95.6155 154.471 94.9087L171.564 63.0039C172.34 61.555 171.291 59.8018 169.647 59.8018H94.419C93.6172 59.8018 92.8804 60.2429 92.5018 60.9497L75.4092 92.8545Z" fill="#BA96FF"/>
<path d="M75.4092 92.8545L76.1344 93.243L75.4092 92.8545C74.633 94.3034 75.6827 96.0566 77.3264 96.0566H152.554C153.356 96.0566 154.093 95.6155 154.471 94.9087L171.564 63.0039C172.34 61.555 171.291 59.8018 169.647 59.8018H94.419C93.6172 59.8018 92.8804 60.2429 92.5018 60.9497L75.4092 92.8545Z" stroke="#BA96FF" stroke-width="2.35"/>
<path d="M75.4092 92.8545L76.1344 93.243L75.4092 92.8545C74.633 94.3034 75.6827 96.0566 77.3264 96.0566H152.554C153.356 96.0566 154.093 95.6155 154.471 94.9087L171.564 63.0039C172.34 61.555 171.291 59.8018 169.647 59.8018H94.419C93.6172 59.8018 92.8804 60.2429 92.5018 60.9497L75.4092 92.8545Z" stroke="black" stroke-opacity="0.2" stroke-width="2.35"/>
<rect x="87.9346" y="1.82717" width="79.8424" height="36.2505" rx="18.1252" fill="#F1668F"/>
<rect x="87.9346" y="1.82717" width="79.8424" height="36.2505" rx="18.1252" stroke="#F1668F" stroke-width="2.34566"/>
<rect x="87.9346" y="1.82717" width="79.8424" height="36.2505" rx="18.1252" stroke="black" stroke-opacity="0.2" stroke-width="2.34566"/>
<rect x="87.9346" y="261.827" width="79.8424" height="36.2505" rx="18.1252" fill="#F1668F"/>
<rect x="87.9346" y="261.827" width="79.8424" height="36.2505" rx="18.1252" stroke="#F1668F" stroke-width="2.34566"/>
<rect x="87.9346" y="261.827" width="79.8424" height="36.2505" rx="18.1252" stroke="black" stroke-opacity="0.2" stroke-width="2.34566"/>
<path d="M129.232 114.095C127.885 113.1 126.048 113.093 124.693 114.078L89.5672 139.611C87.4585 141.144 87.4579 144.288 89.566 145.821L124.661 171.353C126.015 172.338 127.852 172.332 129.2 171.337L163.79 145.804C165.868 144.269 165.869 141.162 163.791 139.627L129.232 114.095Z" fill="#6ABF6C"/>
<path d="M129.232 114.095C127.885 113.1 126.048 113.093 124.693 114.078L89.5672 139.611C87.4585 141.144 87.4579 144.288 89.566 145.821L124.661 171.353C126.015 172.338 127.852 172.332 129.2 171.337L163.79 145.804C165.868 144.269 165.869 141.162 163.791 139.627L129.232 114.095Z" stroke="#6ABF6C" stroke-width="2.34566"/>
<path d="M129.232 114.095C127.885 113.1 126.048 113.093 124.693 114.078L89.5672 139.611C87.4585 141.144 87.4579 144.288 89.566 145.821L124.661 171.353C126.015 172.338 127.852 172.332 129.2 171.337L163.79 145.804C165.868 144.269 165.869 141.162 163.791 139.627L129.232 114.095Z" stroke="black" stroke-opacity="0.2" stroke-width="2.34566"/>
<path d="M126.324 59.4535L128.072 56.4263L124.576 56.4263L126.324 59.4535ZM126.021 39.2155L126.021 56.729L126.627 56.729L126.627 39.2155L126.021 39.2155Z" fill="black"/>
<path d="M126.516 111.536L128.263 108.508L124.768 108.508L126.516 111.536ZM126.213 97.0044L126.213 108.811L126.818 108.811L126.818 97.0044L126.213 97.0044Z" fill="black"/>
<path d="M127 263L128.748 259.973L125.252 259.973L127 263ZM127 242.361L127 242.059L126.697 242.059L126.697 242.361L127 242.361ZM215 242.361L215 242.664L215.303 242.664L215.303 242.361L215 242.361ZM126.697 242.361L126.697 260.276L127.303 260.276L127.303 242.361L126.697 242.361ZM214.697 216L214.697 242.361L215.303 242.361L215.303 216L214.697 216ZM215 242.059L127 242.059L127 242.664L215 242.664L215 242.059Z" fill="black"/>
<path d="M127 263L125.252 259.973L128.748 259.973L127 263ZM127 242.361L127 242.059L127.303 242.059L127.303 242.361L127 242.361ZM45 242.361L45 242.664L44.6973 242.664L44.6973 242.361L45 242.361ZM127.303 242.361L127.303 260.276L126.697 260.276L126.697 242.361L127.303 242.361ZM45.3027 216L45.3027 242.361L44.6973 242.361L44.6973 216L45.3027 216ZM45 242.059L127 242.059L127 242.664L45 242.664L45 242.059Z" fill="black"/>
<path d="M45 182L45 143L87 143" stroke="black" stroke-width="0.605443"/>
<path d="M215 182L215 143L166 143" stroke="black" stroke-width="0.605443"/>
<rect x="1.82717" y="181.212" width="79.8424" height="36.2505" rx="3.8394" fill="#F5DC4E"/>
<rect x="1.82717" y="181.212" width="79.8424" height="36.2505" rx="3.8394" stroke="#F5DC4E" stroke-width="2.34566"/>
<rect x="1.82717" y="181.212" width="79.8424" height="36.2505" rx="3.8394" stroke="black" stroke-opacity="0.2" stroke-width="2.34566"/>
<rect x="171.323" y="181.212" width="79.8424" height="36.2505" rx="3.8394" fill="#F5DC4E"/>
<rect x="171.323" y="181.212" width="79.8424" height="36.2505" rx="3.8394" stroke="#F5DC4E" stroke-width="2.34566"/>
<rect x="171.323" y="181.212" width="79.8424" height="36.2505" rx="3.8394" stroke="black" stroke-opacity="0.2" stroke-width="2.34566"/>
</svg>
