<svg width="343" height="150" viewBox="0 0 343 150" fill="none" xmlns="http://www.w3.org/2000/svg">
<rect x="91" width="252" height="150" rx="4.27437" fill="#D9DAFB"/>
<rect x="91.4007" y="0.400722" width="251.199" height="149.199" rx="3.87365" stroke="black" stroke-opacity="0.4" stroke-width="0.801444" stroke-linejoin="round" stroke-dasharray="3.21 3.21"/>
<g clip-path="url(#clip0_98_3112)">
<path d="M0.808456 76.1266C-0.269485 74.2595 -0.269485 71.9592 0.808456 70.0922L13.3534 46.7609C14.4313 44.8938 16.4234 43.7437 18.5793 43.7437H43.6691C45.825 43.7437 47.8172 44.8938 48.8951 46.7609L61.44 70.0922C62.518 71.9592 62.518 74.2595 61.44 76.1266L48.8951 98.9236C47.8172 100.791 45.825 101.941 43.6691 101.941H18.5793C16.4234 101.941 14.4313 100.791 13.3534 98.9236L0.808456 76.1266Z" fill="#BA96FF"/>
<path d="M31.0839 74.8931C33.7139 74.8931 36.0853 76.0039 37.7521 77.7822C38.9782 76.3686 40.7685 75.5186 42.7061 75.5186H44.4463C48.0828 75.5186 51.0308 78.4852 51.0308 82.1447C51.0308 85.8042 48.0828 88.7708 44.4463 88.7708H16.8514C13.6268 88.7708 11.0127 86.1402 11.0127 82.8952C11.0127 79.6502 13.6268 77.0196 16.8514 77.0196H21.199C22.3132 77.0196 23.38 77.336 24.295 77.9128C25.9643 76.0601 28.3883 74.8931 31.0839 74.8931ZM21.199 79.5143H16.8514C14.9959 79.5143 13.4917 81.028 13.4917 82.8952C13.4917 84.7625 14.9959 86.2762 16.8514 86.2762H21.9648L21.9637 86.1002L21.9512 84.0152L21.9496 84.0067L21.9516 83.9126L21.9617 83.5785V83.5625L21.9762 83.3373C21.9843 83.2255 21.9945 83.1149 22.0066 83.0048C22.0107 82.9689 22.015 82.9322 22.0195 82.8955C22.0348 82.7696 22.0527 82.6449 22.0731 82.521C22.0805 82.4782 22.0877 82.4362 22.0952 82.3943C22.1504 82.0853 22.2216 81.7809 22.3077 81.4829C22.3288 81.411 22.3504 81.3396 22.3728 81.2684C22.4012 81.1775 22.4312 81.0874 22.4626 80.9979L22.531 80.8103C22.6345 80.5342 22.7511 80.2648 22.8799 80.0025L22.8938 79.975L22.8461 79.9474C22.3511 79.6665 21.7876 79.5143 21.199 79.5143ZM44.4463 78.0133H42.7061C41.2855 78.0133 39.9934 78.7447 39.2462 79.9193L39.2608 79.9478C39.4004 80.2273 39.5261 80.5151 39.637 80.81C39.6517 80.8502 39.6662 80.8897 39.6805 80.9292C39.7269 81.0572 39.7707 81.1881 39.8115 81.3202C39.8215 81.3537 39.8318 81.3877 39.8419 81.4218L39.8915 81.5946L39.9375 81.7682C39.9879 81.9673 40.0319 82.169 40.069 82.3731C40.0777 82.4223 40.0863 82.4716 40.0944 82.521C40.1126 82.6298 40.1286 82.7393 40.1427 82.8494C40.151 82.9162 40.1588 82.9829 40.1659 83.0497C40.176 83.1444 40.1846 83.2403 40.1917 83.3367C40.1961 83.3981 40.2 83.459 40.2033 83.5199L40.2132 83.7665L40.2166 84.0152V86.2762H44.4463C46.7137 86.2762 48.5518 84.4264 48.5518 82.1447C48.5518 79.863 46.7137 78.0133 44.4463 78.0133ZM37.5487 82.446V82.452L37.5507 82.456L37.5487 82.446ZM37.1365 81.2614L37.1405 81.2675L37.1389 81.2629L37.1265 81.2374L37.1365 81.2614ZM18.5916 66.5311C21.331 66.5311 23.5601 68.7369 23.5601 71.4686C23.5601 74.2002 21.331 76.406 18.5916 76.406C15.8521 76.406 13.623 74.2002 13.623 71.4686C13.623 68.7369 15.8521 66.5311 18.5916 66.5311ZM43.755 64.2795C46.6627 64.2795 49.0267 66.6263 49.0267 69.5297C49.0267 72.4331 46.6627 74.7799 43.755 74.7799C40.8473 74.7799 38.4834 72.4331 38.4834 69.5297C38.4834 66.6263 40.8473 64.2795 43.755 64.2795ZM18.5916 69.0258C17.212 69.0258 16.102 70.1242 16.102 71.4686C16.102 72.8129 17.212 73.9113 18.5916 73.9113C19.9711 73.9113 21.0811 72.8129 21.0811 71.4686C21.0811 70.1242 19.9711 69.0258 18.5916 69.0258ZM31.1461 60.7582C34.3669 60.7582 36.9847 63.3569 36.9847 66.5712C36.9847 69.7855 34.3669 72.3843 31.1461 72.3843C27.9252 72.3843 25.3074 69.7855 25.3074 66.5712C25.3074 63.3569 27.9252 60.7582 31.1461 60.7582ZM43.755 66.7742C42.2089 66.7742 40.9624 68.0117 40.9624 69.5297C40.9624 71.0477 42.2089 72.2852 43.755 72.2852C45.3011 72.2852 46.5477 71.0477 46.5477 69.5297C46.5477 68.0117 45.3011 66.7742 43.755 66.7742ZM31.1461 63.2529C29.2868 63.2529 27.7864 64.7424 27.7864 66.5712C27.7864 68.4001 29.2868 69.8896 31.1461 69.8896C33.0053 69.8896 34.5057 68.4001 34.5057 66.5712C34.5057 64.7424 33.0053 63.2529 31.1461 63.2529ZM37.4006 81.9338L37.4307 82.0258L37.4147 81.9702L37.3826 81.8757L37.4006 81.9338ZM37.4006 81.9338L37.3686 81.8357L37.3681 81.8308L37.3466 81.7737L37.3446 81.7677L37.3329 81.7343L37.3166 81.6916L37.3146 81.6856L37.2994 81.6438L37.2786 81.5936L37.2606 81.5476L37.2546 81.5336L37.2495 81.5193L37.2486 81.5156L37.2346 81.4816L37.2426 81.5036L37.1765 81.3475L37.1645 81.3195L37.1588 81.308L37.1365 81.2614L37.1185 81.2234L37.1205 81.2254L37.0825 81.1474L37.0745 81.1314L37.0665 81.1154L37.0705 81.1214L37.0689 81.1163L37.0463 81.0696L37.0265 81.0333L37.0245 81.0293L36.9844 80.9513L36.9644 80.9133L36.9504 80.8873L36.9404 80.8693L36.9084 80.8112L36.8732 80.7465C36.839 80.6865 36.8039 80.6271 36.7678 80.5683L36.667 80.4085L36.6103 80.325L36.6403 80.373L36.5521 80.2385C35.3509 78.5162 33.3505 77.3878 31.0839 77.3878C28.8203 77.3878 26.8222 78.5132 25.6205 80.2299L25.6179 80.2351C25.4574 80.4648 25.3122 80.7034 25.1829 80.9496L25.1611 80.9893L25.1211 81.0694L25.1371 81.0333L25.0951 81.1214L25.0911 81.1314L25.0831 81.1474L25.0457 81.2249L25.029 81.2614L25.027 81.2675L25.007 81.3075L25.003 81.3195L24.9902 81.3487L24.967 81.3975L24.979 81.3735L24.8219 81.7679C24.7706 81.9095 24.7242 82.0529 24.6828 82.1979L24.5735 82.6376L24.5628 82.6841L24.5588 82.7061L24.5488 82.7541L24.5346 82.8359L24.5248 82.8902V82.8942L24.5148 82.9502V82.9562L24.5068 83.0042L24.5028 83.0282L24.4988 83.0483V83.0503L24.4622 83.3567C24.441 83.5718 24.4302 83.789 24.4302 84.0077L24.4428 86.1002L24.4439 86.2762H37.7376V84.0152C37.7376 83.8614 37.7323 83.7084 37.7219 83.5564L37.7168 83.5145L37.7188 83.5185C37.7179 83.5012 37.7168 83.4879 37.7157 83.4745L37.7168 83.5145L37.7148 83.4704L37.7108 83.4284L37.7059 83.3643L37.7008 83.3364L37.6908 83.2403L37.6848 83.1923V83.1863L37.6845 83.1734L37.6644 83.0294L37.6533 82.9566L37.6305 82.825L37.5987 82.6681L37.5927 82.6361L37.5847 82.6021L37.5698 82.5289L37.5507 82.456L37.5647 82.52L37.5487 82.452L37.5347 82.394L37.5287 82.372V82.368L37.4877 82.2101L37.4827 82.1979L37.4667 82.1438L37.4006 81.9338Z" fill="white"/>
</g>
<g clip-path="url(#clip1_98_3112)">
<path d="M121.025 76.1265C119.947 74.2595 119.947 71.9592 121.025 70.0921L133.57 46.7608C134.648 44.8937 136.64 43.7436 138.796 43.7436H163.886C166.042 43.7436 168.034 44.8937 169.112 46.7608L181.657 70.0921C182.735 71.9592 182.735 74.2595 181.657 76.1265L169.112 98.9235C168.034 100.791 166.042 101.941 163.886 101.941H138.796C136.64 101.941 134.648 100.791 133.57 98.9235L121.025 76.1265Z" fill="#6ABF6C"/>
<path fill-rule="evenodd" clip-rule="evenodd" d="M146.712 54.7662L152.816 73.0975H171.128L146.712 54.7662Z" fill="white"/>
<path fill-rule="evenodd" clip-rule="evenodd" d="M171.128 73.0974H152.816L146.712 91.4483L171.128 73.0974Z" fill="white"/>
<path fill-rule="evenodd" clip-rule="evenodd" d="M136.029 91.4483L142.153 88.3767L146.711 73.0974H140.607L136.029 91.4483Z" fill="white"/>
<path fill-rule="evenodd" clip-rule="evenodd" d="M136.029 54.7661L140.607 73.0974H146.711L142.153 57.8181L136.029 54.7661Z" fill="white"/>
</g>
<g clip-path="url(#clip2_98_3112)">
<path d="M230.556 76.1265C229.478 74.2595 229.478 71.9592 230.556 70.0921L243.1 46.7608C244.178 44.8937 246.171 43.7436 248.326 43.7436H273.416C275.572 43.7436 277.564 44.8937 278.642 46.7608L291.187 70.0921C292.265 71.9592 292.265 74.2595 291.187 76.1265L278.642 98.9235C277.564 100.791 275.572 101.941 273.416 101.941H248.326C246.171 101.941 244.178 100.791 243.1 98.9235L230.556 76.1265Z" fill="#F1668F"/>
<path fill-rule="evenodd" clip-rule="evenodd" d="M250.185 57.101L240.967 62.549V87.1836L250.185 92.6316V87.8942L244.915 84.7754V64.9572L250.185 61.8384V57.101Z" fill="white"/>
<path fill-rule="evenodd" clip-rule="evenodd" d="M255.436 69.2206L260.706 72.3197L265.976 69.2206V62.983L260.706 59.884L255.436 62.983V69.2206Z" fill="white"/>
<path fill-rule="evenodd" clip-rule="evenodd" d="M255.436 62.9831V69.2207L260.706 72.3198L265.976 69.2207V62.9831L260.706 66.1019L255.436 62.9831Z" fill="white"/>
<path fill-rule="evenodd" clip-rule="evenodd" d="M260.706 72.3198L265.976 69.2207V62.9831L260.706 66.1019V72.3198Z" fill="white"/>
<path fill-rule="evenodd" clip-rule="evenodd" d="M262.028 82.0316L267.279 85.1307L272.549 82.0316V75.794L267.279 72.6752L262.028 75.794V82.0316Z" fill="white"/>
<path fill-rule="evenodd" clip-rule="evenodd" d="M262.028 75.7939V82.0316L267.279 85.1306L272.549 82.0316V75.7939L267.279 78.9127L262.028 75.7939Z" fill="white"/>
<path fill-rule="evenodd" clip-rule="evenodd" d="M267.279 85.1306L272.55 82.0316V75.7939L267.279 78.9127V85.1306Z" fill="white"/>
<path fill-rule="evenodd" clip-rule="evenodd" d="M248.862 82.0316L254.133 85.1307L259.383 82.0316V75.794L254.133 72.6752L248.862 75.794V82.0316Z" fill="white"/>
<path fill-rule="evenodd" clip-rule="evenodd" d="M248.862 75.7939V82.0316L254.133 85.1306L259.383 82.0316V75.7939L254.133 78.9127L248.862 75.7939Z" fill="white"/>
<path fill-rule="evenodd" clip-rule="evenodd" d="M254.133 85.1306L259.383 82.0316V75.7939L254.133 78.9127V85.1306Z" fill="white"/>
<path fill-rule="evenodd" clip-rule="evenodd" d="M240.967 67.306V82.446L244.915 84.7753V64.957L240.967 67.306Z" fill="white"/>
<path fill-rule="evenodd" clip-rule="evenodd" d="M240.967 67.306L244.915 66.398V64.957L240.967 67.306Z" fill="white"/>
<path fill-rule="evenodd" clip-rule="evenodd" d="M244.915 84.7753V83.6305L240.967 82.4461L244.915 84.7753Z" fill="white"/>
<path fill-rule="evenodd" clip-rule="evenodd" d="M271.227 57.1009V61.8383L276.497 64.9571V84.7753L271.227 87.8942V92.6316L280.445 87.1835V62.5489L271.227 57.1009Z" fill="white"/>
<path fill-rule="evenodd" clip-rule="evenodd" d="M276.497 84.7753L280.445 82.446V67.306L276.497 64.957V84.7753Z" fill="white"/>
<path fill-rule="evenodd" clip-rule="evenodd" d="M276.497 66.398L280.445 67.306L276.497 64.957V66.398Z" fill="white"/>
<path fill-rule="evenodd" clip-rule="evenodd" d="M276.497 83.6305V84.7753L280.445 82.4461L276.497 83.6305Z" fill="white"/>
</g>
<path d="M116 75L110.969 72.1676L111.032 77.9408L116 75ZM66.7349 76.034L111.506 75.5487L111.495 74.5488L66.7241 75.0341L66.7349 76.034Z" fill="black"/>
<path d="M226 75L220.961 72.1811L221.039 77.954L226 75ZM186.483 76.034L221.507 75.5608L221.494 74.5608L186.47 75.0341L186.483 76.034Z" fill="black"/>
<defs>
<clipPath id="clip0_98_3112">
<rect width="62.5126" height="62.5126" fill="white" transform="translate(0 43.7437)"/>
</clipPath>
<clipPath id="clip1_98_3112">
<rect width="62.5126" height="62.5126" fill="white" transform="translate(120.217 43.7436)"/>
</clipPath>
<clipPath id="clip2_98_3112">
<rect width="62.5126" height="62.5126" fill="white" transform="translate(229.747 43.7436)"/>
</clipPath>
</defs>
</svg>
