<svg width="348" height="150" viewBox="0 0 348 150" fill="none" xmlns="http://www.w3.org/2000/svg">
<path d="M141.58 38.8899C140.42 36.8798 140.42 34.4033 141.58 32.3932L155.086 9.00037C156.247 6.9903 158.391 5.75204 160.712 5.75204H187.724C190.045 5.75204 192.19 6.9903 193.35 9.00037L206.856 32.3932C208.017 34.4033 208.017 36.8798 206.856 38.8899L193.35 64.0084C192.19 66.0184 190.045 67.2567 187.724 67.2567H160.712C158.391 67.2567 156.247 66.0184 155.086 64.0084L141.58 38.8899Z" fill="#BA96FF"/>
<path d="M141.58 38.8899C140.42 36.8798 140.42 34.4033 141.58 32.3932L155.086 9.00037C156.247 6.9903 158.391 5.75204 160.712 5.75204H187.724C190.045 5.75204 192.19 6.9903 193.35 9.00037L206.856 32.3932C208.017 34.4033 208.017 36.8798 206.856 38.8899L193.35 64.0084C192.19 66.0184 190.045 67.2567 187.724 67.2567H160.712C158.391 67.2567 156.247 66.0184 155.086 64.0084L141.58 38.8899Z" fill="black" fill-opacity="0.2"/>
<path d="M141.58 34.8635C140.42 32.8534 140.42 30.3769 141.58 28.3668L155.086 3.24832C156.247 1.23825 158.391 0 160.712 0H187.724C190.045 0 192.19 1.23825 193.35 3.24832L206.856 28.3668C208.017 30.3769 208.017 32.8534 206.856 34.8635L193.35 59.4068C192.19 61.4169 190.045 62.6551 187.724 62.6551H160.712C158.391 62.6551 156.247 61.4169 155.086 59.4068L141.58 34.8635Z" fill="#BA96FF"/>
<path d="M174.354 8.06845C173.605 8.06845 173.052 8.72004 173.052 9.5555V9.9653C173.052 10.4382 173.141 10.806 173.189 11.2264C173.326 12.1564 173.416 12.9499 173.368 13.696C173.278 13.9745 173.094 14.2057 172.904 14.3896V14.9518C172.113 15.0412 171.322 15.1357 170.494 15.3196C167.103 16.1078 164.135 17.9258 161.909 20.3954C161.772 20.3008 161.488 20.1169 161.445 20.0276C161.213 20.0696 160.981 20.1642 160.654 19.975C160.053 19.5547 159.547 18.9977 158.893 18.2936C158.577 17.9784 158.387 17.6946 158.012 17.3689C157.923 17.2743 157.828 17.1849 157.733 17.1376C157.459 16.9064 157.132 16.7698 156.81 16.7698C156.388 16.7698 156.019 16.9065 155.74 17.2322C155.276 17.8418 155.465 18.7245 156.066 19.2289L156.119 19.2815C156.156 19.334 156.299 19.4233 156.346 19.4706C156.768 19.7491 157.084 19.933 157.453 20.1222C158.244 20.6319 158.893 21.0522 159.405 21.5619C159.637 21.7983 159.637 22.1662 159.684 22.3501L160.106 22.7284C157.828 26.2173 156.81 30.547 157.416 34.9187L156.852 35.1079C156.715 35.2918 156.536 35.5702 156.299 35.6648C155.603 35.896 154.859 35.9906 153.926 36.0852C153.514 36.1377 153.145 36.0851 152.681 36.1745C152.586 36.1745 152.449 36.227 152.312 36.2691C151.521 36.4582 151.009 37.1991 151.194 37.8979C151.336 38.6441 152.08 39.054 152.866 38.9226C152.866 38.9226 152.918 38.9225 152.918 38.87C153.05 38.87 153.193 38.828 153.287 38.828C153.699 38.6914 154.026 38.5022 154.448 38.3656C155.323 38.0398 156.019 37.7614 156.768 37.6668C157.042 37.6142 157.364 37.8454 157.506 37.94L158.06 37.7981C159.404 42.0332 162.141 45.4328 165.664 47.5714L165.437 48.1336C165.532 48.3648 165.627 48.6906 165.532 48.9218C165.3 49.5733 164.836 50.3195 164.372 51.1076C164.092 51.4754 163.86 51.7592 163.634 52.1796C163.581 52.2741 163.539 52.458 163.491 52.5473C163.122 53.2987 163.407 54.1342 164.056 54.46C164.704 54.7857 165.49 54.4599 165.864 53.7243C165.906 53.6192 166.001 53.4826 166.049 53.346C166.233 52.9257 166.281 52.5578 166.418 52.1375C166.745 51.2442 166.929 50.2722 167.441 49.7204C167.573 49.526 167.757 49.484 167.989 49.4367L168.269 48.8745C171.327 50.083 174.755 50.3667 178.193 49.5733C178.931 49.3894 179.722 49.153 180.408 48.8745C180.513 49.0636 180.693 49.3474 180.693 49.3894C180.925 49.4945 181.204 49.5313 181.389 49.8098C181.758 50.4613 181.99 51.2075 182.269 52.0902C182.407 52.5106 182.501 52.9309 182.691 53.3513C182.733 53.4406 182.781 53.5825 182.828 53.6771C183.197 54.4127 183.978 54.791 184.621 54.4652C185.28 54.1394 185.555 53.3092 185.185 52.5579C185.133 52.416 185.091 52.2794 185.048 52.1901C184.822 51.7697 184.59 51.486 184.363 51.1129C183.846 50.2722 183.43 49.6259 183.15 48.927C183.055 48.6012 183.203 48.37 183.287 48.1389C183.198 48.0863 183.103 47.771 183.06 47.6239C186.678 45.3908 189.367 41.8546 190.617 37.7981C190.802 37.7981 191.081 37.9032 191.218 37.9032C191.408 37.7561 191.587 37.5722 191.914 37.6194C192.652 37.714 193.354 37.9873 194.234 38.3183C194.656 38.4549 194.973 38.6441 195.395 38.7807C195.49 38.8333 195.627 38.8332 195.764 38.8858H195.816C196.607 39.0697 197.346 38.602 197.483 37.9032C197.667 37.1571 197.156 36.4162 196.375 36.2218C196.27 36.2218 196.091 36.1798 195.996 36.1377C195.532 36.0431 195.163 36.0851 194.746 36.0431C193.813 35.938 193.069 35.8487 192.373 35.6228C192.094 35.5177 191.909 35.2024 191.819 35.0605L191.26 34.8714C191.535 32.8221 191.487 30.7309 190.976 28.5923C190.512 26.4485 189.678 24.4518 188.518 22.7284C188.661 22.5865 188.94 22.3606 188.982 22.308C189.035 22.0296 188.982 21.7984 189.262 21.5199C189.779 21.047 190.422 20.6266 191.213 20.1222C191.582 19.8857 191.909 19.7544 192.283 19.4706C192.373 19.3761 192.515 19.2814 192.6 19.2341C193.211 18.7297 193.349 17.7997 192.932 17.2375C192.468 16.6385 191.587 16.5912 190.939 17.1009C190.844 17.1955 190.749 17.2847 190.659 17.332C190.29 17.6578 190.1 17.9836 189.779 18.3094C189.13 18.9609 188.618 19.5179 188.012 19.9383C187.738 20.0802 187.363 20.0328 187.221 20.0328L186.715 20.4007C183.841 17.3321 179.991 15.3774 175.773 14.9623V14.3581C175.583 14.2162 175.351 14.0743 175.309 13.7013C175.256 12.9656 175.361 12.1669 175.493 11.2316C175.535 10.8113 175.625 10.4435 175.625 9.98108V9.56076C175.625 8.72005 175.071 8.06845 174.328 8.06845H174.354ZM172.683 18.5406L172.313 25.6551H172.261C172.261 26.3067 171.754 26.8111 171.101 26.8111C170.874 26.8111 170.637 26.7217 170.452 26.5851H170.399L164.757 22.4499C166.513 20.6791 168.738 19.4234 171.296 18.8243C171.755 18.6772 172.213 18.6299 172.683 18.5406ZM176.021 18.5406C178.989 18.9084 181.768 20.3008 183.904 22.4446L178.251 26.5431C177.74 26.9109 177.038 26.8164 176.669 26.3067C176.49 26.1175 176.395 25.8863 176.395 25.6551L176.021 18.5406ZM162.711 25.0929L167.905 29.8429L167.852 29.8954C168.327 30.3158 168.411 31.0094 168.042 31.5243C167.857 31.7555 167.673 31.8501 167.441 31.9447H167.388L160.797 33.9413C160.427 30.7782 161.166 27.6623 162.706 25.0981L162.711 25.0929ZM185.945 25.0929C186.736 26.4065 187.29 27.7937 187.659 29.3752C187.986 30.9148 188.081 32.4018 187.938 33.8941L181.262 31.9342V31.8816C180.656 31.745 180.287 31.0935 180.419 30.4892C180.524 30.2107 180.608 30.0163 180.798 29.8376L185.945 25.0929ZM173.289 30.2159H175.414L176.722 31.8974L176.258 34.0307L174.36 34.9607L172.461 34.0307L171.987 31.8921L173.289 30.2159ZM180.102 35.9853C180.144 35.9853 180.239 35.9853 180.334 36.0378H180.376L187.195 37.1939C186.224 40.0838 184.273 42.5954 181.721 44.2663L179.084 37.6615C178.847 37.0993 179.084 36.4004 179.638 36.1219C179.775 36.0274 179.912 36.0273 180.102 35.9801V35.9853ZM168.554 36.0378C169.107 36.0378 169.571 36.4057 169.661 36.9626C169.756 37.1938 169.714 37.4723 169.619 37.7088L167.024 44.2663C164.52 42.6374 162.569 40.2204 161.551 37.2411L168.322 36.0327H168.554V36.0378ZM174.301 38.9173C174.486 38.8648 174.671 38.9173 174.86 39.0119C175.093 39.1485 175.282 39.2904 175.372 39.5215H175.414L178.763 45.7586C178.299 45.8952 177.882 46.0371 177.418 46.1264C174.866 46.7359 172.314 46.5467 169.993 45.706L173.336 39.5215C173.521 39.1537 173.89 38.9173 174.307 38.9173H174.301Z" fill="white" stroke="white" stroke-width="0.0262722"/>
<rect y="81.6805" width="105.183" height="39.7235" rx="4.27437" fill="#F5DC4E"/>
<path d="M31.2418 107.031C30.3376 107.031 29.5409 106.83 28.8516 106.427C28.1713 106.015 27.6342 105.447 27.2403 104.722C26.8554 103.988 26.6629 103.137 26.6629 102.171C26.6629 101.213 26.8554 100.371 27.2403 99.6462C27.6342 98.9121 28.1713 98.3392 28.8516 97.9274C29.5409 97.5156 30.3376 97.3098 31.2418 97.3098C32.1638 97.3098 32.9694 97.5156 33.6587 97.9274C34.348 98.3392 34.8806 98.9121 35.2566 99.6462C35.6415 100.371 35.834 101.213 35.834 102.171C35.834 103.137 35.6415 103.988 35.2566 104.722C34.8806 105.447 34.348 106.015 33.6587 106.427C32.9694 106.83 32.1638 107.031 31.2418 107.031ZM31.2552 105.836C31.8997 105.836 32.4637 105.689 32.9471 105.393C33.4305 105.098 33.802 104.677 34.0616 104.131C34.3301 103.585 34.4644 102.931 34.4644 102.171C34.4644 101.41 34.3301 100.756 34.0616 100.21C33.802 99.6641 33.4305 99.2478 32.9471 98.9614C32.4637 98.6659 31.8997 98.5182 31.2552 98.5182C30.6107 98.5182 30.0467 98.6659 29.5633 98.9614C29.0799 99.2478 28.7039 99.6641 28.4354 100.21C28.1668 100.756 28.0325 101.41 28.0325 102.171C28.0325 102.931 28.1668 103.585 28.4354 104.131C28.7039 104.677 29.0799 105.098 29.5633 105.393C30.0467 105.689 30.6107 105.836 31.2552 105.836ZM41.0754 107.031C40.7084 107.031 40.3727 106.978 40.0683 106.87C39.7729 106.772 39.5133 106.633 39.2895 106.454C39.0657 106.275 38.8777 106.069 38.7256 105.836L38.5913 106.87H37.3828V97.2023H38.7256V101.163C38.9404 100.823 39.2403 100.537 39.6252 100.304C40.0191 100.062 40.5025 99.9416 41.0754 99.9416C41.7199 99.9416 42.2884 100.098 42.7807 100.412C43.2731 100.716 43.6535 101.137 43.9221 101.674C44.1996 102.202 44.3383 102.811 44.3383 103.5C44.3383 104.171 44.1996 104.776 43.9221 105.313C43.6535 105.85 43.2731 106.27 42.7807 106.575C42.2884 106.879 41.7199 107.031 41.0754 107.031ZM40.8606 105.863C41.2723 105.863 41.6349 105.765 41.9482 105.568C42.2705 105.371 42.5211 105.093 42.7002 104.735C42.8881 104.377 42.9821 103.961 42.9821 103.486C42.9821 103.012 42.8881 102.6 42.7002 102.251C42.5211 101.893 42.2705 101.616 41.9482 101.419C41.6349 101.213 41.2723 101.11 40.8606 101.11C40.4398 101.11 40.0683 101.213 39.7461 101.419C39.4328 101.616 39.1866 101.893 39.0076 102.251C38.8285 102.6 38.739 103.012 38.739 103.486C38.739 103.961 38.8285 104.377 39.0076 104.735C39.1866 105.093 39.4328 105.371 39.7461 105.568C40.0683 105.765 40.4398 105.863 40.8606 105.863ZM48.5246 107.031C47.9517 107.031 47.4504 106.937 47.0207 106.749C46.591 106.561 46.2509 106.297 46.0002 105.957C45.7496 105.617 45.5974 105.219 45.5437 104.762H46.9133C46.958 104.977 47.0431 105.174 47.1684 105.353C47.3027 105.532 47.4817 105.675 47.7055 105.783C47.9383 105.89 48.2113 105.944 48.5246 105.944C48.82 105.944 49.0617 105.903 49.2497 105.823C49.4466 105.733 49.5899 105.617 49.6794 105.474C49.7689 105.322 49.8137 105.16 49.8137 104.99C49.8137 104.74 49.751 104.552 49.6257 104.426C49.5093 104.292 49.3303 104.189 49.0886 104.118C48.8558 104.037 48.5738 103.965 48.2426 103.903C47.9293 103.849 47.625 103.777 47.3295 103.688C47.0431 103.589 46.7835 103.469 46.5507 103.325C46.3269 103.182 46.1479 103.003 46.0136 102.788C45.8794 102.564 45.8122 102.291 45.8122 101.969C45.8122 101.584 45.9152 101.24 46.1211 100.935C46.3269 100.622 46.6179 100.38 46.9939 100.21C47.3788 100.031 47.8308 99.9416 48.35 99.9416C49.102 99.9416 49.7062 100.121 50.1628 100.479C50.6193 100.837 50.8879 101.343 50.9684 101.996H49.666C49.6302 101.692 49.4959 101.459 49.2631 101.298C49.0304 101.128 48.7215 101.043 48.3366 101.043C47.9517 101.043 47.6563 101.119 47.4504 101.271C47.2445 101.423 47.1416 101.625 47.1416 101.875C47.1416 102.036 47.1997 102.18 47.3161 102.305C47.4325 102.43 47.6026 102.538 47.8264 102.627C48.0591 102.708 48.3411 102.784 48.6723 102.855C49.1468 102.945 49.572 103.057 49.9479 103.191C50.3239 103.325 50.6238 103.522 50.8476 103.782C51.0714 104.041 51.1833 104.413 51.1833 104.896C51.1922 105.317 51.0848 105.689 50.861 106.011C50.6462 106.333 50.3373 106.584 49.9345 106.763C49.5406 106.942 49.0707 107.031 48.5246 107.031ZM55.8258 107.031C55.1813 107.031 54.6083 106.884 54.107 106.588C53.6058 106.293 53.2119 105.881 52.9254 105.353C52.6479 104.825 52.5092 104.212 52.5092 103.513C52.5092 102.797 52.6479 102.175 52.9254 101.647C53.2119 101.11 53.6058 100.694 54.107 100.398C54.6083 100.094 55.1902 99.9416 55.8526 99.9416C56.5151 99.9416 57.0835 100.089 57.558 100.385C58.0324 100.68 58.3994 101.074 58.659 101.566C58.9186 102.05 59.0484 102.587 59.0484 103.178C59.0484 103.267 59.0439 103.366 59.035 103.473C59.035 103.572 59.0305 103.683 59.0216 103.809H53.4894V102.855H57.7057C57.6788 102.291 57.4908 101.853 57.1417 101.539C56.7926 101.217 56.3584 101.056 55.8392 101.056C55.4722 101.056 55.1365 101.141 54.8321 101.311C54.5278 101.472 54.2816 101.714 54.0936 102.036C53.9146 102.35 53.8251 102.748 53.8251 103.231V103.607C53.8251 104.109 53.9146 104.534 54.0936 104.883C54.2816 105.223 54.5278 105.483 54.8321 105.662C55.1365 105.832 55.4677 105.917 55.8258 105.917C56.2555 105.917 56.6091 105.823 56.8866 105.635C57.1641 105.447 57.37 105.192 57.5042 104.87H58.847C58.7306 105.281 58.5337 105.653 58.2562 105.984C57.9787 106.306 57.634 106.561 57.2223 106.749C56.8194 106.937 56.3539 107.031 55.8258 107.031ZM60.5403 106.87V100.103H61.7487L61.8696 101.378C62.0218 101.074 62.2187 100.819 62.4604 100.613C62.7021 100.398 62.9841 100.233 63.3064 100.116C63.6376 99.9998 64.0135 99.9416 64.4343 99.9416V101.365H63.9509C63.6734 101.365 63.4093 101.401 63.1587 101.472C62.908 101.535 62.6842 101.647 62.4873 101.808C62.2993 101.969 62.1516 102.188 62.0442 102.466C61.9367 102.743 61.883 103.088 61.883 103.5V106.87H60.5403ZM67.5876 106.87L65.0497 100.103H66.4596L68.3798 105.581L70.3134 100.103H71.6964L69.172 106.87H67.5876ZM75.6394 107.031C74.9949 107.031 74.422 106.884 73.9207 106.588C73.4194 106.293 73.0255 105.881 72.7391 105.353C72.4616 104.825 72.3228 104.212 72.3228 103.513C72.3228 102.797 72.4616 102.175 72.7391 101.647C73.0255 101.11 73.4194 100.694 73.9207 100.398C74.422 100.094 75.0039 99.9416 75.6663 99.9416C76.3287 99.9416 76.8972 100.089 77.3716 100.385C77.8461 100.68 78.2131 101.074 78.4727 101.566C78.7323 102.05 78.8621 102.587 78.8621 103.178C78.8621 103.267 78.8576 103.366 78.8487 103.473C78.8487 103.572 78.8442 103.683 78.8352 103.809H73.303V102.855H77.5193C77.4925 102.291 77.3045 101.853 76.9554 101.539C76.6062 101.217 76.1721 101.056 75.6529 101.056C75.2859 101.056 74.9502 101.141 74.6458 101.311C74.3414 101.472 74.0953 101.714 73.9073 102.036C73.7282 102.35 73.6387 102.748 73.6387 103.231V103.607C73.6387 104.109 73.7282 104.534 73.9073 104.883C74.0953 105.223 74.3414 105.483 74.6458 105.662C74.9502 105.832 75.2814 105.917 75.6394 105.917C76.0691 105.917 76.4227 105.823 76.7002 105.635C76.9777 105.447 77.1836 105.192 77.3179 104.87H78.6607C78.5443 105.281 78.3474 105.653 78.0699 105.984C77.7923 106.306 77.4477 106.561 77.0359 106.749C76.6331 106.937 76.1676 107.031 75.6394 107.031Z" fill="black"/>
<rect x="276.945" y="81.6805" width="71.0547" height="39.7235" rx="4.27437" fill="#F1668F"/>
<path d="M301.443 106.87L304.894 97.4709H306.357L309.808 106.87H308.371L305.619 99.0823L302.853 106.87H301.443ZM303 104.547L303.376 103.473H307.794L308.17 104.547H303ZM313.855 107.031C313.201 107.031 312.619 106.884 312.109 106.588C311.599 106.284 311.196 105.868 310.901 105.34C310.614 104.811 310.471 104.198 310.471 103.5C310.471 102.793 310.614 102.175 310.901 101.647C311.196 101.11 311.599 100.694 312.109 100.398C312.619 100.094 313.201 99.9416 313.855 99.9416C314.678 99.9416 315.368 100.156 315.923 100.586C316.478 101.016 316.831 101.598 316.983 102.332H315.587C315.497 101.938 315.292 101.634 314.969 101.419C314.656 101.204 314.28 101.096 313.841 101.096C313.483 101.096 313.152 101.19 312.848 101.378C312.543 101.557 312.297 101.826 312.109 102.184C311.93 102.533 311.841 102.967 311.841 103.487C311.841 103.871 311.894 104.216 312.002 104.52C312.109 104.816 312.252 105.067 312.431 105.272C312.619 105.478 312.834 105.635 313.076 105.742C313.318 105.841 313.573 105.89 313.841 105.89C314.137 105.89 314.401 105.845 314.634 105.756C314.875 105.657 315.077 105.514 315.238 105.326C315.408 105.138 315.524 104.914 315.587 104.655H316.983C316.831 105.371 316.478 105.948 315.923 106.387C315.368 106.817 314.678 107.031 313.855 107.031ZM321.203 106.87C320.774 106.87 320.402 106.803 320.089 106.669C319.775 106.535 319.534 106.311 319.364 105.998C319.194 105.684 319.109 105.259 319.109 104.722V101.244H317.94V100.103H319.109L319.27 98.4109H320.451V100.103H322.371V101.244H320.451V104.735C320.451 105.12 320.532 105.384 320.693 105.528C320.854 105.662 321.132 105.729 321.526 105.729H322.304V106.87H321.203Z" fill="black"/>
<rect x="153.858" y="81.6805" width="74.4116" height="39.7235" rx="4.27437" fill="#6ABF6C"/>
<path d="M181.04 106.87V97.4709H183.927C185.019 97.4709 185.924 97.6634 186.64 98.0483C187.356 98.4333 187.884 98.9793 188.224 99.6865C188.573 100.385 188.748 101.217 188.748 102.184C188.748 103.151 188.573 103.983 188.224 104.682C187.884 105.38 187.356 105.921 186.64 106.306C185.933 106.682 185.028 106.87 183.927 106.87H181.04ZM182.383 105.742H183.874C184.742 105.742 185.431 105.599 185.941 105.313C186.452 105.026 186.814 104.619 187.029 104.091C187.253 103.554 187.365 102.918 187.365 102.184C187.365 101.441 187.253 100.801 187.029 100.264C186.814 99.7268 186.452 99.315 185.941 99.0286C185.431 98.7421 184.742 98.5989 183.874 98.5989H182.383V105.742ZM190.391 106.87V100.103H191.733V106.87H190.391ZM191.075 98.8271C190.816 98.8271 190.601 98.7466 190.431 98.5854C190.27 98.4243 190.189 98.2184 190.189 97.9678C190.189 97.7261 190.27 97.5291 190.431 97.3769C190.601 97.2158 190.816 97.1353 191.075 97.1353C191.326 97.1353 191.536 97.2158 191.706 97.3769C191.877 97.5291 191.962 97.7261 191.962 97.9678C191.962 98.2184 191.877 98.4243 191.706 98.5854C191.536 98.7466 191.326 98.8271 191.075 98.8271ZM194.016 106.87V99.1897C194.016 98.7242 194.092 98.3437 194.244 98.0483C194.405 97.7529 194.638 97.5381 194.943 97.4038C195.247 97.2695 195.614 97.2024 196.044 97.2024H196.836V98.3437H196.258C195.936 98.3437 195.703 98.4109 195.56 98.5452C195.426 98.6705 195.359 98.8943 195.359 99.2165V106.87H194.016ZM193.022 101.244V100.103H196.984V101.244H193.022ZM198.71 106.87V99.1897C198.71 98.7242 198.787 98.3437 198.939 98.0483C199.1 97.7529 199.333 97.5381 199.637 97.4038C199.941 97.2695 200.308 97.2024 200.738 97.2024H201.53V98.3437H200.953C200.631 98.3437 200.398 98.4109 200.255 98.5452C200.12 98.6705 200.053 98.8943 200.053 99.2165V106.87H198.71ZM197.717 101.244V100.103H201.678V101.244H197.717Z" fill="black"/>
<path d="M149.382 101.822L144.382 98.9352V104.709L149.382 101.822ZM108.54 102.322H144.882V101.322H108.54V102.322Z" fill="black"/>
<path d="M273.029 101.822L268.029 98.9352V104.709L273.029 101.822ZM232.187 102.322H268.529V101.322H232.187V102.322Z" fill="black"/>
<path d="M52.5914 124.761L55.4782 129.761H49.7047L52.5914 124.761ZM52.5914 149.378V149.878H52.0914V149.378H52.5914ZM314.431 149.378H314.931V149.878H314.431V149.378ZM52.0914 149.378V129.261H53.0914V149.378H52.0914ZM314.931 124.761V149.378H313.931V124.761H314.931ZM314.431 149.878H52.5914V148.878H314.431V149.878Z" fill="black"/>
</svg>
