<svg width="307" height="232" viewBox="0 0 307 232" fill="none" xmlns="http://www.w3.org/2000/svg">
<rect width="104.014" height="92.8694" rx="3.60902" transform="matrix(-1 0 0 1 205.221 22)" fill="#BA96FF"/>
<path d="M205.207 25.609C205.207 23.6158 203.591 22 201.598 22H104.816C102.823 22 101.207 23.6158 101.207 25.609V42H205.207V25.609Z" fill="white"/>
<path d="M205.207 25.609C205.207 23.6158 203.591 22 201.598 22H104.816C102.823 22 101.207 23.6158 101.207 25.609V41H205.207V25.609Z" fill="#BA96FF"/>
<path d="M205.207 25.609C205.207 23.6158 203.591 22 201.598 22H104.816C102.823 22 101.207 23.6158 101.207 25.609V41H205.207V25.609Z" fill="black" fill-opacity="0.2"/>
<rect width="70" height="63" rx="3.60902" transform="matrix(-1 0 0 1 70.207 0)" fill="#6ABF6C"/>
<path d="M70.207 3.60902C70.207 1.61581 68.5912 0 66.598 0H3.81605C1.82284 0 0.207031 1.61581 0.207031 3.60902V17H70.207V3.60902Z" fill="white"/>
<path d="M70.207 3.60902C70.207 1.61581 68.5912 0 66.598 0H3.81605C1.82284 0 0.207031 1.61581 0.207031 3.60902V15H70.207V3.60902Z" fill="#6ABF6C"/>
<path d="M70.207 3.60902C70.207 1.61581 68.5912 0 66.598 0H3.81605C1.82284 0 0.207031 1.61581 0.207031 3.60902V15H70.207V3.60902Z" fill="black" fill-opacity="0.2"/>
<rect width="70" height="63" rx="3.60902" transform="matrix(-1 0 0 1 70.207 79)" fill="#6ABF6C"/>
<path d="M70.207 82.609C70.207 80.6158 68.5912 79 66.598 79H3.81605C1.82284 79 0.207031 80.6158 0.207031 82.609V96H70.207V82.609Z" fill="white"/>
<path d="M70.207 82.609C70.207 80.6158 68.5912 79 66.598 79H3.81605C1.82284 79 0.207031 80.6158 0.207031 82.609V94H70.207V82.609Z" fill="#6ABF6C"/>
<path d="M70.207 82.609C70.207 80.6158 68.5912 79 66.598 79H3.81605C1.82284 79 0.207031 80.6158 0.207031 82.609V94H70.207V82.609Z" fill="black" fill-opacity="0.2"/>
<rect width="82.4936" height="73.1683" rx="3.60902" transform="matrix(-1 0 0 1 194.701 158)" fill="#F1668F"/>
<path d="M194.273 162.306C194.273 160.313 192.658 158.697 190.664 158.697H115.882C113.889 158.697 112.273 160.313 112.273 162.306V180.697H194.273V162.306Z" fill="white"/>
<path d="M194.701 161.609C194.701 159.616 193.085 158 191.092 158H115.817C113.823 158 112.208 159.616 112.208 161.609V179.52H194.701V161.609Z" fill="#F1668F"/>
<path d="M194.701 161.609C194.701 159.616 193.085 158 191.092 158H115.817C113.823 158 112.208 159.616 112.208 161.609V179.52H194.701V161.609Z" fill="black" fill-opacity="0.2"/>
<rect width="73" height="93" rx="3.07754" transform="matrix(-1 0 0 1 306.207 63)" fill="#F5DC4E"/>
<path d="M306.207 66.0775C306.207 64.3779 304.829 63 303.129 63H236.285C234.585 63 233.207 64.3779 233.207 66.0775V83H306.207V66.0775Z" fill="white"/>
<path d="M306.207 66.0775C306.207 64.3779 304.829 63 303.129 63H236.285C234.585 63 233.207 64.3779 233.207 66.0775V82H306.207V66.0775Z" fill="#F5DC4E"/>
<path d="M306.207 66.0775C306.207 64.3779 304.829 63 303.129 63H236.285C234.585 63 233.207 64.3779 233.207 66.0775V82H306.207V66.0775Z" fill="black" fill-opacity="0.1"/>
<path d="M274.207 158L271.32 163L277.094 163L274.207 158ZM274.207 195L274.207 195.5L274.707 195.5L274.707 195L274.207 195ZM194.207 195.5L274.207 195.5L274.207 194.5L194.207 194.5L194.207 195.5ZM274.707 195L274.707 162.5L273.707 162.5L273.707 195L274.707 195Z" fill="black"/>
<path d="M153.207 156L156.094 151L150.32 151L153.207 156ZM152.707 117L152.707 151.5L153.707 151.5L153.707 117L152.707 117Z" fill="black"/>
<path d="M74.207 100L75.1903 94.3108L79.6256 98.0069L74.207 100ZM99.5911 70.3201L77.472 96.8631L76.7037 96.2229L98.8229 69.6799L99.5911 70.3201Z" fill="black"/>
<path d="M74.207 41L75.1903 46.6892L79.6256 42.9931L74.207 41ZM99.5911 70.6799L77.472 44.1369L76.7037 44.7771L98.8229 71.3201L99.5911 70.6799Z" fill="black"/>
</svg>
