<svg width="48" height="48" viewBox="0 0 48 48" fill="none" xmlns="http://www.w3.org/2000/svg">
<path d="M12.75 19.6875C10.4237 19.6875 8.53125 21.5799 8.53125 23.9062V35.3438C8.53125 37.6701 10.4237 39.5625 12.75 39.5625C15.0763 39.5625 16.9688 37.6701 16.9688 35.3438V23.9062C16.9688 21.5799 15.0763 19.6875 12.75 19.6875ZM5.71875 23.9062C5.71875 23.5006 5.77228 23.1087 5.83856 22.7218C4.14375 23.2696 2.90625 24.8438 2.90625 26.7188V32.5312C2.90625 34.4062 4.14375 35.9804 5.83856 36.5282C5.77228 36.1413 5.71875 35.7494 5.71875 35.3438V23.9062ZM35.25 19.6875C32.9237 19.6875 31.0312 21.5799 31.0312 23.9062V35.3438C31.0312 37.6701 32.9237 39.5625 35.25 39.5625C35.6728 39.5625 36.0733 39.4811 36.4586 39.3649C35.9351 41.1001 34.3411 42.375 32.4375 42.375H27.9597C27.3773 40.7417 25.8309 39.5625 24 39.5625C21.6737 39.5625 19.7812 41.4549 19.7812 43.7812C19.7812 46.1076 21.6737 48 24 48C25.8309 48 27.3773 46.8208 27.9597 45.1875H32.4375C36.3143 45.1875 39.4688 42.0331 39.4688 38.1562V23.9062C39.4688 21.5799 37.5763 19.6875 35.25 19.6875ZM42.1614 22.7218C42.2277 23.1087 42.2812 23.5006 42.2812 23.9062V35.3438C42.2812 35.7494 42.2277 36.1413 42.1614 36.5282C43.8562 35.9804 45.0938 34.4062 45.0938 32.5312V26.7188C45.0938 24.8438 43.8562 23.2696 42.1614 22.7218Z" fill="#EF1C79"/>
<path d="M24 0C12.3682 0 2.90625 9.462 2.90625 21.0938V21.1297C3.74409 20.4953 4.71347 20.0312 5.78316 19.8233C6.44044 10.336 14.3488 2.8125 24 2.8125C33.6512 2.8125 41.5596 10.336 42.2168 19.8232C43.2864 20.0311 44.2558 20.4953 45.0938 21.1296V21.0938C45.0938 9.462 35.6317 0 24 0Z" fill="#EF1C79"/>
</svg>
