<svg width="48" height="48" viewBox="0 0 48 48" fill="none" xmlns="http://www.w3.org/2000/svg">
<path d="M34.7798 19.344V27.8061H38.1822V19.344C38.1822 19.0871 38.3911 18.8781 38.6481 18.8781H39.7041L36.4796 14.6005L33.258 18.8781H34.314C34.5709 18.8781 34.7798 19.0871 34.7798 19.344ZM38.6481 28.7407H32.7187V45.6847H40.2434V28.7407H38.6481ZM21.0942 35.6499H28.6161V45.6847H21.0942V35.6499ZM9.4669 40.4471H16.9888V45.6847H9.4669V40.4471ZM23.4518 31.6235C23.8923 31.2593 24.1577 30.7426 24.1972 30.1694L24.5756 24.6409C24.6208 23.9831 24.2481 23.3562 23.6495 23.0824L19.321 21.0918L19.2758 17.5708L20.9615 18.5986C21.2128 18.7511 21.4867 18.8527 21.7803 18.8951L25.6034 19.4513C26.202 19.5388 26.8062 19.3609 27.2636 18.9656C27.721 18.5704 27.9836 17.9972 27.9836 17.3929C27.9836 16.3736 27.2551 15.5096 26.25 15.3402L22.2095 14.6569L18.4147 10.9666C17.1441 9.72988 15.1789 9.58871 13.7417 10.6278L9.04619 14.0245C8.52384 14.4028 8.19913 14.9845 8.14831 15.6282L7.76148 20.7106C7.72478 21.1878 7.86878 21.6593 8.16243 22.0376C8.4589 22.416 8.8796 22.6673 9.35395 22.7492C9.88195 22.8395 10.4269 22.7012 10.8532 22.3736C11.2768 22.0461 11.545 21.5492 11.5902 21.0155L11.929 16.9553L13.962 15.5266L13.9055 23.6216L11.1102 34.4697C10.8307 35.5567 11.4123 36.6748 12.4655 37.0701C12.714 37.1633 12.9737 37.2085 13.2335 37.2085C13.5836 37.2085 13.9337 37.1238 14.25 36.9572C14.8005 36.6692 15.2043 36.1553 15.3596 35.5539L17.8895 25.5614L20.0975 26.4621L20.0551 30.0056C20.0438 31.0701 20.8288 31.9652 21.8848 32.0894C22.4551 32.1544 23.0114 31.9878 23.4518 31.6235ZM16.9747 8.90259C18.7902 8.90259 20.2697 7.42588 20.2697 5.60753C20.2697 3.792 18.793 2.31247 16.9747 2.31247C15.1591 2.31247 13.6796 3.78918 13.6796 5.60753C13.6824 7.42588 15.1591 8.90259 16.9747 8.90259Z" fill="#8035E8"/>
</svg>
