<svg width="48" height="48" viewBox="0 0 48 48" fill="none" xmlns="http://www.w3.org/2000/svg">
<path d="M45.5475 4.9275L43.2975 2.49C43.2274 2.41484 43.1426 2.35479 43.0485 2.31353C42.9544 2.27226 42.8528 2.25064 42.75 2.25H39C38.4038 2.25178 37.8325 2.48941 37.411 2.91098C36.9894 3.33255 36.7518 3.90381 36.75 4.5V11.25C36.7518 11.8462 36.9894 12.4175 37.411 12.839C37.8325 13.2606 38.4038 13.4982 39 13.5H40.5V15.75C40.4994 15.9487 40.4202 16.1392 40.2797 16.2797C40.1392 16.4202 39.9487 16.4994 39.75 16.5H26.115C26.0037 16.1851 25.8234 15.899 25.5872 15.6628C25.351 15.4266 25.0649 15.2463 24.75 15.135V13.5H26.25C26.8462 13.4982 27.4175 13.2606 27.839 12.839C28.2606 12.4175 28.4982 11.8462 28.5 11.25V5.4375C28.5011 5.24769 28.4285 5.06486 28.2975 4.9275L26.0475 2.49C25.9774 2.41484 25.8926 2.35479 25.7985 2.31353C25.7044 2.27226 25.6028 2.25064 25.5 2.25H21.75C21.1538 2.25178 20.5825 2.48941 20.161 2.91098C19.7394 3.33255 19.5018 3.90381 19.5 4.5V11.25C19.5018 11.8462 19.7394 12.4175 20.161 12.839C20.5825 13.2606 21.1538 13.4982 21.75 13.5H23.25V15.135C22.9351 15.2463 22.649 15.4266 22.4128 15.6628C22.1766 15.899 21.9963 16.1851 21.885 16.5H8.25C8.05115 16.4998 7.8605 16.4207 7.71989 16.2801C7.57928 16.1395 7.5002 15.9489 7.5 15.75V13.5H9C9.59619 13.4982 10.1675 13.2606 10.589 12.839C11.0106 12.4175 11.2482 11.8462 11.25 11.25V5.4375C11.2511 5.24769 11.1785 5.06486 11.0475 4.9275L8.7975 2.49C8.72738 2.41484 8.64265 2.35479 8.54851 2.31353C8.45436 2.27226 8.35279 2.25064 8.25 2.25H4.5C3.90381 2.25178 3.33255 2.48941 2.91098 2.91098C2.48941 3.33255 2.25178 3.90381 2.25 4.5V11.25C2.25178 11.8462 2.48941 12.4175 2.91098 12.839C3.33255 13.2606 3.90381 13.4982 4.5 13.5H6V15.75C6.0006 16.3466 6.23784 16.9185 6.65967 17.3403C7.0815 17.7622 7.65345 17.9994 8.25 18H21.885C21.9963 18.3149 22.1766 18.601 22.4128 18.8372C22.649 19.0734 22.9351 19.2537 23.25 19.365V21.75H22.935C22.4222 21.7512 21.9307 21.9554 21.5681 22.3181C21.2054 22.6807 21.0012 23.1722 21 23.685V24.0525C20.4524 24.2245 19.9205 24.4428 19.41 24.705L19.155 24.45C18.9755 24.2699 18.7621 24.127 18.5272 24.0295C18.2924 23.932 18.0406 23.8818 17.7863 23.8818C17.5319 23.8818 17.2801 23.932 17.0453 24.0295C16.8104 24.127 16.597 24.2699 16.4175 24.45L14.7 26.1675C14.5194 26.3467 14.376 26.56 14.2781 26.7949C14.1803 27.0298 14.1299 27.2818 14.1299 27.5363C14.1299 27.7907 14.1803 28.0427 14.2781 28.2776C14.376 28.5125 14.5194 28.7258 14.7 28.905L14.955 29.16C14.6928 29.6705 14.4745 30.2024 14.3025 30.75H13.935C13.4222 30.7512 12.9307 30.9554 12.5681 31.3181C12.2054 31.6807 12.0012 32.1722 12 32.685V34.815C12.0012 35.3278 12.2054 35.8193 12.5681 36.1819C12.9307 36.5446 13.4222 36.7488 13.935 36.75H14.3025C14.4745 37.2975 14.6928 37.8295 14.955 38.34L14.7 38.595C14.5194 38.7742 14.376 38.9875 14.2781 39.2224C14.1803 39.4573 14.1299 39.7093 14.1299 39.9637C14.1299 40.2182 14.1803 40.4702 14.2781 40.7051C14.376 40.94 14.5194 41.1533 14.7 41.3325L16.4175 43.05C16.597 43.2301 16.8104 43.373 17.0453 43.4705C17.2801 43.568 17.5319 43.6182 17.7863 43.6182C18.0406 43.6182 18.2924 43.568 18.5272 43.4705C18.7621 43.373 18.9755 43.2301 19.155 43.05L19.41 42.795C19.9205 43.0572 20.4525 43.2755 21 43.4475V43.815C21.0012 44.3278 21.2054 44.8193 21.5681 45.1819C21.9307 45.5446 22.4222 45.7488 22.935 45.75H25.065C25.5778 45.7488 26.0693 45.5446 26.4319 45.1819C26.7946 44.8193 26.9988 44.3278 27 43.815V43.4475C27.5475 43.2755 28.0795 43.0572 28.59 42.795L28.845 43.05C29.0245 43.2301 29.2379 43.373 29.4728 43.4705C29.7076 43.568 29.9594 43.6182 30.2137 43.6182C30.4681 43.6182 30.7199 43.568 30.9547 43.4705C31.1896 43.373 31.403 43.2301 31.5825 43.05L33.3 41.3325C33.4806 41.1533 33.624 40.94 33.7219 40.7051C33.8197 40.4702 33.8701 40.2182 33.8701 39.9637C33.8701 39.7093 33.8197 39.4573 33.7219 39.2224C33.624 38.9875 33.4806 38.7742 33.3 38.595L33.045 38.34C33.3072 37.8295 33.5255 37.2975 33.6975 36.75H34.065C34.5778 36.7488 35.0693 36.5446 35.4319 36.1819C35.7946 35.8193 35.9988 35.3278 36 34.815V32.685C35.9988 32.1722 35.7946 31.6807 35.4319 31.3181C35.0693 30.9554 34.5778 30.7512 34.065 30.75H33.6975C33.5255 30.2024 33.3072 29.6705 33.045 29.16L33.3 28.905C33.4806 28.7258 33.624 28.5125 33.7219 28.2776C33.8197 28.0427 33.8701 27.7907 33.8701 27.5363C33.8701 27.2818 33.8197 27.0298 33.7219 26.7949C33.624 26.56 33.4806 26.3467 33.3 26.1675L31.5825 24.45C31.403 24.2699 31.1896 24.127 30.9547 24.0295C30.7199 23.932 30.4681 23.8818 30.2137 23.8818C29.9594 23.8818 29.7076 23.932 29.4728 24.0295C29.2379 24.127 29.0245 24.2699 28.845 24.45L28.59 24.705C28.0795 24.4428 27.5476 24.2245 27 24.0525V23.685C26.9988 23.1722 26.7946 22.6807 26.4319 22.3181C26.0693 21.9554 25.5778 21.7512 25.065 21.75H24.75V19.365C25.0649 19.2537 25.351 19.0734 25.5872 18.8372C25.8234 18.601 26.0037 18.3149 26.115 18H39.75C40.3462 17.9982 40.9175 17.7606 41.339 17.339C41.7606 16.9175 41.9982 16.3462 42 15.75V13.5H43.5C44.0962 13.4982 44.6675 13.2606 45.089 12.839C45.5106 12.4175 45.7482 11.8462 45.75 11.25V5.4375C45.7511 5.24769 45.6785 5.06486 45.5475 4.9275ZM28.5 33.75C28.5 34.64 28.2361 35.51 27.7416 36.2501C27.2471 36.9901 26.5443 37.5669 25.7221 37.9075C24.8998 38.2481 23.995 38.3372 23.1221 38.1635C22.2492 37.9899 21.4474 37.5613 20.818 36.932C20.1887 36.3026 19.7601 35.5008 19.5865 34.6279C19.4128 33.755 19.5019 32.8502 19.8425 32.0279C20.1831 31.2057 20.7599 30.5029 21.4999 30.0084C22.24 29.5139 23.11 29.25 24 29.25C25.1932 29.251 26.3372 29.7254 27.1809 30.5691C28.0246 31.4128 28.499 32.5568 28.5 33.75Z" fill="#F99811"/>
</svg>
