<svg width="48" height="48" viewBox="0 0 48 48" fill="none" xmlns="http://www.w3.org/2000/svg">
<g clip-path="url(#clip0_3631_42939)">
<path fill-rule="evenodd" clip-rule="evenodd" d="M26.9757 -0.0093689C26.7768 -0.0093689 26.586 0.0696487 26.4453 0.210301C26.3047 0.350953 26.2257 0.541719 26.2257 0.740631V4.05816C25.3447 4.23207 24.5513 4.7064 23.9812 5.40015C23.411 6.0939 23.0993 6.96407 23.0993 7.86207C23.0993 8.76007 23.411 9.63023 23.9812 10.324C24.5513 11.0177 25.3447 11.4921 26.2257 11.666V16.2147C26.2258 16.4136 26.3049 16.6043 26.4455 16.7449C26.5861 16.8855 26.7768 16.9646 26.9757 16.9647H32.2015C32.4004 16.9646 32.5911 16.8855 32.7317 16.7449C32.8723 16.6043 32.9514 16.4136 32.9515 16.2147C32.9515 15.5844 33.2019 14.9799 33.6476 14.5342C34.0933 14.0886 34.6977 13.8382 35.328 13.8382C35.9583 13.8382 36.5628 14.0886 37.0085 14.5342C37.4542 14.9799 37.7046 15.5844 37.7046 16.2147C37.7047 16.4136 37.7838 16.6043 37.9244 16.7449C38.065 16.8855 38.2557 16.9646 38.4546 16.9647H42.4492C42.6481 16.9646 42.8387 16.8855 42.9794 16.7449C43.12 16.6043 43.199 16.4136 43.1992 16.2147C43.1992 7.26816 35.9213 -0.0093689 26.9757 -0.0093689ZM28.9734 34.6763C28.3735 35.054 27.855 35.5475 27.4482 36.128C27.0414 36.7085 26.7544 37.3643 26.604 38.057H21.7745V34.4373C22.6555 34.2634 23.4489 33.789 24.0191 33.0953C24.5893 32.4015 24.901 31.5313 24.901 30.6333C24.901 29.7353 24.5893 28.8651 24.0191 28.1713C23.4489 27.4775 22.6555 27.0032 21.7745 26.8293V23.0315H26.2499C26.4488 23.0315 26.6395 22.9525 26.7802 22.8118C26.9208 22.6712 26.9999 22.4804 26.9999 22.2815C26.9999 21.6512 27.2502 21.0467 27.6959 20.601C28.1416 20.1553 28.7461 19.9049 29.3764 19.9049C30.0067 19.9049 30.6112 20.1553 31.0569 20.601C31.5026 21.0467 31.753 21.6512 31.753 22.2815C31.753 22.4804 31.832 22.6712 31.9727 22.8118C32.1133 22.9525 32.3041 23.0315 32.503 23.0315H35.7298C35.6147 25.3708 34.9414 27.6487 33.7659 29.6745C32.5904 31.7004 30.9471 33.4155 28.9732 34.6763H28.9734ZM25.6697 43.2084H16.3791C16.1644 43.2081 15.9586 43.1227 15.8069 42.9709C15.6551 42.819 15.5698 42.6131 15.5698 42.3984V39.5569H26.4795V42.3984C26.4793 42.6132 26.3939 42.819 26.2421 42.9709C26.0903 43.1227 25.8845 43.2081 25.6697 43.2084ZM20.2742 7.57566V10.125C19.3932 10.2989 18.5999 10.7732 18.0297 11.467C17.4595 12.1607 17.1478 13.0309 17.1478 13.9289C17.1478 14.8269 17.4595 15.6971 18.0297 16.3908C18.5999 17.0846 19.3932 17.5589 20.2742 17.7328V21.5316H15.7985C15.5996 21.5316 15.4088 21.6106 15.2682 21.7512C15.1275 21.8919 15.0485 22.0827 15.0485 22.2816C15.043 22.9082 14.7901 23.5073 14.345 23.9485C13.8999 24.3896 13.2986 24.6371 12.672 24.6371C12.0453 24.6371 11.444 24.3896 10.9989 23.9485C10.5538 23.5073 10.301 22.9082 10.2954 22.2816C10.2954 22.0827 10.2164 21.8919 10.0757 21.7512C9.93508 21.6106 9.74431 21.5316 9.5454 21.5316H6.31965C6.69831 14.0082 12.7509 7.95563 20.2742 7.57594V7.57566ZM36.4987 21.5313C36.6976 21.5313 36.8884 21.6103 37.029 21.751C37.1697 21.8916 37.2487 22.0824 37.2487 22.2813C37.2537 25.0018 36.5722 27.6795 35.2674 30.0667C33.9627 32.4538 32.0767 34.4732 29.7842 35.9379C29.2231 36.2857 28.7619 36.7732 28.4456 37.3526C28.1293 37.9321 27.9688 38.5837 27.9798 39.2438V42.3985C27.979 42.9207 27.8016 43.4272 27.4765 43.8358C27.1515 44.2444 26.6978 44.5312 26.1892 44.6494L25.7641 46.2676C25.6385 46.7637 25.35 47.2032 24.9447 47.5157C24.5394 47.8281 24.041 47.9954 23.5292 47.9907H18.5195C18.0079 47.9955 17.5094 47.8283 17.1043 47.5158C16.6991 47.2033 16.4107 46.7637 16.2854 46.2676L15.8596 44.6494C15.3511 44.5311 14.8975 44.2444 14.5726 43.8357C14.2477 43.4271 14.0705 42.9206 14.0699 42.3985V39.2438C14.0808 38.5836 13.9202 37.9319 13.6037 37.3525C13.2872 36.7731 12.8257 36.2858 12.2643 35.9382C9.97203 34.4733 8.08631 32.4538 6.78171 30.0667C5.47711 27.6795 4.79579 25.0018 4.80081 22.2814C4.80081 13.3347 12.0787 6.05701 21.0244 6.05701C21.2233 6.05701 21.4141 6.13602 21.5548 6.27668C21.6954 6.41733 21.7744 6.60809 21.7744 6.80701V10.8025C21.7744 11.0015 21.6954 11.1922 21.5548 11.3329C21.4141 11.4735 21.2233 11.5525 21.0244 11.5525C20.7106 11.5498 20.3992 11.6092 20.1085 11.7273C19.8177 11.8455 19.5532 12.0201 19.3302 12.2411C19.1073 12.4621 18.9304 12.725 18.8096 13.0147C18.6888 13.3044 18.6267 13.6152 18.6267 13.9291C18.6267 14.243 18.6888 14.5538 18.8096 14.8435C18.9304 15.1332 19.1073 15.3961 19.3302 15.6171C19.5532 15.8381 19.8177 16.0127 20.1085 16.1309C20.3992 16.249 20.7106 16.3085 21.0244 16.3057C21.2233 16.3057 21.4141 16.3847 21.5548 16.5253C21.6954 16.666 21.7744 16.8568 21.7744 17.0557V21.5313H25.573C25.7468 20.6503 26.221 19.857 26.9147 19.2868C27.6084 18.7165 28.4785 18.4048 29.3765 18.4048C30.2745 18.4048 31.1446 18.7165 31.8383 19.2868C32.532 19.857 33.0062 20.6503 33.18 21.5313H36.4987Z" fill="#75BB0B"/>
</g>
<defs>
<clipPath id="clip0_3631_42939">
<rect width="48" height="48" fill="white"/>
</clipPath>
</defs>
</svg>
