<svg width="48" height="48" viewBox="0 0 48 48" fill="none" xmlns="http://www.w3.org/2000/svg">
<g clip-path="url(#clip0_3631_42966)">
<path d="M42.5926 20.5994L38.9583 15.7294L40.9097 9.97453C41.0037 9.69729 41.0183 9.39927 40.9518 9.11418C40.8852 8.82909 40.7403 8.56829 40.5333 8.36129C40.3263 8.15428 40.0655 8.00932 39.7804 7.9428C39.4953 7.87628 39.1973 7.89086 38.92 7.98487L33.1653 9.93628L28.2949 6.30197C28.0602 6.12696 27.7813 6.02107 27.4897 5.99628C27.198 5.97149 26.9052 6.02877 26.6444 6.16167C26.3836 6.29456 26.1652 6.49776 26.0138 6.7483C25.8625 6.99884 25.7842 7.28672 25.7879 7.5794L25.8656 13.6558L20.9041 17.1645C20.6651 17.3335 20.4781 17.5661 20.3644 17.8358C20.2506 18.1055 20.2146 18.4017 20.2604 18.6909C20.3062 18.98 20.4319 19.2506 20.6234 19.472C20.815 19.6934 21.0646 19.8568 21.3442 19.9437L25.4545 21.2215L1.35402 45.3217C0.741367 45.9343 0.741367 46.9278 1.35402 47.5404C1.96668 48.1531 2.96005 48.1531 3.57271 47.5404L27.6733 23.4399L28.951 27.5502C29.0379 27.8297 29.2013 28.0794 29.4227 28.2709C29.6441 28.4624 29.9146 28.5882 30.2038 28.634C30.4929 28.6798 30.7891 28.6438 31.0588 28.5301C31.3285 28.4164 31.5611 28.2294 31.7302 27.9905L35.2388 23.0289L41.3152 23.1066C41.9079 23.1113 42.4621 22.782 42.7332 22.2501C43.0043 21.7181 42.9498 21.0781 42.5926 20.5994ZM16.2537 6.30694L15.0013 4.017L13.749 6.30694L11.4591 7.55925L13.749 8.81175L15.0013 11.1016L16.2537 8.81175L18.5436 7.55925L16.2537 6.30694ZM34.0262 36.0458L33.0131 34.1935L32.0002 36.0458L30.1478 37.0588L32.0002 38.0719L33.0131 39.924L34.0262 38.0719L35.8784 37.0588L34.0262 36.0458ZM35.4508 1.85222L34.4378 0L33.4248 1.85222L31.5726 2.86528L33.4248 3.87834L34.4378 5.73056L35.4508 3.87834L37.3031 2.86528L35.4508 1.85222ZM45.997 13.3606L45.3907 12.2521L44.7845 13.3606L43.6759 13.9668L44.7845 14.5731L45.3907 15.6816L45.997 14.5731L47.1054 13.9668L45.997 13.3606ZM46.1837 27.5735L43.6759 28.3079L41.1682 27.5735L41.9027 30.0811L41.1682 32.5889L43.6759 31.8545L46.1837 32.5889L45.4492 30.0811L46.1837 27.5735Z" fill="#20D8F8"/>
</g>
<defs>
<clipPath id="clip0_3631_42966">
<rect width="48" height="48" fill="white"/>
</clipPath>
</defs>
</svg>
