<svg width="890" height="325" viewBox="0 0 890 325" fill="none" xmlns="http://www.w3.org/2000/svg">
<g clip-path="url(#clip0_4731_584)">
<rect width="890" height="325" fill="#F9FAFC"/>
<path fill-rule="evenodd" clip-rule="evenodd" d="M667 96.7033C651.319 96.7033 636.956 102.114 625.597 111.216C623.199 113.137 619.692 113.063 617.578 110.833L580.582 71.8002C578.469 69.5702 578.555 66.0392 580.873 64.0217C603.898 43.9755 634.058 31.7969 667 31.7969C739.462 31.7969 798.204 90.5388 798.204 163.001C798.204 235.462 739.462 294.204 667 294.204C634.058 294.204 603.898 282.026 580.873 261.98C578.555 259.962 578.469 256.431 580.582 254.201L617.578 215.168C619.692 212.938 623.199 212.864 625.597 214.786C636.956 223.887 651.319 229.298 667 229.298C703.615 229.298 733.297 199.616 733.297 163.001C733.297 126.386 703.615 96.7033 667 96.7033Z" fill="#DCE7FD" fill-opacity="0.3"/>
<circle cx="666.536" cy="163.001" r="95.737" stroke="url(#paint0_linear_4731_584)" stroke-opacity="0.5" stroke-width="1.39085" stroke-dasharray="6.95 6.95"/>
<path d="M499.488 173.407C499.348 171.11 499.253 168.801 499.206 166.479L499.901 166.465C499.878 165.313 499.866 164.157 499.866 162.999C499.866 161.84 499.878 160.685 499.901 159.532L499.206 159.518C499.253 157.197 499.348 154.887 499.488 152.59L500.182 152.633C500.323 150.326 500.511 148.033 500.745 145.753L500.053 145.682C500.29 143.371 500.574 141.074 500.903 138.792L501.592 138.891C501.922 136.603 502.299 134.33 502.721 132.072L502.038 131.945C502.465 129.664 502.937 127.4 503.455 125.153L504.133 125.309C504.651 123.059 505.215 120.826 505.824 118.612L505.153 118.428C505.767 116.193 506.427 113.976 507.13 111.78L507.792 111.992C508.495 109.794 509.243 107.617 510.034 105.46L509.381 105.22C510.179 103.044 511.021 100.889 511.906 98.7556L512.548 99.022C513.432 96.8905 514.359 94.7813 515.327 92.6954L514.696 92.4025C515.672 90.3017 516.689 88.2244 517.748 86.1718L518.366 86.4906C519.423 84.4412 520.521 82.4165 521.66 80.4176L521.055 80.0735C522.201 78.0617 523.387 76.0761 524.612 74.1175L525.201 74.4862C526.424 72.5322 527.685 70.6051 528.985 68.7063L528.411 68.3135C529.718 66.4038 531.064 64.5226 532.447 62.6709L533.004 63.087C534.383 61.2405 535.8 59.4235 537.252 57.637L536.712 57.1984C538.172 55.4032 539.668 53.6388 541.199 51.9063L541.72 52.3668C543.246 50.6406 544.806 48.9463 546.401 47.2848L545.899 46.8032C547.5 45.1346 549.136 43.4991 550.805 41.8976L551.286 42.3994C552.948 40.8048 554.642 39.2442 556.368 37.7187L555.908 37.1976C557.64 35.6665 559.405 34.1706 561.2 32.7111L561.638 33.2506C563.425 31.7982 565.242 30.3819 567.088 29.0028L566.672 28.4457C568.524 27.0627 570.405 25.7171 572.315 24.4099L572.708 24.9837C574.607 23.6839 576.534 22.4223 578.488 21.1999L578.119 20.6103C580.077 19.3852 582.063 18.1993 584.075 17.0538L584.419 17.6581C586.418 16.5198 588.443 15.4217 590.492 14.3646L590.173 13.7466C592.226 12.6879 594.303 11.6702 596.404 10.6948L596.697 11.3256C598.783 10.3571 600.892 9.43035 603.023 8.54647L602.757 7.90407C604.89 7.01952 607.045 6.17772 609.222 5.37969L609.461 6.03261C611.618 5.24172 613.796 4.49404 615.993 3.79058L615.781 3.12825C617.978 2.42507 620.194 1.76595 622.429 1.15184L622.613 1.8224C624.828 1.21398 627.06 0.64995 629.31 0.131364L629.154 -0.546309C631.401 -1.06416 633.665 -1.53691 635.946 -1.96355L636.074 -1.27998C638.331 -1.70229 640.604 -2.07918 642.892 -2.40974L642.793 -3.09804C645.075 -3.42772 647.372 -3.7115 649.683 -3.94838L649.754 -3.25658C652.034 -3.49028 654.328 -3.67818 656.634 -3.81929L656.592 -4.51341C658.889 -4.65398 661.198 -4.74834 663.519 -4.79555L663.533 -4.10027C664.686 -4.1237 665.842 -4.13548 667 -4.13548C668.158 -4.13548 669.314 -4.1237 670.467 -4.10027L670.481 -4.79555C672.802 -4.74834 675.111 -4.65398 677.408 -4.51341L677.366 -3.81929C679.672 -3.67818 681.966 -3.49028 684.246 -3.25658L684.317 -3.94838C686.628 -3.71151 688.925 -3.42772 691.207 -3.09804L691.108 -2.40975C693.396 -2.07921 695.669 -1.70229 697.926 -1.28002L698.054 -1.96358C700.335 -1.53695 702.599 -1.0642 704.846 -0.546346L704.69 0.131328C706.94 0.649913 709.172 1.21394 711.387 1.82237L711.571 1.1518C713.806 1.76591 716.022 2.42506 718.219 3.12824L718.007 3.79054C720.204 4.494 722.382 5.24171 724.539 6.03257L724.778 5.37968C726.955 6.17771 729.11 7.01948 731.243 7.90403L730.977 8.54643C733.108 9.43031 735.217 10.357 737.303 11.3255L737.596 10.6947C739.697 11.6702 741.774 12.6878 743.827 13.7465L743.508 14.3646C745.557 15.4216 747.582 16.5198 749.581 17.658L749.925 17.0537C751.937 18.1992 753.923 19.3851 755.881 20.6103L755.512 21.1999C757.467 22.4222 759.394 23.6838 761.292 24.9836L761.685 24.4098C763.595 25.717 765.476 27.0626 767.328 28.4456L766.912 29.0028C768.758 30.3818 770.575 31.7981 772.362 33.2506L772.8 32.711C774.595 34.1705 776.36 35.6664 778.092 37.1975L777.632 37.7186C779.358 39.2441 781.052 40.8047 782.714 42.3993L783.195 41.8976C784.864 43.499 786.5 45.1346 788.101 46.8032L787.599 47.2847C789.194 48.9462 790.754 50.6406 792.28 52.3667L792.801 51.9062C794.332 53.6387 795.828 55.4031 797.288 57.1983L796.748 57.637C798.2 59.4234 799.617 61.2404 800.996 63.0869L801.553 62.6708C802.936 64.5225 804.282 66.4038 805.589 68.3134L805.015 68.7062C806.315 70.605 807.576 72.5321 808.799 74.4862L809.388 74.1174C810.614 76.076 811.799 78.0617 812.945 80.0734L812.341 80.4175C813.479 82.4164 814.577 84.4411 815.634 86.4905L816.252 86.1717C817.311 88.2244 818.328 90.3016 819.304 92.4025L818.673 92.6953C819.642 94.7812 820.568 96.8904 821.452 99.0219L822.095 98.7555C822.979 100.889 823.821 103.044 824.619 105.22L823.966 105.46C824.757 107.616 825.505 109.794 826.208 111.992L826.87 111.78C827.574 113.976 828.233 116.193 828.847 118.428L828.176 118.612C828.785 120.826 829.349 123.059 829.867 125.309L830.545 125.153C831.063 127.4 831.536 129.664 831.962 131.944L831.279 132.072C831.701 134.329 832.078 136.603 832.408 138.891L833.097 138.791C833.426 141.074 833.71 143.371 833.947 145.682L833.255 145.752C833.489 148.033 833.677 150.326 833.818 152.633L834.512 152.59C834.653 154.887 834.747 157.197 834.794 159.518L834.099 159.532C834.122 160.685 834.134 161.84 834.134 162.999C834.134 164.157 834.122 165.312 834.099 166.465L834.794 166.479C834.747 168.8 834.653 171.11 834.512 173.407L833.818 173.365C833.677 175.671 833.489 177.965 833.255 180.245L833.947 180.316C833.71 182.626 833.426 184.924 833.097 187.206L832.408 187.106C832.078 189.394 831.701 191.668 831.279 193.925L831.962 194.053C831.536 196.333 831.063 198.597 830.545 200.844L829.867 200.688C829.349 202.938 828.785 205.171 828.176 207.385L828.847 207.57C828.233 209.805 827.574 212.021 826.87 214.217L826.208 214.005C825.505 216.203 824.757 218.381 823.966 220.538L824.619 220.777C823.821 222.953 822.979 225.109 822.095 227.242L821.452 226.975C820.568 229.107 819.642 231.216 818.673 233.302L819.304 233.595C818.328 235.696 817.311 237.773 816.252 239.825L815.634 239.507C814.577 241.556 813.479 243.581 812.341 245.58L812.945 245.924C811.799 247.935 810.614 249.921 809.388 251.88L808.799 251.511C807.576 253.465 806.315 255.392 805.015 257.291L805.589 257.684C804.282 259.593 802.936 261.475 801.553 263.326L800.996 262.91C799.617 264.757 798.201 266.574 796.748 268.36L797.288 268.799C795.828 270.594 794.332 272.358 792.801 274.091L792.28 273.63C790.755 275.357 789.194 277.051 787.599 278.712L788.101 279.194C786.5 280.863 784.864 282.498 783.195 284.1L782.714 283.598C781.052 285.192 779.358 286.753 777.632 288.279L778.092 288.8C776.36 290.331 774.596 291.827 772.8 293.286L772.362 292.747C770.575 294.199 768.758 295.615 766.912 296.994L767.328 297.552C765.476 298.935 763.595 300.28 761.685 301.587L761.292 301.013C759.394 302.313 757.467 303.575 755.513 304.797L755.881 305.387C753.923 306.612 751.937 307.798 749.925 308.943L749.581 308.339C747.582 309.477 745.558 310.576 743.508 311.633L743.827 312.251C741.774 313.309 739.697 314.327 737.596 315.302L737.303 314.672C735.217 315.64 733.108 316.567 730.977 317.451L731.243 318.093C729.11 318.978 726.955 319.819 724.779 320.618L724.539 319.965C722.382 320.755 720.205 321.503 718.007 322.207L718.219 322.869C716.022 323.572 713.806 324.231 711.571 324.845L711.387 324.175C709.173 324.783 706.94 325.347 704.69 325.866L704.846 326.544C702.599 327.061 700.335 327.534 698.054 327.961L697.926 327.277C695.669 327.699 693.396 328.076 691.108 328.407L691.207 329.095C688.925 329.425 686.628 329.709 684.317 329.946L684.246 329.254C681.966 329.488 679.672 329.675 677.366 329.817L677.409 330.511C675.112 330.651 672.802 330.746 670.481 330.793L670.467 330.097C669.314 330.121 668.158 330.133 667 330.133C665.842 330.133 664.686 330.121 663.534 330.097L663.519 330.793C661.198 330.746 658.889 330.651 656.592 330.511L656.634 329.817C654.328 329.675 652.034 329.488 649.754 329.254L649.683 329.946C647.372 329.709 645.075 329.425 642.793 329.095L642.892 328.407C640.604 328.076 638.331 327.7 636.074 327.277L635.946 327.961C633.666 327.534 631.401 327.061 629.154 326.544L629.311 325.866C627.06 325.347 624.828 324.783 622.613 324.175L622.429 324.845C620.194 324.231 617.978 323.572 615.781 322.869L615.993 322.207C613.796 321.503 611.618 320.756 609.461 319.965L609.222 320.618C607.045 319.82 604.89 318.978 602.757 318.093L603.023 317.451C600.892 316.567 598.783 315.64 596.697 314.672L596.404 315.302C594.303 314.327 592.226 313.309 590.173 312.251L590.492 311.633C588.443 310.576 586.418 309.477 584.419 308.339L584.075 308.943C582.063 307.798 580.078 306.612 578.119 305.387L578.488 304.797C576.534 303.575 574.607 302.313 572.708 301.014L572.315 301.587C570.405 300.28 568.524 298.935 566.672 297.552L567.088 296.994C565.242 295.615 563.425 294.199 561.639 292.747L561.2 293.286C559.405 291.827 557.64 290.331 555.908 288.8L556.368 288.279C554.642 286.753 552.948 285.193 551.286 283.598L550.805 284.1C549.136 282.498 547.501 280.863 545.899 279.194L546.401 278.713C544.806 277.051 543.246 275.357 541.72 273.63L541.199 274.091C539.668 272.358 538.172 270.594 536.713 268.799L537.252 268.36C535.8 266.574 534.383 264.757 533.004 262.91L532.447 263.326C531.064 261.475 529.719 259.593 528.411 257.684L528.985 257.291C527.685 255.392 526.424 253.465 525.201 251.511L524.612 251.88C523.387 249.921 522.201 247.936 521.055 245.924L521.66 245.58C520.521 243.581 519.423 241.556 518.366 239.507L517.748 239.825C516.689 237.773 515.672 235.696 514.696 233.595L515.327 233.302C514.359 231.216 513.432 229.107 512.548 226.975L511.906 227.242C511.021 225.109 510.179 222.953 509.381 220.777L510.034 220.538C509.243 218.381 508.496 216.203 507.792 214.006L507.13 214.218C506.427 212.021 505.767 209.805 505.153 207.57L505.824 207.385C505.215 205.171 504.651 202.938 504.133 200.688L503.455 200.844C502.937 198.597 502.465 196.333 502.038 194.053L502.722 193.925C502.299 191.668 501.922 189.395 501.592 187.106L500.903 187.206C500.574 184.924 500.29 182.627 500.053 180.316L500.745 180.245C500.511 177.965 500.323 175.671 500.182 173.365L499.488 173.407Z" stroke="url(#paint1_linear_4731_584)" stroke-opacity="0.5" stroke-width="1.39085" stroke-dasharray="6.95 6.95"/>
<circle cx="667" cy="163" r="222.305" transform="rotate(180 667 163)" stroke="url(#paint2_linear_4731_584)" stroke-opacity="0.5" stroke-width="1.39085" stroke-dasharray="6.95 6.95"/>
<g opacity="0.2" filter="url(#filter0_f_4731_584)">
<circle cx="667" cy="163.001" r="38.9439" fill="#B4C7ED"/>
</g>
<circle cx="667" cy="163.001" r="38.9439" fill="white"/>
<circle cx="667" cy="163.001" r="38.9439" fill="white"/>
<g filter="url(#filter1_f_4731_584)">
<rect x="654.019" y="53.5879" width="34.7713" height="34.7713" rx="8.80873" fill="#B4C7ED"/>
</g>
<rect x="644.747" y="44.3145" width="42.6528" height="42.6528" rx="8.80873" fill="white"/>
<g filter="url(#filter2_f_4731_584)">
<rect x="654.019" y="246.451" width="34.7713" height="34.7713" rx="8.80873" fill="#B4C7ED"/>
</g>
<rect x="644.747" y="237.178" width="42.6528" height="42.6528" rx="8.80873" fill="white"/>
<g filter="url(#filter3_f_4731_584)">
<rect x="744.888" y="103.658" width="34.7713" height="34.7713" rx="8.80873" fill="#B4C7ED"/>
</g>
<rect x="735.615" y="94.3848" width="42.6528" height="42.6528" rx="8.80873" fill="white"/>
<g filter="url(#filter4_f_4731_584)">
<rect x="565.004" y="103.658" width="34.7713" height="34.7713" rx="8.80873" fill="#B4C7ED"/>
</g>
<rect x="555.732" y="94.3848" width="42.6528" height="42.6528" rx="8.80873" fill="white"/>
<path d="M580.186 121.967V122.592C580.186 123.09 579.988 123.567 579.636 123.919C579.284 124.271 578.807 124.468 578.309 124.468H575.807C575.309 124.468 574.832 124.271 574.48 123.919C574.128 123.567 573.93 123.09 573.93 122.592V121.967H580.186Z" fill="#18181B"/>
<path d="M583.314 113.212C583.316 114.159 583.102 115.093 582.688 115.944C582.274 116.794 581.67 117.539 580.924 118.122C580.695 118.296 580.509 118.522 580.381 118.78C580.253 119.038 580.187 119.322 580.186 119.61V120.717H577.684V116.852C578.049 116.723 578.365 116.484 578.589 116.169C578.813 115.853 578.934 115.476 578.935 115.088V113.838C578.935 113.34 578.737 112.863 578.385 112.511C578.033 112.159 577.556 111.961 577.058 111.961C576.56 111.961 576.083 112.159 575.731 112.511C575.379 112.863 575.182 113.34 575.182 113.838V115.088C575.183 115.476 575.303 115.853 575.527 116.169C575.751 116.484 576.068 116.723 576.433 116.852V120.717H573.93V119.61C573.933 119.332 573.873 119.057 573.754 118.805C573.635 118.554 573.46 118.333 573.242 118.159C572.481 117.579 571.865 116.83 571.442 115.972C571.018 115.114 570.8 114.169 570.803 113.212C570.814 111.59 571.451 110.035 572.58 108.871C573.709 107.706 575.243 107.021 576.864 106.958C577.707 106.924 578.547 107.063 579.334 107.366C580.12 107.669 580.836 108.131 581.437 108.722C582.037 109.305 582.512 110.004 582.834 110.775C583.157 111.547 583.32 112.376 583.314 113.212Z" fill="#FFCA20"/>
<path d="M577.684 113.833V115.084C577.684 115.25 577.618 115.409 577.501 115.526C577.384 115.643 577.225 115.709 577.059 115.709C576.893 115.709 576.734 115.643 576.616 115.526C576.499 115.409 576.433 115.25 576.433 115.084V113.833C576.433 113.667 576.499 113.508 576.616 113.39C576.734 113.273 576.893 113.207 577.059 113.207C577.225 113.207 577.384 113.273 577.501 113.39C577.618 113.508 577.684 113.667 577.684 113.833Z" fill="#ED7100"/>
<g filter="url(#filter5_f_4731_584)">
<rect x="744.888" y="198.236" width="34.7713" height="34.7713" rx="8.80873" fill="#B4C7ED"/>
</g>
<rect x="735.615" y="188.963" width="42.6528" height="42.6528" rx="8.80873" fill="white"/>
<g filter="url(#filter6_f_4731_584)">
<rect x="565.004" y="198.236" width="34.7713" height="34.7713" rx="8.80873" fill="#B4C7ED"/>
</g>
<rect x="555.732" y="188.963" width="42.6528" height="42.6528" rx="8.80873" fill="white"/>
<path d="M764.315 212.318V212.811C764.329 213.048 764.292 213.286 764.205 213.509C764.118 213.732 763.983 213.937 763.809 214.109C763.635 214.282 763.425 214.42 763.192 214.514C762.959 214.608 762.708 214.656 762.454 214.656C762.2 214.656 761.949 214.608 761.717 214.514C761.484 214.42 761.274 214.282 761.099 214.109C760.925 213.937 760.79 213.732 760.703 213.509C760.616 213.286 760.579 213.048 760.593 212.811V212.341C760.579 212.103 760.616 211.866 760.703 211.642C760.79 211.419 760.925 211.215 761.099 211.042C761.274 210.869 761.484 210.732 761.717 210.638C761.949 210.544 762.2 210.495 762.454 210.495C762.708 210.495 762.959 210.544 763.192 210.638C763.425 210.732 763.635 210.869 763.809 211.042C763.983 211.215 764.118 211.419 764.205 211.642C764.292 211.866 764.329 212.103 764.315 212.341V212.318ZM753.328 212.318V212.811C753.343 213.048 753.305 213.286 753.218 213.509C753.131 213.732 752.997 213.937 752.822 214.109C752.648 214.282 752.438 214.42 752.205 214.514C751.972 214.608 751.721 214.656 751.467 214.656C751.214 214.656 750.963 214.608 750.73 214.514C750.497 214.42 750.287 214.282 750.113 214.109C749.938 213.937 749.804 213.732 749.717 213.509C749.63 213.286 749.592 213.048 749.607 212.811V212.341C749.592 212.103 749.63 211.866 749.717 211.642C749.804 211.419 749.938 211.215 750.113 211.042C750.287 210.869 750.497 210.732 750.73 210.638C750.963 210.544 751.214 210.495 751.467 210.495C751.721 210.495 751.972 210.544 752.205 210.638C752.438 210.732 752.648 210.869 752.822 211.042C752.997 211.215 753.131 211.419 753.218 211.642C753.305 211.866 753.343 212.103 753.328 212.341V212.318ZM758.825 204.155V204.648C758.825 205.111 758.628 205.555 758.279 205.883C757.929 206.21 757.455 206.394 756.961 206.394C756.466 206.394 755.992 206.21 755.643 205.883C755.293 205.555 755.097 205.111 755.097 204.648V204.155C755.097 203.692 755.293 203.247 755.643 202.92C755.992 202.592 756.466 202.408 756.961 202.408C757.455 202.408 757.929 202.592 758.279 202.92C758.628 203.247 758.825 203.692 758.825 204.155Z" fill="#ED7100"/>
<path d="M762.301 210.013C762.154 210.014 762.011 209.963 761.901 209.871C761.79 209.779 761.72 209.652 761.704 209.515C761.686 209.347 761.656 209.18 761.614 209.016C761.402 208.103 760.888 207.277 760.145 206.654C760.086 206.605 760.039 206.545 760.005 206.479C759.971 206.412 759.951 206.34 759.947 206.266C759.943 206.193 759.954 206.119 759.981 206.05C760.007 205.98 760.047 205.916 760.1 205.862C760.152 205.807 760.216 205.762 760.287 205.731C760.358 205.699 760.435 205.68 760.513 205.677C760.592 205.673 760.67 205.683 760.744 205.708C760.819 205.732 760.887 205.77 760.945 205.82C762.038 206.739 762.733 208.002 762.899 209.369C762.916 209.516 762.87 209.663 762.771 209.778C762.673 209.894 762.53 209.968 762.373 209.985L762.301 210.013ZM751.619 210.013H751.548C751.391 209.996 751.248 209.922 751.149 209.806C751.051 209.691 751.005 209.544 751.022 209.397C751.187 208.028 751.882 206.763 752.976 205.842C753.094 205.769 753.236 205.737 753.377 205.753C753.518 205.769 753.648 205.831 753.745 205.929C753.841 206.026 753.897 206.153 753.903 206.286C753.908 206.419 753.864 206.549 753.776 206.654C753.031 207.276 752.514 208.103 752.3 209.016C752.258 209.18 752.229 209.347 752.211 209.515C752.195 209.651 752.126 209.777 752.016 209.869C751.907 209.961 751.766 210.012 751.619 210.013Z" fill="#18181B"/>
<path d="M754.218 214.631C755.067 215.041 756.007 215.254 756.961 215.253C757.881 215.262 758.791 215.07 759.619 214.693C759.764 214.627 759.875 214.51 759.928 214.367C759.981 214.224 759.971 214.067 759.9 213.932C759.829 213.796 759.704 213.692 759.552 213.642C759.4 213.593 759.232 213.602 759.088 213.668C758.414 213.978 757.673 214.136 756.924 214.13C756.174 214.125 755.436 213.955 754.768 213.635C754.627 213.567 754.463 213.554 754.312 213.599C754.237 213.621 754.167 213.657 754.107 213.705C754.047 213.752 753.998 213.81 753.962 213.876C753.926 213.941 753.904 214.012 753.897 214.086C753.89 214.159 753.899 214.233 753.923 214.303C753.947 214.374 753.985 214.439 754.036 214.495C754.087 214.551 754.149 214.598 754.218 214.631Z" fill="#18181B"/>
<path d="M752.731 215.049H750.204C749.778 215.051 749.37 215.21 749.069 215.492C748.768 215.774 748.598 216.156 748.597 216.555V217.61C748.597 217.759 748.66 217.901 748.772 218.006C748.884 218.111 749.036 218.17 749.194 218.17H753.974V218.125C754.083 218.083 754.176 218.012 754.242 217.92C754.308 217.829 754.344 217.721 754.344 217.61V216.555C754.343 216.155 754.172 215.772 753.87 215.49C753.567 215.208 753.158 215.049 752.731 215.049ZM763.718 215.049H761.191C760.764 215.049 760.354 215.208 760.052 215.49C759.75 215.772 759.579 216.155 759.578 216.555V217.61C759.578 217.721 759.614 217.829 759.68 217.92C759.746 218.012 759.839 218.083 759.948 218.125V218.17H764.727C764.886 218.17 765.038 218.111 765.15 218.006C765.262 217.901 765.325 217.759 765.325 217.61V216.555C765.323 216.156 765.153 215.774 764.852 215.492C764.551 215.21 764.143 215.051 763.718 215.049ZM758.227 206.996H755.694C755.269 206.998 754.861 207.157 754.56 207.439C754.259 207.721 754.089 208.103 754.087 208.502V209.235C754.085 209.367 754.132 209.496 754.22 209.598C754.309 209.7 754.433 209.77 754.571 209.795H759.351C759.489 209.77 759.613 209.7 759.701 209.598C759.79 209.496 759.837 209.367 759.834 209.235V208.502C759.833 208.103 759.663 207.721 759.362 207.439C759.061 207.157 758.653 206.998 758.227 206.996Z" fill="#6762FE"/>
<g clip-path="url(#clip1_4731_584)">
<path d="M664.139 265.788H655.926C655.646 265.788 655.377 265.675 655.178 265.475C654.98 265.275 654.869 265.004 654.869 264.722C654.869 264.439 654.98 264.168 655.178 263.968C655.377 263.768 655.646 263.656 655.926 263.656H664.139C665.635 263.656 667.07 263.057 668.127 261.99C669.185 260.924 669.779 259.478 669.779 257.97C669.779 257.688 669.891 257.416 670.089 257.217C670.287 257.017 670.556 256.904 670.837 256.904C671.117 256.904 671.386 257.017 671.585 257.217C671.783 257.416 671.894 257.688 671.894 257.97C671.894 260.044 671.077 262.032 669.623 263.498C668.169 264.964 666.196 265.788 664.139 265.788Z" fill="#FF5665"/>
<path d="M677.224 263.996L675.109 261.928C674.908 261.734 674.64 261.625 674.362 261.625C674.083 261.625 673.816 261.734 673.615 261.928C673.516 262.023 673.438 262.136 673.384 262.262C673.33 262.388 673.303 262.523 673.303 262.66C673.303 262.797 673.33 262.933 673.384 263.058C673.438 263.184 673.516 263.298 673.615 263.392L673.875 263.655H670.806C670.209 264.623 669.319 265.371 668.268 265.787H673.875L673.586 266.071C673.488 266.166 673.409 266.279 673.356 266.405C673.302 266.531 673.274 266.666 673.274 266.803C673.274 266.94 673.302 267.076 673.356 267.202C673.409 267.328 673.488 267.441 673.586 267.535C673.685 267.634 673.801 267.711 673.93 267.764C674.058 267.816 674.195 267.843 674.334 267.841C674.613 267.843 674.882 267.733 675.081 267.535L677.196 265.467C677.297 265.374 677.377 265.262 677.434 265.136C677.49 265.011 677.52 264.875 677.523 264.738C677.525 264.6 677.5 264.464 677.449 264.336C677.398 264.209 677.321 264.093 677.224 263.996Z" fill="#01A88D"/>
<path d="M662.194 251.092L664.309 249.017C664.511 248.822 664.78 248.713 665.06 248.713C665.339 248.713 665.608 248.822 665.81 249.017C665.907 249.112 665.984 249.226 666.037 249.352C666.089 249.477 666.116 249.612 666.116 249.749C666.116 249.885 666.089 250.02 666.037 250.146C665.984 250.272 665.907 250.385 665.81 250.481L665.542 250.744V251.781V252.876L665.839 253.16C665.935 253.255 666.012 253.369 666.065 253.495C666.117 253.621 666.144 253.756 666.144 253.892C666.144 254.028 666.117 254.163 666.065 254.289C666.012 254.415 665.935 254.529 665.839 254.624C665.637 254.822 665.366 254.932 665.084 254.93C664.805 254.931 664.536 254.821 664.337 254.624L662.222 252.556C662.121 252.464 662.041 252.352 661.985 252.227C661.929 252.102 661.898 251.967 661.896 251.83C661.893 251.693 661.918 251.557 661.969 251.43C662.021 251.303 662.097 251.188 662.194 251.092Z" fill="#FF5665"/>
<path d="M670.837 259.036C670.556 259.036 670.287 258.923 670.089 258.724C669.891 258.524 669.779 258.252 669.779 257.97C669.779 256.62 669.248 255.325 668.301 254.369C667.355 253.414 666.071 252.876 664.732 252.874C664.451 252.874 664.182 252.762 663.984 252.562C663.785 252.362 663.674 252.091 663.674 251.808C663.674 251.525 663.785 251.254 663.984 251.054C664.182 250.854 664.451 250.742 664.732 250.742C666.631 250.746 668.452 251.509 669.795 252.864C671.137 254.219 671.892 256.055 671.894 257.97C671.894 258.252 671.783 258.524 671.585 258.724C671.386 258.923 671.117 259.036 670.837 259.036Z" fill="#FF5665"/>
<path d="M659.951 262.617C659.689 262.609 659.439 262.505 659.246 262.325C658.69 261.744 658.257 261.055 657.972 260.3C657.688 259.545 657.557 258.74 657.589 257.933C657.589 256.091 658.311 254.323 659.599 253.015C659.796 252.814 660.065 252.699 660.346 252.697C660.627 252.695 660.897 252.806 661.097 253.005C661.297 253.204 661.41 253.474 661.412 253.758C661.414 254.041 661.305 254.313 661.107 254.515C660.208 255.422 659.701 256.651 659.697 257.933C659.67 258.451 659.745 258.969 659.918 259.457C660.091 259.945 660.359 260.393 660.706 260.776C660.902 260.978 661.013 261.25 661.013 261.533C661.013 261.816 660.902 262.088 660.706 262.29C660.506 262.494 660.235 262.611 659.951 262.617Z" fill="#ED7100"/>
</g>
<path d="M665.62 67.6077C665.231 67.6081 664.849 67.4929 664.525 67.2767C664.201 67.0606 663.947 66.7532 663.798 66.3933C663.648 66.0335 663.608 65.6373 663.683 65.2548C663.758 64.8722 663.945 64.5206 664.22 64.2441C664.449 64.0139 664.731 63.8437 665.041 63.7486C665.351 63.6535 665.68 63.6365 665.999 63.6991C666.318 63.7616 666.616 63.9018 666.867 64.1072C667.118 64.3126 667.315 64.5769 667.44 64.8765C667.565 65.1762 667.614 65.502 667.582 65.8251C667.551 66.1482 667.441 66.4586 667.261 66.7288C667.081 66.9989 666.837 67.2205 666.551 67.3738C666.265 67.5271 665.945 67.6075 665.62 67.6077Z" fill="#FF5665"/>
<path d="M665.634 73.5128C664.233 73.5181 662.856 73.1497 661.645 72.4455C660.434 71.7413 659.432 70.7268 658.744 69.5066C658.056 68.2864 657.705 66.9046 657.729 65.5038C657.752 64.103 658.149 62.7339 658.878 61.5375C659.607 60.3411 660.642 59.3609 661.876 58.6978C663.11 58.0347 664.499 57.7128 665.899 57.7653C667.299 57.8178 668.66 58.2427 669.841 58.9963C671.022 59.7499 671.981 60.8048 672.618 62.0524C672.698 62.2082 672.713 62.3895 672.659 62.5562C672.606 62.723 672.488 62.8617 672.332 62.9418C672.177 63.0219 671.995 63.0368 671.829 62.9832C671.662 62.9297 671.523 62.8121 671.443 62.6563C670.774 61.3426 669.682 60.2926 668.343 59.6754C667.004 59.0581 665.496 58.9096 664.062 59.2538C662.629 59.598 661.353 60.4148 660.44 61.5727C659.527 62.7305 659.031 64.1619 659.031 65.6362C659.031 67.1106 659.527 68.542 660.44 69.6998C661.353 70.8576 662.629 71.6745 664.062 72.0186C665.496 72.3628 667.004 72.2143 668.343 71.5971C669.682 70.9799 670.774 69.9298 671.443 68.6162C671.523 68.4604 671.662 68.3428 671.829 68.2892C671.995 68.2357 672.177 68.2506 672.332 68.3307C672.488 68.4107 672.606 68.5494 672.659 68.7162C672.713 68.883 672.698 69.0643 672.618 69.2201C671.96 70.5077 670.96 71.5894 669.729 72.3466C668.497 73.1038 667.08 73.5072 665.634 73.5128Z" fill="#FF5665"/>
<path d="M665.634 70.2323C664.868 70.2327 664.113 70.0415 663.44 69.676C662.766 69.3104 662.195 68.7822 661.777 68.1393C661.36 67.4965 661.11 66.7594 661.051 65.9954C660.991 65.2313 661.123 64.4644 661.436 63.7645C661.748 63.0647 662.231 62.4541 662.839 61.9884C663.448 61.5228 664.164 61.2167 664.921 61.0982C665.678 60.9797 666.453 61.0525 667.175 61.31C667.897 61.5674 668.543 62.0014 669.054 62.5723C669.112 62.6365 669.156 62.7115 669.185 62.7929C669.214 62.8744 669.226 62.9607 669.222 63.0469C669.217 63.1332 669.196 63.2177 669.158 63.2956C669.121 63.3735 669.069 63.4433 669.005 63.5011C668.941 63.5589 668.866 63.6034 668.784 63.6322C668.703 63.661 668.616 63.6734 668.53 63.6688C668.444 63.6643 668.359 63.6428 668.281 63.6055C668.204 63.5683 668.134 63.5161 668.076 63.4519C667.633 62.9559 667.05 62.6061 666.404 62.4488C665.758 62.2916 665.079 62.3343 664.458 62.5712C663.837 62.8082 663.302 63.2283 662.925 63.7759C662.548 64.3235 662.346 64.9727 662.346 65.6376C662.346 66.3025 662.548 66.9518 662.925 67.4993C663.302 68.0469 663.837 68.467 664.458 68.704C665.079 68.941 665.758 68.9836 666.404 68.8264C667.05 68.6691 667.633 68.3193 668.076 67.8233C668.134 67.7591 668.204 67.7069 668.281 67.6697C668.359 67.6325 668.444 67.6109 668.53 67.6064C668.616 67.6018 668.703 67.6143 668.784 67.643C668.866 67.6718 668.941 67.7164 669.005 67.7741C669.069 67.8319 669.121 67.9017 669.158 67.9796C669.196 68.0576 669.217 68.1421 669.222 68.2283C669.226 68.3146 669.214 68.4009 669.185 68.4823C669.156 68.5637 669.112 68.6387 669.054 68.7029C668.623 69.1837 668.096 69.5684 667.507 69.8319C666.918 70.0954 666.28 70.2318 665.634 70.2323Z" fill="#ED7100"/>
<path d="M672.198 66.2932H665.634C665.46 66.2932 665.293 66.2241 665.17 66.101C665.047 65.9779 664.978 65.8109 664.978 65.6368C664.978 65.4628 665.047 65.2958 665.17 65.1727C665.293 65.0496 665.46 64.9805 665.634 64.9805H672.198C672.372 64.9805 672.539 65.0496 672.662 65.1727C672.785 65.2958 672.855 65.4628 672.855 65.6368C672.855 65.8109 672.785 65.9779 672.662 66.101C672.539 66.2241 672.372 66.2932 672.198 66.2932Z" fill="#18181B"/>
<path d="M673.531 67.6571C673.446 67.6576 673.361 67.6408 673.282 67.6077C673.203 67.5747 673.131 67.5259 673.071 67.4643L671.742 66.1321C671.681 66.0703 671.633 65.9968 671.6 65.9158C671.567 65.8347 671.55 65.7479 671.55 65.6601C671.55 65.5724 671.567 65.4855 671.6 65.4045C671.633 65.3235 671.681 65.25 671.742 65.1882L673.071 63.8587C673.131 63.7964 673.203 63.747 673.282 63.7132C673.361 63.6795 673.446 63.6621 673.532 63.6621C673.617 63.6621 673.702 63.6795 673.781 63.7132C673.86 63.747 673.932 63.7964 673.992 63.8587C674.113 63.9833 674.18 64.1517 674.18 64.3274C674.18 64.503 674.113 64.6714 673.992 64.796L673.117 65.6601L673.991 66.5271C674.081 66.6204 674.141 66.7386 674.165 66.8669C674.189 66.9952 674.176 67.128 674.127 67.2486C674.078 67.3691 673.995 67.4722 673.889 67.5448C673.783 67.6175 673.659 67.6566 673.531 67.6571Z" fill="#18181B"/>
<path d="M751.819 118.526V117.025C751.819 116.299 752.407 115.711 753.133 115.711H756.942M756.942 115.711V112.896M756.942 115.711H760.751C761.477 115.711 762.065 116.299 762.065 117.025V118.526" stroke="#18181B" stroke-width="1.31358" stroke-linecap="round" stroke-linejoin="round"/>
<rect x="753.527" y="107.83" width="6.83063" height="3.94074" rx="1.31358" fill="#ED7100"/>
<rect x="748.404" y="119.652" width="6.83063" height="3.94074" rx="1.31358" fill="#E7157B"/>
<rect x="758.649" y="119.652" width="6.83063" height="3.94074" rx="1.31358" fill="#E7157B"/>
<path d="M579.337 209.984C579.338 210.178 579.313 210.371 579.262 210.558C579.134 211.049 578.846 211.485 578.444 211.795C578.042 212.106 577.548 212.274 577.041 212.274C576.533 212.274 576.039 212.106 575.637 211.795C575.235 211.485 574.948 211.049 574.819 210.558C574.72 210.182 574.72 209.786 574.819 209.409C574.948 208.918 575.235 208.483 575.637 208.172C576.039 207.862 576.533 207.693 577.041 207.693C577.548 207.693 578.042 207.862 578.444 208.172C578.846 208.483 579.134 208.918 579.262 209.409C579.313 209.597 579.338 209.79 579.337 209.984Z" fill="#ED7100"/>
<path d="M573.597 204.242C573.598 204.436 573.573 204.629 573.522 204.816C573.382 205.358 573.05 205.83 572.588 206.143C572.125 206.457 571.564 206.591 571.01 206.521C570.455 206.45 569.946 206.18 569.576 205.761C569.207 205.341 569.003 204.801 569.003 204.242C569.003 203.683 569.207 203.143 569.576 202.724C569.946 202.304 570.455 202.034 571.01 201.964C571.564 201.893 572.125 202.027 572.588 202.341C573.05 202.655 573.382 203.127 573.522 203.668C573.573 203.855 573.598 204.048 573.597 204.242Z" fill="#FF5665"/>
<path d="M583.929 207.115C583.929 208.029 583.566 208.905 582.92 209.552C582.274 210.198 581.398 210.561 580.485 210.561H579.262C579.361 210.184 579.361 209.789 579.262 209.412H580.485C581.094 209.412 581.677 209.17 582.108 208.74C582.539 208.309 582.781 207.725 582.781 207.115C582.781 206.506 582.539 205.922 582.108 205.491C581.677 205.06 581.094 204.818 580.485 204.818H573.522C573.573 204.631 573.598 204.438 573.597 204.244C573.598 204.05 573.573 203.857 573.522 203.67H580.485C581.398 203.67 582.274 204.033 582.92 204.679C583.566 205.325 583.929 206.202 583.929 207.115ZM578.144 215.917C578.141 216.227 577.892 216.48 577.581 216.48H573.773C572.86 216.48 571.984 216.117 571.338 215.47C570.692 214.824 570.329 213.948 570.329 213.034C570.329 212.12 570.515 211.068 571.161 210.421C571.807 209.775 572.683 209.412 573.597 209.412H574.819C574.72 209.789 574.72 210.184 574.819 210.561H573.597C572.988 210.561 572.404 210.803 571.973 211.234C571.542 211.664 571.477 212.425 571.477 213.034C571.477 213.643 571.719 214.228 572.15 214.658C572.58 215.089 573.164 215.331 573.773 215.331H577.559C577.882 215.331 578.144 215.593 578.144 215.917Z" fill="#18181B"/>
<path d="M581.716 213.344C582.085 212.982 582.683 212.982 583.052 213.344L584.943 215.198C585.313 215.561 585.313 216.147 584.943 216.51L583.052 218.364C582.868 218.545 582.626 218.636 582.384 218.636C582.142 218.636 581.9 218.545 581.716 218.364C581.346 218.002 581.346 217.415 581.716 217.053L581.993 216.781H579.822C579.31 216.781 578.895 216.366 578.895 215.854C578.895 215.342 579.31 214.927 579.822 214.927H581.993L581.716 214.655C581.346 214.293 581.346 213.706 581.716 213.344Z" fill="#01A88D"/>
<path d="M669.994 156.703C666.014 155.89 662.902 152.859 662.068 148.981C662.018 148.75 661.888 148.543 661.7 148.394C661.512 148.245 661.277 148.164 661.035 148.164C660.793 148.164 660.558 148.245 660.37 148.394C660.182 148.543 660.052 148.75 660.002 148.981C659.168 152.859 656.056 155.89 652.076 156.703C651.839 156.751 651.626 156.878 651.473 157.061C651.32 157.244 651.237 157.473 651.237 157.709C651.237 157.945 651.32 158.174 651.473 158.357C651.626 158.54 651.839 158.667 652.076 158.715C656.056 159.528 659.168 162.559 660.002 166.437C660.052 166.668 660.181 166.875 660.37 167.024C660.558 167.173 660.793 167.254 661.035 167.254C661.277 167.254 661.512 167.173 661.7 167.024C661.888 166.875 662.018 166.668 662.068 166.437C662.902 162.559 666.014 159.528 669.994 158.715C670.232 158.667 670.444 158.54 670.597 158.357C670.75 158.174 670.833 157.945 670.833 157.709C670.833 157.473 670.75 157.244 670.597 157.061C670.444 156.878 670.232 156.751 669.994 156.703ZM670.251 173.686C668.375 173.303 666.909 171.875 666.516 170.048C666.466 169.817 666.336 169.61 666.148 169.461C665.96 169.312 665.725 169.231 665.483 169.231C665.241 169.231 665.006 169.312 664.818 169.461C664.63 169.61 664.5 169.817 664.45 170.048C664.057 171.875 662.591 173.303 660.715 173.686C660.478 173.734 660.266 173.861 660.113 174.044C659.96 174.227 659.877 174.456 659.877 174.692C659.877 174.928 659.96 175.157 660.113 175.34C660.266 175.523 660.478 175.65 660.715 175.698C662.591 176.081 664.057 177.509 664.45 179.337C664.5 179.568 664.63 179.775 664.818 179.924C665.006 180.072 665.241 180.154 665.483 180.154C665.725 180.154 665.96 180.072 666.148 179.924C666.336 179.775 666.466 179.568 666.516 179.337C666.909 177.509 668.375 176.081 670.251 175.698C670.488 175.65 670.7 175.523 670.853 175.34C671.006 175.157 671.089 174.928 671.089 174.692C671.089 174.456 671.006 174.227 670.853 174.044C670.7 173.861 670.488 173.735 670.251 173.686ZM681.924 164.167C679.389 163.65 677.408 161.719 676.876 159.25C676.827 159.019 676.697 158.811 676.509 158.663C676.321 158.514 676.086 158.433 675.844 158.433C675.601 158.433 675.366 158.514 675.178 158.663C674.99 158.811 674.86 159.019 674.811 159.25C674.279 161.719 672.298 163.65 669.763 164.167C669.526 164.216 669.313 164.342 669.16 164.525C669.007 164.709 668.924 164.937 668.924 165.173C668.924 165.409 669.007 165.638 669.16 165.821C669.313 166.005 669.526 166.131 669.763 166.18C672.298 166.697 674.279 168.627 674.81 171.097C674.86 171.328 674.99 171.535 675.178 171.684C675.366 171.833 675.601 171.914 675.843 171.914C676.086 171.914 676.321 171.833 676.509 171.684C676.697 171.535 676.827 171.328 676.876 171.097C677.408 168.627 679.389 166.697 681.924 166.18C682.161 166.131 682.374 166.005 682.527 165.822C682.68 165.638 682.763 165.41 682.763 165.174C682.763 164.937 682.68 164.709 682.527 164.525C682.374 164.342 682.161 164.216 681.924 164.167Z" fill="#6762FE"/>
</g>
<defs>
<filter id="filter0_f_4731_584" x="602.094" y="98.0941" width="129.813" height="129.814" filterUnits="userSpaceOnUse" color-interpolation-filters="sRGB">
<feFlood flood-opacity="0" result="BackgroundImageFix"/>
<feBlend mode="normal" in="SourceGraphic" in2="BackgroundImageFix" result="shape"/>
<feGaussianBlur stdDeviation="12.9813" result="effect1_foregroundBlur_4731_584"/>
</filter>
<filter id="filter1_f_4731_584" x="628.056" y="27.6253" width="86.6964" height="86.6966" filterUnits="userSpaceOnUse" color-interpolation-filters="sRGB">
<feFlood flood-opacity="0" result="BackgroundImageFix"/>
<feBlend mode="normal" in="SourceGraphic" in2="BackgroundImageFix" result="shape"/>
<feGaussianBlur stdDeviation="12.9813" result="effect1_foregroundBlur_4731_584"/>
</filter>
<filter id="filter2_f_4731_584" x="628.056" y="220.489" width="86.6964" height="86.6966" filterUnits="userSpaceOnUse" color-interpolation-filters="sRGB">
<feFlood flood-opacity="0" result="BackgroundImageFix"/>
<feBlend mode="normal" in="SourceGraphic" in2="BackgroundImageFix" result="shape"/>
<feGaussianBlur stdDeviation="12.9813" result="effect1_foregroundBlur_4731_584"/>
</filter>
<filter id="filter3_f_4731_584" x="718.925" y="77.6956" width="86.6964" height="86.6966" filterUnits="userSpaceOnUse" color-interpolation-filters="sRGB">
<feFlood flood-opacity="0" result="BackgroundImageFix"/>
<feBlend mode="normal" in="SourceGraphic" in2="BackgroundImageFix" result="shape"/>
<feGaussianBlur stdDeviation="12.9813" result="effect1_foregroundBlur_4731_584"/>
</filter>
<filter id="filter4_f_4731_584" x="539.041" y="77.6956" width="86.6964" height="86.6966" filterUnits="userSpaceOnUse" color-interpolation-filters="sRGB">
<feFlood flood-opacity="0" result="BackgroundImageFix"/>
<feBlend mode="normal" in="SourceGraphic" in2="BackgroundImageFix" result="shape"/>
<feGaussianBlur stdDeviation="12.9813" result="effect1_foregroundBlur_4731_584"/>
</filter>
<filter id="filter5_f_4731_584" x="718.925" y="172.274" width="86.6964" height="86.6966" filterUnits="userSpaceOnUse" color-interpolation-filters="sRGB">
<feFlood flood-opacity="0" result="BackgroundImageFix"/>
<feBlend mode="normal" in="SourceGraphic" in2="BackgroundImageFix" result="shape"/>
<feGaussianBlur stdDeviation="12.9813" result="effect1_foregroundBlur_4731_584"/>
</filter>
<filter id="filter6_f_4731_584" x="539.041" y="172.274" width="86.6964" height="86.6966" filterUnits="userSpaceOnUse" color-interpolation-filters="sRGB">
<feFlood flood-opacity="0" result="BackgroundImageFix"/>
<feBlend mode="normal" in="SourceGraphic" in2="BackgroundImageFix" result="shape"/>
<feGaussianBlur stdDeviation="12.9813" result="effect1_foregroundBlur_4731_584"/>
</filter>
<linearGradient id="paint0_linear_4731_584" x1="570.104" y1="163.001" x2="780.123" y2="163.001" gradientUnits="userSpaceOnUse">
<stop stop-color="#6762FE"/>
<stop offset="1" stop-color="#0055FF" stop-opacity="0.05"/>
</linearGradient>
<linearGradient id="paint1_linear_4731_584" x1="834.83" y1="162.999" x2="499.171" y2="162.999" gradientUnits="userSpaceOnUse">
<stop stop-color="#6762FE" stop-opacity="0.5"/>
<stop offset="1" stop-color="#CCD0FE" stop-opacity="0.7"/>
</linearGradient>
<linearGradient id="paint2_linear_4731_584" x1="444" y1="163" x2="890" y2="163" gradientUnits="userSpaceOnUse">
<stop stop-color="#6762FE" stop-opacity="0.5"/>
<stop offset="1" stop-color="#CCD0FE" stop-opacity="0.7"/>
</linearGradient>
<clipPath id="clip0_4731_584">
<rect width="890" height="325" fill="white"/>
</clipPath>
<clipPath id="clip1_4731_584">
<rect width="22.6657" height="19.1242" fill="white" transform="translate(654.869 248.717)"/>
</clipPath>
</defs>
</svg>
