<svg width="51" height="51" viewBox="0 0 51 51" fill="none" xmlns="http://www.w3.org/2000/svg">
<g filter="url(#filter0_b_3249_1927)">
<g clip-path="url(#clip0_3249_1927)">
<path d="M10 18C10 13.5817 13.5817 10 18 10H42C46.4183 10 50 13.5817 50 18V42C50 46.4183 46.4183 50 42 50H18C13.5817 50 10 46.4183 10 42V18Z" fill="white"/>
<g style="mix-blend-mode:plus-lighter" opacity="0.5" filter="url(#filter1_f_3249_1927)">
<rect x="18.3346" y="18.333" width="23.3333" height="23.3333" rx="11.6667" fill="#1275B1"/>
<path d="M27.1821 24.7431C27.1821 25.5219 26.5071 26.1533 25.6744 26.1533C24.8417 26.1533 24.1666 25.5219 24.1666 24.7431C24.1666 23.9643 24.8417 23.333 25.6744 23.333C26.5071 23.333 27.1821 23.9643 27.1821 24.7431Z" fill="white"/>
<path d="M24.3728 27.1898H26.9501V34.9997H24.3728V27.1898Z" fill="white"/>
<path d="M31.0996 27.1898H28.5223V34.9997H31.0996C31.0996 34.9997 31.0996 32.541 31.0996 31.0037C31.0996 30.081 31.4147 29.1543 32.6718 29.1543C34.0925 29.1543 34.0839 30.3618 34.0773 31.2973C34.0686 32.52 34.0893 33.7679 34.0893 34.9997H36.6666V30.8778C36.6448 28.2458 35.959 27.0331 33.7027 27.0331C32.3628 27.0331 31.5322 27.6414 31.0996 28.1918V27.1898Z" fill="white"/>
</g>
<rect x="18.334" y="18.333" width="23.3333" height="23.3333" rx="11.6667" fill="#1275B1"/>
<path d="M27.1815 24.7431C27.1815 25.5219 26.5064 26.1533 25.6737 26.1533C24.8411 26.1533 24.166 25.5219 24.166 24.7431C24.166 23.9643 24.8411 23.333 25.6737 23.333C26.5064 23.333 27.1815 23.9643 27.1815 24.7431Z" fill="white"/>
<path d="M24.3722 27.1898H26.9495V34.9997H24.3722V27.1898Z" fill="white"/>
<path d="M31.099 27.1898H28.5217V34.9997H31.099C31.099 34.9997 31.099 32.541 31.099 31.0037C31.099 30.081 31.4141 29.1543 32.6712 29.1543C34.0919 29.1543 34.0833 30.3618 34.0767 31.2973C34.068 32.52 34.0887 33.7679 34.0887 34.9997H36.666V30.8778C36.6442 28.2458 35.9584 27.0331 33.7021 27.0331C32.3622 27.0331 31.5316 27.6414 31.099 28.1918V27.1898Z" fill="white"/>
</g>
<path d="M18 9.5C13.3056 9.5 9.5 13.3056 9.5 18V42C9.5 46.6944 13.3056 50.5 18 50.5H42C46.6944 50.5 50.5 46.6944 50.5 42V18C50.5 13.3056 46.6944 9.5 42 9.5H18Z" stroke="#EEF0F5"/>
</g>
<g style="mix-blend-mode:screen" filter="url(#filter2_f_3249_1927)">
<circle cx="24.166" cy="24.167" r="7.5" fill="white" fill-opacity="0.18"/>
</g>
<defs>
<filter id="filter0_b_3249_1927" x="-121.985" y="-121.985" width="303.969" height="303.969" filterUnits="userSpaceOnUse" color-interpolation-filters="sRGB">
<feFlood flood-opacity="0" result="BackgroundImageFix"/>
<feGaussianBlur in="BackgroundImageFix" stdDeviation="65.4923"/>
<feComposite in2="SourceAlpha" operator="in" result="effect1_backgroundBlur_3249_1927"/>
<feBlend mode="normal" in="SourceGraphic" in2="effect1_backgroundBlur_3249_1927" result="shape"/>
</filter>
<filter id="filter1_f_3249_1927" x="6.66663" y="6.66699" width="46.6666" height="46.667" filterUnits="userSpaceOnUse" color-interpolation-filters="sRGB">
<feFlood flood-opacity="0" result="BackgroundImageFix"/>
<feBlend mode="normal" in="SourceGraphic" in2="BackgroundImageFix" result="shape"/>
<feGaussianBlur stdDeviation="5" result="effect1_foregroundBlur_3249_1927"/>
</filter>
<filter id="filter2_f_3249_1927" x="-0.000650406" y="0.000326157" width="48.3333" height="48.3333" filterUnits="userSpaceOnUse" color-interpolation-filters="sRGB">
<feFlood flood-opacity="0" result="BackgroundImageFix"/>
<feBlend mode="normal" in="SourceGraphic" in2="BackgroundImageFix" result="shape"/>
<feGaussianBlur stdDeviation="8.33333" result="effect1_foregroundBlur_3249_1927"/>
</filter>
<clipPath id="clip0_3249_1927">
<path d="M10 18C10 13.5817 13.5817 10 18 10H42C46.4183 10 50 13.5817 50 18V42C50 46.4183 46.4183 50 42 50H18C13.5817 50 10 46.4183 10 42V18Z" fill="white"/>
</clipPath>
</defs>
</svg>
